<?xml version="1.0" encoding="UTF-8" standalone="no"?>
<!DOCTYPE svg PUBLIC "-//W3C//DTD SVG 1.1//EN"
 "http://www.w3.org/Graphics/SVG/1.1/DTD/svg11.dtd">
<!-- Generated by graphviz version 2.36.0 (20140111.2315)
 -->
<!-- Title: %3 Pages: 1 -->
<svg width="1374pt" height="258pt"
 viewBox="0.00 0.00 1374.00 258.00" xmlns="http://www.w3.org/2000/svg" xmlns:xlink="http://www.w3.org/1999/xlink">
<g id="graph0" class="graph" transform="scale(1 1) rotate(0) translate(4 254)">
<title>%3</title>
<polygon fill="white" stroke="none" points="-4,4 -4,-254 1370,-254 1370,4 -4,4"/>
<!-- FloraChina.OakGenus -->
<g id="node1" class="node"><title>FloraChina.OakGenus</title>
<polygon fill="#ccffcc" stroke="black" points="278,-143 140,-143 140,-107 278,-107 278,-143"/>
<text text-anchor="middle" x="209" y="-121.3" font-family="Times,serif" font-size="14.00">FloraChina.OakGenus</text>
</g>
<!-- FloraChina.ChineseOakSpecies1 -->
<g id="node2" class="node"><title>FloraChina.ChineseOakSpecies1</title>
<polygon fill="#ccffcc" stroke="black" points="511.5,-143 316.5,-143 316.5,-107 511.5,-107 511.5,-143"/>
<text text-anchor="middle" x="414" y="-121.3" font-family="Times,serif" font-size="14.00">FloraChina.ChineseOakSpecies1</text>
</g>
<!-- FloraChina.OakGenus&#45;&gt;FloraChina.ChineseOakSpecies1 -->
<g id="edge2" class="edge"><title>FloraChina.OakGenus&#45;&gt;FloraChina.ChineseOakSpecies1</title>
<path fill="none" stroke="#000000" d="M288.322,-125C297.436,-125 306.813,-125 316.138,-125"/>
<polygon fill="#000000" stroke="#000000" points="288.161,-121.5 278.161,-125 288.161,-128.5 288.161,-121.5"/>
</g>
<!-- FloraChina.ChineseOakSpecies2 -->
<g id="node3" class="node"><title>FloraChina.ChineseOakSpecies2</title>
<polygon fill="#ccffcc" stroke="black" points="725.5,-41 530.5,-41 530.5,-5 725.5,-5 725.5,-41"/>
<text text-anchor="middle" x="628" y="-19.3" font-family="Times,serif" font-size="14.00">FloraChina.ChineseOakSpecies2</text>
</g>
<!-- FloraChina.OakGenus&#45;&gt;FloraChina.ChineseOakSpecies2 -->
<g id="edge1" class="edge"><title>FloraChina.OakGenus&#45;&gt;FloraChina.ChineseOakSpecies2</title>
<path fill="none" stroke="#000000" d="M287.916,-105.033C297.373,-102.645 306.903,-100.255 316,-98 396.055,-78.1524 487.882,-56.0943 550.886,-41.0688"/>
<polygon fill="#000000" stroke="#000000" points="286.944,-101.668 278.109,-107.515 288.662,-108.454 286.944,-101.668"/>
</g>
<!-- FloraMexico.OakGenus -->
<g id="node5" class="node"><title>FloraMexico.OakGenus</title>
<polygon fill="#ffffcc" stroke="black" points="1366.23,-156.544 1366.23,-171.456 1305.18,-182 1218.82,-182 1157.77,-171.456 1157.77,-156.544 1218.82,-146 1305.18,-146 1366.23,-156.544"/>
<text text-anchor="middle" x="1262" y="-160.3" font-family="Times,serif" font-size="14.00">FloraMexico.OakGenus</text>
</g>
<!-- FloraChina.OakGenus&#45;&gt;FloraMexico.OakGenus -->
<g id="edge3" class="edge"><title>FloraChina.OakGenus&#45;&gt;FloraMexico.OakGenus</title>
<path fill="none" stroke="#aa00ff" stroke-width="3" stroke-dasharray="1,5" d="M231.54,-143.057C266.981,-170.866 340.877,-221 413,-221 413,-221 413,-221 974,-221 1053.24,-221 1142.46,-199.84 1200.09,-183.305"/>
<polygon fill="#aa00ff" stroke="#aa00ff" stroke-width="3" points="1201.14,-186.644 1209.76,-180.487 1199.18,-179.923 1201.14,-186.644"/>
<text text-anchor="middle" x="766" y="-224.8" font-family="Times,serif" font-size="14.00">&gt; OR &lt;</text>
</g>
<!-- FloraChinaChineseOakSpecies1+ -->
<g id="node4" class="node"><title>FloraChinaChineseOakSpecies1+</title>
<ellipse fill="#ffffff" stroke="black" cx="766" cy="-125" rx="18" ry="18"/>
<text text-anchor="middle" x="766" y="-121.3" font-family="Times,serif" font-size="14.00">+</text>
</g>
<!-- FloraChina.ChineseOakSpecies1&#45;&gt;FloraChinaChineseOakSpecies1+ -->
<g id="edge9" class="edge"><title>FloraChina.ChineseOakSpecies1&#45;&gt;FloraChinaChineseOakSpecies1+</title>
<path fill="none" stroke="#000000" d="M521.839,-125C602.954,-125 707.223,-125 747.786,-125"/>
<polygon fill="#000000" stroke="#000000" points="521.566,-121.5 511.566,-125 521.566,-128.5 521.566,-121.5"/>
</g>
<!-- FloraMexico.MexicanOakSpecies1 -->
<g id="node6" class="node"><title>FloraMexico.MexicanOakSpecies1</title>
<polygon fill="#ffffcc" stroke="black" points="1120.06,-75.5442 1120.06,-90.4558 1033.91,-101 912.086,-101 825.94,-90.4558 825.94,-75.5442 912.086,-65 1033.91,-65 1120.06,-75.5442"/>
<text text-anchor="middle" x="973" y="-79.3" font-family="Times,serif" font-size="14.00">FloraMexico.MexicanOakSpecies1</text>
</g>
<!-- FloraChina.ChineseOakSpecies1&#45;&gt;FloraMexico.MexicanOakSpecies1 -->
<g id="edge4" class="edge"><title>FloraChina.ChineseOakSpecies1&#45;&gt;FloraMexico.MexicanOakSpecies1</title>
<path fill="none" stroke="#aa00ff" stroke-width="3" stroke-dasharray="1,5" d="M511.503,-109.402C576.908,-99.6388 665.416,-87.9957 744,-83 767.159,-81.5277 791.668,-80.7298 815.694,-80.3745"/>
<polygon fill="#aa00ff" stroke="#aa00ff" stroke-width="3" points="816,-83.8711 825.956,-80.2487 815.914,-76.8717 816,-83.8711"/>
<text text-anchor="middle" x="766" y="-86.8" font-family="Times,serif" font-size="14.00">&gt;</text>
</g>
<!-- FloraMexico.MexicanOakSpecies2 -->
<g id="node7" class="node"><title>FloraMexico.MexicanOakSpecies2</title>
<polygon fill="#ffffcc" stroke="black" points="1120.06,-156.544 1120.06,-171.456 1033.91,-182 912.086,-182 825.94,-171.456 825.94,-156.544 912.086,-146 1033.91,-146 1120.06,-156.544"/>
<text text-anchor="middle" x="973" y="-160.3" font-family="Times,serif" font-size="14.00">FloraMexico.MexicanOakSpecies2</text>
</g>
<!-- FloraChina.ChineseOakSpecies1&#45;&gt;FloraMexico.MexicanOakSpecies2 -->
<g id="edge5" class="edge"><title>FloraChina.ChineseOakSpecies1&#45;&gt;FloraMexico.MexicanOakSpecies2</title>
<path fill="none" stroke="#aa00ff" stroke-width="3" stroke-dasharray="1,5" d="M511.583,-137.188C517.811,-137.841 523.991,-138.452 530,-139 624.606,-147.624 730.892,-153.748 815.526,-157.776"/>
<polygon fill="#aa00ff" stroke="#aa00ff" stroke-width="3" points="815.584,-161.283 825.738,-158.257 815.914,-154.29 815.584,-161.283"/>
<text text-anchor="middle" x="766" y="-159.8" font-family="Times,serif" font-size="14.00">&gt;</text>
</g>
<!-- FloraChina.ChineseOakSpecies2&#45;&gt;FloraMexico.MexicanOakSpecies1 -->
<g id="edge6" class="edge"><title>FloraChina.ChineseOakSpecies2&#45;&gt;FloraMexico.MexicanOakSpecies1</title>
<path fill="none" stroke="#aa00ff" stroke-width="3" stroke-dasharray="1,5" d="M725.636,-25.1582C746.306,-26.5429 767.949,-28.6929 788,-32 828.958,-38.7554 873.873,-51.1053 909.074,-61.9599"/>
<polygon fill="#aa00ff" stroke="#aa00ff" stroke-width="3" points="908.145,-65.3363 918.734,-64.9759 910.231,-58.6544 908.145,-65.3363"/>
<text text-anchor="middle" x="766" y="-35.8" font-family="Times,serif" font-size="14.00">==</text>
</g>
<!-- FloraChinaChineseOakSpecies1+&#45;&gt;FloraMexico.MexicanOakSpecies1 -->
<g id="edge10" class="edge"><title>FloraChinaChineseOakSpecies1+&#45;&gt;FloraMexico.MexicanOakSpecies1</title>
<path fill="none" stroke="#000000" d="M793.785,-119.512C819.281,-114.289 858.907,-106.17 894.325,-98.914"/>
<polygon fill="#000000" stroke="#000000" points="792.87,-116.127 783.776,-121.563 794.275,-122.985 792.87,-116.127"/>
</g>
<!-- FloraChinaChineseOakSpecies1+&#45;&gt;FloraMexico.MexicanOakSpecies2 -->
<g id="edge11" class="edge"><title>FloraChinaChineseOakSpecies1+&#45;&gt;FloraMexico.MexicanOakSpecies2</title>
<path fill="none" stroke="#000000" d="M793.813,-130.101C818.501,-134.798 856.418,-142.011 890.939,-148.579"/>
<polygon fill="#000000" stroke="#000000" points="794.254,-126.622 783.776,-128.192 792.946,-133.499 794.254,-126.622"/>
</g>
<!-- FloraMexico.MexicanOakSpecies1&#45;&gt;FloraMexico.OakGenus -->
<g id="edge7" class="edge"><title>FloraMexico.MexicanOakSpecies1&#45;&gt;FloraMexico.OakGenus</title>
<path fill="none" stroke="#000000" d="M1036.63,-100.676C1083.59,-113.931 1147.72,-132.028 1195.39,-145.482"/>
<polygon fill="#000000" stroke="#000000" points="1194.72,-148.932 1205.3,-148.279 1196.63,-142.195 1194.72,-148.932"/>
</g>
<!-- FloraMexico.MexicanOakSpecies2&#45;&gt;FloraMexico.OakGenus -->
<g id="edge8" class="edge"><title>FloraMexico.MexicanOakSpecies2&#45;&gt;FloraMexico.OakGenus</title>
<path fill="none" stroke="#000000" d="M1120.44,-164C1129.58,-164 1138.7,-164 1147.66,-164"/>
<polygon fill="#000000" stroke="#000000" points="1147.69,-167.5 1157.69,-164 1147.69,-160.5 1147.69,-167.5"/>
</g>
<!-- Legend -->
<g id="node8" class="node"><title>Legend</title>
<polygon fill="white" stroke="black" points="121.5,-250.5 0.5,-250.5 0.5,0.5 121.5,0.5 121.5,-250.5"/>
<polygon fill="none" stroke="black" points="1,-224 1,-250 122,-250 122,-224 1,-224"/>
<text text-anchor="start" x="37" y="-233.3" font-family="Arial Black" font-size="14.00"> Nodes</text>
<polygon fill="#ccffcc" stroke="none" points="1,-199 1,-224 105,-224 105,-199 1,-199"/>
<polygon fill="none" stroke="black" points="1,-199 1,-224 105,-224 105,-199 1,-199"/>
<text text-anchor="start" x="22.5" y="-207.8" font-family="Times,serif" font-size="14.00">FloraChina</text>
<polygon fill="none" stroke="black" points="105,-199 105,-224 122,-224 122,-199 105,-199"/>
<text text-anchor="start" x="110" y="-207.8" font-family="Times,serif" font-size="14.00">3</text>
<polygon fill="#ffffff" stroke="none" points="1,-174 1,-199 105,-199 105,-174 1,-174"/>
<polygon fill="none" stroke="black" points="1,-174 1,-199 105,-199 105,-174 1,-174"/>
<text text-anchor="start" x="44" y="-182.8" font-family="Times,serif" font-size="14.00">(+)</text>
<polygon fill="none" stroke="black" points="105,-174 105,-199 122,-199 122,-174 105,-174"/>
<text text-anchor="start" x="110" y="-182.8" font-family="Times,serif" font-size="14.00">1</text>
<polygon fill="#ffffcc" stroke="none" points="1,-149 1,-174 105,-174 105,-149 1,-149"/>
<polygon fill="none" stroke="black" points="1,-149 1,-174 105,-174 105,-149 1,-149"/>
<text text-anchor="start" x="17.5" y="-157.8" font-family="Times,serif" font-size="14.00">FloraMexico</text>
<polygon fill="none" stroke="black" points="105,-149 105,-174 122,-174 122,-149 105,-149"/>
<text text-anchor="start" x="110" y="-157.8" font-family="Times,serif" font-size="14.00">3</text>
<polygon fill="none" stroke="black" points="1,-124 1,-149 122,-149 122,-124 1,-124"/>
<text text-anchor="start" x="35.5" y="-132.8" font-family="Arial Black" font-size="14.00"> Edges </text>
<polygon fill="none" stroke="black" points="1,-99 1,-124 105,-124 105,-99 1,-99"/>
<text text-anchor="start" x="11.5" y="-107.8" font-family="Times,serif" font-size="14.00" fill="#000000">isa_FloraChina</text>
<polygon fill="none" stroke="black" points="105,-99 105,-124 122,-124 122,-99 105,-99"/>
<text text-anchor="start" x="110" y="-107.8" font-family="Times,serif" font-size="14.00">2</text>
<polygon fill="none" stroke="black" points="1,-74 1,-99 105,-99 105,-74 1,-74"/>
<text text-anchor="start" x="42" y="-82.8" font-family="Times,serif" font-size="14.00" fill="#aa00ff">Art.</text>
<polygon fill="none" stroke="black" points="105,-74 105,-99 122,-99 122,-74 105,-74"/>
<text text-anchor="start" x="110" y="-82.8" font-family="Times,serif" font-size="14.00">4</text>
<polygon fill="none" stroke="black" points="1,-49 1,-74 105,-74 105,-49 1,-49"/>
<text text-anchor="start" x="6.5" y="-57.8" font-family="Times,serif" font-size="14.00" fill="#000000">isa_FloraMexico</text>
<polygon fill="none" stroke="black" points="105,-49 105,-74 122,-74 122,-49 105,-49"/>
<text text-anchor="start" x="110" y="-57.8" font-family="Times,serif" font-size="14.00">2</text>
<polygon fill="none" stroke="black" points="1,-24 1,-49 105,-49 105,-24 1,-24"/>
<text text-anchor="start" x="44" y="-32.8" font-family="Times,serif" font-size="14.00" fill="#000000">out</text>
<polygon fill="none" stroke="black" points="105,-24 105,-49 122,-49 122,-24 105,-24"/>
<text text-anchor="start" x="110" y="-32.8" font-family="Times,serif" font-size="14.00">1</text>
<polygon fill="none" stroke="black" points="1,1 1,-24 105,-24 105,1 1,1"/>
<text text-anchor="start" x="47.5" y="-7.8" font-family="Times,serif" font-size="14.00" fill="#000000">in</text>
<polygon fill="none" stroke="black" points="105,1 105,-24 122,-24 122,1 105,1"/>
<text text-anchor="start" x="110" y="-7.8" font-family="Times,serif" font-size="14.00">2</text>
</g>
</g>
</svg>
