<?xml version="1.0" encoding="UTF-8" standalone="no"?>
<!DOCTYPE svg PUBLIC "-//W3C//DTD SVG 1.1//EN"
 "http://www.w3.org/Graphics/SVG/1.1/DTD/svg11.dtd">
<!-- Generated by graphviz version 2.36.0 (20140111.2315)
 -->
<!-- Title: %3 Pages: 1 -->
<svg width="608pt" height="364pt"
 viewBox="0.00 0.00 608.00 364.00" xmlns="http://www.w3.org/2000/svg" xmlns:xlink="http://www.w3.org/1999/xlink">
<g id="graph0" class="graph" transform="scale(1 1) rotate(0) translate(4 360)">
<title>%3</title>
<polygon fill="white" stroke="none" points="-4,4 -4,-360 604,-360 604,4 -4,4"/>
<!-- AllOtherRed -->
<g id="node1" class="node"><title>AllOtherRed</title>
<polygon fill="none" stroke="#ffb0b0" stroke-dasharray="5,2" points="355.921,-330.544 355.921,-345.456 323.163,-356 276.837,-356 244.079,-345.456 244.079,-330.544 276.837,-320 323.163,-320 355.921,-330.544"/>
<text text-anchor="middle" x="300" y="-334.3" font-family="Helvetica,sans-Serif" font-stretch="condensed" font-size="14.00">AllOtherRed</text>
</g>
<!-- 1, 4, 5 -->
<g id="node3" class="node"><title>1, 4, 5</title>
<path fill="#a0ffa0" stroke="#006400" d="M202,-268C202,-268 172,-268 172,-268 166,-268 160,-262 160,-256 160,-256 160,-244 160,-244 160,-238 166,-232 172,-232 172,-232 202,-232 202,-232 208,-232 214,-238 214,-244 214,-244 214,-256 214,-256 214,-262 208,-268 202,-268"/>
<text text-anchor="middle" x="187" y="-246.3" font-family="Helvetica,sans-Serif" font-stretch="condensed" font-size="14.00">1, 4, 5</text>
</g>
<!-- AllOtherRed&#45;&gt;1, 4, 5 -->
<g id="edge1" class="edge"><title>AllOtherRed&#45;&gt;1, 4, 5</title>
<path fill="none" stroke="blue" d="M277.404,-319.803C257.696,-304.804 229.253,-283.157 209.556,-268.167"/>
<text text-anchor="middle" x="257.5" y="-290.3" font-family="Times,serif" font-size="14.00">2</text>
</g>
<!-- 1, 2, 3, 4 -->
<g id="node4" class="node"><title>1, 2, 3, 4</title>
<path fill="#a0ffa0" stroke="#006400" d="M281.5,-268C281.5,-268 244.5,-268 244.5,-268 238.5,-268 232.5,-262 232.5,-256 232.5,-256 232.5,-244 232.5,-244 232.5,-238 238.5,-232 244.5,-232 244.5,-232 281.5,-232 281.5,-232 287.5,-232 293.5,-238 293.5,-244 293.5,-244 293.5,-256 293.5,-256 293.5,-262 287.5,-268 281.5,-268"/>
<text text-anchor="middle" x="263" y="-246.3" font-family="Helvetica,sans-Serif" font-stretch="condensed" font-size="14.00">1, 2, 3, 4</text>
</g>
<!-- AllOtherRed&#45;&gt;1, 2, 3, 4 -->
<g id="edge3" class="edge"><title>AllOtherRed&#45;&gt;1, 2, 3, 4</title>
<path fill="none" stroke="blue" d="M292.512,-319.597C286.051,-304.578 276.771,-283.009 270.35,-268.084"/>
<text text-anchor="middle" x="288.5" y="-290.3" font-family="Times,serif" font-size="14.00">1</text>
</g>
<!-- 5, 2 -->
<g id="node5" class="node"><title>5, 2</title>
<polygon fill="#ffb0b0" stroke="#ff0000" points="366,-242.544 366,-257.456 350.184,-268 327.816,-268 312,-257.456 312,-242.544 327.816,-232 350.184,-232 366,-242.544"/>
<text text-anchor="middle" x="339" y="-246.3" font-family="Helvetica,sans-Serif" font-stretch="condensed" font-size="14.00">5, 2</text>
</g>
<!-- AllOtherRed&#45;&gt;5, 2 -->
<g id="edge5" class="edge"><title>AllOtherRed&#45;&gt;5, 2</title>
<path fill="none" stroke="red" stroke-dasharray="5,2" d="M312.178,-310.145C318.409,-296.406 325.806,-280.094 331.253,-268.084"/>
<polygon fill="red" stroke="red" points="308.835,-309.044 307.892,-319.597 315.21,-311.935 308.835,-309.044"/>
<text text-anchor="middle" x="325.5" y="-290.3" font-family="Times,serif" font-size="14.00">3</text>
</g>
<!-- 5, 3 -->
<g id="node6" class="node"><title>5, 3</title>
<polygon fill="#ffb0b0" stroke="#ff0000" points="438,-242.544 438,-257.456 422.184,-268 399.816,-268 384,-257.456 384,-242.544 399.816,-232 422.184,-232 438,-242.544"/>
<text text-anchor="middle" x="411" y="-246.3" font-family="Helvetica,sans-Serif" font-stretch="condensed" font-size="14.00">5, 3</text>
</g>
<!-- AllOtherRed&#45;&gt;5, 3 -->
<g id="edge7" class="edge"><title>AllOtherRed&#45;&gt;5, 3</title>
<path fill="none" stroke="red" stroke-dasharray="5,2" d="M330.282,-313.538C350.743,-297.686 377.01,-277.335 393.925,-264.229"/>
<polygon fill="red" stroke="red" points="327.957,-310.912 322.196,-319.803 332.244,-316.445 327.957,-310.912"/>
<text text-anchor="middle" x="368.5" y="-290.3" font-family="Times,serif" font-size="14.00">3</text>
</g>
<!-- AllOtherGreen -->
<g id="node2" class="node"><title>AllOtherGreen</title>
<path fill="none" stroke="#006400" stroke-dasharray="5,2" d="M333.25,-180C333.25,-180 266.75,-180 266.75,-180 260.75,-180 254.75,-174 254.75,-168 254.75,-168 254.75,-156 254.75,-156 254.75,-150 260.75,-144 266.75,-144 266.75,-144 333.25,-144 333.25,-144 339.25,-144 345.25,-150 345.25,-156 345.25,-156 345.25,-168 345.25,-168 345.25,-174 339.25,-180 333.25,-180"/>
<text text-anchor="middle" x="300" y="-158.3" font-family="Helvetica,sans-Serif" font-stretch="condensed" font-size="14.00">AllOtherGreen</text>
</g>
<!-- 1, 4, 5&#45;&gt;AllOtherGreen -->
<g id="edge2" class="edge"><title>1, 4, 5&#45;&gt;AllOtherGreen</title>
<path fill="none" stroke="#006400" stroke-dasharray="5,2" d="M209.596,-231.803C226.764,-218.737 250.559,-200.628 269.428,-186.267"/>
<polygon fill="#006400" stroke="#006400" points="271.606,-189.008 277.444,-180.167 267.366,-183.438 271.606,-189.008"/>
<text text-anchor="middle" x="257.5" y="-202.3" font-family="Times,serif" font-size="14.00">3</text>
</g>
<!-- 1, 2, 3, 4&#45;&gt;AllOtherGreen -->
<g id="edge4" class="edge"><title>1, 2, 3, 4&#45;&gt;AllOtherGreen</title>
<path fill="none" stroke="#006400" stroke-dasharray="5,2" d="M270.488,-231.597C275.687,-219.511 282.711,-203.184 288.603,-189.491"/>
<polygon fill="#006400" stroke="#006400" points="291.913,-190.653 292.65,-180.084 285.483,-187.887 291.913,-190.653"/>
<text text-anchor="middle" x="288.5" y="-202.3" font-family="Times,serif" font-size="14.00">4</text>
</g>
<!-- 5, 2&#45;&gt;AllOtherGreen -->
<g id="edge6" class="edge"><title>5, 2&#45;&gt;AllOtherGreen</title>
<path fill="none" stroke="blue" d="M331.108,-231.597C324.297,-216.578 314.516,-195.009 307.747,-180.084"/>
<text text-anchor="middle" x="325.5" y="-202.3" font-family="Times,serif" font-size="14.00">2</text>
</g>
<!-- 5, 3&#45;&gt;AllOtherGreen -->
<g id="edge8" class="edge"><title>5, 3&#45;&gt;AllOtherGreen</title>
<path fill="none" stroke="blue" d="M393.656,-235.562C374.388,-220.634 343.229,-196.493 322.196,-180.197"/>
<text text-anchor="middle" x="368.5" y="-202.3" font-family="Times,serif" font-size="14.00">2</text>
</g>
<!-- Legend -->
<g id="node7" class="node"><title>Legend</title>
<polygon fill="none" stroke="black" points="600.25,-126 -0.25,-126 -0.25,-0 600.25,-0 600.25,-126"/>
<polygon fill="none" stroke="black" points="0,-100 0,-126 18,-126 18,-100 0,-100"/>
<text text-anchor="start" x="5.5" y="-109.3" font-family="Helvetica,sans-Serif" font-stretch="condensed" font-size="14.00">1</text>
<polygon fill="none" stroke="black" points="18,-100 18,-126 601,-126 601,-100 18,-100"/>
<text text-anchor="start" x="121.5" y="-109.3" font-family="Helvetica,sans-Serif" font-stretch="condensed" font-size="14.00">FloraChina.OakGenus {includes is_included_in} FloraMexico.OakGenus</text>
<polygon fill="none" stroke="black" points="0,-75 0,-100 18,-100 18,-75 0,-75"/>
<text text-anchor="start" x="5.5" y="-83.8" font-family="Helvetica,sans-Serif" font-stretch="condensed" font-size="14.00">2</text>
<polygon fill="none" stroke="black" points="18,-75 18,-100 601,-100 601,-75 18,-75"/>
<text text-anchor="start" x="23" y="-83.8" font-family="Helvetica,sans-Serif" font-stretch="condensed" font-size="14.00">FloraChina.ChineseOakSpecies1 rsum FloraMexico.MexicanOakSpecies1 FloraMexico.MexicanOakSpecies2</text>
<polygon fill="none" stroke="black" points="0,-50 0,-75 18,-75 18,-50 0,-50"/>
<text text-anchor="start" x="5.5" y="-58.8" font-family="Helvetica,sans-Serif" font-stretch="condensed" font-size="14.00">3</text>
<polygon fill="none" stroke="black" points="18,-50 18,-75 601,-75 601,-50 18,-50"/>
<text text-anchor="start" x="106.5" y="-58.8" font-family="Helvetica,sans-Serif" font-stretch="condensed" font-size="14.00">FloraChina.ChineseOakSpecies1 includes FloraMexico.MexicanOakSpecies1</text>
<polygon fill="none" stroke="black" points="0,-25 0,-50 18,-50 18,-25 0,-25"/>
<text text-anchor="start" x="5.5" y="-33.8" font-family="Helvetica,sans-Serif" font-stretch="condensed" font-size="14.00">4</text>
<polygon fill="none" stroke="black" points="18,-25 18,-50 601,-50 601,-25 18,-25"/>
<text text-anchor="start" x="106.5" y="-33.8" font-family="Helvetica,sans-Serif" font-stretch="condensed" font-size="14.00">FloraChina.ChineseOakSpecies1 includes FloraMexico.MexicanOakSpecies2</text>
<polygon fill="none" stroke="black" points="0,-0 0,-25 18,-25 18,-0 0,-0"/>
<text text-anchor="start" x="5.5" y="-8.8" font-family="Helvetica,sans-Serif" font-stretch="condensed" font-size="14.00">5</text>
<polygon fill="none" stroke="black" points="18,-0 18,-25 601,-25 601,-0 18,-0"/>
<text text-anchor="start" x="111" y="-8.8" font-family="Helvetica,sans-Serif" font-stretch="condensed" font-size="14.00">FloraChina.ChineseOakSpecies2 equals FloraMexico.MexicanOakSpecies1</text>
</g>
</g>
</svg>
