<?xml version="1.0" encoding="UTF-8" standalone="no"?>
<!DOCTYPE svg PUBLIC "-//W3C//DTD SVG 1.1//EN"
 "http://www.w3.org/Graphics/SVG/1.1/DTD/svg11.dtd">
<!-- Generated by graphviz version 2.36.0 (20140111.2315)
 -->
<!-- Title: %3 Pages: 1 -->
<svg width="784pt" height="566pt"
 viewBox="0.00 0.00 784.00 566.00" xmlns="http://www.w3.org/2000/svg" xmlns:xlink="http://www.w3.org/1999/xlink">
<g id="graph0" class="graph" transform="scale(1 1) rotate(0) translate(4 562)">
<title>%3</title>
<polygon fill="white" stroke="none" points="-4,4 -4,-562 780,-562 780,4 -4,4"/>
<!-- 6 -->
<g id="node1" class="node"><title>6</title>
<path fill="#a0ffa0" stroke="#006400" d="M42,-414C42,-414 12,-414 12,-414 6,-414 0,-408 0,-402 0,-402 0,-390 0,-390 0,-384 6,-378 12,-378 12,-378 42,-378 42,-378 48,-378 54,-384 54,-390 54,-390 54,-402 54,-402 54,-408 48,-414 42,-414"/>
<text text-anchor="middle" x="27" y="-392.3" font-family="Helvetica,sans-Serif" font-stretch="condensed" font-size="14.00">1, 4, 5</text>
</g>
<!-- 7 -->
<g id="node2" class="node"><title>7</title>
<polygon fill="none" stroke="#006400" stroke-dasharray="5,2" points="200,-342 146,-342 146,-306 200,-306 200,-342"/>
<text text-anchor="middle" x="173" y="-320.3" font-family="Helvetica,sans-Serif" font-stretch="condensed" font-size="14.00">4, 5</text>
</g>
<!-- 6&#45;&gt;7 -->
<g id="edge24" class="edge"><title>6&#45;&gt;7</title>
<path fill="none" stroke="#006400" stroke-dasharray="5,2" d="M54.1193,-381.998C77.3281,-370.87 110.942,-354.754 136.509,-342.496"/>
<polygon fill="#006400" stroke="#006400" points="138.026,-345.65 145.53,-338.17 135,-339.338 138.026,-345.65"/>
</g>
<!-- 14 -->
<g id="node3" class="node"><title>14</title>
<polygon fill="none" stroke="#006400" stroke-dasharray="5,2" points="128,-342 74,-342 74,-306 128,-306 128,-342"/>
<text text-anchor="middle" x="101" y="-320.3" font-family="Helvetica,sans-Serif" font-stretch="condensed" font-size="14.00">1, 5</text>
</g>
<!-- 6&#45;&gt;14 -->
<g id="edge25" class="edge"><title>6&#45;&gt;14</title>
<path fill="none" stroke="#006400" stroke-dasharray="5,2" d="M45.2921,-377.697C54.4326,-369.05 65.6401,-358.449 75.6,-349.027"/>
<polygon fill="#006400" stroke="#006400" points="78.0588,-351.519 82.9183,-342.104 73.2484,-346.434 78.0588,-351.519"/>
</g>
<!-- 22 -->
<g id="node11" class="node"><title>22</title>
<polygon fill="none" stroke="#006400" stroke-dasharray="5,2" points="416,-342 362,-342 362,-306 416,-306 416,-342"/>
<text text-anchor="middle" x="389" y="-320.3" font-family="Helvetica,sans-Serif" font-stretch="condensed" font-size="14.00">1, 4</text>
</g>
<!-- 6&#45;&gt;22 -->
<g id="edge26" class="edge"><title>6&#45;&gt;22</title>
<path fill="none" stroke="#006400" stroke-dasharray="5,2" d="M54.166,-381.077C57.099,-379.906 60.0792,-378.847 63,-378 184.69,-342.699 226.235,-376.452 352.215,-341.665"/>
<polygon fill="#006400" stroke="#006400" points="353.177,-345.031 361.834,-338.923 351.258,-338.299 353.177,-345.031"/>
</g>
<!-- 15 -->
<g id="node4" class="node"><title>15</title>
<polygon fill="none" stroke="#006400" stroke-dasharray="5,2" points="272,-270 218,-270 218,-234 272,-234 272,-270"/>
<text text-anchor="middle" x="245" y="-248.3" font-family="Helvetica,sans-Serif" font-stretch="condensed" font-size="14.00">5</text>
</g>
<!-- 7&#45;&gt;15 -->
<g id="edge27" class="edge"><title>7&#45;&gt;15</title>
<path fill="none" stroke="#006400" stroke-dasharray="5,2" d="M190.798,-305.697C199.604,-297.135 210.382,-286.656 220.001,-277.304"/>
<polygon fill="#006400" stroke="#006400" points="222.677,-279.585 227.407,-270.104 217.797,-274.566 222.677,-279.585"/>
</g>
<!-- 23 -->
<g id="node12" class="node"><title>23</title>
<polygon fill="none" stroke="#006400" stroke-dasharray="5,2" points="488,-270 434,-270 434,-234 488,-234 488,-270"/>
<text text-anchor="middle" x="461" y="-248.3" font-family="Helvetica,sans-Serif" font-stretch="condensed" font-size="14.00">4</text>
</g>
<!-- 7&#45;&gt;23 -->
<g id="edge28" class="edge"><title>7&#45;&gt;23</title>
<path fill="none" stroke="#006400" stroke-dasharray="5,2" d="M200.204,-309.202C203.129,-308.006 206.097,-306.908 209,-306 298.892,-277.881 330.101,-297.683 424.184,-269.751"/>
<polygon fill="#006400" stroke="#006400" points="425.265,-273.08 433.796,-266.798 423.209,-266.389 425.265,-273.08"/>
</g>
<!-- 14&#45;&gt;15 -->
<g id="edge46" class="edge"><title>14&#45;&gt;15</title>
<path fill="none" stroke="#006400" stroke-dasharray="5,2" d="M128.085,-309.834C150.769,-298.807 183.357,-282.966 208.368,-270.807"/>
<polygon fill="#006400" stroke="#006400" points="210.083,-273.865 217.547,-266.345 207.023,-267.57 210.083,-273.865"/>
</g>
<!-- 30 -->
<g id="node19" class="node"><title>30</title>
<polygon fill="none" stroke="#006400" stroke-dasharray="5,2" points="416,-270 362,-270 362,-234 416,-234 416,-270"/>
<text text-anchor="middle" x="389" y="-248.3" font-family="Helvetica,sans-Serif" font-stretch="condensed" font-size="14.00">1</text>
</g>
<!-- 14&#45;&gt;30 -->
<g id="edge47" class="edge"><title>14&#45;&gt;30</title>
<path fill="none" stroke="#006400" stroke-dasharray="5,2" d="M128.244,-309.327C131.162,-308.107 134.117,-306.969 137,-306 176.378,-292.765 291.386,-270.815 351.466,-259.778"/>
<polygon fill="#006400" stroke="#006400" points="352.459,-263.155 361.666,-257.912 351.199,-256.269 352.459,-263.155"/>
</g>
<!-- 31 -->
<g id="node20" class="node"><title>31</title>
<polygon fill="none" stroke="#006400" stroke-dasharray="5,2" points="488,-198 434,-198 434,-162 488,-162 488,-198"/>
</g>
<!-- 15&#45;&gt;31 -->
<g id="edge48" class="edge"><title>15&#45;&gt;31</title>
<path fill="none" stroke="#006400" stroke-dasharray="5,2" d="M272.357,-242.134C310.903,-229.643 381.29,-206.832 424.333,-192.883"/>
<polygon fill="#006400" stroke="#006400" points="425.432,-196.206 433.866,-189.794 423.274,-189.547 425.432,-196.206"/>
</g>
<!-- 16 -->
<g id="node5" class="node"><title>16</title>
<path fill="#a0ffa0" stroke="#006400" d="M623.5,-486C623.5,-486 586.5,-486 586.5,-486 580.5,-486 574.5,-480 574.5,-474 574.5,-474 574.5,-462 574.5,-462 574.5,-456 580.5,-450 586.5,-450 586.5,-450 623.5,-450 623.5,-450 629.5,-450 635.5,-456 635.5,-462 635.5,-462 635.5,-474 635.5,-474 635.5,-480 629.5,-486 623.5,-486"/>
<text text-anchor="middle" x="605" y="-464.3" font-family="Helvetica,sans-Serif" font-stretch="condensed" font-size="14.00">1, 2, 3, 4</text>
</g>
<!-- 17 -->
<g id="node6" class="node"><title>17</title>
<polygon fill="none" stroke="#006400" stroke-dasharray="5,2" points="776,-414 722,-414 722,-378 776,-378 776,-414"/>
<text text-anchor="middle" x="749" y="-392.3" font-family="Helvetica,sans-Serif" font-stretch="condensed" font-size="14.00">2, 3, 4</text>
</g>
<!-- 16&#45;&gt;17 -->
<g id="edge49" class="edge"><title>16&#45;&gt;17</title>
<path fill="none" stroke="#006400" stroke-dasharray="5,2" d="M635.539,-452.155C658.133,-441.172 688.99,-426.172 712.821,-414.587"/>
<polygon fill="#006400" stroke="#006400" points="714.441,-417.691 721.904,-410.172 711.38,-411.396 714.441,-417.691"/>
</g>
<!-- 18 -->
<g id="node7" class="node"><title>18</title>
<polygon fill="none" stroke="#006400" stroke-dasharray="5,2" points="560,-414 506,-414 506,-378 560,-378 560,-414"/>
<text text-anchor="middle" x="533" y="-392.3" font-family="Helvetica,sans-Serif" font-stretch="condensed" font-size="14.00">1, 3, 4</text>
</g>
<!-- 16&#45;&gt;18 -->
<g id="edge50" class="edge"><title>16&#45;&gt;18</title>
<path fill="none" stroke="#006400" stroke-dasharray="5,2" d="M587.202,-449.697C578.396,-441.135 567.618,-430.656 557.999,-421.304"/>
<polygon fill="#006400" stroke="#006400" points="560.203,-418.566 550.593,-414.104 555.323,-423.585 560.203,-418.566"/>
</g>
<!-- 20 -->
<g id="node9" class="node"><title>20</title>
<polygon fill="none" stroke="#006400" stroke-dasharray="5,2" points="632,-414 578,-414 578,-378 632,-378 632,-414"/>
<text text-anchor="middle" x="605" y="-392.3" font-family="Helvetica,sans-Serif" font-stretch="condensed" font-size="14.00">1, 2, 4</text>
</g>
<!-- 16&#45;&gt;20 -->
<g id="edge51" class="edge"><title>16&#45;&gt;20</title>
<path fill="none" stroke="#006400" stroke-dasharray="5,2" d="M605,-449.697C605,-441.983 605,-432.712 605,-424.112"/>
<polygon fill="#006400" stroke="#006400" points="608.5,-424.104 605,-414.104 601.5,-424.104 608.5,-424.104"/>
</g>
<!-- 24 -->
<g id="node13" class="node"><title>24</title>
<polygon fill="none" stroke="#006400" stroke-dasharray="5,2" points="704,-414 650,-414 650,-378 704,-378 704,-414"/>
<text text-anchor="middle" x="677" y="-392.3" font-family="Helvetica,sans-Serif" font-stretch="condensed" font-size="14.00">1, 2, 3</text>
</g>
<!-- 16&#45;&gt;24 -->
<g id="edge52" class="edge"><title>16&#45;&gt;24</title>
<path fill="none" stroke="#006400" stroke-dasharray="5,2" d="M622.798,-449.697C631.604,-441.135 642.382,-430.656 652.001,-421.304"/>
<polygon fill="#006400" stroke="#006400" points="654.677,-423.585 659.407,-414.104 649.797,-418.566 654.677,-423.585"/>
</g>
<!-- 19 -->
<g id="node8" class="node"><title>19</title>
<polygon fill="none" stroke="#006400" stroke-dasharray="5,2" points="560,-342 506,-342 506,-306 560,-306 560,-342"/>
<text text-anchor="middle" x="533" y="-320.3" font-family="Helvetica,sans-Serif" font-stretch="condensed" font-size="14.00">3, 4</text>
</g>
<!-- 17&#45;&gt;19 -->
<g id="edge53" class="edge"><title>17&#45;&gt;19</title>
<path fill="none" stroke="#006400" stroke-dasharray="5,2" d="M721.717,-381.439C718.807,-380.197 715.864,-379.023 713,-378 653.787,-356.849 633.07,-363.473 569.918,-341.948"/>
<polygon fill="#006400" stroke="#006400" points="570.878,-338.575 560.283,-338.561 568.556,-345.179 570.878,-338.575"/>
</g>
<!-- 21 -->
<g id="node10" class="node"><title>21</title>
<polygon fill="none" stroke="#006400" stroke-dasharray="5,2" points="704,-342 650,-342 650,-306 704,-306 704,-342"/>
<text text-anchor="middle" x="677" y="-320.3" font-family="Helvetica,sans-Serif" font-stretch="condensed" font-size="14.00">2, 4</text>
</g>
<!-- 17&#45;&gt;21 -->
<g id="edge54" class="edge"><title>17&#45;&gt;21</title>
<path fill="none" stroke="#006400" stroke-dasharray="5,2" d="M731.202,-377.697C722.396,-369.135 711.618,-358.656 701.999,-349.304"/>
<polygon fill="#006400" stroke="#006400" points="704.203,-346.566 694.593,-342.104 699.323,-351.585 704.203,-346.566"/>
</g>
<!-- 25 -->
<g id="node14" class="node"><title>25</title>
<polygon fill="none" stroke="#006400" stroke-dasharray="5,2" points="776,-342 722,-342 722,-306 776,-306 776,-342"/>
<text text-anchor="middle" x="749" y="-320.3" font-family="Helvetica,sans-Serif" font-stretch="condensed" font-size="14.00">2, 3</text>
</g>
<!-- 17&#45;&gt;25 -->
<g id="edge55" class="edge"><title>17&#45;&gt;25</title>
<path fill="none" stroke="#006400" stroke-dasharray="5,2" d="M749,-377.697C749,-369.983 749,-360.712 749,-352.112"/>
<polygon fill="#006400" stroke="#006400" points="752.5,-352.104 749,-342.104 745.5,-352.104 752.5,-352.104"/>
</g>
<!-- 18&#45;&gt;19 -->
<g id="edge56" class="edge"><title>18&#45;&gt;19</title>
<path fill="none" stroke="#006400" stroke-dasharray="5,2" d="M533,-377.697C533,-369.983 533,-360.712 533,-352.112"/>
<polygon fill="#006400" stroke="#006400" points="536.5,-352.104 533,-342.104 529.5,-352.104 536.5,-352.104"/>
</g>
<!-- 18&#45;&gt;22 -->
<g id="edge57" class="edge"><title>18&#45;&gt;22</title>
<path fill="none" stroke="#006400" stroke-dasharray="5,2" d="M505.915,-381.834C483.231,-370.807 450.643,-354.966 425.632,-342.807"/>
<polygon fill="#006400" stroke="#006400" points="426.977,-339.57 416.453,-338.345 423.917,-345.865 426.977,-339.57"/>
</g>
<!-- 26 -->
<g id="node15" class="node"><title>26</title>
<polygon fill="none" stroke="#006400" stroke-dasharray="5,2" points="488,-342 434,-342 434,-306 488,-306 488,-342"/>
<text text-anchor="middle" x="461" y="-320.3" font-family="Helvetica,sans-Serif" font-stretch="condensed" font-size="14.00">1, 3</text>
</g>
<!-- 18&#45;&gt;26 -->
<g id="edge58" class="edge"><title>18&#45;&gt;26</title>
<path fill="none" stroke="#006400" stroke-dasharray="5,2" d="M515.202,-377.697C506.396,-369.135 495.618,-358.656 485.999,-349.304"/>
<polygon fill="#006400" stroke="#006400" points="488.203,-346.566 478.593,-342.104 483.323,-351.585 488.203,-346.566"/>
</g>
<!-- 19&#45;&gt;23 -->
<g id="edge59" class="edge"><title>19&#45;&gt;23</title>
<path fill="none" stroke="#006400" stroke-dasharray="5,2" d="M515.202,-305.697C506.396,-297.135 495.618,-286.656 485.999,-277.304"/>
<polygon fill="#006400" stroke="#006400" points="488.203,-274.566 478.593,-270.104 483.323,-279.585 488.203,-274.566"/>
</g>
<!-- 27 -->
<g id="node16" class="node"><title>27</title>
<polygon fill="none" stroke="#006400" stroke-dasharray="5,2" points="560,-270 506,-270 506,-234 560,-234 560,-270"/>
<text text-anchor="middle" x="533" y="-248.3" font-family="Helvetica,sans-Serif" font-stretch="condensed" font-size="14.00">3</text>
</g>
<!-- 19&#45;&gt;27 -->
<g id="edge60" class="edge"><title>19&#45;&gt;27</title>
<path fill="none" stroke="#006400" stroke-dasharray="5,2" d="M533,-305.697C533,-297.983 533,-288.712 533,-280.112"/>
<polygon fill="#006400" stroke="#006400" points="536.5,-280.104 533,-270.104 529.5,-280.104 536.5,-280.104"/>
</g>
<!-- 20&#45;&gt;21 -->
<g id="edge61" class="edge"><title>20&#45;&gt;21</title>
<path fill="none" stroke="#006400" stroke-dasharray="5,2" d="M622.798,-377.697C631.604,-369.135 642.382,-358.656 652.001,-349.304"/>
<polygon fill="#006400" stroke="#006400" points="654.677,-351.585 659.407,-342.104 649.797,-346.566 654.677,-351.585"/>
</g>
<!-- 20&#45;&gt;22 -->
<g id="edge62" class="edge"><title>20&#45;&gt;22</title>
<path fill="none" stroke="#006400" stroke-dasharray="5,2" d="M577.717,-381.439C574.807,-380.197 571.864,-379.023 569,-378 509.787,-356.849 489.07,-363.473 425.918,-341.948"/>
<polygon fill="#006400" stroke="#006400" points="426.878,-338.575 416.283,-338.561 424.556,-345.179 426.878,-338.575"/>
</g>
<!-- 28 -->
<g id="node17" class="node"><title>28</title>
<polygon fill="none" stroke="#006400" stroke-dasharray="5,2" points="632,-342 578,-342 578,-306 632,-306 632,-342"/>
<text text-anchor="middle" x="605" y="-320.3" font-family="Helvetica,sans-Serif" font-stretch="condensed" font-size="14.00">1, 2</text>
</g>
<!-- 20&#45;&gt;28 -->
<g id="edge63" class="edge"><title>20&#45;&gt;28</title>
<path fill="none" stroke="#006400" stroke-dasharray="5,2" d="M605,-377.697C605,-369.983 605,-360.712 605,-352.112"/>
<polygon fill="#006400" stroke="#006400" points="608.5,-352.104 605,-342.104 601.5,-352.104 608.5,-352.104"/>
</g>
<!-- 21&#45;&gt;23 -->
<g id="edge64" class="edge"><title>21&#45;&gt;23</title>
<path fill="none" stroke="#006400" stroke-dasharray="5,2" d="M649.717,-309.439C646.807,-308.197 643.864,-307.023 641,-306 581.787,-284.849 561.07,-291.473 497.918,-269.948"/>
<polygon fill="#006400" stroke="#006400" points="498.878,-266.575 488.283,-266.561 496.556,-273.179 498.878,-266.575"/>
</g>
<!-- 29 -->
<g id="node18" class="node"><title>29</title>
<polygon fill="none" stroke="#006400" stroke-dasharray="5,2" points="632,-270 578,-270 578,-234 632,-234 632,-270"/>
<text text-anchor="middle" x="605" y="-248.3" font-family="Helvetica,sans-Serif" font-stretch="condensed" font-size="14.00">2</text>
</g>
<!-- 21&#45;&gt;29 -->
<g id="edge65" class="edge"><title>21&#45;&gt;29</title>
<path fill="none" stroke="#006400" stroke-dasharray="5,2" d="M659.202,-305.697C650.396,-297.135 639.618,-286.656 629.999,-277.304"/>
<polygon fill="#006400" stroke="#006400" points="632.203,-274.566 622.593,-270.104 627.323,-279.585 632.203,-274.566"/>
</g>
<!-- 22&#45;&gt;23 -->
<g id="edge66" class="edge"><title>22&#45;&gt;23</title>
<path fill="none" stroke="#006400" stroke-dasharray="5,2" d="M406.798,-305.697C415.604,-297.135 426.382,-286.656 436.001,-277.304"/>
<polygon fill="#006400" stroke="#006400" points="438.677,-279.585 443.407,-270.104 433.797,-274.566 438.677,-279.585"/>
</g>
<!-- 22&#45;&gt;30 -->
<g id="edge67" class="edge"><title>22&#45;&gt;30</title>
<path fill="none" stroke="#006400" stroke-dasharray="5,2" d="M389,-305.697C389,-297.983 389,-288.712 389,-280.112"/>
<polygon fill="#006400" stroke="#006400" points="392.5,-280.104 389,-270.104 385.5,-280.104 392.5,-280.104"/>
</g>
<!-- 23&#45;&gt;31 -->
<g id="edge68" class="edge"><title>23&#45;&gt;31</title>
<path fill="none" stroke="#006400" stroke-dasharray="5,2" d="M461,-233.697C461,-225.983 461,-216.712 461,-208.112"/>
<polygon fill="#006400" stroke="#006400" points="464.5,-208.104 461,-198.104 457.5,-208.104 464.5,-208.104"/>
</g>
<!-- 24&#45;&gt;25 -->
<g id="edge69" class="edge"><title>24&#45;&gt;25</title>
<path fill="none" stroke="#006400" stroke-dasharray="5,2" d="M694.798,-377.697C703.604,-369.135 714.382,-358.656 724.001,-349.304"/>
<polygon fill="#006400" stroke="#006400" points="726.677,-351.585 731.407,-342.104 721.797,-346.566 726.677,-351.585"/>
</g>
<!-- 24&#45;&gt;26 -->
<g id="edge70" class="edge"><title>24&#45;&gt;26</title>
<path fill="none" stroke="#006400" stroke-dasharray="5,2" d="M649.717,-381.439C646.807,-380.197 643.864,-379.023 641,-378 581.787,-356.849 561.07,-363.473 497.918,-341.948"/>
<polygon fill="#006400" stroke="#006400" points="498.878,-338.575 488.283,-338.561 496.556,-345.179 498.878,-338.575"/>
</g>
<!-- 24&#45;&gt;28 -->
<g id="edge71" class="edge"><title>24&#45;&gt;28</title>
<path fill="none" stroke="#006400" stroke-dasharray="5,2" d="M659.202,-377.697C650.396,-369.135 639.618,-358.656 629.999,-349.304"/>
<polygon fill="#006400" stroke="#006400" points="632.203,-346.566 622.593,-342.104 627.323,-351.585 632.203,-346.566"/>
</g>
<!-- 25&#45;&gt;27 -->
<g id="edge72" class="edge"><title>25&#45;&gt;27</title>
<path fill="none" stroke="#006400" stroke-dasharray="5,2" d="M721.717,-309.439C718.807,-308.197 715.864,-307.023 713,-306 653.787,-284.849 633.07,-291.473 569.918,-269.948"/>
<polygon fill="#006400" stroke="#006400" points="570.878,-266.575 560.283,-266.561 568.556,-273.179 570.878,-266.575"/>
</g>
<!-- 25&#45;&gt;29 -->
<g id="edge73" class="edge"><title>25&#45;&gt;29</title>
<path fill="none" stroke="#006400" stroke-dasharray="5,2" d="M721.915,-309.834C699.231,-298.807 666.643,-282.966 641.632,-270.807"/>
<polygon fill="#006400" stroke="#006400" points="642.977,-267.57 632.453,-266.345 639.917,-273.865 642.977,-267.57"/>
</g>
<!-- 26&#45;&gt;27 -->
<g id="edge74" class="edge"><title>26&#45;&gt;27</title>
<path fill="none" stroke="#006400" stroke-dasharray="5,2" d="M478.798,-305.697C487.604,-297.135 498.382,-286.656 508.001,-277.304"/>
<polygon fill="#006400" stroke="#006400" points="510.677,-279.585 515.407,-270.104 505.797,-274.566 510.677,-279.585"/>
</g>
<!-- 26&#45;&gt;30 -->
<g id="edge75" class="edge"><title>26&#45;&gt;30</title>
<path fill="none" stroke="#006400" stroke-dasharray="5,2" d="M443.202,-305.697C434.396,-297.135 423.618,-286.656 413.999,-277.304"/>
<polygon fill="#006400" stroke="#006400" points="416.203,-274.566 406.593,-270.104 411.323,-279.585 416.203,-274.566"/>
</g>
<!-- 27&#45;&gt;31 -->
<g id="edge76" class="edge"><title>27&#45;&gt;31</title>
<path fill="none" stroke="#006400" stroke-dasharray="5,2" d="M515.202,-233.697C506.396,-225.135 495.618,-214.656 485.999,-205.304"/>
<polygon fill="#006400" stroke="#006400" points="488.203,-202.566 478.593,-198.104 483.323,-207.585 488.203,-202.566"/>
</g>
<!-- 28&#45;&gt;29 -->
<g id="edge77" class="edge"><title>28&#45;&gt;29</title>
<path fill="none" stroke="#006400" stroke-dasharray="5,2" d="M605,-305.697C605,-297.983 605,-288.712 605,-280.112"/>
<polygon fill="#006400" stroke="#006400" points="608.5,-280.104 605,-270.104 601.5,-280.104 608.5,-280.104"/>
</g>
<!-- 28&#45;&gt;30 -->
<g id="edge78" class="edge"><title>28&#45;&gt;30</title>
<path fill="none" stroke="#006400" stroke-dasharray="5,2" d="M577.717,-309.439C574.807,-308.197 571.864,-307.023 569,-306 509.787,-284.849 489.07,-291.473 425.918,-269.948"/>
<polygon fill="#006400" stroke="#006400" points="426.878,-266.575 416.283,-266.561 424.556,-273.179 426.878,-266.575"/>
</g>
<!-- 29&#45;&gt;31 -->
<g id="edge79" class="edge"><title>29&#45;&gt;31</title>
<path fill="none" stroke="#006400" stroke-dasharray="5,2" d="M577.915,-237.834C555.231,-226.807 522.643,-210.966 497.632,-198.807"/>
<polygon fill="#006400" stroke="#006400" points="498.977,-195.57 488.453,-194.345 495.917,-201.865 498.977,-195.57"/>
</g>
<!-- 30&#45;&gt;31 -->
<g id="edge80" class="edge"><title>30&#45;&gt;31</title>
<path fill="none" stroke="#006400" stroke-dasharray="5,2" d="M406.798,-233.697C415.604,-225.135 426.382,-214.656 436.001,-205.304"/>
<polygon fill="#006400" stroke="#006400" points="438.677,-207.585 443.407,-198.104 433.797,-202.566 438.677,-207.585"/>
</g>
<!-- 0 -->
<g id="node21" class="node"><title>0</title>
<polygon fill="none" stroke="#ff0000" stroke-dasharray="5,2" points="437.088,-532.544 437.088,-547.456 406.575,-558 363.425,-558 332.912,-547.456 332.912,-532.544 363.425,-522 406.575,-522 437.088,-532.544"/>
<text text-anchor="middle" x="385" y="-536.3" font-family="Helvetica,sans-Serif" font-stretch="condensed" font-size="14.00">1, 2, 3, 4, 5</text>
</g>
<!-- 0&#45;&gt;16 -->
<g id="edge5" class="edge"><title>0&#45;&gt;16</title>
<path fill="none" stroke="#0000ff" d="M422.32,-527.125C465.105,-513.512 534.441,-491.451 574.253,-478.783"/>
</g>
<!-- 1 -->
<g id="node22" class="node"><title>1</title>
<polygon fill="none" stroke="#ff0000" stroke-dasharray="5,2" points="533.424,-460.544 533.424,-475.456 507.987,-486 472.013,-486 446.576,-475.456 446.576,-460.544 472.013,-450 507.987,-450 533.424,-460.544"/>
<text text-anchor="middle" x="490" y="-464.3" font-family="Helvetica,sans-Serif" font-stretch="condensed" font-size="14.00">2, 3, 4, 5</text>
</g>
<!-- 0&#45;&gt;1 -->
<g id="edge1" class="edge"><title>0&#45;&gt;1</title>
<path fill="none" stroke="#cc0000" stroke-dasharray="5,2" d="M417.917,-517.056C433.941,-506.373 452.806,-493.796 467.217,-484.189"/>
<polygon fill="#cc0000" stroke="#cc0000" points="415.732,-514.305 409.353,-522.765 419.615,-520.13 415.732,-514.305"/>
</g>
<!-- 2 -->
<g id="node27" class="node"><title>2</title>
<polygon fill="none" stroke="#ff0000" stroke-dasharray="5,2" points="218.424,-460.544 218.424,-475.456 192.987,-486 157.013,-486 131.576,-475.456 131.576,-460.544 157.013,-450 192.987,-450 218.424,-460.544"/>
<text text-anchor="middle" x="175" y="-464.3" font-family="Helvetica,sans-Serif" font-stretch="condensed" font-size="14.00">1, 3, 4, 5</text>
</g>
<!-- 0&#45;&gt;2 -->
<g id="edge2" class="edge"><title>0&#45;&gt;2</title>
<path fill="none" stroke="#cc0000" stroke-dasharray="5,2" d="M339.203,-523.734C299.556,-510.519 243.18,-491.727 207.868,-479.956"/>
<polygon fill="#cc0000" stroke="#cc0000" points="338.306,-527.125 348.9,-526.967 340.52,-520.484 338.306,-527.125"/>
</g>
<!-- 4 -->
<g id="node29" class="node"><title>4</title>
<polygon fill="none" stroke="#ff0000" stroke-dasharray="5,2" points="323.424,-460.544 323.424,-475.456 297.987,-486 262.013,-486 236.576,-475.456 236.576,-460.544 262.013,-450 297.987,-450 323.424,-460.544"/>
<text text-anchor="middle" x="280" y="-464.3" font-family="Helvetica,sans-Serif" font-stretch="condensed" font-size="14.00">1, 2, 4, 5</text>
</g>
<!-- 0&#45;&gt;4 -->
<g id="edge3" class="edge"><title>0&#45;&gt;4</title>
<path fill="none" stroke="#cc0000" stroke-dasharray="5,2" d="M352.083,-517.056C336.059,-506.373 317.194,-493.796 302.783,-484.189"/>
<polygon fill="#cc0000" stroke="#cc0000" points="350.385,-520.13 360.647,-522.765 354.268,-514.305 350.385,-520.13"/>
</g>
<!-- 8 -->
<g id="node31" class="node"><title>8</title>
<polygon fill="none" stroke="#ff0000" stroke-dasharray="5,2" points="428.424,-460.544 428.424,-475.456 402.987,-486 367.013,-486 341.576,-475.456 341.576,-460.544 367.013,-450 402.987,-450 428.424,-460.544"/>
<text text-anchor="middle" x="385" y="-464.3" font-family="Helvetica,sans-Serif" font-stretch="condensed" font-size="14.00">1, 2, 3, 5</text>
</g>
<!-- 0&#45;&gt;8 -->
<g id="edge4" class="edge"><title>0&#45;&gt;8</title>
<path fill="none" stroke="#cc0000" stroke-dasharray="5,2" d="M385,-511.665C385,-503.054 385,-493.791 385,-486.104"/>
<polygon fill="#cc0000" stroke="#cc0000" points="381.5,-511.697 385,-521.697 388.5,-511.697 381.5,-511.697"/>
</g>
<!-- 1&#45;&gt;17 -->
<g id="edge9" class="edge"><title>1&#45;&gt;17</title>
<path fill="none" stroke="#0000ff" d="M528.416,-458.328C587.496,-444.922 695.679,-420.074 713,-414 715.87,-412.994 718.817,-411.831 721.729,-410.596"/>
</g>
<!-- 3 -->
<g id="node28" class="node"><title>3</title>
<polygon fill="none" stroke="#ff0000" stroke-dasharray="5,2" points="227.207,-388.544 227.207,-403.456 207.169,-414 178.831,-414 158.793,-403.456 158.793,-388.544 178.831,-378 207.169,-378 227.207,-388.544"/>
<text text-anchor="middle" x="193" y="-392.3" font-family="Helvetica,sans-Serif" font-stretch="condensed" font-size="14.00">3, 4, 5</text>
</g>
<!-- 1&#45;&gt;3 -->
<g id="edge6" class="edge"><title>1&#45;&gt;3</title>
<path fill="none" stroke="#cc0000" stroke-dasharray="5,2" d="M447.98,-452.965C444.284,-451.9 440.586,-450.894 437,-450 349.363,-428.16 323.963,-438.386 237,-414 231.007,-412.32 224.695,-410.139 218.781,-407.902"/>
<polygon fill="#cc0000" stroke="#cc0000" points="447.097,-456.354 457.682,-455.885 449.115,-449.651 447.097,-456.354"/>
</g>
<!-- 5 -->
<g id="node30" class="node"><title>5</title>
<polygon fill="none" stroke="#ff0000" stroke-dasharray="5,2" points="401.207,-388.544 401.207,-403.456 381.169,-414 352.831,-414 332.793,-403.456 332.793,-388.544 352.831,-378 381.169,-378 401.207,-388.544"/>
<text text-anchor="middle" x="367" y="-392.3" font-family="Helvetica,sans-Serif" font-stretch="condensed" font-size="14.00">2, 4, 5</text>
</g>
<!-- 1&#45;&gt;5 -->
<g id="edge7" class="edge"><title>1&#45;&gt;5</title>
<path fill="none" stroke="#cc0000" stroke-dasharray="5,2" d="M456.363,-447.857C435.052,-435.729 408.081,-420.38 389.372,-409.732"/>
<polygon fill="#cc0000" stroke="#cc0000" points="454.687,-450.93 465.109,-452.834 458.149,-444.846 454.687,-450.93"/>
</g>
<!-- 9 -->
<g id="node32" class="node"><title>9</title>
<polygon fill="none" stroke="#ff0000" stroke-dasharray="5,2" points="488.207,-388.544 488.207,-403.456 468.169,-414 439.831,-414 419.793,-403.456 419.793,-388.544 439.831,-378 468.169,-378 488.207,-388.544"/>
<text text-anchor="middle" x="454" y="-392.3" font-family="Helvetica,sans-Serif" font-stretch="condensed" font-size="14.00">2, 3, 5</text>
</g>
<!-- 1&#45;&gt;9 -->
<g id="edge8" class="edge"><title>1&#45;&gt;9</title>
<path fill="none" stroke="#cc0000" stroke-dasharray="5,2" d="M476.524,-440.797C471.934,-431.871 466.924,-422.129 462.797,-414.104"/>
<polygon fill="#cc0000" stroke="#cc0000" points="473.415,-442.404 481.101,-449.697 479.64,-439.203 473.415,-442.404"/>
</g>
<!-- 10 -->
<g id="node23" class="node"><title>10</title>
<polygon fill="none" stroke="#ff0000" stroke-dasharray="5,2" points="140.207,-388.544 140.207,-403.456 120.169,-414 91.831,-414 71.7931,-403.456 71.7931,-388.544 91.831,-378 120.169,-378 140.207,-388.544"/>
<text text-anchor="middle" x="106" y="-392.3" font-family="Helvetica,sans-Serif" font-stretch="condensed" font-size="14.00">1, 3, 5</text>
</g>
<!-- 10&#45;&gt;14 -->
<g id="edge37" class="edge"><title>10&#45;&gt;14</title>
<path fill="none" stroke="#0000ff" d="M104.764,-377.697C103.989,-366.846 102.994,-352.917 102.222,-342.104"/>
</g>
<!-- 10&#45;&gt;26 -->
<g id="edge38" class="edge"><title>10&#45;&gt;26</title>
<path fill="none" stroke="#0000ff" d="M131.724,-383.884C137.641,-381.659 143.969,-379.536 150,-378 269.45,-347.572 306.731,-376.737 425,-342 427.918,-341.143 430.896,-340.078 433.828,-338.903"/>
</g>
<!-- 11 -->
<g id="node24" class="node"><title>11</title>
<polygon fill="#ffb0b0" stroke="#ff0000" points="272,-316.544 272,-331.456 256.184,-342 233.816,-342 218,-331.456 218,-316.544 233.816,-306 256.184,-306 272,-316.544"/>
<text text-anchor="middle" x="245" y="-320.3" font-family="Helvetica,sans-Serif" font-stretch="condensed" font-size="14.00">3, 5</text>
</g>
<!-- 10&#45;&gt;11 -->
<g id="edge36" class="edge"><title>10&#45;&gt;11</title>
<path fill="none" stroke="#cc0000" stroke-dasharray="5,2" d="M139.076,-378.343C165.295,-365.139 201.153,-347.081 223.693,-335.73"/>
<polygon fill="#cc0000" stroke="#cc0000" points="137.252,-375.343 129.895,-382.967 140.401,-381.595 137.252,-375.343"/>
</g>
<!-- 11&#45;&gt;15 -->
<g id="edge39" class="edge"><title>11&#45;&gt;15</title>
<path fill="none" stroke="#0000ff" d="M245,-305.697C245,-294.846 245,-280.917 245,-270.104"/>
</g>
<!-- 11&#45;&gt;27 -->
<g id="edge40" class="edge"><title>11&#45;&gt;27</title>
<path fill="none" stroke="#0000ff" d="M265.548,-312.107C270.503,-309.816 275.855,-307.61 281,-306 373.886,-276.945 404.114,-299.055 497,-270 499.903,-269.092 502.871,-267.994 505.796,-266.798"/>
</g>
<!-- 12 -->
<g id="node25" class="node"><title>12</title>
<polygon fill="none" stroke="#ff0000" stroke-dasharray="5,2" points="314.207,-388.544 314.207,-403.456 294.169,-414 265.831,-414 245.793,-403.456 245.793,-388.544 265.831,-378 294.169,-378 314.207,-388.544"/>
<text text-anchor="middle" x="280" y="-392.3" font-family="Helvetica,sans-Serif" font-stretch="condensed" font-size="14.00">1, 2, 5</text>
</g>
<!-- 12&#45;&gt;14 -->
<g id="edge42" class="edge"><title>12&#45;&gt;14</title>
<path fill="none" stroke="#0000ff" d="M253.04,-384.486C247.417,-382.32 241.521,-380.07 236,-378 192.162,-361.562 180.214,-360.015 137,-342 134.065,-340.777 131.023,-339.444 128.006,-338.081"/>
</g>
<!-- 12&#45;&gt;28 -->
<g id="edge43" class="edge"><title>12&#45;&gt;28</title>
<path fill="none" stroke="#0000ff" d="M305.742,-383.954C311.658,-381.725 317.981,-379.584 324,-378 430.435,-349.994 463.649,-373.844 569,-342 571.911,-341.12 574.885,-340.04 577.814,-338.856"/>
</g>
<!-- 13 -->
<g id="node26" class="node"><title>13</title>
<polygon fill="#ffb0b0" stroke="#ff0000" points="344,-316.544 344,-331.456 328.184,-342 305.816,-342 290,-331.456 290,-316.544 305.816,-306 328.184,-306 344,-316.544"/>
<text text-anchor="middle" x="317" y="-320.3" font-family="Helvetica,sans-Serif" font-stretch="condensed" font-size="14.00">2, 5</text>
</g>
<!-- 12&#45;&gt;13 -->
<g id="edge41" class="edge"><title>12&#45;&gt;13</title>
<path fill="none" stroke="#cc0000" stroke-dasharray="5,2" d="M293.85,-368.797C298.568,-359.871 303.717,-350.129 307.959,-342.104"/>
<polygon fill="#cc0000" stroke="#cc0000" points="290.725,-367.22 289.146,-377.697 296.914,-370.491 290.725,-367.22"/>
</g>
<!-- 13&#45;&gt;15 -->
<g id="edge44" class="edge"><title>13&#45;&gt;15</title>
<path fill="none" stroke="#0000ff" d="M301.731,-308.155C290.255,-296.998 274.516,-281.696 262.527,-270.04"/>
</g>
<!-- 13&#45;&gt;29 -->
<g id="edge45" class="edge"><title>13&#45;&gt;29</title>
<path fill="none" stroke="#0000ff" d="M337.548,-312.107C342.503,-309.816 347.855,-307.61 353,-306 445.886,-276.945 476.114,-299.055 569,-270 571.903,-269.092 574.871,-267.994 577.796,-266.798"/>
</g>
<!-- 2&#45;&gt;6 -->
<g id="edge11" class="edge"><title>2&#45;&gt;6</title>
<path fill="none" stroke="#0000ff" d="M147.162,-453.834C120.535,-441.239 80.6301,-422.366 54.2128,-409.871"/>
</g>
<!-- 2&#45;&gt;18 -->
<g id="edge13" class="edge"><title>2&#45;&gt;18</title>
<path fill="none" stroke="#0000ff" d="M206.641,-455.635C213.302,-453.531 220.333,-451.521 227,-450 345.03,-423.078 380.885,-448.254 497,-414 499.917,-413.14 502.895,-412.073 505.826,-410.896"/>
</g>
<!-- 2&#45;&gt;10 -->
<g id="edge12" class="edge"><title>2&#45;&gt;10</title>
<path fill="none" stroke="#cc0000" stroke-dasharray="5,2" d="M150.889,-442.54C141.289,-432.801 130.505,-421.861 121.914,-413.145"/>
<polygon fill="#cc0000" stroke="#cc0000" points="148.431,-445.032 157.944,-449.697 153.416,-440.118 148.431,-445.032"/>
</g>
<!-- 2&#45;&gt;3 -->
<g id="edge10" class="edge"><title>2&#45;&gt;3</title>
<path fill="none" stroke="#cc0000" stroke-dasharray="5,2" d="M181.956,-439.949C184.191,-431.257 186.603,-421.876 188.602,-414.104"/>
<polygon fill="#cc0000" stroke="#cc0000" points="178.55,-439.14 179.449,-449.697 185.33,-440.883 178.55,-439.14"/>
</g>
<!-- 3&#45;&gt;7 -->
<g id="edge14" class="edge"><title>3&#45;&gt;7</title>
<path fill="none" stroke="#0000ff" d="M188.056,-377.697C184.956,-366.846 180.976,-352.917 177.887,-342.104"/>
</g>
<!-- 3&#45;&gt;19 -->
<g id="edge16" class="edge"><title>3&#45;&gt;19</title>
<path fill="none" stroke="#0000ff" d="M218.732,-383.917C224.649,-381.69 230.975,-379.559 237,-378 349.94,-348.783 385.193,-375.29 497,-342 499.915,-341.132 502.891,-340.06 505.822,-338.881"/>
</g>
<!-- 3&#45;&gt;11 -->
<g id="edge15" class="edge"><title>3&#45;&gt;11</title>
<path fill="none" stroke="#cc0000" stroke-dasharray="5,2" d="M211.932,-369.514C218.839,-360.217 226.465,-349.951 232.652,-341.622"/>
<polygon fill="#cc0000" stroke="#cc0000" points="209.008,-367.582 205.854,-377.697 214.627,-371.756 209.008,-367.582"/>
</g>
<!-- 4&#45;&gt;6 -->
<g id="edge18" class="edge"><title>4&#45;&gt;6</title>
<path fill="none" stroke="#0000ff" d="M247.347,-455.994C240.651,-453.888 233.624,-451.785 227,-450 154.946,-430.582 133.631,-438.085 63,-414 60.1216,-413.018 57.1691,-411.872 54.2531,-410.647"/>
</g>
<!-- 4&#45;&gt;20 -->
<g id="edge20" class="edge"><title>4&#45;&gt;20</title>
<path fill="none" stroke="#0000ff" d="M311.94,-455.641C318.518,-453.561 325.439,-451.559 332,-450 435.654,-425.363 467.091,-445.074 569,-414 571.909,-413.113 574.881,-412.029 577.81,-410.841"/>
</g>
<!-- 4&#45;&gt;12 -->
<g id="edge19" class="edge"><title>4&#45;&gt;12</title>
<path fill="none" stroke="#cc0000" stroke-dasharray="5,2" d="M280,-439.665C280,-431.054 280,-421.791 280,-414.104"/>
<polygon fill="#cc0000" stroke="#cc0000" points="276.5,-439.697 280,-449.697 283.5,-439.697 276.5,-439.697"/>
</g>
<!-- 4&#45;&gt;5 -->
<g id="edge17" class="edge"><title>4&#45;&gt;5</title>
<path fill="none" stroke="#cc0000" stroke-dasharray="5,2" d="M308.07,-444.415C321.282,-433.784 336.676,-421.399 348.416,-411.952"/>
<polygon fill="#cc0000" stroke="#cc0000" points="305.775,-441.769 300.178,-450.765 310.164,-447.223 305.775,-441.769"/>
</g>
<!-- 5&#45;&gt;7 -->
<g id="edge21" class="edge"><title>5&#45;&gt;7</title>
<path fill="none" stroke="#0000ff" d="M340.107,-384.302C334.479,-382.15 328.564,-379.951 323,-378 272.861,-360.417 258.469,-361.388 209,-342 206.169,-340.89 203.247,-339.66 200.35,-338.383"/>
</g>
<!-- 5&#45;&gt;21 -->
<g id="edge23" class="edge"><title>5&#45;&gt;21</title>
<path fill="none" stroke="#0000ff" d="M392.753,-383.996C398.668,-381.765 404.989,-379.612 411,-378 510.936,-351.203 542.1,-372.401 641,-342 643.907,-341.106 646.878,-340.018 649.806,-338.828"/>
</g>
<!-- 5&#45;&gt;13 -->
<g id="edge22" class="edge"><title>5&#45;&gt;13</title>
<path fill="none" stroke="#cc0000" stroke-dasharray="5,2" d="M348.796,-369.514C342.155,-360.217 334.822,-349.951 328.873,-341.622"/>
<polygon fill="#cc0000" stroke="#cc0000" points="345.98,-371.594 354.64,-377.697 351.676,-367.525 345.98,-371.594"/>
</g>
<!-- 8&#45;&gt;24 -->
<g id="edge32" class="edge"><title>8&#45;&gt;24</title>
<path fill="none" stroke="#0000ff" d="M416.97,-455.763C423.545,-453.675 430.458,-451.638 437,-450 526.311,-427.64 553.263,-441.904 641,-414 643.898,-413.078 646.864,-411.971 649.787,-410.77"/>
</g>
<!-- 8&#45;&gt;10 -->
<g id="edge30" class="edge"><title>8&#45;&gt;10</title>
<path fill="none" stroke="#cc0000" stroke-dasharray="5,2" d="M342.488,-452.893C338.955,-451.864 335.425,-450.885 332,-450 252.165,-429.374 229.199,-436.945 150,-414 144.179,-412.314 138.047,-410.182 132.27,-408.003"/>
<polygon fill="#cc0000" stroke="#cc0000" points="341.791,-456.339 352.376,-455.886 343.819,-449.639 341.791,-456.339"/>
</g>
<!-- 8&#45;&gt;12 -->
<g id="edge31" class="edge"><title>8&#45;&gt;12</title>
<path fill="none" stroke="#cc0000" stroke-dasharray="5,2" d="M353.624,-446.083C336.469,-434.646 315.702,-420.802 300.604,-410.736"/>
<polygon fill="#cc0000" stroke="#cc0000" points="351.955,-449.176 362.217,-451.811 355.838,-443.352 351.955,-449.176"/>
</g>
<!-- 8&#45;&gt;9 -->
<g id="edge29" class="edge"><title>8&#45;&gt;9</title>
<path fill="none" stroke="#cc0000" stroke-dasharray="5,2" d="M409.111,-442.54C418.711,-432.801 429.495,-421.861 438.086,-413.145"/>
<polygon fill="#cc0000" stroke="#cc0000" points="406.584,-440.118 402.056,-449.697 411.569,-445.032 406.584,-440.118"/>
</g>
<!-- 9&#45;&gt;25 -->
<g id="edge35" class="edge"><title>9&#45;&gt;25</title>
<path fill="none" stroke="#0000ff" d="M479.619,-383.85C485.268,-381.68 491.276,-379.589 497,-378 590.777,-351.964 620.114,-371.055 713,-342 715.903,-341.092 718.871,-339.994 721.796,-338.798"/>
</g>
<!-- 9&#45;&gt;11 -->
<g id="edge33" class="edge"><title>9&#45;&gt;11</title>
<path fill="none" stroke="#cc0000" stroke-dasharray="5,2" d="M417.971,-380.758C415.285,-379.795 412.606,-378.865 410,-378 353.506,-359.252 336.778,-362.783 281,-342 276.078,-340.166 270.905,-337.923 266.065,-335.675"/>
<polygon fill="#cc0000" stroke="#cc0000" points="417.032,-384.142 427.625,-384.334 419.464,-377.578 417.032,-384.142"/>
</g>
<!-- 9&#45;&gt;13 -->
<g id="edge34" class="edge"><title>9&#45;&gt;13</title>
<path fill="none" stroke="#cc0000" stroke-dasharray="5,2" d="M421.077,-378.178C395.226,-364.969 360.017,-346.979 337.901,-335.679"/>
<polygon fill="#cc0000" stroke="#cc0000" points="419.639,-381.374 430.136,-382.807 422.824,-375.14 419.639,-381.374"/>
</g>
<!-- Legend -->
<g id="node33" class="node"><title>Legend</title>
<polygon fill="none" stroke="black" points="761.25,-126 160.75,-126 160.75,-0 761.25,-0 761.25,-126"/>
<polygon fill="none" stroke="black" points="161,-100 161,-126 179,-126 179,-100 161,-100"/>
<text text-anchor="start" x="166.5" y="-109.3" font-family="Helvetica,sans-Serif" font-stretch="condensed" font-size="14.00">1</text>
<polygon fill="none" stroke="black" points="179,-100 179,-126 762,-126 762,-100 179,-100"/>
<text text-anchor="start" x="282.5" y="-109.3" font-family="Helvetica,sans-Serif" font-stretch="condensed" font-size="14.00">FloraChina.OakGenus {includes is_included_in} FloraMexico.OakGenus</text>
<polygon fill="none" stroke="black" points="161,-75 161,-100 179,-100 179,-75 161,-75"/>
<text text-anchor="start" x="166.5" y="-83.8" font-family="Helvetica,sans-Serif" font-stretch="condensed" font-size="14.00">2</text>
<polygon fill="none" stroke="black" points="179,-75 179,-100 762,-100 762,-75 179,-75"/>
<text text-anchor="start" x="184" y="-83.8" font-family="Helvetica,sans-Serif" font-stretch="condensed" font-size="14.00">FloraChina.ChineseOakSpecies1 rsum FloraMexico.MexicanOakSpecies1 FloraMexico.MexicanOakSpecies2</text>
<polygon fill="none" stroke="black" points="161,-50 161,-75 179,-75 179,-50 161,-50"/>
<text text-anchor="start" x="166.5" y="-58.8" font-family="Helvetica,sans-Serif" font-stretch="condensed" font-size="14.00">3</text>
<polygon fill="none" stroke="black" points="179,-50 179,-75 762,-75 762,-50 179,-50"/>
<text text-anchor="start" x="267.5" y="-58.8" font-family="Helvetica,sans-Serif" font-stretch="condensed" font-size="14.00">FloraChina.ChineseOakSpecies1 includes FloraMexico.MexicanOakSpecies1</text>
<polygon fill="none" stroke="black" points="161,-25 161,-50 179,-50 179,-25 161,-25"/>
<text text-anchor="start" x="166.5" y="-33.8" font-family="Helvetica,sans-Serif" font-stretch="condensed" font-size="14.00">4</text>
<polygon fill="none" stroke="black" points="179,-25 179,-50 762,-50 762,-25 179,-25"/>
<text text-anchor="start" x="267.5" y="-33.8" font-family="Helvetica,sans-Serif" font-stretch="condensed" font-size="14.00">FloraChina.ChineseOakSpecies1 includes FloraMexico.MexicanOakSpecies2</text>
<polygon fill="none" stroke="black" points="161,-0 161,-25 179,-25 179,-0 161,-0"/>
<text text-anchor="start" x="166.5" y="-8.8" font-family="Helvetica,sans-Serif" font-stretch="condensed" font-size="14.00">5</text>
<polygon fill="none" stroke="black" points="179,-0 179,-25 762,-25 762,-0 179,-0"/>
<text text-anchor="start" x="272" y="-8.8" font-family="Helvetica,sans-Serif" font-stretch="condensed" font-size="14.00">FloraChina.ChineseOakSpecies2 equals FloraMexico.MexicanOakSpecies1</text>
</g>
</g>
</svg>
