<?xml version="1.0" encoding="UTF-8" standalone="no"?>
<!DOCTYPE svg PUBLIC "-//W3C//DTD SVG 1.1//EN"
 "http://www.w3.org/Graphics/SVG/1.1/DTD/svg11.dtd">
<!-- Generated by graphviz version 2.36.0 (20140111.2315)
 -->
<!-- Title: %3 Pages: 1 -->
<svg width="558pt" height="252pt"
 viewBox="0.00 0.00 558.00 252.00" xmlns="http://www.w3.org/2000/svg" xmlns:xlink="http://www.w3.org/1999/xlink">
<g id="graph0" class="graph" transform="scale(1 1) rotate(0) translate(4 248)">
<title>%3</title>
<polygon fill="white" stroke="none" points="-4,4 -4,-248 554,-248 554,4 -4,4"/>
<!-- FloraChina.ChineseOakSpecies1\nFloraMexico.MexicanOakSpecies1 -->
<g id="node1" class="node"><title>FloraChina.ChineseOakSpecies1\nFloraMexico.MexicanOakSpecies1</title>
<path fill="#eeeeee" stroke="black" d="M494.5,-244C494.5,-244 309.5,-244 309.5,-244 303.5,-244 297.5,-238 297.5,-232 297.5,-232 297.5,-218 297.5,-218 297.5,-212 303.5,-206 309.5,-206 309.5,-206 494.5,-206 494.5,-206 500.5,-206 506.5,-212 506.5,-218 506.5,-218 506.5,-232 506.5,-232 506.5,-238 500.5,-244 494.5,-244"/>
<text text-anchor="middle" x="402" y="-228.8" font-family="Times,serif" font-size="14.00">FloraChina.ChineseOakSpecies1</text>
<text text-anchor="middle" x="402" y="-213.8" font-family="Times,serif" font-size="14.00">FloraMexico.MexicanOakSpecies1</text>
</g>
<!-- FloraChina.OakGenus\nFloraMexico.OakGenus -->
<g id="node3" class="node"><title>FloraChina.OakGenus\nFloraMexico.OakGenus</title>
<path fill="#eeeeee" stroke="black" d="M167,-225C167,-225 43,-225 43,-225 37,-225 31,-219 31,-213 31,-213 31,-199 31,-199 31,-193 37,-187 43,-187 43,-187 167,-187 167,-187 173,-187 179,-193 179,-199 179,-199 179,-213 179,-213 179,-219 173,-225 167,-225"/>
<text text-anchor="middle" x="105" y="-209.8" font-family="Times,serif" font-size="14.00">FloraChina.OakGenus</text>
<text text-anchor="middle" x="105" y="-194.8" font-family="Times,serif" font-size="14.00">FloraMexico.OakGenus</text>
</g>
<!-- FloraChina.ChineseOakSpecies1\nFloraMexico.MexicanOakSpecies1&#45;&gt;FloraChina.OakGenus\nFloraMexico.OakGenus -->
<g id="edge2" class="edge"><title>FloraChina.ChineseOakSpecies1\nFloraMexico.MexicanOakSpecies1&#45;&gt;FloraChina.OakGenus\nFloraMexico.OakGenus</title>
<path fill="none" stroke="#2f7747" d="M297.409,-218.328C262.052,-216.051 222.992,-213.535 189.426,-211.373"/>
<polygon fill="#2f7747" stroke="#2f7747" points="189.4,-207.864 179.196,-210.714 188.95,-214.85 189.4,-207.864"/>
<text text-anchor="middle" x="232" y="-217.8" font-family="Times,serif" font-size="14.00">1</text>
</g>
<!-- FloraChina.ChineseOakSpecies2\nFloraMexico.MexicanOakSpecies2 -->
<g id="node2" class="node"><title>FloraChina.ChineseOakSpecies2\nFloraMexico.MexicanOakSpecies2</title>
<path fill="#eeeeee" stroke="black" d="M494.5,-168C494.5,-168 309.5,-168 309.5,-168 303.5,-168 297.5,-162 297.5,-156 297.5,-156 297.5,-142 297.5,-142 297.5,-136 303.5,-130 309.5,-130 309.5,-130 494.5,-130 494.5,-130 500.5,-130 506.5,-136 506.5,-142 506.5,-142 506.5,-156 506.5,-156 506.5,-162 500.5,-168 494.5,-168"/>
<text text-anchor="middle" x="402" y="-152.8" font-family="Times,serif" font-size="14.00">FloraChina.ChineseOakSpecies2</text>
<text text-anchor="middle" x="402" y="-137.8" font-family="Times,serif" font-size="14.00">FloraMexico.MexicanOakSpecies2</text>
</g>
<!-- FloraChina.ChineseOakSpecies2\nFloraMexico.MexicanOakSpecies2&#45;&gt;FloraChina.OakGenus\nFloraMexico.OakGenus -->
<g id="edge4" class="edge"><title>FloraChina.ChineseOakSpecies2\nFloraMexico.MexicanOakSpecies2&#45;&gt;FloraChina.OakGenus\nFloraMexico.OakGenus</title>
<path fill="none" stroke="#2f7747" d="M302.359,-168.059C265.771,-175.129 224.662,-183.072 189.549,-189.857"/>
<polygon fill="#2f7747" stroke="#2f7747" points="188.49,-186.496 179.336,-191.83 189.818,-193.369 188.49,-186.496"/>
<text text-anchor="middle" x="232" y="-183.8" font-family="Times,serif" font-size="14.00">1</text>
</g>
<!-- FloraChina.OakGenus\n\nFloraMexico.OakGenus\n\n -->
<g id="node5" class="node"><title>FloraChina.OakGenus\n\nFloraMexico.OakGenus\n\n</title>
<ellipse fill="#00bfff" stroke="black" cx="105" cy="-92" rx="104.804" ry="49.4949"/>
<text text-anchor="middle" x="105" y="-111.8" font-family="Times,serif" font-size="14.00">FloraChina.OakGenus</text>
<text text-anchor="middle" x="105" y="-80.8" font-family="Times,serif" font-size="14.00">FloraMexico.OakGenus</text>
</g>
<!-- FloraChina.ChineseOakSpecies2\nFloraMexico.MexicanOakSpecies2&#45;&gt;FloraChina.OakGenus\n\nFloraMexico.OakGenus\n\n -->
<g id="edge3" class="edge"><title>FloraChina.ChineseOakSpecies2\nFloraMexico.MexicanOakSpecies2&#45;&gt;FloraChina.OakGenus\n\nFloraMexico.OakGenus\n\n</title>
<path fill="none" stroke="#53442c" d="M297.201,-138.422C274.3,-135.36 250.241,-131.577 228,-127 219.856,-125.324 211.462,-123.382 203.069,-121.288"/>
<polygon fill="#53442c" stroke="#53442c" points="203.787,-117.859 193.232,-118.768 202.05,-124.64 203.787,-117.859"/>
<text text-anchor="middle" x="232" y="-130.8" font-family="Times,serif" font-size="14.00">2</text>
</g>
<!-- FloraChina.ChineseOakSpecies2\nFloraMexico.MexicanOakSpecies2&#45;&gt;FloraChina.OakGenus\n\nFloraMexico.OakGenus\n\n -->
<g id="edge5" class="edge"><title>FloraChina.ChineseOakSpecies2\nFloraMexico.MexicanOakSpecies2&#45;&gt;FloraChina.OakGenus\n\nFloraMexico.OakGenus\n\n</title>
<path fill="none" stroke="#53442c" d="M332.365,-129.97C302.88,-122.31 267.926,-113.909 236,-108 229.837,-106.859 223.494,-105.779 217.082,-104.759"/>
<polygon fill="#53442c" stroke="#53442c" points="217.379,-101.263 206.963,-103.206 216.316,-108.182 217.379,-101.263"/>
<text text-anchor="middle" x="232" y="-111.8" font-family="Times,serif" font-size="14.00">2</text>
</g>
<!-- FloraChina.ChineseOakSpecies1\n\nFloraMexico.MexicanOakSpecies1\n\n -->
<g id="node4" class="node"><title>FloraChina.ChineseOakSpecies1\n\nFloraMexico.MexicanOakSpecies1\n\n</title>
<ellipse fill="#00bfff" stroke="black" cx="402" cy="-49" rx="147.571" ry="49.4949"/>
<text text-anchor="middle" x="402" y="-68.8" font-family="Times,serif" font-size="14.00">FloraChina.ChineseOakSpecies1</text>
<text text-anchor="middle" x="402" y="-37.8" font-family="Times,serif" font-size="14.00">FloraMexico.MexicanOakSpecies1</text>
</g>
<!-- FloraChina.ChineseOakSpecies1\n\nFloraMexico.MexicanOakSpecies1\n\n&#45;&gt;FloraChina.OakGenus\n\nFloraMexico.OakGenus\n\n -->
<g id="edge1" class="edge"><title>FloraChina.ChineseOakSpecies1\n\nFloraMexico.MexicanOakSpecies1\n\n&#45;&gt;FloraChina.OakGenus\n\nFloraMexico.OakGenus\n\n</title>
<path fill="none" stroke="#53442c" d="M265.942,-68.4775C253.117,-70.339 240.312,-72.2022 228,-74 223.829,-74.609 219.578,-75.2309 215.284,-75.8599"/>
<polygon fill="#53442c" stroke="#53442c" points="214.591,-72.4241 205.205,-77.3381 215.607,-79.35 214.591,-72.4241"/>
<text text-anchor="middle" x="232" y="-77.8" font-family="Times,serif" font-size="14.00">2</text>
</g>
<!-- FloraChina.ChineseOakSpecies1\n\nFloraMexico.MexicanOakSpecies1\n\n&#45;&gt;FloraChina.OakGenus\n\nFloraMexico.OakGenus\n\n -->
<g id="edge6" class="edge"><title>FloraChina.ChineseOakSpecies1\n\nFloraMexico.MexicanOakSpecies1\n\n&#45;&gt;FloraChina.OakGenus\n\nFloraMexico.OakGenus\n\n</title>
<path fill="none" stroke="#53442c" d="M253.967,-50.487C245.157,-51.4317 236.447,-52.5899 228,-54 218.482,-55.5891 208.675,-57.7353 198.954,-60.2035"/>
<polygon fill="#53442c" stroke="#53442c" points="198.044,-56.8239 189.275,-62.7702 199.838,-63.59 198.044,-56.8239"/>
<text text-anchor="middle" x="232" y="-57.8" font-family="Times,serif" font-size="14.00">2</text>
</g>
</g>
</svg>
