<?xml version="1.0" encoding="UTF-8" standalone="no"?>
<!DOCTYPE svg PUBLIC "-//W3C//DTD SVG 1.1//EN"
 "http://www.w3.org/Graphics/SVG/1.1/DTD/svg11.dtd">
<!-- Generated by graphviz version 2.36.0 (20140111.2315)
 -->
<!-- Title: %3 Pages: 1 -->
<svg width="808pt" height="134pt"
 viewBox="0.00 0.00 808.00 134.18" xmlns="http://www.w3.org/2000/svg" xmlns:xlink="http://www.w3.org/1999/xlink">
<g id="graph0" class="graph" transform="scale(1 1) rotate(0) translate(4 130.181)">
<title>%3</title>
<polygon fill="white" stroke="none" points="-4,4 -4,-130.181 804,-130.181 804,4 -4,4"/>
<!-- FloraChina.ChineseOakSpecies1 -->
<g id="node1" class="node"><title>FloraChina.ChineseOakSpecies1</title>
<polygon fill="#ccffcc" stroke="black" points="792.5,-101.181 597.5,-101.181 597.5,-65.1806 792.5,-65.1806 792.5,-101.181"/>
<text text-anchor="middle" x="695" y="-79.4806" font-family="Times,serif" font-size="14.00">FloraChina.ChineseOakSpecies1</text>
</g>
<!-- FloraChina.OakGenus -->
<g id="node3" class="node"><title>FloraChina.OakGenus</title>
<polygon fill="#ccffcc" stroke="black" points="468,-70.1806 330,-70.1806 330,-34.1806 468,-34.1806 468,-70.1806"/>
<text text-anchor="middle" x="399" y="-48.4806" font-family="Times,serif" font-size="14.00">FloraChina.OakGenus</text>
</g>
<!-- FloraChina.ChineseOakSpecies1&#45;&gt;FloraChina.OakGenus -->
<g id="edge1" class="edge"><title>FloraChina.ChineseOakSpecies1&#45;&gt;FloraChina.OakGenus</title>
<path fill="none" stroke="#761212" d="M597.326,-72.9871C558.775,-68.9222 514.973,-64.3036 478.446,-60.4522"/>
<polygon fill="#761212" stroke="#761212" points="478.659,-56.9553 468.348,-59.3873 477.925,-63.9167 478.659,-56.9553"/>
<text text-anchor="middle" x="568" y="-72.9806" font-family="Times,serif" font-size="14.00">1</text>
</g>
<!-- FloraMexico.MexicanOakSpecies1 -->
<g id="node4" class="node"><title>FloraMexico.MexicanOakSpecies1</title>
<polygon fill="#ffffcc" stroke="black" points="546.06,-100.725 546.06,-115.636 459.914,-126.181 338.086,-126.181 251.94,-115.636 251.94,-100.725 338.086,-90.1806 459.914,-90.1806 546.06,-100.725"/>
<text text-anchor="middle" x="399" y="-104.481" font-family="Times,serif" font-size="14.00">FloraMexico.MexicanOakSpecies1</text>
</g>
<!-- FloraChina.ChineseOakSpecies1&#45;&gt;FloraMexico.MexicanOakSpecies1 -->
<g id="edge2" class="edge"><title>FloraChina.ChineseOakSpecies1&#45;&gt;FloraMexico.MexicanOakSpecies1</title>
<path fill="none" stroke="#761212" d="M597.326,-91.4012C576.499,-93.1722 554.14,-95.0735 532.223,-96.9372"/>
<polygon fill="#761212" stroke="#761212" points="531.858,-93.4554 522.191,-97.7902 532.452,-100.43 531.858,-93.4554"/>
<text text-anchor="middle" x="568" y="-97.9806" font-family="Times,serif" font-size="14.00">1</text>
</g>
<!-- FloraChina.ChineseOakSpecies2\nFloraMexico.MexicanOakSpecies2 -->
<g id="node2" class="node"><title>FloraChina.ChineseOakSpecies2\nFloraMexico.MexicanOakSpecies2</title>
<path fill="#eeeeee" stroke="black" d="M787.5,-39.1806C787.5,-39.1806 602.5,-39.1806 602.5,-39.1806 596.5,-39.1806 590.5,-33.1806 590.5,-27.1806 590.5,-27.1806 590.5,-13.1806 590.5,-13.1806 590.5,-7.18063 596.5,-1.18063 602.5,-1.18063 602.5,-1.18063 787.5,-1.18063 787.5,-1.18063 793.5,-1.18063 799.5,-7.18063 799.5,-13.1806 799.5,-13.1806 799.5,-27.1806 799.5,-27.1806 799.5,-33.1806 793.5,-39.1806 787.5,-39.1806"/>
<text text-anchor="middle" x="695" y="-23.9806" font-family="Times,serif" font-size="14.00">FloraChina.ChineseOakSpecies2</text>
<text text-anchor="middle" x="695" y="-8.98063" font-family="Times,serif" font-size="14.00">FloraMexico.MexicanOakSpecies2</text>
</g>
<!-- FloraChina.ChineseOakSpecies2\nFloraMexico.MexicanOakSpecies2&#45;&gt;FloraChina.OakGenus -->
<g id="edge3" class="edge"><title>FloraChina.ChineseOakSpecies2\nFloraMexico.MexicanOakSpecies2&#45;&gt;FloraChina.OakGenus</title>
<path fill="none" stroke="#761212" d="M590.347,-31.4626C553.482,-35.4751 512.623,-39.9223 478.242,-43.6645"/>
<polygon fill="#761212" stroke="#761212" points="477.822,-40.1895 468.259,-44.751 478.579,-47.1484 477.822,-40.1895"/>
<text text-anchor="middle" x="568" y="-37.9806" font-family="Times,serif" font-size="14.00">1</text>
</g>
<!-- FloraMexico.OakGenus -->
<g id="node5" class="node"><title>FloraMexico.OakGenus</title>
<polygon fill="#ffffcc" stroke="black" points="208.234,-44.7248 208.234,-59.6365 147.175,-70.1806 60.8249,-70.1806 -0.233914,-59.6365 -0.233914,-44.7248 60.8249,-34.1806 147.175,-34.1806 208.234,-44.7248"/>
<text text-anchor="middle" x="104" y="-48.4806" font-family="Times,serif" font-size="14.00">FloraMexico.OakGenus</text>
</g>
<!-- FloraChina.ChineseOakSpecies2\nFloraMexico.MexicanOakSpecies2&#45;&gt;FloraMexico.OakGenus -->
<g id="edge4" class="edge"><title>FloraChina.ChineseOakSpecies2\nFloraMexico.MexicanOakSpecies2&#45;&gt;FloraMexico.OakGenus</title>
<path fill="none" stroke="#761212" d="M590.3,-8.44005C500.376,-0.493886 366.971,5.92162 252,-10.1806 221.683,-14.4266 188.846,-23.3718 161.913,-31.9201"/>
<polygon fill="#761212" stroke="#761212" points="160.708,-28.6312 152.273,-35.042 162.865,-35.2907 160.708,-28.6312"/>
<text text-anchor="middle" x="399" y="-13.9806" font-family="Times,serif" font-size="14.00">1</text>
</g>
<!-- FloraChina.OakGenus&#45;&gt;FloraMexico.OakGenus -->
<g id="edge5" class="edge"><title>FloraChina.OakGenus&#45;&gt;FloraMexico.OakGenus</title>
<path fill="none" stroke="#761212" d="M329.674,-52.1806C296.674,-52.1806 256.19,-52.1806 218.72,-52.1806"/>
<polygon fill="#761212" stroke="#761212" points="218.241,-48.6807 208.241,-52.1806 218.241,-55.6807 218.241,-48.6807"/>
<text text-anchor="middle" x="230" y="-55.9806" font-family="Times,serif" font-size="14.00">1</text>
</g>
<!-- FloraMexico.MexicanOakSpecies1&#45;&gt;FloraMexico.OakGenus -->
<g id="edge6" class="edge"><title>FloraMexico.MexicanOakSpecies1&#45;&gt;FloraMexico.OakGenus</title>
<path fill="none" stroke="#761212" d="M317.161,-92.7301C275.849,-84.8343 225.754,-75.2598 184.617,-67.3975"/>
<polygon fill="#761212" stroke="#761212" points="185.114,-63.9292 174.634,-65.4896 183.799,-70.8047 185.114,-63.9292"/>
<text text-anchor="middle" x="230" y="-79.9806" font-family="Times,serif" font-size="14.00">1</text>
</g>
</g>
</svg>
