<?xml version="1.0" encoding="UTF-8" standalone="no"?>
<!DOCTYPE svg PUBLIC "-//W3C//DTD SVG 1.1//EN"
 "http://www.w3.org/Graphics/SVG/1.1/DTD/svg11.dtd">
<!-- Generated by graphviz version 2.36.0 (20140111.2315)
 -->
<!-- Title: %3 Pages: 1 -->
<svg width="856pt" height="221pt"
 viewBox="0.00 0.00 856.00 221.00" xmlns="http://www.w3.org/2000/svg" xmlns:xlink="http://www.w3.org/1999/xlink">
<g id="graph0" class="graph" transform="scale(1 1) rotate(0) translate(4 217)">
<title>%3</title>
<polygon fill="white" stroke="none" points="-4,4 -4,-217 852,-217 852,4 -4,4"/>
<!-- FloraChina.OakGenus -->
<g id="node1" class="node"><title>FloraChina.OakGenus</title>
<polygon fill="#ccffcc" stroke="black" points="138,-186 0,-186 0,-150 138,-150 138,-186"/>
<text text-anchor="middle" x="69" y="-164.3" font-family="Times,serif" font-size="14.00">FloraChina.OakGenus</text>
</g>
<!-- FloraChina.ChineseOakSpecies1 -->
<g id="node2" class="node"><title>FloraChina.ChineseOakSpecies1</title>
<polygon fill="#ccffcc" stroke="black" points="662.5,-159 467.5,-159 467.5,-123 662.5,-123 662.5,-159"/>
<text text-anchor="middle" x="565" y="-137.3" font-family="Times,serif" font-size="14.00">FloraChina.ChineseOakSpecies1</text>
</g>
<!-- FloraMexico.OakGenus -->
<g id="node4" class="node"><title>FloraMexico.OakGenus</title>
<polygon fill="#ffffcc" stroke="black" points="382.234,-133.544 382.234,-148.456 321.175,-159 234.825,-159 173.766,-148.456 173.766,-133.544 234.825,-123 321.175,-123 382.234,-133.544"/>
<text text-anchor="middle" x="278" y="-137.3" font-family="Times,serif" font-size="14.00">FloraMexico.OakGenus</text>
</g>
<!-- FloraChina.ChineseOakSpecies1&#45;&gt;FloraMexico.OakGenus -->
<g id="edge10" class="edge"><title>FloraChina.ChineseOakSpecies1&#45;&gt;FloraMexico.OakGenus</title>
<path fill="none" stroke="#ff0000" d="M467.114,-141C443.145,-141 417.251,-141 392.566,-141"/>
<polygon fill="#ff0000" stroke="#ff0000" points="392.44,-137.5 382.44,-141 392.44,-144.5 392.44,-137.5"/>
</g>
<!-- FloraMexico.MexicanOakSpecies1 -->
<g id="node5" class="node"><title>FloraMexico.MexicanOakSpecies1</title>
<polygon fill="#ffffcc" stroke="black" points="712.06,-187.544 712.06,-202.456 625.914,-213 504.086,-213 417.94,-202.456 417.94,-187.544 504.086,-177 625.914,-177 712.06,-187.544"/>
<text text-anchor="middle" x="565" y="-191.3" font-family="Times,serif" font-size="14.00">FloraMexico.MexicanOakSpecies1</text>
</g>
<!-- FloraChina.ChineseOakSpecies1&#45;&gt;FloraMexico.MexicanOakSpecies1 -->
<g id="edge2" class="edge"><title>FloraChina.ChineseOakSpecies1&#45;&gt;FloraMexico.MexicanOakSpecies1</title>
<path fill="none" stroke="#0000ff" stroke-dasharray="1,5" d="M565,-159.141C565,-165.024 565,-170.907 565,-176.79"/>
</g>
<!-- FloraMexico.MexicanOakSpecies2 -->
<g id="node6" class="node"><title>FloraMexico.MexicanOakSpecies2</title>
<polygon fill="#ffffcc" stroke="black" points="712.06,-79.5442 712.06,-94.4558 625.914,-105 504.086,-105 417.94,-94.4558 417.94,-79.5442 504.086,-69 625.914,-69 712.06,-79.5442"/>
<text text-anchor="middle" x="565" y="-83.3" font-family="Times,serif" font-size="14.00">FloraMexico.MexicanOakSpecies2</text>
</g>
<!-- FloraChina.ChineseOakSpecies1&#45;&gt;FloraMexico.MexicanOakSpecies2 -->
<g id="edge3" class="edge"><title>FloraChina.ChineseOakSpecies1&#45;&gt;FloraMexico.MexicanOakSpecies2</title>
<path fill="none" stroke="#0000ff" stroke-dasharray="1,5" d="M565,-122.79C565,-116.907 565,-111.024 565,-105.141"/>
</g>
<!-- FloraChina.ChineseOakSpecies2 -->
<g id="node3" class="node"><title>FloraChina.ChineseOakSpecies2</title>
<polygon fill="#ccffcc" stroke="black" points="375.5,-213 180.5,-213 180.5,-177 375.5,-177 375.5,-213"/>
<text text-anchor="middle" x="278" y="-191.3" font-family="Times,serif" font-size="14.00">FloraChina.ChineseOakSpecies2</text>
</g>
<!-- FloraChina.ChineseOakSpecies2&#45;&gt;FloraChina.OakGenus -->
<g id="edge7" class="edge"><title>FloraChina.ChineseOakSpecies2&#45;&gt;FloraChina.OakGenus</title>
<path fill="none" stroke="#000000" d="M180.469,-182.409C169.606,-180.992 158.641,-179.562 148.054,-178.181"/>
<polygon fill="#000000" stroke="#000000" points="148.404,-174.697 138.035,-176.874 147.498,-181.638 148.404,-174.697"/>
</g>
<!-- FloraChina.ChineseOakSpecies2&#45;&gt;FloraMexico.OakGenus -->
<g id="edge1" class="edge"><title>FloraChina.ChineseOakSpecies2&#45;&gt;FloraMexico.OakGenus</title>
<path fill="none" stroke="#0000ff" stroke-dasharray="1,5" d="M278,-176.79C278,-170.907 278,-165.024 278,-159.141"/>
</g>
<!-- FloraChina.ChineseOakSpecies2&#45;&gt;FloraMexico.MexicanOakSpecies1 -->
<g id="edge4" class="edge"><title>FloraChina.ChineseOakSpecies2&#45;&gt;FloraMexico.MexicanOakSpecies1</title>
<path fill="none" stroke="#0000ff" stroke-dasharray="1,5" d="M375.817,-195C389.365,-195 403.529,-195 417.743,-195"/>
</g>
<!-- FloraChina.ChineseOakSpecies2&#45;&gt;FloraMexico.MexicanOakSpecies2 -->
<g id="edge5" class="edge"><title>FloraChina.ChineseOakSpecies2&#45;&gt;FloraMexico.MexicanOakSpecies2</title>
<path fill="none" stroke="#0000ff" stroke-dasharray="1,5" d="M366.768,-176.927C372.126,-174.34 377.259,-171.381 382,-168 405.483,-151.25 393.918,-129.876 418,-114 427.9,-107.474 438.956,-102.421 450.433,-98.5233"/>
</g>
<!-- FloraMexico.OakGenus&#45;&gt;FloraChina.OakGenus -->
<g id="edge9" class="edge"><title>FloraMexico.OakGenus&#45;&gt;FloraChina.OakGenus</title>
<path fill="none" stroke="#ff0000" d="M193.402,-151.904C178.45,-153.854 162.923,-155.88 148.132,-157.809"/>
<polygon fill="#ff0000" stroke="#ff0000" points="147.489,-154.363 138.026,-159.127 148.395,-161.304 147.489,-154.363"/>
</g>
<!-- FloraMexico.MexicanOakSpecies1&#45;&gt;FloraMexico.OakGenus -->
<g id="edge6" class="edge"><title>FloraMexico.MexicanOakSpecies1&#45;&gt;FloraMexico.OakGenus</title>
<path fill="none" stroke="#000000" d="M480.975,-179.78C460.39,-175.969 438.387,-171.865 418,-168 398.474,-164.298 377.419,-160.242 357.748,-156.424"/>
<polygon fill="#000000" stroke="#000000" points="358.394,-152.984 347.91,-154.512 357.059,-159.856 358.394,-152.984"/>
</g>
<!-- FloraMexico.MexicanOakSpecies2&#45;&gt;FloraMexico.OakGenus -->
<g id="edge8" class="edge"><title>FloraMexico.MexicanOakSpecies2&#45;&gt;FloraMexico.OakGenus</title>
<path fill="none" stroke="#000000" d="M480.975,-102.22C460.39,-106.031 438.387,-110.135 418,-114 398.474,-117.702 377.419,-121.758 357.748,-125.576"/>
<polygon fill="#000000" stroke="#000000" points="357.059,-122.144 347.91,-127.488 358.394,-129.016 357.059,-122.144"/>
</g>
<!-- Legend -->
<g id="node7" class="node"><title>Legend</title>
<polygon fill="white" stroke="black" points="847.5,-175 748.5,-175 748.5,1 847.5,1 847.5,-175"/>
<polygon fill="none" stroke="black" points="749,-149 749,-175 848,-175 848,-149 749,-149"/>
<text text-anchor="start" x="774" y="-158.3" font-family="Arial Black" font-size="14.00"> Nodes</text>
<polygon fill="#ccffcc" stroke="none" points="749,-124 749,-149 831,-149 831,-124 749,-124"/>
<polygon fill="none" stroke="black" points="749,-124 749,-149 831,-149 831,-124 749,-124"/>
<text text-anchor="start" x="759.5" y="-132.8" font-family="Times,serif" font-size="14.00">FloraChina</text>
<polygon fill="none" stroke="black" points="831,-124 831,-149 848,-149 848,-124 831,-124"/>
<text text-anchor="start" x="836" y="-132.8" font-family="Times,serif" font-size="14.00">3</text>
<polygon fill="#ffffcc" stroke="none" points="749,-99 749,-124 831,-124 831,-99 749,-99"/>
<polygon fill="none" stroke="black" points="749,-99 749,-124 831,-124 831,-99 749,-99"/>
<text text-anchor="start" x="754.5" y="-107.8" font-family="Times,serif" font-size="14.00">FloraMexico</text>
<polygon fill="none" stroke="black" points="831,-99 831,-124 848,-124 848,-99 831,-99"/>
<text text-anchor="start" x="836" y="-107.8" font-family="Times,serif" font-size="14.00">3</text>
<polygon fill="none" stroke="black" points="749,-74 749,-99 848,-99 848,-74 749,-74"/>
<text text-anchor="start" x="772.5" y="-82.8" font-family="Arial Black" font-size="14.00"> Edges </text>
<polygon fill="none" stroke="black" points="749,-49 749,-74 831,-74 831,-49 749,-49"/>
<text text-anchor="start" x="767" y="-57.8" font-family="Times,serif" font-size="14.00" fill="#0000ff">overlaps</text>
<polygon fill="none" stroke="black" points="831,-49 831,-74 848,-74 848,-49 831,-49"/>
<text text-anchor="start" x="836" y="-57.8" font-family="Times,serif" font-size="14.00">5</text>
<polygon fill="none" stroke="black" points="749,-24 749,-49 831,-49 831,-24 749,-24"/>
<text text-anchor="start" x="776" y="-32.8" font-family="Times,serif" font-size="14.00" fill="#000000">input</text>
<polygon fill="none" stroke="black" points="831,-24 831,-49 848,-49 848,-24 831,-24"/>
<text text-anchor="start" x="836" y="-32.8" font-family="Times,serif" font-size="14.00">3</text>
<polygon fill="none" stroke="black" points="749,1 749,-24 831,-24 831,1 749,1"/>
<text text-anchor="start" x="768.5" y="-7.8" font-family="Times,serif" font-size="14.00" fill="#ff0000">inferred</text>
<polygon fill="none" stroke="black" points="831,1 831,-24 848,-24 848,1 831,1"/>
<text text-anchor="start" x="836" y="-7.8" font-family="Times,serif" font-size="14.00">2</text>
</g>
</g>
</svg>
