<?xml version="1.0" encoding="UTF-8" standalone="no"?>
<!DOCTYPE svg PUBLIC "-//W3C//DTD SVG 1.1//EN"
 "http://www.w3.org/Graphics/SVG/1.1/DTD/svg11.dtd">
<!-- Generated by graphviz version 2.36.0 (20140111.2315)
 -->
<!-- Title: %3 Pages: 1 -->
<svg width="856pt" height="208pt"
 viewBox="0.00 0.00 856.00 208.00" xmlns="http://www.w3.org/2000/svg" xmlns:xlink="http://www.w3.org/1999/xlink">
<g id="graph0" class="graph" transform="scale(1 1) rotate(0) translate(4 204)">
<title>%3</title>
<polygon fill="white" stroke="none" points="-4,4 -4,-204 852,-204 852,4 -4,4"/>
<!-- FloraChina.OakGenus -->
<g id="node1" class="node"><title>FloraChina.OakGenus</title>
<polygon fill="#ccffcc" stroke="black" points="138,-146 0,-146 0,-110 138,-110 138,-146"/>
<text text-anchor="middle" x="69" y="-124.3" font-family="Times,serif" font-size="14.00">FloraChina.OakGenus</text>
</g>
<!-- FloraChina.ChineseOakSpecies2 -->
<g id="node2" class="node"><title>FloraChina.ChineseOakSpecies2</title>
<polygon fill="#ccffcc" stroke="black" points="375.5,-173 180.5,-173 180.5,-137 375.5,-137 375.5,-173"/>
<text text-anchor="middle" x="278" y="-151.3" font-family="Times,serif" font-size="14.00">FloraChina.ChineseOakSpecies2</text>
</g>
<!-- FloraChina.ChineseOakSpecies2&#45;&gt;FloraChina.OakGenus -->
<g id="edge4" class="edge"><title>FloraChina.ChineseOakSpecies2&#45;&gt;FloraChina.OakGenus</title>
<path fill="none" stroke="#000000" d="M180.469,-142.409C169.606,-140.992 158.641,-139.562 148.054,-138.181"/>
<polygon fill="#000000" stroke="#000000" points="148.404,-134.697 138.035,-136.874 147.498,-141.638 148.404,-134.697"/>
</g>
<!-- FloraMexico.OakGenus -->
<g id="node5" class="node"><title>FloraMexico.OakGenus</title>
<polygon fill="#ffffcc" stroke="black" points="382.234,-93.5442 382.234,-108.456 321.175,-119 234.825,-119 173.766,-108.456 173.766,-93.5442 234.825,-83 321.175,-83 382.234,-93.5442"/>
<text text-anchor="middle" x="278" y="-97.3" font-family="Times,serif" font-size="14.00">FloraMexico.OakGenus</text>
</g>
<!-- FloraChina.ChineseOakSpecies2&#45;&gt;FloraMexico.OakGenus -->
<g id="edge1" class="edge"><title>FloraChina.ChineseOakSpecies2&#45;&gt;FloraMexico.OakGenus</title>
<path fill="none" stroke="#0000ff" stroke-dasharray="1,5" d="M278,-136.79C278,-130.907 278,-125.024 278,-119.141"/>
</g>
<!-- FloraChina.ChineseOakSpecies1\nFloraMexico.MexicanOakSpecies2 -->
<g id="node3" class="node"><title>FloraChina.ChineseOakSpecies1\nFloraMexico.MexicanOakSpecies2</title>
<path fill="#eeeeee" stroke="black" d="M657.5,-119C657.5,-119 472.5,-119 472.5,-119 466.5,-119 460.5,-113 460.5,-107 460.5,-107 460.5,-93 460.5,-93 460.5,-87 466.5,-81 472.5,-81 472.5,-81 657.5,-81 657.5,-81 663.5,-81 669.5,-87 669.5,-93 669.5,-93 669.5,-107 669.5,-107 669.5,-113 663.5,-119 657.5,-119"/>
<text text-anchor="middle" x="565" y="-103.8" font-family="Times,serif" font-size="14.00">FloraChina.ChineseOakSpecies1</text>
<text text-anchor="middle" x="565" y="-88.8" font-family="Times,serif" font-size="14.00">FloraMexico.MexicanOakSpecies2</text>
</g>
<!-- FloraChina.ChineseOakSpecies1\nFloraMexico.MexicanOakSpecies2&#45;&gt;FloraMexico.OakGenus -->
<g id="edge2" class="edge"><title>FloraChina.ChineseOakSpecies1\nFloraMexico.MexicanOakSpecies2&#45;&gt;FloraMexico.OakGenus</title>
<path fill="none" stroke="#000000" d="M460.302,-100.364C438.219,-100.441 414.79,-100.524 392.367,-100.602"/>
<polygon fill="#000000" stroke="#000000" points="392.131,-97.1029 382.143,-100.638 392.156,-104.103 392.131,-97.1029"/>
</g>
<!-- FloraMexico.MexicanOakSpecies1 -->
<g id="node4" class="node"><title>FloraMexico.MexicanOakSpecies1</title>
<polygon fill="#ffffcc" stroke="black" points="712.06,-147.544 712.06,-162.456 625.914,-173 504.086,-173 417.94,-162.456 417.94,-147.544 504.086,-137 625.914,-137 712.06,-147.544"/>
<text text-anchor="middle" x="565" y="-151.3" font-family="Times,serif" font-size="14.00">FloraMexico.MexicanOakSpecies1</text>
</g>
<!-- FloraMexico.MexicanOakSpecies1&#45;&gt;FloraChina.ChineseOakSpecies2 -->
<g id="edge6" class="edge"><title>FloraMexico.MexicanOakSpecies1&#45;&gt;FloraChina.ChineseOakSpecies2</title>
<path fill="none" stroke="#ff0000" d="M417.743,-155C407.083,-155 396.45,-155 386.085,-155"/>
<polygon fill="#ff0000" stroke="#ff0000" points="385.817,-151.5 375.817,-155 385.817,-158.5 385.817,-151.5"/>
</g>
<!-- FloraMexico.MexicanOakSpecies1&#45;&gt;FloraMexico.OakGenus -->
<g id="edge3" class="edge"><title>FloraMexico.MexicanOakSpecies1&#45;&gt;FloraMexico.OakGenus</title>
<path fill="none" stroke="#000000" d="M480.975,-139.78C460.39,-135.969 438.387,-131.865 418,-128 398.474,-124.298 377.419,-120.242 357.748,-116.424"/>
<polygon fill="#000000" stroke="#000000" points="358.394,-112.984 347.91,-114.512 357.059,-119.856 358.394,-112.984"/>
</g>
<!-- FloraMexico.OakGenus&#45;&gt;FloraChina.OakGenus -->
<g id="edge5" class="edge"><title>FloraMexico.OakGenus&#45;&gt;FloraChina.OakGenus</title>
<path fill="none" stroke="#ff0000" d="M193.402,-111.904C178.45,-113.854 162.923,-115.88 148.132,-117.809"/>
<polygon fill="#ff0000" stroke="#ff0000" points="147.489,-114.363 138.026,-119.127 148.395,-121.304 147.489,-114.363"/>
</g>
<!-- Legend -->
<g id="node6" class="node"><title>Legend</title>
<polygon fill="white" stroke="black" points="847.5,-200.5 748.5,-200.5 748.5,0.5 847.5,0.5 847.5,-200.5"/>
<polygon fill="none" stroke="black" points="749,-174 749,-200 848,-200 848,-174 749,-174"/>
<text text-anchor="start" x="774" y="-183.3" font-family="Arial Black" font-size="14.00"> Nodes</text>
<polygon fill="#ccffcc" stroke="none" points="749,-149 749,-174 831,-174 831,-149 749,-149"/>
<polygon fill="none" stroke="black" points="749,-149 749,-174 831,-174 831,-149 749,-149"/>
<text text-anchor="start" x="759.5" y="-157.8" font-family="Times,serif" font-size="14.00">FloraChina</text>
<polygon fill="none" stroke="black" points="831,-149 831,-174 848,-174 848,-149 831,-149"/>
<text text-anchor="start" x="836" y="-157.8" font-family="Times,serif" font-size="14.00">2</text>
<polygon fill="#eeeeee" stroke="none" points="749,-124 749,-149 831,-149 831,-124 749,-124"/>
<polygon fill="none" stroke="black" points="749,-124 749,-149 831,-149 831,-124 749,-124"/>
<text text-anchor="start" x="774.5" y="-132.8" font-family="Times,serif" font-size="14.00">comb</text>
<polygon fill="none" stroke="black" points="831,-124 831,-149 848,-149 848,-124 831,-124"/>
<text text-anchor="start" x="836" y="-132.8" font-family="Times,serif" font-size="14.00">1</text>
<polygon fill="#ffffcc" stroke="none" points="749,-99 749,-124 831,-124 831,-99 749,-99"/>
<polygon fill="none" stroke="black" points="749,-99 749,-124 831,-124 831,-99 749,-99"/>
<text text-anchor="start" x="754.5" y="-107.8" font-family="Times,serif" font-size="14.00">FloraMexico</text>
<polygon fill="none" stroke="black" points="831,-99 831,-124 848,-124 848,-99 831,-99"/>
<text text-anchor="start" x="836" y="-107.8" font-family="Times,serif" font-size="14.00">2</text>
<polygon fill="none" stroke="black" points="749,-74 749,-99 848,-99 848,-74 749,-74"/>
<text text-anchor="start" x="772.5" y="-82.8" font-family="Arial Black" font-size="14.00"> Edges </text>
<polygon fill="none" stroke="black" points="749,-49 749,-74 831,-74 831,-49 749,-49"/>
<text text-anchor="start" x="767" y="-57.8" font-family="Times,serif" font-size="14.00" fill="#0000ff">overlaps</text>
<polygon fill="none" stroke="black" points="831,-49 831,-74 848,-74 848,-49 831,-49"/>
<text text-anchor="start" x="836" y="-57.8" font-family="Times,serif" font-size="14.00">1</text>
<polygon fill="none" stroke="black" points="749,-24 749,-49 831,-49 831,-24 749,-24"/>
<text text-anchor="start" x="776" y="-32.8" font-family="Times,serif" font-size="14.00" fill="#000000">input</text>
<polygon fill="none" stroke="black" points="831,-24 831,-49 848,-49 848,-24 831,-24"/>
<text text-anchor="start" x="836" y="-32.8" font-family="Times,serif" font-size="14.00">3</text>
<polygon fill="none" stroke="black" points="749,1 749,-24 831,-24 831,1 749,1"/>
<text text-anchor="start" x="768.5" y="-7.8" font-family="Times,serif" font-size="14.00" fill="#ff0000">inferred</text>
<polygon fill="none" stroke="black" points="831,1 831,-24 848,-24 848,1 831,1"/>
<text text-anchor="start" x="836" y="-7.8" font-family="Times,serif" font-size="14.00">2</text>
</g>
</g>
</svg>
