<?xml version="1.0" encoding="UTF-8" standalone="no"?>
<!DOCTYPE svg PUBLIC "-//W3C//DTD SVG 1.1//EN"
 "http://www.w3.org/Graphics/SVG/1.1/DTD/svg11.dtd">
<!-- Generated by graphviz version 2.36.0 (20140111.2315)
 -->
<!-- Title: %3 Pages: 1 -->
<svg width="914pt" height="194pt"
 viewBox="0.00 0.00 914.00 194.00" xmlns="http://www.w3.org/2000/svg" xmlns:xlink="http://www.w3.org/1999/xlink">
<g id="graph0" class="graph" transform="scale(1 1) rotate(0) translate(4 190)">
<title>%3</title>
<polygon fill="white" stroke="none" points="-4,4 -4,-190 910,-190 910,4 -4,4"/>
<!-- FloraChina.OakGenus -->
<g id="node1" class="node"><title>FloraChina.OakGenus</title>
<polygon fill="#ccffcc" stroke="black" points="460,-144 322,-144 322,-108 460,-108 460,-144"/>
<text text-anchor="middle" x="391" y="-122.3" font-family="Times,serif" font-size="14.00">FloraChina.OakGenus</text>
</g>
<!-- FloraMexico.MexicanOakSpecies1 -->
<g id="node4" class="node"><title>FloraMexico.MexicanOakSpecies1</title>
<polygon fill="#ffffcc" stroke="black" points="538.06,-64.5442 538.06,-79.4558 451.914,-90 330.086,-90 243.94,-79.4558 243.94,-64.5442 330.086,-54 451.914,-54 538.06,-64.5442"/>
<text text-anchor="middle" x="391" y="-68.3" font-family="Times,serif" font-size="14.00">FloraMexico.MexicanOakSpecies1</text>
</g>
<!-- FloraChina.OakGenus&#45;&gt;FloraMexico.MexicanOakSpecies1 -->
<g id="edge1" class="edge"><title>FloraChina.OakGenus&#45;&gt;FloraMexico.MexicanOakSpecies1</title>
<path fill="none" stroke="#0000ff" stroke-dasharray="1,5" d="M391,-107.79C391,-101.907 391,-96.0238 391,-90.1406"/>
</g>
<!-- FloraMexico.OakGenus -->
<g id="node5" class="node"><title>FloraMexico.OakGenus</title>
<polygon fill="#ffffcc" stroke="black" points="208.234,-64.5442 208.234,-79.4558 147.175,-90 60.8249,-90 -0.233914,-79.4558 -0.233914,-64.5442 60.8249,-54 147.175,-54 208.234,-64.5442"/>
<text text-anchor="middle" x="104" y="-68.3" font-family="Times,serif" font-size="14.00">FloraMexico.OakGenus</text>
</g>
<!-- FloraChina.OakGenus&#45;&gt;FloraMexico.OakGenus -->
<g id="edge11" class="edge"><title>FloraChina.OakGenus&#45;&gt;FloraMexico.OakGenus</title>
<path fill="none" stroke="#ff0000" d="M321.642,-113.49C297.144,-108.972 269.326,-103.801 244,-99 224.474,-95.2983 203.419,-91.242 183.748,-87.4242"/>
<polygon fill="#ff0000" stroke="#ff0000" points="184.394,-83.9843 173.91,-85.5124 183.059,-90.8558 184.394,-83.9843"/>
</g>
<!-- FloraMexico.MexicanOakSpecies2 -->
<g id="node6" class="node"><title>FloraMexico.MexicanOakSpecies2</title>
<polygon fill="#ffffcc" stroke="black" points="538.06,-10.5442 538.06,-25.4558 451.914,-36 330.086,-36 243.94,-25.4558 243.94,-10.5442 330.086,-3.55271e-15 451.914,-0 538.06,-10.5442"/>
<text text-anchor="middle" x="391" y="-14.3" font-family="Times,serif" font-size="14.00">FloraMexico.MexicanOakSpecies2</text>
</g>
<!-- FloraChina.OakGenus&#45;&gt;FloraMexico.MexicanOakSpecies2 -->
<g id="edge4" class="edge"><title>FloraChina.OakGenus&#45;&gt;FloraMexico.MexicanOakSpecies2</title>
<path fill="none" stroke="#0000ff" stroke-dasharray="1,5" d="M460.408,-131.89C496.304,-130.637 536.578,-121.425 556,-90 564.412,-76.3896 564.412,-67.6104 556,-54 548.601,-42.0284 538.176,-33.2805 526.12,-26.9683"/>
</g>
<!-- FloraChina.ChineseOakSpecies1 -->
<g id="node2" class="node"><title>FloraChina.ChineseOakSpecies1</title>
<polygon fill="#ccffcc" stroke="black" points="769.5,-171 574.5,-171 574.5,-135 769.5,-135 769.5,-171"/>
<text text-anchor="middle" x="672" y="-149.3" font-family="Times,serif" font-size="14.00">FloraChina.ChineseOakSpecies1</text>
</g>
<!-- FloraChina.ChineseOakSpecies1&#45;&gt;FloraChina.OakGenus -->
<g id="edge10" class="edge"><title>FloraChina.ChineseOakSpecies1&#45;&gt;FloraChina.OakGenus</title>
<path fill="none" stroke="#000000" d="M574.202,-143.632C540.26,-140.348 502.586,-136.702 470.345,-133.582"/>
<polygon fill="#000000" stroke="#000000" points="470.37,-130.068 460.08,-132.588 469.696,-137.035 470.37,-130.068"/>
</g>
<!-- FloraChina.ChineseOakSpecies1&#45;&gt;FloraMexico.MexicanOakSpecies1 -->
<g id="edge2" class="edge"><title>FloraChina.ChineseOakSpecies1&#45;&gt;FloraMexico.MexicanOakSpecies1</title>
<path fill="none" stroke="#0000ff" stroke-dasharray="1,5" d="M595.296,-134.925C587.959,-132.287 580.744,-129.32 574,-126 556.057,-117.166 556.317,-107.031 538,-99 524.426,-93.0487 509.583,-88.4086 494.728,-84.7911"/>
</g>
<!-- FloraChina.ChineseOakSpecies1&#45;&gt;FloraMexico.MexicanOakSpecies2 -->
<g id="edge3" class="edge"><title>FloraChina.ChineseOakSpecies1&#45;&gt;FloraMexico.MexicanOakSpecies2</title>
<path fill="none" stroke="#0000ff" stroke-dasharray="1,5" d="M586.505,-134.774C582.051,-132.22 577.838,-129.312 574,-126 544.176,-100.26 568.935,-69.3935 538,-45 529.499,-38.2964 519.857,-33.0656 509.678,-29.0049"/>
</g>
<!-- FloraChina.ChineseOakSpecies2 -->
<g id="node3" class="node"><title>FloraChina.ChineseOakSpecies2</title>
<polygon fill="#ccffcc" stroke="black" points="769.5,-117 574.5,-117 574.5,-81 769.5,-81 769.5,-117"/>
<text text-anchor="middle" x="672" y="-95.3" font-family="Times,serif" font-size="14.00">FloraChina.ChineseOakSpecies2</text>
</g>
<!-- FloraChina.ChineseOakSpecies2&#45;&gt;FloraChina.OakGenus -->
<g id="edge8" class="edge"><title>FloraChina.ChineseOakSpecies2&#45;&gt;FloraChina.OakGenus</title>
<path fill="none" stroke="#000000" d="M574.202,-108.368C540.26,-111.652 502.586,-115.298 470.345,-118.418"/>
<polygon fill="#000000" stroke="#000000" points="469.696,-114.965 460.08,-119.412 470.37,-121.932 469.696,-114.965"/>
</g>
<!-- FloraChina.ChineseOakSpecies2&#45;&gt;FloraMexico.MexicanOakSpecies1 -->
<g id="edge5" class="edge"><title>FloraChina.ChineseOakSpecies2&#45;&gt;FloraMexico.MexicanOakSpecies1</title>
<path fill="none" stroke="#0000ff" stroke-dasharray="1,5" d="M574.202,-89.6325C552.798,-87.5611 529.909,-85.346 507.834,-83.2098"/>
</g>
<!-- FloraChina.ChineseOakSpecies2&#45;&gt;FloraMexico.MexicanOakSpecies2 -->
<g id="edge6" class="edge"><title>FloraChina.ChineseOakSpecies2&#45;&gt;FloraMexico.MexicanOakSpecies2</title>
<path fill="none" stroke="#0000ff" stroke-dasharray="1,5" d="M632.459,-80.9221C606.296,-69.2594 570.652,-54.5404 538,-45 520.804,-39.9756 502.184,-35.6892 484.181,-32.1106"/>
</g>
<!-- FloraMexico.MexicanOakSpecies1&#45;&gt;FloraMexico.OakGenus -->
<g id="edge7" class="edge"><title>FloraMexico.MexicanOakSpecies1&#45;&gt;FloraMexico.OakGenus</title>
<path fill="none" stroke="#000000" d="M243.743,-72C235.29,-72 226.854,-72 218.555,-72"/>
<polygon fill="#000000" stroke="#000000" points="218.508,-68.5001 208.508,-72 218.508,-75.5001 218.508,-68.5001"/>
</g>
<!-- FloraMexico.MexicanOakSpecies2&#45;&gt;FloraMexico.OakGenus -->
<g id="edge9" class="edge"><title>FloraMexico.MexicanOakSpecies2&#45;&gt;FloraMexico.OakGenus</title>
<path fill="none" stroke="#000000" d="M306.975,-33.2202C286.39,-37.0308 264.387,-41.1349 244,-45 224.474,-48.7017 203.419,-52.758 183.748,-56.5758"/>
<polygon fill="#000000" stroke="#000000" points="183.059,-53.1442 173.91,-58.4876 184.394,-60.0157 183.059,-53.1442"/>
</g>
<!-- Legend -->
<g id="node7" class="node"><title>Legend</title>
<polygon fill="white" stroke="black" points="905.5,-187 806.5,-187 806.5,-11 905.5,-11 905.5,-187"/>
<polygon fill="none" stroke="black" points="807,-161 807,-187 906,-187 906,-161 807,-161"/>
<text text-anchor="start" x="832" y="-170.3" font-family="Arial Black" font-size="14.00"> Nodes</text>
<polygon fill="#ccffcc" stroke="none" points="807,-136 807,-161 889,-161 889,-136 807,-136"/>
<polygon fill="none" stroke="black" points="807,-136 807,-161 889,-161 889,-136 807,-136"/>
<text text-anchor="start" x="817.5" y="-144.8" font-family="Times,serif" font-size="14.00">FloraChina</text>
<polygon fill="none" stroke="black" points="889,-136 889,-161 906,-161 906,-136 889,-136"/>
<text text-anchor="start" x="894" y="-144.8" font-family="Times,serif" font-size="14.00">3</text>
<polygon fill="#ffffcc" stroke="none" points="807,-111 807,-136 889,-136 889,-111 807,-111"/>
<polygon fill="none" stroke="black" points="807,-111 807,-136 889,-136 889,-111 807,-111"/>
<text text-anchor="start" x="812.5" y="-119.8" font-family="Times,serif" font-size="14.00">FloraMexico</text>
<polygon fill="none" stroke="black" points="889,-111 889,-136 906,-136 906,-111 889,-111"/>
<text text-anchor="start" x="894" y="-119.8" font-family="Times,serif" font-size="14.00">3</text>
<polygon fill="none" stroke="black" points="807,-86 807,-111 906,-111 906,-86 807,-86"/>
<text text-anchor="start" x="830.5" y="-94.8" font-family="Arial Black" font-size="14.00"> Edges </text>
<polygon fill="none" stroke="black" points="807,-61 807,-86 889,-86 889,-61 807,-61"/>
<text text-anchor="start" x="825" y="-69.8" font-family="Times,serif" font-size="14.00" fill="#0000ff">overlaps</text>
<polygon fill="none" stroke="black" points="889,-61 889,-86 906,-86 906,-61 889,-61"/>
<text text-anchor="start" x="894" y="-69.8" font-family="Times,serif" font-size="14.00">6</text>
<polygon fill="none" stroke="black" points="807,-36 807,-61 889,-61 889,-36 807,-36"/>
<text text-anchor="start" x="834" y="-44.8" font-family="Times,serif" font-size="14.00" fill="#000000">input</text>
<polygon fill="none" stroke="black" points="889,-36 889,-61 906,-61 906,-36 889,-36"/>
<text text-anchor="start" x="894" y="-44.8" font-family="Times,serif" font-size="14.00">4</text>
<polygon fill="none" stroke="black" points="807,-11 807,-36 889,-36 889,-11 807,-11"/>
<text text-anchor="start" x="826.5" y="-19.8" font-family="Times,serif" font-size="14.00" fill="#ff0000">inferred</text>
<polygon fill="none" stroke="black" points="889,-11 889,-36 906,-36 906,-11 889,-11"/>
<text text-anchor="start" x="894" y="-19.8" font-family="Times,serif" font-size="14.00">1</text>
</g>
</g>
</svg>
