<?xml version="1.0" encoding="UTF-8" standalone="no"?>
<!DOCTYPE svg PUBLIC "-//W3C//DTD SVG 1.1//EN"
 "http://www.w3.org/Graphics/SVG/1.1/DTD/svg11.dtd">
<!-- Generated by graphviz version 2.36.0 (20140111.2315)
 -->
<!-- Title: %3 Pages: 1 -->
<svg width="502pt" height="133pt"
 viewBox="0.00 0.00 502.00 133.00" xmlns="http://www.w3.org/2000/svg" xmlns:xlink="http://www.w3.org/1999/xlink">
<g id="graph0" class="graph" transform="scale(1 1) rotate(0) translate(4 129)">
<title>%3</title>
<polygon fill="white" stroke="none" points="-4,4 -4,-129 498,-129 498,4 -4,4"/>
<!-- FloraChina.ChineseOakSpecies2\nFloraMexico.MexicanOakSpecies1 -->
<g id="node1" class="node"><title>FloraChina.ChineseOakSpecies2\nFloraMexico.MexicanOakSpecies1</title>
<path fill="#eeeeee" stroke="black" d="M381.5,-125C381.5,-125 196.5,-125 196.5,-125 190.5,-125 184.5,-119 184.5,-113 184.5,-113 184.5,-99 184.5,-99 184.5,-93 190.5,-87 196.5,-87 196.5,-87 381.5,-87 381.5,-87 387.5,-87 393.5,-93 393.5,-99 393.5,-99 393.5,-113 393.5,-113 393.5,-119 387.5,-125 381.5,-125"/>
<text text-anchor="middle" x="289" y="-109.8" font-family="Times,serif" font-size="14.00">FloraChina.ChineseOakSpecies2</text>
<text text-anchor="middle" x="289" y="-94.8" font-family="Times,serif" font-size="14.00">FloraMexico.MexicanOakSpecies1</text>
</g>
<!-- FloraChina.OakGenus\nFloraMexico.OakGenus -->
<g id="node2" class="node"><title>FloraChina.OakGenus\nFloraMexico.OakGenus</title>
<path fill="#eeeeee" stroke="black" d="M136,-97C136,-97 12,-97 12,-97 6,-97 0,-91 0,-85 0,-85 0,-71 0,-71 0,-65 6,-59 12,-59 12,-59 136,-59 136,-59 142,-59 148,-65 148,-71 148,-71 148,-85 148,-85 148,-91 142,-97 136,-97"/>
<text text-anchor="middle" x="74" y="-81.8" font-family="Times,serif" font-size="14.00">FloraChina.OakGenus</text>
<text text-anchor="middle" x="74" y="-66.8" font-family="Times,serif" font-size="14.00">FloraMexico.OakGenus</text>
</g>
<!-- FloraChina.ChineseOakSpecies2\nFloraMexico.MexicanOakSpecies1&#45;&gt;FloraChina.OakGenus\nFloraMexico.OakGenus -->
<g id="edge2" class="edge"><title>FloraChina.ChineseOakSpecies2\nFloraMexico.MexicanOakSpecies1&#45;&gt;FloraChina.OakGenus\nFloraMexico.OakGenus</title>
<path fill="none" stroke="#000000" d="M184.308,-92.3691C175.563,-91.2195 166.793,-90.0666 158.233,-88.9414"/>
<polygon fill="#000000" stroke="#000000" points="158.667,-85.4685 148.296,-87.6352 157.755,-92.4087 158.667,-85.4685"/>
</g>
<!-- FloraChina.ChineseOakSpecies1\nFloraMexico.MexicanOakSpecies2 -->
<g id="node3" class="node"><title>FloraChina.ChineseOakSpecies1\nFloraMexico.MexicanOakSpecies2</title>
<path fill="#eeeeee" stroke="black" d="M381.5,-69C381.5,-69 196.5,-69 196.5,-69 190.5,-69 184.5,-63 184.5,-57 184.5,-57 184.5,-43 184.5,-43 184.5,-37 190.5,-31 196.5,-31 196.5,-31 381.5,-31 381.5,-31 387.5,-31 393.5,-37 393.5,-43 393.5,-43 393.5,-57 393.5,-57 393.5,-63 387.5,-69 381.5,-69"/>
<text text-anchor="middle" x="289" y="-53.8" font-family="Times,serif" font-size="14.00">FloraChina.ChineseOakSpecies1</text>
<text text-anchor="middle" x="289" y="-38.8" font-family="Times,serif" font-size="14.00">FloraMexico.MexicanOakSpecies2</text>
</g>
<!-- FloraChina.ChineseOakSpecies1\nFloraMexico.MexicanOakSpecies2&#45;&gt;FloraChina.OakGenus\nFloraMexico.OakGenus -->
<g id="edge1" class="edge"><title>FloraChina.ChineseOakSpecies1\nFloraMexico.MexicanOakSpecies2&#45;&gt;FloraChina.OakGenus\nFloraMexico.OakGenus</title>
<path fill="none" stroke="#000000" d="M184.308,-63.6309C175.563,-64.7805 166.793,-65.9334 158.233,-67.0586"/>
<polygon fill="#000000" stroke="#000000" points="157.755,-63.5913 148.296,-68.3648 158.667,-70.5315 157.755,-63.5913"/>
</g>
<!-- Legend -->
<g id="node4" class="node"><title>Legend</title>
<path fill="white" stroke="black" d="M481.5,-100.5C481.5,-100.5 442.5,-100.5 442.5,-100.5 436.5,-100.5 430.5,-94.5 430.5,-88.5 430.5,-88.5 430.5,-11.5 430.5,-11.5 430.5,-5.5 436.5,0.5 442.5,0.5 442.5,0.5 481.5,0.5 481.5,0.5 487.5,0.5 493.5,-5.5 493.5,-11.5 493.5,-11.5 493.5,-88.5 493.5,-88.5 493.5,-94.5 487.5,-100.5 481.5,-100.5"/>
<polygon fill="none" stroke="black" points="431,-74 431,-100 494,-100 494,-74 431,-74"/>
<text text-anchor="start" x="438" y="-83.3" font-family="Arial Black" font-size="14.00"> Nodes</text>
<polygon fill="#eeeeee" stroke="none" points="431,-49 431,-74 475,-74 475,-49 431,-49"/>
<polygon fill="none" stroke="black" points="431,-49 431,-74 475,-74 475,-49 431,-49"/>
<text text-anchor="start" x="437.5" y="-57.8" font-family="Times,serif" font-size="14.00">comb</text>
<polygon fill="none" stroke="black" points="475,-49 475,-74 494,-74 494,-49 475,-49"/>
<text text-anchor="start" x="481" y="-57.8" font-family="Times,serif" font-size="14.00">3</text>
<polygon fill="none" stroke="black" points="431,-24 431,-49 494,-49 494,-24 431,-24"/>
<text text-anchor="start" x="436.5" y="-32.8" font-family="Arial Black" font-size="14.00"> Edges </text>
<polygon fill="none" stroke="black" points="431,1 431,-24 475,-24 475,1 431,1"/>
<text text-anchor="start" x="439" y="-7.8" font-family="Times,serif" font-size="14.00" fill="#000000">input</text>
<polygon fill="none" stroke="black" points="475,1 475,-24 494,-24 494,1 475,1"/>
<text text-anchor="start" x="481" y="-7.8" font-family="Times,serif" font-size="14.00">2</text>
</g>
</g>
</svg>
