<?xml version="1.0" encoding="UTF-8" standalone="no"?>
<!DOCTYPE svg PUBLIC "-//W3C//DTD SVG 1.1//EN"
 "http://www.w3.org/Graphics/SVG/1.1/DTD/svg11.dtd">
<!-- Generated by graphviz version 2.36.0 (20140111.2315)
 -->
<!-- Title: %3 Pages: 1 -->
<svg width="682pt" height="263pt"
 viewBox="0.00 0.00 682.00 263.00" xmlns="http://www.w3.org/2000/svg" xmlns:xlink="http://www.w3.org/1999/xlink">
<g id="graph0" class="graph" transform="scale(1 1) rotate(0) translate(4 259)">
<title>%3</title>
<polygon fill="white" stroke="none" points="-4,4 -4,-259 678,-259 678,4 -4,4"/>
<!-- FloraChina.OakGenus -->
<g id="node1" class="node"><title>FloraChina.OakGenus</title>
<polygon fill="#ccffcc" stroke="black" points="173,-228 35,-228 35,-192 173,-192 173,-228"/>
<text text-anchor="middle" x="104" y="-206.3" font-family="Times,serif" font-size="14.00">FloraChina.OakGenus</text>
</g>
<!-- FloraMexico.OakGenus -->
<g id="node4" class="node"><title>FloraMexico.OakGenus</title>
<polygon fill="#ffffcc" stroke="black" points="208.234,-94.5442 208.234,-109.456 147.175,-120 60.8249,-120 -0.233914,-109.456 -0.233914,-94.5442 60.8249,-84 147.175,-84 208.234,-94.5442"/>
<text text-anchor="middle" x="104" y="-98.3" font-family="Times,serif" font-size="14.00">FloraMexico.OakGenus</text>
</g>
<!-- FloraChina.OakGenus&#45;&gt;FloraMexico.OakGenus -->
<g id="edge1" class="edge"><title>FloraChina.OakGenus&#45;&gt;FloraMexico.OakGenus</title>
<path fill="none" stroke="#0000ff" stroke-dasharray="1,5" d="M104,-191.747C104,-167.878 104,-144.01 104,-120.141"/>
</g>
<!-- FloraMexico.MexicanOakSpecies1 -->
<g id="node5" class="node"><title>FloraMexico.MexicanOakSpecies1</title>
<polygon fill="#ffffcc" stroke="black" points="538.06,-121.544 538.06,-136.456 451.914,-147 330.086,-147 243.94,-136.456 243.94,-121.544 330.086,-111 451.914,-111 538.06,-121.544"/>
<text text-anchor="middle" x="391" y="-125.3" font-family="Times,serif" font-size="14.00">FloraMexico.MexicanOakSpecies1</text>
</g>
<!-- FloraChina.OakGenus&#45;&gt;FloraMexico.MexicanOakSpecies1 -->
<g id="edge3" class="edge"><title>FloraChina.OakGenus&#45;&gt;FloraMexico.MexicanOakSpecies1</title>
<path fill="none" stroke="#0000ff" stroke-dasharray="1,5" d="M145.365,-191.996C172.745,-180.365 210.006,-165.654 244,-156 261.482,-151.035 280.407,-146.758 298.656,-143.165"/>
</g>
<!-- FloraMexico.MexicanOakSpecies2 -->
<g id="node6" class="node"><title>FloraMexico.MexicanOakSpecies2</title>
<polygon fill="#ffffcc" stroke="black" points="538.06,-67.5442 538.06,-82.4558 451.914,-93 330.086,-93 243.94,-82.4558 243.94,-67.5442 330.086,-57 451.914,-57 538.06,-67.5442"/>
<text text-anchor="middle" x="391" y="-71.3" font-family="Times,serif" font-size="14.00">FloraMexico.MexicanOakSpecies2</text>
</g>
<!-- FloraChina.OakGenus&#45;&gt;FloraMexico.MexicanOakSpecies2 -->
<g id="edge4" class="edge"><title>FloraChina.OakGenus&#45;&gt;FloraMexico.MexicanOakSpecies2</title>
<path fill="none" stroke="#0000ff" stroke-dasharray="1,5" d="M127.903,-191.983C166.513,-161.64 240.706,-103.478 244,-102 257.288,-96.0387 271.822,-91.3936 286.406,-87.7741"/>
</g>
<!-- FloraChina.ChineseOakSpecies1 -->
<g id="node2" class="node"><title>FloraChina.ChineseOakSpecies1</title>
<polygon fill="#ccffcc" stroke="black" points="488.5,-201 293.5,-201 293.5,-165 488.5,-165 488.5,-201"/>
<text text-anchor="middle" x="391" y="-179.3" font-family="Times,serif" font-size="14.00">FloraChina.ChineseOakSpecies1</text>
</g>
<!-- FloraChina.ChineseOakSpecies1&#45;&gt;FloraChina.OakGenus -->
<g id="edge10" class="edge"><title>FloraChina.ChineseOakSpecies1&#45;&gt;FloraChina.OakGenus</title>
<path fill="none" stroke="#000000" d="M293.114,-192.179C257.431,-195.559 217.482,-199.344 183.608,-202.553"/>
<polygon fill="#000000" stroke="#000000" points="182.927,-199.102 173.301,-203.529 183.587,-206.071 182.927,-199.102"/>
</g>
<!-- FloraChina.ChineseOakSpecies2 -->
<g id="node3" class="node"><title>FloraChina.ChineseOakSpecies2</title>
<polygon fill="#ccffcc" stroke="black" points="488.5,-255 293.5,-255 293.5,-219 488.5,-219 488.5,-255"/>
<text text-anchor="middle" x="391" y="-233.3" font-family="Times,serif" font-size="14.00">FloraChina.ChineseOakSpecies2</text>
</g>
<!-- FloraChina.ChineseOakSpecies2&#45;&gt;FloraChina.OakGenus -->
<g id="edge8" class="edge"><title>FloraChina.ChineseOakSpecies2&#45;&gt;FloraChina.OakGenus</title>
<path fill="none" stroke="#000000" d="M293.114,-227.821C257.431,-224.441 217.482,-220.656 183.608,-217.447"/>
<polygon fill="#000000" stroke="#000000" points="183.587,-213.929 173.301,-216.471 182.927,-220.898 183.587,-213.929"/>
</g>
<!-- FloraChina.ChineseOakSpecies2&#45;&gt;FloraMexico.OakGenus -->
<g id="edge2" class="edge"><title>FloraChina.ChineseOakSpecies2&#45;&gt;FloraMexico.OakGenus</title>
<path fill="none" stroke="#0000ff" stroke-dasharray="1,5" d="M293.373,-225.879C276.484,-222.053 259.405,-216.911 244,-210 240.706,-208.522 166.513,-150.36 127.903,-120.017"/>
</g>
<!-- FloraChina.ChineseOakSpecies2&#45;&gt;FloraMexico.MexicanOakSpecies1 -->
<g id="edge5" class="edge"><title>FloraChina.ChineseOakSpecies2&#45;&gt;FloraMexico.MexicanOakSpecies1</title>
<path fill="none" stroke="#0000ff" stroke-dasharray="1,5" d="M488.625,-240.087C515.693,-235.407 541.588,-224.32 556,-201 564.412,-187.39 564.412,-178.61 556,-165 548.601,-153.028 538.176,-144.281 526.12,-137.968"/>
</g>
<!-- FloraChina.ChineseOakSpecies2&#45;&gt;FloraMexico.MexicanOakSpecies2 -->
<g id="edge6" class="edge"><title>FloraChina.ChineseOakSpecies2&#45;&gt;FloraMexico.MexicanOakSpecies2</title>
<path fill="none" stroke="#0000ff" stroke-dasharray="1,5" d="M488.625,-240.087C515.693,-235.407 541.588,-224.32 556,-201 577.029,-166.974 577.029,-145.026 556,-111 548.601,-99.0284 538.176,-90.2805 526.12,-83.9683"/>
</g>
<!-- FloraMexico.MexicanOakSpecies1&#45;&gt;FloraMexico.OakGenus -->
<g id="edge7" class="edge"><title>FloraMexico.MexicanOakSpecies1&#45;&gt;FloraMexico.OakGenus</title>
<path fill="none" stroke="#000000" d="M273.257,-117.94C252.252,-115.95 230.475,-113.887 209.834,-111.932"/>
<polygon fill="#000000" stroke="#000000" points="210.086,-108.44 199.8,-110.981 209.426,-115.409 210.086,-108.44"/>
</g>
<!-- FloraMexico.MexicanOakSpecies2&#45;&gt;FloraMexico.OakGenus -->
<g id="edge9" class="edge"><title>FloraMexico.MexicanOakSpecies2&#45;&gt;FloraMexico.OakGenus</title>
<path fill="none" stroke="#000000" d="M273.257,-86.0598C252.252,-88.0498 230.475,-90.1129 209.834,-92.0684"/>
<polygon fill="#000000" stroke="#000000" points="209.426,-88.5913 199.8,-93.0189 210.086,-95.5601 209.426,-88.5913"/>
</g>
<!-- Legend -->
<g id="node7" class="node"><title>Legend</title>
<polygon fill="white" stroke="black" points="673.5,-150.5 574.5,-150.5 574.5,0.5 673.5,0.5 673.5,-150.5"/>
<polygon fill="none" stroke="black" points="575,-124 575,-150 674,-150 674,-124 575,-124"/>
<text text-anchor="start" x="600" y="-133.3" font-family="Arial Black" font-size="14.00"> Nodes</text>
<polygon fill="#ccffcc" stroke="none" points="575,-99 575,-124 657,-124 657,-99 575,-99"/>
<polygon fill="none" stroke="black" points="575,-99 575,-124 657,-124 657,-99 575,-99"/>
<text text-anchor="start" x="585.5" y="-107.8" font-family="Times,serif" font-size="14.00">FloraChina</text>
<polygon fill="none" stroke="black" points="657,-99 657,-124 674,-124 674,-99 657,-99"/>
<text text-anchor="start" x="662" y="-107.8" font-family="Times,serif" font-size="14.00">3</text>
<polygon fill="#ffffcc" stroke="none" points="575,-74 575,-99 657,-99 657,-74 575,-74"/>
<polygon fill="none" stroke="black" points="575,-74 575,-99 657,-99 657,-74 575,-74"/>
<text text-anchor="start" x="580.5" y="-82.8" font-family="Times,serif" font-size="14.00">FloraMexico</text>
<polygon fill="none" stroke="black" points="657,-74 657,-99 674,-99 674,-74 657,-74"/>
<text text-anchor="start" x="662" y="-82.8" font-family="Times,serif" font-size="14.00">3</text>
<polygon fill="none" stroke="black" points="575,-49 575,-74 674,-74 674,-49 575,-49"/>
<text text-anchor="start" x="598.5" y="-57.8" font-family="Arial Black" font-size="14.00"> Edges </text>
<polygon fill="none" stroke="black" points="575,-24 575,-49 657,-49 657,-24 575,-24"/>
<text text-anchor="start" x="593" y="-32.8" font-family="Times,serif" font-size="14.00" fill="#0000ff">overlaps</text>
<polygon fill="none" stroke="black" points="657,-24 657,-49 674,-49 674,-24 657,-24"/>
<text text-anchor="start" x="662" y="-32.8" font-family="Times,serif" font-size="14.00">6</text>
<polygon fill="none" stroke="black" points="575,1 575,-24 657,-24 657,1 575,1"/>
<text text-anchor="start" x="602" y="-7.8" font-family="Times,serif" font-size="14.00" fill="#000000">input</text>
<polygon fill="none" stroke="black" points="657,1 657,-24 674,-24 674,1 657,1"/>
<text text-anchor="start" x="662" y="-7.8" font-family="Times,serif" font-size="14.00">4</text>
</g>
</g>
</svg>
