<?xml version="1.0" encoding="UTF-8" standalone="no"?>
<!DOCTYPE svg PUBLIC "-//W3C//DTD SVG 1.1//EN"
 "http://www.w3.org/Graphics/SVG/1.1/DTD/svg11.dtd">
<!-- Generated by graphviz version 2.36.0 (20140111.2315)
 -->
<!-- Title: %3 Pages: 1 -->
<svg width="1216pt" height="186pt"
 viewBox="0.00 0.00 1216.00 186.00" xmlns="http://www.w3.org/2000/svg" xmlns:xlink="http://www.w3.org/1999/xlink">
<g id="graph0" class="graph" transform="scale(1 1) rotate(0) translate(4 182)">
<title>%3</title>
<polygon fill="white" stroke="none" points="-4,4 -4,-182 1212,-182 1212,4 -4,4"/>
<!-- 1995.Amauris_damocles -->
<g id="node1" class="node"><title>1995.Amauris_damocles</title>
<polygon fill="#ffffcc" stroke="black" points="1207.77,-61.5442 1207.77,-76.4558 1144.64,-87 1055.36,-87 992.231,-76.4558 992.231,-61.5442 1055.36,-51 1144.64,-51 1207.77,-61.5442"/>
<text text-anchor="middle" x="1100" y="-65.3" font-family="Times,serif" font-size="14.00">1995.Amauris_damocles</text>
</g>
<!-- 1995.Amauris_damocles_subsp_makuyensis -->
<g id="node2" class="node"><title>1995.Amauris_damocles_subsp_makuyensis</title>
<polygon fill="#ffffcc" stroke="black" points="953.13,-61.5442 953.13,-76.4558 845.269,-87 692.731,-87 584.87,-76.4558 584.87,-61.5442 692.731,-51 845.269,-51 953.13,-61.5442"/>
<text text-anchor="middle" x="769" y="-65.3" font-family="Times,serif" font-size="14.00">1995.Amauris_damocles_subsp_makuyensis</text>
</g>
<!-- 1995.Amauris_damocles_subsp_makuyensis&#45;&gt;1995.Amauris_damocles -->
<g id="edge1" class="edge"><title>1995.Amauris_damocles_subsp_makuyensis&#45;&gt;1995.Amauris_damocles</title>
<path fill="none" stroke="#000000" d="M953.259,-69C963.011,-69 972.674,-69 982.108,-69"/>
<polygon fill="#000000" stroke="#000000" points="982.249,-72.5001 992.249,-69 982.249,-65.5001 982.249,-72.5001"/>
</g>
<!-- 1995.Amauris_damocles_subsp_damocles -->
<g id="node3" class="node"><title>1995.Amauris_damocles_subsp_damocles</title>
<polygon fill="#ffffcc" stroke="black" points="944.339,-15.5442 944.339,-30.4558 841.628,-41 696.372,-41 593.661,-30.4558 593.661,-15.5442 696.372,-5 841.628,-5 944.339,-15.5442"/>
<text text-anchor="middle" x="769" y="-19.3" font-family="Times,serif" font-size="14.00">1995.Amauris_damocles_subsp_damocles</text>
</g>
<!-- 1995.Amauris_damocles_subsp_damocles&#45;&gt;1995.Amauris_damocles -->
<g id="edge3" class="edge"><title>1995.Amauris_damocles_subsp_damocles&#45;&gt;1995.Amauris_damocles</title>
<path fill="none" stroke="#000000" d="M887.893,-36.2967C909.887,-39.004 932.66,-41.9598 954,-45 973.665,-47.8016 994.779,-51.1187 1014.64,-54.3786"/>
<polygon fill="#000000" stroke="#000000" points="1014.15,-57.8451 1024.59,-56.0233 1015.29,-50.9388 1014.15,-57.8451"/>
</g>
<!-- 1995.Amauris_damocles_subsp_hyalites -->
<g id="node4" class="node"><title>1995.Amauris_damocles_subsp_hyalites</title>
<polygon fill="#ffffcc" stroke="black" points="937.27,-107.544 937.27,-122.456 838.7,-133 699.3,-133 600.73,-122.456 600.73,-107.544 699.3,-97 838.7,-97 937.27,-107.544"/>
<text text-anchor="middle" x="769" y="-111.3" font-family="Times,serif" font-size="14.00">1995.Amauris_damocles_subsp_hyalites</text>
</g>
<!-- 1995.Amauris_damocles_subsp_hyalites&#45;&gt;1995.Amauris_damocles -->
<g id="edge2" class="edge"><title>1995.Amauris_damocles_subsp_hyalites&#45;&gt;1995.Amauris_damocles</title>
<path fill="none" stroke="#000000" d="M885.925,-101.945C908.526,-99.1724 932.023,-96.131 954,-93 973.665,-90.1984 994.779,-86.8813 1014.64,-83.6214"/>
<polygon fill="#000000" stroke="#000000" points="1015.29,-87.0612 1024.59,-81.9767 1014.15,-80.1549 1015.29,-87.0612"/>
</g>
<!-- 1997.Amauris_hyalites_subsp_hyalites -->
<g id="node5" class="node"><title>1997.Amauris_hyalites_subsp_hyalites</title>
<polygon fill="#ccffcc" stroke="black" points="519,-135 289,-135 289,-99 519,-99 519,-135"/>
<text text-anchor="middle" x="404" y="-113.3" font-family="Times,serif" font-size="14.00">1997.Amauris_hyalites_subsp_hyalites</text>
</g>
<!-- 1997.Amauris_hyalites_subsp_hyalites&#45;&gt;1995.Amauris_damocles_subsp_hyalites -->
<g id="edge6" class="edge"><title>1997.Amauris_hyalites_subsp_hyalites&#45;&gt;1995.Amauris_damocles_subsp_hyalites</title>
<path fill="none" stroke="#aa00ff" stroke-width="3" stroke-dasharray="1,5" d="M519.357,-116.37C542.097,-116.245 566.474,-116.11 590.75,-115.977"/>
<polygon fill="#aa00ff" stroke="#aa00ff" stroke-width="3" points="590.793,-119.476 600.774,-115.921 590.755,-112.477 590.793,-119.476"/>
<text text-anchor="middle" x="557" y="-119.8" font-family="Times,serif" font-size="14.00">&lt;</text>
</g>
<!-- 1997.Amauris_hyalites_subsp_makuyensis -->
<g id="node6" class="node"><title>1997.Amauris_hyalites_subsp_makuyensis</title>
<polygon fill="#ccffcc" stroke="black" points="530,-89 278,-89 278,-53 530,-53 530,-89"/>
<text text-anchor="middle" x="404" y="-67.3" font-family="Times,serif" font-size="14.00">1997.Amauris_hyalites_subsp_makuyensis</text>
</g>
<!-- 1997.Amauris_hyalites_subsp_makuyensis&#45;&gt;1995.Amauris_damocles_subsp_makuyensis -->
<g id="edge8" class="edge"><title>1997.Amauris_hyalites_subsp_makuyensis&#45;&gt;1995.Amauris_damocles_subsp_makuyensis</title>
<path fill="none" stroke="#aa00ff" stroke-width="3" stroke-dasharray="1,5" d="M530.178,-70.3103C544.503,-70.2314 559.347,-70.1496 574.303,-70.0672"/>
<polygon fill="#aa00ff" stroke="#aa00ff" stroke-width="3" points="574.689,-73.5652 584.669,-70.0101 574.65,-66.5653 574.689,-73.5652"/>
<text text-anchor="middle" x="557" y="-74.8" font-family="Times,serif" font-size="14.00">==</text>
</g>
<!-- 1997.Amauris_hyalites -->
<g id="node7" class="node"><title>1997.Amauris_hyalites</title>
<polygon fill="#ccffcc" stroke="black" points="239.5,-109 96.5,-109 96.5,-73 239.5,-73 239.5,-109"/>
<text text-anchor="middle" x="168" y="-87.3" font-family="Times,serif" font-size="14.00">1997.Amauris_hyalites</text>
</g>
<!-- 1997.Amauris_hyalites&#45;&gt;1997.Amauris_hyalites_subsp_hyalites -->
<g id="edge5" class="edge"><title>1997.Amauris_hyalites&#45;&gt;1997.Amauris_hyalites_subsp_hyalites</title>
<path fill="none" stroke="#000000" d="M249.566,-99.9518C262.273,-101.364 275.617,-102.846 288.911,-104.323"/>
<polygon fill="#000000" stroke="#000000" points="249.85,-96.4619 239.525,-98.8361 249.077,-103.419 249.85,-96.4619"/>
</g>
<!-- 1997.Amauris_hyalites&#45;&gt;1997.Amauris_hyalites_subsp_makuyensis -->
<g id="edge4" class="edge"><title>1997.Amauris_hyalites&#45;&gt;1997.Amauris_hyalites_subsp_makuyensis</title>
<path fill="none" stroke="#000000" d="M249.625,-84.109C258.704,-83.333 268.108,-82.5292 277.586,-81.7192"/>
<polygon fill="#000000" stroke="#000000" points="249.191,-80.6332 239.525,-84.9722 249.787,-87.6078 249.191,-80.6332"/>
</g>
<!-- 1997.Amauris_damocles -->
<g id="node8" class="node"><title>1997.Amauris_damocles</title>
<polygon fill="#ccffcc" stroke="black" points="480.5,-36 327.5,-36 327.5,-0 480.5,-0 480.5,-36"/>
<text text-anchor="middle" x="404" y="-14.3" font-family="Times,serif" font-size="14.00">1997.Amauris_damocles</text>
</g>
<!-- 1997.Amauris_damocles&#45;&gt;1995.Amauris_damocles_subsp_damocles -->
<g id="edge7" class="edge"><title>1997.Amauris_damocles&#45;&gt;1995.Amauris_damocles_subsp_damocles</title>
<path fill="none" stroke="#aa00ff" stroke-width="3" stroke-dasharray="1,5" d="M480.655,-19.0421C510.853,-19.458 547.06,-19.9568 583.432,-20.4577"/>
<polygon fill="#aa00ff" stroke="#aa00ff" stroke-width="3" points="583.643,-23.9609 593.69,-20.599 583.739,-16.9615 583.643,-23.9609"/>
<text text-anchor="middle" x="557" y="-24.8" font-family="Times,serif" font-size="14.00">==</text>
</g>
<!-- Legend -->
<g id="node9" class="node"><title>Legend</title>
<polygon fill="white" stroke="black" points="77.5,-179 0.5,-179 0.5,-3 77.5,-3 77.5,-179"/>
<polygon fill="none" stroke="black" points="1,-153 1,-179 78,-179 78,-153 1,-153"/>
<text text-anchor="start" x="15" y="-162.3" font-family="Arial Black" font-size="14.00"> Nodes</text>
<polygon fill="#ffffcc" stroke="none" points="1,-128 1,-153 61,-153 61,-128 1,-128"/>
<polygon fill="none" stroke="black" points="1,-128 1,-153 61,-153 61,-128 1,-128"/>
<text text-anchor="start" x="17" y="-136.8" font-family="Times,serif" font-size="14.00">1995</text>
<polygon fill="none" stroke="black" points="61,-128 61,-153 78,-153 78,-128 61,-128"/>
<text text-anchor="start" x="66" y="-136.8" font-family="Times,serif" font-size="14.00">4</text>
<polygon fill="#ccffcc" stroke="none" points="1,-103 1,-128 61,-128 61,-103 1,-103"/>
<polygon fill="none" stroke="black" points="1,-103 1,-128 61,-128 61,-103 1,-103"/>
<text text-anchor="start" x="17" y="-111.8" font-family="Times,serif" font-size="14.00">1997</text>
<polygon fill="none" stroke="black" points="61,-103 61,-128 78,-128 78,-103 61,-103"/>
<text text-anchor="start" x="66" y="-111.8" font-family="Times,serif" font-size="14.00">4</text>
<polygon fill="none" stroke="black" points="1,-78 1,-103 78,-103 78,-78 1,-78"/>
<text text-anchor="start" x="13.5" y="-86.8" font-family="Arial Black" font-size="14.00"> Edges </text>
<polygon fill="none" stroke="black" points="1,-53 1,-78 61,-78 61,-53 1,-53"/>
<text text-anchor="start" x="6.5" y="-61.8" font-family="Times,serif" font-size="14.00" fill="#000000">isa_1995</text>
<polygon fill="none" stroke="black" points="61,-53 61,-78 78,-78 78,-53 61,-53"/>
<text text-anchor="start" x="66" y="-61.8" font-family="Times,serif" font-size="14.00">3</text>
<polygon fill="none" stroke="black" points="1,-28 1,-53 61,-53 61,-28 1,-28"/>
<text text-anchor="start" x="6.5" y="-36.8" font-family="Times,serif" font-size="14.00" fill="#000000">isa_1997</text>
<polygon fill="none" stroke="black" points="61,-28 61,-53 78,-53 78,-28 61,-28"/>
<text text-anchor="start" x="66" y="-36.8" font-family="Times,serif" font-size="14.00">2</text>
<polygon fill="none" stroke="black" points="1,-3 1,-28 61,-28 61,-3 1,-3"/>
<text text-anchor="start" x="20" y="-11.8" font-family="Times,serif" font-size="14.00" fill="#aa00ff">Art.</text>
<polygon fill="none" stroke="black" points="61,-3 61,-28 78,-28 78,-3 61,-3"/>
<text text-anchor="start" x="66" y="-11.8" font-family="Times,serif" font-size="14.00">3</text>
</g>
</g>
</svg>
