<?xml version="1.0" encoding="UTF-8" standalone="no"?>
<!DOCTYPE svg PUBLIC "-//W3C//DTD SVG 1.1//EN"
 "http://www.w3.org/Graphics/SVG/1.1/DTD/svg11.dtd">
<!-- Generated by graphviz version 2.36.0 (20140111.2315)
 -->
<!-- Title: %3 Pages: 1 -->
<svg width="762pt" height="566pt"
 viewBox="0.00 0.00 762.00 566.00" xmlns="http://www.w3.org/2000/svg" xmlns:xlink="http://www.w3.org/1999/xlink">
<g id="graph0" class="graph" transform="scale(1 1) rotate(0) translate(4 562)">
<title>%3</title>
<polygon fill="white" stroke="none" points="-4,4 -4,-562 758,-562 758,4 -4,4"/>
<!-- None -->
<g id="node1" class="node"><title>None</title>
<polygon fill="#ffffff" stroke="black" points="361,-198 307,-198 307,-162 361,-162 361,-198"/>
<text text-anchor="middle" x="334" y="-176.3" font-family="Times,serif" font-size="14.00">None</text>
</g>
<!-- 0 -->
<g id="node2" class="node"><title>0</title>
<polygon fill="#ffffff" stroke="black" points="217,-270 163,-270 163,-234 217,-234 217,-270"/>
<text text-anchor="middle" x="190" y="-248.3" font-family="Times,serif" font-size="14.00">0</text>
</g>
<!-- None&#45;&gt;0 -->
<g id="edge1" class="edge"><title>None&#45;&gt;0</title>
<path fill="none" stroke="black" d="M306.915,-194.166C281.333,-206.602 243.155,-225.161 217.453,-237.655"/>
</g>
<!-- 1 -->
<g id="node3" class="node"><title>1</title>
<polygon fill="#ffffff" stroke="black" points="289,-270 235,-270 235,-234 289,-234 289,-270"/>
<text text-anchor="middle" x="262" y="-248.3" font-family="Times,serif" font-size="14.00">1</text>
</g>
<!-- None&#45;&gt;1 -->
<g id="edge2" class="edge"><title>None&#45;&gt;1</title>
<path fill="none" stroke="black" d="M316.202,-198.303C305.042,-209.154 290.714,-223.083 279.593,-233.896"/>
</g>
<!-- 2 -->
<g id="node5" class="node"><title>2</title>
<polygon fill="#ffffff" stroke="black" points="361,-270 307,-270 307,-234 361,-234 361,-270"/>
<text text-anchor="middle" x="334" y="-248.3" font-family="Times,serif" font-size="14.00">2</text>
</g>
<!-- None&#45;&gt;2 -->
<g id="edge3" class="edge"><title>None&#45;&gt;2</title>
<path fill="none" stroke="black" d="M334,-198.303C334,-209.154 334,-223.083 334,-233.896"/>
</g>
<!-- 3 -->
<g id="node9" class="node"><title>3</title>
<polygon fill="#00ff00" stroke="black" points="433,-244.544 433,-259.456 417.184,-270 394.816,-270 379,-259.456 379,-244.544 394.816,-234 417.184,-234 433,-244.544"/>
<text text-anchor="middle" x="406" y="-248.3" font-family="Times,serif" font-size="14.00">3</text>
</g>
<!-- None&#45;&gt;3 -->
<g id="edge4" class="edge"><title>None&#45;&gt;3</title>
<path fill="none" stroke="black" d="M351.798,-198.303C363.791,-209.963 379.442,-225.179 390.841,-236.262"/>
</g>
<!-- 4 -->
<g id="node17" class="node"><title>4</title>
<polygon fill="#00ff00" stroke="black" points="577,-244.544 577,-259.456 561.184,-270 538.816,-270 523,-259.456 523,-244.544 538.816,-234 561.184,-234 577,-244.544"/>
<text text-anchor="middle" x="550" y="-248.3" font-family="Times,serif" font-size="14.00">4</text>
</g>
<!-- None&#45;&gt;4 -->
<g id="edge5" class="edge"><title>None&#45;&gt;4</title>
<path fill="none" stroke="black" d="M361.357,-189.866C403.7,-203.588 484.467,-229.763 525.201,-242.963"/>
</g>
<!-- 0,1 -->
<g id="node4" class="node"><title>0,1</title>
<polygon fill="#ffffff" stroke="black" points="73,-342 19,-342 19,-306 73,-306 73,-342"/>
<text text-anchor="middle" x="46" y="-320.3" font-family="Times,serif" font-size="14.00">0,1</text>
</g>
<!-- 0&#45;&gt;0,1 -->
<g id="edge6" class="edge"><title>0&#45;&gt;0,1</title>
<path fill="none" stroke="black" d="M162.915,-266.166C137.333,-278.602 99.1554,-297.161 73.4534,-309.655"/>
</g>
<!-- 0,2 -->
<g id="node6" class="node"><title>0,2</title>
<polygon fill="#ffffff" stroke="black" points="145,-342 91,-342 91,-306 145,-306 145,-342"/>
<text text-anchor="middle" x="118" y="-320.3" font-family="Times,serif" font-size="14.00">0,2</text>
</g>
<!-- 0&#45;&gt;0,2 -->
<g id="edge7" class="edge"><title>0&#45;&gt;0,2</title>
<path fill="none" stroke="black" d="M172.202,-270.303C161.042,-281.154 146.714,-295.083 135.593,-305.896"/>
</g>
<!-- 0,3 -->
<g id="node10" class="node"><title>0,3</title>
<polygon fill="#ffffff" stroke="black" points="217,-342 163,-342 163,-306 217,-306 217,-342"/>
<text text-anchor="middle" x="190" y="-320.3" font-family="Times,serif" font-size="14.00">0,3</text>
</g>
<!-- 0&#45;&gt;0,3 -->
<g id="edge8" class="edge"><title>0&#45;&gt;0,3</title>
<path fill="none" stroke="black" d="M190,-270.303C190,-281.154 190,-295.083 190,-305.896"/>
</g>
<!-- 0,4 -->
<g id="node18" class="node"><title>0,4</title>
<polygon fill="#ffffff" stroke="black" points="505,-342 451,-342 451,-306 505,-306 505,-342"/>
<text text-anchor="middle" x="478" y="-320.3" font-family="Times,serif" font-size="14.00">0,4</text>
</g>
<!-- 0&#45;&gt;0,4 -->
<g id="edge9" class="edge"><title>0&#45;&gt;0,4</title>
<path fill="none" stroke="black" d="M217.204,-266.798C220.129,-267.994 223.097,-269.092 226,-270 318.886,-299.055 349.114,-276.945 442,-306 444.903,-306.908 447.871,-308.006 450.796,-309.202"/>
</g>
<!-- 1&#45;&gt;0,1 -->
<g id="edge10" class="edge"><title>1&#45;&gt;0,1</title>
<path fill="none" stroke="black" d="M234.717,-266.561C231.807,-267.803 228.864,-268.977 226,-270 163.875,-292.191 144.125,-283.809 82,-306 79.136,-307.023 76.1931,-308.197 73.2829,-309.439"/>
</g>
<!-- 1,2 -->
<g id="node7" class="node"><title>1,2</title>
<polygon fill="#ffffff" stroke="black" points="289,-342 235,-342 235,-306 289,-306 289,-342"/>
<text text-anchor="middle" x="262" y="-320.3" font-family="Times,serif" font-size="14.00">1,2</text>
</g>
<!-- 1&#45;&gt;1,2 -->
<g id="edge11" class="edge"><title>1&#45;&gt;1,2</title>
<path fill="none" stroke="black" d="M262,-270.303C262,-281.154 262,-295.083 262,-305.896"/>
</g>
<!-- 1,3 -->
<g id="node11" class="node"><title>1,3</title>
<polygon fill="#ffffff" stroke="black" points="361,-342 307,-342 307,-306 361,-306 361,-342"/>
<text text-anchor="middle" x="334" y="-320.3" font-family="Times,serif" font-size="14.00">1,3</text>
</g>
<!-- 1&#45;&gt;1,3 -->
<g id="edge12" class="edge"><title>1&#45;&gt;1,3</title>
<path fill="none" stroke="black" d="M279.798,-270.303C290.958,-281.154 305.286,-295.083 316.407,-305.896"/>
</g>
<!-- 1,4 -->
<g id="node19" class="node"><title>1,4</title>
<polygon fill="#ffffff" stroke="black" points="577,-342 523,-342 523,-306 577,-306 577,-342"/>
<text text-anchor="middle" x="550" y="-320.3" font-family="Times,serif" font-size="14.00">1,4</text>
</g>
<!-- 1&#45;&gt;1,4 -->
<g id="edge13" class="edge"><title>1&#45;&gt;1,4</title>
<path fill="none" stroke="black" d="M289.204,-266.798C292.129,-267.994 295.097,-269.092 298,-270 390.886,-299.055 421.114,-276.945 514,-306 516.903,-306.908 519.871,-308.006 522.796,-309.202"/>
</g>
<!-- 0,1,2 -->
<g id="node8" class="node"><title>0,1,2</title>
<polygon fill="#00ffcc" stroke="black" points="40,-414 -0.385919,-396 40,-378 80.3859,-396 40,-414"/>
<text text-anchor="middle" x="40" y="-392.3" font-family="Times,serif" font-size="14.00">0,1,2</text>
</g>
<!-- 0,1&#45;&gt;0,1,2 -->
<g id="edge14" class="edge"><title>0,1&#45;&gt;0,1,2</title>
<path fill="none" stroke="black" d="M44.5169,-342.303C43.5729,-353.316 42.3572,-367.5 41.4248,-378.378"/>
</g>
<!-- 0,1,3 -->
<g id="node12" class="node"><title>0,1,3</title>
<polygon fill="#ffffff" stroke="black" points="152,-414 98,-414 98,-378 152,-378 152,-414"/>
<text text-anchor="middle" x="125" y="-392.3" font-family="Times,serif" font-size="14.00">0,1,3</text>
</g>
<!-- 0,1&#45;&gt;0,1,3 -->
<g id="edge15" class="edge"><title>0,1&#45;&gt;0,1,3</title>
<path fill="none" stroke="black" d="M65.5281,-342.303C77.7735,-353.154 93.494,-367.083 105.697,-377.896"/>
</g>
<!-- 0,1,4 -->
<g id="node20" class="node"><title>0,1,4</title>
<polygon fill="#00ff00" stroke="black" points="375.907,-388.544 375.907,-403.456 357.802,-414 332.198,-414 314.093,-403.456 314.093,-388.544 332.198,-378 357.802,-378 375.907,-388.544"/>
<text text-anchor="middle" x="345" y="-392.3" font-family="Times,serif" font-size="14.00">0,1,4</text>
</g>
<!-- 0,1&#45;&gt;0,1,4 -->
<g id="edge16" class="edge"><title>0,1&#45;&gt;0,1,4</title>
<path fill="none" stroke="black" d="M73.1989,-338.813C76.1254,-340.006 79.0952,-341.099 82,-342 177.892,-371.728 208.542,-350.163 305,-378 310.51,-379.59 316.274,-381.734 321.655,-383.964"/>
</g>
<!-- 2&#45;&gt;0,2 -->
<g id="edge17" class="edge"><title>2&#45;&gt;0,2</title>
<path fill="none" stroke="black" d="M306.717,-266.561C303.807,-267.803 300.864,-268.977 298,-270 235.875,-292.191 216.125,-283.809 154,-306 151.136,-307.023 148.193,-308.197 145.283,-309.439"/>
</g>
<!-- 2&#45;&gt;1,2 -->
<g id="edge18" class="edge"><title>2&#45;&gt;1,2</title>
<path fill="none" stroke="black" d="M316.202,-270.303C305.042,-281.154 290.714,-295.083 279.593,-305.896"/>
</g>
<!-- 2,3 -->
<g id="node13" class="node"><title>2,3</title>
<polygon fill="#ffffff" stroke="black" points="433,-342 379,-342 379,-306 433,-306 433,-342"/>
<text text-anchor="middle" x="406" y="-320.3" font-family="Times,serif" font-size="14.00">2,3</text>
</g>
<!-- 2&#45;&gt;2,3 -->
<g id="edge19" class="edge"><title>2&#45;&gt;2,3</title>
<path fill="none" stroke="black" d="M351.798,-270.303C362.958,-281.154 377.286,-295.083 388.407,-305.896"/>
</g>
<!-- 2,4 -->
<g id="node21" class="node"><title>2,4</title>
<polygon fill="#ffffff" stroke="black" points="649,-342 595,-342 595,-306 649,-306 649,-342"/>
<text text-anchor="middle" x="622" y="-320.3" font-family="Times,serif" font-size="14.00">2,4</text>
</g>
<!-- 2&#45;&gt;2,4 -->
<g id="edge20" class="edge"><title>2&#45;&gt;2,4</title>
<path fill="none" stroke="black" d="M361.204,-266.798C364.129,-267.994 367.097,-269.092 370,-270 462.886,-299.055 493.114,-276.945 586,-306 588.903,-306.908 591.871,-308.006 594.796,-309.202"/>
</g>
<!-- 0,2&#45;&gt;0,1,2 -->
<g id="edge21" class="edge"><title>0,2&#45;&gt;0,1,2</title>
<path fill="none" stroke="black" d="M98.7191,-342.303C84.4633,-355.097 65.4372,-372.172 52.9595,-383.37"/>
</g>
<!-- 0,2,3 -->
<g id="node14" class="node"><title>0,2,3</title>
<polygon fill="#ffffff" stroke="black" points="224,-414 170,-414 170,-378 224,-378 224,-414"/>
<text text-anchor="middle" x="197" y="-392.3" font-family="Times,serif" font-size="14.00">0,2,3</text>
</g>
<!-- 0,2&#45;&gt;0,2,3 -->
<g id="edge22" class="edge"><title>0,2&#45;&gt;0,2,3</title>
<path fill="none" stroke="black" d="M137.528,-342.303C149.773,-353.154 165.494,-367.083 177.697,-377.896"/>
</g>
<!-- 0,2,4 -->
<g id="node22" class="node"><title>0,2,4</title>
<polygon fill="#ffffff" stroke="black" points="448,-414 394,-414 394,-378 448,-378 448,-414"/>
<text text-anchor="middle" x="421" y="-392.3" font-family="Times,serif" font-size="14.00">0,2,4</text>
</g>
<!-- 0,2&#45;&gt;0,2,4 -->
<g id="edge23" class="edge"><title>0,2&#45;&gt;0,2,4</title>
<path fill="none" stroke="black" d="M145.194,-338.828C148.122,-340.018 151.093,-341.106 154,-342 252.9,-372.401 284.942,-348.118 384,-378 387.249,-378.98 390.58,-380.19 393.848,-381.51"/>
</g>
<!-- 1,2&#45;&gt;0,1,2 -->
<g id="edge24" class="edge"><title>1,2&#45;&gt;0,1,2</title>
<path fill="none" stroke="black" d="M234.704,-338.526C231.797,-339.775 228.858,-340.96 226,-342 166.841,-363.533 149.228,-359.669 89,-378 79.8689,-380.779 69.8986,-384.171 61.3495,-387.193"/>
</g>
<!-- 1,2,3 -->
<g id="node15" class="node"><title>1,2,3</title>
<polygon fill="#ffffff" stroke="black" points="296,-414 242,-414 242,-378 296,-378 296,-414"/>
<text text-anchor="middle" x="269" y="-392.3" font-family="Times,serif" font-size="14.00">1,2,3</text>
</g>
<!-- 1,2&#45;&gt;1,2,3 -->
<g id="edge25" class="edge"><title>1,2&#45;&gt;1,2,3</title>
<path fill="none" stroke="black" d="M263.73,-342.303C264.815,-353.154 266.208,-367.083 267.29,-377.896"/>
</g>
<!-- 1,2,4 -->
<g id="node23" class="node"><title>1,2,4</title>
<polygon fill="#ffffff" stroke="black" points="600,-414 546,-414 546,-378 600,-378 600,-414"/>
<text text-anchor="middle" x="573" y="-392.3" font-family="Times,serif" font-size="14.00">1,2,4</text>
</g>
<!-- 1,2&#45;&gt;1,2,4 -->
<g id="edge26" class="edge"><title>1,2&#45;&gt;1,2,4</title>
<path fill="none" stroke="black" d="M289.19,-338.843C292.118,-340.03 295.091,-341.114 298,-342 400.339,-373.17 433.499,-347.367 536,-378 539.251,-378.972 542.584,-380.177 545.853,-381.493"/>
</g>
<!-- 0,1,2,3 -->
<g id="node16" class="node"><title>0,1,2,3</title>
<polygon fill="#00ff00" stroke="black" points="224.5,-486 169.5,-486 169.5,-450 224.5,-450 224.5,-486"/>
<text text-anchor="middle" x="197" y="-464.3" font-family="Times,serif" font-size="14.00">0,1,2,3</text>
</g>
<!-- 0,1,2&#45;&gt;0,1,2,3 -->
<g id="edge27" class="edge"><title>0,1,2&#45;&gt;0,1,2,3</title>
<path fill="none" stroke="black" d="M59.2513,-405.583C86.9274,-417.923 138.094,-440.736 169.675,-454.817"/>
</g>
<!-- 0,1,2,4 -->
<g id="node24" class="node"><title>0,1,2,4</title>
<polygon fill="#00ff00" stroke="black" points="375.5,-486 320.5,-486 320.5,-450 375.5,-450 375.5,-486"/>
<text text-anchor="middle" x="348" y="-464.3" font-family="Times,serif" font-size="14.00">0,1,2,4</text>
</g>
<!-- 0,1,2&#45;&gt;0,1,2,4 -->
<g id="edge28" class="edge"><title>0,1,2&#45;&gt;0,1,2,4</title>
<path fill="none" stroke="black" d="M60.7924,-404.895C69.4359,-407.998 79.6222,-411.426 89,-414 172.209,-436.84 272.885,-454.717 320.498,-462.603"/>
</g>
<!-- 3&#45;&gt;0,3 -->
<g id="edge29" class="edge"><title>3&#45;&gt;0,3</title>
<path fill="none" stroke="black" d="M384.972,-263.774C380.129,-266.017 374.947,-268.233 370,-270 307.875,-292.191 288.125,-283.809 226,-306 223.136,-307.023 220.193,-308.197 217.283,-309.439"/>
</g>
<!-- 3&#45;&gt;1,3 -->
<g id="edge30" class="edge"><title>3&#45;&gt;1,3</title>
<path fill="none" stroke="black" d="M390.731,-267.845C379.255,-279.002 363.516,-294.304 351.527,-305.96"/>
</g>
<!-- 3&#45;&gt;2,3 -->
<g id="edge31" class="edge"><title>3&#45;&gt;2,3</title>
<path fill="none" stroke="black" d="M406,-270.303C406,-281.154 406,-295.083 406,-305.896"/>
</g>
<!-- 3,4 -->
<g id="node25" class="node"><title>3,4</title>
<polygon fill="#ffffff" stroke="black" points="721,-342 667,-342 667,-306 721,-306 721,-342"/>
<text text-anchor="middle" x="694" y="-320.3" font-family="Times,serif" font-size="14.00">3,4</text>
</g>
<!-- 3&#45;&gt;3,4 -->
<g id="edge32" class="edge"><title>3&#45;&gt;3,4</title>
<path fill="none" stroke="black" d="M433.334,-257.912C489.531,-268.148 616.258,-291.971 658,-306 660.883,-306.969 663.838,-308.107 666.756,-309.327"/>
</g>
<!-- 0,3&#45;&gt;0,1,3 -->
<g id="edge33" class="edge"><title>0,3&#45;&gt;0,1,3</title>
<path fill="none" stroke="black" d="M173.933,-342.303C163.857,-353.154 150.923,-367.083 140.883,-377.896"/>
</g>
<!-- 0,3&#45;&gt;0,2,3 -->
<g id="edge34" class="edge"><title>0,3&#45;&gt;0,2,3</title>
<path fill="none" stroke="black" d="M191.73,-342.303C192.815,-353.154 194.208,-367.083 195.29,-377.896"/>
</g>
<!-- 0,3,4 -->
<g id="node26" class="node"><title>0,3,4</title>
<polygon fill="#00ff00" stroke="black" points="527.907,-388.544 527.907,-403.456 509.802,-414 484.198,-414 466.093,-403.456 466.093,-388.544 484.198,-378 509.802,-378 527.907,-388.544"/>
<text text-anchor="middle" x="497" y="-392.3" font-family="Times,serif" font-size="14.00">0,3,4</text>
</g>
<!-- 0,3&#45;&gt;0,3,4 -->
<g id="edge35" class="edge"><title>0,3&#45;&gt;0,3,4</title>
<path fill="none" stroke="black" d="M217.194,-338.83C220.121,-340.019 223.093,-341.107 226,-342 325.33,-372.497 357.09,-349.461 457,-378 462.514,-379.575 468.28,-381.713 473.661,-383.941"/>
</g>
<!-- 1,3&#45;&gt;0,1,3 -->
<g id="edge36" class="edge"><title>1,3&#45;&gt;0,1,3</title>
<path fill="none" stroke="black" d="M306.704,-338.526C303.797,-339.775 300.858,-340.96 298,-342 238.841,-363.533 220.159,-356.467 161,-378 158.142,-379.04 155.203,-380.225 152.296,-381.474"/>
</g>
<!-- 1,3&#45;&gt;1,2,3 -->
<g id="edge37" class="edge"><title>1,3&#45;&gt;1,2,3</title>
<path fill="none" stroke="black" d="M317.933,-342.303C307.857,-353.154 294.923,-367.083 284.883,-377.896"/>
</g>
<!-- 1,3,4 -->
<g id="node27" class="node"><title>1,3,4</title>
<polygon fill="#00ff00" stroke="black" points="672,-414 618,-414 618,-378 672,-378 672,-414"/>
<text text-anchor="middle" x="645" y="-392.3" font-family="Times,serif" font-size="14.00">1,3,4</text>
</g>
<!-- 1,3&#45;&gt;1,3,4 -->
<g id="edge38" class="edge"><title>1,3&#45;&gt;1,3,4</title>
<path fill="none" stroke="black" d="M361.189,-338.845C364.118,-340.032 367.09,-341.115 370,-342 472.769,-373.267 506.231,-346.733 609,-378 611.91,-378.885 614.882,-379.968 617.811,-381.155"/>
</g>
<!-- 0,1,3&#45;&gt;0,1,2,3 -->
<g id="edge39" class="edge"><title>0,1,3&#45;&gt;0,1,2,3</title>
<path fill="none" stroke="black" d="M142.798,-414.303C153.958,-425.154 168.286,-439.083 179.407,-449.896"/>
</g>
<!-- 0,1,3,4 -->
<g id="node28" class="node"><title>0,1,3,4</title>
<polygon fill="#ff0000" stroke="black" points="448.5,-486 393.5,-486 393.5,-450 448.5,-450 448.5,-486"/>
<text text-anchor="middle" x="421" y="-464.3" font-family="Times,serif" font-size="14.00">0,1,3,4</text>
</g>
<!-- 0,1,3&#45;&gt;0,1,3,4 -->
<g id="edge40" class="edge"><title>0,1,3&#45;&gt;0,1,3,4</title>
<path fill="none" stroke="black" d="M152.199,-410.813C155.125,-412.006 158.095,-413.099 161,-414 256.892,-443.728 287.953,-420.776 384,-450 387.111,-450.947 390.299,-452.102 393.435,-453.36"/>
</g>
<!-- 2,3&#45;&gt;0,2,3 -->
<g id="edge41" class="edge"><title>2,3&#45;&gt;0,2,3</title>
<path fill="none" stroke="black" d="M378.704,-338.526C375.797,-339.775 372.858,-340.96 370,-342 310.841,-363.533 292.159,-356.467 233,-378 230.142,-379.04 227.203,-380.225 224.296,-381.474"/>
</g>
<!-- 2,3&#45;&gt;1,2,3 -->
<g id="edge42" class="edge"><title>2,3&#45;&gt;1,2,3</title>
<path fill="none" stroke="black" d="M378.933,-338.83C354.915,-351.102 320.012,-368.936 296.011,-381.199"/>
</g>
<!-- 2,3,4 -->
<g id="node29" class="node"><title>2,3,4</title>
<polygon fill="#ff0000" stroke="black" points="744,-414 690,-414 690,-378 744,-378 744,-414"/>
<text text-anchor="middle" x="717" y="-392.3" font-family="Times,serif" font-size="14.00">2,3,4</text>
</g>
<!-- 2,3&#45;&gt;2,3,4 -->
<g id="edge43" class="edge"><title>2,3&#45;&gt;2,3,4</title>
<path fill="none" stroke="black" d="M433.189,-338.845C436.118,-340.032 439.09,-341.115 442,-342 544.769,-373.267 578.231,-346.733 681,-378 683.91,-378.885 686.882,-379.968 689.811,-381.155"/>
</g>
<!-- 0,2,3&#45;&gt;0,1,2,3 -->
<g id="edge44" class="edge"><title>0,2,3&#45;&gt;0,1,2,3</title>
<path fill="none" stroke="black" d="M197,-414.303C197,-425.154 197,-439.083 197,-449.896"/>
</g>
<!-- 0,2,3,4 -->
<g id="node30" class="node"><title>0,2,3,4</title>
<polygon fill="#ffffff" stroke="black" points="521.5,-486 466.5,-486 466.5,-450 521.5,-450 521.5,-486"/>
<text text-anchor="middle" x="494" y="-464.3" font-family="Times,serif" font-size="14.00">0,2,3,4</text>
</g>
<!-- 0,2,3&#45;&gt;0,2,3,4 -->
<g id="edge45" class="edge"><title>0,2,3&#45;&gt;0,2,3,4</title>
<path fill="none" stroke="black" d="M224.198,-410.815C227.125,-412.008 230.095,-413.1 233,-414 329.322,-443.824 360.523,-420.682 457,-450 460.111,-450.946 463.299,-452.1 466.436,-453.358"/>
</g>
<!-- 1,2,3&#45;&gt;0,1,2,3 -->
<g id="edge46" class="edge"><title>1,2,3&#45;&gt;0,1,2,3</title>
<path fill="none" stroke="black" d="M251.202,-414.303C240.042,-425.154 225.714,-439.083 214.593,-449.896"/>
</g>
<!-- 1,2,3,4 -->
<g id="node31" class="node"><title>1,2,3,4</title>
<polygon fill="#ffffff" stroke="black" points="600.5,-486 545.5,-486 545.5,-450 600.5,-450 600.5,-486"/>
<text text-anchor="middle" x="573" y="-464.3" font-family="Times,serif" font-size="14.00">1,2,3,4</text>
</g>
<!-- 1,2,3&#45;&gt;1,2,3,4 -->
<g id="edge47" class="edge"><title>1,2,3&#45;&gt;1,2,3,4</title>
<path fill="none" stroke="black" d="M296.198,-410.817C299.124,-412.01 302.095,-413.102 305,-414 401.751,-443.92 432.332,-423.225 530,-450 535.11,-451.401 540.443,-453.209 545.544,-455.122"/>
</g>
<!-- 0,1,2,3,4 -->
<g id="node32" class="node"><title>0,1,2,3,4</title>
<polygon fill="#ffffff" stroke="black" points="453.5,-558 388.5,-558 388.5,-522 453.5,-522 453.5,-558"/>
<text text-anchor="middle" x="421" y="-536.3" font-family="Times,serif" font-size="14.00">0,1,2,3,4</text>
</g>
<!-- 0,1,2,3&#45;&gt;0,1,2,3,4 -->
<g id="edge48" class="edge"><title>0,1,2,3&#45;&gt;0,1,2,3,4</title>
<path fill="none" stroke="black" d="M224.467,-477.583C265.94,-490.544 344.384,-515.058 388.593,-528.873"/>
</g>
<!-- 4&#45;&gt;0,4 -->
<g id="edge49" class="edge"><title>4&#45;&gt;0,4</title>
<path fill="none" stroke="black" d="M534.731,-267.845C523.255,-279.002 507.516,-294.304 495.527,-305.96"/>
</g>
<!-- 4&#45;&gt;1,4 -->
<g id="edge50" class="edge"><title>4&#45;&gt;1,4</title>
<path fill="none" stroke="black" d="M550,-270.303C550,-281.154 550,-295.083 550,-305.896"/>
</g>
<!-- 4&#45;&gt;2,4 -->
<g id="edge51" class="edge"><title>4&#45;&gt;2,4</title>
<path fill="none" stroke="black" d="M565.269,-267.845C576.745,-279.002 592.484,-294.304 604.473,-305.96"/>
</g>
<!-- 4&#45;&gt;3,4 -->
<g id="edge52" class="edge"><title>4&#45;&gt;3,4</title>
<path fill="none" stroke="black" d="M571.248,-263.329C596.596,-275.651 639.019,-296.273 666.756,-309.756"/>
</g>
<!-- 0,4&#45;&gt;0,1,4 -->
<g id="edge53" class="edge"><title>0,4&#45;&gt;0,1,4</title>
<path fill="none" stroke="black" d="M450.765,-339.334C425.989,-352.374 389.886,-371.376 366.924,-383.461"/>
</g>
<!-- 0,4&#45;&gt;0,2,4 -->
<g id="edge54" class="edge"><title>0,4&#45;&gt;0,2,4</title>
<path fill="none" stroke="black" d="M463.91,-342.303C455.075,-353.154 443.732,-367.083 434.928,-377.896"/>
</g>
<!-- 0,4&#45;&gt;0,3,4 -->
<g id="edge55" class="edge"><title>0,4&#45;&gt;0,3,4</title>
<path fill="none" stroke="black" d="M482.697,-342.303C485.642,-353.154 489.423,-367.083 492.357,-377.896"/>
</g>
<!-- 1,4&#45;&gt;0,1,4 -->
<g id="edge56" class="edge"><title>1,4&#45;&gt;0,1,4</title>
<path fill="none" stroke="black" d="M522.688,-338.481C519.783,-339.739 516.85,-340.938 514,-342 458.222,-362.783 441.176,-358.317 385,-378 379.588,-379.896 373.864,-382.165 368.49,-384.418"/>
</g>
<!-- 1,4&#45;&gt;1,2,4 -->
<g id="edge57" class="edge"><title>1,4&#45;&gt;1,2,4</title>
<path fill="none" stroke="black" d="M555.685,-342.303C559.251,-353.154 563.827,-367.083 567.38,-377.896"/>
</g>
<!-- 1,4&#45;&gt;1,3,4 -->
<g id="edge58" class="edge"><title>1,4&#45;&gt;1,3,4</title>
<path fill="none" stroke="black" d="M573.483,-342.303C588.209,-353.154 607.113,-367.083 621.787,-377.896"/>
</g>
<!-- 0,1,4&#45;&gt;0,1,2,4 -->
<g id="edge59" class="edge"><title>0,1,4&#45;&gt;0,1,2,4</title>
<path fill="none" stroke="black" d="M345.742,-414.303C346.207,-425.154 346.804,-439.083 347.267,-449.896"/>
</g>
<!-- 0,1,4&#45;&gt;0,1,3,4 -->
<g id="edge60" class="edge"><title>0,1,4&#45;&gt;0,1,3,4</title>
<path fill="none" stroke="black" d="M361.491,-412.189C373.54,-423.287 389.891,-438.347 402.405,-449.873"/>
</g>
<!-- 2,4&#45;&gt;0,2,4 -->
<g id="edge61" class="edge"><title>2,4&#45;&gt;0,2,4</title>
<path fill="none" stroke="black" d="M594.688,-338.481C591.783,-339.739 588.85,-340.938 586,-342 530.222,-362.783 512.778,-357.217 457,-378 454.15,-379.062 451.217,-380.261 448.312,-381.519"/>
</g>
<!-- 2,4&#45;&gt;1,2,4 -->
<g id="edge62" class="edge"><title>2,4&#45;&gt;1,2,4</title>
<path fill="none" stroke="black" d="M609.888,-342.303C602.292,-353.154 592.542,-367.083 584.973,-377.896"/>
</g>
<!-- 2,4&#45;&gt;2,3,4 -->
<g id="edge63" class="edge"><title>2,4&#45;&gt;2,3,4</title>
<path fill="none" stroke="black" d="M645.483,-342.303C660.209,-353.154 679.113,-367.083 693.787,-377.896"/>
</g>
<!-- 0,2,4&#45;&gt;0,1,2,4 -->
<g id="edge64" class="edge"><title>0,2,4&#45;&gt;0,1,2,4</title>
<path fill="none" stroke="black" d="M402.955,-414.303C391.64,-425.154 377.113,-439.083 365.837,-449.896"/>
</g>
<!-- 0,2,4&#45;&gt;0,2,3,4 -->
<g id="edge65" class="edge"><title>0,2,4&#45;&gt;0,2,3,4</title>
<path fill="none" stroke="black" d="M439.045,-414.303C450.36,-425.154 464.887,-439.083 476.163,-449.896"/>
</g>
<!-- 1,2,4&#45;&gt;0,1,2,4 -->
<g id="edge66" class="edge"><title>1,2,4&#45;&gt;0,1,2,4</title>
<path fill="none" stroke="black" d="M545.769,-410.243C542.514,-411.607 539.208,-412.895 536,-414 470.358,-436.603 449.522,-427.053 384,-450 381.13,-451.005 378.183,-452.167 375.27,-453.402"/>
</g>
<!-- 1,2,4&#45;&gt;1,2,3,4 -->
<g id="edge67" class="edge"><title>1,2,4&#45;&gt;1,2,3,4</title>
<path fill="none" stroke="black" d="M573,-414.303C573,-425.154 573,-439.083 573,-449.896"/>
</g>
<!-- 0,1,2,4&#45;&gt;0,1,2,3,4 -->
<g id="edge68" class="edge"><title>0,1,2,4&#45;&gt;0,1,2,3,4</title>
<path fill="none" stroke="black" d="M366.045,-486.303C377.36,-497.154 391.887,-511.083 403.163,-521.896"/>
</g>
<!-- 3,4&#45;&gt;0,3,4 -->
<g id="edge69" class="edge"><title>3,4&#45;&gt;0,3,4</title>
<path fill="none" stroke="black" d="M666.669,-338.432C663.768,-339.699 660.841,-340.914 658,-342 605.592,-362.037 589.791,-358.997 537,-378 531.746,-379.891 526.188,-382.109 520.939,-384.308"/>
</g>
<!-- 3,4&#45;&gt;1,3,4 -->
<g id="edge70" class="edge"><title>3,4&#45;&gt;1,3,4</title>
<path fill="none" stroke="black" d="M681.888,-342.303C674.292,-353.154 664.542,-367.083 656.973,-377.896"/>
</g>
<!-- 3,4&#45;&gt;2,3,4 -->
<g id="edge71" class="edge"><title>3,4&#45;&gt;2,3,4</title>
<path fill="none" stroke="black" d="M699.685,-342.303C703.251,-353.154 707.827,-367.083 711.38,-377.896"/>
</g>
<!-- 0,3,4&#45;&gt;0,1,3,4 -->
<g id="edge72" class="edge"><title>0,3,4&#45;&gt;0,1,3,4</title>
<path fill="none" stroke="black" d="M480.509,-412.189C468.46,-423.287 452.109,-438.347 439.595,-449.873"/>
</g>
<!-- 0,3,4&#45;&gt;0,2,3,4 -->
<g id="edge73" class="edge"><title>0,3,4&#45;&gt;0,2,3,4</title>
<path fill="none" stroke="black" d="M496.258,-414.303C495.793,-425.154 495.196,-439.083 494.733,-449.896"/>
</g>
<!-- 1,3,4&#45;&gt;0,1,3,4 -->
<g id="edge74" class="edge"><title>1,3,4&#45;&gt;0,1,3,4</title>
<path fill="none" stroke="black" d="M617.73,-410.598C614.817,-411.833 611.87,-412.995 609,-414 543.478,-436.947 522.522,-427.053 457,-450 454.13,-451.005 451.183,-452.167 448.27,-453.402"/>
</g>
<!-- 1,3,4&#45;&gt;1,2,3,4 -->
<g id="edge75" class="edge"><title>1,3,4&#45;&gt;1,2,3,4</title>
<path fill="none" stroke="black" d="M627.202,-414.303C616.042,-425.154 601.714,-439.083 590.593,-449.896"/>
</g>
<!-- 0,1,3,4&#45;&gt;0,1,2,3,4 -->
<g id="edge76" class="edge"><title>0,1,3,4&#45;&gt;0,1,2,3,4</title>
<path fill="none" stroke="black" d="M421,-486.303C421,-497.154 421,-511.083 421,-521.896"/>
</g>
<!-- 2,3,4&#45;&gt;0,2,3,4 -->
<g id="edge77" class="edge"><title>2,3,4&#45;&gt;0,2,3,4</title>
<path fill="none" stroke="black" d="M689.719,-410.566C686.808,-411.807 683.865,-412.979 681,-414 618.451,-436.286 599.155,-429.492 536,-450 531.212,-451.555 526.193,-453.395 521.357,-455.28"/>
</g>
<!-- 2,3,4&#45;&gt;1,2,3,4 -->
<g id="edge78" class="edge"><title>2,3,4&#45;&gt;1,2,3,4</title>
<path fill="none" stroke="black" d="M689.915,-410.166C664.333,-422.602 626.155,-441.161 600.453,-453.655"/>
</g>
<!-- 0,2,3,4&#45;&gt;0,1,2,3,4 -->
<g id="edge79" class="edge"><title>0,2,3,4&#45;&gt;0,1,2,3,4</title>
<path fill="none" stroke="black" d="M475.955,-486.303C464.64,-497.154 450.113,-511.083 438.837,-521.896"/>
</g>
<!-- 1,2,3,4&#45;&gt;0,1,2,3,4 -->
<g id="edge80" class="edge"><title>1,2,3,4&#45;&gt;0,1,2,3,4</title>
<path fill="none" stroke="black" d="M545.474,-481.676C519.552,-493.614 480.717,-511.499 453.332,-524.11"/>
</g>
<!-- Legend -->
<g id="node33" class="node"><title>Legend</title>
<polygon fill="none" stroke="black" points="418,-126 250,-126 250,-0 418,-0 418,-126"/>
<polygon fill="none" stroke="black" points="250,-100 250,-126 280,-126 280,-100 250,-100"/>
<text text-anchor="start" x="255.5" y="-109.3" font-family="Times,serif" font-size="14.00">&quot;1&quot;</text>
<polygon fill="none" stroke="black" points="280,-100 280,-126 418,-126 418,-100 280,-100"/>
<text text-anchor="start" x="308" y="-109.3" font-family="Times,serif" font-size="14.00">1.B equals 2.B</text>
<polygon fill="none" stroke="black" points="250,-75 250,-100 280,-100 280,-75 250,-75"/>
<text text-anchor="start" x="255.5" y="-83.8" font-family="Times,serif" font-size="14.00">&quot;4&quot;</text>
<polygon fill="none" stroke="black" points="280,-75 280,-100 418,-100 418,-75 280,-75"/>
<text text-anchor="start" x="307.5" y="-83.8" font-family="Times,serif" font-size="14.00">1.H equals 2.H</text>
<polygon fill="none" stroke="black" points="250,-50 250,-75 280,-75 280,-50 250,-50"/>
<text text-anchor="start" x="255.5" y="-58.8" font-family="Times,serif" font-size="14.00">&quot;0&quot;</text>
<polygon fill="none" stroke="black" points="280,-50 280,-75 418,-75 418,-50 280,-50"/>
<text text-anchor="start" x="285" y="-58.8" font-family="Times,serif" font-size="14.00">1.A is_included_in 2.A</text>
<polygon fill="none" stroke="black" points="250,-25 250,-50 280,-50 280,-25 250,-25"/>
<text text-anchor="start" x="255.5" y="-33.8" font-family="Times,serif" font-size="14.00">&quot;2&quot;</text>
<polygon fill="none" stroke="black" points="280,-25 280,-50 418,-50 418,-25 280,-25"/>
<text text-anchor="start" x="287" y="-33.8" font-family="Times,serif" font-size="14.00">1.F is_included_in 2.F</text>
<polygon fill="none" stroke="black" points="250,-0 250,-25 280,-25 280,-0 250,-0"/>
<text text-anchor="start" x="255.5" y="-8.8" font-family="Times,serif" font-size="14.00">&quot;3&quot;</text>
<polygon fill="none" stroke="black" points="280,-0 280,-25 418,-25 418,-0 280,-0"/>
<text text-anchor="start" x="307.5" y="-8.8" font-family="Times,serif" font-size="14.00">1.G equals 2.G</text>
</g>
<!-- Legend&#45;&gt;None -->
<!-- Intro -->
<g id="node34" class="node"><title>Intro</title>
<polygon fill="none" stroke="black" points="753.5,-113.5 436.5,-113.5 436.5,-12.5 753.5,-12.5 753.5,-113.5"/>
<polygon fill="none" stroke="black" points="437,-87 437,-113 656,-113 656,-87 437,-87"/>
<text text-anchor="start" x="442.5" y="-96.3" font-family="Times,serif" font-size="14.00"> Minimal Inconsistent Subsets (MIS) </text>
<polygon fill="none" stroke="black" points="656,-87 656,-113 754,-113 754,-87 656,-87"/>
<text text-anchor="start" x="678" y="-96.3" font-family="Times,serif" font-size="14.00"> Red box </text>
<polygon fill="none" stroke="black" points="437,-62 437,-87 656,-87 656,-62 437,-62"/>
<text text-anchor="start" x="464.5" y="-70.8" font-family="Times,serif" font-size="14.00"> Maximal Consistent Subsets </text>
<polygon fill="none" stroke="black" points="656,-62 656,-87 754,-87 754,-62 656,-62"/>
<text text-anchor="start" x="672.5" y="-70.8" font-family="Times,serif" font-size="14.00"> Green box </text>
<polygon fill="none" stroke="black" points="437,-37 437,-62 656,-62 656,-37 437,-37"/>
<text text-anchor="start" x="474" y="-45.8" font-family="Times,serif" font-size="14.00"> Minimal Unique Subsets </text>
<polygon fill="none" stroke="black" points="656,-37 656,-62 754,-62 754,-37 656,-37"/>
<text text-anchor="start" x="663" y="-45.8" font-family="Times,serif" font-size="14.00"> Green octagon</text>
<polygon fill="none" stroke="black" points="437,-12 437,-37 656,-37 656,-12 437,-12"/>
<text text-anchor="start" x="461" y="-20.8" font-family="Times,serif" font-size="14.00"> Maximal Ambiguous Subsets </text>
<polygon fill="none" stroke="black" points="656,-12 656,-37 754,-37 754,-12 656,-12"/>
<text text-anchor="start" x="661" y="-20.8" font-family="Times,serif" font-size="14.00"> Cyan diamond </text>
</g>
</g>
</svg>
