<?xml version="1.0" encoding="UTF-8" standalone="no"?>
<!DOCTYPE svg PUBLIC "-//W3C//DTD SVG 1.1//EN"
 "http://www.w3.org/Graphics/SVG/1.1/DTD/svg11.dtd">
<!-- Generated by graphviz version 2.36.0 (20140111.2315)
 -->
<!-- Title: %3 Pages: 1 -->
<svg width="682pt" height="275pt"
 viewBox="0.00 0.00 682.00 275.00" xmlns="http://www.w3.org/2000/svg" xmlns:xlink="http://www.w3.org/1999/xlink">
<g id="graph0" class="graph" transform="scale(1 1) rotate(0) translate(4 271)">
<title>%3</title>
<polygon fill="white" stroke="none" points="-4,4 -4,-271 678,-271 678,4 -4,4"/>
<!-- FloraChina.OakGenus -->
<g id="node1" class="node"><title>FloraChina.OakGenus</title>
<polygon fill="#ccffcc" stroke="black" points="173,-213 35,-213 35,-177 173,-177 173,-213"/>
<text text-anchor="middle" x="104" y="-191.3" font-family="Times,serif" font-size="14.00">FloraChina.OakGenus</text>
</g>
<!-- FloraMexico.OakGenus -->
<g id="node4" class="node"><title>FloraMexico.OakGenus</title>
<polygon fill="#ffffcc" stroke="black" points="208.234,-106.544 208.234,-121.456 147.175,-132 60.8249,-132 -0.233914,-121.456 -0.233914,-106.544 60.8249,-96 147.175,-96 208.234,-106.544"/>
<text text-anchor="middle" x="104" y="-110.3" font-family="Times,serif" font-size="14.00">FloraMexico.OakGenus</text>
</g>
<!-- FloraChina.OakGenus&#45;&gt;FloraMexico.OakGenus -->
<g id="edge1" class="edge"><title>FloraChina.OakGenus&#45;&gt;FloraMexico.OakGenus</title>
<path fill="none" stroke="#0000ff" stroke-dasharray="1,5" d="M104,-176.799C104,-161.878 104,-146.957 104,-132.035"/>
</g>
<!-- FloraMexico.MexicanOakSpecies1 -->
<g id="node5" class="node"><title>FloraMexico.MexicanOakSpecies1</title>
<polygon fill="#ffffcc" stroke="black" points="538.06,-79.5442 538.06,-94.4558 451.914,-105 330.086,-105 243.94,-94.4558 243.94,-79.5442 330.086,-69 451.914,-69 538.06,-79.5442"/>
<text text-anchor="middle" x="391" y="-83.3" font-family="Times,serif" font-size="14.00">FloraMexico.MexicanOakSpecies1</text>
</g>
<!-- FloraChina.OakGenus&#45;&gt;FloraMexico.MexicanOakSpecies1 -->
<g id="edge3" class="edge"><title>FloraChina.OakGenus&#45;&gt;FloraMexico.MexicanOakSpecies1</title>
<path fill="none" stroke="#0000ff" stroke-dasharray="1,5" d="M142.999,-176.912C162.803,-167.031 187.172,-154.151 208,-141 224.911,-130.322 225.683,-122.031 244,-114 257.574,-108.049 272.417,-103.409 287.272,-99.7911"/>
</g>
<!-- FloraChina.ChineseOakSpecies1 -->
<g id="node2" class="node"><title>FloraChina.ChineseOakSpecies1</title>
<polygon fill="#ccffcc" stroke="black" points="488.5,-267 293.5,-267 293.5,-231 488.5,-231 488.5,-267"/>
<text text-anchor="middle" x="391" y="-245.3" font-family="Times,serif" font-size="14.00">FloraChina.ChineseOakSpecies1</text>
</g>
<!-- FloraChina.ChineseOakSpecies1&#45;&gt;FloraChina.OakGenus -->
<g id="edge11" class="edge"><title>FloraChina.ChineseOakSpecies1&#45;&gt;FloraChina.OakGenus</title>
<path fill="none" stroke="#000000" d="M293.38,-231.259C276.9,-228.196 259.955,-225.025 244,-222 224.268,-218.259 202.974,-214.156 183.124,-210.303"/>
<polygon fill="#000000" stroke="#000000" points="183.685,-206.847 173.201,-208.375 182.35,-213.718 183.685,-206.847"/>
</g>
<!-- FloraChina.ChineseOakSpecies1&#45;&gt;FloraMexico.OakGenus -->
<g id="edge6" class="edge"><title>FloraChina.ChineseOakSpecies1&#45;&gt;FloraMexico.OakGenus</title>
<path fill="none" stroke="#0000ff" stroke-dasharray="1,5" d="M293.491,-242.405C276.048,-238.169 258.742,-231.718 244,-222 219.918,-206.124 229.439,-187.296 208,-168 191.117,-152.805 169.181,-140.536 149.894,-131.557"/>
</g>
<!-- FloraChina.ChineseOakSpecies1&#45;&gt;FloraMexico.MexicanOakSpecies1 -->
<g id="edge4" class="edge"><title>FloraChina.ChineseOakSpecies1&#45;&gt;FloraMexico.MexicanOakSpecies1</title>
<path fill="none" stroke="#0000ff" stroke-dasharray="1,5" d="M488.625,-252.087C515.693,-247.407 541.588,-236.32 556,-213 577.029,-178.974 577.029,-157.026 556,-123 548.601,-111.028 538.176,-102.281 526.12,-95.9683"/>
</g>
<!-- FloraMexico.MexicanOakSpecies2 -->
<g id="node6" class="node"><title>FloraMexico.MexicanOakSpecies2</title>
<polygon fill="#ffffcc" stroke="black" points="538.06,-133.544 538.06,-148.456 451.914,-159 330.086,-159 243.94,-148.456 243.94,-133.544 330.086,-123 451.914,-123 538.06,-133.544"/>
<text text-anchor="middle" x="391" y="-137.3" font-family="Times,serif" font-size="14.00">FloraMexico.MexicanOakSpecies2</text>
</g>
<!-- FloraChina.ChineseOakSpecies1&#45;&gt;FloraMexico.MexicanOakSpecies2 -->
<g id="edge5" class="edge"><title>FloraChina.ChineseOakSpecies1&#45;&gt;FloraMexico.MexicanOakSpecies2</title>
<path fill="none" stroke="#0000ff" stroke-dasharray="1,5" d="M488.625,-252.087C515.693,-247.407 541.588,-236.32 556,-213 564.412,-199.39 564.412,-190.61 556,-177 548.601,-165.028 538.176,-156.281 526.12,-149.968"/>
</g>
<!-- FloraChina.ChineseOakSpecies2 -->
<g id="node3" class="node"><title>FloraChina.ChineseOakSpecies2</title>
<polygon fill="#ccffcc" stroke="black" points="488.5,-213 293.5,-213 293.5,-177 488.5,-177 488.5,-213"/>
<text text-anchor="middle" x="391" y="-191.3" font-family="Times,serif" font-size="14.00">FloraChina.ChineseOakSpecies2</text>
</g>
<!-- FloraChina.ChineseOakSpecies2&#45;&gt;FloraChina.OakGenus -->
<g id="edge8" class="edge"><title>FloraChina.ChineseOakSpecies2&#45;&gt;FloraChina.OakGenus</title>
<path fill="none" stroke="#000000" d="M293.114,-195C257.431,-195 217.482,-195 183.608,-195"/>
<polygon fill="#000000" stroke="#000000" points="183.301,-191.5 173.301,-195 183.301,-198.5 183.301,-191.5"/>
</g>
<!-- FloraChina.ChineseOakSpecies2&#45;&gt;FloraMexico.OakGenus -->
<g id="edge2" class="edge"><title>FloraChina.ChineseOakSpecies2&#45;&gt;FloraMexico.OakGenus</title>
<path fill="none" stroke="#0000ff" stroke-dasharray="1,5" d="M293.202,-179.745C276.663,-176.386 259.746,-172.472 244,-168 210.006,-158.346 172.745,-143.635 145.365,-132.004"/>
</g>
<!-- FloraChina.ChineseOakSpecies2&#45;&gt;FloraMexico.MexicanOakSpecies2 -->
<g id="edge7" class="edge"><title>FloraChina.ChineseOakSpecies2&#45;&gt;FloraMexico.MexicanOakSpecies2</title>
<path fill="none" stroke="#0000ff" stroke-dasharray="1,5" d="M391,-176.79C391,-170.907 391,-165.024 391,-159.141"/>
</g>
<!-- FloraMexico.MexicanOakSpecies1&#45;&gt;FloraMexico.OakGenus -->
<g id="edge10" class="edge"><title>FloraMexico.MexicanOakSpecies1&#45;&gt;FloraMexico.OakGenus</title>
<path fill="none" stroke="#000000" d="M273.257,-98.0598C252.252,-100.05 230.475,-102.113 209.834,-104.068"/>
<polygon fill="#000000" stroke="#000000" points="209.426,-100.591 199.8,-105.019 210.086,-107.56 209.426,-100.591"/>
</g>
<!-- FloraMexico.MexicanOakSpecies2&#45;&gt;FloraChina.OakGenus -->
<g id="edge12" class="edge"><title>FloraMexico.MexicanOakSpecies2&#45;&gt;FloraChina.OakGenus</title>
<path fill="none" stroke="#ff0000" d="M306.975,-156.22C286.39,-160.031 264.387,-164.135 244,-168 224.268,-171.741 202.974,-175.844 183.124,-179.697"/>
<polygon fill="#ff0000" stroke="#ff0000" points="182.35,-176.282 173.201,-181.625 183.685,-183.153 182.35,-176.282"/>
</g>
<!-- FloraMexico.MexicanOakSpecies2&#45;&gt;FloraMexico.OakGenus -->
<g id="edge9" class="edge"><title>FloraMexico.MexicanOakSpecies2&#45;&gt;FloraMexico.OakGenus</title>
<path fill="none" stroke="#000000" d="M273.257,-129.94C252.252,-127.95 230.475,-125.887 209.834,-123.932"/>
<polygon fill="#000000" stroke="#000000" points="210.086,-120.44 199.8,-122.981 209.426,-127.409 210.086,-120.44"/>
</g>
<!-- Legend -->
<g id="node7" class="node"><title>Legend</title>
<polygon fill="white" stroke="black" points="673.5,-175 574.5,-175 574.5,1 673.5,1 673.5,-175"/>
<polygon fill="none" stroke="black" points="575,-149 575,-175 674,-175 674,-149 575,-149"/>
<text text-anchor="start" x="600" y="-158.3" font-family="Arial Black" font-size="14.00"> Nodes</text>
<polygon fill="#ccffcc" stroke="none" points="575,-124 575,-149 657,-149 657,-124 575,-124"/>
<polygon fill="none" stroke="black" points="575,-124 575,-149 657,-149 657,-124 575,-124"/>
<text text-anchor="start" x="585.5" y="-132.8" font-family="Times,serif" font-size="14.00">FloraChina</text>
<polygon fill="none" stroke="black" points="657,-124 657,-149 674,-149 674,-124 657,-124"/>
<text text-anchor="start" x="662" y="-132.8" font-family="Times,serif" font-size="14.00">3</text>
<polygon fill="#ffffcc" stroke="none" points="575,-99 575,-124 657,-124 657,-99 575,-99"/>
<polygon fill="none" stroke="black" points="575,-99 575,-124 657,-124 657,-99 575,-99"/>
<text text-anchor="start" x="580.5" y="-107.8" font-family="Times,serif" font-size="14.00">FloraMexico</text>
<polygon fill="none" stroke="black" points="657,-99 657,-124 674,-124 674,-99 657,-99"/>
<text text-anchor="start" x="662" y="-107.8" font-family="Times,serif" font-size="14.00">3</text>
<polygon fill="none" stroke="black" points="575,-74 575,-99 674,-99 674,-74 575,-74"/>
<text text-anchor="start" x="598.5" y="-82.8" font-family="Arial Black" font-size="14.00"> Edges </text>
<polygon fill="none" stroke="black" points="575,-49 575,-74 657,-74 657,-49 575,-49"/>
<text text-anchor="start" x="593" y="-57.8" font-family="Times,serif" font-size="14.00" fill="#0000ff">overlaps</text>
<polygon fill="none" stroke="black" points="657,-49 657,-74 674,-74 674,-49 657,-49"/>
<text text-anchor="start" x="662" y="-57.8" font-family="Times,serif" font-size="14.00">7</text>
<polygon fill="none" stroke="black" points="575,-24 575,-49 657,-49 657,-24 575,-24"/>
<text text-anchor="start" x="602" y="-32.8" font-family="Times,serif" font-size="14.00" fill="#000000">input</text>
<polygon fill="none" stroke="black" points="657,-24 657,-49 674,-49 674,-24 657,-24"/>
<text text-anchor="start" x="662" y="-32.8" font-family="Times,serif" font-size="14.00">4</text>
<polygon fill="none" stroke="black" points="575,1 575,-24 657,-24 657,1 575,1"/>
<text text-anchor="start" x="594.5" y="-7.8" font-family="Times,serif" font-size="14.00" fill="#ff0000">inferred</text>
<polygon fill="none" stroke="black" points="657,1 657,-24 674,-24 674,1 657,1"/>
<text text-anchor="start" x="662" y="-7.8" font-family="Times,serif" font-size="14.00">1</text>
</g>
</g>
</svg>
