<?xml version="1.0" encoding="UTF-8" standalone="no"?>
<!DOCTYPE svg PUBLIC "-//W3C//DTD SVG 1.1//EN"
 "http://www.w3.org/Graphics/SVG/1.1/DTD/svg11.dtd">
<!-- Generated by graphviz version 2.36.0 (20140111.2315)
 -->
<!-- Title: %3 Pages: 1 -->
<svg width="1012pt" height="182pt"
 viewBox="0.00 0.00 1012.00 182.00" xmlns="http://www.w3.org/2000/svg" xmlns:xlink="http://www.w3.org/1999/xlink">
<g id="graph0" class="graph" transform="scale(1 1) rotate(0) translate(4 178)">
<title>%3</title>
<polygon fill="white" stroke="none" points="-4,4 -4,-178 1008,-178 1008,4 -4,4"/>
<!-- FloraChina.OakGenus -->
<g id="node1" class="node"><title>FloraChina.OakGenus</title>
<polygon fill="#ccffcc" stroke="black" points="173,-145 35,-145 35,-109 173,-109 173,-145"/>
<text text-anchor="middle" x="104" y="-123.3" font-family="Times,serif" font-size="14.00">FloraChina.OakGenus</text>
</g>
<!-- FloraMexico.OakGenus -->
<g id="node4" class="node"><title>FloraMexico.OakGenus</title>
<polygon fill="#ffffcc" stroke="black" points="208.234,-38.5442 208.234,-53.4558 147.175,-64 60.8249,-64 -0.233914,-53.4558 -0.233914,-38.5442 60.8249,-28 147.175,-28 208.234,-38.5442"/>
<text text-anchor="middle" x="104" y="-42.3" font-family="Times,serif" font-size="14.00">FloraMexico.OakGenus</text>
</g>
<!-- FloraChina.OakGenus&#45;&gt;FloraMexico.OakGenus -->
<g id="edge1" class="edge"><title>FloraChina.OakGenus&#45;&gt;FloraMexico.OakGenus</title>
<path fill="none" stroke="#0000ff" stroke-dasharray="1,5" d="M104,-108.799C104,-93.8779 104,-78.9565 104,-64.0352"/>
</g>
<!-- FloraMexico.MexicanOakSpecies2 -->
<g id="node6" class="node"><title>FloraMexico.MexicanOakSpecies2</title>
<polygon fill="#ffffcc" stroke="black" points="538.06,-25.5442 538.06,-40.4558 451.914,-51 330.086,-51 243.94,-40.4558 243.94,-25.5442 330.086,-15 451.914,-15 538.06,-25.5442"/>
<text text-anchor="middle" x="391" y="-29.3" font-family="Times,serif" font-size="14.00">FloraMexico.MexicanOakSpecies2</text>
</g>
<!-- FloraChina.OakGenus&#45;&gt;FloraMexico.MexicanOakSpecies2 -->
<g id="edge3" class="edge"><title>FloraChina.OakGenus&#45;&gt;FloraMexico.MexicanOakSpecies2</title>
<path fill="none" stroke="#0000ff" stroke-dasharray="1,5" d="M136.292,-108.927C163.825,-93.7623 205.424,-72.613 244,-60 260.17,-54.7128 277.707,-50.3572 294.831,-46.8043"/>
</g>
<!-- FloraChina.ChineseOakSpecies1 -->
<g id="node2" class="node"><title>FloraChina.ChineseOakSpecies1</title>
<polygon fill="#ccffcc" stroke="black" points="488.5,-105 293.5,-105 293.5,-69 488.5,-69 488.5,-105"/>
<text text-anchor="middle" x="391" y="-83.3" font-family="Times,serif" font-size="14.00">FloraChina.ChineseOakSpecies1</text>
</g>
<!-- FloraChina.ChineseOakSpecies1&#45;&gt;FloraChina.OakGenus -->
<g id="edge8" class="edge"><title>FloraChina.ChineseOakSpecies1&#45;&gt;FloraChina.OakGenus</title>
<path fill="none" stroke="#000000" d="M293.114,-100.598C257.431,-105.606 217.482,-111.213 183.608,-115.967"/>
<polygon fill="#000000" stroke="#000000" points="182.718,-112.558 173.301,-117.414 183.691,-119.49 182.718,-112.558"/>
</g>
<!-- FloraChina.ChineseOakSpecies1&#45;&gt;FloraMexico.OakGenus -->
<g id="edge10" class="edge"><title>FloraChina.ChineseOakSpecies1&#45;&gt;FloraMexico.OakGenus</title>
<path fill="none" stroke="#ff0000" d="M293.114,-73.0621C261.371,-68.4955 226.252,-63.4432 195.036,-58.9525"/>
<polygon fill="#ff0000" stroke="#ff0000" points="195.444,-55.4753 185.047,-57.5156 194.447,-62.404 195.444,-55.4753"/>
</g>
<!-- FloraChina.ChineseOakSpecies1&#45;&gt;FloraMexico.MexicanOakSpecies2 -->
<g id="edge4" class="edge"><title>FloraChina.ChineseOakSpecies1&#45;&gt;FloraMexico.MexicanOakSpecies2</title>
<path fill="none" stroke="#0000ff" stroke-dasharray="1,5" d="M391,-68.7902C391,-62.907 391,-57.0238 391,-51.1406"/>
</g>
<!-- FloraChina.ChineseOakSpecies2 -->
<g id="node3" class="node"><title>FloraChina.ChineseOakSpecies2</title>
<polygon fill="#ccffcc" stroke="black" points="488.5,-159 293.5,-159 293.5,-123 488.5,-123 488.5,-159"/>
<text text-anchor="middle" x="391" y="-137.3" font-family="Times,serif" font-size="14.00">FloraChina.ChineseOakSpecies2</text>
</g>
<!-- FloraChina.ChineseOakSpecies2&#45;&gt;FloraChina.OakGenus -->
<g id="edge6" class="edge"><title>FloraChina.ChineseOakSpecies2&#45;&gt;FloraChina.OakGenus</title>
<path fill="none" stroke="#000000" d="M293.114,-136.241C257.431,-134.488 217.482,-132.525 183.608,-130.861"/>
<polygon fill="#000000" stroke="#000000" points="183.461,-127.35 173.301,-130.355 183.118,-134.342 183.461,-127.35"/>
</g>
<!-- FloraChina.ChineseOakSpecies2&#45;&gt;FloraMexico.OakGenus -->
<g id="edge2" class="edge"><title>FloraChina.ChineseOakSpecies2&#45;&gt;FloraMexico.OakGenus</title>
<path fill="none" stroke="#0000ff" stroke-dasharray="1,5" d="M293.248,-126.948C276.623,-123.446 259.665,-119.173 244,-114 223.337,-107.177 173.163,-81.7587 139.102,-64.012"/>
</g>
<!-- FloraChina.ChineseOakSpecies2&#45;&gt;FloraMexico.MexicanOakSpecies2 -->
<g id="edge5" class="edge"><title>FloraChina.ChineseOakSpecies2&#45;&gt;FloraMexico.MexicanOakSpecies2</title>
<path fill="none" stroke="#0000ff" stroke-dasharray="1,5" d="M488.625,-144.087C515.693,-139.407 541.588,-128.32 556,-105 564.412,-91.3896 564.412,-82.6104 556,-69 548.601,-57.0284 538.176,-48.2805 526.12,-41.9683"/>
</g>
<!-- FloraMexico.MexicanOakSpecies1 -->
<g id="node5" class="node"><title>FloraMexico.MexicanOakSpecies1</title>
<polygon fill="#ffffcc" stroke="black" points="868.06,-79.5442 868.06,-94.4558 781.914,-105 660.086,-105 573.94,-94.4558 573.94,-79.5442 660.086,-69 781.914,-69 868.06,-79.5442"/>
<text text-anchor="middle" x="721" y="-83.3" font-family="Times,serif" font-size="14.00">FloraMexico.MexicanOakSpecies1</text>
</g>
<!-- FloraMexico.MexicanOakSpecies1&#45;&gt;FloraChina.ChineseOakSpecies1 -->
<g id="edge9" class="edge"><title>FloraMexico.MexicanOakSpecies1&#45;&gt;FloraChina.ChineseOakSpecies1</title>
<path fill="none" stroke="#ff0000" d="M573.746,-87C548.484,-87 522.654,-87 498.691,-87"/>
<polygon fill="#ff0000" stroke="#ff0000" points="498.543,-83.5001 488.543,-87 498.543,-90.5001 498.543,-83.5001"/>
</g>
<!-- FloraMexico.MexicanOakSpecies2&#45;&gt;FloraMexico.OakGenus -->
<g id="edge7" class="edge"><title>FloraMexico.MexicanOakSpecies2&#45;&gt;FloraMexico.OakGenus</title>
<path fill="none" stroke="#000000" d="M243.743,-39.6714C235.29,-40.057 226.854,-40.4417 218.555,-40.8203"/>
<polygon fill="#000000" stroke="#000000" points="218.338,-37.3265 208.508,-41.2786 218.657,-44.3192 218.338,-37.3265"/>
</g>
<!-- Legend -->
<g id="node7" class="node"><title>Legend</title>
<polygon fill="white" stroke="black" points="1003.5,-175 904.5,-175 904.5,1 1003.5,1 1003.5,-175"/>
<polygon fill="none" stroke="black" points="905,-149 905,-175 1004,-175 1004,-149 905,-149"/>
<text text-anchor="start" x="930" y="-158.3" font-family="Arial Black" font-size="14.00"> Nodes</text>
<polygon fill="#ccffcc" stroke="none" points="905,-124 905,-149 987,-149 987,-124 905,-124"/>
<polygon fill="none" stroke="black" points="905,-124 905,-149 987,-149 987,-124 905,-124"/>
<text text-anchor="start" x="915.5" y="-132.8" font-family="Times,serif" font-size="14.00">FloraChina</text>
<polygon fill="none" stroke="black" points="987,-124 987,-149 1004,-149 1004,-124 987,-124"/>
<text text-anchor="start" x="992" y="-132.8" font-family="Times,serif" font-size="14.00">3</text>
<polygon fill="#ffffcc" stroke="none" points="905,-99 905,-124 987,-124 987,-99 905,-99"/>
<polygon fill="none" stroke="black" points="905,-99 905,-124 987,-124 987,-99 905,-99"/>
<text text-anchor="start" x="910.5" y="-107.8" font-family="Times,serif" font-size="14.00">FloraMexico</text>
<polygon fill="none" stroke="black" points="987,-99 987,-124 1004,-124 1004,-99 987,-99"/>
<text text-anchor="start" x="992" y="-107.8" font-family="Times,serif" font-size="14.00">3</text>
<polygon fill="none" stroke="black" points="905,-74 905,-99 1004,-99 1004,-74 905,-74"/>
<text text-anchor="start" x="928.5" y="-82.8" font-family="Arial Black" font-size="14.00"> Edges </text>
<polygon fill="none" stroke="black" points="905,-49 905,-74 987,-74 987,-49 905,-49"/>
<text text-anchor="start" x="923" y="-57.8" font-family="Times,serif" font-size="14.00" fill="#0000ff">overlaps</text>
<polygon fill="none" stroke="black" points="987,-49 987,-74 1004,-74 1004,-49 987,-49"/>
<text text-anchor="start" x="992" y="-57.8" font-family="Times,serif" font-size="14.00">5</text>
<polygon fill="none" stroke="black" points="905,-24 905,-49 987,-49 987,-24 905,-24"/>
<text text-anchor="start" x="932" y="-32.8" font-family="Times,serif" font-size="14.00" fill="#000000">input</text>
<polygon fill="none" stroke="black" points="987,-24 987,-49 1004,-49 1004,-24 987,-24"/>
<text text-anchor="start" x="992" y="-32.8" font-family="Times,serif" font-size="14.00">3</text>
<polygon fill="none" stroke="black" points="905,1 905,-24 987,-24 987,1 905,1"/>
<text text-anchor="start" x="924.5" y="-7.8" font-family="Times,serif" font-size="14.00" fill="#ff0000">inferred</text>
<polygon fill="none" stroke="black" points="987,1 987,-24 1004,-24 1004,1 987,1"/>
<text text-anchor="start" x="992" y="-7.8" font-family="Times,serif" font-size="14.00">2</text>
</g>
</g>
</svg>
