<?xml version="1.0" encoding="UTF-8" standalone="no"?>
<!DOCTYPE svg PUBLIC "-//W3C//DTD SVG 1.1//EN"
 "http://www.w3.org/Graphics/SVG/1.1/DTD/svg11.dtd">
<!-- Generated by graphviz version 2.36.0 (20140111.2315)
 -->
<!-- Title: %3 Pages: 1 -->
<svg width="914pt" height="213pt"
 viewBox="0.00 0.00 914.00 213.00" xmlns="http://www.w3.org/2000/svg" xmlns:xlink="http://www.w3.org/1999/xlink">
<g id="graph0" class="graph" transform="scale(1 1) rotate(0) translate(4 209)">
<title>%3</title>
<polygon fill="white" stroke="none" points="-4,4 -4,-209 910,-209 910,4 -4,4"/>
<!-- FloraChina.OakGenus -->
<g id="node1" class="node"><title>FloraChina.OakGenus</title>
<polygon fill="#ccffcc" stroke="black" points="460,-205 322,-205 322,-169 460,-169 460,-205"/>
<text text-anchor="middle" x="391" y="-183.3" font-family="Times,serif" font-size="14.00">FloraChina.OakGenus</text>
</g>
<!-- FloraMexico.MexicanOakSpecies1 -->
<g id="node4" class="node"><title>FloraMexico.MexicanOakSpecies1</title>
<polygon fill="#ffffcc" stroke="black" points="538.06,-125.544 538.06,-140.456 451.914,-151 330.086,-151 243.94,-140.456 243.94,-125.544 330.086,-115 451.914,-115 538.06,-125.544"/>
<text text-anchor="middle" x="391" y="-129.3" font-family="Times,serif" font-size="14.00">FloraMexico.MexicanOakSpecies1</text>
</g>
<!-- FloraChina.OakGenus&#45;&gt;FloraMexico.MexicanOakSpecies1 -->
<g id="edge2" class="edge"><title>FloraChina.OakGenus&#45;&gt;FloraMexico.MexicanOakSpecies1</title>
<path fill="none" stroke="#0000ff" stroke-dasharray="1,5" d="M391,-168.79C391,-162.907 391,-157.024 391,-151.141"/>
</g>
<!-- FloraMexico.OakGenus -->
<g id="node5" class="node"><title>FloraMexico.OakGenus</title>
<polygon fill="#ffffcc" stroke="black" points="208.234,-56.5442 208.234,-71.4558 147.175,-82 60.8249,-82 -0.233914,-71.4558 -0.233914,-56.5442 60.8249,-46 147.175,-46 208.234,-56.5442"/>
<text text-anchor="middle" x="104" y="-60.3" font-family="Times,serif" font-size="14.00">FloraMexico.OakGenus</text>
</g>
<!-- FloraChina.OakGenus&#45;&gt;FloraMexico.OakGenus -->
<g id="edge1" class="edge"><title>FloraChina.OakGenus&#45;&gt;FloraMexico.OakGenus</title>
<path fill="none" stroke="#0000ff" stroke-dasharray="1,5" d="M321.793,-180.45C296.667,-176.481 268.401,-170.134 244,-160 197.685,-140.764 151.225,-104.393 125.478,-82.3605"/>
</g>
<!-- FloraMexico.MexicanOakSpecies2 -->
<g id="node6" class="node"><title>FloraMexico.MexicanOakSpecies2</title>
<polygon fill="#ffffcc" stroke="black" points="538.06,-33.5442 538.06,-48.4558 451.914,-59 330.086,-59 243.94,-48.4558 243.94,-33.5442 330.086,-23 451.914,-23 538.06,-33.5442"/>
<text text-anchor="middle" x="391" y="-37.3" font-family="Times,serif" font-size="14.00">FloraMexico.MexicanOakSpecies2</text>
</g>
<!-- FloraChina.OakGenus&#45;&gt;FloraMexico.MexicanOakSpecies2 -->
<g id="edge5" class="edge"><title>FloraChina.OakGenus&#45;&gt;FloraMexico.MexicanOakSpecies2</title>
<path fill="none" stroke="#0000ff" stroke-dasharray="1,5" d="M460.408,-192.89C496.304,-191.637 536.578,-182.425 556,-151 583.919,-105.826 518.29,-75.1543 461.709,-57.9091"/>
</g>
<!-- FloraChina.ChineseOakSpecies1 -->
<g id="node2" class="node"><title>FloraChina.ChineseOakSpecies1</title>
<polygon fill="#ccffcc" stroke="black" points="769.5,-205 574.5,-205 574.5,-169 769.5,-169 769.5,-205"/>
<text text-anchor="middle" x="672" y="-183.3" font-family="Times,serif" font-size="14.00">FloraChina.ChineseOakSpecies1</text>
</g>
<!-- FloraChina.ChineseOakSpecies1&#45;&gt;FloraChina.OakGenus -->
<g id="edge9" class="edge"><title>FloraChina.ChineseOakSpecies1&#45;&gt;FloraChina.OakGenus</title>
<path fill="none" stroke="#000000" d="M574.202,-187C540.26,-187 502.586,-187 470.345,-187"/>
<polygon fill="#000000" stroke="#000000" points="470.08,-183.5 460.08,-187 470.08,-190.5 470.08,-183.5"/>
</g>
<!-- FloraChina.ChineseOakSpecies1&#45;&gt;FloraMexico.MexicanOakSpecies1 -->
<g id="edge3" class="edge"><title>FloraChina.ChineseOakSpecies1&#45;&gt;FloraMexico.MexicanOakSpecies1</title>
<path fill="none" stroke="#0000ff" stroke-dasharray="1,5" d="M583.405,-168.992C568.272,-165.945 552.688,-162.849 538,-160 517.756,-156.074 495.906,-151.964 475.432,-148.17"/>
</g>
<!-- FloraChina.ChineseOakSpecies1&#45;&gt;FloraMexico.OakGenus -->
<g id="edge4" class="edge"><title>FloraChina.ChineseOakSpecies1&#45;&gt;FloraMexico.OakGenus</title>
<path fill="none" stroke="#0000ff" stroke-dasharray="1,5" d="M648.572,-168.921C623.336,-149.681 580.318,-120.111 538,-106 478.98,-86.3194 316.593,-74.575 208.327,-68.7031"/>
</g>
<!-- FloraChina.ChineseOakSpecies2 -->
<g id="node3" class="node"><title>FloraChina.ChineseOakSpecies2</title>
<polygon fill="#ccffcc" stroke="black" points="769.5,-105 574.5,-105 574.5,-69 769.5,-69 769.5,-105"/>
<text text-anchor="middle" x="672" y="-83.3" font-family="Times,serif" font-size="14.00">FloraChina.ChineseOakSpecies2</text>
</g>
<!-- FloraChina.ChineseOakSpecies2&#45;&gt;FloraChina.OakGenus -->
<g id="edge7" class="edge"><title>FloraChina.ChineseOakSpecies2&#45;&gt;FloraChina.OakGenus</title>
<path fill="none" stroke="#000000" d="M644.189,-105.078C618.151,-121.804 576.953,-146.115 538,-160 516.523,-167.656 492.458,-173.244 470.156,-177.28"/>
<polygon fill="#000000" stroke="#000000" points="469.307,-173.875 460.049,-179.027 470.499,-180.773 469.307,-173.875"/>
</g>
<!-- FloraChina.ChineseOakSpecies2&#45;&gt;FloraMexico.MexicanOakSpecies2 -->
<g id="edge10" class="edge"><title>FloraChina.ChineseOakSpecies2&#45;&gt;FloraMexico.MexicanOakSpecies2</title>
<path fill="none" stroke="#ff0000" d="M574.202,-71.0405C547.009,-66.557 517.42,-61.6785 490.148,-57.1821"/>
<polygon fill="#ff0000" stroke="#ff0000" points="490.651,-53.7178 480.214,-55.5443 489.512,-60.6246 490.651,-53.7178"/>
</g>
<!-- FloraMexico.MexicanOakSpecies1&#45;&gt;FloraMexico.OakGenus -->
<g id="edge6" class="edge"><title>FloraMexico.MexicanOakSpecies1&#45;&gt;FloraMexico.OakGenus</title>
<path fill="none" stroke="#000000" d="M313.699,-116.946C291.204,-112.032 266.57,-106.474 244,-101 220.111,-95.2055 194.041,-88.3965 171,-82.21"/>
<polygon fill="#000000" stroke="#000000" points="171.893,-78.8257 161.326,-79.6015 170.07,-85.5843 171.893,-78.8257"/>
</g>
<!-- FloraMexico.MexicanOakSpecies2&#45;&gt;FloraMexico.OakGenus -->
<g id="edge8" class="edge"><title>FloraMexico.MexicanOakSpecies2&#45;&gt;FloraMexico.OakGenus</title>
<path fill="none" stroke="#000000" d="M264.995,-51.0881C248.398,-52.4275 231.48,-53.7929 215.159,-55.11"/>
<polygon fill="#000000" stroke="#000000" points="214.769,-51.63 205.083,-55.9231 215.332,-58.6073 214.769,-51.63"/>
</g>
<!-- Legend -->
<g id="node7" class="node"><title>Legend</title>
<polygon fill="white" stroke="black" points="905.5,-175 806.5,-175 806.5,1 905.5,1 905.5,-175"/>
<polygon fill="none" stroke="black" points="807,-149 807,-175 906,-175 906,-149 807,-149"/>
<text text-anchor="start" x="832" y="-158.3" font-family="Arial Black" font-size="14.00"> Nodes</text>
<polygon fill="#ccffcc" stroke="none" points="807,-124 807,-149 889,-149 889,-124 807,-124"/>
<polygon fill="none" stroke="black" points="807,-124 807,-149 889,-149 889,-124 807,-124"/>
<text text-anchor="start" x="817.5" y="-132.8" font-family="Times,serif" font-size="14.00">FloraChina</text>
<polygon fill="none" stroke="black" points="889,-124 889,-149 906,-149 906,-124 889,-124"/>
<text text-anchor="start" x="894" y="-132.8" font-family="Times,serif" font-size="14.00">3</text>
<polygon fill="#ffffcc" stroke="none" points="807,-99 807,-124 889,-124 889,-99 807,-99"/>
<polygon fill="none" stroke="black" points="807,-99 807,-124 889,-124 889,-99 807,-99"/>
<text text-anchor="start" x="812.5" y="-107.8" font-family="Times,serif" font-size="14.00">FloraMexico</text>
<polygon fill="none" stroke="black" points="889,-99 889,-124 906,-124 906,-99 889,-99"/>
<text text-anchor="start" x="894" y="-107.8" font-family="Times,serif" font-size="14.00">3</text>
<polygon fill="none" stroke="black" points="807,-74 807,-99 906,-99 906,-74 807,-74"/>
<text text-anchor="start" x="830.5" y="-82.8" font-family="Arial Black" font-size="14.00"> Edges </text>
<polygon fill="none" stroke="black" points="807,-49 807,-74 889,-74 889,-49 807,-49"/>
<text text-anchor="start" x="825" y="-57.8" font-family="Times,serif" font-size="14.00" fill="#0000ff">overlaps</text>
<polygon fill="none" stroke="black" points="889,-49 889,-74 906,-74 906,-49 889,-49"/>
<text text-anchor="start" x="894" y="-57.8" font-family="Times,serif" font-size="14.00">5</text>
<polygon fill="none" stroke="black" points="807,-24 807,-49 889,-49 889,-24 807,-24"/>
<text text-anchor="start" x="834" y="-32.8" font-family="Times,serif" font-size="14.00" fill="#000000">input</text>
<polygon fill="none" stroke="black" points="889,-24 889,-49 906,-49 906,-24 889,-24"/>
<text text-anchor="start" x="894" y="-32.8" font-family="Times,serif" font-size="14.00">4</text>
<polygon fill="none" stroke="black" points="807,1 807,-24 889,-24 889,1 807,1"/>
<text text-anchor="start" x="826.5" y="-7.8" font-family="Times,serif" font-size="14.00" fill="#ff0000">inferred</text>
<polygon fill="none" stroke="black" points="889,1 889,-24 906,-24 906,1 889,1"/>
<text text-anchor="start" x="894" y="-7.8" font-family="Times,serif" font-size="14.00">1</text>
</g>
</g>
</svg>
