<?xml version="1.0" encoding="UTF-8" standalone="no"?>
<!DOCTYPE svg PUBLIC "-//W3C//DTD SVG 1.1//EN"
 "http://www.w3.org/Graphics/SVG/1.1/DTD/svg11.dtd">
<!-- Generated by graphviz version 2.36.0 (20140111.2315)
 -->
<!-- Title: %3 Pages: 1 -->
<svg width="622pt" height="275pt"
 viewBox="0.00 0.00 622.00 275.00" xmlns="http://www.w3.org/2000/svg" xmlns:xlink="http://www.w3.org/1999/xlink">
<g id="graph0" class="graph" transform="scale(1 1) rotate(0) translate(4 271)">
<title>%3</title>
<polygon fill="white" stroke="none" points="-4,4 -4,-271 618,-271 618,4 -4,4"/>
<!-- FloraChina.ChineseOakSpecies1 -->
<g id="node1" class="node"><title>FloraChina.ChineseOakSpecies1</title>
<polygon fill="#ccffcc" stroke="black" points="428.5,-267 233.5,-267 233.5,-231 428.5,-231 428.5,-267"/>
<text text-anchor="middle" x="331" y="-245.3" font-family="Times,serif" font-size="14.00">FloraChina.ChineseOakSpecies1</text>
</g>
<!-- FloraChina.OakGenus\nFloraMexico.OakGenus -->
<g id="node3" class="node"><title>FloraChina.OakGenus\nFloraMexico.OakGenus</title>
<path fill="#eeeeee" stroke="black" d="M136,-187C136,-187 12,-187 12,-187 6,-187 0,-181 0,-175 0,-175 0,-161 0,-161 0,-155 6,-149 12,-149 12,-149 136,-149 136,-149 142,-149 148,-155 148,-161 148,-161 148,-175 148,-175 148,-181 142,-187 136,-187"/>
<text text-anchor="middle" x="74" y="-171.8" font-family="Times,serif" font-size="14.00">FloraChina.OakGenus</text>
<text text-anchor="middle" x="74" y="-156.8" font-family="Times,serif" font-size="14.00">FloraMexico.OakGenus</text>
</g>
<!-- FloraChina.ChineseOakSpecies1&#45;&gt;FloraChina.OakGenus\nFloraMexico.OakGenus -->
<g id="edge7" class="edge"><title>FloraChina.ChineseOakSpecies1&#45;&gt;FloraChina.OakGenus\nFloraMexico.OakGenus</title>
<path fill="none" stroke="#000000" d="M233.226,-235.013C216.604,-231.505 199.652,-227.212 184,-222 160.716,-214.247 136.112,-202.407 116.183,-191.786"/>
<polygon fill="#000000" stroke="#000000" points="117.836,-188.702 107.377,-187.012 114.5,-194.855 117.836,-188.702"/>
</g>
<!-- FloraMexico.MexicanOakSpecies1 -->
<g id="node4" class="node"><title>FloraMexico.MexicanOakSpecies1</title>
<polygon fill="#ffffcc" stroke="black" points="478.06,-133.544 478.06,-148.456 391.914,-159 270.086,-159 183.94,-148.456 183.94,-133.544 270.086,-123 391.914,-123 478.06,-133.544"/>
<text text-anchor="middle" x="331" y="-137.3" font-family="Times,serif" font-size="14.00">FloraMexico.MexicanOakSpecies1</text>
</g>
<!-- FloraChina.ChineseOakSpecies1&#45;&gt;FloraMexico.MexicanOakSpecies1 -->
<g id="edge1" class="edge"><title>FloraChina.ChineseOakSpecies1&#45;&gt;FloraMexico.MexicanOakSpecies1</title>
<path fill="none" stroke="#0000ff" stroke-dasharray="1,5" d="M428.625,-252.087C455.693,-247.407 481.588,-236.32 496,-213 504.412,-199.39 504.412,-190.61 496,-177 488.601,-165.028 478.176,-156.281 466.12,-149.968"/>
</g>
<!-- FloraMexico.MexicanOakSpecies2 -->
<g id="node5" class="node"><title>FloraMexico.MexicanOakSpecies2</title>
<polygon fill="#ffffcc" stroke="black" points="478.06,-79.5442 478.06,-94.4558 391.914,-105 270.086,-105 183.94,-94.4558 183.94,-79.5442 270.086,-69 391.914,-69 478.06,-79.5442"/>
<text text-anchor="middle" x="331" y="-83.3" font-family="Times,serif" font-size="14.00">FloraMexico.MexicanOakSpecies2</text>
</g>
<!-- FloraChina.ChineseOakSpecies1&#45;&gt;FloraMexico.MexicanOakSpecies2 -->
<g id="edge2" class="edge"><title>FloraChina.ChineseOakSpecies1&#45;&gt;FloraMexico.MexicanOakSpecies2</title>
<path fill="none" stroke="#0000ff" stroke-dasharray="1,5" d="M428.625,-252.087C455.693,-247.407 481.588,-236.32 496,-213 517.029,-178.974 517.029,-157.026 496,-123 488.601,-111.028 478.176,-102.281 466.12,-95.9683"/>
</g>
<!-- FloraChina.ChineseOakSpecies2 -->
<g id="node2" class="node"><title>FloraChina.ChineseOakSpecies2</title>
<polygon fill="#ccffcc" stroke="black" points="428.5,-213 233.5,-213 233.5,-177 428.5,-177 428.5,-213"/>
<text text-anchor="middle" x="331" y="-191.3" font-family="Times,serif" font-size="14.00">FloraChina.ChineseOakSpecies2</text>
</g>
<!-- FloraChina.ChineseOakSpecies2&#45;&gt;FloraChina.OakGenus\nFloraMexico.OakGenus -->
<g id="edge6" class="edge"><title>FloraChina.ChineseOakSpecies2&#45;&gt;FloraChina.OakGenus\nFloraMexico.OakGenus</title>
<path fill="none" stroke="#000000" d="M233.232,-184.754C208.575,-182.143 182.289,-179.36 158.366,-176.827"/>
<polygon fill="#000000" stroke="#000000" points="158.583,-173.331 148.27,-175.758 157.846,-180.292 158.583,-173.331"/>
</g>
<!-- FloraChina.ChineseOakSpecies2&#45;&gt;FloraMexico.MexicanOakSpecies1 -->
<g id="edge3" class="edge"><title>FloraChina.ChineseOakSpecies2&#45;&gt;FloraMexico.MexicanOakSpecies1</title>
<path fill="none" stroke="#0000ff" stroke-dasharray="1,5" d="M331,-176.79C331,-170.907 331,-165.024 331,-159.141"/>
</g>
<!-- FloraChina.ChineseOakSpecies2&#45;&gt;FloraMexico.MexicanOakSpecies2 -->
<g id="edge4" class="edge"><title>FloraChina.ChineseOakSpecies2&#45;&gt;FloraMexico.MexicanOakSpecies2</title>
<path fill="none" stroke="#0000ff" stroke-dasharray="1,5" d="M428.625,-198.087C455.693,-193.407 481.588,-182.32 496,-159 504.412,-145.39 504.412,-136.61 496,-123 488.601,-111.028 478.176,-102.281 466.12,-95.9683"/>
</g>
<!-- FloraMexico.MexicanOakSpecies1&#45;&gt;FloraChina.OakGenus\nFloraMexico.OakGenus -->
<g id="edge5" class="edge"><title>FloraMexico.MexicanOakSpecies1&#45;&gt;FloraChina.OakGenus\nFloraMexico.OakGenus</title>
<path fill="none" stroke="#000000" d="M218.895,-152.764C198.551,-154.918 177.641,-157.132 158.283,-159.182"/>
<polygon fill="#000000" stroke="#000000" points="157.889,-155.704 148.313,-160.237 158.626,-162.665 157.889,-155.704"/>
</g>
<!-- FloraMexico.MexicanOakSpecies2&#45;&gt;FloraChina.OakGenus\nFloraMexico.OakGenus -->
<g id="edge8" class="edge"><title>FloraMexico.MexicanOakSpecies2&#45;&gt;FloraChina.OakGenus\nFloraMexico.OakGenus</title>
<path fill="none" stroke="#000000" d="M234.394,-100.741C217.399,-104.294 200.019,-108.666 184,-114 160.716,-121.753 136.112,-133.593 116.183,-144.214"/>
<polygon fill="#000000" stroke="#000000" points="114.5,-141.145 107.377,-148.988 117.836,-147.298 114.5,-141.145"/>
</g>
<!-- Legend -->
<g id="node6" class="node"><title>Legend</title>
<polygon fill="white" stroke="black" points="613.5,-175 514.5,-175 514.5,1 613.5,1 613.5,-175"/>
<polygon fill="none" stroke="black" points="515,-149 515,-175 614,-175 614,-149 515,-149"/>
<text text-anchor="start" x="540" y="-158.3" font-family="Arial Black" font-size="14.00"> Nodes</text>
<polygon fill="#ccffcc" stroke="none" points="515,-124 515,-149 597,-149 597,-124 515,-124"/>
<polygon fill="none" stroke="black" points="515,-124 515,-149 597,-149 597,-124 515,-124"/>
<text text-anchor="start" x="525.5" y="-132.8" font-family="Times,serif" font-size="14.00">FloraChina</text>
<polygon fill="none" stroke="black" points="597,-124 597,-149 614,-149 614,-124 597,-124"/>
<text text-anchor="start" x="602" y="-132.8" font-family="Times,serif" font-size="14.00">2</text>
<polygon fill="#eeeeee" stroke="none" points="515,-99 515,-124 597,-124 597,-99 515,-99"/>
<polygon fill="none" stroke="black" points="515,-99 515,-124 597,-124 597,-99 515,-99"/>
<text text-anchor="start" x="540.5" y="-107.8" font-family="Times,serif" font-size="14.00">comb</text>
<polygon fill="none" stroke="black" points="597,-99 597,-124 614,-124 614,-99 597,-99"/>
<text text-anchor="start" x="602" y="-107.8" font-family="Times,serif" font-size="14.00">1</text>
<polygon fill="#ffffcc" stroke="none" points="515,-74 515,-99 597,-99 597,-74 515,-74"/>
<polygon fill="none" stroke="black" points="515,-74 515,-99 597,-99 597,-74 515,-74"/>
<text text-anchor="start" x="520.5" y="-82.8" font-family="Times,serif" font-size="14.00">FloraMexico</text>
<polygon fill="none" stroke="black" points="597,-74 597,-99 614,-99 614,-74 597,-74"/>
<text text-anchor="start" x="602" y="-82.8" font-family="Times,serif" font-size="14.00">2</text>
<polygon fill="none" stroke="black" points="515,-49 515,-74 614,-74 614,-49 515,-49"/>
<text text-anchor="start" x="538.5" y="-57.8" font-family="Arial Black" font-size="14.00"> Edges </text>
<polygon fill="none" stroke="black" points="515,-24 515,-49 597,-49 597,-24 515,-24"/>
<text text-anchor="start" x="533" y="-32.8" font-family="Times,serif" font-size="14.00" fill="#0000ff">overlaps</text>
<polygon fill="none" stroke="black" points="597,-24 597,-49 614,-49 614,-24 597,-24"/>
<text text-anchor="start" x="602" y="-32.8" font-family="Times,serif" font-size="14.00">4</text>
<polygon fill="none" stroke="black" points="515,1 515,-24 597,-24 597,1 515,1"/>
<text text-anchor="start" x="542" y="-7.8" font-family="Times,serif" font-size="14.00" fill="#000000">input</text>
<polygon fill="none" stroke="black" points="597,1 597,-24 614,-24 614,1 597,1"/>
<text text-anchor="start" x="602" y="-7.8" font-family="Times,serif" font-size="14.00">4</text>
</g>
</g>
</svg>
