<?xml version="1.0" encoding="UTF-8" standalone="no"?>
<!DOCTYPE svg PUBLIC "-//W3C//DTD SVG 1.1//EN"
 "http://www.w3.org/Graphics/SVG/1.1/DTD/svg11.dtd">
<!-- Generated by graphviz version 2.36.0 (20140111.2315)
 -->
<!-- Title: %3 Pages: 1 -->
<svg width="1088pt" height="182pt"
 viewBox="0.00 0.00 1088.00 182.00" xmlns="http://www.w3.org/2000/svg" xmlns:xlink="http://www.w3.org/1999/xlink">
<g id="graph0" class="graph" transform="scale(1 1) rotate(0) translate(4 178)">
<title>%3</title>
<polygon fill="white" stroke="none" points="-4,4 -4,-178 1084,-178 1084,4 -4,4"/>
<!-- FloraChina.OakGenus -->
<g id="node1" class="node"><title>FloraChina.OakGenus</title>
<polygon fill="#ccffcc" stroke="black" points="712,-120 574,-120 574,-84 712,-84 712,-120"/>
<text text-anchor="middle" x="643" y="-98.3" font-family="Times,serif" font-size="14.00">FloraChina.OakGenus</text>
</g>
<!-- FloraMexico.MexicanOakSpecies2 -->
<g id="node6" class="node"><title>FloraMexico.MexicanOakSpecies2</title>
<polygon fill="#ffffcc" stroke="black" points="538.06,-94.5442 538.06,-109.456 451.914,-120 330.086,-120 243.94,-109.456 243.94,-94.5442 330.086,-84 451.914,-84 538.06,-94.5442"/>
<text text-anchor="middle" x="391" y="-98.3" font-family="Times,serif" font-size="14.00">FloraMexico.MexicanOakSpecies2</text>
</g>
<!-- FloraChina.OakGenus&#45;&gt;FloraMexico.MexicanOakSpecies2 -->
<g id="edge5" class="edge"><title>FloraChina.OakGenus&#45;&gt;FloraMexico.MexicanOakSpecies2</title>
<path fill="none" stroke="#ff0000" d="M573.686,-102C565.685,-102 557.291,-102 548.682,-102"/>
<polygon fill="#ff0000" stroke="#ff0000" points="548.488,-98.5001 538.488,-102 548.488,-105.5 548.488,-98.5001"/>
</g>
<!-- FloraChina.ChineseOakSpecies1 -->
<g id="node2" class="node"><title>FloraChina.ChineseOakSpecies1</title>
<polygon fill="#ccffcc" stroke="black" points="943.5,-147 748.5,-147 748.5,-111 943.5,-111 943.5,-147"/>
<text text-anchor="middle" x="846" y="-125.3" font-family="Times,serif" font-size="14.00">FloraChina.ChineseOakSpecies1</text>
</g>
<!-- FloraChina.ChineseOakSpecies1&#45;&gt;FloraChina.OakGenus -->
<g id="edge4" class="edge"><title>FloraChina.ChineseOakSpecies1&#45;&gt;FloraChina.OakGenus</title>
<path fill="none" stroke="#000000" d="M748.327,-116.014C739.508,-114.829 730.65,-113.64 722.024,-112.481"/>
<polygon fill="#000000" stroke="#000000" points="722.399,-109 712.022,-111.137 721.467,-115.938 722.399,-109"/>
</g>
<!-- FloraChina.ChineseOakSpecies2 -->
<g id="node3" class="node"><title>FloraChina.ChineseOakSpecies2</title>
<polygon fill="#ccffcc" stroke="black" points="943.5,-93 748.5,-93 748.5,-57 943.5,-57 943.5,-93"/>
<text text-anchor="middle" x="846" y="-71.3" font-family="Times,serif" font-size="14.00">FloraChina.ChineseOakSpecies2</text>
</g>
<!-- FloraChina.ChineseOakSpecies2&#45;&gt;FloraChina.OakGenus -->
<g id="edge3" class="edge"><title>FloraChina.ChineseOakSpecies2&#45;&gt;FloraChina.OakGenus</title>
<path fill="none" stroke="#000000" d="M748.327,-87.986C739.508,-89.1706 730.65,-90.3605 722.024,-91.5191"/>
<polygon fill="#000000" stroke="#000000" points="721.467,-88.0625 712.022,-92.8627 722.399,-95.0001 721.467,-88.0625"/>
</g>
<!-- FloraMexico.MexicanOakSpecies1 -->
<g id="node4" class="node"><title>FloraMexico.MexicanOakSpecies1</title>
<polygon fill="#ffffcc" stroke="black" points="538.06,-148.544 538.06,-163.456 451.914,-174 330.086,-174 243.94,-163.456 243.94,-148.544 330.086,-138 451.914,-138 538.06,-148.544"/>
<text text-anchor="middle" x="391" y="-152.3" font-family="Times,serif" font-size="14.00">FloraMexico.MexicanOakSpecies1</text>
</g>
<!-- FloraMexico.OakGenus -->
<g id="node5" class="node"><title>FloraMexico.OakGenus</title>
<polygon fill="#ffffcc" stroke="black" points="208.234,-121.544 208.234,-136.456 147.175,-147 60.8249,-147 -0.233914,-136.456 -0.233914,-121.544 60.8249,-111 147.175,-111 208.234,-121.544"/>
<text text-anchor="middle" x="104" y="-125.3" font-family="Times,serif" font-size="14.00">FloraMexico.OakGenus</text>
</g>
<!-- FloraMexico.MexicanOakSpecies1&#45;&gt;FloraMexico.OakGenus -->
<g id="edge2" class="edge"><title>FloraMexico.MexicanOakSpecies1&#45;&gt;FloraMexico.OakGenus</title>
<path fill="none" stroke="#000000" d="M273.257,-144.94C252.252,-142.95 230.475,-140.887 209.834,-138.932"/>
<polygon fill="#000000" stroke="#000000" points="210.086,-135.44 199.8,-137.981 209.426,-142.409 210.086,-135.44"/>
</g>
<!-- FloraMexico.MexicanOakSpecies2&#45;&gt;FloraMexico.OakGenus -->
<g id="edge1" class="edge"><title>FloraMexico.MexicanOakSpecies2&#45;&gt;FloraMexico.OakGenus</title>
<path fill="none" stroke="#000000" d="M273.257,-113.06C252.252,-115.05 230.475,-117.113 209.834,-119.068"/>
<polygon fill="#000000" stroke="#000000" points="209.426,-115.591 199.8,-120.019 210.086,-122.56 209.426,-115.591"/>
</g>
<!-- Legend -->
<g id="node7" class="node"><title>Legend</title>
<polygon fill="white" stroke="black" points="1079.5,-150.5 980.5,-150.5 980.5,0.5 1079.5,0.5 1079.5,-150.5"/>
<polygon fill="none" stroke="black" points="981,-124 981,-150 1080,-150 1080,-124 981,-124"/>
<text text-anchor="start" x="1006" y="-133.3" font-family="Arial Black" font-size="14.00"> Nodes</text>
<polygon fill="#ccffcc" stroke="none" points="981,-99 981,-124 1063,-124 1063,-99 981,-99"/>
<polygon fill="none" stroke="black" points="981,-99 981,-124 1063,-124 1063,-99 981,-99"/>
<text text-anchor="start" x="991.5" y="-107.8" font-family="Times,serif" font-size="14.00">FloraChina</text>
<polygon fill="none" stroke="black" points="1063,-99 1063,-124 1080,-124 1080,-99 1063,-99"/>
<text text-anchor="start" x="1068" y="-107.8" font-family="Times,serif" font-size="14.00">3</text>
<polygon fill="#ffffcc" stroke="none" points="981,-74 981,-99 1063,-99 1063,-74 981,-74"/>
<polygon fill="none" stroke="black" points="981,-74 981,-99 1063,-99 1063,-74 981,-74"/>
<text text-anchor="start" x="986.5" y="-82.8" font-family="Times,serif" font-size="14.00">FloraMexico</text>
<polygon fill="none" stroke="black" points="1063,-74 1063,-99 1080,-99 1080,-74 1063,-74"/>
<text text-anchor="start" x="1068" y="-82.8" font-family="Times,serif" font-size="14.00">3</text>
<polygon fill="none" stroke="black" points="981,-49 981,-74 1080,-74 1080,-49 981,-49"/>
<text text-anchor="start" x="1004.5" y="-57.8" font-family="Arial Black" font-size="14.00"> Edges </text>
<polygon fill="none" stroke="black" points="981,-24 981,-49 1063,-49 1063,-24 981,-24"/>
<text text-anchor="start" x="1008" y="-32.8" font-family="Times,serif" font-size="14.00" fill="#000000">input</text>
<polygon fill="none" stroke="black" points="1063,-24 1063,-49 1080,-49 1080,-24 1063,-24"/>
<text text-anchor="start" x="1068" y="-32.8" font-family="Times,serif" font-size="14.00">4</text>
<polygon fill="none" stroke="black" points="981,1 981,-24 1063,-24 1063,1 981,1"/>
<text text-anchor="start" x="1000.5" y="-7.8" font-family="Times,serif" font-size="14.00" fill="#ff0000">inferred</text>
<polygon fill="none" stroke="black" points="1063,1 1063,-24 1080,-24 1080,1 1063,1"/>
<text text-anchor="start" x="1068" y="-7.8" font-family="Times,serif" font-size="14.00">1</text>
</g>
</g>
</svg>
