<?xml version="1.0" encoding="UTF-8" standalone="no"?>
<!DOCTYPE svg PUBLIC "-//W3C//DTD SVG 1.1//EN"
 "http://www.w3.org/Graphics/SVG/1.1/DTD/svg11.dtd">
<!-- Generated by graphviz version 2.36.0 (20140111.2315)
 -->
<!-- Title: %3 Pages: 1 -->
<svg width="856pt" height="251pt"
 viewBox="0.00 0.00 856.00 251.00" xmlns="http://www.w3.org/2000/svg" xmlns:xlink="http://www.w3.org/1999/xlink">
<g id="graph0" class="graph" transform="scale(1 1) rotate(0) translate(4 247)">
<title>%3</title>
<polygon fill="white" stroke="none" points="-4,4 -4,-247 852,-247 852,4 -4,4"/>
<!-- FloraChina.ChineseOakSpecies1 -->
<g id="node1" class="node"><title>FloraChina.ChineseOakSpecies1</title>
<polygon fill="#ccffcc" stroke="black" points="662.5,-243 467.5,-243 467.5,-207 662.5,-207 662.5,-243"/>
<text text-anchor="middle" x="565" y="-221.3" font-family="Times,serif" font-size="14.00">FloraChina.ChineseOakSpecies1</text>
</g>
<!-- FloraChina.OakGenus -->
<g id="node3" class="node"><title>FloraChina.OakGenus</title>
<polygon fill="#ccffcc" stroke="black" points="138,-220 0,-220 0,-184 138,-184 138,-220"/>
<text text-anchor="middle" x="69" y="-198.3" font-family="Times,serif" font-size="14.00">FloraChina.OakGenus</text>
</g>
<!-- FloraChina.ChineseOakSpecies1&#45;&gt;FloraChina.OakGenus -->
<g id="edge8" class="edge"><title>FloraChina.ChineseOakSpecies1&#45;&gt;FloraChina.OakGenus</title>
<path fill="none" stroke="#000000" d="M467.285,-220.497C374.07,-216.157 234.786,-209.672 148.315,-205.646"/>
<polygon fill="#000000" stroke="#000000" points="148.45,-202.149 138.298,-205.18 148.124,-209.141 148.45,-202.149"/>
</g>
<!-- FloraChina.ChineseOakSpecies2 -->
<g id="node2" class="node"><title>FloraChina.ChineseOakSpecies2</title>
<polygon fill="#ccffcc" stroke="black" points="375.5,-197 180.5,-197 180.5,-161 375.5,-161 375.5,-197"/>
<text text-anchor="middle" x="278" y="-175.3" font-family="Times,serif" font-size="14.00">FloraChina.ChineseOakSpecies2</text>
</g>
<!-- FloraChina.ChineseOakSpecies2&#45;&gt;FloraChina.OakGenus -->
<g id="edge6" class="edge"><title>FloraChina.ChineseOakSpecies2&#45;&gt;FloraChina.OakGenus</title>
<path fill="none" stroke="#000000" d="M180.469,-189.726C169.606,-190.933 158.641,-192.151 148.054,-193.327"/>
<polygon fill="#000000" stroke="#000000" points="147.587,-189.858 138.035,-194.441 148.36,-196.815 147.587,-189.858"/>
</g>
<!-- FloraMexico.OakGenus -->
<g id="node5" class="node"><title>FloraMexico.OakGenus</title>
<polygon fill="#ffffcc" stroke="black" points="382.234,-79.5442 382.234,-94.4558 321.175,-105 234.825,-105 173.766,-94.4558 173.766,-79.5442 234.825,-69 321.175,-69 382.234,-79.5442"/>
<text text-anchor="middle" x="278" y="-83.3" font-family="Times,serif" font-size="14.00">FloraMexico.OakGenus</text>
</g>
<!-- FloraChina.ChineseOakSpecies2&#45;&gt;FloraMexico.OakGenus -->
<g id="edge2" class="edge"><title>FloraChina.ChineseOakSpecies2&#45;&gt;FloraMexico.OakGenus</title>
<path fill="none" stroke="#0000ff" stroke-dasharray="1,5" d="M278,-160.87C278,-142.356 278,-123.842 278,-105.328"/>
</g>
<!-- FloraMexico.MexicanOakSpecies2 -->
<g id="node6" class="node"><title>FloraMexico.MexicanOakSpecies2</title>
<polygon fill="#ffffcc" stroke="black" points="712.06,-79.5442 712.06,-94.4558 625.914,-105 504.086,-105 417.94,-94.4558 417.94,-79.5442 504.086,-69 625.914,-69 712.06,-79.5442"/>
<text text-anchor="middle" x="565" y="-83.3" font-family="Times,serif" font-size="14.00">FloraMexico.MexicanOakSpecies2</text>
</g>
<!-- FloraChina.ChineseOakSpecies2&#45;&gt;FloraMexico.MexicanOakSpecies2 -->
<g id="edge4" class="edge"><title>FloraChina.ChineseOakSpecies2&#45;&gt;FloraMexico.MexicanOakSpecies2</title>
<path fill="none" stroke="#0000ff" stroke-dasharray="1,5" d="M342.755,-160.967C355.872,-156.764 369.492,-152.031 382,-147 398.596,-140.324 401.334,-135.5 418,-129 442.695,-119.368 470.502,-110.826 495.171,-104.002"/>
</g>
<!-- FloraChina.OakGenus&#45;&gt;FloraMexico.OakGenus -->
<g id="edge1" class="edge"><title>FloraChina.OakGenus&#45;&gt;FloraMexico.OakGenus</title>
<path fill="none" stroke="#0000ff" stroke-dasharray="1,5" d="M88.3942,-183.735C108.071,-165.108 140.935,-136.526 174,-119 187.07,-112.072 201.882,-106.373 216.117,-101.803"/>
</g>
<!-- FloraChina.OakGenus&#45;&gt;FloraMexico.MexicanOakSpecies2 -->
<g id="edge3" class="edge"><title>FloraChina.OakGenus&#45;&gt;FloraMexico.MexicanOakSpecies2</title>
<path fill="none" stroke="#0000ff" stroke-dasharray="1,5" d="M101.818,-183.79C121.926,-173.027 148.789,-159.983 174,-152 201.853,-143.181 365.147,-117.344 471.417,-101.025"/>
</g>
<!-- FloraMexico.MexicanOakSpecies1 -->
<g id="node4" class="node"><title>FloraMexico.MexicanOakSpecies1</title>
<polygon fill="#ffffcc" stroke="black" points="712.06,-148.544 712.06,-163.456 625.914,-174 504.086,-174 417.94,-163.456 417.94,-148.544 504.086,-138 625.914,-138 712.06,-148.544"/>
<text text-anchor="middle" x="565" y="-152.3" font-family="Times,serif" font-size="14.00">FloraMexico.MexicanOakSpecies1</text>
</g>
<!-- FloraMexico.MexicanOakSpecies1&#45;&gt;FloraChina.ChineseOakSpecies2 -->
<g id="edge9" class="edge"><title>FloraMexico.MexicanOakSpecies1&#45;&gt;FloraChina.ChineseOakSpecies2</title>
<path fill="none" stroke="#ff0000" d="M438.995,-166.088C421.241,-167.521 403.12,-168.983 385.756,-170.385"/>
<polygon fill="#ff0000" stroke="#ff0000" points="385.314,-166.909 375.628,-171.202 385.877,-173.886 385.314,-166.909"/>
</g>
<!-- FloraMexico.MexicanOakSpecies1&#45;&gt;FloraMexico.OakGenus -->
<g id="edge7" class="edge"><title>FloraMexico.MexicanOakSpecies1&#45;&gt;FloraMexico.OakGenus</title>
<path fill="none" stroke="#000000" d="M494.281,-139.121C450.464,-128.512 394.098,-114.866 350.033,-104.198"/>
<polygon fill="#000000" stroke="#000000" points="350.8,-100.782 340.257,-101.831 349.153,-107.586 350.8,-100.782"/>
</g>
<!-- FloraMexico.MexicanOakSpecies2&#45;&gt;FloraMexico.OakGenus -->
<g id="edge5" class="edge"><title>FloraMexico.MexicanOakSpecies2&#45;&gt;FloraMexico.OakGenus</title>
<path fill="none" stroke="#000000" d="M417.743,-87C409.29,-87 400.854,-87 392.555,-87"/>
<polygon fill="#000000" stroke="#000000" points="392.508,-83.5001 382.508,-87 392.508,-90.5001 392.508,-83.5001"/>
</g>
<!-- Legend -->
<g id="node7" class="node"><title>Legend</title>
<polygon fill="white" stroke="black" points="847.5,-175 748.5,-175 748.5,1 847.5,1 847.5,-175"/>
<polygon fill="none" stroke="black" points="749,-149 749,-175 848,-175 848,-149 749,-149"/>
<text text-anchor="start" x="774" y="-158.3" font-family="Arial Black" font-size="14.00"> Nodes</text>
<polygon fill="#ccffcc" stroke="none" points="749,-124 749,-149 831,-149 831,-124 749,-124"/>
<polygon fill="none" stroke="black" points="749,-124 749,-149 831,-149 831,-124 749,-124"/>
<text text-anchor="start" x="759.5" y="-132.8" font-family="Times,serif" font-size="14.00">FloraChina</text>
<polygon fill="none" stroke="black" points="831,-124 831,-149 848,-149 848,-124 831,-124"/>
<text text-anchor="start" x="836" y="-132.8" font-family="Times,serif" font-size="14.00">3</text>
<polygon fill="#ffffcc" stroke="none" points="749,-99 749,-124 831,-124 831,-99 749,-99"/>
<polygon fill="none" stroke="black" points="749,-99 749,-124 831,-124 831,-99 749,-99"/>
<text text-anchor="start" x="754.5" y="-107.8" font-family="Times,serif" font-size="14.00">FloraMexico</text>
<polygon fill="none" stroke="black" points="831,-99 831,-124 848,-124 848,-99 831,-99"/>
<text text-anchor="start" x="836" y="-107.8" font-family="Times,serif" font-size="14.00">3</text>
<polygon fill="none" stroke="black" points="749,-74 749,-99 848,-99 848,-74 749,-74"/>
<text text-anchor="start" x="772.5" y="-82.8" font-family="Arial Black" font-size="14.00"> Edges </text>
<polygon fill="none" stroke="black" points="749,-49 749,-74 831,-74 831,-49 749,-49"/>
<text text-anchor="start" x="767" y="-57.8" font-family="Times,serif" font-size="14.00" fill="#0000ff">overlaps</text>
<polygon fill="none" stroke="black" points="831,-49 831,-74 848,-74 848,-49 831,-49"/>
<text text-anchor="start" x="836" y="-57.8" font-family="Times,serif" font-size="14.00">4</text>
<polygon fill="none" stroke="black" points="749,-24 749,-49 831,-49 831,-24 749,-24"/>
<text text-anchor="start" x="776" y="-32.8" font-family="Times,serif" font-size="14.00" fill="#000000">input</text>
<polygon fill="none" stroke="black" points="831,-24 831,-49 848,-49 848,-24 831,-24"/>
<text text-anchor="start" x="836" y="-32.8" font-family="Times,serif" font-size="14.00">4</text>
<polygon fill="none" stroke="black" points="749,1 749,-24 831,-24 831,1 749,1"/>
<text text-anchor="start" x="768.5" y="-7.8" font-family="Times,serif" font-size="14.00" fill="#ff0000">inferred</text>
<polygon fill="none" stroke="black" points="831,1 831,-24 848,-24 848,1 831,1"/>
<text text-anchor="start" x="836" y="-7.8" font-family="Times,serif" font-size="14.00">1</text>
</g>
</g>
</svg>
