<?xml version="1.0" encoding="UTF-8" standalone="no"?>
<!DOCTYPE svg PUBLIC "-//W3C//DTD SVG 1.1//EN"
 "http://www.w3.org/Graphics/SVG/1.1/DTD/svg11.dtd">
<!-- Generated by graphviz version 2.36.0 (20140111.2315)
 -->
<!-- Title: %3 Pages: 1 -->
<svg width="1106pt" height="189pt"
 viewBox="0.00 0.00 1106.00 189.00" xmlns="http://www.w3.org/2000/svg" xmlns:xlink="http://www.w3.org/1999/xlink">
<g id="graph0" class="graph" transform="scale(1 1) rotate(0) translate(4 185)">
<title>%3</title>
<polygon fill="white" stroke="none" points="-4,4 -4,-185 1102,-185 1102,4 -4,4"/>
<!-- FloraChina.ChineseOakSpecies1 -->
<g id="node1" class="node"><title>FloraChina.ChineseOakSpecies1</title>
<polygon fill="#ccffcc" stroke="black" points="511.5,-152 316.5,-152 316.5,-116 511.5,-116 511.5,-152"/>
<text text-anchor="middle" x="414" y="-130.3" font-family="Times,serif" font-size="14.00">FloraChina.ChineseOakSpecies1</text>
</g>
<!-- FloraMexico.MexicanOakSpecies1 -->
<g id="node5" class="node"><title>FloraMexico.MexicanOakSpecies1</title>
<polygon fill="#ffffcc" stroke="black" points="852.06,-105.544 852.06,-120.456 765.914,-131 644.086,-131 557.94,-120.456 557.94,-105.544 644.086,-95 765.914,-95 852.06,-105.544"/>
<text text-anchor="middle" x="705" y="-109.3" font-family="Times,serif" font-size="14.00">FloraMexico.MexicanOakSpecies1</text>
</g>
<!-- FloraChina.ChineseOakSpecies1&#45;&gt;FloraMexico.MexicanOakSpecies1 -->
<g id="edge6" class="edge"><title>FloraChina.ChineseOakSpecies1&#45;&gt;FloraMexico.MexicanOakSpecies1</title>
<path fill="none" stroke="#aa00ff" stroke-width="3" stroke-dasharray="1,5" d="M511.635,-126.978C528.369,-125.762 546.07,-124.476 563.687,-123.196"/>
<polygon fill="#aa00ff" stroke="#aa00ff" stroke-width="3" points="564.322,-126.659 574.042,-122.443 563.815,-119.677 564.322,-126.659"/>
<text text-anchor="middle" x="535" y="-128.8" font-family="Times,serif" font-size="14.00">&lt;</text>
</g>
<!-- FloraChina.ChineseOakSpecies2 -->
<g id="node2" class="node"><title>FloraChina.ChineseOakSpecies2</title>
<polygon fill="#ccffcc" stroke="black" points="511.5,-111 316.5,-111 316.5,-75 511.5,-75 511.5,-111"/>
<text text-anchor="middle" x="414" y="-89.3" font-family="Times,serif" font-size="14.00">FloraChina.ChineseOakSpecies2</text>
</g>
<!-- FloraChina.OakGenus -->
<g id="node3" class="node"><title>FloraChina.OakGenus</title>
<polygon fill="#ccffcc" stroke="black" points="278,-112 140,-112 140,-76 278,-76 278,-112"/>
<text text-anchor="middle" x="209" y="-90.3" font-family="Times,serif" font-size="14.00">FloraChina.OakGenus</text>
</g>
<!-- FloraChina.OakGenus&#45;&gt;FloraChina.ChineseOakSpecies1 -->
<g id="edge1" class="edge"><title>FloraChina.OakGenus&#45;&gt;FloraChina.ChineseOakSpecies1</title>
<path fill="none" stroke="#000000" d="M288.1,-109.389C299.058,-111.548 310.4,-113.783 321.578,-115.986"/>
<polygon fill="#000000" stroke="#000000" points="288.649,-105.93 278.161,-107.431 287.295,-112.798 288.649,-105.93"/>
</g>
<!-- FloraChina.OakGenus&#45;&gt;FloraChina.ChineseOakSpecies2 -->
<g id="edge2" class="edge"><title>FloraChina.OakGenus&#45;&gt;FloraChina.ChineseOakSpecies2</title>
<path fill="none" stroke="#000000" d="M288.322,-93.6142C297.436,-93.5693 306.813,-93.5231 316.138,-93.4772"/>
<polygon fill="#000000" stroke="#000000" points="288.143,-90.1149 278.161,-93.6642 288.178,-97.1148 288.143,-90.1149"/>
</g>
<!-- FloraMexico.OakGenus -->
<g id="node4" class="node"><title>FloraMexico.OakGenus</title>
<polygon fill="#ffffcc" stroke="black" points="1098.23,-48.5442 1098.23,-63.4558 1037.18,-74 950.825,-74 889.766,-63.4558 889.766,-48.5442 950.825,-38 1037.18,-38 1098.23,-48.5442"/>
<text text-anchor="middle" x="994" y="-52.3" font-family="Times,serif" font-size="14.00">FloraMexico.OakGenus</text>
</g>
<!-- FloraChina.OakGenus&#45;&gt;FloraMexico.OakGenus -->
<g id="edge5" class="edge"><title>FloraChina.OakGenus&#45;&gt;FloraMexico.OakGenus</title>
<path fill="none" stroke="#aa00ff" stroke-width="3" stroke-dasharray="1,5" d="M278.069,-76.4608C290.606,-73.8388 303.639,-71.5114 316,-70 512.891,-45.9256 744.337,-47.5042 879.256,-51.3783"/>
<polygon fill="#aa00ff" stroke="#aa00ff" stroke-width="3" points="879.503,-54.8871 889.602,-51.6854 879.711,-47.8902 879.503,-54.8871"/>
<text text-anchor="middle" x="535" y="-56.8" font-family="Times,serif" font-size="14.00">&gt;</text>
</g>
<!-- FloraMexico.MexicanOakSpecies1&#45;&gt;FloraMexico.OakGenus -->
<g id="edge4" class="edge"><title>FloraMexico.MexicanOakSpecies1&#45;&gt;FloraMexico.OakGenus</title>
<path fill="none" stroke="#000000" d="M785.184,-97.2736C825.564,-89.2538 874.512,-79.5325 914.758,-71.5394"/>
<polygon fill="#000000" stroke="#000000" points="915.665,-74.9276 924.792,-69.5466 914.301,-68.0617 915.665,-74.9276"/>
</g>
<!-- FloraMexico.MexicanOakSpecies2 -->
<g id="node6" class="node"><title>FloraMexico.MexicanOakSpecies2</title>
<polygon fill="#ffffcc" stroke="black" points="852.06,-10.5442 852.06,-25.4558 765.914,-36 644.086,-36 557.94,-25.4558 557.94,-10.5442 644.086,-3.55271e-15 765.914,-0 852.06,-10.5442"/>
<text text-anchor="middle" x="705" y="-14.3" font-family="Times,serif" font-size="14.00">FloraMexico.MexicanOakSpecies2</text>
</g>
<!-- FloraMexico.MexicanOakSpecies2&#45;&gt;FloraMexico.OakGenus -->
<g id="edge3" class="edge"><title>FloraMexico.MexicanOakSpecies2&#45;&gt;FloraMexico.OakGenus</title>
<path fill="none" stroke="#000000" d="M805.573,-31.1839C836.119,-35.2283 869.604,-39.6618 899.713,-43.6485"/>
<polygon fill="#000000" stroke="#000000" points="899.413,-47.1392 909.786,-44.9821 900.332,-40.1997 899.413,-47.1392"/>
</g>
<!-- Legend -->
<g id="node7" class="node"><title>Legend</title>
<polygon fill="white" stroke="black" points="121.5,-182 0.5,-182 0.5,-6 121.5,-6 121.5,-182"/>
<polygon fill="none" stroke="black" points="1,-156 1,-182 122,-182 122,-156 1,-156"/>
<text text-anchor="start" x="37" y="-165.3" font-family="Arial Black" font-size="14.00"> Nodes</text>
<polygon fill="#ccffcc" stroke="none" points="1,-131 1,-156 105,-156 105,-131 1,-131"/>
<polygon fill="none" stroke="black" points="1,-131 1,-156 105,-156 105,-131 1,-131"/>
<text text-anchor="start" x="22.5" y="-139.8" font-family="Times,serif" font-size="14.00">FloraChina</text>
<polygon fill="none" stroke="black" points="105,-131 105,-156 122,-156 122,-131 105,-131"/>
<text text-anchor="start" x="110" y="-139.8" font-family="Times,serif" font-size="14.00">3</text>
<polygon fill="#ffffcc" stroke="none" points="1,-106 1,-131 105,-131 105,-106 1,-106"/>
<polygon fill="none" stroke="black" points="1,-106 1,-131 105,-131 105,-106 1,-106"/>
<text text-anchor="start" x="17.5" y="-114.8" font-family="Times,serif" font-size="14.00">FloraMexico</text>
<polygon fill="none" stroke="black" points="105,-106 105,-131 122,-131 122,-106 105,-106"/>
<text text-anchor="start" x="110" y="-114.8" font-family="Times,serif" font-size="14.00">3</text>
<polygon fill="none" stroke="black" points="1,-81 1,-106 122,-106 122,-81 1,-81"/>
<text text-anchor="start" x="35.5" y="-89.8" font-family="Arial Black" font-size="14.00"> Edges </text>
<polygon fill="none" stroke="black" points="1,-56 1,-81 105,-81 105,-56 1,-56"/>
<text text-anchor="start" x="11.5" y="-64.8" font-family="Times,serif" font-size="14.00" fill="#000000">isa_FloraChina</text>
<polygon fill="none" stroke="black" points="105,-56 105,-81 122,-81 122,-56 105,-56"/>
<text text-anchor="start" x="110" y="-64.8" font-family="Times,serif" font-size="14.00">2</text>
<polygon fill="none" stroke="black" points="1,-31 1,-56 105,-56 105,-31 1,-31"/>
<text text-anchor="start" x="6.5" y="-39.8" font-family="Times,serif" font-size="14.00" fill="#000000">isa_FloraMexico</text>
<polygon fill="none" stroke="black" points="105,-31 105,-56 122,-56 122,-31 105,-31"/>
<text text-anchor="start" x="110" y="-39.8" font-family="Times,serif" font-size="14.00">2</text>
<polygon fill="none" stroke="black" points="1,-6 1,-31 105,-31 105,-6 1,-6"/>
<text text-anchor="start" x="42" y="-14.8" font-family="Times,serif" font-size="14.00" fill="#aa00ff">Art.</text>
<polygon fill="none" stroke="black" points="105,-6 105,-31 122,-31 122,-6 105,-6"/>
<text text-anchor="start" x="110" y="-14.8" font-family="Times,serif" font-size="14.00">2</text>
</g>
</g>
</svg>
