<?xml version="1.0" encoding="UTF-8" standalone="no"?>
<!DOCTYPE svg PUBLIC "-//W3C//DTD SVG 1.1//EN"
 "http://www.w3.org/Graphics/SVG/1.1/DTD/svg11.dtd">
<!-- Generated by graphviz version 2.36.0 (20140111.2315)
 -->
<!-- Title: %3 Pages: 1 -->
<svg width="914pt" height="158pt"
 viewBox="0.00 0.00 914.00 158.00" xmlns="http://www.w3.org/2000/svg" xmlns:xlink="http://www.w3.org/1999/xlink">
<g id="graph0" class="graph" transform="scale(1 1) rotate(0) translate(4 154)">
<title>%3</title>
<polygon fill="white" stroke="none" points="-4,4 -4,-154 910,-154 910,4 -4,4"/>
<!-- FloraChina.ChineseOakSpecies1 -->
<g id="node1" class="node"><title>FloraChina.ChineseOakSpecies1</title>
<polygon fill="#ccffcc" stroke="black" points="769.5,-147 574.5,-147 574.5,-111 769.5,-111 769.5,-147"/>
<text text-anchor="middle" x="672" y="-125.3" font-family="Times,serif" font-size="14.00">FloraChina.ChineseOakSpecies1</text>
</g>
<!-- FloraChina.OakGenus\nFloraMexico.MexicanOakSpecies1 -->
<g id="node3" class="node"><title>FloraChina.OakGenus\nFloraMexico.MexicanOakSpecies1</title>
<path fill="#eeeeee" stroke="black" d="M483.5,-121C483.5,-121 298.5,-121 298.5,-121 292.5,-121 286.5,-115 286.5,-109 286.5,-109 286.5,-95 286.5,-95 286.5,-89 292.5,-83 298.5,-83 298.5,-83 483.5,-83 483.5,-83 489.5,-83 495.5,-89 495.5,-95 495.5,-95 495.5,-109 495.5,-109 495.5,-115 489.5,-121 483.5,-121"/>
<text text-anchor="middle" x="391" y="-105.8" font-family="Times,serif" font-size="14.00">FloraChina.OakGenus</text>
<text text-anchor="middle" x="391" y="-90.8" font-family="Times,serif" font-size="14.00">FloraMexico.MexicanOakSpecies1</text>
</g>
<!-- FloraChina.ChineseOakSpecies1&#45;&gt;FloraChina.OakGenus\nFloraMexico.MexicanOakSpecies1 -->
<g id="edge3" class="edge"><title>FloraChina.ChineseOakSpecies1&#45;&gt;FloraChina.OakGenus\nFloraMexico.MexicanOakSpecies1</title>
<path fill="none" stroke="#000000" d="M574.202,-119.632C552.13,-117.496 528.478,-115.208 505.769,-113.01"/>
<polygon fill="#000000" stroke="#000000" points="506.048,-109.521 495.758,-112.041 505.374,-116.488 506.048,-109.521"/>
</g>
<!-- FloraChina.ChineseOakSpecies2 -->
<g id="node2" class="node"><title>FloraChina.ChineseOakSpecies2</title>
<polygon fill="#ccffcc" stroke="black" points="769.5,-93 574.5,-93 574.5,-57 769.5,-57 769.5,-93"/>
<text text-anchor="middle" x="672" y="-71.3" font-family="Times,serif" font-size="14.00">FloraChina.ChineseOakSpecies2</text>
</g>
<!-- FloraChina.ChineseOakSpecies2&#45;&gt;FloraChina.OakGenus\nFloraMexico.MexicanOakSpecies1 -->
<g id="edge2" class="edge"><title>FloraChina.ChineseOakSpecies2&#45;&gt;FloraChina.OakGenus\nFloraMexico.MexicanOakSpecies1</title>
<path fill="none" stroke="#000000" d="M574.202,-84.3675C552.13,-86.5036 528.478,-88.7924 505.769,-90.9901"/>
<polygon fill="#000000" stroke="#000000" points="505.374,-87.5119 495.758,-91.9589 506.048,-94.4793 505.374,-87.5119"/>
</g>
<!-- FloraMexico.OakGenus -->
<g id="node4" class="node"><title>FloraMexico.OakGenus</title>
<polygon fill="#ffffcc" stroke="black" points="208.234,-66.5442 208.234,-81.4558 147.175,-92 60.8249,-92 -0.233914,-81.4558 -0.233914,-66.5442 60.8249,-56 147.175,-56 208.234,-66.5442"/>
<text text-anchor="middle" x="104" y="-70.3" font-family="Times,serif" font-size="14.00">FloraMexico.OakGenus</text>
</g>
<!-- FloraChina.OakGenus\nFloraMexico.MexicanOakSpecies1&#45;&gt;FloraMexico.OakGenus -->
<g id="edge4" class="edge"><title>FloraChina.OakGenus\nFloraMexico.MexicanOakSpecies1&#45;&gt;FloraMexico.OakGenus</title>
<path fill="none" stroke="#000000" d="M286.302,-91.8122C261.011,-89.3274 233.955,-86.6693 208.665,-84.1847"/>
<polygon fill="#000000" stroke="#000000" points="208.99,-80.6998 198.696,-83.2052 208.306,-87.6663 208.99,-80.6998"/>
</g>
<!-- FloraMexico.MexicanOakSpecies2 -->
<g id="node5" class="node"><title>FloraMexico.MexicanOakSpecies2</title>
<polygon fill="#ffffcc" stroke="black" points="538.06,-39.5442 538.06,-54.4558 451.914,-65 330.086,-65 243.94,-54.4558 243.94,-39.5442 330.086,-29 451.914,-29 538.06,-39.5442"/>
<text text-anchor="middle" x="391" y="-43.3" font-family="Times,serif" font-size="14.00">FloraMexico.MexicanOakSpecies2</text>
</g>
<!-- FloraMexico.MexicanOakSpecies2&#45;&gt;FloraMexico.OakGenus -->
<g id="edge1" class="edge"><title>FloraMexico.MexicanOakSpecies2&#45;&gt;FloraMexico.OakGenus</title>
<path fill="none" stroke="#000000" d="M273.257,-58.0598C252.252,-60.0498 230.475,-62.1129 209.834,-64.0684"/>
<polygon fill="#000000" stroke="#000000" points="209.426,-60.5913 199.8,-65.0189 210.086,-67.5601 209.426,-60.5913"/>
</g>
<!-- Legend -->
<g id="node6" class="node"><title>Legend</title>
<polygon fill="white" stroke="black" points="905.5,-150.5 806.5,-150.5 806.5,0.5 905.5,0.5 905.5,-150.5"/>
<polygon fill="none" stroke="black" points="807,-124 807,-150 906,-150 906,-124 807,-124"/>
<text text-anchor="start" x="832" y="-133.3" font-family="Arial Black" font-size="14.00"> Nodes</text>
<polygon fill="#ccffcc" stroke="none" points="807,-99 807,-124 889,-124 889,-99 807,-99"/>
<polygon fill="none" stroke="black" points="807,-99 807,-124 889,-124 889,-99 807,-99"/>
<text text-anchor="start" x="817.5" y="-107.8" font-family="Times,serif" font-size="14.00">FloraChina</text>
<polygon fill="none" stroke="black" points="889,-99 889,-124 906,-124 906,-99 889,-99"/>
<text text-anchor="start" x="894" y="-107.8" font-family="Times,serif" font-size="14.00">2</text>
<polygon fill="#eeeeee" stroke="none" points="807,-74 807,-99 889,-99 889,-74 807,-74"/>
<polygon fill="none" stroke="black" points="807,-74 807,-99 889,-99 889,-74 807,-74"/>
<text text-anchor="start" x="832.5" y="-82.8" font-family="Times,serif" font-size="14.00">comb</text>
<polygon fill="none" stroke="black" points="889,-74 889,-99 906,-99 906,-74 889,-74"/>
<text text-anchor="start" x="894" y="-82.8" font-family="Times,serif" font-size="14.00">1</text>
<polygon fill="#ffffcc" stroke="none" points="807,-49 807,-74 889,-74 889,-49 807,-49"/>
<polygon fill="none" stroke="black" points="807,-49 807,-74 889,-74 889,-49 807,-49"/>
<text text-anchor="start" x="812.5" y="-57.8" font-family="Times,serif" font-size="14.00">FloraMexico</text>
<polygon fill="none" stroke="black" points="889,-49 889,-74 906,-74 906,-49 889,-49"/>
<text text-anchor="start" x="894" y="-57.8" font-family="Times,serif" font-size="14.00">2</text>
<polygon fill="none" stroke="black" points="807,-24 807,-49 906,-49 906,-24 807,-24"/>
<text text-anchor="start" x="830.5" y="-32.8" font-family="Arial Black" font-size="14.00"> Edges </text>
<polygon fill="none" stroke="black" points="807,1 807,-24 889,-24 889,1 807,1"/>
<text text-anchor="start" x="834" y="-7.8" font-family="Times,serif" font-size="14.00" fill="#000000">input</text>
<polygon fill="none" stroke="black" points="889,1 889,-24 906,-24 906,1 889,1"/>
<text text-anchor="start" x="894" y="-7.8" font-family="Times,serif" font-size="14.00">4</text>
</g>
</g>
</svg>
