<?xml version="1.0" encoding="UTF-8" standalone="no"?>
<!DOCTYPE svg PUBLIC "-//W3C//DTD SVG 1.1//EN"
 "http://www.w3.org/Graphics/SVG/1.1/DTD/svg11.dtd">
<!-- Generated by graphviz version 2.36.0 (20140111.2315)
 -->
<!-- Title: %3 Pages: 1 -->
<svg width="914pt" height="201pt"
 viewBox="0.00 0.00 914.00 201.00" xmlns="http://www.w3.org/2000/svg" xmlns:xlink="http://www.w3.org/1999/xlink">
<g id="graph0" class="graph" transform="scale(1 1) rotate(0) translate(4 197)">
<title>%3</title>
<polygon fill="white" stroke="none" points="-4,4 -4,-197 910,-197 910,4 -4,4"/>
<!-- FloraChina.OakGenus -->
<g id="node1" class="node"><title>FloraChina.OakGenus</title>
<polygon fill="#ccffcc" stroke="black" points="460,-193 322,-193 322,-157 460,-157 460,-193"/>
<text text-anchor="middle" x="391" y="-171.3" font-family="Times,serif" font-size="14.00">FloraChina.OakGenus</text>
</g>
<!-- FloraMexico.MexicanOakSpecies1 -->
<g id="node4" class="node"><title>FloraMexico.MexicanOakSpecies1</title>
<polygon fill="#ffffcc" stroke="black" points="538.06,-21.5442 538.06,-36.4558 451.914,-47 330.086,-47 243.94,-36.4558 243.94,-21.5442 330.086,-11 451.914,-11 538.06,-21.5442"/>
<text text-anchor="middle" x="391" y="-25.3" font-family="Times,serif" font-size="14.00">FloraMexico.MexicanOakSpecies1</text>
</g>
<!-- FloraChina.OakGenus&#45;&gt;FloraMexico.MexicanOakSpecies1 -->
<g id="edge3" class="edge"><title>FloraChina.OakGenus&#45;&gt;FloraMexico.MexicanOakSpecies1</title>
<path fill="none" stroke="#0000ff" stroke-dasharray="1,5" d="M460.307,-178.494C496.171,-176.063 536.447,-165.637 556,-134 572.122,-107.913 572.122,-91.0866 556,-65 548.601,-53.0284 538.176,-44.2805 526.12,-37.9683"/>
</g>
<!-- FloraMexico.OakGenus -->
<g id="node5" class="node"><title>FloraMexico.OakGenus</title>
<polygon fill="#ffffcc" stroke="black" points="208.234,-48.5442 208.234,-63.4558 147.175,-74 60.8249,-74 -0.233914,-63.4558 -0.233914,-48.5442 60.8249,-38 147.175,-38 208.234,-48.5442"/>
<text text-anchor="middle" x="104" y="-52.3" font-family="Times,serif" font-size="14.00">FloraMexico.OakGenus</text>
</g>
<!-- FloraChina.OakGenus&#45;&gt;FloraMexico.OakGenus -->
<g id="edge1" class="edge"><title>FloraChina.OakGenus&#45;&gt;FloraMexico.OakGenus</title>
<path fill="none" stroke="#0000ff" stroke-dasharray="1,5" d="M321.668,-165.05C296.661,-160.113 268.505,-153.002 244,-143 200.245,-125.142 154.79,-93.8625 128.236,-74.0764"/>
</g>
<!-- FloraMexico.MexicanOakSpecies2 -->
<g id="node6" class="node"><title>FloraMexico.MexicanOakSpecies2</title>
<polygon fill="#ffffcc" stroke="black" points="538.06,-75.5442 538.06,-90.4558 451.914,-101 330.086,-101 243.94,-90.4558 243.94,-75.5442 330.086,-65 451.914,-65 538.06,-75.5442"/>
<text text-anchor="middle" x="391" y="-79.3" font-family="Times,serif" font-size="14.00">FloraMexico.MexicanOakSpecies2</text>
</g>
<!-- FloraChina.OakGenus&#45;&gt;FloraMexico.MexicanOakSpecies2 -->
<g id="edge4" class="edge"><title>FloraChina.OakGenus&#45;&gt;FloraMexico.MexicanOakSpecies2</title>
<path fill="none" stroke="#0000ff" stroke-dasharray="1,5" d="M391,-156.87C391,-138.356 391,-119.842 391,-101.328"/>
</g>
<!-- FloraChina.ChineseOakSpecies1 -->
<g id="node2" class="node"><title>FloraChina.ChineseOakSpecies1</title>
<polygon fill="#ccffcc" stroke="black" points="769.5,-93 574.5,-93 574.5,-57 769.5,-57 769.5,-93"/>
<text text-anchor="middle" x="672" y="-71.3" font-family="Times,serif" font-size="14.00">FloraChina.ChineseOakSpecies1</text>
</g>
<!-- FloraChina.ChineseOakSpecies1&#45;&gt;FloraChina.OakGenus -->
<g id="edge10" class="edge"><title>FloraChina.ChineseOakSpecies1&#45;&gt;FloraChina.OakGenus</title>
<path fill="none" stroke="#000000" d="M620.475,-93.1092C573.12,-110.082 502.288,-135.47 452.062,-153.472"/>
<polygon fill="#000000" stroke="#000000" points="450.852,-150.188 442.62,-156.857 453.214,-156.777 450.852,-150.188"/>
</g>
<!-- FloraChina.ChineseOakSpecies1&#45;&gt;FloraMexico.MexicanOakSpecies1 -->
<g id="edge7" class="edge"><title>FloraChina.ChineseOakSpecies1&#45;&gt;FloraMexico.MexicanOakSpecies1</title>
<path fill="none" stroke="#000000" d="M574.202,-59.0405C547.009,-54.557 517.42,-49.6785 490.148,-45.1821"/>
<polygon fill="#000000" stroke="#000000" points="490.651,-41.7178 480.214,-43.5443 489.512,-48.6246 490.651,-41.7178"/>
</g>
<!-- FloraChina.ChineseOakSpecies2 -->
<g id="node3" class="node"><title>FloraChina.ChineseOakSpecies2</title>
<polygon fill="#ccffcc" stroke="black" points="769.5,-193 574.5,-193 574.5,-157 769.5,-157 769.5,-193"/>
<text text-anchor="middle" x="672" y="-171.3" font-family="Times,serif" font-size="14.00">FloraChina.ChineseOakSpecies2</text>
</g>
<!-- FloraChina.ChineseOakSpecies2&#45;&gt;FloraChina.OakGenus -->
<g id="edge8" class="edge"><title>FloraChina.ChineseOakSpecies2&#45;&gt;FloraChina.OakGenus</title>
<path fill="none" stroke="#000000" d="M574.202,-175C540.26,-175 502.586,-175 470.345,-175"/>
<polygon fill="#000000" stroke="#000000" points="470.08,-171.5 460.08,-175 470.08,-178.5 470.08,-171.5"/>
</g>
<!-- FloraChina.ChineseOakSpecies2&#45;&gt;FloraMexico.OakGenus -->
<g id="edge2" class="edge"><title>FloraChina.ChineseOakSpecies2&#45;&gt;FloraMexico.OakGenus</title>
<path fill="none" stroke="#0000ff" stroke-dasharray="1,5" d="M586.739,-156.946C570.599,-153.757 553.806,-150.622 538,-148 408.023,-126.436 371.673,-142.538 244,-110 209.254,-101.145 171.42,-86.0656 144.008,-74.0888"/>
</g>
<!-- FloraChina.ChineseOakSpecies2&#45;&gt;FloraMexico.MexicanOakSpecies2 -->
<g id="edge5" class="edge"><title>FloraChina.ChineseOakSpecies2&#45;&gt;FloraMexico.MexicanOakSpecies2</title>
<path fill="none" stroke="#0000ff" stroke-dasharray="1,5" d="M636.236,-156.905C609.857,-143.774 572.387,-126.387 538,-115 518.047,-108.393 496.104,-102.763 475.428,-98.1536"/>
</g>
<!-- FloraMexico.MexicanOakSpecies1&#45;&gt;FloraMexico.OakGenus -->
<g id="edge6" class="edge"><title>FloraMexico.MexicanOakSpecies1&#45;&gt;FloraMexico.OakGenus</title>
<path fill="none" stroke="#000000" d="M273.257,-40.0598C252.252,-42.0498 230.475,-44.1129 209.834,-46.0684"/>
<polygon fill="#000000" stroke="#000000" points="209.426,-42.5913 199.8,-47.0189 210.086,-49.5601 209.426,-42.5913"/>
</g>
<!-- FloraMexico.MexicanOakSpecies2&#45;&gt;FloraMexico.OakGenus -->
<g id="edge9" class="edge"><title>FloraMexico.MexicanOakSpecies2&#45;&gt;FloraMexico.OakGenus</title>
<path fill="none" stroke="#000000" d="M273.257,-71.9402C252.252,-69.9502 230.475,-67.8871 209.834,-65.9316"/>
<polygon fill="#000000" stroke="#000000" points="210.086,-62.4399 199.8,-64.9811 209.426,-69.4087 210.086,-62.4399"/>
</g>
<!-- Legend -->
<g id="node7" class="node"><title>Legend</title>
<polygon fill="white" stroke="black" points="905.5,-150.5 806.5,-150.5 806.5,0.5 905.5,0.5 905.5,-150.5"/>
<polygon fill="none" stroke="black" points="807,-124 807,-150 906,-150 906,-124 807,-124"/>
<text text-anchor="start" x="832" y="-133.3" font-family="Arial Black" font-size="14.00"> Nodes</text>
<polygon fill="#ccffcc" stroke="none" points="807,-99 807,-124 889,-124 889,-99 807,-99"/>
<polygon fill="none" stroke="black" points="807,-99 807,-124 889,-124 889,-99 807,-99"/>
<text text-anchor="start" x="817.5" y="-107.8" font-family="Times,serif" font-size="14.00">FloraChina</text>
<polygon fill="none" stroke="black" points="889,-99 889,-124 906,-124 906,-99 889,-99"/>
<text text-anchor="start" x="894" y="-107.8" font-family="Times,serif" font-size="14.00">3</text>
<polygon fill="#ffffcc" stroke="none" points="807,-74 807,-99 889,-99 889,-74 807,-74"/>
<polygon fill="none" stroke="black" points="807,-74 807,-99 889,-99 889,-74 807,-74"/>
<text text-anchor="start" x="812.5" y="-82.8" font-family="Times,serif" font-size="14.00">FloraMexico</text>
<polygon fill="none" stroke="black" points="889,-74 889,-99 906,-99 906,-74 889,-74"/>
<text text-anchor="start" x="894" y="-82.8" font-family="Times,serif" font-size="14.00">3</text>
<polygon fill="none" stroke="black" points="807,-49 807,-74 906,-74 906,-49 807,-49"/>
<text text-anchor="start" x="830.5" y="-57.8" font-family="Arial Black" font-size="14.00"> Edges </text>
<polygon fill="none" stroke="black" points="807,-24 807,-49 889,-49 889,-24 807,-24"/>
<text text-anchor="start" x="825" y="-32.8" font-family="Times,serif" font-size="14.00" fill="#0000ff">overlaps</text>
<polygon fill="none" stroke="black" points="889,-24 889,-49 906,-49 906,-24 889,-24"/>
<text text-anchor="start" x="894" y="-32.8" font-family="Times,serif" font-size="14.00">5</text>
<polygon fill="none" stroke="black" points="807,1 807,-24 889,-24 889,1 807,1"/>
<text text-anchor="start" x="834" y="-7.8" font-family="Times,serif" font-size="14.00" fill="#000000">input</text>
<polygon fill="none" stroke="black" points="889,1 889,-24 906,-24 906,1 889,1"/>
<text text-anchor="start" x="894" y="-7.8" font-family="Times,serif" font-size="14.00">5</text>
</g>
</g>
</svg>
