<?xml version="1.0" encoding="UTF-8" standalone="no"?>
<!DOCTYPE svg PUBLIC "-//W3C//DTD SVG 1.1//EN"
 "http://www.w3.org/Graphics/SVG/1.1/DTD/svg11.dtd">
<!-- Generated by graphviz version 2.36.0 (20140111.2315)
 -->
<!-- Title: %3 Pages: 1 -->
<svg width="1124pt" height="259pt"
 viewBox="0.00 0.00 1124.00 259.23" xmlns="http://www.w3.org/2000/svg" xmlns:xlink="http://www.w3.org/1999/xlink">
<g id="graph0" class="graph" transform="scale(1 1) rotate(0) translate(4 255.233)">
<title>%3</title>
<polygon fill="white" stroke="none" points="-4,4 -4,-255.233 1120,-255.233 1120,4 -4,4"/>
<!-- FloraChina.OakGenus -->
<g id="node1" class="node"><title>FloraChina.OakGenus</title>
<polygon fill="#ccffcc" stroke="black" points="395,-247.233 257,-247.233 257,-211.233 395,-211.233 395,-247.233"/>
<text text-anchor="middle" x="326" y="-225.533" font-family="Times,serif" font-size="14.00">FloraChina.OakGenus</text>
</g>
<!-- FloraMexico.OakGenus -->
<g id="node6" class="node"><title>FloraMexico.OakGenus</title>
<polygon fill="#ffffcc" stroke="black" points="208.234,-173.777 208.234,-188.689 147.175,-199.233 60.8249,-199.233 -0.233914,-188.689 -0.233914,-173.777 60.8249,-163.233 147.175,-163.233 208.234,-173.777"/>
<text text-anchor="middle" x="104" y="-177.533" font-family="Times,serif" font-size="14.00">FloraMexico.OakGenus</text>
</g>
<!-- FloraChina.OakGenus&#45;&gt;FloraMexico.OakGenus -->
<g id="edge5" class="edge"><title>FloraChina.OakGenus&#45;&gt;FloraMexico.OakGenus</title>
<path fill="none" stroke="#2f7747" d="M256.774,-230.08C246.402,-229.369 235.872,-228.164 226,-226.233 201.187,-221.379 174.747,-212.065 152.932,-203.165"/>
<polygon fill="#2f7747" stroke="#2f7747" points="154.147,-199.879 143.571,-199.256 151.45,-206.339 154.147,-199.879"/>
<text text-anchor="middle" x="230" y="-231.033" font-family="Times,serif" font-size="14.00">1</text>
</g>
<!-- FloraChina.ChineseOakSpecies1 -->
<g id="node2" class="node"><title>FloraChina.ChineseOakSpecies1</title>
<polygon fill="#ccffcc" stroke="black" points="646.5,-245.233 451.5,-245.233 451.5,-209.233 646.5,-209.233 646.5,-245.233"/>
<text text-anchor="middle" x="549" y="-223.533" font-family="Times,serif" font-size="14.00">FloraChina.ChineseOakSpecies1</text>
</g>
<!-- FloraChina.ChineseOakSpecies1&#45;&gt;FloraChina.OakGenus -->
<g id="edge6" class="edge"><title>FloraChina.ChineseOakSpecies1&#45;&gt;FloraChina.OakGenus</title>
<path fill="none" stroke="#53442c" d="M451.388,-228.107C436.005,-228.247 420.258,-228.389 405.364,-228.524"/>
<polygon fill="#53442c" stroke="#53442c" points="405.172,-225.025 395.204,-228.616 405.236,-232.025 405.172,-225.025"/>
<text text-anchor="middle" x="422" y="-232.033" font-family="Times,serif" font-size="14.00">2</text>
</g>
<!-- FloraMexico.MexicanOakSpecies1 -->
<g id="node7" class="node"><title>FloraMexico.MexicanOakSpecies1</title>
<polygon fill="#ffffcc" stroke="black" points="992.06,-168.777 992.06,-183.689 905.914,-194.233 784.086,-194.233 697.94,-183.689 697.94,-168.777 784.086,-158.233 905.914,-158.233 992.06,-168.777"/>
<text text-anchor="middle" x="845" y="-172.533" font-family="Times,serif" font-size="14.00">FloraMexico.MexicanOakSpecies1</text>
</g>
<!-- FloraChina.ChineseOakSpecies1&#45;&gt;FloraMexico.MexicanOakSpecies1 -->
<g id="edge4" class="edge"><title>FloraChina.ChineseOakSpecies1&#45;&gt;FloraMexico.MexicanOakSpecies1</title>
<path fill="none" stroke="#2f7747" d="M600.741,-209.197C622.429,-202.182 648.19,-194.759 672,-190.233 679.951,-188.722 688.14,-187.373 696.428,-186.17"/>
<polygon fill="#2f7747" stroke="#2f7747" points="697.146,-189.605 706.576,-184.774 696.192,-182.67 697.146,-189.605"/>
<text text-anchor="middle" x="676" y="-194.033" font-family="Times,serif" font-size="14.00">1</text>
</g>
<!-- FloraChina.ChineseOakSpecies2\nFloraMexico.MexicanOakSpecies2 -->
<g id="node3" class="node"><title>FloraChina.ChineseOakSpecies2\nFloraMexico.MexicanOakSpecies2</title>
<path fill="#eeeeee" stroke="black" d="M641.5,-177.233C641.5,-177.233 456.5,-177.233 456.5,-177.233 450.5,-177.233 444.5,-171.233 444.5,-165.233 444.5,-165.233 444.5,-151.233 444.5,-151.233 444.5,-145.233 450.5,-139.233 456.5,-139.233 456.5,-139.233 641.5,-139.233 641.5,-139.233 647.5,-139.233 653.5,-145.233 653.5,-151.233 653.5,-151.233 653.5,-165.233 653.5,-165.233 653.5,-171.233 647.5,-177.233 641.5,-177.233"/>
<text text-anchor="middle" x="549" y="-162.033" font-family="Times,serif" font-size="14.00">FloraChina.ChineseOakSpecies2</text>
<text text-anchor="middle" x="549" y="-147.033" font-family="Times,serif" font-size="14.00">FloraMexico.MexicanOakSpecies2</text>
</g>
<!-- FloraChina.ChineseOakSpecies2\nFloraMexico.MexicanOakSpecies2&#45;&gt;FloraChina.OakGenus -->
<g id="edge9" class="edge"><title>FloraChina.ChineseOakSpecies2\nFloraMexico.MexicanOakSpecies2&#45;&gt;FloraChina.OakGenus</title>
<path fill="none" stroke="#53442c" d="M488.776,-177.26C459.241,-186.748 423.426,-198.254 393.01,-208.026"/>
<polygon fill="#53442c" stroke="#53442c" points="391.79,-204.742 383.339,-211.133 393.931,-211.407 391.79,-204.742"/>
<text text-anchor="middle" x="422" y="-201.033" font-family="Times,serif" font-size="14.00">2</text>
</g>
<!-- FloraChina.OakGenus\nFloraMexico.OakGenus -->
<g id="node5" class="node"><title>FloraChina.OakGenus\nFloraMexico.OakGenus</title>
<path fill="#eeeeee" stroke="black" d="M388,-108.233C388,-108.233 264,-108.233 264,-108.233 258,-108.233 252,-102.233 252,-96.233 252,-96.233 252,-82.233 252,-82.233 252,-76.233 258,-70.233 264,-70.233 264,-70.233 388,-70.233 388,-70.233 394,-70.233 400,-76.233 400,-82.233 400,-82.233 400,-96.233 400,-96.233 400,-102.233 394,-108.233 388,-108.233"/>
<text text-anchor="middle" x="326" y="-93.033" font-family="Times,serif" font-size="14.00">FloraChina.OakGenus</text>
<text text-anchor="middle" x="326" y="-78.033" font-family="Times,serif" font-size="14.00">FloraMexico.OakGenus</text>
</g>
<!-- FloraChina.ChineseOakSpecies2\nFloraMexico.MexicanOakSpecies2&#45;&gt;FloraChina.OakGenus\nFloraMexico.OakGenus -->
<g id="edge10" class="edge"><title>FloraChina.ChineseOakSpecies2\nFloraMexico.MexicanOakSpecies2&#45;&gt;FloraChina.OakGenus\nFloraMexico.OakGenus</title>
<path fill="none" stroke="#2f7747" d="M487.026,-139.196C459.362,-130.559 426.477,-120.291 397.734,-111.317"/>
<polygon fill="#2f7747" stroke="#2f7747" points="398.747,-107.967 388.159,-108.328 396.661,-114.649 398.747,-107.967"/>
<text text-anchor="middle" x="422" y="-124.033" font-family="Times,serif" font-size="14.00">1</text>
</g>
<!-- FloraChina.ChineseOakSpecies2\nFloraMexico.MexicanOakSpecies2&#45;&gt;FloraMexico.OakGenus -->
<g id="edge2" class="edge"><title>FloraChina.ChineseOakSpecies2\nFloraMexico.MexicanOakSpecies2&#45;&gt;FloraMexico.OakGenus</title>
<path fill="none" stroke="#53442c" d="M444.416,-163.611C376.662,-167.129 288.132,-171.725 218.476,-175.341"/>
<polygon fill="#53442c" stroke="#53442c" points="218.146,-171.854 208.341,-175.868 218.509,-178.844 218.146,-171.854"/>
<text text-anchor="middle" x="326" y="-178.033" font-family="Times,serif" font-size="14.00">2</text>
</g>
<!-- FloraChina.ChineseOakSpecies1\nFloraMexico.MexicanOakSpecies1 -->
<g id="node4" class="node"><title>FloraChina.ChineseOakSpecies1\nFloraMexico.MexicanOakSpecies1</title>
<path fill="#eeeeee" stroke="black" d="M641.5,-83.233C641.5,-83.233 456.5,-83.233 456.5,-83.233 450.5,-83.233 444.5,-77.233 444.5,-71.233 444.5,-71.233 444.5,-57.233 444.5,-57.233 444.5,-51.233 450.5,-45.233 456.5,-45.233 456.5,-45.233 641.5,-45.233 641.5,-45.233 647.5,-45.233 653.5,-51.233 653.5,-57.233 653.5,-57.233 653.5,-71.233 653.5,-71.233 653.5,-77.233 647.5,-83.233 641.5,-83.233"/>
<text text-anchor="middle" x="549" y="-68.033" font-family="Times,serif" font-size="14.00">FloraChina.ChineseOakSpecies1</text>
<text text-anchor="middle" x="549" y="-53.033" font-family="Times,serif" font-size="14.00">FloraMexico.MexicanOakSpecies1</text>
</g>
<!-- FloraChina.ChineseOakSpecies1\nFloraMexico.MexicanOakSpecies1&#45;&gt;FloraChina.OakGenus\nFloraMexico.OakGenus -->
<g id="edge8" class="edge"><title>FloraChina.ChineseOakSpecies1\nFloraMexico.MexicanOakSpecies1&#45;&gt;FloraChina.OakGenus\nFloraMexico.OakGenus</title>
<path fill="none" stroke="#2f7747" d="M444.387,-75.2685C435.46,-76.2565 426.57,-77.2536 418,-78.233 415.441,-78.5255 412.841,-78.825 410.217,-79.1294"/>
<polygon fill="#2f7747" stroke="#2f7747" points="409.529,-75.6859 400.003,-80.3237 410.342,-82.6385 409.529,-75.6859"/>
<text text-anchor="middle" x="422" y="-82.033" font-family="Times,serif" font-size="14.00">1</text>
</g>
<!-- FloraMexico.OakGenus&#45;&gt;FloraChina.OakGenus -->
<g id="edge3" class="edge"><title>FloraMexico.OakGenus&#45;&gt;FloraChina.OakGenus</title>
<path fill="none" stroke="#2f7747" d="M169.773,-195.365C193.973,-200.645 221.709,-206.697 246.978,-212.21"/>
<polygon fill="#2f7747" stroke="#2f7747" points="246.381,-215.662 256.897,-214.374 247.873,-208.823 246.381,-215.662"/>
<text text-anchor="middle" x="230" y="-211.033" font-family="Times,serif" font-size="14.00">1</text>
</g>
<!-- FloraMexico.MexicanOakSpecies1&#45;&gt;FloraChina.ChineseOakSpecies1 -->
<g id="edge7" class="edge"><title>FloraMexico.MexicanOakSpecies1&#45;&gt;FloraChina.ChineseOakSpecies1</title>
<path fill="none" stroke="#2f7747" d="M759.747,-191.254C734.144,-195.786 705.926,-200.747 680,-205.233 672.388,-206.55 664.523,-207.902 656.605,-209.258"/>
<polygon fill="#2f7747" stroke="#2f7747" points="655.829,-205.839 646.561,-210.973 657.008,-212.739 655.829,-205.839"/>
<text text-anchor="middle" x="676" y="-210.033" font-family="Times,serif" font-size="14.00">1</text>
</g>
<!-- FloraMexico.MexicanOakSpecies1&#45;&gt;FloraMexico.OakGenus -->
<g id="edge1" class="edge"><title>FloraMexico.MexicanOakSpecies1&#45;&gt;FloraMexico.OakGenus</title>
<path fill="none" stroke="#53442c" d="M827.613,-158.214C797.157,-126.228 728.153,-60.6022 654,-36.233 483.936,19.6554 416.385,9.63788 252,-61.233 201.672,-82.9309 154.677,-127.104 127.937,-155.378"/>
<polygon fill="#53442c" stroke="#53442c" points="125.19,-153.192 120.946,-162.9 130.317,-157.958 125.19,-153.192"/>
<text text-anchor="middle" x="422" y="-10.033" font-family="Times,serif" font-size="14.00">2</text>
</g>
<!-- Legend -->
<g id="node8" class="node"><title>Legend</title>
<polygon fill="white" stroke="black" points="1116,-251.733 1010,-251.733 1010,-100.733 1116,-100.733 1116,-251.733"/>
<polygon fill="none" stroke="black" points="1010,-225.233 1010,-251.233 1116,-251.233 1116,-225.233 1010,-225.233"/>
<text text-anchor="start" x="1038.5" y="-234.533" font-family="Arial Black" font-size="14.00"> Nodes</text>
<polygon fill="#ccffcc" stroke="none" points="1010,-200.233 1010,-225.233 1092,-225.233 1092,-200.233 1010,-200.233"/>
<polygon fill="none" stroke="black" points="1010,-200.233 1010,-225.233 1092,-225.233 1092,-200.233 1010,-200.233"/>
<text text-anchor="start" x="1020.5" y="-209.033" font-family="Times,serif" font-size="14.00">FloraChina</text>
<polygon fill="none" stroke="black" points="1092,-200.233 1092,-225.233 1116,-225.233 1116,-200.233 1092,-200.233"/>
<text text-anchor="start" x="1100.5" y="-209.033" font-family="Times,serif" font-size="14.00">2</text>
<polygon fill="#eeeeee" stroke="none" points="1010,-175.233 1010,-200.233 1092,-200.233 1092,-175.233 1010,-175.233"/>
<polygon fill="none" stroke="black" points="1010,-175.233 1010,-200.233 1092,-200.233 1092,-175.233 1010,-175.233"/>
<text text-anchor="start" x="1035.5" y="-184.033" font-family="Times,serif" font-size="14.00">comb</text>
<polygon fill="none" stroke="black" points="1092,-175.233 1092,-200.233 1116,-200.233 1116,-175.233 1092,-175.233"/>
<text text-anchor="start" x="1100.5" y="-184.033" font-family="Times,serif" font-size="14.00">3</text>
<polygon fill="#ffffcc" stroke="none" points="1010,-150.233 1010,-175.233 1092,-175.233 1092,-150.233 1010,-150.233"/>
<polygon fill="none" stroke="black" points="1010,-150.233 1010,-175.233 1092,-175.233 1092,-150.233 1010,-150.233"/>
<text text-anchor="start" x="1015.5" y="-159.033" font-family="Times,serif" font-size="14.00">FloraMexico</text>
<polygon fill="none" stroke="black" points="1092,-150.233 1092,-175.233 1116,-175.233 1116,-150.233 1092,-150.233"/>
<text text-anchor="start" x="1100.5" y="-159.033" font-family="Times,serif" font-size="14.00">2</text>
<polygon fill="none" stroke="black" points="1010,-125.233 1010,-150.233 1116,-150.233 1116,-125.233 1010,-125.233"/>
<text text-anchor="start" x="1037" y="-134.033" font-family="Arial Black" font-size="14.00"> Edges </text>
<polygon fill="none" stroke="black" points="1010,-100.233 1010,-125.233 1092,-125.233 1092,-100.233 1010,-100.233"/>
<text text-anchor="start" x="1032" y="-109.033" font-family="Times,serif" font-size="14.00" fill="#000000">default</text>
<polygon fill="none" stroke="black" points="1092,-100.233 1092,-125.233 1116,-125.233 1116,-100.233 1092,-100.233"/>
<text text-anchor="start" x="1097" y="-109.033" font-family="Times,serif" font-size="14.00">10</text>
</g>
</g>
</svg>
