<?xml version="1.0" encoding="UTF-8" standalone="no"?>
<!DOCTYPE svg PUBLIC "-//W3C//DTD SVG 1.1//EN"
 "http://www.w3.org/Graphics/SVG/1.1/DTD/svg11.dtd">
<!-- Generated by graphviz version 2.36.0 (20140111.2315)
 -->
<!-- Title: %3 Pages: 1 -->
<svg width="304pt" height="294pt"
 viewBox="0.00 0.00 304.00 294.10" xmlns="http://www.w3.org/2000/svg" xmlns:xlink="http://www.w3.org/1999/xlink">
<g id="graph0" class="graph" transform="scale(1 1) rotate(0) translate(4 290.096)">
<title>%3</title>
<polygon fill="white" stroke="none" points="-4,4 -4,-290.096 300,-290.096 300,4 -4,4"/>
<!-- pw2 -->
<g id="node1" class="node"><title>pw2</title>
<path fill="#ffffcc" stroke="black" d="M42,-240.241C42,-240.241 12,-240.241 12,-240.241 6,-240.241 0,-234.241 0,-228.241 0,-228.241 0,-216.241 0,-216.241 0,-210.241 6,-204.241 12,-204.241 12,-204.241 42,-204.241 42,-204.241 48,-204.241 54,-210.241 54,-216.241 54,-216.241 54,-228.241 54,-228.241 54,-234.241 48,-240.241 42,-240.241"/>
<text text-anchor="middle" x="27" y="-218.541" font-family="Times,serif" font-size="14.00">pw2</text>
</g>
<!-- pw0 -->
<g id="node2" class="node"><title>pw0</title>
<path fill="#ffffcc" stroke="black" d="M253.522,-286.096C253.522,-286.096 223.522,-286.096 223.522,-286.096 217.522,-286.096 211.522,-280.096 211.522,-274.096 211.522,-274.096 211.522,-262.096 211.522,-262.096 211.522,-256.096 217.522,-250.096 223.522,-250.096 223.522,-250.096 253.522,-250.096 253.522,-250.096 259.522,-250.096 265.522,-256.096 265.522,-262.096 265.522,-262.096 265.522,-274.096 265.522,-274.096 265.522,-280.096 259.522,-286.096 253.522,-286.096"/>
<text text-anchor="middle" x="238.522" y="-264.396" font-family="Times,serif" font-size="14.00">pw0</text>
</g>
<!-- pw2&#45;&gt;pw0 -->
<g id="edge1" class="edge"><title>pw2&#45;&gt;pw0</title>
<path fill="none" stroke="#000000" d="M54.2198,-228.142C91.741,-236.276 159.477,-250.96 201.553,-260.082"/>
<polygon fill="#000000" stroke="#000000" points="200.892,-263.52 211.407,-262.218 202.375,-256.679 200.892,-263.52"/>
<text text-anchor="middle" x="124.387" y="-247.912" font-family="Times,serif" font-size="14.00">3</text>
</g>
<!-- pw1 -->
<g id="node3" class="node"><title>pw1</title>
<path fill="#ffffcc" stroke="black" d="M113.52,-36C113.52,-36 83.5198,-36 83.5198,-36 77.5198,-36 71.5198,-30 71.5198,-24 71.5198,-24 71.5198,-12 71.5198,-12 71.5198,-6 77.5198,-0 83.5198,-0 83.5198,-0 113.52,-0 113.52,-0 119.52,-0 125.52,-6 125.52,-12 125.52,-12 125.52,-24 125.52,-24 125.52,-30 119.52,-36 113.52,-36"/>
<text text-anchor="middle" x="98.5198" y="-14.3" font-family="Times,serif" font-size="14.00">pw1</text>
</g>
<!-- pw2&#45;&gt;pw1 -->
<g id="edge2" class="edge"><title>pw2&#45;&gt;pw1</title>
<path fill="none" stroke="#000000" d="M33.3469,-204.116C45.8852,-168.31 73.9023,-88.3008 88.7887,-45.7893"/>
<polygon fill="#000000" stroke="#000000" points="92.1855,-46.6792 92.1872,-36.0844 85.5788,-44.3657 92.1855,-46.6792"/>
<text text-anchor="middle" x="57.5678" y="-128.753" font-family="Times,serif" font-size="14.00">3</text>
</g>
<!-- pw1&#45;&gt;pw0 -->
<g id="edge3" class="edge"><title>pw1&#45;&gt;pw0</title>
<path fill="none" stroke="#000000" d="M108.815,-36.3902C133.248,-80.0368 194.826,-190.039 223.455,-241.181"/>
<polygon fill="#000000" stroke="#000000" points="220.462,-243 228.401,-250.016 226.57,-239.581 220.462,-243"/>
<text text-anchor="middle" x="162.635" y="-142.586" font-family="Times,serif" font-size="14.00">4</text>
</g>
<!-- Legend -->
<g id="node4" class="node"><title>Legend</title>
<path fill="white" stroke="black" d="M284,-170C284,-170 242,-170 242,-170 236,-170 230,-164 230,-158 230,-158 230,-81 230,-81 230,-75 236,-69 242,-69 242,-69 284,-69 284,-69 290,-69 296,-75 296,-81 296,-81 296,-158 296,-158 296,-164 290,-170 284,-170"/>
<polygon fill="none" stroke="black" points="230,-143.5 230,-169.5 296,-169.5 296,-143.5 230,-143.5"/>
<text text-anchor="start" x="238.5" y="-152.8" font-family="Arial Black" font-size="14.00"> Nodes</text>
<polygon fill="#ffffcc" stroke="none" points="230,-118.5 230,-143.5 279,-143.5 279,-118.5 230,-118.5"/>
<polygon fill="none" stroke="black" points="230,-118.5 230,-143.5 279,-143.5 279,-118.5 230,-118.5"/>
<text text-anchor="start" x="236" y="-127.3" font-family="Times,serif" font-size="14.00">cluster</text>
<polygon fill="none" stroke="black" points="279,-118.5 279,-143.5 296,-143.5 296,-118.5 279,-118.5"/>
<text text-anchor="start" x="284" y="-127.3" font-family="Times,serif" font-size="14.00">3</text>
<polygon fill="none" stroke="black" points="230,-93.5 230,-118.5 296,-118.5 296,-93.5 230,-93.5"/>
<text text-anchor="start" x="237" y="-102.3" font-family="Arial Black" font-size="14.00"> Edges </text>
<polygon fill="none" stroke="black" points="230,-68.5 230,-93.5 279,-93.5 279,-68.5 230,-68.5"/>
<text text-anchor="start" x="235.5" y="-77.3" font-family="Times,serif" font-size="14.00" fill="#000000">default</text>
<polygon fill="none" stroke="black" points="279,-68.5 279,-93.5 296,-93.5 296,-68.5 279,-68.5"/>
<text text-anchor="start" x="284" y="-77.3" font-family="Times,serif" font-size="14.00">3</text>
</g>
</g>
</svg>
