<?xml version="1.0" encoding="UTF-8" standalone="no"?>
<!DOCTYPE svg PUBLIC "-//W3C//DTD SVG 1.1//EN"
 "http://www.w3.org/Graphics/SVG/1.1/DTD/svg11.dtd">
<!-- Generated by graphviz version 2.36.0 (20140111.2315)
 -->
<!-- Title: %3 Pages: 1 -->
<svg width="472pt" height="470pt"
 viewBox="0.00 0.00 472.00 470.00" xmlns="http://www.w3.org/2000/svg" xmlns:xlink="http://www.w3.org/1999/xlink">
<g id="graph0" class="graph" transform="scale(1 1) rotate(0) translate(4 466)">
<title>%3</title>
<polygon fill="white" stroke="none" points="-4,4 -4,-466 468,-466 468,4 -4,4"/>
<!-- 2 -->
<g id="node1" class="node"><title>2</title>
<path fill="#a0ffa0" stroke="#006400" d="M117,-390C117,-390 87,-390 87,-390 81,-390 75,-384 75,-378 75,-378 75,-366 75,-366 75,-360 81,-354 87,-354 87,-354 117,-354 117,-354 123,-354 129,-360 129,-366 129,-366 129,-378 129,-378 129,-384 123,-390 117,-390"/>
<text text-anchor="middle" x="102" y="-368.3" font-family="Helvetica,sans-Serif" font-stretch="condensed" font-size="14.00">1, 3, 4</text>
</g>
<!-- 3 -->
<g id="node2" class="node"><title>3</title>
<polygon fill="none" stroke="#006400" stroke-dasharray="5,2" points="79,-318 25,-318 25,-282 79,-282 79,-318"/>
<text text-anchor="middle" x="52" y="-296.3" font-family="Helvetica,sans-Serif" font-stretch="condensed" font-size="14.00">3, 4</text>
</g>
<!-- 2&#45;&gt;3 -->
<g id="edge8" class="edge"><title>2&#45;&gt;3</title>
<path fill="none" stroke="#006400" stroke-dasharray="5,2" d="M89.6404,-353.697C83.7672,-345.474 76.6309,-335.483 70.1576,-326.421"/>
<polygon fill="#006400" stroke="#006400" points="72.8779,-324.207 64.2174,-318.104 67.1817,-328.276 72.8779,-324.207"/>
</g>
<!-- 6 -->
<g id="node4" class="node"><title>6</title>
<polygon fill="none" stroke="#006400" stroke-dasharray="5,2" points="151,-318 97,-318 97,-282 151,-282 151,-318"/>
<text text-anchor="middle" x="124" y="-296.3" font-family="Helvetica,sans-Serif" font-stretch="condensed" font-size="14.00">1, 4</text>
</g>
<!-- 2&#45;&gt;6 -->
<g id="edge9" class="edge"><title>2&#45;&gt;6</title>
<path fill="none" stroke="#006400" stroke-dasharray="5,2" d="M107.438,-353.697C109.889,-345.898 112.84,-336.509 115.568,-327.829"/>
<polygon fill="#006400" stroke="#006400" points="118.965,-328.694 118.624,-318.104 112.287,-326.595 118.965,-328.694"/>
</g>
<!-- 10 -->
<g id="node6" class="node"><title>10</title>
<polygon fill="none" stroke="#006400" stroke-dasharray="5,2" points="295,-318 241,-318 241,-282 295,-282 295,-318"/>
<text text-anchor="middle" x="268" y="-296.3" font-family="Helvetica,sans-Serif" font-stretch="condensed" font-size="14.00">1, 3</text>
</g>
<!-- 2&#45;&gt;10 -->
<g id="edge10" class="edge"><title>2&#45;&gt;10</title>
<path fill="none" stroke="#006400" stroke-dasharray="5,2" d="M129.028,-357.969C132.04,-356.597 135.076,-355.248 138,-354 176.493,-337.568 189.223,-335.746 231.742,-317.947"/>
<polygon fill="#006400" stroke="#006400" points="233.134,-321.159 240.972,-314.031 230.4,-314.715 233.134,-321.159"/>
</g>
<!-- 7 -->
<g id="node5" class="node"><title>7</title>
<polygon fill="none" stroke="#006400" stroke-dasharray="5,2" points="151,-246 97,-246 97,-210 151,-210 151,-246"/>
<text text-anchor="middle" x="124" y="-224.3" font-family="Helvetica,sans-Serif" font-stretch="condensed" font-size="14.00">4</text>
</g>
<!-- 3&#45;&gt;7 -->
<g id="edge11" class="edge"><title>3&#45;&gt;7</title>
<path fill="none" stroke="#006400" stroke-dasharray="5,2" d="M69.7978,-281.697C78.604,-273.135 89.3821,-262.656 99.0011,-253.304"/>
<polygon fill="#006400" stroke="#006400" points="101.677,-255.585 106.407,-246.104 96.7972,-250.566 101.677,-255.585"/>
</g>
<!-- 11 -->
<g id="node7" class="node"><title>11</title>
<polygon fill="none" stroke="#006400" stroke-dasharray="5,2" points="223,-246 169,-246 169,-210 223,-210 223,-246"/>
<text text-anchor="middle" x="196" y="-224.3" font-family="Helvetica,sans-Serif" font-stretch="condensed" font-size="14.00">3</text>
</g>
<!-- 3&#45;&gt;11 -->
<g id="edge12" class="edge"><title>3&#45;&gt;11</title>
<path fill="none" stroke="#006400" stroke-dasharray="5,2" d="M79.0853,-285.834C101.769,-274.807 134.357,-258.966 159.368,-246.807"/>
<polygon fill="#006400" stroke="#006400" points="161.083,-249.865 168.547,-242.345 158.023,-243.57 161.083,-249.865"/>
</g>
<!-- 5 -->
<g id="node3" class="node"><title>5</title>
<path fill="#a0ffa0" stroke="#006400" d="M211,-318C211,-318 181,-318 181,-318 175,-318 169,-312 169,-306 169,-306 169,-294 169,-294 169,-288 175,-282 181,-282 181,-282 211,-282 211,-282 217,-282 223,-288 223,-294 223,-294 223,-306 223,-306 223,-312 217,-318 211,-318"/>
<text text-anchor="middle" x="196" y="-296.3" font-family="Helvetica,sans-Serif" font-stretch="condensed" font-size="14.00">2, 4</text>
</g>
<!-- 5&#45;&gt;7 -->
<g id="edge16" class="edge"><title>5&#45;&gt;7</title>
<path fill="none" stroke="#006400" stroke-dasharray="5,2" d="M178.202,-281.697C169.396,-273.135 158.618,-262.656 148.999,-253.304"/>
<polygon fill="#006400" stroke="#006400" points="151.203,-250.566 141.593,-246.104 146.323,-255.585 151.203,-250.566"/>
</g>
<!-- 13 -->
<g id="node9" class="node"><title>13</title>
<polygon fill="none" stroke="#006400" stroke-dasharray="5,2" points="367,-246 313,-246 313,-210 367,-210 367,-246"/>
<text text-anchor="middle" x="340" y="-224.3" font-family="Helvetica,sans-Serif" font-stretch="condensed" font-size="14.00">2</text>
</g>
<!-- 5&#45;&gt;13 -->
<g id="edge17" class="edge"><title>5&#45;&gt;13</title>
<path fill="none" stroke="#006400" stroke-dasharray="5,2" d="M223.085,-285.834C245.769,-274.807 278.357,-258.966 303.368,-246.807"/>
<polygon fill="#006400" stroke="#006400" points="305.083,-249.865 312.547,-242.345 302.023,-243.57 305.083,-249.865"/>
</g>
<!-- 6&#45;&gt;7 -->
<g id="edge18" class="edge"><title>6&#45;&gt;7</title>
<path fill="none" stroke="#006400" stroke-dasharray="5,2" d="M124,-281.697C124,-273.983 124,-264.712 124,-256.112"/>
<polygon fill="#006400" stroke="#006400" points="127.5,-256.104 124,-246.104 120.5,-256.104 127.5,-256.104"/>
</g>
<!-- 14 -->
<g id="node10" class="node"><title>14</title>
<polygon fill="none" stroke="#006400" stroke-dasharray="5,2" points="295,-246 241,-246 241,-210 295,-210 295,-246"/>
<text text-anchor="middle" x="268" y="-224.3" font-family="Helvetica,sans-Serif" font-stretch="condensed" font-size="14.00">1</text>
</g>
<!-- 6&#45;&gt;14 -->
<g id="edge19" class="edge"><title>6&#45;&gt;14</title>
<path fill="none" stroke="#006400" stroke-dasharray="5,2" d="M151.085,-285.834C173.769,-274.807 206.357,-258.966 231.368,-246.807"/>
<polygon fill="#006400" stroke="#006400" points="233.083,-249.865 240.547,-242.345 230.023,-243.57 233.083,-249.865"/>
</g>
<!-- 15 -->
<g id="node11" class="node"><title>15</title>
<polygon fill="none" stroke="#006400" stroke-dasharray="5,2" points="259,-174 205,-174 205,-138 259,-138 259,-174"/>
</g>
<!-- 7&#45;&gt;15 -->
<g id="edge20" class="edge"><title>7&#45;&gt;15</title>
<path fill="none" stroke="#006400" stroke-dasharray="5,2" d="M150.42,-209.876C164.41,-200.808 181.776,-189.552 196.886,-179.759"/>
<polygon fill="#006400" stroke="#006400" points="198.991,-182.566 205.479,-174.19 195.183,-176.692 198.991,-182.566"/>
</g>
<!-- 10&#45;&gt;11 -->
<g id="edge26" class="edge"><title>10&#45;&gt;11</title>
<path fill="none" stroke="#006400" stroke-dasharray="5,2" d="M250.202,-281.697C241.396,-273.135 230.618,-262.656 220.999,-253.304"/>
<polygon fill="#006400" stroke="#006400" points="223.203,-250.566 213.593,-246.104 218.323,-255.585 223.203,-250.566"/>
</g>
<!-- 10&#45;&gt;14 -->
<g id="edge27" class="edge"><title>10&#45;&gt;14</title>
<path fill="none" stroke="#006400" stroke-dasharray="5,2" d="M268,-281.697C268,-273.983 268,-264.712 268,-256.112"/>
<polygon fill="#006400" stroke="#006400" points="271.5,-256.104 268,-246.104 264.5,-256.104 271.5,-256.104"/>
</g>
<!-- 11&#45;&gt;15 -->
<g id="edge28" class="edge"><title>11&#45;&gt;15</title>
<path fill="none" stroke="#006400" stroke-dasharray="5,2" d="M204.899,-209.697C208.997,-201.728 213.949,-192.1 218.493,-183.264"/>
<polygon fill="#006400" stroke="#006400" points="221.742,-184.598 223.203,-174.104 215.517,-181.396 221.742,-184.598"/>
</g>
<!-- 12 -->
<g id="node8" class="node"><title>12</title>
<path fill="#a0ffa0" stroke="#006400" d="M427,-318C427,-318 397,-318 397,-318 391,-318 385,-312 385,-306 385,-306 385,-294 385,-294 385,-288 391,-282 397,-282 397,-282 427,-282 427,-282 433,-282 439,-288 439,-294 439,-294 439,-306 439,-306 439,-312 433,-318 427,-318"/>
<text text-anchor="middle" x="412" y="-296.3" font-family="Helvetica,sans-Serif" font-stretch="condensed" font-size="14.00">1, 2</text>
</g>
<!-- 12&#45;&gt;13 -->
<g id="edge29" class="edge"><title>12&#45;&gt;13</title>
<path fill="none" stroke="#006400" stroke-dasharray="5,2" d="M394.202,-281.697C385.396,-273.135 374.618,-262.656 364.999,-253.304"/>
<polygon fill="#006400" stroke="#006400" points="367.203,-250.566 357.593,-246.104 362.323,-255.585 367.203,-250.566"/>
</g>
<!-- 12&#45;&gt;14 -->
<g id="edge30" class="edge"><title>12&#45;&gt;14</title>
<path fill="none" stroke="#006400" stroke-dasharray="5,2" d="M384.915,-285.834C362.231,-274.807 329.643,-258.966 304.632,-246.807"/>
<polygon fill="#006400" stroke="#006400" points="305.977,-243.57 295.453,-242.345 302.917,-249.865 305.977,-243.57"/>
</g>
<!-- 13&#45;&gt;15 -->
<g id="edge31" class="edge"><title>13&#45;&gt;15</title>
<path fill="none" stroke="#006400" stroke-dasharray="5,2" d="M313.58,-209.876C299.59,-200.808 282.224,-189.552 267.114,-179.759"/>
<polygon fill="#006400" stroke="#006400" points="268.817,-176.692 258.521,-174.19 265.009,-182.566 268.817,-176.692"/>
</g>
<!-- 14&#45;&gt;15 -->
<g id="edge32" class="edge"><title>14&#45;&gt;15</title>
<path fill="none" stroke="#006400" stroke-dasharray="5,2" d="M259.101,-209.697C255.003,-201.728 250.051,-192.1 245.507,-183.264"/>
<polygon fill="#006400" stroke="#006400" points="248.483,-181.396 240.797,-174.104 242.258,-184.598 248.483,-181.396"/>
</g>
<!-- 0 -->
<g id="node12" class="node"><title>0</title>
<polygon fill="none" stroke="#ff0000" stroke-dasharray="5,2" points="267.424,-436.544 267.424,-451.456 241.987,-462 206.013,-462 180.576,-451.456 180.576,-436.544 206.013,-426 241.987,-426 267.424,-436.544"/>
<text text-anchor="middle" x="224" y="-440.3" font-family="Helvetica,sans-Serif" font-stretch="condensed" font-size="14.00">1, 2, 3, 4</text>
</g>
<!-- 0&#45;&gt;2 -->
<g id="edge2" class="edge"><title>0&#45;&gt;2</title>
<path fill="none" stroke="#0000ff" d="M199.017,-428.666C178.661,-416.986 149.968,-400.523 129.069,-388.531"/>
</g>
<!-- 1 -->
<g id="node13" class="node"><title>1</title>
<polygon fill="none" stroke="#ff0000" stroke-dasharray="5,2" points="215.207,-364.544 215.207,-379.456 195.169,-390 166.831,-390 146.793,-379.456 146.793,-364.544 166.831,-354 195.169,-354 215.207,-364.544"/>
<text text-anchor="middle" x="181" y="-368.3" font-family="Helvetica,sans-Serif" font-stretch="condensed" font-size="14.00">2, 3, 4</text>
</g>
<!-- 0&#45;&gt;1 -->
<g id="edge1" class="edge"><title>0&#45;&gt;1</title>
<path fill="none" stroke="#cc0000" stroke-dasharray="5,2" d="M208.077,-417.078C202.547,-408.076 196.488,-398.214 191.507,-390.104"/>
<polygon fill="#cc0000" stroke="#cc0000" points="205.154,-419.008 213.371,-425.697 211.119,-415.344 205.154,-419.008"/>
</g>
<!-- 4 -->
<g id="node14" class="node"><title>4</title>
<polygon fill="#ffb0b0" stroke="#ff0000" points="302.207,-364.544 302.207,-379.456 282.169,-390 253.831,-390 233.793,-379.456 233.793,-364.544 253.831,-354 282.169,-354 302.207,-364.544"/>
<text text-anchor="middle" x="268" y="-368.3" font-family="Helvetica,sans-Serif" font-stretch="condensed" font-size="14.00">1, 2, 4</text>
</g>
<!-- 0&#45;&gt;4 -->
<g id="edge3" class="edge"><title>0&#45;&gt;4</title>
<path fill="none" stroke="#cc0000" stroke-dasharray="5,2" d="M240.294,-417.078C245.952,-408.076 252.151,-398.214 257.249,-390.104"/>
<polygon fill="#cc0000" stroke="#cc0000" points="237.235,-415.368 234.876,-425.697 243.161,-419.093 237.235,-415.368"/>
</g>
<!-- 8 -->
<g id="node15" class="node"><title>8</title>
<polygon fill="none" stroke="#ff0000" stroke-dasharray="5,2" points="389.207,-364.544 389.207,-379.456 369.169,-390 340.831,-390 320.793,-379.456 320.793,-364.544 340.831,-354 369.169,-354 389.207,-364.544"/>
<text text-anchor="middle" x="355" y="-368.3" font-family="Helvetica,sans-Serif" font-stretch="condensed" font-size="14.00">1, 2, 3</text>
</g>
<!-- 0&#45;&gt;8 -->
<g id="edge4" class="edge"><title>0&#45;&gt;8</title>
<path fill="none" stroke="#cc0000" stroke-dasharray="5,2" d="M259.002,-424.296C282.064,-411.973 311.62,-396.18 331.806,-385.394"/>
<polygon fill="#cc0000" stroke="#cc0000" points="257.052,-421.37 249.881,-429.17 260.351,-427.544 257.052,-421.37"/>
</g>
<!-- 1&#45;&gt;3 -->
<g id="edge5" class="edge"><title>1&#45;&gt;3</title>
<path fill="none" stroke="#0000ff" d="M157.937,-358.485C135.906,-346.531 102.69,-328.506 79.3379,-315.834"/>
</g>
<!-- 1&#45;&gt;5 -->
<g id="edge6" class="edge"><title>1&#45;&gt;5</title>
<path fill="none" stroke="#0000ff" d="M184.708,-353.697C187.033,-342.846 190.018,-328.917 192.335,-318.104"/>
</g>
<!-- 9 -->
<g id="node16" class="node"><title>9</title>
<polygon fill="#ffb0b0" stroke="#ff0000" points="367,-292.544 367,-307.456 351.184,-318 328.816,-318 313,-307.456 313,-292.544 328.816,-282 351.184,-282 367,-292.544"/>
<text text-anchor="middle" x="340" y="-296.3" font-family="Helvetica,sans-Serif" font-stretch="condensed" font-size="14.00">2, 3</text>
</g>
<!-- 1&#45;&gt;9 -->
<g id="edge7" class="edge"><title>1&#45;&gt;9</title>
<path fill="none" stroke="#cc0000" stroke-dasharray="5,2" d="M216.345,-356.15C241.004,-345.697 274.626,-331.259 304,-318 308.662,-315.896 313.637,-313.587 318.354,-311.369"/>
<polygon fill="#cc0000" stroke="#cc0000" points="214.876,-352.971 207.029,-360.09 217.603,-359.418 214.876,-352.971"/>
</g>
<!-- 4&#45;&gt;5 -->
<g id="edge13" class="edge"><title>4&#45;&gt;5</title>
<path fill="none" stroke="#0000ff" d="M251.662,-355.116C240.294,-344.063 225.152,-329.342 213.531,-318.044"/>
</g>
<!-- 4&#45;&gt;6 -->
<g id="edge14" class="edge"><title>4&#45;&gt;6</title>
<path fill="none" stroke="#0000ff" d="M243.572,-359.125C217.895,-346.643 177.606,-327.059 151.001,-314.125"/>
</g>
<!-- 4&#45;&gt;12 -->
<g id="edge15" class="edge"><title>4&#45;&gt;12</title>
<path fill="none" stroke="#0000ff" d="M292.428,-359.125C318.105,-346.643 358.394,-327.059 384.999,-314.125"/>
</g>
<!-- 8&#45;&gt;10 -->
<g id="edge22" class="edge"><title>8&#45;&gt;10</title>
<path fill="none" stroke="#0000ff" d="M336.55,-356.155C322.683,-344.998 303.665,-329.696 289.178,-318.04"/>
</g>
<!-- 8&#45;&gt;12 -->
<g id="edge23" class="edge"><title>8&#45;&gt;12</title>
<path fill="none" stroke="#0000ff" d="M369.09,-353.697C377.925,-342.846 389.268,-328.917 398.072,-318.104"/>
</g>
<!-- 8&#45;&gt;9 -->
<g id="edge21" class="edge"><title>8&#45;&gt;9</title>
<path fill="none" stroke="#cc0000" stroke-dasharray="5,2" d="M349.143,-343.665C347.297,-335.054 345.312,-325.791 343.665,-318.104"/>
<polygon fill="#cc0000" stroke="#cc0000" points="345.774,-344.652 351.292,-353.697 352.619,-343.185 345.774,-344.652"/>
</g>
<!-- 9&#45;&gt;11 -->
<g id="edge24" class="edge"><title>9&#45;&gt;11</title>
<path fill="none" stroke="#0000ff" d="M318.752,-288.671C293.404,-276.349 250.981,-255.727 223.244,-242.244"/>
</g>
<!-- 9&#45;&gt;13 -->
<g id="edge25" class="edge"><title>9&#45;&gt;13</title>
<path fill="none" stroke="#0000ff" d="M340,-281.697C340,-270.846 340,-256.917 340,-246.104"/>
</g>
<!-- Legend -->
<g id="node17" class="node"><title>Legend</title>
<polygon fill="none" stroke="black" points="464.25,-101.5 -0.25,-101.5 -0.25,-0.5 464.25,-0.5 464.25,-101.5"/>
<polygon fill="none" stroke="black" points="0,-75 0,-101 18,-101 18,-75 0,-75"/>
<text text-anchor="start" x="5.5" y="-84.3" font-family="Helvetica,sans-Serif" font-stretch="condensed" font-size="14.00">1</text>
<polygon fill="none" stroke="black" points="18,-75 18,-101 465,-101 465,-75 18,-75"/>
<text text-anchor="start" x="96" y="-84.3" font-family="Helvetica,sans-Serif" font-stretch="condensed" font-size="14.00">FloraChina.OakGenus includes FloraMexico.OakGenus</text>
<polygon fill="none" stroke="black" points="0,-50 0,-75 18,-75 18,-50 0,-50"/>
<text text-anchor="start" x="5.5" y="-58.8" font-family="Helvetica,sans-Serif" font-stretch="condensed" font-size="14.00">2</text>
<polygon fill="none" stroke="black" points="18,-50 18,-75 465,-75 465,-50 18,-50"/>
<text text-anchor="start" x="23" y="-58.8" font-family="Helvetica,sans-Serif" font-stretch="condensed" font-size="14.00">FloraChina.ChineseOakSpecies1 is_included_in FloraMexico.MexicanOakSpecies1</text>
<polygon fill="none" stroke="black" points="0,-25 0,-50 18,-50 18,-25 0,-25"/>
<text text-anchor="start" x="5.5" y="-33.8" font-family="Helvetica,sans-Serif" font-stretch="condensed" font-size="14.00">3</text>
<polygon fill="none" stroke="black" points="18,-25 18,-50 465,-50 465,-25 18,-25"/>
<text text-anchor="start" x="67.5" y="-33.8" font-family="Helvetica,sans-Serif" font-stretch="condensed" font-size="14.00">FloraChina.ChineseOakSpecies1 includes FloraMexico.OakGenus</text>
<polygon fill="none" stroke="black" points="0,-0 0,-25 18,-25 18,-0 0,-0"/>
<text text-anchor="start" x="5.5" y="-8.8" font-family="Helvetica,sans-Serif" font-stretch="condensed" font-size="14.00">4</text>
<polygon fill="none" stroke="black" points="18,-0 18,-25 465,-25 465,-0 18,-0"/>
<text text-anchor="start" x="42.5" y="-8.8" font-family="Helvetica,sans-Serif" font-stretch="condensed" font-size="14.00">FloraChina.ChineseOakSpecies2 disjoint FloraMexico.MexicanOakSpecies1</text>
</g>
</g>
</svg>
