<?xml version="1.0" encoding="UTF-8" standalone="no"?>
<!DOCTYPE svg PUBLIC "-//W3C//DTD SVG 1.1//EN"
 "http://www.w3.org/Graphics/SVG/1.1/DTD/svg11.dtd">
<!-- Generated by graphviz version 2.36.0 (20140111.2315)
 -->
<!-- Title: %3 Pages: 1 -->
<svg width="472pt" height="448pt"
 viewBox="0.00 0.00 472.00 448.00" xmlns="http://www.w3.org/2000/svg" xmlns:xlink="http://www.w3.org/1999/xlink">
<g id="graph0" class="graph" transform="scale(1 1) rotate(0) translate(4 444)">
<title>%3</title>
<polygon fill="white" stroke="none" points="-4,4 -4,-444 468,-444 468,4 -4,4"/>
<!-- AllOtherRed -->
<g id="node1" class="node"><title>AllOtherRed</title>
<polygon fill="none" stroke="#ffb0b0" stroke-dasharray="5,2" points="283.921,-414.544 283.921,-429.456 251.163,-440 204.837,-440 172.079,-429.456 172.079,-414.544 204.837,-404 251.163,-404 283.921,-414.544"/>
<text text-anchor="middle" x="228" y="-418.3" font-family="Helvetica,sans-Serif" font-stretch="condensed" font-size="14.00">AllOtherRed</text>
</g>
<!-- 1, 3, 4 -->
<g id="node3" class="node"><title>1, 3, 4</title>
<path fill="#a0ffa0" stroke="#006400" d="M134,-298C134,-298 104,-298 104,-298 98,-298 92,-292 92,-286 92,-286 92,-274 92,-274 92,-268 98,-262 104,-262 104,-262 134,-262 134,-262 140,-262 146,-268 146,-274 146,-274 146,-286 146,-286 146,-292 140,-298 134,-298"/>
<text text-anchor="middle" x="119" y="-276.3" font-family="Helvetica,sans-Serif" font-stretch="condensed" font-size="14.00">1, 3, 4</text>
</g>
<!-- AllOtherRed&#45;&gt;1, 3, 4 -->
<g id="edge1" class="edge"><title>AllOtherRed&#45;&gt;1, 3, 4</title>
<path fill="none" stroke="blue" d="M184.896,-410.129C171.447,-404.831 157.629,-397.114 148,-386 126.329,-360.987 120.735,-321.105 119.364,-298.371"/>
<text text-anchor="middle" x="151.5" y="-374.3" font-family="Times,serif" font-size="14.00">1</text>
</g>
<!-- 2, 4 -->
<g id="node4" class="node"><title>2, 4</title>
<path fill="#a0ffa0" stroke="#006400" d="M184,-244C184,-244 154,-244 154,-244 148,-244 142,-238 142,-232 142,-232 142,-220 142,-220 142,-214 148,-208 154,-208 154,-208 184,-208 184,-208 190,-208 196,-214 196,-220 196,-220 196,-232 196,-232 196,-238 190,-244 184,-244"/>
<text text-anchor="middle" x="169" y="-222.3" font-family="Helvetica,sans-Serif" font-stretch="condensed" font-size="14.00">2, 4</text>
</g>
<!-- AllOtherRed&#45;&gt;2, 4 -->
<g id="edge3" class="edge"><title>AllOtherRed&#45;&gt;2, 4</title>
<path fill="none" stroke="blue" d="M211.364,-403.879C199.79,-390.808 185.193,-371.737 178,-352 164.665,-315.408 165.578,-268.874 167.334,-244.192"/>
<text text-anchor="middle" x="181.5" y="-330.3" font-family="Times,serif" font-size="14.00">2</text>
</g>
<!-- 1, 2 -->
<g id="node5" class="node"><title>1, 2</title>
<path fill="#a0ffa0" stroke="#006400" d="M299,-244C299,-244 269,-244 269,-244 263,-244 257,-238 257,-232 257,-232 257,-220 257,-220 257,-214 263,-208 269,-208 269,-208 299,-208 299,-208 305,-208 311,-214 311,-220 311,-220 311,-232 311,-232 311,-238 305,-244 299,-244"/>
<text text-anchor="middle" x="284" y="-222.3" font-family="Helvetica,sans-Serif" font-stretch="condensed" font-size="14.00">1, 2</text>
</g>
<!-- AllOtherRed&#45;&gt;1, 2 -->
<g id="edge5" class="edge"><title>AllOtherRed&#45;&gt;1, 2</title>
<path fill="none" stroke="blue" d="M241.703,-403.975C251.624,-390.655 264.405,-371.226 271,-352 283.673,-315.058 284.979,-268.664 284.619,-244.097"/>
<text text-anchor="middle" x="282.5" y="-330.3" font-family="Times,serif" font-size="14.00">2</text>
</g>
<!-- 3, 2 -->
<g id="node6" class="node"><title>3, 2</title>
<polygon fill="#ffb0b0" stroke="#ff0000" points="370,-272.544 370,-287.456 354.184,-298 331.816,-298 316,-287.456 316,-272.544 331.816,-262 354.184,-262 370,-272.544"/>
<text text-anchor="middle" x="343" y="-276.3" font-family="Helvetica,sans-Serif" font-stretch="condensed" font-size="14.00">3, 2</text>
</g>
<!-- AllOtherRed&#45;&gt;3, 2 -->
<g id="edge7" class="edge"><title>AllOtherRed&#45;&gt;3, 2</title>
<path fill="none" stroke="red" stroke-dasharray="5,2" d="M282.045,-406.786C293.159,-401.749 303.92,-395.001 312,-386 334.347,-361.107 340.619,-320.813 342.357,-298.06"/>
<polygon fill="red" stroke="red" points="280.601,-403.595 272.676,-410.626 283.256,-410.072 280.601,-403.595"/>
<text text-anchor="middle" x="325.5" y="-374.3" font-family="Times,serif" font-size="14.00">2</text>
</g>
<!-- 1, 2, 4 -->
<g id="node7" class="node"><title>1, 2, 4</title>
<polygon fill="#ffb0b0" stroke="#ff0000" points="262.207,-326.544 262.207,-341.456 242.169,-352 213.831,-352 193.793,-341.456 193.793,-326.544 213.831,-316 242.169,-316 262.207,-326.544"/>
<text text-anchor="middle" x="228" y="-330.3" font-family="Helvetica,sans-Serif" font-stretch="condensed" font-size="14.00">1, 2, 4</text>
</g>
<!-- AllOtherRed&#45;&gt;1, 2, 4 -->
<g id="edge9" class="edge"><title>AllOtherRed&#45;&gt;1, 2, 4</title>
<path fill="none" stroke="red" stroke-dasharray="5,2" d="M228,-393.342C228,-379.774 228,-363.861 228,-352.084"/>
<polygon fill="red" stroke="red" points="224.5,-393.597 228,-403.597 231.5,-393.597 224.5,-393.597"/>
<text text-anchor="middle" x="231.5" y="-374.3" font-family="Times,serif" font-size="14.00">1</text>
</g>
<!-- AllOtherGreen -->
<g id="node2" class="node"><title>AllOtherGreen</title>
<path fill="none" stroke="#006400" stroke-dasharray="5,2" d="M265.25,-156C265.25,-156 198.75,-156 198.75,-156 192.75,-156 186.75,-150 186.75,-144 186.75,-144 186.75,-132 186.75,-132 186.75,-126 192.75,-120 198.75,-120 198.75,-120 265.25,-120 265.25,-120 271.25,-120 277.25,-126 277.25,-132 277.25,-132 277.25,-144 277.25,-144 277.25,-150 271.25,-156 265.25,-156"/>
<text text-anchor="middle" x="232" y="-134.3" font-family="Helvetica,sans-Serif" font-stretch="condensed" font-size="14.00">AllOtherGreen</text>
</g>
<!-- 1, 3, 4&#45;&gt;AllOtherGreen -->
<g id="edge2" class="edge"><title>1, 3, 4&#45;&gt;AllOtherGreen</title>
<path fill="none" stroke="#006400" stroke-dasharray="5,2" d="M116.731,-261.931C115.574,-246.683 116.095,-224.301 126,-208 138.515,-187.403 159.784,-171.785 179.999,-160.661"/>
<polygon fill="#006400" stroke="#006400" points="181.636,-163.755 188.873,-156.017 178.39,-157.553 181.636,-163.755"/>
<text text-anchor="middle" x="129.5" y="-222.3" font-family="Times,serif" font-size="14.00">3</text>
</g>
<!-- 2, 4&#45;&gt;AllOtherGreen -->
<g id="edge4" class="edge"><title>2, 4&#45;&gt;AllOtherGreen</title>
<path fill="none" stroke="#006400" stroke-dasharray="5,2" d="M181.749,-207.597C190.86,-195.159 203.262,-178.23 213.465,-164.302"/>
<polygon fill="#006400" stroke="#006400" points="216.399,-166.219 219.485,-156.084 210.752,-162.083 216.399,-166.219"/>
<text text-anchor="middle" x="210.5" y="-178.3" font-family="Times,serif" font-size="14.00">2</text>
</g>
<!-- 1, 2&#45;&gt;AllOtherGreen -->
<g id="edge6" class="edge"><title>1, 2&#45;&gt;AllOtherGreen</title>
<path fill="none" stroke="#006400" stroke-dasharray="5,2" d="M273.477,-207.597C266.028,-195.277 255.913,-178.549 247.537,-164.696"/>
<polygon fill="#006400" stroke="#006400" points="250.499,-162.83 242.33,-156.084 244.509,-166.452 250.499,-162.83"/>
<text text-anchor="middle" x="265.5" y="-178.3" font-family="Times,serif" font-size="14.00">2</text>
</g>
<!-- 3, 2&#45;&gt;AllOtherGreen -->
<g id="edge8" class="edge"><title>3, 2&#45;&gt;AllOtherGreen</title>
<path fill="none" stroke="blue" d="M340.396,-261.959C337.426,-246.73 331.424,-224.36 320,-208 304.995,-186.511 281.344,-168.498 262.338,-156.271"/>
<text text-anchor="middle" x="338.5" y="-222.3" font-family="Times,serif" font-size="14.00">2</text>
</g>
<!-- 1, 2, 4&#45;&gt;AllOtherGreen -->
<g id="edge10" class="edge"><title>1, 2, 4&#45;&gt;AllOtherGreen</title>
<path fill="none" stroke="blue" d="M228.355,-315.784C229.114,-278.969 230.887,-192.958 231.646,-156.178"/>
<text text-anchor="middle" x="234.5" y="-222.3" font-family="Times,serif" font-size="14.00">3</text>
</g>
<!-- 1, 2, 4&#45;&gt;2, 4 -->
<g id="edge11" class="edge"><title>1, 2, 4&#45;&gt;2, 4</title>
<path fill="none" stroke="blue" d="M218.521,-315.969C207.576,-296.306 189.669,-264.135 178.652,-244.341"/>
<text text-anchor="middle" x="211.5" y="-276.3" font-family="Times,serif" font-size="14.00">1</text>
</g>
<!-- 1, 2, 4&#45;&gt;1, 2 -->
<g id="edge12" class="edge"><title>1, 2, 4&#45;&gt;1, 2</title>
<path fill="none" stroke="blue" d="M236.997,-315.969C247.386,-296.306 264.382,-264.135 274.839,-244.341"/>
<text text-anchor="middle" x="267.5" y="-276.3" font-family="Times,serif" font-size="14.00">1</text>
</g>
<!-- Legend -->
<g id="node8" class="node"><title>Legend</title>
<polygon fill="none" stroke="black" points="464.25,-101.5 -0.25,-101.5 -0.25,-0.5 464.25,-0.5 464.25,-101.5"/>
<polygon fill="none" stroke="black" points="0,-75 0,-101 18,-101 18,-75 0,-75"/>
<text text-anchor="start" x="5.5" y="-84.3" font-family="Helvetica,sans-Serif" font-stretch="condensed" font-size="14.00">1</text>
<polygon fill="none" stroke="black" points="18,-75 18,-101 465,-101 465,-75 18,-75"/>
<text text-anchor="start" x="96" y="-84.3" font-family="Helvetica,sans-Serif" font-stretch="condensed" font-size="14.00">FloraChina.OakGenus includes FloraMexico.OakGenus</text>
<polygon fill="none" stroke="black" points="0,-50 0,-75 18,-75 18,-50 0,-50"/>
<text text-anchor="start" x="5.5" y="-58.8" font-family="Helvetica,sans-Serif" font-stretch="condensed" font-size="14.00">2</text>
<polygon fill="none" stroke="black" points="18,-50 18,-75 465,-75 465,-50 18,-50"/>
<text text-anchor="start" x="23" y="-58.8" font-family="Helvetica,sans-Serif" font-stretch="condensed" font-size="14.00">FloraChina.ChineseOakSpecies1 is_included_in FloraMexico.MexicanOakSpecies1</text>
<polygon fill="none" stroke="black" points="0,-25 0,-50 18,-50 18,-25 0,-25"/>
<text text-anchor="start" x="5.5" y="-33.8" font-family="Helvetica,sans-Serif" font-stretch="condensed" font-size="14.00">3</text>
<polygon fill="none" stroke="black" points="18,-25 18,-50 465,-50 465,-25 18,-25"/>
<text text-anchor="start" x="67.5" y="-33.8" font-family="Helvetica,sans-Serif" font-stretch="condensed" font-size="14.00">FloraChina.ChineseOakSpecies1 includes FloraMexico.OakGenus</text>
<polygon fill="none" stroke="black" points="0,-0 0,-25 18,-25 18,-0 0,-0"/>
<text text-anchor="start" x="5.5" y="-8.8" font-family="Helvetica,sans-Serif" font-stretch="condensed" font-size="14.00">4</text>
<polygon fill="none" stroke="black" points="18,-0 18,-25 465,-25 465,-0 18,-0"/>
<text text-anchor="start" x="42.5" y="-8.8" font-family="Helvetica,sans-Serif" font-stretch="condensed" font-size="14.00">FloraChina.ChineseOakSpecies2 disjoint FloraMexico.MexicanOakSpecies1</text>
</g>
</g>
</svg>
