<?xml version="1.0" encoding="UTF-8" standalone="no"?>
<!DOCTYPE svg PUBLIC "-//W3C//DTD SVG 1.1//EN"
 "http://www.w3.org/Graphics/SVG/1.1/DTD/svg11.dtd">
<!-- Generated by graphviz version 2.36.0 (20140111.2315)
 -->
<!-- Title: %3 Pages: 1 -->
<svg width="928pt" height="208pt"
 viewBox="0.00 0.00 928.00 208.00" xmlns="http://www.w3.org/2000/svg" xmlns:xlink="http://www.w3.org/1999/xlink">
<g id="graph0" class="graph" transform="scale(1 1) rotate(0) translate(4 204)">
<title>%3</title>
<polygon fill="white" stroke="none" points="-4,4 -4,-204 924,-204 924,4 -4,4"/>
<!-- FloraChina.ChineseOakSpecies2 -->
<g id="node1" class="node"><title>FloraChina.ChineseOakSpecies2</title>
<polygon fill="#ccffcc" stroke="black" points="776.5,-118 581.5,-118 581.5,-82 776.5,-82 776.5,-118"/>
<text text-anchor="middle" x="679" y="-96.3" font-family="Times,serif" font-size="14.00">FloraChina.ChineseOakSpecies2</text>
</g>
<!-- FloraChina.OakGenus -->
<g id="node2" class="node"><title>FloraChina.OakGenus</title>
<polygon fill="#ccffcc" stroke="black" points="460,-172 322,-172 322,-136 460,-136 460,-172"/>
<text text-anchor="middle" x="391" y="-150.3" font-family="Times,serif" font-size="14.00">FloraChina.OakGenus</text>
</g>
<!-- FloraChina.ChineseOakSpecies2&#45;&gt;FloraChina.OakGenus -->
<g id="edge4" class="edge"><title>FloraChina.ChineseOakSpecies2&#45;&gt;FloraChina.OakGenus</title>
<path fill="none" stroke="#000000" d="M585.015,-118.036C569.326,-121.05 553.202,-124.128 538,-127 516.035,-131.149 492.198,-135.585 470.277,-139.638"/>
<polygon fill="#000000" stroke="#000000" points="469.552,-136.213 460.354,-141.471 470.823,-143.096 469.552,-136.213"/>
</g>
<!-- FloraMexico.MexicanOakSpecies2 -->
<g id="node5" class="node"><title>FloraMexico.MexicanOakSpecies2</title>
<polygon fill="#ffffcc" stroke="black" points="538.06,-92.5442 538.06,-107.456 451.914,-118 330.086,-118 243.94,-107.456 243.94,-92.5442 330.086,-82 451.914,-82 538.06,-92.5442"/>
<text text-anchor="middle" x="391" y="-96.3" font-family="Times,serif" font-size="14.00">FloraMexico.MexicanOakSpecies2</text>
</g>
<!-- FloraChina.ChineseOakSpecies2&#45;&gt;FloraMexico.MexicanOakSpecies2 -->
<g id="edge6" class="edge"><title>FloraChina.ChineseOakSpecies2&#45;&gt;FloraMexico.MexicanOakSpecies2</title>
<path fill="none" stroke="#ff0000" d="M581.173,-100C570.565,-100 559.577,-100 548.48,-100"/>
<polygon fill="#ff0000" stroke="#ff0000" points="548.266,-96.5001 538.266,-100 548.266,-103.5 548.266,-96.5001"/>
</g>
<!-- FloraMexico.OakGenus -->
<g id="node4" class="node"><title>FloraMexico.OakGenus</title>
<polygon fill="#ffffcc" stroke="black" points="208.234,-119.544 208.234,-134.456 147.175,-145 60.8249,-145 -0.233914,-134.456 -0.233914,-119.544 60.8249,-109 147.175,-109 208.234,-119.544"/>
<text text-anchor="middle" x="104" y="-123.3" font-family="Times,serif" font-size="14.00">FloraMexico.OakGenus</text>
</g>
<!-- FloraChina.OakGenus&#45;&gt;FloraMexico.OakGenus -->
<g id="edge5" class="edge"><title>FloraChina.OakGenus&#45;&gt;FloraMexico.OakGenus</title>
<path fill="none" stroke="#ff0000" d="M321.735,-147.533C288.319,-144.367 247.346,-140.485 210.055,-136.953"/>
<polygon fill="#ff0000" stroke="#ff0000" points="209.93,-133.425 199.644,-135.966 209.269,-140.394 209.93,-133.425"/>
</g>
<!-- FloraChina.OakGenus&#45;&gt;FloraMexico.MexicanOakSpecies2 -->
<g id="edge1" class="edge"><title>FloraChina.OakGenus&#45;&gt;FloraMexico.MexicanOakSpecies2</title>
<path fill="none" stroke="#0000ff" stroke-dasharray="1,5" d="M391,-135.79C391,-129.907 391,-124.024 391,-118.141"/>
</g>
<!-- FloraChina.ChineseOakSpecies1\nFloraMexico.MexicanOakSpecies1 -->
<g id="node3" class="node"><title>FloraChina.ChineseOakSpecies1\nFloraMexico.MexicanOakSpecies1</title>
<path fill="#eeeeee" stroke="black" d="M771.5,-174C771.5,-174 586.5,-174 586.5,-174 580.5,-174 574.5,-168 574.5,-162 574.5,-162 574.5,-148 574.5,-148 574.5,-142 580.5,-136 586.5,-136 586.5,-136 771.5,-136 771.5,-136 777.5,-136 783.5,-142 783.5,-148 783.5,-148 783.5,-162 783.5,-162 783.5,-168 777.5,-174 771.5,-174"/>
<text text-anchor="middle" x="679" y="-158.8" font-family="Times,serif" font-size="14.00">FloraChina.ChineseOakSpecies1</text>
<text text-anchor="middle" x="679" y="-143.8" font-family="Times,serif" font-size="14.00">FloraMexico.MexicanOakSpecies1</text>
</g>
<!-- FloraChina.ChineseOakSpecies1\nFloraMexico.MexicanOakSpecies1&#45;&gt;FloraChina.OakGenus -->
<g id="edge3" class="edge"><title>FloraChina.ChineseOakSpecies1\nFloraMexico.MexicanOakSpecies1&#45;&gt;FloraChina.OakGenus</title>
<path fill="none" stroke="#000000" d="M574.343,-154.638C540.012,-154.518 502.4,-154.386 470.3,-154.274"/>
<polygon fill="#000000" stroke="#000000" points="470.095,-150.773 460.083,-154.238 470.07,-157.773 470.095,-150.773"/>
</g>
<!-- FloraMexico.MexicanOakSpecies2&#45;&gt;FloraMexico.OakGenus -->
<g id="edge2" class="edge"><title>FloraMexico.MexicanOakSpecies2&#45;&gt;FloraMexico.OakGenus</title>
<path fill="none" stroke="#000000" d="M273.257,-111.06C252.252,-113.05 230.475,-115.113 209.834,-117.068"/>
<polygon fill="#000000" stroke="#000000" points="209.426,-113.591 199.8,-118.019 210.086,-120.56 209.426,-113.591"/>
</g>
<!-- Legend -->
<g id="node6" class="node"><title>Legend</title>
<polygon fill="white" stroke="black" points="919.5,-200.5 820.5,-200.5 820.5,0.5 919.5,0.5 919.5,-200.5"/>
<polygon fill="none" stroke="black" points="821,-174 821,-200 920,-200 920,-174 821,-174"/>
<text text-anchor="start" x="846" y="-183.3" font-family="Arial Black" font-size="14.00"> Nodes</text>
<polygon fill="#ccffcc" stroke="none" points="821,-149 821,-174 903,-174 903,-149 821,-149"/>
<polygon fill="none" stroke="black" points="821,-149 821,-174 903,-174 903,-149 821,-149"/>
<text text-anchor="start" x="831.5" y="-157.8" font-family="Times,serif" font-size="14.00">FloraChina</text>
<polygon fill="none" stroke="black" points="903,-149 903,-174 920,-174 920,-149 903,-149"/>
<text text-anchor="start" x="908" y="-157.8" font-family="Times,serif" font-size="14.00">2</text>
<polygon fill="#eeeeee" stroke="none" points="821,-124 821,-149 903,-149 903,-124 821,-124"/>
<polygon fill="none" stroke="black" points="821,-124 821,-149 903,-149 903,-124 821,-124"/>
<text text-anchor="start" x="846.5" y="-132.8" font-family="Times,serif" font-size="14.00">comb</text>
<polygon fill="none" stroke="black" points="903,-124 903,-149 920,-149 920,-124 903,-124"/>
<text text-anchor="start" x="908" y="-132.8" font-family="Times,serif" font-size="14.00">1</text>
<polygon fill="#ffffcc" stroke="none" points="821,-99 821,-124 903,-124 903,-99 821,-99"/>
<polygon fill="none" stroke="black" points="821,-99 821,-124 903,-124 903,-99 821,-99"/>
<text text-anchor="start" x="826.5" y="-107.8" font-family="Times,serif" font-size="14.00">FloraMexico</text>
<polygon fill="none" stroke="black" points="903,-99 903,-124 920,-124 920,-99 903,-99"/>
<text text-anchor="start" x="908" y="-107.8" font-family="Times,serif" font-size="14.00">2</text>
<polygon fill="none" stroke="black" points="821,-74 821,-99 920,-99 920,-74 821,-74"/>
<text text-anchor="start" x="844.5" y="-82.8" font-family="Arial Black" font-size="14.00"> Edges </text>
<polygon fill="none" stroke="black" points="821,-49 821,-74 903,-74 903,-49 821,-49"/>
<text text-anchor="start" x="839" y="-57.8" font-family="Times,serif" font-size="14.00" fill="#0000ff">overlaps</text>
<polygon fill="none" stroke="black" points="903,-49 903,-74 920,-74 920,-49 903,-49"/>
<text text-anchor="start" x="908" y="-57.8" font-family="Times,serif" font-size="14.00">1</text>
<polygon fill="none" stroke="black" points="821,-24 821,-49 903,-49 903,-24 821,-24"/>
<text text-anchor="start" x="848" y="-32.8" font-family="Times,serif" font-size="14.00" fill="#000000">input</text>
<polygon fill="none" stroke="black" points="903,-24 903,-49 920,-49 920,-24 903,-24"/>
<text text-anchor="start" x="908" y="-32.8" font-family="Times,serif" font-size="14.00">3</text>
<polygon fill="none" stroke="black" points="821,1 821,-24 903,-24 903,1 821,1"/>
<text text-anchor="start" x="840.5" y="-7.8" font-family="Times,serif" font-size="14.00" fill="#ff0000">inferred</text>
<polygon fill="none" stroke="black" points="903,1 903,-24 920,-24 920,1 903,1"/>
<text text-anchor="start" x="908" y="-7.8" font-family="Times,serif" font-size="14.00">2</text>
</g>
</g>
</svg>
