<?xml version="1.0" encoding="UTF-8" standalone="no"?>
<!DOCTYPE svg PUBLIC "-//W3C//DTD SVG 1.1//EN"
 "http://www.w3.org/Graphics/SVG/1.1/DTD/svg11.dtd">
<!-- Generated by graphviz version 2.36.0 (20140111.2315)
 -->
<!-- Title: %3 Pages: 1 -->
<svg width="682pt" height="263pt"
 viewBox="0.00 0.00 682.00 263.00" xmlns="http://www.w3.org/2000/svg" xmlns:xlink="http://www.w3.org/1999/xlink">
<g id="graph0" class="graph" transform="scale(1 1) rotate(0) translate(4 259)">
<title>%3</title>
<polygon fill="white" stroke="none" points="-4,4 -4,-259 678,-259 678,4 -4,4"/>
<!-- FloraChina.ChineseOakSpecies1 -->
<g id="node1" class="node"><title>FloraChina.ChineseOakSpecies1</title>
<polygon fill="#ccffcc" stroke="black" points="488.5,-255 293.5,-255 293.5,-219 488.5,-219 488.5,-255"/>
<text text-anchor="middle" x="391" y="-233.3" font-family="Times,serif" font-size="14.00">FloraChina.ChineseOakSpecies1</text>
</g>
<!-- FloraChina.OakGenus -->
<g id="node3" class="node"><title>FloraChina.OakGenus</title>
<polygon fill="#ccffcc" stroke="black" points="173,-214 35,-214 35,-178 173,-178 173,-214"/>
<text text-anchor="middle" x="104" y="-192.3" font-family="Times,serif" font-size="14.00">FloraChina.OakGenus</text>
</g>
<!-- FloraChina.ChineseOakSpecies1&#45;&gt;FloraChina.OakGenus -->
<g id="edge7" class="edge"><title>FloraChina.ChineseOakSpecies1&#45;&gt;FloraChina.OakGenus</title>
<path fill="none" stroke="#000000" d="M293.114,-223.062C257.431,-217.929 217.482,-212.182 183.608,-207.308"/>
<polygon fill="#000000" stroke="#000000" points="183.698,-203.786 173.301,-205.826 182.701,-210.714 183.698,-203.786"/>
</g>
<!-- FloraChina.ChineseOakSpecies2 -->
<g id="node2" class="node"><title>FloraChina.ChineseOakSpecies2</title>
<polygon fill="#ccffcc" stroke="black" points="488.5,-201 293.5,-201 293.5,-165 488.5,-165 488.5,-201"/>
<text text-anchor="middle" x="391" y="-179.3" font-family="Times,serif" font-size="14.00">FloraChina.ChineseOakSpecies2</text>
</g>
<!-- FloraChina.ChineseOakSpecies2&#45;&gt;FloraChina.OakGenus -->
<g id="edge8" class="edge"><title>FloraChina.ChineseOakSpecies2&#45;&gt;FloraChina.OakGenus</title>
<path fill="none" stroke="#000000" d="M293.114,-187.419C257.431,-189.047 217.482,-190.869 183.608,-192.414"/>
<polygon fill="#000000" stroke="#000000" points="183.132,-188.932 173.301,-192.884 183.451,-195.925 183.132,-188.932"/>
</g>
<!-- FloraMexico.OakGenus -->
<g id="node5" class="node"><title>FloraMexico.OakGenus</title>
<polygon fill="#ffffcc" stroke="black" points="208.234,-107.544 208.234,-122.456 147.175,-133 60.8249,-133 -0.233914,-122.456 -0.233914,-107.544 60.8249,-97 147.175,-97 208.234,-107.544"/>
<text text-anchor="middle" x="104" y="-111.3" font-family="Times,serif" font-size="14.00">FloraMexico.OakGenus</text>
</g>
<!-- FloraChina.ChineseOakSpecies2&#45;&gt;FloraMexico.OakGenus -->
<g id="edge2" class="edge"><title>FloraChina.ChineseOakSpecies2&#45;&gt;FloraMexico.OakGenus</title>
<path fill="none" stroke="#0000ff" stroke-dasharray="1,5" d="M293.496,-166.621C276.924,-163.389 259.919,-159.809 244,-156 214.637,-148.975 182.26,-139.527 156.146,-131.471"/>
</g>
<!-- FloraMexico.MexicanOakSpecies2 -->
<g id="node6" class="node"><title>FloraMexico.MexicanOakSpecies2</title>
<polygon fill="#ffffcc" stroke="black" points="538.06,-67.5442 538.06,-82.4558 451.914,-93 330.086,-93 243.94,-82.4558 243.94,-67.5442 330.086,-57 451.914,-57 538.06,-67.5442"/>
<text text-anchor="middle" x="391" y="-71.3" font-family="Times,serif" font-size="14.00">FloraMexico.MexicanOakSpecies2</text>
</g>
<!-- FloraChina.ChineseOakSpecies2&#45;&gt;FloraMexico.MexicanOakSpecies2 -->
<g id="edge4" class="edge"><title>FloraChina.ChineseOakSpecies2&#45;&gt;FloraMexico.MexicanOakSpecies2</title>
<path fill="none" stroke="#0000ff" stroke-dasharray="1,5" d="M488.625,-186.087C515.693,-181.407 541.588,-170.32 556,-147 564.412,-133.39 564.412,-124.61 556,-111 548.601,-99.0284 538.176,-90.2805 526.12,-83.9683"/>
</g>
<!-- FloraChina.OakGenus&#45;&gt;FloraMexico.OakGenus -->
<g id="edge1" class="edge"><title>FloraChina.OakGenus&#45;&gt;FloraMexico.OakGenus</title>
<path fill="none" stroke="#0000ff" stroke-dasharray="1,5" d="M104,-177.799C104,-162.878 104,-147.957 104,-133.035"/>
</g>
<!-- FloraChina.OakGenus&#45;&gt;FloraMexico.MexicanOakSpecies2 -->
<g id="edge3" class="edge"><title>FloraChina.OakGenus&#45;&gt;FloraMexico.MexicanOakSpecies2</title>
<path fill="none" stroke="#0000ff" stroke-dasharray="1,5" d="M147.378,-177.985C166.819,-168.695 189.584,-156.306 208,-142 226.888,-127.328 223.131,-113.685 244,-102 255.358,-95.6404 267.917,-90.7392 280.76,-86.9685"/>
</g>
<!-- FloraMexico.MexicanOakSpecies1 -->
<g id="node4" class="node"><title>FloraMexico.MexicanOakSpecies1</title>
<polygon fill="#ffffcc" stroke="black" points="538.06,-121.544 538.06,-136.456 451.914,-147 330.086,-147 243.94,-136.456 243.94,-121.544 330.086,-111 451.914,-111 538.06,-121.544"/>
<text text-anchor="middle" x="391" y="-125.3" font-family="Times,serif" font-size="14.00">FloraMexico.MexicanOakSpecies1</text>
</g>
<!-- FloraMexico.MexicanOakSpecies1&#45;&gt;FloraMexico.OakGenus -->
<g id="edge6" class="edge"><title>FloraMexico.MexicanOakSpecies1&#45;&gt;FloraMexico.OakGenus</title>
<path fill="none" stroke="#000000" d="M243.743,-121.815C235.29,-121.4 226.854,-120.986 218.555,-120.578"/>
<polygon fill="#000000" stroke="#000000" points="218.668,-117.08 208.508,-120.085 218.324,-124.071 218.668,-117.08"/>
</g>
<!-- FloraMexico.MexicanOakSpecies2&#45;&gt;FloraMexico.OakGenus -->
<g id="edge5" class="edge"><title>FloraMexico.MexicanOakSpecies2&#45;&gt;FloraMexico.OakGenus</title>
<path fill="none" stroke="#000000" d="M293.512,-88.5422C262.037,-92.9597 227.208,-97.848 196.139,-102.209"/>
<polygon fill="#000000" stroke="#000000" points="195.609,-98.7485 186.193,-103.605 196.582,-105.681 195.609,-98.7485"/>
</g>
<!-- Legend -->
<g id="node7" class="node"><title>Legend</title>
<polygon fill="white" stroke="black" points="673.5,-150.5 574.5,-150.5 574.5,0.5 673.5,0.5 673.5,-150.5"/>
<polygon fill="none" stroke="black" points="575,-124 575,-150 674,-150 674,-124 575,-124"/>
<text text-anchor="start" x="600" y="-133.3" font-family="Arial Black" font-size="14.00"> Nodes</text>
<polygon fill="#ccffcc" stroke="none" points="575,-99 575,-124 657,-124 657,-99 575,-99"/>
<polygon fill="none" stroke="black" points="575,-99 575,-124 657,-124 657,-99 575,-99"/>
<text text-anchor="start" x="585.5" y="-107.8" font-family="Times,serif" font-size="14.00">FloraChina</text>
<polygon fill="none" stroke="black" points="657,-99 657,-124 674,-124 674,-99 657,-99"/>
<text text-anchor="start" x="662" y="-107.8" font-family="Times,serif" font-size="14.00">3</text>
<polygon fill="#ffffcc" stroke="none" points="575,-74 575,-99 657,-99 657,-74 575,-74"/>
<polygon fill="none" stroke="black" points="575,-74 575,-99 657,-99 657,-74 575,-74"/>
<text text-anchor="start" x="580.5" y="-82.8" font-family="Times,serif" font-size="14.00">FloraMexico</text>
<polygon fill="none" stroke="black" points="657,-74 657,-99 674,-99 674,-74 657,-74"/>
<text text-anchor="start" x="662" y="-82.8" font-family="Times,serif" font-size="14.00">3</text>
<polygon fill="none" stroke="black" points="575,-49 575,-74 674,-74 674,-49 575,-49"/>
<text text-anchor="start" x="598.5" y="-57.8" font-family="Arial Black" font-size="14.00"> Edges </text>
<polygon fill="none" stroke="black" points="575,-24 575,-49 657,-49 657,-24 575,-24"/>
<text text-anchor="start" x="593" y="-32.8" font-family="Times,serif" font-size="14.00" fill="#0000ff">overlaps</text>
<polygon fill="none" stroke="black" points="657,-24 657,-49 674,-49 674,-24 657,-24"/>
<text text-anchor="start" x="662" y="-32.8" font-family="Times,serif" font-size="14.00">4</text>
<polygon fill="none" stroke="black" points="575,1 575,-24 657,-24 657,1 575,1"/>
<text text-anchor="start" x="602" y="-7.8" font-family="Times,serif" font-size="14.00" fill="#000000">input</text>
<polygon fill="none" stroke="black" points="657,1 657,-24 674,-24 674,1 657,1"/>
<text text-anchor="start" x="662" y="-7.8" font-family="Times,serif" font-size="14.00">4</text>
</g>
</g>
</svg>
