<?xml version="1.0" encoding="UTF-8" standalone="no"?>
<!DOCTYPE svg PUBLIC "-//W3C//DTD SVG 1.1//EN"
 "http://www.w3.org/Graphics/SVG/1.1/DTD/svg11.dtd">
<!-- Generated by graphviz version 2.36.0 (20140111.2315)
 -->
<!-- Title: %3 Pages: 1 -->
<svg width="914pt" height="194pt"
 viewBox="0.00 0.00 914.00 194.00" xmlns="http://www.w3.org/2000/svg" xmlns:xlink="http://www.w3.org/1999/xlink">
<g id="graph0" class="graph" transform="scale(1 1) rotate(0) translate(4 190)">
<title>%3</title>
<polygon fill="white" stroke="none" points="-4,4 -4,-190 910,-190 910,4 -4,4"/>
<!-- FloraChina.OakGenus -->
<g id="node1" class="node"><title>FloraChina.OakGenus</title>
<polygon fill="#ccffcc" stroke="black" points="460,-186 322,-186 322,-150 460,-150 460,-186"/>
<text text-anchor="middle" x="391" y="-164.3" font-family="Times,serif" font-size="14.00">FloraChina.OakGenus</text>
</g>
<!-- FloraMexico.MexicanOakSpecies1 -->
<g id="node4" class="node"><title>FloraMexico.MexicanOakSpecies1</title>
<polygon fill="#ffffcc" stroke="black" points="538.06,-106.544 538.06,-121.456 451.914,-132 330.086,-132 243.94,-121.456 243.94,-106.544 330.086,-96 451.914,-96 538.06,-106.544"/>
<text text-anchor="middle" x="391" y="-110.3" font-family="Times,serif" font-size="14.00">FloraMexico.MexicanOakSpecies1</text>
</g>
<!-- FloraChina.OakGenus&#45;&gt;FloraMexico.MexicanOakSpecies1 -->
<g id="edge1" class="edge"><title>FloraChina.OakGenus&#45;&gt;FloraMexico.MexicanOakSpecies1</title>
<path fill="none" stroke="#0000ff" stroke-dasharray="1,5" d="M391,-149.79C391,-143.907 391,-138.024 391,-132.141"/>
</g>
<!-- FloraMexico.OakGenus -->
<g id="node5" class="node"><title>FloraMexico.OakGenus</title>
<polygon fill="#ffffcc" stroke="black" points="208.234,-106.544 208.234,-121.456 147.175,-132 60.8249,-132 -0.233914,-121.456 -0.233914,-106.544 60.8249,-96 147.175,-96 208.234,-106.544"/>
<text text-anchor="middle" x="104" y="-110.3" font-family="Times,serif" font-size="14.00">FloraMexico.OakGenus</text>
</g>
<!-- FloraChina.OakGenus&#45;&gt;FloraMexico.OakGenus -->
<g id="edge9" class="edge"><title>FloraChina.OakGenus&#45;&gt;FloraMexico.OakGenus</title>
<path fill="none" stroke="#ff0000" d="M321.642,-155.49C297.144,-150.972 269.326,-145.801 244,-141 224.474,-137.298 203.419,-133.242 183.748,-129.424"/>
<polygon fill="#ff0000" stroke="#ff0000" points="184.394,-125.984 173.91,-127.512 183.059,-132.856 184.394,-125.984"/>
</g>
<!-- FloraMexico.MexicanOakSpecies2 -->
<g id="node6" class="node"><title>FloraMexico.MexicanOakSpecies2</title>
<polygon fill="#ffffcc" stroke="black" points="538.06,-52.5442 538.06,-67.4558 451.914,-78 330.086,-78 243.94,-67.4558 243.94,-52.5442 330.086,-42 451.914,-42 538.06,-52.5442"/>
<text text-anchor="middle" x="391" y="-56.3" font-family="Times,serif" font-size="14.00">FloraMexico.MexicanOakSpecies2</text>
</g>
<!-- FloraChina.OakGenus&#45;&gt;FloraMexico.MexicanOakSpecies2 -->
<g id="edge2" class="edge"><title>FloraChina.OakGenus&#45;&gt;FloraMexico.MexicanOakSpecies2</title>
<path fill="none" stroke="#0000ff" stroke-dasharray="1,5" d="M460.408,-173.89C496.304,-172.637 536.578,-163.425 556,-132 564.412,-118.39 564.412,-109.61 556,-96 548.601,-84.0284 538.176,-75.2805 526.12,-68.9683"/>
</g>
<!-- FloraChina.ChineseOakSpecies1 -->
<g id="node2" class="node"><title>FloraChina.ChineseOakSpecies1</title>
<polygon fill="#ccffcc" stroke="black" points="769.5,-105 574.5,-105 574.5,-69 769.5,-69 769.5,-105"/>
<text text-anchor="middle" x="672" y="-83.3" font-family="Times,serif" font-size="14.00">FloraChina.ChineseOakSpecies1</text>
</g>
<!-- FloraChina.ChineseOakSpecies1&#45;&gt;FloraChina.OakGenus -->
<g id="edge8" class="edge"><title>FloraChina.ChineseOakSpecies1&#45;&gt;FloraChina.OakGenus</title>
<path fill="none" stroke="#000000" d="M632.459,-105.078C606.296,-116.741 570.652,-131.46 538,-141 516.329,-147.332 492.397,-152.492 470.287,-156.54"/>
<polygon fill="#000000" stroke="#000000" points="469.504,-153.124 460.272,-158.322 470.73,-160.016 469.504,-153.124"/>
</g>
<!-- FloraChina.ChineseOakSpecies1&#45;&gt;FloraMexico.MexicanOakSpecies2 -->
<g id="edge10" class="edge"><title>FloraChina.ChineseOakSpecies1&#45;&gt;FloraMexico.MexicanOakSpecies2</title>
<path fill="none" stroke="#ff0000" d="M574.202,-77.6325C556.059,-75.8766 536.848,-74.0176 517.972,-72.1908"/>
<polygon fill="#ff0000" stroke="#ff0000" points="518.125,-68.6894 507.834,-71.2098 517.451,-75.6568 518.125,-68.6894"/>
</g>
<!-- FloraChina.ChineseOakSpecies2 -->
<g id="node3" class="node"><title>FloraChina.ChineseOakSpecies2</title>
<polygon fill="#ccffcc" stroke="black" points="769.5,-186 574.5,-186 574.5,-150 769.5,-150 769.5,-186"/>
<text text-anchor="middle" x="672" y="-164.3" font-family="Times,serif" font-size="14.00">FloraChina.ChineseOakSpecies2</text>
</g>
<!-- FloraChina.ChineseOakSpecies2&#45;&gt;FloraChina.OakGenus -->
<g id="edge6" class="edge"><title>FloraChina.ChineseOakSpecies2&#45;&gt;FloraChina.OakGenus</title>
<path fill="none" stroke="#000000" d="M574.202,-168C540.26,-168 502.586,-168 470.345,-168"/>
<polygon fill="#000000" stroke="#000000" points="470.08,-164.5 460.08,-168 470.08,-171.5 470.08,-164.5"/>
</g>
<!-- FloraChina.ChineseOakSpecies2&#45;&gt;FloraMexico.MexicanOakSpecies1 -->
<g id="edge3" class="edge"><title>FloraChina.ChineseOakSpecies2&#45;&gt;FloraMexico.MexicanOakSpecies1</title>
<path fill="none" stroke="#0000ff" stroke-dasharray="1,5" d="M583.405,-149.992C568.272,-146.945 552.688,-143.849 538,-141 517.756,-137.074 495.906,-132.964 475.432,-129.17"/>
</g>
<!-- FloraChina.ChineseOakSpecies2&#45;&gt;FloraMexico.MexicanOakSpecies2 -->
<g id="edge4" class="edge"><title>FloraChina.ChineseOakSpecies2&#45;&gt;FloraMexico.MexicanOakSpecies2</title>
<path fill="none" stroke="#0000ff" stroke-dasharray="1,5" d="M635.761,-149.87C617.054,-139.877 593.885,-126.907 574,-114 557.224,-103.111 556.317,-95.0305 538,-87 524.426,-81.0487 509.583,-76.4086 494.728,-72.7911"/>
</g>
<!-- FloraMexico.MexicanOakSpecies1&#45;&gt;FloraMexico.OakGenus -->
<g id="edge5" class="edge"><title>FloraMexico.MexicanOakSpecies1&#45;&gt;FloraMexico.OakGenus</title>
<path fill="none" stroke="#000000" d="M243.743,-114C235.29,-114 226.854,-114 218.555,-114"/>
<polygon fill="#000000" stroke="#000000" points="218.508,-110.5 208.508,-114 218.508,-117.5 218.508,-110.5"/>
</g>
<!-- FloraMexico.MexicanOakSpecies2&#45;&gt;FloraMexico.OakGenus -->
<g id="edge7" class="edge"><title>FloraMexico.MexicanOakSpecies2&#45;&gt;FloraMexico.OakGenus</title>
<path fill="none" stroke="#000000" d="M306.975,-75.2202C286.39,-79.0308 264.387,-83.1349 244,-87 224.474,-90.7017 203.419,-94.758 183.748,-98.5758"/>
<polygon fill="#000000" stroke="#000000" points="183.059,-95.1442 173.91,-100.488 184.394,-102.016 183.059,-95.1442"/>
</g>
<!-- Legend -->
<g id="node7" class="node"><title>Legend</title>
<polygon fill="white" stroke="black" points="905.5,-175 806.5,-175 806.5,1 905.5,1 905.5,-175"/>
<polygon fill="none" stroke="black" points="807,-149 807,-175 906,-175 906,-149 807,-149"/>
<text text-anchor="start" x="832" y="-158.3" font-family="Arial Black" font-size="14.00"> Nodes</text>
<polygon fill="#ccffcc" stroke="none" points="807,-124 807,-149 889,-149 889,-124 807,-124"/>
<polygon fill="none" stroke="black" points="807,-124 807,-149 889,-149 889,-124 807,-124"/>
<text text-anchor="start" x="817.5" y="-132.8" font-family="Times,serif" font-size="14.00">FloraChina</text>
<polygon fill="none" stroke="black" points="889,-124 889,-149 906,-149 906,-124 889,-124"/>
<text text-anchor="start" x="894" y="-132.8" font-family="Times,serif" font-size="14.00">3</text>
<polygon fill="#ffffcc" stroke="none" points="807,-99 807,-124 889,-124 889,-99 807,-99"/>
<polygon fill="none" stroke="black" points="807,-99 807,-124 889,-124 889,-99 807,-99"/>
<text text-anchor="start" x="812.5" y="-107.8" font-family="Times,serif" font-size="14.00">FloraMexico</text>
<polygon fill="none" stroke="black" points="889,-99 889,-124 906,-124 906,-99 889,-99"/>
<text text-anchor="start" x="894" y="-107.8" font-family="Times,serif" font-size="14.00">3</text>
<polygon fill="none" stroke="black" points="807,-74 807,-99 906,-99 906,-74 807,-74"/>
<text text-anchor="start" x="830.5" y="-82.8" font-family="Arial Black" font-size="14.00"> Edges </text>
<polygon fill="none" stroke="black" points="807,-49 807,-74 889,-74 889,-49 807,-49"/>
<text text-anchor="start" x="825" y="-57.8" font-family="Times,serif" font-size="14.00" fill="#0000ff">overlaps</text>
<polygon fill="none" stroke="black" points="889,-49 889,-74 906,-74 906,-49 889,-49"/>
<text text-anchor="start" x="894" y="-57.8" font-family="Times,serif" font-size="14.00">4</text>
<polygon fill="none" stroke="black" points="807,-24 807,-49 889,-49 889,-24 807,-24"/>
<text text-anchor="start" x="834" y="-32.8" font-family="Times,serif" font-size="14.00" fill="#000000">input</text>
<polygon fill="none" stroke="black" points="889,-24 889,-49 906,-49 906,-24 889,-24"/>
<text text-anchor="start" x="894" y="-32.8" font-family="Times,serif" font-size="14.00">4</text>
<polygon fill="none" stroke="black" points="807,1 807,-24 889,-24 889,1 807,1"/>
<text text-anchor="start" x="826.5" y="-7.8" font-family="Times,serif" font-size="14.00" fill="#ff0000">inferred</text>
<polygon fill="none" stroke="black" points="889,1 889,-24 906,-24 906,1 889,1"/>
<text text-anchor="start" x="894" y="-7.8" font-family="Times,serif" font-size="14.00">2</text>
</g>
</g>
</svg>
