<?xml version="1.0" encoding="UTF-8" standalone="no"?>
<!DOCTYPE svg PUBLIC "-//W3C//DTD SVG 1.1//EN"
 "http://www.w3.org/Graphics/SVG/1.1/DTD/svg11.dtd">
<!-- Generated by graphviz version 2.36.0 (20140111.2315)
 -->
<!-- Title: %3 Pages: 1 -->
<svg width="1106pt" height="182pt"
 viewBox="0.00 0.00 1106.00 182.00" xmlns="http://www.w3.org/2000/svg" xmlns:xlink="http://www.w3.org/1999/xlink">
<g id="graph0" class="graph" transform="scale(1 1) rotate(0) translate(4 178)">
<title>%3</title>
<polygon fill="white" stroke="none" points="-4,4 -4,-178 1102,-178 1102,4 -4,4"/>
<!-- FloraChina.OakGenus -->
<g id="node1" class="node"><title>FloraChina.OakGenus</title>
<polygon fill="#ccffcc" stroke="black" points="278,-105 140,-105 140,-69 278,-69 278,-105"/>
<text text-anchor="middle" x="209" y="-83.3" font-family="Times,serif" font-size="14.00">FloraChina.OakGenus</text>
</g>
<!-- FloraChina.ChineseOakSpecies1 -->
<g id="node2" class="node"><title>FloraChina.ChineseOakSpecies1</title>
<polygon fill="#ccffcc" stroke="black" points="511.5,-127 316.5,-127 316.5,-91 511.5,-91 511.5,-127"/>
<text text-anchor="middle" x="414" y="-105.3" font-family="Times,serif" font-size="14.00">FloraChina.ChineseOakSpecies1</text>
</g>
<!-- FloraChina.OakGenus&#45;&gt;FloraChina.ChineseOakSpecies1 -->
<g id="edge2" class="edge"><title>FloraChina.OakGenus&#45;&gt;FloraChina.ChineseOakSpecies1</title>
<path fill="none" stroke="#000000" d="M288.322,-95.4881C297.436,-96.4758 306.813,-97.492 316.138,-98.5026"/>
<polygon fill="#000000" stroke="#000000" points="288.48,-91.9848 278.161,-94.3869 287.725,-98.944 288.48,-91.9848"/>
</g>
<!-- FloraChina.ChineseOakSpecies2 -->
<g id="node3" class="node"><title>FloraChina.ChineseOakSpecies2</title>
<polygon fill="#ccffcc" stroke="black" points="511.5,-86 316.5,-86 316.5,-50 511.5,-50 511.5,-86"/>
<text text-anchor="middle" x="414" y="-64.3" font-family="Times,serif" font-size="14.00">FloraChina.ChineseOakSpecies2</text>
</g>
<!-- FloraChina.OakGenus&#45;&gt;FloraChina.ChineseOakSpecies2 -->
<g id="edge1" class="edge"><title>FloraChina.OakGenus&#45;&gt;FloraChina.ChineseOakSpecies2</title>
<path fill="none" stroke="#000000" d="M288.322,-79.6694C297.436,-78.8164 306.813,-77.9387 316.138,-77.0659"/>
<polygon fill="#000000" stroke="#000000" points="287.791,-76.2037 278.161,-80.6204 288.443,-83.1732 287.791,-76.2037"/>
</g>
<!-- FloraMexico.MexicanOakSpecies1 -->
<g id="node5" class="node"><title>FloraMexico.MexicanOakSpecies1</title>
<polygon fill="#ffffcc" stroke="black" points="852.06,-101.544 852.06,-116.456 765.914,-127 644.086,-127 557.94,-116.456 557.94,-101.544 644.086,-91 765.914,-91 852.06,-101.544"/>
<text text-anchor="middle" x="705" y="-105.3" font-family="Times,serif" font-size="14.00">FloraMexico.MexicanOakSpecies1</text>
</g>
<!-- FloraChina.ChineseOakSpecies1&#45;&gt;FloraMexico.MexicanOakSpecies1 -->
<g id="edge5" class="edge"><title>FloraChina.ChineseOakSpecies1&#45;&gt;FloraMexico.MexicanOakSpecies1</title>
<path fill="none" stroke="#aa00ff" stroke-width="3" stroke-dasharray="1,5" d="M511.635,-109C523.236,-109 535.302,-109 547.483,-109"/>
<polygon fill="#aa00ff" stroke="#aa00ff" stroke-width="3" points="547.734,-112.5 557.734,-109 547.733,-105.5 547.734,-112.5"/>
<text text-anchor="middle" x="535" y="-112.8" font-family="Times,serif" font-size="14.00">&lt;</text>
</g>
<!-- FloraMexico.OakGenus -->
<g id="node4" class="node"><title>FloraMexico.OakGenus</title>
<polygon fill="#ffffcc" stroke="black" points="1098.23,-79.5442 1098.23,-94.4558 1037.18,-105 950.825,-105 889.766,-94.4558 889.766,-79.5442 950.825,-69 1037.18,-69 1098.23,-79.5442"/>
<text text-anchor="middle" x="994" y="-83.3" font-family="Times,serif" font-size="14.00">FloraMexico.OakGenus</text>
</g>
<!-- FloraMexico.MexicanOakSpecies1&#45;&gt;FloraMexico.OakGenus -->
<g id="edge4" class="edge"><title>FloraMexico.MexicanOakSpecies1&#45;&gt;FloraMexico.OakGenus</title>
<path fill="none" stroke="#000000" d="M833.554,-99.2224C849.396,-98.008 865.501,-96.7735 881.083,-95.579"/>
<polygon fill="#000000" stroke="#000000" points="881.535,-99.0547 891.239,-94.8005 881,-92.0752 881.535,-99.0547"/>
</g>
<!-- FloraMexico.MexicanOakSpecies2 -->
<g id="node6" class="node"><title>FloraMexico.MexicanOakSpecies2</title>
<polygon fill="#ffffcc" stroke="black" points="852.06,-60.5442 852.06,-75.4558 765.914,-86 644.086,-86 557.94,-75.4558 557.94,-60.5442 644.086,-50 765.914,-50 852.06,-60.5442"/>
<text text-anchor="middle" x="705" y="-64.3" font-family="Times,serif" font-size="14.00">FloraMexico.MexicanOakSpecies2</text>
</g>
<!-- FloraMexico.MexicanOakSpecies2&#45;&gt;FloraMexico.OakGenus -->
<g id="edge3" class="edge"><title>FloraMexico.MexicanOakSpecies2&#45;&gt;FloraMexico.OakGenus</title>
<path fill="none" stroke="#000000" d="M840.676,-76.9159C853.662,-77.7755 866.745,-78.6416 879.496,-79.4858"/>
<polygon fill="#000000" stroke="#000000" points="879.434,-82.9893 889.644,-80.1576 879.897,-76.0046 879.434,-82.9893"/>
</g>
<!-- Legend -->
<g id="node7" class="node"><title>Legend</title>
<polygon fill="white" stroke="black" points="121.5,-175 0.5,-175 0.5,1 121.5,1 121.5,-175"/>
<polygon fill="none" stroke="black" points="1,-149 1,-175 122,-175 122,-149 1,-149"/>
<text text-anchor="start" x="37" y="-158.3" font-family="Arial Black" font-size="14.00"> Nodes</text>
<polygon fill="#ccffcc" stroke="none" points="1,-124 1,-149 105,-149 105,-124 1,-124"/>
<polygon fill="none" stroke="black" points="1,-124 1,-149 105,-149 105,-124 1,-124"/>
<text text-anchor="start" x="22.5" y="-132.8" font-family="Times,serif" font-size="14.00">FloraChina</text>
<polygon fill="none" stroke="black" points="105,-124 105,-149 122,-149 122,-124 105,-124"/>
<text text-anchor="start" x="110" y="-132.8" font-family="Times,serif" font-size="14.00">3</text>
<polygon fill="#ffffcc" stroke="none" points="1,-99 1,-124 105,-124 105,-99 1,-99"/>
<polygon fill="none" stroke="black" points="1,-99 1,-124 105,-124 105,-99 1,-99"/>
<text text-anchor="start" x="17.5" y="-107.8" font-family="Times,serif" font-size="14.00">FloraMexico</text>
<polygon fill="none" stroke="black" points="105,-99 105,-124 122,-124 122,-99 105,-99"/>
<text text-anchor="start" x="110" y="-107.8" font-family="Times,serif" font-size="14.00">3</text>
<polygon fill="none" stroke="black" points="1,-74 1,-99 122,-99 122,-74 1,-74"/>
<text text-anchor="start" x="35.5" y="-82.8" font-family="Arial Black" font-size="14.00"> Edges </text>
<polygon fill="none" stroke="black" points="1,-49 1,-74 105,-74 105,-49 1,-49"/>
<text text-anchor="start" x="11.5" y="-57.8" font-family="Times,serif" font-size="14.00" fill="#000000">isa_FloraChina</text>
<polygon fill="none" stroke="black" points="105,-49 105,-74 122,-74 122,-49 105,-49"/>
<text text-anchor="start" x="110" y="-57.8" font-family="Times,serif" font-size="14.00">2</text>
<polygon fill="none" stroke="black" points="1,-24 1,-49 105,-49 105,-24 1,-24"/>
<text text-anchor="start" x="6.5" y="-32.8" font-family="Times,serif" font-size="14.00" fill="#000000">isa_FloraMexico</text>
<polygon fill="none" stroke="black" points="105,-24 105,-49 122,-49 122,-24 105,-24"/>
<text text-anchor="start" x="110" y="-32.8" font-family="Times,serif" font-size="14.00">2</text>
<polygon fill="none" stroke="black" points="1,1 1,-24 105,-24 105,1 1,1"/>
<text text-anchor="start" x="42" y="-7.8" font-family="Times,serif" font-size="14.00" fill="#aa00ff">Art.</text>
<polygon fill="none" stroke="black" points="105,1 105,-24 122,-24 122,1 105,1"/>
<text text-anchor="start" x="110" y="-7.8" font-family="Times,serif" font-size="14.00">1</text>
</g>
</g>
</svg>
