<?xml version="1.0" encoding="UTF-8" standalone="no"?>
<!DOCTYPE svg PUBLIC "-//W3C//DTD SVG 1.1//EN"
 "http://www.w3.org/Graphics/SVG/1.1/DTD/svg11.dtd">
<!-- Generated by graphviz version 2.36.0 (20140111.2315)
 -->
<!-- Title: %3 Pages: 1 -->
<svg width="1106pt" height="182pt"
 viewBox="0.00 0.00 1106.00 182.00" xmlns="http://www.w3.org/2000/svg" xmlns:xlink="http://www.w3.org/1999/xlink">
<g id="graph0" class="graph" transform="scale(1 1) rotate(0) translate(4 178)">
<title>%3</title>
<polygon fill="white" stroke="none" points="-4,4 -4,-178 1102,-178 1102,4 -4,4"/>
<!-- FloraChina.OakGenus -->
<g id="node1" class="node"><title>FloraChina.OakGenus</title>
<polygon fill="#ccffcc" stroke="black" points="278,-105 140,-105 140,-69 278,-69 278,-105"/>
<text text-anchor="middle" x="209" y="-83.3" font-family="Times,serif" font-size="14.00">FloraChina.OakGenus</text>
</g>
<!-- FloraChina.ChineseOakSpecies1 -->
<g id="node2" class="node"><title>FloraChina.ChineseOakSpecies1</title>
<polygon fill="#ccffcc" stroke="black" points="511.5,-146 316.5,-146 316.5,-110 511.5,-110 511.5,-146"/>
<text text-anchor="middle" x="414" y="-124.3" font-family="Times,serif" font-size="14.00">FloraChina.ChineseOakSpecies1</text>
</g>
<!-- FloraChina.OakGenus&#45;&gt;FloraChina.ChineseOakSpecies1 -->
<g id="edge2" class="edge"><title>FloraChina.OakGenus&#45;&gt;FloraChina.ChineseOakSpecies1</title>
<path fill="none" stroke="#000000" d="M288.247,-102.804C299.869,-105.151 311.921,-107.585 323.748,-109.974"/>
<polygon fill="#000000" stroke="#000000" points="288.656,-99.3155 278.161,-100.766 287.27,-106.177 288.656,-99.3155"/>
</g>
<!-- FloraChina.ChineseOakSpecies2 -->
<g id="node3" class="node"><title>FloraChina.ChineseOakSpecies2</title>
<polygon fill="#ccffcc" stroke="black" points="511.5,-105 316.5,-105 316.5,-69 511.5,-69 511.5,-105"/>
<text text-anchor="middle" x="414" y="-83.3" font-family="Times,serif" font-size="14.00">FloraChina.ChineseOakSpecies2</text>
</g>
<!-- FloraChina.OakGenus&#45;&gt;FloraChina.ChineseOakSpecies2 -->
<g id="edge1" class="edge"><title>FloraChina.OakGenus&#45;&gt;FloraChina.ChineseOakSpecies2</title>
<path fill="none" stroke="#000000" d="M288.322,-87C297.436,-87 306.813,-87 316.138,-87"/>
<polygon fill="#000000" stroke="#000000" points="288.161,-83.5001 278.161,-87 288.161,-90.5001 288.161,-83.5001"/>
</g>
<!-- FloraMexico.MexicanOakSpecies1 -->
<g id="node5" class="node"><title>FloraMexico.MexicanOakSpecies1</title>
<polygon fill="#ffffcc" stroke="black" points="852.06,-72.5442 852.06,-87.4558 765.914,-98 644.086,-98 557.94,-87.4558 557.94,-72.5442 644.086,-62 765.914,-62 852.06,-72.5442"/>
<text text-anchor="middle" x="705" y="-76.3" font-family="Times,serif" font-size="14.00">FloraMexico.MexicanOakSpecies1</text>
</g>
<!-- FloraChina.OakGenus&#45;&gt;FloraMexico.MexicanOakSpecies1 -->
<g id="edge5" class="edge"><title>FloraChina.OakGenus&#45;&gt;FloraMexico.MexicanOakSpecies1</title>
<path fill="none" stroke="#aa00ff" stroke-width="3" stroke-dasharray="1,5" d="M245.77,-68.9066C265.853,-59.7619 291.695,-49.6396 316,-45 401.566,-28.666 425.714,-33.0415 512,-45 533.044,-47.9165 537.233,-53.5194 558,-58 569.863,-60.5594 582.331,-62.9246 594.776,-65.0799"/>
<polygon fill="#aa00ff" stroke="#aa00ff" stroke-width="3" points="594.295,-68.5482 604.739,-66.763 595.462,-61.646 594.295,-68.5482"/>
<text text-anchor="middle" x="414" y="-48.8" font-family="Times,serif" font-size="14.00">&gt;</text>
</g>
<!-- FloraChina.ChineseOakSpecies1&#45;&gt;FloraMexico.MexicanOakSpecies1 -->
<g id="edge6" class="edge"><title>FloraChina.ChineseOakSpecies1&#45;&gt;FloraMexico.MexicanOakSpecies1</title>
<path fill="none" stroke="#aa00ff" stroke-width="3" stroke-dasharray="1,5" d="M511.635,-111.95C541.857,-106.93 575.228,-101.388 605.572,-96.3479"/>
<polygon fill="#aa00ff" stroke="#aa00ff" stroke-width="3" points="606.446,-99.7507 615.738,-94.6595 605.299,-92.8453 606.446,-99.7507"/>
<text text-anchor="middle" x="535" y="-111.8" font-family="Times,serif" font-size="14.00">&lt;</text>
</g>
<!-- FloraMexico.OakGenus -->
<g id="node4" class="node"><title>FloraMexico.OakGenus</title>
<polygon fill="#ffffcc" stroke="black" points="1098.23,-50.5442 1098.23,-65.4558 1037.18,-76 950.825,-76 889.766,-65.4558 889.766,-50.5442 950.825,-40 1037.18,-40 1098.23,-50.5442"/>
<text text-anchor="middle" x="994" y="-54.3" font-family="Times,serif" font-size="14.00">FloraMexico.OakGenus</text>
</g>
<!-- FloraMexico.MexicanOakSpecies1&#45;&gt;FloraMexico.OakGenus -->
<g id="edge4" class="edge"><title>FloraMexico.MexicanOakSpecies1&#45;&gt;FloraMexico.OakGenus</title>
<path fill="none" stroke="#000000" d="M833.554,-70.2224C849.396,-69.008 865.501,-67.7735 881.083,-66.579"/>
<polygon fill="#000000" stroke="#000000" points="881.535,-70.0547 891.239,-65.8005 881,-63.0752 881.535,-70.0547"/>
</g>
<!-- FloraMexico.MexicanOakSpecies2 -->
<g id="node6" class="node"><title>FloraMexico.MexicanOakSpecies2</title>
<polygon fill="#ffffcc" stroke="black" points="852.06,-31.5442 852.06,-46.4558 765.914,-57 644.086,-57 557.94,-46.4558 557.94,-31.5442 644.086,-21 765.914,-21 852.06,-31.5442"/>
<text text-anchor="middle" x="705" y="-35.3" font-family="Times,serif" font-size="14.00">FloraMexico.MexicanOakSpecies2</text>
</g>
<!-- FloraMexico.MexicanOakSpecies2&#45;&gt;FloraMexico.OakGenus -->
<g id="edge3" class="edge"><title>FloraMexico.MexicanOakSpecies2&#45;&gt;FloraMexico.OakGenus</title>
<path fill="none" stroke="#000000" d="M840.676,-47.9159C853.662,-48.7755 866.745,-49.6416 879.496,-50.4858"/>
<polygon fill="#000000" stroke="#000000" points="879.434,-53.9893 889.644,-51.1576 879.897,-47.0046 879.434,-53.9893"/>
</g>
<!-- Legend -->
<g id="node7" class="node"><title>Legend</title>
<polygon fill="white" stroke="black" points="121.5,-175 0.5,-175 0.5,1 121.5,1 121.5,-175"/>
<polygon fill="none" stroke="black" points="1,-149 1,-175 122,-175 122,-149 1,-149"/>
<text text-anchor="start" x="37" y="-158.3" font-family="Arial Black" font-size="14.00"> Nodes</text>
<polygon fill="#ccffcc" stroke="none" points="1,-124 1,-149 105,-149 105,-124 1,-124"/>
<polygon fill="none" stroke="black" points="1,-124 1,-149 105,-149 105,-124 1,-124"/>
<text text-anchor="start" x="22.5" y="-132.8" font-family="Times,serif" font-size="14.00">FloraChina</text>
<polygon fill="none" stroke="black" points="105,-124 105,-149 122,-149 122,-124 105,-124"/>
<text text-anchor="start" x="110" y="-132.8" font-family="Times,serif" font-size="14.00">3</text>
<polygon fill="#ffffcc" stroke="none" points="1,-99 1,-124 105,-124 105,-99 1,-99"/>
<polygon fill="none" stroke="black" points="1,-99 1,-124 105,-124 105,-99 1,-99"/>
<text text-anchor="start" x="17.5" y="-107.8" font-family="Times,serif" font-size="14.00">FloraMexico</text>
<polygon fill="none" stroke="black" points="105,-99 105,-124 122,-124 122,-99 105,-99"/>
<text text-anchor="start" x="110" y="-107.8" font-family="Times,serif" font-size="14.00">3</text>
<polygon fill="none" stroke="black" points="1,-74 1,-99 122,-99 122,-74 1,-74"/>
<text text-anchor="start" x="35.5" y="-82.8" font-family="Arial Black" font-size="14.00"> Edges </text>
<polygon fill="none" stroke="black" points="1,-49 1,-74 105,-74 105,-49 1,-49"/>
<text text-anchor="start" x="11.5" y="-57.8" font-family="Times,serif" font-size="14.00" fill="#000000">isa_FloraChina</text>
<polygon fill="none" stroke="black" points="105,-49 105,-74 122,-74 122,-49 105,-49"/>
<text text-anchor="start" x="110" y="-57.8" font-family="Times,serif" font-size="14.00">2</text>
<polygon fill="none" stroke="black" points="1,-24 1,-49 105,-49 105,-24 1,-24"/>
<text text-anchor="start" x="6.5" y="-32.8" font-family="Times,serif" font-size="14.00" fill="#000000">isa_FloraMexico</text>
<polygon fill="none" stroke="black" points="105,-24 105,-49 122,-49 122,-24 105,-24"/>
<text text-anchor="start" x="110" y="-32.8" font-family="Times,serif" font-size="14.00">2</text>
<polygon fill="none" stroke="black" points="1,1 1,-24 105,-24 105,1 1,1"/>
<text text-anchor="start" x="42" y="-7.8" font-family="Times,serif" font-size="14.00" fill="#aa00ff">Art.</text>
<polygon fill="none" stroke="black" points="105,1 105,-24 122,-24 122,1 105,1"/>
<text text-anchor="start" x="110" y="-7.8" font-family="Times,serif" font-size="14.00">2</text>
</g>
</g>
</svg>
