<?xml version="1.0" encoding="UTF-8" standalone="no"?>
<!DOCTYPE svg PUBLIC "-//W3C//DTD SVG 1.1//EN"
 "http://www.w3.org/Graphics/SVG/1.1/DTD/svg11.dtd">
<!-- Generated by graphviz version 2.36.0 (20140111.2315)
 -->
<!-- Title: %3 Pages: 1 -->
<svg width="508pt" height="364pt"
 viewBox="0.00 0.00 508.00 364.00" xmlns="http://www.w3.org/2000/svg" xmlns:xlink="http://www.w3.org/1999/xlink">
<g id="graph0" class="graph" transform="scale(1 1) rotate(0) translate(4 360)">
<title>%3</title>
<polygon fill="white" stroke="none" points="-4,4 -4,-360 504,-360 504,4 -4,4"/>
<!-- AllOtherRed -->
<g id="node1" class="node"><title>AllOtherRed</title>
<polygon fill="none" stroke="#ffb0b0" stroke-dasharray="5,2" points="298.921,-330.544 298.921,-345.456 266.163,-356 219.837,-356 187.079,-345.456 187.079,-330.544 219.837,-320 266.163,-320 298.921,-330.544"/>
<text text-anchor="middle" x="243" y="-334.3" font-family="Helvetica,sans-Serif" font-stretch="condensed" font-size="14.00">AllOtherRed</text>
</g>
<!-- 1, 4, 5 -->
<g id="node3" class="node"><title>1, 4, 5</title>
<path fill="#a0ffa0" stroke="#006400" d="M42,-268C42,-268 12,-268 12,-268 6,-268 0,-262 0,-256 0,-256 0,-244 0,-244 0,-238 6,-232 12,-232 12,-232 42,-232 42,-232 48,-232 54,-238 54,-244 54,-244 54,-256 54,-256 54,-262 48,-268 42,-268"/>
<text text-anchor="middle" x="27" y="-246.3" font-family="Helvetica,sans-Serif" font-stretch="condensed" font-size="14.00">1, 4, 5</text>
</g>
<!-- AllOtherRed&#45;&gt;1, 4, 5 -->
<g id="edge1" class="edge"><title>AllOtherRed&#45;&gt;1, 4, 5</title>
<path fill="none" stroke="blue" d="M206.757,-324.19C170.131,-310.993 112.092,-289.386 63,-268 60.0851,-266.73 57.0555,-265.368 54.0463,-263.987"/>
<text text-anchor="middle" x="150.5" y="-290.3" font-family="Times,serif" font-size="14.00">2</text>
</g>
<!-- 1, 3, 5 -->
<g id="node4" class="node"><title>1, 3, 5</title>
<path fill="#a0ffa0" stroke="#006400" d="M114,-268C114,-268 84,-268 84,-268 78,-268 72,-262 72,-256 72,-256 72,-244 72,-244 72,-238 78,-232 84,-232 84,-232 114,-232 114,-232 120,-232 126,-238 126,-244 126,-244 126,-256 126,-256 126,-262 120,-268 114,-268"/>
<text text-anchor="middle" x="99" y="-246.3" font-family="Helvetica,sans-Serif" font-stretch="condensed" font-size="14.00">1, 3, 5</text>
</g>
<!-- AllOtherRed&#45;&gt;1, 3, 5 -->
<g id="edge3" class="edge"><title>AllOtherRed&#45;&gt;1, 3, 5</title>
<path fill="none" stroke="blue" d="M216.252,-321.026C190.55,-305.676 151.91,-282.599 126.093,-267.181"/>
<text text-anchor="middle" x="187.5" y="-290.3" font-family="Times,serif" font-size="14.00">2</text>
</g>
<!-- 1, 3, 4 -->
<g id="node5" class="node"><title>1, 3, 4</title>
<path fill="#a0ffa0" stroke="#006400" d="M186,-268C186,-268 156,-268 156,-268 150,-268 144,-262 144,-256 144,-256 144,-244 144,-244 144,-238 150,-232 156,-232 156,-232 186,-232 186,-232 192,-232 198,-238 198,-244 198,-244 198,-256 198,-256 198,-262 192,-268 186,-268"/>
<text text-anchor="middle" x="171" y="-246.3" font-family="Helvetica,sans-Serif" font-stretch="condensed" font-size="14.00">1, 3, 4</text>
</g>
<!-- AllOtherRed&#45;&gt;1, 3, 4 -->
<g id="edge5" class="edge"><title>AllOtherRed&#45;&gt;1, 3, 4</title>
<path fill="none" stroke="blue" d="M228.43,-319.597C215.856,-304.578 197.798,-283.009 185.303,-268.084"/>
<text text-anchor="middle" x="217.5" y="-290.3" font-family="Times,serif" font-size="14.00">2</text>
</g>
<!-- 1, 2, 3 -->
<g id="node6" class="node"><title>1, 2, 3</title>
<path fill="#a0ffa0" stroke="#006400" d="M258,-268C258,-268 228,-268 228,-268 222,-268 216,-262 216,-256 216,-256 216,-244 216,-244 216,-238 222,-232 228,-232 228,-232 258,-232 258,-232 264,-232 270,-238 270,-244 270,-244 270,-256 270,-256 270,-262 264,-268 258,-268"/>
<text text-anchor="middle" x="243" y="-246.3" font-family="Helvetica,sans-Serif" font-stretch="condensed" font-size="14.00">1, 2, 3</text>
</g>
<!-- AllOtherRed&#45;&gt;1, 2, 3 -->
<g id="edge7" class="edge"><title>AllOtherRed&#45;&gt;1, 2, 3</title>
<path fill="none" stroke="blue" d="M243,-319.597C243,-304.578 243,-283.009 243,-268.084"/>
<text text-anchor="middle" x="246.5" y="-290.3" font-family="Times,serif" font-size="14.00">2</text>
</g>
<!-- 5, 2 -->
<g id="node7" class="node"><title>5, 2</title>
<polygon fill="#ffb0b0" stroke="#ff0000" points="342,-242.544 342,-257.456 326.184,-268 303.816,-268 288,-257.456 288,-242.544 303.816,-232 326.184,-232 342,-242.544"/>
<text text-anchor="middle" x="315" y="-246.3" font-family="Helvetica,sans-Serif" font-stretch="condensed" font-size="14.00">5, 2</text>
</g>
<!-- AllOtherRed&#45;&gt;5, 2 -->
<g id="edge9" class="edge"><title>AllOtherRed&#45;&gt;5, 2</title>
<path fill="none" stroke="red" stroke-dasharray="5,2" d="M263.996,-311.922C276.159,-297.393 291.105,-279.541 301.666,-266.927"/>
<polygon fill="red" stroke="red" points="261.306,-309.682 257.57,-319.597 266.673,-314.176 261.306,-309.682"/>
<text text-anchor="middle" x="288.5" y="-290.3" font-family="Times,serif" font-size="14.00">3</text>
</g>
<!-- 2, 4 -->
<g id="node8" class="node"><title>2, 4</title>
<polygon fill="#ffb0b0" stroke="#ff0000" points="414,-242.544 414,-257.456 398.184,-268 375.816,-268 360,-257.456 360,-242.544 375.816,-232 398.184,-232 414,-242.544"/>
<text text-anchor="middle" x="387" y="-246.3" font-family="Helvetica,sans-Serif" font-stretch="condensed" font-size="14.00">2, 4</text>
</g>
<!-- AllOtherRed&#45;&gt;2, 4 -->
<g id="edge11" class="edge"><title>AllOtherRed&#45;&gt;2, 4</title>
<path fill="none" stroke="red" stroke-dasharray="5,2" d="M278.457,-315.824C306.467,-299.096 344.517,-276.372 367.329,-262.748"/>
<polygon fill="red" stroke="red" points="276.539,-312.893 269.748,-321.026 280.128,-318.903 276.539,-312.893"/>
<text text-anchor="middle" x="330.5" y="-290.3" font-family="Times,serif" font-size="14.00">3</text>
</g>
<!-- 3, 5, 4 -->
<g id="node9" class="node"><title>3, 5, 4</title>
<polygon fill="#ffb0b0" stroke="#ff0000" points="500.207,-242.544 500.207,-257.456 480.169,-268 451.831,-268 431.793,-257.456 431.793,-242.544 451.831,-232 480.169,-232 500.207,-242.544"/>
<text text-anchor="middle" x="466" y="-246.3" font-family="Helvetica,sans-Serif" font-stretch="condensed" font-size="14.00">3, 5, 4</text>
</g>
<!-- AllOtherRed&#45;&gt;3, 5, 4 -->
<g id="edge13" class="edge"><title>AllOtherRed&#45;&gt;3, 5, 4</title>
<path fill="none" stroke="red" stroke-dasharray="5,2" d="M288.649,-320.457C304.326,-314.702 321.962,-308.148 338,-302 373.291,-288.471 413.778,-272.215 439.603,-261.751"/>
<polygon fill="red" stroke="red" points="287.36,-317.201 279.172,-323.926 289.766,-323.775 287.36,-317.201"/>
<text text-anchor="middle" x="379.5" y="-290.3" font-family="Times,serif" font-size="14.00">2</text>
</g>
<!-- AllOtherGreen -->
<g id="node2" class="node"><title>AllOtherGreen</title>
<path fill="none" stroke="#006400" stroke-dasharray="5,2" d="M276.25,-180C276.25,-180 209.75,-180 209.75,-180 203.75,-180 197.75,-174 197.75,-168 197.75,-168 197.75,-156 197.75,-156 197.75,-150 203.75,-144 209.75,-144 209.75,-144 276.25,-144 276.25,-144 282.25,-144 288.25,-150 288.25,-156 288.25,-156 288.25,-168 288.25,-168 288.25,-174 282.25,-180 276.25,-180"/>
<text text-anchor="middle" x="243" y="-158.3" font-family="Helvetica,sans-Serif" font-stretch="condensed" font-size="14.00">AllOtherGreen</text>
</g>
<!-- 1, 4, 5&#45;&gt;AllOtherGreen -->
<g id="edge2" class="edge"><title>1, 4, 5&#45;&gt;AllOtherGreen</title>
<path fill="none" stroke="#006400" stroke-dasharray="5,2" d="M54.0463,-236.013C57.0555,-234.632 60.0851,-233.27 63,-232 104.227,-214.04 151.764,-195.925 187.63,-182.765"/>
<polygon fill="#006400" stroke="#006400" points="189.23,-185.907 197.422,-179.189 186.828,-179.332 189.23,-185.907"/>
<text text-anchor="middle" x="150.5" y="-202.3" font-family="Times,serif" font-size="14.00">3</text>
</g>
<!-- 1, 3, 5&#45;&gt;AllOtherGreen -->
<g id="edge4" class="edge"><title>1, 3, 5&#45;&gt;AllOtherGreen</title>
<path fill="none" stroke="#006400" stroke-dasharray="5,2" d="M126.085,-232.824C148.434,-219.477 180.395,-200.389 205.254,-185.543"/>
<polygon fill="#006400" stroke="#006400" points="207.269,-188.416 214.06,-180.284 203.68,-182.406 207.269,-188.416"/>
<text text-anchor="middle" x="187.5" y="-202.3" font-family="Times,serif" font-size="14.00">3</text>
</g>
<!-- 1, 3, 4&#45;&gt;AllOtherGreen -->
<g id="edge6" class="edge"><title>1, 3, 4&#45;&gt;AllOtherGreen</title>
<path fill="none" stroke="#006400" stroke-dasharray="5,2" d="M185.57,-231.597C196.081,-219.042 210.424,-201.91 222.147,-187.908"/>
<polygon fill="#006400" stroke="#006400" points="224.961,-189.998 228.697,-180.084 219.594,-185.505 224.961,-189.998"/>
<text text-anchor="middle" x="217.5" y="-202.3" font-family="Times,serif" font-size="14.00">3</text>
</g>
<!-- 1, 2, 3&#45;&gt;AllOtherGreen -->
<g id="edge8" class="edge"><title>1, 2, 3&#45;&gt;AllOtherGreen</title>
<path fill="none" stroke="#006400" stroke-dasharray="5,2" d="M243,-231.597C243,-219.746 243,-203.817 243,-190.292"/>
<polygon fill="#006400" stroke="#006400" points="246.5,-190.084 243,-180.084 239.5,-190.084 246.5,-190.084"/>
<text text-anchor="middle" x="246.5" y="-202.3" font-family="Times,serif" font-size="14.00">3</text>
</g>
<!-- 5, 2&#45;&gt;AllOtherGreen -->
<g id="edge10" class="edge"><title>5, 2&#45;&gt;AllOtherGreen</title>
<path fill="none" stroke="blue" d="M301.794,-233.226C289.209,-218.194 270.31,-195.62 257.357,-180.148"/>
<text text-anchor="middle" x="288.5" y="-202.3" font-family="Times,serif" font-size="14.00">2</text>
</g>
<!-- 2, 4&#45;&gt;AllOtherGreen -->
<g id="edge12" class="edge"><title>2, 4&#45;&gt;AllOtherGreen</title>
<path fill="none" stroke="blue" d="M367.58,-237.402C342.86,-222.639 299.959,-197.017 271.522,-180.034"/>
<text text-anchor="middle" x="330.5" y="-202.3" font-family="Times,serif" font-size="14.00">2</text>
</g>
<!-- 3, 5, 4&#45;&gt;AllOtherGreen -->
<g id="edge14" class="edge"><title>3, 5, 4&#45;&gt;AllOtherGreen</title>
<path fill="none" stroke="blue" d="M439.603,-238.249C413.778,-227.785 373.291,-211.529 338,-198 321.916,-191.834 304.225,-185.26 288.513,-179.494"/>
<text text-anchor="middle" x="379.5" y="-202.3" font-family="Times,serif" font-size="14.00">3</text>
</g>
<!-- Legend -->
<g id="node10" class="node"><title>Legend</title>
<polygon fill="none" stroke="black" points="404.25,-126 81.75,-126 81.75,-0 404.25,-0 404.25,-126"/>
<polygon fill="none" stroke="black" points="82,-100 82,-126 100,-126 100,-100 82,-100"/>
<text text-anchor="start" x="87.5" y="-109.3" font-family="Helvetica,sans-Serif" font-stretch="condensed" font-size="14.00">1</text>
<polygon fill="none" stroke="black" points="100,-100 100,-126 405,-126 405,-100 100,-100"/>
<text text-anchor="start" x="155.5" y="-109.3" font-family="Helvetica,sans-Serif" font-stretch="condensed" font-size="14.00">2015.Aves is_included_in 2014.Aves</text>
<polygon fill="none" stroke="black" points="82,-75 82,-100 100,-100 100,-75 82,-75"/>
<text text-anchor="start" x="87.5" y="-83.8" font-family="Helvetica,sans-Serif" font-stretch="condensed" font-size="14.00">2</text>
<polygon fill="none" stroke="black" points="100,-75 100,-100 405,-100 405,-75 100,-75"/>
<text text-anchor="start" x="122.5" y="-83.8" font-family="Helvetica,sans-Serif" font-stretch="condensed" font-size="14.00">2015.Gall_Neoa_Clade equals 2014.Neognathae</text>
<polygon fill="none" stroke="black" points="82,-50 82,-75 100,-75 100,-50 82,-50"/>
<text text-anchor="start" x="87.5" y="-58.8" font-family="Helvetica,sans-Serif" font-stretch="condensed" font-size="14.00">3</text>
<polygon fill="none" stroke="black" points="100,-50 100,-75 405,-75 405,-50 100,-50"/>
<text text-anchor="start" x="105" y="-58.8" font-family="Helvetica,sans-Serif" font-stretch="condensed" font-size="14.00">2015.Palaeognathae is_included_in 2014.Paleognathae</text>
<polygon fill="none" stroke="black" points="82,-25 82,-50 100,-50 100,-25 82,-25"/>
<text text-anchor="start" x="87.5" y="-33.8" font-family="Helvetica,sans-Serif" font-stretch="condensed" font-size="14.00">4</text>
<polygon fill="none" stroke="black" points="100,-25 100,-50 405,-50 405,-25 100,-25"/>
<text text-anchor="start" x="124" y="-33.8" font-family="Helvetica,sans-Serif" font-stretch="condensed" font-size="14.00">2015.Galloanserae equals 2014.Struthioniformes</text>
<polygon fill="none" stroke="black" points="82,-0 82,-25 100,-25 100,-0 82,-0"/>
<text text-anchor="start" x="87.5" y="-8.8" font-family="Helvetica,sans-Serif" font-stretch="condensed" font-size="14.00">5</text>
<polygon fill="none" stroke="black" points="100,-0 100,-25 405,-25 405,-0 100,-0"/>
<text text-anchor="start" x="142.5" y="-8.8" font-family="Helvetica,sans-Serif" font-stretch="condensed" font-size="14.00">2015.Neoaves equals 2014.Tinamiformes</text>
</g>
</g>
</svg>
