<?xml version="1.0" encoding="UTF-8" standalone="no"?>
<!DOCTYPE svg PUBLIC "-//W3C//DTD SVG 1.1//EN"
 "http://www.w3.org/Graphics/SVG/1.1/DTD/svg11.dtd">
<!-- Generated by graphviz version 2.36.0 (20140111.2315)
 -->
<!-- Title: %3 Pages: 1 -->
<svg width="994pt" height="260pt"
 viewBox="0.00 0.00 994.00 260.00" xmlns="http://www.w3.org/2000/svg" xmlns:xlink="http://www.w3.org/1999/xlink">
<g id="graph0" class="graph" transform="scale(1 1) rotate(0) translate(4 256)">
<title>%3</title>
<polygon fill="white" stroke="none" points="-4,4 -4,-256 990,-256 990,4 -4,4"/>
<!-- 1997.Amauris_damocles\n1995.Amauris_damocles_subsp_damocles -->
<g id="node1" class="node"><title>1997.Amauris_damocles\n1995.Amauris_damocles_subsp_damocles</title>
<path fill="#eeeeee" stroke="black" d="M883.5,-252C883.5,-252 658.5,-252 658.5,-252 652.5,-252 646.5,-246 646.5,-240 646.5,-240 646.5,-226 646.5,-226 646.5,-220 652.5,-214 658.5,-214 658.5,-214 883.5,-214 883.5,-214 889.5,-214 895.5,-220 895.5,-226 895.5,-226 895.5,-240 895.5,-240 895.5,-246 889.5,-252 883.5,-252"/>
<text text-anchor="middle" x="771" y="-236.8" font-family="Times,serif" font-size="14.00">1997.Amauris_damocles</text>
<text text-anchor="middle" x="771" y="-221.8" font-family="Times,serif" font-size="14.00">1995.Amauris_damocles_subsp_damocles</text>
</g>
<!-- 1995.Amauris_damocles -->
<g id="node3" class="node"><title>1995.Amauris_damocles</title>
<polygon fill="#ffffcc" stroke="black" points="215.769,-165.544 215.769,-180.456 152.639,-191 63.3607,-191 0.231124,-180.456 0.231124,-165.544 63.3607,-155 152.639,-155 215.769,-165.544"/>
<text text-anchor="middle" x="108" y="-169.3" font-family="Times,serif" font-size="14.00">1995.Amauris_damocles</text>
</g>
<!-- 1997.Amauris_damocles\n1995.Amauris_damocles_subsp_damocles&#45;&gt;1995.Amauris_damocles -->
<g id="edge1" class="edge"><title>1997.Amauris_damocles\n1995.Amauris_damocles_subsp_damocles&#45;&gt;1995.Amauris_damocles</title>
<path fill="none" stroke="#761212" d="M646.384,-231.004C542.809,-228.128 391.251,-221.112 260,-204 234.227,-200.64 206.277,-195.368 181.511,-190.118"/>
<polygon fill="#761212" stroke="#761212" points="181.982,-186.639 171.469,-187.954 180.508,-193.482 181.982,-186.639"/>
<text text-anchor="middle" x="428" y="-232.8" font-family="Times,serif" font-size="14.00">1</text>
</g>
<!-- 1997.Amauris_hyalites_subsp_makuyensis\n1995.Amauris_damocles_subsp_makuyensis -->
<g id="node2" class="node"><title>1997.Amauris_hyalites_subsp_makuyensis\n1995.Amauris_damocles_subsp_makuyensis</title>
<path fill="#eeeeee" stroke="black" d="M890,-190C890,-190 652,-190 652,-190 646,-190 640,-184 640,-178 640,-178 640,-164 640,-164 640,-158 646,-152 652,-152 652,-152 890,-152 890,-152 896,-152 902,-158 902,-164 902,-164 902,-178 902,-178 902,-184 896,-190 890,-190"/>
<text text-anchor="middle" x="771" y="-174.8" font-family="Times,serif" font-size="14.00">1997.Amauris_hyalites_subsp_makuyensis</text>
<text text-anchor="middle" x="771" y="-159.8" font-family="Times,serif" font-size="14.00">1995.Amauris_damocles_subsp_makuyensis</text>
</g>
<!-- 1997.Amauris_hyalites_subsp_makuyensis\n1995.Amauris_damocles_subsp_makuyensis&#45;&gt;1995.Amauris_damocles -->
<g id="edge6" class="edge"><title>1997.Amauris_hyalites_subsp_makuyensis\n1995.Amauris_damocles_subsp_makuyensis&#45;&gt;1995.Amauris_damocles</title>
<path fill="none" stroke="#761212" d="M639.683,-180.294C633.708,-180.566 627.791,-180.805 622,-181 449.654,-186.816 406.356,-186.51 234,-181 231.292,-180.913 228.551,-180.816 225.787,-180.71"/>
<polygon fill="#761212" stroke="#761212" points="225.835,-177.209 215.697,-180.286 225.541,-184.203 225.835,-177.209"/>
<text text-anchor="middle" x="428" y="-188.8" font-family="Times,serif" font-size="14.00">1</text>
</g>
<!-- 1997.Amauris_hyalites -->
<g id="node5" class="node"><title>1997.Amauris_hyalites</title>
<polygon fill="#ccffcc" stroke="black" points="499.5,-170 356.5,-170 356.5,-134 499.5,-134 499.5,-170"/>
<text text-anchor="middle" x="428" y="-148.3" font-family="Times,serif" font-size="14.00">1997.Amauris_hyalites</text>
</g>
<!-- 1997.Amauris_hyalites_subsp_makuyensis\n1995.Amauris_damocles_subsp_makuyensis&#45;&gt;1997.Amauris_hyalites -->
<g id="edge7" class="edge"><title>1997.Amauris_hyalites_subsp_makuyensis\n1995.Amauris_damocles_subsp_makuyensis&#45;&gt;1997.Amauris_hyalites</title>
<path fill="none" stroke="#761212" d="M639.623,-163.736C595.956,-161.303 548.567,-158.662 509.817,-156.503"/>
<polygon fill="#761212" stroke="#761212" points="509.824,-152.998 499.645,-155.936 509.435,-159.987 509.824,-152.998"/>
<text text-anchor="middle" x="618" y="-165.8" font-family="Times,serif" font-size="14.00">1</text>
</g>
<!-- 1995.Amauris_damocles_subsp_hyalites -->
<g id="node4" class="node"><title>1995.Amauris_damocles_subsp_hyalites</title>
<polygon fill="#ffffcc" stroke="black" points="596.27,-55.5442 596.27,-70.4558 497.7,-81 358.3,-81 259.73,-70.4558 259.73,-55.5442 358.3,-45 497.7,-45 596.27,-55.5442"/>
<text text-anchor="middle" x="428" y="-59.3" font-family="Times,serif" font-size="14.00">1995.Amauris_damocles_subsp_hyalites</text>
</g>
<!-- 1995.Amauris_damocles_subsp_hyalites&#45;&gt;1995.Amauris_damocles -->
<g id="edge5" class="edge"><title>1995.Amauris_damocles_subsp_hyalites&#45;&gt;1995.Amauris_damocles</title>
<path fill="none" stroke="#761212" d="M374.845,-81.0411C318.012,-100.7 227.281,-132.085 167.917,-152.62"/>
<polygon fill="#761212" stroke="#761212" points="166.612,-149.368 158.306,-155.945 168.9,-155.983 166.612,-149.368"/>
<text text-anchor="middle" x="238" y="-130.8" font-family="Times,serif" font-size="14.00">1</text>
</g>
<!-- 1997.Amauris_hyalites&#45;&gt;1995.Amauris_damocles -->
<g id="edge2" class="edge"><title>1997.Amauris_hyalites&#45;&gt;1995.Amauris_damocles</title>
<path fill="none" stroke="#761212" d="M356.425,-156.661C318.061,-159.194 269.625,-162.393 225.8,-165.287"/>
<polygon fill="#761212" stroke="#761212" points="225.397,-161.806 215.65,-165.957 225.858,-168.79 225.397,-161.806"/>
<text text-anchor="middle" x="238" y="-167.8" font-family="Times,serif" font-size="14.00">1</text>
</g>
<!-- 1997.Amauris_hyalites_subsp_hyalites -->
<g id="node6" class="node"><title>1997.Amauris_hyalites_subsp_hyalites</title>
<polygon fill="#ccffcc" stroke="black" points="886,-93 656,-93 656,-57 886,-57 886,-93"/>
<text text-anchor="middle" x="771" y="-71.3" font-family="Times,serif" font-size="14.00">1997.Amauris_hyalites_subsp_hyalites</text>
</g>
<!-- 1997.Amauris_hyalites_subsp_hyalites&#45;&gt;1995.Amauris_damocles_subsp_hyalites -->
<g id="edge3" class="edge"><title>1997.Amauris_hyalites_subsp_hyalites&#45;&gt;1995.Amauris_damocles_subsp_hyalites</title>
<path fill="none" stroke="#761212" d="M655.714,-65.7154C644.329,-65.0278 632.942,-64.4344 622,-64 616.899,-63.7975 611.722,-63.6155 606.496,-63.4524"/>
<polygon fill="#761212" stroke="#761212" points="606.489,-59.9508 596.392,-63.1614 606.287,-66.9479 606.489,-59.9508"/>
<text text-anchor="middle" x="618" y="-67.8" font-family="Times,serif" font-size="14.00">1</text>
</g>
<!-- 1997.Amauris_hyalites_subsp_hyalites&#45;&gt;1997.Amauris_hyalites -->
<g id="edge4" class="edge"><title>1997.Amauris_hyalites_subsp_hyalites&#45;&gt;1997.Amauris_hyalites</title>
<path fill="none" stroke="#761212" d="M690.051,-93.0531C635.752,-105.314 564.192,-121.473 509.729,-133.771"/>
<polygon fill="#761212" stroke="#761212" points="508.75,-130.404 499.767,-136.02 510.292,-137.232 508.75,-130.404"/>
<text text-anchor="middle" x="618" y="-111.8" font-family="Times,serif" font-size="14.00">1</text>
</g>
<!-- Legend -->
<g id="node7" class="node"><title>Legend</title>
<polygon fill="white" stroke="black" points="986,-150.5 920,-150.5 920,0.5 986,0.5 986,-150.5"/>
<polygon fill="none" stroke="black" points="920,-124 920,-150 986,-150 986,-124 920,-124"/>
<text text-anchor="start" x="928.5" y="-133.3" font-family="Arial Black" font-size="14.00"> Nodes</text>
<polygon fill="#eeeeee" stroke="none" points="920,-99 920,-124 969,-124 969,-99 920,-99"/>
<polygon fill="none" stroke="black" points="920,-99 920,-124 969,-124 969,-99 920,-99"/>
<text text-anchor="start" x="929" y="-107.8" font-family="Times,serif" font-size="14.00">comb</text>
<polygon fill="none" stroke="black" points="969,-99 969,-124 986,-124 986,-99 969,-99"/>
<text text-anchor="start" x="974" y="-107.8" font-family="Times,serif" font-size="14.00">2</text>
<polygon fill="#ffffcc" stroke="none" points="920,-74 920,-99 969,-99 969,-74 920,-74"/>
<polygon fill="none" stroke="black" points="920,-74 920,-99 969,-99 969,-74 920,-74"/>
<text text-anchor="start" x="930.5" y="-82.8" font-family="Times,serif" font-size="14.00">1995</text>
<polygon fill="none" stroke="black" points="969,-74 969,-99 986,-99 986,-74 969,-74"/>
<text text-anchor="start" x="974" y="-82.8" font-family="Times,serif" font-size="14.00">2</text>
<polygon fill="#ccffcc" stroke="none" points="920,-49 920,-74 969,-74 969,-49 920,-49"/>
<polygon fill="none" stroke="black" points="920,-49 920,-74 969,-74 969,-49 920,-49"/>
<text text-anchor="start" x="930.5" y="-57.8" font-family="Times,serif" font-size="14.00">1997</text>
<polygon fill="none" stroke="black" points="969,-49 969,-74 986,-74 986,-49 969,-49"/>
<text text-anchor="start" x="974" y="-57.8" font-family="Times,serif" font-size="14.00">2</text>
<polygon fill="none" stroke="black" points="920,-24 920,-49 986,-49 986,-24 920,-24"/>
<text text-anchor="start" x="927" y="-32.8" font-family="Arial Black" font-size="14.00"> Edges </text>
<polygon fill="none" stroke="black" points="920,1 920,-24 969,-24 969,1 920,1"/>
<text text-anchor="start" x="925.5" y="-7.8" font-family="Times,serif" font-size="14.00" fill="#000000">default</text>
<polygon fill="none" stroke="black" points="969,1 969,-24 986,-24 986,1 969,1"/>
<text text-anchor="start" x="974" y="-7.8" font-family="Times,serif" font-size="14.00">7</text>
</g>
</g>
</svg>
