<?xml version="1.0" encoding="UTF-8" standalone="no"?>
<!DOCTYPE svg PUBLIC "-//W3C//DTD SVG 1.1//EN"
 "http://www.w3.org/Graphics/SVG/1.1/DTD/svg11.dtd">
<!-- Generated by graphviz version 2.36.0 (20140111.2315)
 -->
<!-- Title: %3 Pages: 1 -->
<svg width="910pt" height="207pt"
 viewBox="0.00 0.00 910.00 207.00" xmlns="http://www.w3.org/2000/svg" xmlns:xlink="http://www.w3.org/1999/xlink">
<g id="graph0" class="graph" transform="scale(1 1) rotate(0) translate(4 203)">
<title>%3</title>
<polygon fill="white" stroke="none" points="-4,4 -4,-203 906,-203 906,4 -4,4"/>
<!-- 1995.Amauris_damocles -->
<g id="node1" class="node"><title>1995.Amauris_damocles</title>
<polygon fill="#ffffcc" stroke="black" points="215.769,-87.5442 215.769,-102.456 152.639,-113 63.3607,-113 0.231124,-102.456 0.231124,-87.5442 63.3607,-77 152.639,-77 215.769,-87.5442"/>
<text text-anchor="middle" x="108" y="-91.3" font-family="Times,serif" font-size="14.00">1995.Amauris_damocles</text>
</g>
<!-- 1995.Amauris_damocles_subsp_hyalites -->
<g id="node2" class="node"><title>1995.Amauris_damocles_subsp_hyalites</title>
<polygon fill="#ffffcc" stroke="black" points="596.27,-173.544 596.27,-188.456 497.7,-199 358.3,-199 259.73,-188.456 259.73,-173.544 358.3,-163 497.7,-163 596.27,-173.544"/>
<text text-anchor="middle" x="428" y="-177.3" font-family="Times,serif" font-size="14.00">1995.Amauris_damocles_subsp_hyalites</text>
</g>
<!-- 1995.Amauris_damocles_subsp_hyalites&#45;&gt;1995.Amauris_damocles -->
<g id="edge1" class="edge"><title>1995.Amauris_damocles_subsp_hyalites&#45;&gt;1995.Amauris_damocles</title>
<path fill="none" stroke="#761212" d="M325.206,-166.482C303.516,-162.51 280.866,-157.695 260,-152 225.877,-142.687 188.692,-128.699 159.761,-116.912"/>
<polygon fill="#761212" stroke="#761212" points="160.862,-113.58 150.282,-113.008 158.196,-120.052 160.862,-113.58"/>
<text text-anchor="middle" x="238" y="-148.8" font-family="Times,serif" font-size="14.00">1</text>
</g>
<!-- 1997.Amauris_damocles\n1995.Amauris_damocles_subsp_damocles -->
<g id="node3" class="node"><title>1997.Amauris_damocles\n1995.Amauris_damocles_subsp_damocles</title>
<path fill="#eeeeee" stroke="black" d="M540.5,-38C540.5,-38 315.5,-38 315.5,-38 309.5,-38 303.5,-32 303.5,-26 303.5,-26 303.5,-12 303.5,-12 303.5,-6 309.5,-0 315.5,-0 315.5,-0 540.5,-0 540.5,-0 546.5,-0 552.5,-6 552.5,-12 552.5,-12 552.5,-26 552.5,-26 552.5,-32 546.5,-38 540.5,-38"/>
<text text-anchor="middle" x="428" y="-22.8" font-family="Times,serif" font-size="14.00">1997.Amauris_damocles</text>
<text text-anchor="middle" x="428" y="-7.8" font-family="Times,serif" font-size="14.00">1995.Amauris_damocles_subsp_damocles</text>
</g>
<!-- 1997.Amauris_damocles\n1995.Amauris_damocles_subsp_damocles&#45;&gt;1995.Amauris_damocles -->
<g id="edge2" class="edge"><title>1997.Amauris_damocles\n1995.Amauris_damocles_subsp_damocles&#45;&gt;1995.Amauris_damocles</title>
<path fill="none" stroke="#761212" d="M303.334,-31.0484C280.097,-34.6094 256.153,-39.1731 234,-45 207.577,-51.9502 179.222,-62.9782 156.208,-72.911"/>
<polygon fill="#761212" stroke="#761212" points="154.772,-69.7191 147.019,-76.9406 157.583,-76.1298 154.772,-69.7191"/>
<text text-anchor="middle" x="238" y="-48.8" font-family="Times,serif" font-size="14.00">1</text>
</g>
<!-- 1997.Amauris_hyalites -->
<g id="node4" class="node"><title>1997.Amauris_hyalites</title>
<polygon fill="#ccffcc" stroke="black" points="499.5,-143 356.5,-143 356.5,-107 499.5,-107 499.5,-143"/>
<text text-anchor="middle" x="428" y="-121.3" font-family="Times,serif" font-size="14.00">1997.Amauris_hyalites</text>
</g>
<!-- 1997.Amauris_hyalites&#45;&gt;1995.Amauris_damocles -->
<g id="edge3" class="edge"><title>1997.Amauris_hyalites&#45;&gt;1995.Amauris_damocles</title>
<path fill="none" stroke="#761212" d="M356.425,-118.342C315.172,-114.45 262.273,-109.46 215.984,-105.093"/>
<polygon fill="#761212" stroke="#761212" points="216.193,-101.597 205.908,-104.142 215.535,-108.566 216.193,-101.597"/>
<text text-anchor="middle" x="238" y="-110.8" font-family="Times,serif" font-size="14.00">1</text>
</g>
<!-- 1997.Amauris_hyalites_subsp_hyalites -->
<g id="node5" class="node"><title>1997.Amauris_hyalites_subsp_hyalites</title>
<polygon fill="#ccffcc" stroke="black" points="886,-175 656,-175 656,-139 886,-139 886,-175"/>
<text text-anchor="middle" x="771" y="-153.3" font-family="Times,serif" font-size="14.00">1997.Amauris_hyalites_subsp_hyalites</text>
</g>
<!-- 1997.Amauris_hyalites_subsp_hyalites&#45;&gt;1995.Amauris_damocles_subsp_hyalites -->
<g id="edge4" class="edge"><title>1997.Amauris_hyalites_subsp_hyalites&#45;&gt;1995.Amauris_damocles_subsp_hyalites</title>
<path fill="none" stroke="#761212" d="M655.978,-165.025C632.324,-166.69 607.036,-168.47 582.239,-170.215"/>
<polygon fill="#761212" stroke="#761212" points="581.753,-166.74 572.024,-170.934 582.245,-173.723 581.753,-166.74"/>
<text text-anchor="middle" x="618" y="-170.8" font-family="Times,serif" font-size="14.00">1</text>
</g>
<!-- 1997.Amauris_hyalites_subsp_hyalites&#45;&gt;1997.Amauris_hyalites -->
<g id="edge5" class="edge"><title>1997.Amauris_hyalites_subsp_hyalites&#45;&gt;1997.Amauris_hyalites</title>
<path fill="none" stroke="#761212" d="M655.978,-146.3C608.018,-141.799 553.338,-136.668 509.664,-132.57"/>
<polygon fill="#761212" stroke="#761212" points="509.951,-129.081 499.668,-131.632 509.297,-136.051 509.951,-129.081"/>
<text text-anchor="middle" x="618" y="-145.8" font-family="Times,serif" font-size="14.00">1</text>
</g>
<!-- 1997.Amauris_hyalites_subsp_makuyensis\n1995.Amauris_damocles_subsp_makuyensis -->
<g id="node6" class="node"><title>1997.Amauris_hyalites_subsp_makuyensis\n1995.Amauris_damocles_subsp_makuyensis</title>
<path fill="#eeeeee" stroke="black" d="M890,-113C890,-113 652,-113 652,-113 646,-113 640,-107 640,-101 640,-101 640,-87 640,-87 640,-81 646,-75 652,-75 652,-75 890,-75 890,-75 896,-75 902,-81 902,-87 902,-87 902,-101 902,-101 902,-107 896,-113 890,-113"/>
<text text-anchor="middle" x="771" y="-97.8" font-family="Times,serif" font-size="14.00">1997.Amauris_hyalites_subsp_makuyensis</text>
<text text-anchor="middle" x="771" y="-82.8" font-family="Times,serif" font-size="14.00">1995.Amauris_damocles_subsp_makuyensis</text>
</g>
<!-- 1997.Amauris_hyalites_subsp_makuyensis\n1995.Amauris_damocles_subsp_makuyensis&#45;&gt;1995.Amauris_damocles -->
<g id="edge6" class="edge"><title>1997.Amauris_hyalites_subsp_makuyensis\n1995.Amauris_damocles_subsp_makuyensis&#45;&gt;1995.Amauris_damocles</title>
<path fill="none" stroke="#761212" d="M639.873,-84.874C625.082,-84.1039 610.219,-83.449 596,-83 446.741,-78.2867 409.216,-77.0802 260,-83 246.256,-83.5453 231.824,-84.3687 217.56,-85.3338"/>
<polygon fill="#761212" stroke="#761212" points="216.946,-81.8682 207.216,-86.0596 217.436,-88.851 216.946,-81.8682"/>
<text text-anchor="middle" x="428" y="-86.8" font-family="Times,serif" font-size="14.00">1</text>
</g>
<!-- 1997.Amauris_hyalites_subsp_makuyensis\n1995.Amauris_damocles_subsp_makuyensis&#45;&gt;1997.Amauris_hyalites -->
<g id="edge7" class="edge"><title>1997.Amauris_hyalites_subsp_makuyensis\n1995.Amauris_damocles_subsp_makuyensis&#45;&gt;1997.Amauris_hyalites</title>
<path fill="none" stroke="#761212" d="M639.763,-105.667C631.044,-106.455 622.395,-107.238 614,-108 579.943,-111.093 542.364,-114.54 510.021,-117.517"/>
<polygon fill="#761212" stroke="#761212" points="509.352,-114.064 499.715,-118.466 509.994,-121.034 509.352,-114.064"/>
<text text-anchor="middle" x="618" y="-111.8" font-family="Times,serif" font-size="14.00">1</text>
</g>
</g>
</svg>
