<?xml version="1.0" encoding="UTF-8" standalone="no"?>
<!DOCTYPE svg PUBLIC "-//W3C//DTD SVG 1.1//EN"
 "http://www.w3.org/Graphics/SVG/1.1/DTD/svg11.dtd">
<!-- Generated by graphviz version 2.36.0 (20140111.2315)
 -->
<!-- Title: %3 Pages: 1 -->
<svg width="1114pt" height="182pt"
 viewBox="0.00 0.00 1114.00 182.00" xmlns="http://www.w3.org/2000/svg" xmlns:xlink="http://www.w3.org/1999/xlink">
<g id="graph0" class="graph" transform="scale(1 1) rotate(0) translate(4 178)">
<title>%3</title>
<polygon fill="white" stroke="none" points="-4,4 -4,-178 1110,-178 1110,4 -4,4"/>
<!-- FloraChina.OakGenus -->
<g id="node1" class="node"><title>FloraChina.OakGenus</title>
<polygon fill="#ccffcc" stroke="black" points="278,-105 140,-105 140,-69 278,-69 278,-105"/>
<text text-anchor="middle" x="209" y="-83.3" font-family="Times,serif" font-size="14.00">FloraChina.OakGenus</text>
</g>
<!-- FloraChina.ChineseOakSpecies1 -->
<g id="node2" class="node"><title>FloraChina.ChineseOakSpecies1</title>
<polygon fill="#ccffcc" stroke="black" points="511.5,-131 316.5,-131 316.5,-95 511.5,-95 511.5,-131"/>
<text text-anchor="middle" x="414" y="-109.3" font-family="Times,serif" font-size="14.00">FloraChina.ChineseOakSpecies1</text>
</g>
<!-- FloraChina.OakGenus&#45;&gt;FloraChina.ChineseOakSpecies1 -->
<g id="edge1" class="edge"><title>FloraChina.OakGenus&#45;&gt;FloraChina.ChineseOakSpecies1</title>
<path fill="none" stroke="#000000" d="M288.322,-97.0314C297.436,-98.1987 306.813,-99.3997 316.138,-100.594"/>
<polygon fill="#000000" stroke="#000000" points="288.524,-93.5288 278.161,-95.73 287.635,-100.472 288.524,-93.5288"/>
</g>
<!-- FloraChina.ChineseOakSpecies2 -->
<g id="node3" class="node"><title>FloraChina.ChineseOakSpecies2</title>
<polygon fill="#ccffcc" stroke="black" points="511.5,-85 316.5,-85 316.5,-49 511.5,-49 511.5,-85"/>
<text text-anchor="middle" x="414" y="-63.3" font-family="Times,serif" font-size="14.00">FloraChina.ChineseOakSpecies2</text>
</g>
<!-- FloraChina.OakGenus&#45;&gt;FloraChina.ChineseOakSpecies2 -->
<g id="edge2" class="edge"><title>FloraChina.OakGenus&#45;&gt;FloraChina.ChineseOakSpecies2</title>
<path fill="none" stroke="#000000" d="M288.322,-79.2836C297.436,-78.3856 306.813,-77.4618 316.138,-76.5431"/>
<polygon fill="#000000" stroke="#000000" points="287.769,-75.821 278.161,-80.2847 288.456,-82.7872 287.769,-75.821"/>
</g>
<!-- FloraMexico.MexicanOakSpecies1 -->
<g id="node5" class="node"><title>FloraMexico.MexicanOakSpecies1</title>
<polygon fill="#ffffcc" stroke="black" points="860.06,-83.5442 860.06,-98.4558 773.914,-109 652.086,-109 565.94,-98.4558 565.94,-83.5442 652.086,-73 773.914,-73 860.06,-83.5442"/>
<text text-anchor="middle" x="713" y="-87.3" font-family="Times,serif" font-size="14.00">FloraMexico.MexicanOakSpecies1</text>
</g>
<!-- FloraChina.ChineseOakSpecies1&#45;&gt;FloraMexico.MexicanOakSpecies1 -->
<g id="edge5" class="edge"><title>FloraChina.ChineseOakSpecies1&#45;&gt;FloraMexico.MexicanOakSpecies1</title>
<path fill="none" stroke="#aa00ff" stroke-width="3" stroke-dasharray="1,5" d="M511.838,-105.827C531.331,-104.383 552.182,-102.838 572.792,-101.312"/>
<polygon fill="#aa00ff" stroke="#aa00ff" stroke-width="3" points="573.17,-104.793 582.884,-100.564 572.653,-97.8125 573.17,-104.793"/>
<text text-anchor="middle" x="539" y="-106.8" font-family="Times,serif" font-size="14.00">&lt;</text>
</g>
<!-- FloraChina.ChineseOakSpecies2&#45;&gt;FloraMexico.MexicanOakSpecies1 -->
<g id="edge6" class="edge"><title>FloraChina.ChineseOakSpecies2&#45;&gt;FloraMexico.MexicanOakSpecies1</title>
<path fill="none" stroke="#aa00ff" stroke-width="3" stroke-dasharray="1,5" d="M511.838,-74.8253C532.683,-76.5097 555.079,-78.3196 577.075,-80.097"/>
<polygon fill="#aa00ff" stroke="#aa00ff" stroke-width="3" points="576.897,-83.5939 587.146,-80.9108 577.461,-76.6166 576.897,-83.5939"/>
<text text-anchor="middle" x="539" y="-81.8" font-family="Times,serif" font-size="14.00">==</text>
</g>
<!-- FloraMexico.OakGenus -->
<g id="node4" class="node"><title>FloraMexico.OakGenus</title>
<polygon fill="#ffffcc" stroke="black" points="1106.23,-61.5442 1106.23,-76.4558 1045.18,-87 958.825,-87 897.766,-76.4558 897.766,-61.5442 958.825,-51 1045.18,-51 1106.23,-61.5442"/>
<text text-anchor="middle" x="1002" y="-65.3" font-family="Times,serif" font-size="14.00">FloraMexico.OakGenus</text>
</g>
<!-- FloraMexico.MexicanOakSpecies1&#45;&gt;FloraMexico.OakGenus -->
<g id="edge4" class="edge"><title>FloraMexico.MexicanOakSpecies1&#45;&gt;FloraMexico.OakGenus</title>
<path fill="none" stroke="#000000" d="M841.554,-81.2224C857.396,-80.008 873.501,-78.7735 889.083,-77.579"/>
<polygon fill="#000000" stroke="#000000" points="889.535,-81.0547 899.239,-76.8005 889,-74.0752 889.535,-81.0547"/>
</g>
<!-- FloraMexico.MexicanOakSpecies2 -->
<g id="node6" class="node"><title>FloraMexico.MexicanOakSpecies2</title>
<polygon fill="#ffffcc" stroke="black" points="860.06,-42.5442 860.06,-57.4558 773.914,-68 652.086,-68 565.94,-57.4558 565.94,-42.5442 652.086,-32 773.914,-32 860.06,-42.5442"/>
<text text-anchor="middle" x="713" y="-46.3" font-family="Times,serif" font-size="14.00">FloraMexico.MexicanOakSpecies2</text>
</g>
<!-- FloraMexico.MexicanOakSpecies2&#45;&gt;FloraMexico.OakGenus -->
<g id="edge3" class="edge"><title>FloraMexico.MexicanOakSpecies2&#45;&gt;FloraMexico.OakGenus</title>
<path fill="none" stroke="#000000" d="M848.676,-58.9159C861.662,-59.7755 874.745,-60.6416 887.496,-61.4858"/>
<polygon fill="#000000" stroke="#000000" points="887.434,-64.9893 897.644,-62.1576 887.897,-58.0046 887.434,-64.9893"/>
</g>
<!-- Legend -->
<g id="node7" class="node"><title>Legend</title>
<polygon fill="white" stroke="black" points="121.5,-175 0.5,-175 0.5,1 121.5,1 121.5,-175"/>
<polygon fill="none" stroke="black" points="1,-149 1,-175 122,-175 122,-149 1,-149"/>
<text text-anchor="start" x="37" y="-158.3" font-family="Arial Black" font-size="14.00"> Nodes</text>
<polygon fill="#ccffcc" stroke="none" points="1,-124 1,-149 105,-149 105,-124 1,-124"/>
<polygon fill="none" stroke="black" points="1,-124 1,-149 105,-149 105,-124 1,-124"/>
<text text-anchor="start" x="22.5" y="-132.8" font-family="Times,serif" font-size="14.00">FloraChina</text>
<polygon fill="none" stroke="black" points="105,-124 105,-149 122,-149 122,-124 105,-124"/>
<text text-anchor="start" x="110" y="-132.8" font-family="Times,serif" font-size="14.00">3</text>
<polygon fill="#ffffcc" stroke="none" points="1,-99 1,-124 105,-124 105,-99 1,-99"/>
<polygon fill="none" stroke="black" points="1,-99 1,-124 105,-124 105,-99 1,-99"/>
<text text-anchor="start" x="17.5" y="-107.8" font-family="Times,serif" font-size="14.00">FloraMexico</text>
<polygon fill="none" stroke="black" points="105,-99 105,-124 122,-124 122,-99 105,-99"/>
<text text-anchor="start" x="110" y="-107.8" font-family="Times,serif" font-size="14.00">3</text>
<polygon fill="none" stroke="black" points="1,-74 1,-99 122,-99 122,-74 1,-74"/>
<text text-anchor="start" x="35.5" y="-82.8" font-family="Arial Black" font-size="14.00"> Edges </text>
<polygon fill="none" stroke="black" points="1,-49 1,-74 105,-74 105,-49 1,-49"/>
<text text-anchor="start" x="11.5" y="-57.8" font-family="Times,serif" font-size="14.00" fill="#000000">isa_FloraChina</text>
<polygon fill="none" stroke="black" points="105,-49 105,-74 122,-74 122,-49 105,-49"/>
<text text-anchor="start" x="110" y="-57.8" font-family="Times,serif" font-size="14.00">2</text>
<polygon fill="none" stroke="black" points="1,-24 1,-49 105,-49 105,-24 1,-24"/>
<text text-anchor="start" x="6.5" y="-32.8" font-family="Times,serif" font-size="14.00" fill="#000000">isa_FloraMexico</text>
<polygon fill="none" stroke="black" points="105,-24 105,-49 122,-49 122,-24 105,-24"/>
<text text-anchor="start" x="110" y="-32.8" font-family="Times,serif" font-size="14.00">2</text>
<polygon fill="none" stroke="black" points="1,1 1,-24 105,-24 105,1 1,1"/>
<text text-anchor="start" x="42" y="-7.8" font-family="Times,serif" font-size="14.00" fill="#aa00ff">Art.</text>
<polygon fill="none" stroke="black" points="105,1 105,-24 122,-24 122,1 105,1"/>
<text text-anchor="start" x="110" y="-7.8" font-family="Times,serif" font-size="14.00">2</text>
</g>
</g>
</svg>
