<?xml version="1.0" encoding="UTF-8" standalone="no"?>
<!DOCTYPE svg PUBLIC "-//W3C//DTD SVG 1.1//EN"
 "http://www.w3.org/Graphics/SVG/1.1/DTD/svg11.dtd">
<!-- Generated by graphviz version 2.36.0 (20140111.2315)
 -->
<!-- Title: %3 Pages: 1 -->
<svg width="976pt" height="147pt"
 viewBox="0.00 0.00 976.00 147.00" xmlns="http://www.w3.org/2000/svg" xmlns:xlink="http://www.w3.org/1999/xlink">
<g id="graph0" class="graph" transform="scale(1 1) rotate(0) translate(4 143)">
<title>%3</title>
<polygon fill="white" stroke="none" points="-4,4 -4,-143 972,-143 972,4 -4,4"/>
<!-- FloraChina.ChineseOakSpecies1 -->
<g id="node1" class="node"><title>FloraChina.ChineseOakSpecies1</title>
<polygon fill="#ccffcc" stroke="black" points="967.5,-130 772.5,-130 772.5,-94 967.5,-94 967.5,-130"/>
<text text-anchor="middle" x="870" y="-108.3" font-family="Times,serif" font-size="14.00">FloraChina.ChineseOakSpecies1</text>
</g>
<!-- FloraChina.OakGenus -->
<g id="node3" class="node"><title>FloraChina.OakGenus</title>
<polygon fill="#ccffcc" stroke="black" points="138,-99 0,-99 0,-63 138,-63 138,-99"/>
<text text-anchor="middle" x="69" y="-77.3" font-family="Times,serif" font-size="14.00">FloraChina.OakGenus</text>
</g>
<!-- FloraChina.ChineseOakSpecies1&#45;&gt;FloraChina.OakGenus -->
<g id="edge1" class="edge"><title>FloraChina.ChineseOakSpecies1&#45;&gt;FloraChina.OakGenus</title>
<path fill="none" stroke="#761212" d="M772.328,-116.818C763.428,-116.993 754.548,-117.068 746,-117 495.309,-115 430.703,-139.568 182,-108 169.631,-106.43 156.645,-104.024 144.076,-101.281"/>
<polygon fill="#761212" stroke="#761212" points="144.631,-97.8186 134.105,-99.0198 143.083,-104.645 144.631,-97.8186"/>
<text text-anchor="middle" x="412" y="-127.8" font-family="Times,serif" font-size="14.00">1</text>
</g>
<!-- FloraMexico.MexicanOakSpecies1 -->
<g id="node4" class="node"><title>FloraMexico.MexicanOakSpecies1</title>
<polygon fill="#ffffcc" stroke="black" points="728.06,-77.5442 728.06,-92.4558 641.914,-103 520.086,-103 433.94,-92.4558 433.94,-77.5442 520.086,-67 641.914,-67 728.06,-77.5442"/>
<text text-anchor="middle" x="581" y="-81.3" font-family="Times,serif" font-size="14.00">FloraMexico.MexicanOakSpecies1</text>
</g>
<!-- FloraChina.ChineseOakSpecies1&#45;&gt;FloraMexico.MexicanOakSpecies1 -->
<g id="edge2" class="edge"><title>FloraChina.ChineseOakSpecies1&#45;&gt;FloraMexico.MexicanOakSpecies1</title>
<path fill="none" stroke="#761212" d="M772.235,-102.897C752.005,-100.994 730.385,-98.9595 709.241,-96.9704"/>
<polygon fill="#761212" stroke="#761212" points="709.522,-93.4815 699.238,-96.0294 708.867,-100.451 709.522,-93.4815"/>
<text text-anchor="middle" x="750" y="-103.8" font-family="Times,serif" font-size="14.00">1</text>
</g>
<!-- FloraChina.ChineseOakSpecies2 -->
<g id="node2" class="node"><title>FloraChina.ChineseOakSpecies2</title>
<polygon fill="#ccffcc" stroke="black" points="383.5,-36 188.5,-36 188.5,-0 383.5,-0 383.5,-36"/>
<text text-anchor="middle" x="286" y="-14.3" font-family="Times,serif" font-size="14.00">FloraChina.ChineseOakSpecies2</text>
</g>
<!-- FloraChina.ChineseOakSpecies2&#45;&gt;FloraChina.OakGenus -->
<g id="edge3" class="edge"><title>FloraChina.ChineseOakSpecies2&#45;&gt;FloraChina.OakGenus</title>
<path fill="none" stroke="#761212" d="M223.39,-36.0533C197.75,-43.5662 167.824,-52.3354 141.246,-60.1234"/>
<polygon fill="#761212" stroke="#761212" points="140.232,-56.7733 131.619,-62.9441 142.2,-63.4908 140.232,-56.7733"/>
<text text-anchor="middle" x="160" y="-58.8" font-family="Times,serif" font-size="14.00">1</text>
</g>
<!-- FloraMexico.OakGenus -->
<g id="node6" class="node"><title>FloraMexico.OakGenus</title>
<polygon fill="#ffffcc" stroke="black" points="390.234,-73.5442 390.234,-88.4558 329.175,-99 242.825,-99 181.766,-88.4558 181.766,-73.5442 242.825,-63 329.175,-63 390.234,-73.5442"/>
<text text-anchor="middle" x="286" y="-77.3" font-family="Times,serif" font-size="14.00">FloraMexico.OakGenus</text>
</g>
<!-- FloraMexico.MexicanOakSpecies1&#45;&gt;FloraMexico.OakGenus -->
<g id="edge4" class="edge"><title>FloraMexico.MexicanOakSpecies1&#45;&gt;FloraMexico.OakGenus</title>
<path fill="none" stroke="#761212" d="M433.929,-83.0059C422.625,-82.8515 411.318,-82.6972 400.276,-82.5464"/>
<polygon fill="#761212" stroke="#761212" points="400.265,-79.046 390.218,-82.4091 400.169,-86.0454 400.265,-79.046"/>
<text text-anchor="middle" x="412" y="-85.8" font-family="Times,serif" font-size="14.00">1</text>
</g>
<!-- FloraMexico.MexicanOakSpecies2 -->
<g id="node5" class="node"><title>FloraMexico.MexicanOakSpecies2</title>
<polygon fill="#ffffcc" stroke="black" points="728.06,-12.5442 728.06,-27.4558 641.914,-38 520.086,-38 433.94,-27.4558 433.94,-12.5442 520.086,-2 641.914,-2 728.06,-12.5442"/>
<text text-anchor="middle" x="581" y="-16.3" font-family="Times,serif" font-size="14.00">FloraMexico.MexicanOakSpecies2</text>
</g>
<!-- FloraMexico.MexicanOakSpecies2&#45;&gt;FloraChina.ChineseOakSpecies2 -->
<g id="edge5" class="edge"><title>FloraMexico.MexicanOakSpecies2&#45;&gt;FloraChina.ChineseOakSpecies2</title>
<path fill="none" stroke="#761212" d="M433.629,-13.8707C424.958,-13.8256 416.365,-13.8618 408,-14 403.444,-14.0753 398.792,-14.1665 394.092,-14.2704"/>
<polygon fill="#761212" stroke="#761212" points="393.662,-10.7796 383.748,-14.517 393.829,-17.7776 393.662,-10.7796"/>
<text text-anchor="middle" x="412" y="-17.8" font-family="Times,serif" font-size="14.00">1</text>
</g>
<!-- FloraMexico.MexicanOakSpecies2&#45;&gt;FloraMexico.OakGenus -->
<g id="edge6" class="edge"><title>FloraMexico.MexicanOakSpecies2&#45;&gt;FloraMexico.OakGenus</title>
<path fill="none" stroke="#761212" d="M503.018,-36.027C459.918,-45.0001 406.367,-56.1488 363.367,-65.1011"/>
<polygon fill="#761212" stroke="#761212" points="362.597,-61.6862 353.521,-67.151 364.024,-68.5392 362.597,-61.6862"/>
<text text-anchor="middle" x="412" y="-57.8" font-family="Times,serif" font-size="14.00">1</text>
</g>
<!-- FloraMexico.OakGenus&#45;&gt;FloraChina.OakGenus -->
<g id="edge7" class="edge"><title>FloraMexico.OakGenus&#45;&gt;FloraChina.OakGenus</title>
<path fill="none" stroke="#761212" d="M181.593,-81C170.425,-81 159.197,-81 148.394,-81"/>
<polygon fill="#761212" stroke="#761212" points="148.181,-77.5001 138.181,-81 148.181,-84.5001 148.181,-77.5001"/>
<text text-anchor="middle" x="160" y="-84.8" font-family="Times,serif" font-size="14.00">1</text>
</g>
</g>
</svg>
