<?xml version="1.0" encoding="UTF-8" standalone="no"?>
<!DOCTYPE svg PUBLIC "-//W3C//DTD SVG 1.1//EN"
 "http://www.w3.org/Graphics/SVG/1.1/DTD/svg11.dtd">
<!-- Generated by graphviz version 2.36.0 (20140111.2315)
 -->
<!-- Title: %3 Pages: 1 -->
<svg width="1094pt" height="196pt"
 viewBox="0.00 0.00 1094.00 196.00" xmlns="http://www.w3.org/2000/svg" xmlns:xlink="http://www.w3.org/1999/xlink">
<g id="graph0" class="graph" transform="scale(1 1) rotate(0) translate(4 192)">
<title>%3</title>
<polygon fill="white" stroke="none" points="-4,4 -4,-192 1090,-192 1090,4 -4,4"/>
<!-- FloraChina.OakGenus -->
<g id="node1" class="node"><title>FloraChina.OakGenus</title>
<polygon fill="#ccffcc" stroke="black" points="138,-113 0,-113 0,-77 138,-77 138,-113"/>
<text text-anchor="middle" x="69" y="-91.3" font-family="Times,serif" font-size="14.00">FloraChina.OakGenus</text>
</g>
<!-- FloraChina.ChineseOakSpecies2 -->
<g id="node2" class="node"><title>FloraChina.ChineseOakSpecies2</title>
<polygon fill="#ccffcc" stroke="black" points="383.5,-113 188.5,-113 188.5,-77 383.5,-77 383.5,-113"/>
<text text-anchor="middle" x="286" y="-91.3" font-family="Times,serif" font-size="14.00">FloraChina.ChineseOakSpecies2</text>
</g>
<!-- FloraChina.ChineseOakSpecies2&#45;&gt;FloraChina.OakGenus -->
<g id="edge6" class="edge"><title>FloraChina.ChineseOakSpecies2&#45;&gt;FloraChina.OakGenus</title>
<path fill="none" stroke="#761212" d="M188.192,-95C174.912,-95 161.412,-95 148.514,-95"/>
<polygon fill="#761212" stroke="#761212" points="148.315,-91.5001 138.315,-95 148.315,-98.5001 148.315,-91.5001"/>
<text text-anchor="middle" x="160" y="-98.8" font-family="Times,serif" font-size="14.00">1</text>
</g>
<!-- FloraChina.ChineseOakSpecies1 -->
<g id="node3" class="node"><title>FloraChina.ChineseOakSpecies1</title>
<polygon fill="#ccffcc" stroke="black" points="967.5,-143 772.5,-143 772.5,-107 967.5,-107 967.5,-143"/>
<text text-anchor="middle" x="870" y="-121.3" font-family="Times,serif" font-size="14.00">FloraChina.ChineseOakSpecies1</text>
</g>
<!-- FloraChina.ChineseOakSpecies1&#45;&gt;FloraChina.OakGenus -->
<g id="edge7" class="edge"><title>FloraChina.ChineseOakSpecies1&#45;&gt;FloraChina.OakGenus</title>
<path fill="none" stroke="#761212" d="M772.419,-131.599C639.065,-139.115 391.285,-147.334 182,-122 169.466,-120.483 156.303,-118.072 143.584,-115.301"/>
<polygon fill="#761212" stroke="#761212" points="144.025,-111.812 133.499,-113.011 142.476,-118.638 144.025,-111.812"/>
<text text-anchor="middle" x="412" y="-140.8" font-family="Times,serif" font-size="14.00">1</text>
</g>
<!-- FloraMexico.MexicanOakSpecies1 -->
<g id="node5" class="node"><title>FloraMexico.MexicanOakSpecies1</title>
<polygon fill="#ffffcc" stroke="black" points="728.06,-10.5442 728.06,-25.4558 641.914,-36 520.086,-36 433.94,-25.4558 433.94,-10.5442 520.086,-3.55271e-15 641.914,-0 728.06,-10.5442"/>
<text text-anchor="middle" x="581" y="-14.3" font-family="Times,serif" font-size="14.00">FloraMexico.MexicanOakSpecies1</text>
</g>
<!-- FloraChina.ChineseOakSpecies1&#45;&gt;FloraMexico.MexicanOakSpecies1 -->
<g id="edge5" class="edge"><title>FloraChina.ChineseOakSpecies1&#45;&gt;FloraMexico.MexicanOakSpecies1</title>
<path fill="none" stroke="#761212" d="M845.523,-106.837C818.671,-87.0553 772.636,-56.0928 728,-40 719.765,-37.0311 711.13,-34.4629 702.347,-32.2411"/>
<polygon fill="#761212" stroke="#761212" points="702.919,-28.7798 692.381,-29.8771 701.303,-35.5908 702.919,-28.7798"/>
<text text-anchor="middle" x="750" y="-54.8" font-family="Times,serif" font-size="14.00">1</text>
</g>
<!-- FloraMexico.OakGenus -->
<g id="node4" class="node"><title>FloraMexico.OakGenus</title>
<polygon fill="#ffffcc" stroke="black" points="390.234,-36.5442 390.234,-51.4558 329.175,-62 242.825,-62 181.766,-51.4558 181.766,-36.5442 242.825,-26 329.175,-26 390.234,-36.5442"/>
<text text-anchor="middle" x="286" y="-40.3" font-family="Times,serif" font-size="14.00">FloraMexico.OakGenus</text>
</g>
<!-- FloraMexico.OakGenus&#45;&gt;FloraChina.OakGenus -->
<g id="edge4" class="edge"><title>FloraMexico.OakGenus&#45;&gt;FloraChina.OakGenus</title>
<path fill="none" stroke="#761212" d="M222.343,-58.5191C209.022,-61.6286 195.042,-64.9085 182,-68 171.011,-70.6047 159.422,-73.3738 148.031,-76.1081"/>
<polygon fill="#761212" stroke="#761212" points="146.997,-72.7568 138.092,-78.497 148.633,-79.563 146.997,-72.7568"/>
<text text-anchor="middle" x="160" y="-77.8" font-family="Times,serif" font-size="14.00">1</text>
</g>
<!-- FloraMexico.MexicanOakSpecies1&#45;&gt;FloraMexico.OakGenus -->
<g id="edge2" class="edge"><title>FloraMexico.MexicanOakSpecies1&#45;&gt;FloraMexico.OakGenus</title>
<path fill="none" stroke="#761212" d="M459.98,-28.6502C438.151,-30.5873 415.511,-32.5963 394.085,-34.4976"/>
<polygon fill="#761212" stroke="#761212" points="393.657,-31.0217 384.005,-35.392 394.276,-37.9943 393.657,-31.0217"/>
<text text-anchor="middle" x="412" y="-36.8" font-family="Times,serif" font-size="14.00">1</text>
</g>
<!-- FloraMexico.MexicanOakSpecies2 -->
<g id="node6" class="node"><title>FloraMexico.MexicanOakSpecies2</title>
<polygon fill="#ffffcc" stroke="black" points="728.06,-56.5442 728.06,-71.4558 641.914,-82 520.086,-82 433.94,-71.4558 433.94,-56.5442 520.086,-46 641.914,-46 728.06,-56.5442"/>
<text text-anchor="middle" x="581" y="-60.3" font-family="Times,serif" font-size="14.00">FloraMexico.MexicanOakSpecies2</text>
</g>
<!-- FloraMexico.MexicanOakSpecies2&#45;&gt;FloraChina.ChineseOakSpecies2 -->
<g id="edge3" class="edge"><title>FloraMexico.MexicanOakSpecies2&#45;&gt;FloraChina.ChineseOakSpecies2</title>
<path fill="none" stroke="#761212" d="M468.811,-75.764C444.196,-78.3683 418.166,-81.1223 393.733,-83.7074"/>
<polygon fill="#761212" stroke="#761212" points="393.309,-80.2326 383.733,-84.7655 394.046,-87.1938 393.309,-80.2326"/>
<text text-anchor="middle" x="412" y="-85.8" font-family="Times,serif" font-size="14.00">1</text>
</g>
<!-- FloraMexico.MexicanOakSpecies2&#45;&gt;FloraMexico.OakGenus -->
<g id="edge1" class="edge"><title>FloraMexico.MexicanOakSpecies2&#45;&gt;FloraMexico.OakGenus</title>
<path fill="none" stroke="#761212" d="M446.789,-54.9071C431.435,-53.8591 415.886,-52.7977 400.822,-51.7694"/>
<polygon fill="#761212" stroke="#761212" points="400.694,-48.2526 390.479,-51.0634 400.217,-55.2364 400.694,-48.2526"/>
<text text-anchor="middle" x="412" y="-56.8" font-family="Times,serif" font-size="14.00">1</text>
</g>
<!-- Legend -->
<g id="node7" class="node"><title>Legend</title>
<polygon fill="white" stroke="black" points="1085.5,-188 986.5,-188 986.5,-62 1085.5,-62 1085.5,-188"/>
<polygon fill="none" stroke="black" points="987,-162 987,-188 1086,-188 1086,-162 987,-162"/>
<text text-anchor="start" x="1012" y="-171.3" font-family="Arial Black" font-size="14.00"> Nodes</text>
<polygon fill="#ccffcc" stroke="none" points="987,-137 987,-162 1069,-162 1069,-137 987,-137"/>
<polygon fill="none" stroke="black" points="987,-137 987,-162 1069,-162 1069,-137 987,-137"/>
<text text-anchor="start" x="997.5" y="-145.8" font-family="Times,serif" font-size="14.00">FloraChina</text>
<polygon fill="none" stroke="black" points="1069,-137 1069,-162 1086,-162 1086,-137 1069,-137"/>
<text text-anchor="start" x="1074" y="-145.8" font-family="Times,serif" font-size="14.00">3</text>
<polygon fill="#ffffcc" stroke="none" points="987,-112 987,-137 1069,-137 1069,-112 987,-112"/>
<polygon fill="none" stroke="black" points="987,-112 987,-137 1069,-137 1069,-112 987,-112"/>
<text text-anchor="start" x="992.5" y="-120.8" font-family="Times,serif" font-size="14.00">FloraMexico</text>
<polygon fill="none" stroke="black" points="1069,-112 1069,-137 1086,-137 1086,-112 1069,-112"/>
<text text-anchor="start" x="1074" y="-120.8" font-family="Times,serif" font-size="14.00">3</text>
<polygon fill="none" stroke="black" points="987,-87 987,-112 1086,-112 1086,-87 987,-87"/>
<text text-anchor="start" x="1010.5" y="-95.8" font-family="Arial Black" font-size="14.00"> Edges </text>
<polygon fill="none" stroke="black" points="987,-62 987,-87 1069,-87 1069,-62 987,-62"/>
<text text-anchor="start" x="1009" y="-70.8" font-family="Times,serif" font-size="14.00" fill="#000000">default</text>
<polygon fill="none" stroke="black" points="1069,-62 1069,-87 1086,-87 1086,-62 1069,-62"/>
<text text-anchor="start" x="1074" y="-70.8" font-family="Times,serif" font-size="14.00">7</text>
</g>
</g>
</svg>
