<?xml version="1.0" encoding="UTF-8" standalone="no"?>
<!DOCTYPE svg PUBLIC "-//W3C//DTD SVG 1.1//EN"
 "http://www.w3.org/Graphics/SVG/1.1/DTD/svg11.dtd">
<!-- Generated by graphviz version 2.36.0 (20140111.2315)
 -->
<!-- Title: %3 Pages: 1 -->
<svg width="562pt" height="442pt"
 viewBox="0.00 0.00 562.00 442.00" xmlns="http://www.w3.org/2000/svg" xmlns:xlink="http://www.w3.org/1999/xlink">
<g id="graph0" class="graph" transform="scale(1 1) rotate(0) translate(4 438)">
<title>%3</title>
<polygon fill="white" stroke="none" points="-4,4 -4,-438 558,-438 558,4 -4,4"/>
<!-- pw6 -->
<g id="node1" class="node"><title>pw6</title>
<path fill="#ffffcc" stroke="black" d="M276.186,-154.473C276.186,-154.473 246.186,-154.473 246.186,-154.473 240.186,-154.473 234.186,-148.473 234.186,-142.473 234.186,-142.473 234.186,-130.473 234.186,-130.473 234.186,-124.473 240.186,-118.473 246.186,-118.473 246.186,-118.473 276.186,-118.473 276.186,-118.473 282.186,-118.473 288.186,-124.473 288.186,-130.473 288.186,-130.473 288.186,-142.473 288.186,-142.473 288.186,-148.473 282.186,-154.473 276.186,-154.473"/>
<text text-anchor="middle" x="261.186" y="-132.773" font-family="Times,serif" font-size="14.00">pw6</text>
</g>
<!-- pw4 -->
<g id="node2" class="node"><title>pw4</title>
<path fill="#ffffcc" stroke="black" d="M50.4975,-96.0366C50.4975,-96.0366 20.4975,-96.0366 20.4975,-96.0366 14.4975,-96.0366 8.49755,-90.0366 8.49755,-84.0366 8.49755,-84.0366 8.49755,-72.0366 8.49755,-72.0366 8.49755,-66.0366 14.4975,-60.0366 20.4975,-60.0366 20.4975,-60.0366 50.4975,-60.0366 50.4975,-60.0366 56.4975,-60.0366 62.4975,-66.0366 62.4975,-72.0366 62.4975,-72.0366 62.4975,-84.0366 62.4975,-84.0366 62.4975,-90.0366 56.4975,-96.0366 50.4975,-96.0366"/>
<text text-anchor="middle" x="35.4975" y="-74.3366" font-family="Times,serif" font-size="14.00">pw4</text>
</g>
<!-- pw6&#45;&gt;pw4 -->
<g id="edge24" class="edge"><title>pw6&#45;&gt;pw4</title>
<path fill="none" stroke="#000000" d="M233.963,-129.424C193.634,-118.982 117.913,-99.3757 72.5583,-87.6324"/>
<polygon fill="#000000" stroke="#000000" points="73.3755,-84.2287 62.8174,-85.1103 71.6208,-91.0052 73.3755,-84.2287"/>
<text text-anchor="middle" x="149.76" y="-112.328" font-family="Times,serif" font-size="14.00">4</text>
</g>
<!-- pw2 -->
<g id="node3" class="node"><title>pw2</title>
<path fill="#ffffcc" stroke="black" d="M321.513,-36C321.513,-36 291.513,-36 291.513,-36 285.513,-36 279.513,-30 279.513,-24 279.513,-24 279.513,-12 279.513,-12 279.513,-6 285.513,2.84217e-14 291.513,2.84217e-14 291.513,2.84217e-14 321.513,2.84217e-14 321.513,2.84217e-14 327.513,2.84217e-14 333.513,-6 333.513,-12 333.513,-12 333.513,-24 333.513,-24 333.513,-30 327.513,-36 321.513,-36"/>
<text text-anchor="middle" x="306.513" y="-14.3" font-family="Times,serif" font-size="14.00">pw2</text>
</g>
<!-- pw6&#45;&gt;pw2 -->
<g id="edge28" class="edge"><title>pw6&#45;&gt;pw2</title>
<path fill="none" stroke="#000000" d="M268.169,-118.221C275.577,-98.8582 287.369,-68.0364 295.922,-45.6817"/>
<polygon fill="#000000" stroke="#000000" points="299.292,-46.6685 299.596,-36.078 292.754,-44.1671 299.292,-46.6685"/>
<text text-anchor="middle" x="278.545" y="-85.7513" font-family="Times,serif" font-size="14.00">3</text>
</g>
<!-- pw0 -->
<g id="node4" class="node"><title>pw0</title>
<path fill="#ffffcc" stroke="black" d="M95.2086,-431.323C95.2086,-431.323 65.2086,-431.323 65.2086,-431.323 59.2086,-431.323 53.2086,-425.323 53.2086,-419.323 53.2086,-419.323 53.2086,-407.323 53.2086,-407.323 53.2086,-401.323 59.2086,-395.323 65.2086,-395.323 65.2086,-395.323 95.2086,-395.323 95.2086,-395.323 101.209,-395.323 107.209,-401.323 107.209,-407.323 107.209,-407.323 107.209,-419.323 107.209,-419.323 107.209,-425.323 101.209,-431.323 95.2086,-431.323"/>
<text text-anchor="middle" x="80.2086" y="-409.623" font-family="Times,serif" font-size="14.00">pw0</text>
</g>
<!-- pw6&#45;&gt;pw0 -->
<g id="edge26" class="edge"><title>pw6&#45;&gt;pw0</title>
<path fill="none" stroke="#000000" d="M249.312,-154.637C218.249,-202.156 134.463,-330.327 97.7953,-386.419"/>
<polygon fill="#000000" stroke="#000000" points="94.6689,-384.805 92.1268,-395.091 100.528,-388.636 94.6689,-384.805"/>
<text text-anchor="middle" x="170.053" y="-259.328" font-family="Times,serif" font-size="14.00">4</text>
</g>
<!-- pw5 -->
<g id="node8" class="node"><title>pw5</title>
<path fill="#ffffcc" stroke="black" d="M430.099,-216.9C430.099,-216.9 400.099,-216.9 400.099,-216.9 394.099,-216.9 388.099,-210.9 388.099,-204.9 388.099,-204.9 388.099,-192.9 388.099,-192.9 388.099,-186.9 394.099,-180.9 400.099,-180.9 400.099,-180.9 430.099,-180.9 430.099,-180.9 436.099,-180.9 442.099,-186.9 442.099,-192.9 442.099,-192.9 442.099,-204.9 442.099,-204.9 442.099,-210.9 436.099,-216.9 430.099,-216.9"/>
<text text-anchor="middle" x="415.099" y="-195.2" font-family="Times,serif" font-size="14.00">pw5</text>
</g>
<!-- pw6&#45;&gt;pw5 -->
<g id="edge25" class="edge"><title>pw6&#45;&gt;pw5</title>
<path fill="none" stroke="#000000" d="M288.348,-147.49C313.437,-157.666 350.901,-172.861 378.597,-184.094"/>
<polygon fill="#000000" stroke="#000000" points="377.368,-187.373 387.95,-187.888 379.999,-180.886 377.368,-187.373"/>
<text text-anchor="middle" x="329.973" y="-169.592" font-family="Times,serif" font-size="14.00">2</text>
</g>
<!-- pw3 -->
<g id="node9" class="node"><title>pw3</title>
<path fill="#ffffcc" stroke="black" d="M165.853,-129.61C165.853,-129.61 135.853,-129.61 135.853,-129.61 129.853,-129.61 123.853,-123.61 123.853,-117.61 123.853,-117.61 123.853,-105.61 123.853,-105.61 123.853,-99.6097 129.853,-93.6097 135.853,-93.6097 135.853,-93.6097 165.853,-93.6097 165.853,-93.6097 171.853,-93.6097 177.853,-99.6097 177.853,-105.61 177.853,-105.61 177.853,-117.61 177.853,-117.61 177.853,-123.61 171.853,-129.61 165.853,-129.61"/>
<text text-anchor="middle" x="150.853" y="-107.91" font-family="Times,serif" font-size="14.00">pw3</text>
</g>
<!-- pw6&#45;&gt;pw3 -->
<g id="edge29" class="edge"><title>pw6&#45;&gt;pw3</title>
<path fill="none" stroke="#000000" d="M233.913,-130.327C220.121,-127.219 203.172,-123.4 188.19,-120.023"/>
<polygon fill="#000000" stroke="#000000" points="188.719,-116.555 178.195,-117.771 187.181,-123.384 188.719,-116.555"/>
<text text-anchor="middle" x="207.551" y="-128.975" font-family="Times,serif" font-size="14.00">5</text>
</g>
<!-- pw4&#45;&gt;pw2 -->
<g id="edge15" class="edge"><title>pw4&#45;&gt;pw2</title>
<path fill="none" stroke="#000000" d="M62.7244,-72.0051C111.526,-61.1943 213.947,-38.5057 269.23,-26.2591"/>
<polygon fill="#000000" stroke="#000000" points="270.298,-29.6075 279.304,-24.0274 268.784,-22.7731 270.298,-29.6075"/>
<text text-anchor="middle" x="162.477" y="-52.9321" font-family="Times,serif" font-size="14.00">3</text>
</g>
<!-- pw4&#45;&gt;pw0 -->
<g id="edge17" class="edge"><title>pw4&#45;&gt;pw0</title>
<path fill="none" stroke="#000000" d="M37.9014,-96.063C45.2553,-151.21 67.4908,-317.953 76.4286,-384.977"/>
<polygon fill="#000000" stroke="#000000" points="73.0017,-385.757 77.7929,-395.207 79.9402,-384.832 73.0017,-385.757"/>
<text text-anchor="middle" x="53.665" y="-244.32" font-family="Times,serif" font-size="14.00">4</text>
</g>
<!-- pw4&#45;&gt;pw3 -->
<g id="edge16" class="edge"><title>pw4&#45;&gt;pw3</title>
<path fill="none" stroke="#000000" d="M62.5432,-85.908C77.7638,-90.3378 96.9936,-95.9345 113.62,-100.773"/>
<polygon fill="#000000" stroke="#000000" points="112.997,-104.237 123.577,-103.671 114.953,-97.5162 112.997,-104.237"/>
<text text-anchor="middle" x="84.5816" y="-97.1407" font-family="Times,serif" font-size="14.00">2</text>
</g>
<!-- pw2&#45;&gt;pw0 -->
<g id="edge40" class="edge"><title>pw2&#45;&gt;pw0</title>
<path fill="none" stroke="#000000" d="M296.201,-36.0134C260.047,-99.1693 138.898,-310.799 95.6853,-386.287"/>
<polygon fill="#000000" stroke="#000000" points="92.5117,-384.786 90.5811,-395.203 98.5867,-388.264 92.5117,-384.786"/>
<text text-anchor="middle" x="192.443" y="-214.95" font-family="Times,serif" font-size="14.00">6</text>
</g>
<!-- pw1 -->
<g id="node10" class="node"><title>pw1</title>
<path fill="#ffffcc" stroke="black" d="M360.413,-95.2504C360.413,-95.2504 330.413,-95.2504 330.413,-95.2504 324.413,-95.2504 318.413,-89.2504 318.413,-83.2504 318.413,-83.2504 318.413,-71.2504 318.413,-71.2504 318.413,-65.2504 324.413,-59.2504 330.413,-59.2504 330.413,-59.2504 360.413,-59.2504 360.413,-59.2504 366.413,-59.2504 372.413,-65.2504 372.413,-71.2504 372.413,-71.2504 372.413,-83.2504 372.413,-83.2504 372.413,-89.2504 366.413,-95.2504 360.413,-95.2504"/>
<text text-anchor="middle" x="345.413" y="-73.5504" font-family="Times,serif" font-size="14.00">pw1</text>
</g>
<!-- pw2&#45;&gt;pw1 -->
<g id="edge42" class="edge"><title>pw2&#45;&gt;pw1</title>
<path fill="none" stroke="#000000" d="M318.395,-36.099C321.356,-40.6083 324.594,-45.5396 327.767,-50.3726"/>
<polygon fill="#000000" stroke="#000000" points="324.92,-52.4148 333.334,-58.8533 330.772,-48.573 324.92,-52.4148"/>
<text text-anchor="middle" x="319.581" y="-47.0358" font-family="Times,serif" font-size="14.00">1</text>
</g>
<!-- pw7 -->
<g id="node5" class="node"><title>pw7</title>
<path fill="#ffffcc" stroke="black" d="M346.729,-286.168C346.729,-286.168 316.729,-286.168 316.729,-286.168 310.729,-286.168 304.729,-280.168 304.729,-274.168 304.729,-274.168 304.729,-262.168 304.729,-262.168 304.729,-256.168 310.729,-250.168 316.729,-250.168 316.729,-250.168 346.729,-250.168 346.729,-250.168 352.729,-250.168 358.729,-256.168 358.729,-262.168 358.729,-262.168 358.729,-274.168 358.729,-274.168 358.729,-280.168 352.729,-286.168 346.729,-286.168"/>
<text text-anchor="middle" x="331.729" y="-264.468" font-family="Times,serif" font-size="14.00">pw7</text>
</g>
<!-- pw7&#45;&gt;pw5 -->
<g id="edge63" class="edge"><title>pw7&#45;&gt;pw5</title>
<path fill="none" stroke="#000000" d="M353.633,-249.968C363.398,-241.855 375.048,-232.175 385.567,-223.436"/>
<polygon fill="#000000" stroke="#000000" points="387.886,-226.06 393.341,-216.977 383.412,-220.676 387.886,-226.06"/>
<text text-anchor="middle" x="366.1" y="-240.502" font-family="Times,serif" font-size="14.00">2</text>
</g>
<!-- pw7&#45;&gt;pw1 -->
<g id="edge64" class="edge"><title>pw7&#45;&gt;pw1</title>
<path fill="none" stroke="#000000" d="M333.041,-249.862C335.437,-216.434 340.535,-145.307 343.382,-105.582"/>
<polygon fill="#000000" stroke="#000000" points="346.881,-105.726 344.105,-95.5009 339.899,-105.225 346.881,-105.726"/>
<text text-anchor="middle" x="341.711" y="-181.522" font-family="Times,serif" font-size="14.00">2</text>
</g>
<!-- pw8 -->
<g id="node6" class="node"><title>pw8</title>
<path fill="#ffffcc" stroke="black" d="M295.839,-243.143C295.839,-243.143 265.839,-243.143 265.839,-243.143 259.839,-243.143 253.839,-237.143 253.839,-231.143 253.839,-231.143 253.839,-219.143 253.839,-219.143 253.839,-213.143 259.839,-207.143 265.839,-207.143 265.839,-207.143 295.839,-207.143 295.839,-207.143 301.839,-207.143 307.839,-213.143 307.839,-219.143 307.839,-219.143 307.839,-231.143 307.839,-231.143 307.839,-237.143 301.839,-243.143 295.839,-243.143"/>
<text text-anchor="middle" x="280.839" y="-221.443" font-family="Times,serif" font-size="14.00">pw8</text>
</g>
<!-- pw8&#45;&gt;pw6 -->
<g id="edge45" class="edge"><title>pw8&#45;&gt;pw6</title>
<path fill="none" stroke="#000000" d="M276.767,-206.77C274.061,-194.562 270.457,-178.3 267.396,-164.491"/>
<polygon fill="#000000" stroke="#000000" points="270.767,-163.524 265.186,-154.518 263.933,-165.039 270.767,-163.524"/>
<text text-anchor="middle" x="268.582" y="-189.431" font-family="Times,serif" font-size="14.00">3</text>
</g>
<!-- pw8&#45;&gt;pw4 -->
<g id="edge47" class="edge"><title>pw8&#45;&gt;pw4</title>
<path fill="none" stroke="#000000" d="M253.646,-208.838C209.25,-182.218 121.188,-129.416 71.6041,-99.6859"/>
<polygon fill="#000000" stroke="#000000" points="73.1889,-96.5553 62.8126,-94.4146 69.5892,-102.559 73.1889,-96.5553"/>
<text text-anchor="middle" x="159.125" y="-158.062" font-family="Times,serif" font-size="14.00">4</text>
</g>
<!-- pw8&#45;&gt;pw2 -->
<g id="edge43" class="edge"><title>pw8&#45;&gt;pw2</title>
<path fill="none" stroke="#000000" d="M283.073,-207.122C287.549,-171.008 297.647,-89.5325 303.011,-46.255"/>
<polygon fill="#000000" stroke="#000000" points="306.51,-46.4806 304.266,-36.126 299.563,-45.6196 306.51,-46.4806"/>
<text text-anchor="middle" x="296.542" y="-130.489" font-family="Times,serif" font-size="14.00">2</text>
</g>
<!-- pw8&#45;&gt;pw0 -->
<g id="edge44" class="edge"><title>pw8&#45;&gt;pw0</title>
<path fill="none" stroke="#000000" d="M261.602,-243.186C225.667,-276.891 148.274,-349.481 107.159,-388.045"/>
<polygon fill="#000000" stroke="#000000" points="104.582,-385.663 99.6825,-395.057 109.371,-390.769 104.582,-385.663"/>
<text text-anchor="middle" x="180.881" y="-319.415" font-family="Times,serif" font-size="14.00">6</text>
</g>
<!-- pw8&#45;&gt;pw7 -->
<g id="edge46" class="edge"><title>pw8&#45;&gt;pw7</title>
<path fill="none" stroke="#000000" d="M302.421,-243.389C302.584,-243.527 302.746,-243.664 302.909,-243.802"/>
<polygon fill="#000000" stroke="#000000" points="300.38,-246.247 310.276,-250.03 304.899,-240.901 300.38,-246.247"/>
<text text-anchor="middle" x="299.165" y="-247.396" font-family="Times,serif" font-size="14.00">1</text>
</g>
<!-- pw9 -->
<g id="node7" class="node"><title>pw9</title>
<path fill="#ffffcc" stroke="black" d="M177.202,-296.74C177.202,-296.74 147.202,-296.74 147.202,-296.74 141.202,-296.74 135.202,-290.74 135.202,-284.74 135.202,-284.74 135.202,-272.74 135.202,-272.74 135.202,-266.74 141.202,-260.74 147.202,-260.74 147.202,-260.74 177.202,-260.74 177.202,-260.74 183.202,-260.74 189.202,-266.74 189.202,-272.74 189.202,-272.74 189.202,-284.74 189.202,-284.74 189.202,-290.74 183.202,-296.74 177.202,-296.74"/>
<text text-anchor="middle" x="162.202" y="-275.04" font-family="Times,serif" font-size="14.00">pw9</text>
</g>
<!-- pw9&#45;&gt;pw6 -->
<g id="edge36" class="edge"><title>pw9&#45;&gt;pw6</title>
<path fill="none" stroke="#000000" d="M174.738,-260.722C191.899,-236.057 222.832,-191.598 242.667,-163.09"/>
<polygon fill="#000000" stroke="#000000" points="245.6,-165.002 248.439,-154.794 239.854,-161.004 245.6,-165.002"/>
<text text-anchor="middle" x="205.203" y="-215.706" font-family="Times,serif" font-size="14.00">5</text>
</g>
<!-- pw9&#45;&gt;pw4 -->
<g id="edge37" class="edge"><title>pw9&#45;&gt;pw4</title>
<path fill="none" stroke="#000000" d="M150.734,-260.575C128.317,-225.066 78.5935,-146.302 52.397,-104.806"/>
<polygon fill="#000000" stroke="#000000" points="55.3284,-102.893 47.0306,-96.3052 49.4093,-106.63 55.3284,-102.893"/>
<text text-anchor="middle" x="98.0656" y="-186.491" font-family="Times,serif" font-size="14.00">3</text>
</g>
<!-- pw9&#45;&gt;pw0 -->
<g id="edge34" class="edge"><title>pw9&#45;&gt;pw0</title>
<path fill="none" stroke="#000000" d="M151.144,-296.891C137.145,-319.868 112.907,-359.652 96.7151,-386.229"/>
<polygon fill="#000000" stroke="#000000" points="93.5672,-384.669 91.3533,-395.03 99.5452,-388.311 93.5672,-384.669"/>
<text text-anchor="middle" x="120.43" y="-345.36" font-family="Times,serif" font-size="14.00">4</text>
</g>
<!-- pw9&#45;&gt;pw7 -->
<g id="edge35" class="edge"><title>pw9&#45;&gt;pw7</title>
<path fill="none" stroke="#000000" d="M189.439,-277.042C217.862,-275.269 262.623,-272.477 294.344,-270.499"/>
<polygon fill="#000000" stroke="#000000" points="294.796,-273.978 304.559,-269.862 294.36,-266.991 294.796,-273.978"/>
<text text-anchor="middle" x="238.392" y="-277.57" font-family="Times,serif" font-size="14.00">2</text>
</g>
<!-- pw9&#45;&gt;pw3 -->
<g id="edge32" class="edge"><title>pw9&#45;&gt;pw3</title>
<path fill="none" stroke="#000000" d="M160.966,-260.536C158.996,-231.527 155.129,-174.578 152.789,-140.124"/>
<polygon fill="#000000" stroke="#000000" points="156.257,-139.531 152.087,-129.791 149.273,-140.005 156.257,-139.531"/>
<text text-anchor="middle" x="153.377" y="-204.13" font-family="Times,serif" font-size="14.00">2</text>
</g>
<!-- pw5&#45;&gt;pw4 -->
<g id="edge49" class="edge"><title>pw5&#45;&gt;pw4</title>
<path fill="none" stroke="#000000" d="M387.799,-190.207C320.769,-168.866 148.04,-113.87 72.1659,-89.7116"/>
<polygon fill="#000000" stroke="#000000" points="73.1407,-86.3489 62.5502,-86.65 71.017,-93.019 73.1407,-86.3489"/>
<text text-anchor="middle" x="226.482" y="-143.76" font-family="Times,serif" font-size="14.00">5</text>
</g>
<!-- pw5&#45;&gt;pw0 -->
<g id="edge51" class="edge"><title>pw5&#45;&gt;pw0</title>
<path fill="none" stroke="#000000" d="M387.977,-216.265C327.921,-254.718 183.703,-347.058 116.198,-390.28"/>
<polygon fill="#000000" stroke="#000000" points="114.118,-387.455 107.584,-395.795 117.893,-393.35 114.118,-387.455"/>
<text text-anchor="middle" x="248.587" y="-307.072" font-family="Times,serif" font-size="14.00">4</text>
</g>
<!-- pw5&#45;&gt;pw1 -->
<g id="edge50" class="edge"><title>pw5&#45;&gt;pw1</title>
<path fill="none" stroke="#000000" d="M404.666,-180.687C393.069,-160.442 374.22,-127.538 360.899,-104.285"/>
<polygon fill="#000000" stroke="#000000" points="363.925,-102.524 355.917,-95.587 357.851,-106.004 363.925,-102.524"/>
<text text-anchor="middle" x="379.283" y="-146.286" font-family="Times,serif" font-size="14.00">2</text>
</g>
<!-- pw3&#45;&gt;pw0 -->
<g id="edge14" class="edge"><title>pw3&#45;&gt;pw0</title>
<path fill="none" stroke="#000000" d="M146.54,-130.029C134.614,-180.962 101.132,-323.959 86.8257,-385.062"/>
<polygon fill="#000000" stroke="#000000" points="83.3369,-384.61 84.4649,-395.144 90.1526,-386.206 83.3369,-384.61"/>
<text text-anchor="middle" x="113.183" y="-261.345" font-family="Times,serif" font-size="14.00">4</text>
</g>
<!-- pw3&#45;&gt;pw1 -->
<g id="edge13" class="edge"><title>pw3&#45;&gt;pw1</title>
<path fill="none" stroke="#000000" d="M177.905,-106.832C211.787,-100.849 270.004,-90.5675 308.102,-83.8395"/>
<polygon fill="#000000" stroke="#000000" points="309.038,-87.2284 318.277,-82.0426 307.821,-80.3351 309.038,-87.2284"/>
<text text-anchor="middle" x="239.504" y="-99.1358" font-family="Times,serif" font-size="14.00">2</text>
</g>
<!-- pw10 -->
<g id="node11" class="node"><title>pw10</title>
<path fill="#ffffcc" stroke="black" d="M42,-225.545C42,-225.545 12,-225.545 12,-225.545 6,-225.545 0,-219.545 0,-213.545 0,-213.545 0,-201.545 0,-201.545 0,-195.545 6,-189.545 12,-189.545 12,-189.545 42,-189.545 42,-189.545 48,-189.545 54,-195.545 54,-201.545 54,-201.545 54,-213.545 54,-213.545 54,-219.545 48,-225.545 42,-225.545"/>
<text text-anchor="middle" x="27" y="-203.845" font-family="Times,serif" font-size="14.00">pw10</text>
</g>
<!-- pw10&#45;&gt;pw6 -->
<g id="edge7" class="edge"><title>pw10&#45;&gt;pw6</title>
<path fill="none" stroke="#000000" d="M54.3224,-199.253C96.3629,-186.494 176.987,-162.026 224.21,-147.694"/>
<polygon fill="#000000" stroke="#000000" points="225.485,-150.965 234.038,-144.712 223.452,-144.267 225.485,-150.965"/>
<text text-anchor="middle" x="135.766" y="-177.274" font-family="Times,serif" font-size="14.00">4</text>
</g>
<!-- pw10&#45;&gt;pw4 -->
<g id="edge5" class="edge"><title>pw10&#45;&gt;pw4</title>
<path fill="none" stroke="#000000" d="M28.1815,-189.538C29.5941,-168.009 31.9752,-131.72 33.6359,-106.409"/>
<polygon fill="#000000" stroke="#000000" points="37.1363,-106.516 34.2986,-96.3088 30.1513,-106.058 37.1363,-106.516"/>
<text text-anchor="middle" x="27.4087" y="-151.773" font-family="Times,serif" font-size="14.00">2</text>
</g>
<!-- pw10&#45;&gt;pw2 -->
<g id="edge9" class="edge"><title>pw10&#45;&gt;pw2</title>
<path fill="none" stroke="#000000" d="M53.5479,-189.542C104.228,-155.175 214.755,-80.2238 271.444,-41.7812"/>
<polygon fill="#000000" stroke="#000000" points="273.421,-44.6693 279.733,-36.16 269.492,-38.8757 273.421,-44.6693"/>
<text text-anchor="middle" x="158.996" y="-119.462" font-family="Times,serif" font-size="14.00">4</text>
</g>
<!-- pw10&#45;&gt;pw0 -->
<g id="edge8" class="edge"><title>pw10&#45;&gt;pw0</title>
<path fill="none" stroke="#000000" d="M31.7219,-225.807C41.05,-261.882 61.8939,-342.493 72.969,-385.324"/>
<polygon fill="#000000" stroke="#000000" points="69.6052,-386.297 75.4973,-395.102 76.3824,-384.544 69.6052,-386.297"/>
<text text-anchor="middle" x="48.8454" y="-309.365" font-family="Times,serif" font-size="14.00">4</text>
</g>
<!-- pw10&#45;&gt;pw8 -->
<g id="edge11" class="edge"><title>pw10&#45;&gt;pw8</title>
<path fill="none" stroke="#000000" d="M54.1653,-209.428C99.7535,-212.589 191.728,-218.965 243.407,-222.548"/>
<polygon fill="#000000" stroke="#000000" points="243.268,-226.046 253.486,-223.246 243.752,-219.063 243.268,-226.046"/>
<text text-anchor="middle" x="145.286" y="-219.788" font-family="Times,serif" font-size="14.00">3</text>
</g>
<!-- pw10&#45;&gt;pw9 -->
<g id="edge12" class="edge"><title>pw10&#45;&gt;pw9</title>
<path fill="none" stroke="#000000" d="M54.0352,-221.782C74.625,-232.624 103.182,-247.661 125.784,-259.563"/>
<polygon fill="#000000" stroke="#000000" points="124.271,-262.722 134.75,-264.285 127.533,-256.528 124.271,-262.722"/>
<text text-anchor="middle" x="86.4094" y="-229.472" font-family="Times,serif" font-size="14.00">2</text>
</g>
<!-- pw10&#45;&gt;pw5 -->
<g id="edge6" class="edge"><title>pw10&#45;&gt;pw5</title>
<path fill="none" stroke="#000000" d="M54.2904,-206.937C122.43,-205.419 300.12,-201.461 377.819,-199.73"/>
<polygon fill="#000000" stroke="#000000" points="378.177,-203.223 388.097,-199.501 378.021,-196.225 378.177,-203.223"/>
<text text-anchor="middle" x="212.555" y="-207.134" font-family="Times,serif" font-size="14.00">5</text>
</g>
<!-- pw10&#45;&gt;pw3 -->
<g id="edge10" class="edge"><title>pw10&#45;&gt;pw3</title>
<path fill="none" stroke="#000000" d="M50.2957,-189.501C69.72,-174.455 97.5871,-152.869 119.061,-136.235"/>
<polygon fill="#000000" stroke="#000000" points="121.478,-138.79 127.24,-129.9 117.191,-133.256 121.478,-138.79"/>
<text text-anchor="middle" x="81.1785" y="-166.668" font-family="Times,serif" font-size="14.00">3</text>
</g>
<!-- pw11 -->
<g id="node12" class="node"><title>pw11</title>
<path fill="#ffffcc" stroke="black" d="M44.0298,-385.832C44.0298,-385.832 14.0298,-385.832 14.0298,-385.832 8.02981,-385.832 2.02981,-379.832 2.02981,-373.832 2.02981,-373.832 2.02981,-361.832 2.02981,-361.832 2.02981,-355.832 8.02981,-349.832 14.0298,-349.832 14.0298,-349.832 44.0298,-349.832 44.0298,-349.832 50.0298,-349.832 56.0298,-355.832 56.0298,-361.832 56.0298,-361.832 56.0298,-373.832 56.0298,-373.832 56.0298,-379.832 50.0298,-385.832 44.0298,-385.832"/>
<text text-anchor="middle" x="29.0298" y="-364.132" font-family="Times,serif" font-size="14.00">pw11</text>
</g>
<!-- pw11&#45;&gt;pw6 -->
<g id="edge54" class="edge"><title>pw11&#45;&gt;pw6</title>
<path fill="none" stroke="#000000" d="M47.2467,-349.677C88.441,-308.624 188.83,-208.58 235.964,-161.608"/>
<polygon fill="#000000" stroke="#000000" points="238.441,-164.081 243.054,-154.543 233.5,-159.122 238.441,-164.081"/>
<text text-anchor="middle" x="138.105" y="-244.443" font-family="Times,serif" font-size="14.00">4</text>
</g>
<!-- pw11&#45;&gt;pw4 -->
<g id="edge53" class="edge"><title>pw11&#45;&gt;pw4</title>
<path fill="none" stroke="#000000" d="M29.4344,-349.704C30.5279,-300.71 33.5483,-165.374 34.8675,-106.269"/>
<polygon fill="#000000" stroke="#000000" points="38.369,-106.233 35.0931,-96.1577 31.3708,-106.077 38.369,-106.233"/>
<text text-anchor="middle" x="28.6509" y="-231.786" font-family="Times,serif" font-size="14.00">4</text>
</g>
<!-- pw11&#45;&gt;pw2 -->
<g id="edge57" class="edge"><title>pw11&#45;&gt;pw2</title>
<path fill="none" stroke="#000000" d="M43.5578,-349.516C89.5413,-291.543 232.024,-111.91 285.738,-44.1911"/>
<polygon fill="#000000" stroke="#000000" points="288.656,-46.1443 292.129,-36.1346 283.172,-41.7942 288.656,-46.1443"/>
<text text-anchor="middle" x="161.148" y="-200.653" font-family="Times,serif" font-size="14.00">6</text>
</g>
<!-- pw11&#45;&gt;pw0 -->
<g id="edge55" class="edge"><title>pw11&#45;&gt;pw0</title>
<path fill="none" stroke="#000000" d="M49.5513,-386.072C50.3856,-386.814 51.2273,-387.562 52.0728,-388.314"/>
<polygon fill="#000000" stroke="#000000" points="49.8831,-391.05 59.6825,-395.078 54.5336,-385.818 49.8831,-391.05"/>
<text text-anchor="middle" x="47.3121" y="-390.993" font-family="Times,serif" font-size="14.00">1</text>
</g>
<!-- pw11&#45;&gt;pw8 -->
<g id="edge62" class="edge"><title>pw11&#45;&gt;pw8</title>
<path fill="none" stroke="#000000" d="M56.4572,-352.29C102.177,-326.383 193.956,-274.375 244.825,-245.55"/>
<polygon fill="#000000" stroke="#000000" points="246.852,-248.425 253.827,-240.449 243.401,-242.334 246.852,-248.425"/>
<text text-anchor="middle" x="147.141" y="-302.72" font-family="Times,serif" font-size="14.00">6</text>
</g>
<!-- pw11&#45;&gt;pw9 -->
<g id="edge61" class="edge"><title>pw11&#45;&gt;pw9</title>
<path fill="none" stroke="#000000" d="M55.9792,-349.803C76.3763,-336.157 104.575,-317.292 126.793,-302.428"/>
<polygon fill="#000000" stroke="#000000" points="128.927,-305.212 135.293,-296.742 125.035,-299.394 128.927,-305.212"/>
<text text-anchor="middle" x="87.8862" y="-329.916" font-family="Times,serif" font-size="14.00">4</text>
</g>
<!-- pw11&#45;&gt;pw5 -->
<g id="edge52" class="edge"><title>pw11&#45;&gt;pw5</title>
<path fill="none" stroke="#000000" d="M56.1774,-355.953C124.156,-326.208 301.738,-248.503 378.678,-214.836"/>
<polygon fill="#000000" stroke="#000000" points="380.223,-217.981 387.981,-210.765 377.417,-211.568 380.223,-217.981"/>
<text text-anchor="middle" x="213.928" y="-289.194" font-family="Times,serif" font-size="14.00">4</text>
</g>
<!-- pw11&#45;&gt;pw3 -->
<g id="edge20" class="edge"><title>pw11&#45;&gt;pw3</title>
<path fill="none" stroke="#000000" d="M37.5961,-349.815C58.6022,-305.634 112.776,-191.693 137.812,-139.038"/>
<polygon fill="#000000" stroke="#000000" points="141,-140.484 142.133,-129.95 134.678,-137.478 141,-140.484"/>
<text text-anchor="middle" x="84.2039" y="-248.226" font-family="Times,serif" font-size="14.00">4</text>
</g>
<!-- pw11&#45;&gt;pw10 -->
<g id="edge4" class="edge"><title>pw11&#45;&gt;pw10</title>
<path fill="none" stroke="#000000" d="M28.8009,-349.756C28.4507,-322.099 27.7786,-269.03 27.3619,-236.122"/>
<polygon fill="#000000" stroke="#000000" points="30.8576,-235.755 27.2312,-225.8 23.8582,-235.844 30.8576,-235.755"/>
<text text-anchor="middle" x="24.5814" y="-296.739" font-family="Times,serif" font-size="14.00">4</text>
</g>
<!-- pw12 -->
<g id="node13" class="node"><title>pw12</title>
<path fill="#ffffcc" stroke="black" d="M407.682,-402.305C407.682,-402.305 377.682,-402.305 377.682,-402.305 371.682,-402.305 365.682,-396.305 365.682,-390.305 365.682,-390.305 365.682,-378.305 365.682,-378.305 365.682,-372.305 371.682,-366.305 377.682,-366.305 377.682,-366.305 407.682,-366.305 407.682,-366.305 413.682,-366.305 419.682,-372.305 419.682,-378.305 419.682,-378.305 419.682,-390.305 419.682,-390.305 419.682,-396.305 413.682,-402.305 407.682,-402.305"/>
<text text-anchor="middle" x="392.682" y="-380.605" font-family="Times,serif" font-size="14.00">pw12</text>
</g>
<!-- pw12&#45;&gt;pw0 -->
<g id="edge41" class="edge"><title>pw12&#45;&gt;pw0</title>
<path fill="none" stroke="#000000" d="M365.498,-386.829C309.519,-392.028 181.293,-403.935 117.571,-409.853"/>
<polygon fill="#000000" stroke="#000000" points="117.185,-406.374 107.552,-410.783 117.832,-413.344 117.185,-406.374"/>
<text text-anchor="middle" x="238.034" y="-387.141" font-family="Times,serif" font-size="14.00">6</text>
</g>
<!-- pw12&#45;&gt;pw7 -->
<g id="edge56" class="edge"><title>pw12&#45;&gt;pw7</title>
<path fill="none" stroke="#000000" d="M383.158,-366.158C373.183,-347.153 357.404,-317.088 345.952,-295.269"/>
<polygon fill="#000000" stroke="#000000" points="348.932,-293.415 341.186,-286.187 342.734,-296.668 348.932,-293.415"/>
<text text-anchor="middle" x="361.055" y="-334.514" font-family="Times,serif" font-size="14.00">2</text>
</g>
<!-- pw12&#45;&gt;pw9 -->
<g id="edge48" class="edge"><title>pw12&#45;&gt;pw9</title>
<path fill="none" stroke="#000000" d="M365.337,-371.781C323.925,-352.813 245.229,-316.769 198.884,-295.541"/>
<polygon fill="#000000" stroke="#000000" points="200.06,-292.23 189.51,-291.248 197.145,-298.595 200.06,-292.23"/>
<text text-anchor="middle" x="278.611" y="-337.461" font-family="Times,serif" font-size="14.00">3</text>
</g>
<!-- pw12&#45;&gt;pw11 -->
<g id="edge27" class="edge"><title>pw12&#45;&gt;pw11</title>
<path fill="none" stroke="#000000" d="M365.646,-383.08C301.478,-380.173 139.885,-372.853 66.4211,-369.525"/>
<polygon fill="#000000" stroke="#000000" points="66.3918,-366.021 56.2437,-369.064 66.075,-373.013 66.3918,-366.021"/>
<text text-anchor="middle" x="212.533" y="-380.103" font-family="Times,serif" font-size="14.00">6</text>
</g>
<!-- pw13 -->
<g id="node14" class="node"><title>pw13</title>
<path fill="#ffffcc" stroke="black" d="M270.407,-424.626C270.407,-424.626 240.407,-424.626 240.407,-424.626 234.407,-424.626 228.407,-418.626 228.407,-412.626 228.407,-412.626 228.407,-400.626 228.407,-400.626 228.407,-394.626 234.407,-388.626 240.407,-388.626 240.407,-388.626 270.407,-388.626 270.407,-388.626 276.407,-388.626 282.407,-394.626 282.407,-400.626 282.407,-400.626 282.407,-412.626 282.407,-412.626 282.407,-418.626 276.407,-424.626 270.407,-424.626"/>
<text text-anchor="middle" x="255.407" y="-402.926" font-family="Times,serif" font-size="14.00">pw13</text>
</g>
<!-- pw13&#45;&gt;pw6 -->
<g id="edge21" class="edge"><title>pw13&#45;&gt;pw6</title>
<path fill="none" stroke="#000000" d="M255.795,-388.481C256.782,-342.343 259.393,-220.274 260.582,-164.72"/>
<polygon fill="#000000" stroke="#000000" points="264.085,-164.611 260.799,-154.539 257.086,-164.461 264.085,-164.611"/>
<text text-anchor="middle" x="254.688" y="-280.401" font-family="Times,serif" font-size="14.00">6</text>
</g>
<!-- pw13&#45;&gt;pw0 -->
<g id="edge68" class="edge"><title>pw13&#45;&gt;pw0</title>
<path fill="none" stroke="#000000" d="M228.032,-407.673C198.333,-408.808 150.732,-410.627 117.599,-411.893"/>
<polygon fill="#000000" stroke="#000000" points="117.25,-408.404 107.391,-412.284 117.518,-415.399 117.25,-408.404"/>
<text text-anchor="middle" x="169.316" y="-413.583" font-family="Times,serif" font-size="14.00">5</text>
</g>
<!-- pw13&#45;&gt;pw7 -->
<g id="edge65" class="edge"><title>pw13&#45;&gt;pw7</title>
<path fill="none" stroke="#000000" d="M265.385,-388.525C278.469,-364.789 301.541,-322.933 316.733,-295.372"/>
<polygon fill="#000000" stroke="#000000" points="319.986,-296.72 321.748,-286.273 313.856,-293.341 319.986,-296.72"/>
<text text-anchor="middle" x="287.559" y="-345.749" font-family="Times,serif" font-size="14.00">3</text>
</g>
<!-- pw13&#45;&gt;pw9 -->
<g id="edge69" class="edge"><title>pw13&#45;&gt;pw9</title>
<path fill="none" stroke="#000000" d="M242.251,-388.575C226.45,-366.895 199.809,-330.34 181.636,-305.406"/>
<polygon fill="#000000" stroke="#000000" points="184.311,-303.134 175.593,-297.114 178.654,-307.257 184.311,-303.134"/>
<text text-anchor="middle" x="208.443" y="-350.79" font-family="Times,serif" font-size="14.00">2</text>
</g>
<!-- pw13&#45;&gt;pw11 -->
<g id="edge39" class="edge"><title>pw13&#45;&gt;pw11</title>
<path fill="none" stroke="#000000" d="M228.101,-401.947C187.625,-395.011 111.606,-381.983 66.1223,-374.188"/>
<polygon fill="#000000" stroke="#000000" points="66.5282,-370.707 56.0806,-372.467 65.3457,-377.606 66.5282,-370.707"/>
<text text-anchor="middle" x="143.611" y="-391.868" font-family="Times,serif" font-size="14.00">5</text>
</g>
<!-- pw13&#45;&gt;pw12 -->
<g id="edge38" class="edge"><title>pw13&#45;&gt;pw12</title>
<path fill="none" stroke="#000000" d="M282.528,-402.216C303.398,-398.823 332.47,-394.096 355.508,-390.349"/>
<polygon fill="#000000" stroke="#000000" points="356.308,-393.765 365.617,-388.706 355.185,-386.856 356.308,-393.765"/>
<text text-anchor="middle" x="315.518" y="-400.083" font-family="Times,serif" font-size="14.00">2</text>
</g>
<!-- pw14 -->
<g id="node15" class="node"><title>pw14</title>
<path fill="#ffffcc" stroke="black" d="M426.425,-102.063C426.425,-102.063 396.425,-102.063 396.425,-102.063 390.425,-102.063 384.425,-96.0631 384.425,-90.0631 384.425,-90.0631 384.425,-78.0631 384.425,-78.0631 384.425,-72.0631 390.425,-66.0631 396.425,-66.0631 396.425,-66.0631 426.425,-66.0631 426.425,-66.0631 432.425,-66.0631 438.425,-72.0631 438.425,-78.0631 438.425,-78.0631 438.425,-90.0631 438.425,-90.0631 438.425,-96.0631 432.425,-102.063 426.425,-102.063"/>
<text text-anchor="middle" x="411.425" y="-80.3631" font-family="Times,serif" font-size="14.00">pw14</text>
</g>
<!-- pw14&#45;&gt;pw1 -->
<g id="edge23" class="edge"><title>pw14&#45;&gt;pw1</title>
<path fill="none" stroke="#000000" d="M384.194,-81.2528C383.715,-81.2033 383.233,-81.1536 382.751,-81.1039"/>
<polygon fill="#000000" stroke="#000000" points="382.887,-77.5994 372.581,-80.0542 382.169,-84.5624 382.887,-77.5994"/>
<text text-anchor="middle" x="379.973" y="-84.9783" font-family="Times,serif" font-size="14.00">1</text>
</g>
<!-- pw14&#45;&gt;pw12 -->
<g id="edge18" class="edge"><title>pw14&#45;&gt;pw12</title>
<path fill="none" stroke="#000000" d="M410.28,-102.393C407.116,-153.078 398.233,-295.377 394.437,-356.182"/>
<polygon fill="#000000" stroke="#000000" points="390.941,-356.017 393.811,-366.215 397.927,-356.453 390.941,-356.017"/>
<text text-anchor="middle" x="398.859" y="-233.087" font-family="Times,serif" font-size="14.00">3</text>
</g>
<!-- pw14&#45;&gt;pw13 -->
<g id="edge19" class="edge"><title>pw14&#45;&gt;pw13</title>
<path fill="none" stroke="#000000" d="M402.59,-102.33C376.47,-156.332 299.509,-315.447 268.538,-379.478"/>
<polygon fill="#000000" stroke="#000000" points="265.349,-378.034 264.145,-388.56 271.65,-381.082 265.349,-378.034"/>
<text text-anchor="middle" x="332.064" y="-229.704" font-family="Times,serif" font-size="14.00">4</text>
</g>
<!-- pw15 -->
<g id="node16" class="node"><title>pw15</title>
<path fill="#ffffcc" stroke="black" d="M489.489,-247.749C489.489,-247.749 459.489,-247.749 459.489,-247.749 453.489,-247.749 447.489,-241.749 447.489,-235.749 447.489,-235.749 447.489,-223.749 447.489,-223.749 447.489,-217.749 453.489,-211.749 459.489,-211.749 459.489,-211.749 489.489,-211.749 489.489,-211.749 495.489,-211.749 501.489,-217.749 501.489,-223.749 501.489,-223.749 501.489,-235.749 501.489,-235.749 501.489,-241.749 495.489,-247.749 489.489,-247.749"/>
<text text-anchor="middle" x="474.489" y="-226.049" font-family="Times,serif" font-size="14.00">pw15</text>
</g>
<!-- pw15&#45;&gt;pw0 -->
<g id="edge30" class="edge"><title>pw15&#45;&gt;pw0</title>
<path fill="none" stroke="#000000" d="M447.388,-242.367C378.23,-274.566 195.141,-359.811 116.71,-396.328"/>
<polygon fill="#000000" stroke="#000000" points="114.826,-393.344 107.237,-400.738 117.78,-399.69 114.826,-393.344"/>
<text text-anchor="middle" x="278.549" y="-308.147" font-family="Times,serif" font-size="14.00">4</text>
</g>
<!-- pw15&#45;&gt;pw5 -->
<g id="edge31" class="edge"><title>pw15&#45;&gt;pw5</title>
<path fill="none" stroke="#000000" d="M447.227,-215.588C447.128,-215.537 447.029,-215.485 446.93,-215.434"/>
<polygon fill="#000000" stroke="#000000" points="452.948,-214.616 442.461,-213.112 449.721,-220.828 452.948,-214.616"/>
<text text-anchor="middle" x="443.579" y="-219.311" font-family="Times,serif" font-size="14.00">1</text>
</g>
<!-- pw15&#45;&gt;pw11 -->
<g id="edge1" class="edge"><title>pw15&#45;&gt;pw11</title>
<path fill="none" stroke="#000000" d="M447.294,-238.179C370.706,-261.92 153.128,-329.364 65.8843,-356.408"/>
<polygon fill="#000000" stroke="#000000" points="64.6665,-353.121 56.1511,-359.425 66.7391,-359.807 64.6665,-353.121"/>
<text text-anchor="middle" x="260.089" y="-301.093" font-family="Times,serif" font-size="14.00">4</text>
</g>
<!-- pw15&#45;&gt;pw12 -->
<g id="edge2" class="edge"><title>pw15&#45;&gt;pw12</title>
<path fill="none" stroke="#000000" d="M464.944,-247.781C450.735,-274.626 423.908,-325.309 407.24,-356.8"/>
<polygon fill="#000000" stroke="#000000" points="404.004,-355.433 402.419,-365.909 410.19,-358.708 404.004,-355.433"/>
<text text-anchor="middle" x="432.592" y="-306.09" font-family="Times,serif" font-size="14.00">3</text>
</g>
<!-- pw15&#45;&gt;pw13 -->
<g id="edge22" class="edge"><title>pw15&#45;&gt;pw13</title>
<path fill="none" stroke="#000000" d="M451.868,-248.012C412.244,-280.003 330.27,-346.185 285.76,-382.12"/>
<polygon fill="#000000" stroke="#000000" points="283.486,-379.458 277.904,-388.463 287.884,-384.904 283.486,-379.458"/>
<text text-anchor="middle" x="365.314" y="-318.866" font-family="Times,serif" font-size="14.00">4</text>
</g>
<!-- pw15&#45;&gt;pw14 -->
<g id="edge3" class="edge"><title>pw15&#45;&gt;pw14</title>
<path fill="none" stroke="#000000" d="M466.629,-211.592C455.772,-186.51 436.09,-141.043 423.397,-111.721"/>
<polygon fill="#000000" stroke="#000000" points="426.568,-110.235 419.383,-102.449 420.144,-113.016 426.568,-110.235"/>
<text text-anchor="middle" x="441.513" y="-165.457" font-family="Times,serif" font-size="14.00">2</text>
</g>
<!-- pw16 -->
<g id="node17" class="node"><title>pw16</title>
<path fill="#ffffcc" stroke="black" d="M220.406,-98.8442C220.406,-98.8442 190.406,-98.8442 190.406,-98.8442 184.406,-98.8442 178.406,-92.8442 178.406,-86.8442 178.406,-86.8442 178.406,-74.8442 178.406,-74.8442 178.406,-68.8442 184.406,-62.8442 190.406,-62.8442 190.406,-62.8442 220.406,-62.8442 220.406,-62.8442 226.406,-62.8442 232.406,-68.8442 232.406,-74.8442 232.406,-74.8442 232.406,-86.8442 232.406,-86.8442 232.406,-92.8442 226.406,-98.8442 220.406,-98.8442"/>
<text text-anchor="middle" x="205.406" y="-77.1442" font-family="Times,serif" font-size="14.00">pw16</text>
</g>
<!-- pw16&#45;&gt;pw0 -->
<g id="edge67" class="edge"><title>pw16&#45;&gt;pw0</title>
<path fill="none" stroke="#000000" d="M198.497,-99.1932C177.719,-154.37 115.709,-319.047 90.7691,-385.278"/>
<polygon fill="#000000" stroke="#000000" points="87.3454,-384.438 87.0968,-395.03 93.8963,-386.905 87.3454,-384.438"/>
<text text-anchor="middle" x="148.133" y="-246.035" font-family="Times,serif" font-size="14.00">4</text>
</g>
<!-- pw16&#45;&gt;pw3 -->
<g id="edge66" class="edge"><title>pw16&#45;&gt;pw3</title>
<path fill="none" stroke="#000000" d="M178.129,-96.2269C178.076,-96.257 178.023,-96.287 177.97,-96.3171"/>
<polygon fill="#000000" stroke="#000000" points="184.801,-88.4434 177.81,-96.4072 188.241,-94.5411 184.801,-88.4434"/>
<text text-anchor="middle" x="181.55" y="-100.072" font-family="Times,serif" font-size="14.00">1</text>
</g>
<!-- pw16&#45;&gt;pw11 -->
<g id="edge58" class="edge"><title>pw16&#45;&gt;pw11</title>
<path fill="none" stroke="#000000" d="M194.105,-99.2331C163.865,-148.437 80.9963,-283.275 45.5103,-341.016"/>
<polygon fill="#000000" stroke="#000000" points="42.4913,-339.244 40.2371,-349.596 48.4551,-342.909 42.4913,-339.244"/>
<text text-anchor="middle" x="116.308" y="-223.924" font-family="Times,serif" font-size="14.00">4</text>
</g>
<!-- pw16&#45;&gt;pw12 -->
<g id="edge59" class="edge"><title>pw16&#45;&gt;pw12</title>
<path fill="none" stroke="#000000" d="M216.56,-98.9182C248.168,-150.135 338.463,-296.449 376,-357.275"/>
<polygon fill="#000000" stroke="#000000" points="373.119,-359.27 381.349,-365.942 379.076,-355.594 373.119,-359.27"/>
<text text-anchor="middle" x="292.78" y="-216.896" font-family="Times,serif" font-size="14.00">4</text>
</g>
<!-- pw16&#45;&gt;pw13 -->
<g id="edge60" class="edge"><title>pw16&#45;&gt;pw13</title>
<path fill="none" stroke="#000000" d="M208.238,-99.2931C216.574,-153.61 241.071,-313.219 251.076,-378.405"/>
<polygon fill="#000000" stroke="#000000" points="247.63,-379.027 252.606,-388.38 254.549,-377.965 247.63,-379.027"/>
<text text-anchor="middle" x="226.157" y="-242.649" font-family="Times,serif" font-size="14.00">3</text>
</g>
<!-- pw16&#45;&gt;pw14 -->
<g id="edge33" class="edge"><title>pw16&#45;&gt;pw14</title>
<path fill="none" stroke="#000000" d="M232.764,-81.2716C269.113,-81.8396 333.472,-82.8451 374.214,-83.4817"/>
<polygon fill="#000000" stroke="#000000" points="374.229,-86.9823 384.282,-83.639 374.338,-79.9831 374.229,-86.9823"/>
<text text-anchor="middle" x="299.989" y="-86.1767" font-family="Times,serif" font-size="14.00">2</text>
</g>
<!-- Legend -->
<g id="node18" class="node"><title>Legend</title>
<path fill="white" stroke="black" d="M542,-434C542,-434 493,-434 493,-434 487,-434 481,-428 481,-422 481,-422 481,-345 481,-345 481,-339 487,-333 493,-333 493,-333 542,-333 542,-333 548,-333 554,-339 554,-345 554,-345 554,-422 554,-422 554,-428 548,-434 542,-434"/>
<polygon fill="none" stroke="black" points="481.5,-407.5 481.5,-433.5 554.5,-433.5 554.5,-407.5 481.5,-407.5"/>
<text text-anchor="start" x="493.5" y="-416.8" font-family="Arial Black" font-size="14.00"> Nodes</text>
<polygon fill="#ffffcc" stroke="none" points="481.5,-382.5 481.5,-407.5 530.5,-407.5 530.5,-382.5 481.5,-382.5"/>
<polygon fill="none" stroke="black" points="481.5,-382.5 481.5,-407.5 530.5,-407.5 530.5,-382.5 481.5,-382.5"/>
<text text-anchor="start" x="487.5" y="-391.3" font-family="Times,serif" font-size="14.00">cluster</text>
<polygon fill="none" stroke="black" points="530.5,-382.5 530.5,-407.5 554.5,-407.5 554.5,-382.5 530.5,-382.5"/>
<text text-anchor="start" x="535.5" y="-391.3" font-family="Times,serif" font-size="14.00">17</text>
<polygon fill="none" stroke="black" points="481.5,-357.5 481.5,-382.5 554.5,-382.5 554.5,-357.5 481.5,-357.5"/>
<text text-anchor="start" x="492" y="-366.3" font-family="Arial Black" font-size="14.00"> Edges </text>
<polygon fill="none" stroke="black" points="481.5,-332.5 481.5,-357.5 530.5,-357.5 530.5,-332.5 481.5,-332.5"/>
<text text-anchor="start" x="487" y="-341.3" font-family="Times,serif" font-size="14.00" fill="#000000">default</text>
<polygon fill="none" stroke="black" points="530.5,-332.5 530.5,-357.5 554.5,-357.5 554.5,-332.5 530.5,-332.5"/>
<text text-anchor="start" x="535.5" y="-341.3" font-family="Times,serif" font-size="14.00">69</text>
</g>
</g>
</svg>
