<?xml version="1.0" encoding="UTF-8" standalone="no"?>
<!DOCTYPE svg PUBLIC "-//W3C//DTD SVG 1.1//EN"
 "http://www.w3.org/Graphics/SVG/1.1/DTD/svg11.dtd">
<!-- Generated by graphviz version 2.36.0 (20140111.2315)
 -->
<!-- Title: %3 Pages: 1 -->
<svg width="561pt" height="497pt"
 viewBox="0.00 0.00 561.00 496.69" xmlns="http://www.w3.org/2000/svg" xmlns:xlink="http://www.w3.org/1999/xlink">
<g id="graph0" class="graph" transform="scale(1 1) rotate(0) translate(4 492.689)">
<title>%3</title>
<polygon fill="white" stroke="none" points="-4,4 -4,-492.689 557,-492.689 557,4 -4,4"/>
<!-- pw2 -->
<g id="node1" class="node"><title>pw2</title>
<path fill="#ffffcc" stroke="black" d="M175.377,-40.1009C175.377,-40.1009 145.377,-40.1009 145.377,-40.1009 139.377,-40.1009 133.377,-34.1009 133.377,-28.1009 133.377,-28.1009 133.377,-16.1009 133.377,-16.1009 133.377,-10.1009 139.377,-4.10089 145.377,-4.10089 145.377,-4.10089 175.377,-4.10089 175.377,-4.10089 181.377,-4.10089 187.377,-10.1009 187.377,-16.1009 187.377,-16.1009 187.377,-28.1009 187.377,-28.1009 187.377,-34.1009 181.377,-40.1009 175.377,-40.1009"/>
<text text-anchor="middle" x="160.377" y="-18.4009" font-family="Times,serif" font-size="14.00">pw2</text>
</g>
<!-- pw0 -->
<g id="node3" class="node"><title>pw0</title>
<path fill="#ffffcc" stroke="black" d="M194.287,-101.942C194.287,-101.942 164.287,-101.942 164.287,-101.942 158.287,-101.942 152.287,-95.9423 152.287,-89.9423 152.287,-89.9423 152.287,-77.9423 152.287,-77.9423 152.287,-71.9423 158.287,-65.9423 164.287,-65.9423 164.287,-65.9423 194.287,-65.9423 194.287,-65.9423 200.287,-65.9423 206.287,-71.9423 206.287,-77.9423 206.287,-77.9423 206.287,-89.9423 206.287,-89.9423 206.287,-95.9423 200.287,-101.942 194.287,-101.942"/>
<text text-anchor="middle" x="179.287" y="-80.2423" font-family="Times,serif" font-size="14.00">pw0</text>
</g>
<!-- pw2&#45;&gt;pw0 -->
<g id="edge16" class="edge"><title>pw2&#45;&gt;pw0</title>
<path fill="none" stroke="#000000" d="M165.948,-40.3209C167.435,-45.1841 169.078,-50.5548 170.687,-55.8165"/>
<polygon fill="#000000" stroke="#000000" points="167.419,-57.0995 173.69,-65.6389 174.113,-55.0525 167.419,-57.0995"/>
<text text-anchor="middle" x="164.817" y="-51.8687" font-family="Times,serif" font-size="14.00">1</text>
</g>
<!-- pw3 -->
<g id="node2" class="node"><title>pw3</title>
<path fill="#ffffcc" stroke="black" d="M506.072,-260.487C506.072,-260.487 476.072,-260.487 476.072,-260.487 470.072,-260.487 464.072,-254.487 464.072,-248.487 464.072,-248.487 464.072,-236.487 464.072,-236.487 464.072,-230.487 470.072,-224.487 476.072,-224.487 476.072,-224.487 506.072,-224.487 506.072,-224.487 512.072,-224.487 518.072,-230.487 518.072,-236.487 518.072,-236.487 518.072,-248.487 518.072,-248.487 518.072,-254.487 512.072,-260.487 506.072,-260.487"/>
<text text-anchor="middle" x="491.072" y="-238.787" font-family="Times,serif" font-size="14.00">pw3</text>
</g>
<!-- pw3&#45;&gt;pw2 -->
<g id="edge11" class="edge"><title>pw3&#45;&gt;pw2</title>
<path fill="none" stroke="#000000" d="M464.01,-224.452C404.663,-184.901 263.064,-90.5352 196.334,-46.064"/>
<polygon fill="#000000" stroke="#000000" points="198.075,-43.0184 187.813,-40.3852 194.193,-48.8434 198.075,-43.0184"/>
<text text-anchor="middle" x="326.672" y="-139.058" font-family="Times,serif" font-size="14.00">4</text>
</g>
<!-- pw3&#45;&gt;pw0 -->
<g id="edge10" class="edge"><title>pw3&#45;&gt;pw0</title>
<path fill="none" stroke="#000000" d="M463.949,-228.694C407.862,-200.174 279.092,-134.694 215.784,-102.501"/>
<polygon fill="#000000" stroke="#000000" points="217.07,-99.2287 206.57,-97.8158 213.897,-105.468 217.07,-99.2287"/>
<text text-anchor="middle" x="336.366" y="-169.398" font-family="Times,serif" font-size="14.00">4</text>
</g>
<!-- pw1 -->
<g id="node9" class="node"><title>pw1</title>
<path fill="#ffffcc" stroke="black" d="M295.174,-36C295.174,-36 265.174,-36 265.174,-36 259.174,-36 253.174,-30 253.174,-24 253.174,-24 253.174,-12 253.174,-12 253.174,-6 259.174,2.84217e-14 265.174,2.84217e-14 265.174,2.84217e-14 295.174,2.84217e-14 295.174,2.84217e-14 301.174,2.84217e-14 307.174,-6 307.174,-12 307.174,-12 307.174,-24 307.174,-24 307.174,-30 301.174,-36 295.174,-36"/>
<text text-anchor="middle" x="280.174" y="-14.3" font-family="Times,serif" font-size="14.00">pw1</text>
</g>
<!-- pw3&#45;&gt;pw1 -->
<g id="edge9" class="edge"><title>pw3&#45;&gt;pw1</title>
<path fill="none" stroke="#000000" d="M473.814,-224.116C436.336,-184.224 347.425,-89.584 304.369,-43.7536"/>
<polygon fill="#000000" stroke="#000000" points="306.774,-41.2015 297.376,-36.3097 301.672,-45.9944 306.774,-41.2015"/>
<text text-anchor="middle" x="385.591" y="-122.735" font-family="Times,serif" font-size="14.00">4</text>
</g>
<!-- pw7 -->
<g id="node4" class="node"><title>pw7</title>
<path fill="#ffffcc" stroke="black" d="M176.316,-245.417C176.316,-245.417 146.316,-245.417 146.316,-245.417 140.316,-245.417 134.316,-239.417 134.316,-233.417 134.316,-233.417 134.316,-221.417 134.316,-221.417 134.316,-215.417 140.316,-209.417 146.316,-209.417 146.316,-209.417 176.316,-209.417 176.316,-209.417 182.316,-209.417 188.316,-215.417 188.316,-221.417 188.316,-221.417 188.316,-233.417 188.316,-233.417 188.316,-239.417 182.316,-245.417 176.316,-245.417"/>
<text text-anchor="middle" x="161.316" y="-223.717" font-family="Times,serif" font-size="14.00">pw7</text>
</g>
<!-- pw7&#45;&gt;pw2 -->
<g id="edge15" class="edge"><title>pw7&#45;&gt;pw2</title>
<path fill="none" stroke="#000000" d="M161.233,-209.197C161.068,-173.279 160.702,-93.1118 160.506,-50.3081"/>
<polygon fill="#000000" stroke="#000000" points="164.006,-50.2644 160.46,-40.2805 157.006,-50.2965 164.006,-50.2644"/>
<text text-anchor="middle" x="157.369" y="-133.553" font-family="Times,serif" font-size="14.00">2</text>
</g>
<!-- pw5 -->
<g id="node8" class="node"><title>pw5</title>
<path fill="#ffffcc" stroke="black" d="M111.248,-266.196C111.248,-266.196 81.2478,-266.196 81.2478,-266.196 75.2478,-266.196 69.2478,-260.196 69.2478,-254.196 69.2478,-254.196 69.2478,-242.196 69.2478,-242.196 69.2478,-236.196 75.2478,-230.196 81.2478,-230.196 81.2478,-230.196 111.248,-230.196 111.248,-230.196 117.248,-230.196 123.248,-236.196 123.248,-242.196 123.248,-242.196 123.248,-254.196 123.248,-254.196 123.248,-260.196 117.248,-266.196 111.248,-266.196"/>
<text text-anchor="middle" x="96.2478" y="-244.496" font-family="Times,serif" font-size="14.00">pw5</text>
</g>
<!-- pw7&#45;&gt;pw5 -->
<g id="edge57" class="edge"><title>pw7&#45;&gt;pw5</title>
<path fill="none" stroke="#000000" d="M134.098,-236.109C133.772,-236.213 133.444,-236.318 133.117,-236.423"/>
<polygon fill="#000000" stroke="#000000" points="132.027,-233.096 123.566,-239.473 134.156,-239.765 132.027,-233.096"/>
<text text-anchor="middle" x="130.107" y="-240.066" font-family="Times,serif" font-size="14.00">1</text>
</g>
<!-- pw4 -->
<g id="node5" class="node"><title>pw4</title>
<path fill="#ffffcc" stroke="black" d="M495.212,-327.595C495.212,-327.595 465.212,-327.595 465.212,-327.595 459.212,-327.595 453.212,-321.595 453.212,-315.595 453.212,-315.595 453.212,-303.595 453.212,-303.595 453.212,-297.595 459.212,-291.595 465.212,-291.595 465.212,-291.595 495.212,-291.595 495.212,-291.595 501.212,-291.595 507.212,-297.595 507.212,-303.595 507.212,-303.595 507.212,-315.595 507.212,-315.595 507.212,-321.595 501.212,-327.595 495.212,-327.595"/>
<text text-anchor="middle" x="480.212" y="-305.895" font-family="Times,serif" font-size="14.00">pw4</text>
</g>
<!-- pw4&#45;&gt;pw2 -->
<g id="edge12" class="edge"><title>pw4&#45;&gt;pw2</title>
<path fill="none" stroke="#000000" d="M459.718,-291.174C404.319,-241.376 251.509,-104.018 188.303,-47.2036"/>
<polygon fill="#000000" stroke="#000000" points="190.477,-44.451 180.7,-40.3689 185.797,-49.657 190.477,-44.451"/>
<text text-anchor="middle" x="320.511" y="-172.989" font-family="Times,serif" font-size="14.00">4</text>
</g>
<!-- pw4&#45;&gt;pw3 -->
<g id="edge13" class="edge"><title>pw4&#45;&gt;pw3</title>
<path fill="none" stroke="#000000" d="M483.18,-291.258C484.185,-285.043 485.334,-277.946 486.438,-271.126"/>
<polygon fill="#000000" stroke="#000000" points="489.966,-271.233 488.108,-260.802 483.056,-270.115 489.966,-271.233"/>
<text text-anchor="middle" x="481.309" y="-269.992" font-family="Times,serif" font-size="14.00">1</text>
</g>
<!-- pw4&#45;&gt;pw0 -->
<g id="edge14" class="edge"><title>pw4&#45;&gt;pw0</title>
<path fill="none" stroke="#000000" d="M456.095,-291.511C402.28,-251.157 272.367,-153.74 211.617,-108.186"/>
<polygon fill="#000000" stroke="#000000" points="213.62,-105.312 203.519,-102.113 209.42,-110.913 213.62,-105.312"/>
<text text-anchor="middle" x="330.356" y="-203.648" font-family="Times,serif" font-size="14.00">4</text>
</g>
<!-- pw4&#45;&gt;pw1 -->
<g id="edge67" class="edge"><title>pw4&#45;&gt;pw1</title>
<path fill="none" stroke="#000000" d="M467.699,-291.355C433.529,-241.545 338.516,-103.045 298.41,-44.5817"/>
<polygon fill="#000000" stroke="#000000" points="301.226,-42.4999 292.683,-36.2337 295.454,-46.4598 301.226,-42.4999"/>
<text text-anchor="middle" x="379.554" y="-171.768" font-family="Times,serif" font-size="14.00">4</text>
</g>
<!-- pw8 -->
<g id="node6" class="node"><title>pw8</title>
<path fill="#ffffcc" stroke="black" d="M116.947,-142.109C116.947,-142.109 86.947,-142.109 86.947,-142.109 80.947,-142.109 74.947,-136.109 74.947,-130.109 74.947,-130.109 74.947,-118.109 74.947,-118.109 74.947,-112.109 80.947,-106.109 86.947,-106.109 86.947,-106.109 116.947,-106.109 116.947,-106.109 122.947,-106.109 128.947,-112.109 128.947,-118.109 128.947,-118.109 128.947,-130.109 128.947,-130.109 128.947,-136.109 122.947,-142.109 116.947,-142.109"/>
<text text-anchor="middle" x="101.947" y="-120.409" font-family="Times,serif" font-size="14.00">pw8</text>
</g>
<!-- pw8&#45;&gt;pw0 -->
<g id="edge46" class="edge"><title>pw8&#45;&gt;pw0</title>
<path fill="none" stroke="#000000" d="M128.997,-110.061C133.562,-107.69 138.366,-105.195 143.12,-102.726"/>
<polygon fill="#000000" stroke="#000000" points="144.861,-105.766 152.122,-98.0507 141.634,-99.5537 144.861,-105.766"/>
<text text-anchor="middle" x="132.558" y="-110.193" font-family="Times,serif" font-size="14.00">2</text>
</g>
<!-- pw8&#45;&gt;pw5 -->
<g id="edge47" class="edge"><title>pw8&#45;&gt;pw5</title>
<path fill="none" stroke="#000000" d="M101.118,-142.152C100.181,-162.554 98.6436,-196.033 97.5467,-219.915"/>
<polygon fill="#000000" stroke="#000000" points="94.0401,-219.981 97.0775,-230.131 101.033,-220.302 94.0401,-219.981"/>
<text text-anchor="middle" x="95.8325" y="-184.834" font-family="Times,serif" font-size="14.00">2</text>
</g>
<!-- pw9 -->
<g id="node7" class="node"><title>pw9</title>
<path fill="#ffffcc" stroke="black" d="M44.9795,-145.716C44.9795,-145.716 14.9795,-145.716 14.9795,-145.716 8.97949,-145.716 2.97949,-139.716 2.97949,-133.716 2.97949,-133.716 2.97949,-121.716 2.97949,-121.716 2.97949,-115.716 8.97949,-109.716 14.9795,-109.716 14.9795,-109.716 44.9795,-109.716 44.9795,-109.716 50.9795,-109.716 56.9795,-115.716 56.9795,-121.716 56.9795,-121.716 56.9795,-133.716 56.9795,-133.716 56.9795,-139.716 50.9795,-145.716 44.9795,-145.716"/>
<text text-anchor="middle" x="29.9795" y="-124.016" font-family="Times,serif" font-size="14.00">pw9</text>
</g>
<!-- pw9&#45;&gt;pw3 -->
<g id="edge32" class="edge"><title>pw9&#45;&gt;pw3</title>
<path fill="none" stroke="#000000" d="M57.1015,-134.467C135.821,-154.061 364.432,-210.965 454.236,-233.318"/>
<polygon fill="#000000" stroke="#000000" points="453.435,-236.725 463.985,-235.744 455.126,-229.932 453.435,-236.725"/>
<text text-anchor="middle" x="252.169" y="-187.693" font-family="Times,serif" font-size="14.00">6</text>
</g>
<!-- pw9&#45;&gt;pw4 -->
<g id="edge36" class="edge"><title>pw9&#45;&gt;pw4</title>
<path fill="none" stroke="#000000" d="M57.1296,-138.684C134.461,-169.923 355.943,-259.395 443.732,-294.858"/>
<polygon fill="#000000" stroke="#000000" points="442.443,-298.113 453.026,-298.613 445.065,-291.622 442.443,-298.113"/>
<text text-anchor="middle" x="246.931" y="-220.571" font-family="Times,serif" font-size="14.00">6</text>
</g>
<!-- pw9&#45;&gt;pw8 -->
<g id="edge58" class="edge"><title>pw9&#45;&gt;pw8</title>
<path fill="none" stroke="#000000" d="M57.1873,-126.353C59.6055,-126.231 62.0799,-126.107 64.5632,-125.983"/>
<polygon fill="#000000" stroke="#000000" points="64.8885,-129.471 74.7007,-125.475 64.538,-122.48 64.8885,-129.471"/>
<text text-anchor="middle" x="64.3753" y="-129.968" font-family="Times,serif" font-size="14.00">1</text>
</g>
<!-- pw9&#45;&gt;pw1 -->
<g id="edge34" class="edge"><title>pw9&#45;&gt;pw1</title>
<path fill="none" stroke="#000000" d="M57.231,-115.766C102.444,-95.9388 192.993,-56.2309 243.677,-34.0051"/>
<polygon fill="#000000" stroke="#000000" points="245.204,-37.1571 252.956,-29.9357 242.393,-30.7465 245.204,-37.1571"/>
<text text-anchor="middle" x="146.954" y="-78.6855" font-family="Times,serif" font-size="14.00">3</text>
</g>
<!-- pw6 -->
<g id="node17" class="node"><title>pw6</title>
<path fill="#ffffcc" stroke="black" d="M42,-278.804C42,-278.804 12,-278.804 12,-278.804 6,-278.804 0,-272.804 0,-266.804 0,-266.804 0,-254.804 0,-254.804 0,-248.804 6,-242.804 12,-242.804 12,-242.804 42,-242.804 42,-242.804 48,-242.804 54,-248.804 54,-254.804 54,-254.804 54,-266.804 54,-266.804 54,-272.804 48,-278.804 42,-278.804"/>
<text text-anchor="middle" x="27" y="-257.104" font-family="Times,serif" font-size="14.00">pw6</text>
</g>
<!-- pw9&#45;&gt;pw6 -->
<g id="edge35" class="edge"><title>pw9&#45;&gt;pw6</title>
<path fill="none" stroke="#000000" d="M29.5715,-145.942C29.07,-168.342 28.2137,-206.59 27.6281,-232.748"/>
<polygon fill="#000000" stroke="#000000" points="24.1279,-232.722 27.4031,-242.798 31.1261,-232.879 24.1279,-232.722"/>
<text text-anchor="middle" x="25.0998" y="-193.145" font-family="Times,serif" font-size="14.00">2</text>
</g>
<!-- pw5&#45;&gt;pw0 -->
<g id="edge48" class="edge"><title>pw5&#45;&gt;pw0</title>
<path fill="none" stroke="#000000" d="M105.452,-229.991C119.98,-201.254 148.321,-145.193 165.353,-111.504"/>
<polygon fill="#000000" stroke="#000000" points="168.654,-112.733 170.042,-102.229 162.407,-109.575 168.654,-112.733"/>
<text text-anchor="middle" x="131.902" y="-174.547" font-family="Times,serif" font-size="14.00">2</text>
</g>
<!-- pw1&#45;&gt;pw0 -->
<g id="edge68" class="edge"><title>pw1&#45;&gt;pw0</title>
<path fill="none" stroke="#000000" d="M253.138,-35.6713C241.377,-43.3586 227.435,-52.4716 214.85,-60.6975"/>
<polygon fill="#000000" stroke="#000000" points="212.853,-57.8213 206.398,-66.2222 216.683,-63.6807 212.853,-57.8213"/>
<text text-anchor="middle" x="230.494" y="-51.9844" font-family="Times,serif" font-size="14.00">2</text>
</g>
<!-- pw10 -->
<g id="node10" class="node"><title>pw10</title>
<path fill="#ffffcc" stroke="black" d="M299.747,-83.3077C299.747,-83.3077 269.747,-83.3077 269.747,-83.3077 263.747,-83.3077 257.747,-77.3077 257.747,-71.3077 257.747,-71.3077 257.747,-59.3077 257.747,-59.3077 257.747,-53.3077 263.747,-47.3077 269.747,-47.3077 269.747,-47.3077 299.747,-47.3077 299.747,-47.3077 305.747,-47.3077 311.747,-53.3077 311.747,-59.3077 311.747,-59.3077 311.747,-71.3077 311.747,-71.3077 311.747,-77.3077 305.747,-83.3077 299.747,-83.3077"/>
<text text-anchor="middle" x="284.747" y="-61.6077" font-family="Times,serif" font-size="14.00">pw10</text>
</g>
<!-- pw10&#45;&gt;pw2 -->
<g id="edge6" class="edge"><title>pw10&#45;&gt;pw2</title>
<path fill="none" stroke="#000000" d="M257.454,-55.8258C239.795,-49.6912 216.587,-41.6286 197.291,-34.925"/>
<polygon fill="#000000" stroke="#000000" points="198.202,-31.5362 187.607,-31.5607 195.904,-38.1486 198.202,-31.5362"/>
<text text-anchor="middle" x="223.872" y="-34.1754" font-family="Times,serif" font-size="14.00">3</text>
</g>
<!-- pw10&#45;&gt;pw3 -->
<g id="edge7" class="edge"><title>pw10&#45;&gt;pw3</title>
<path fill="none" stroke="#000000" d="M306.051,-83.6017C343.29,-115.581 420.248,-181.668 462.225,-217.714"/>
<polygon fill="#000000" stroke="#000000" points="460.018,-220.433 469.885,-224.292 464.579,-215.122 460.018,-220.433"/>
<text text-anchor="middle" x="380.638" y="-139.458" font-family="Times,serif" font-size="14.00">6</text>
</g>
<!-- pw10&#45;&gt;pw7 -->
<g id="edge39" class="edge"><title>pw10&#45;&gt;pw7</title>
<path fill="none" stroke="#000000" d="M270.828,-83.5887C249.067,-112.169 206.877,-167.579 181.691,-200.657"/>
<polygon fill="#000000" stroke="#000000" points="178.647,-198.878 175.374,-208.955 184.216,-203.119 178.647,-198.878"/>
<text text-anchor="middle" x="222.76" y="-145.923" font-family="Times,serif" font-size="14.00">3</text>
</g>
<!-- pw10&#45;&gt;pw4 -->
<g id="edge5" class="edge"><title>pw10&#45;&gt;pw4</title>
<path fill="none" stroke="#000000" d="M299.439,-83.669C333.766,-126.57 419.333,-233.51 459.179,-283.309"/>
<polygon fill="#000000" stroke="#000000" points="456.636,-285.733 465.616,-291.354 462.102,-281.359 456.636,-285.733"/>
<text text-anchor="middle" x="375.809" y="-187.289" font-family="Times,serif" font-size="14.00">6</text>
</g>
<!-- pw10&#45;&gt;pw8 -->
<g id="edge8" class="edge"><title>pw10&#45;&gt;pw8</title>
<path fill="none" stroke="#000000" d="M257.38,-74.1109C225.924,-84.2294 174.133,-100.889 139.063,-112.17"/>
<polygon fill="#000000" stroke="#000000" points="137.65,-108.948 129.202,-115.342 139.794,-115.612 137.65,-108.948"/>
<text text-anchor="middle" x="194.722" y="-96.9404" font-family="Times,serif" font-size="14.00">2</text>
</g>
<!-- pw11 -->
<g id="node11" class="node"><title>pw11</title>
<path fill="#ffffcc" stroke="black" d="M214.732,-488.689C214.732,-488.689 184.732,-488.689 184.732,-488.689 178.732,-488.689 172.732,-482.689 172.732,-476.689 172.732,-476.689 172.732,-464.689 172.732,-464.689 172.732,-458.689 178.732,-452.689 184.732,-452.689 184.732,-452.689 214.732,-452.689 214.732,-452.689 220.732,-452.689 226.732,-458.689 226.732,-464.689 226.732,-464.689 226.732,-476.689 226.732,-476.689 226.732,-482.689 220.732,-488.689 214.732,-488.689"/>
<text text-anchor="middle" x="199.732" y="-466.989" font-family="Times,serif" font-size="14.00">pw11</text>
</g>
<!-- pw11&#45;&gt;pw3 -->
<g id="edge53" class="edge"><title>pw11&#45;&gt;pw3</title>
<path fill="none" stroke="#000000" d="M223.081,-452.4C275.204,-411.573 401.064,-312.989 459.847,-266.945"/>
<polygon fill="#000000" stroke="#000000" points="462.302,-269.468 468.016,-260.546 457.986,-263.957 462.302,-269.468"/>
<text text-anchor="middle" x="337.964" y="-363.473" font-family="Times,serif" font-size="14.00">4</text>
</g>
<!-- pw11&#45;&gt;pw0 -->
<g id="edge52" class="edge"><title>pw11&#45;&gt;pw0</title>
<path fill="none" stroke="#000000" d="M198.773,-452.554C195.5,-390.637 184.75,-187.282 180.779,-112.159"/>
<polygon fill="#000000" stroke="#000000" points="184.267,-111.839 180.244,-102.038 177.277,-112.209 184.267,-111.839"/>
<text text-anchor="middle" x="186.276" y="-286.157" font-family="Times,serif" font-size="14.00">5</text>
</g>
<!-- pw11&#45;&gt;pw4 -->
<g id="edge49" class="edge"><title>pw11&#45;&gt;pw4</title>
<path fill="none" stroke="#000000" d="M226.88,-455.096C277.67,-425.925 387.058,-363.098 444.039,-330.371"/>
<polygon fill="#000000" stroke="#000000" points="446.12,-333.212 453.048,-325.197 442.634,-327.142 446.12,-333.212"/>
<text text-anchor="middle" x="331.959" y="-396.534" font-family="Times,serif" font-size="14.00">4</text>
</g>
<!-- pw11&#45;&gt;pw9 -->
<g id="edge55" class="edge"><title>pw11&#45;&gt;pw9</title>
<path fill="none" stroke="#000000" d="M190.605,-452.249C162.447,-395.357 76.8191,-222.352 43.4728,-154.978"/>
<polygon fill="#000000" stroke="#000000" points="46.518,-153.241 38.9452,-145.831 40.2443,-156.346 46.518,-153.241"/>
<text text-anchor="middle" x="113.539" y="-307.414" font-family="Times,serif" font-size="14.00">4</text>
</g>
<!-- pw11&#45;&gt;pw1 -->
<g id="edge51" class="edge"><title>pw11&#45;&gt;pw1</title>
<path fill="none" stroke="#000000" d="M202.935,-452.664C215.321,-382.961 260.137,-130.761 275.198,-46.0055"/>
<polygon fill="#000000" stroke="#000000" points="278.658,-46.5349 276.962,-36.0768 271.766,-45.3102 278.658,-46.5349"/>
<text text-anchor="middle" x="235.566" y="-238.135" font-family="Times,serif" font-size="14.00">4</text>
</g>
<!-- pw11&#45;&gt;pw6 -->
<g id="edge50" class="edge"><title>pw11&#45;&gt;pw6</title>
<path fill="none" stroke="#000000" d="M184.705,-452.43C153.939,-415.046 83.6929,-329.691 48.265,-286.643"/>
<polygon fill="#000000" stroke="#000000" points="50.926,-284.368 41.8689,-278.871 45.521,-288.816 50.926,-284.368"/>
<text text-anchor="middle" x="112.985" y="-358.336" font-family="Times,serif" font-size="14.00">3</text>
</g>
<!-- pw12 -->
<g id="node12" class="node"><title>pw12</title>
<path fill="#ffffcc" stroke="black" d="M142.652,-403.391C142.652,-403.391 112.652,-403.391 112.652,-403.391 106.652,-403.391 100.652,-397.391 100.652,-391.391 100.652,-391.391 100.652,-379.391 100.652,-379.391 100.652,-373.391 106.652,-367.391 112.652,-367.391 112.652,-367.391 142.652,-367.391 142.652,-367.391 148.652,-367.391 154.652,-373.391 154.652,-379.391 154.652,-379.391 154.652,-391.391 154.652,-391.391 154.652,-397.391 148.652,-403.391 142.652,-403.391"/>
<text text-anchor="middle" x="127.652" y="-381.691" font-family="Times,serif" font-size="14.00">pw12</text>
</g>
<!-- pw12&#45;&gt;pw3 -->
<g id="edge43" class="edge"><title>pw12&#45;&gt;pw3</title>
<path fill="none" stroke="#000000" d="M154.671,-374.767C218.929,-349.499 380.95,-285.789 454.155,-257.003"/>
<polygon fill="#000000" stroke="#000000" points="455.85,-260.098 463.876,-253.181 453.289,-253.583 455.85,-260.098"/>
<text text-anchor="middle" x="300.913" y="-319.685" font-family="Times,serif" font-size="14.00">4</text>
</g>
<!-- pw12&#45;&gt;pw0 -->
<g id="edge44" class="edge"><title>pw12&#45;&gt;pw0</title>
<path fill="none" stroke="#000000" d="M130.804,-366.988C139.521,-316.099 163.993,-173.228 174.451,-112.179"/>
<polygon fill="#000000" stroke="#000000" points="177.937,-112.552 176.176,-102.105 171.038,-111.37 177.937,-112.552"/>
<text text-anchor="middle" x="149.128" y="-243.383" font-family="Times,serif" font-size="14.00">5</text>
</g>
<!-- pw12&#45;&gt;pw4 -->
<g id="edge42" class="edge"><title>pw12&#45;&gt;pw4</title>
<path fill="none" stroke="#000000" d="M154.732,-379.57C217.281,-366.122 371.89,-332.883 443.152,-317.563"/>
<polygon fill="#000000" stroke="#000000" points="443.999,-320.961 453.04,-315.437 442.528,-314.117 443.999,-320.961"/>
<text text-anchor="middle" x="295.442" y="-337.366" font-family="Times,serif" font-size="14.00">4</text>
</g>
<!-- pw12&#45;&gt;pw9 -->
<g id="edge25" class="edge"><title>pw12&#45;&gt;pw9</title>
<path fill="none" stroke="#000000" d="M120.784,-367.272C103.936,-322.825 60.4774,-208.174 40.4143,-155.245"/>
<polygon fill="#000000" stroke="#000000" points="43.6573,-153.926 36.8401,-145.815 37.1118,-156.407 43.6573,-153.926"/>
<text text-anchor="middle" x="77.0992" y="-265.058" font-family="Times,serif" font-size="14.00">3</text>
</g>
<!-- pw12&#45;&gt;pw1 -->
<g id="edge45" class="edge"><title>pw12&#45;&gt;pw1</title>
<path fill="none" stroke="#000000" d="M135.216,-367.172C160.016,-307.433 238.981,-117.226 268.708,-45.6199"/>
<polygon fill="#000000" stroke="#000000" points="271.963,-46.9067 272.565,-36.329 265.498,-44.2227 271.963,-46.9067"/>
<text text-anchor="middle" x="198.462" y="-210.196" font-family="Times,serif" font-size="14.00">4</text>
</g>
<!-- pw12&#45;&gt;pw11 -->
<g id="edge23" class="edge"><title>pw12&#45;&gt;pw11</title>
<path fill="none" stroke="#000000" d="M142.938,-403.481C153.068,-415.468 166.516,-431.382 177.783,-444.715"/>
<polygon fill="#000000" stroke="#000000" points="175.34,-447.247 184.468,-452.626 180.687,-442.728 175.34,-447.247"/>
<text text-anchor="middle" x="156.861" y="-427.898" font-family="Times,serif" font-size="14.00">2</text>
</g>
<!-- pw12&#45;&gt;pw6 -->
<g id="edge41" class="edge"><title>pw12&#45;&gt;pw6</title>
<path fill="none" stroke="#000000" d="M113.017,-367.275C95.9462,-346.146 67.5888,-311.045 48.1314,-286.96"/>
<polygon fill="#000000" stroke="#000000" points="50.6602,-284.521 41.6534,-278.942 45.2151,-288.92 50.6602,-284.521"/>
<text text-anchor="middle" x="77.074" y="-330.918" font-family="Times,serif" font-size="14.00">4</text>
</g>
<!-- pw13 -->
<g id="node13" class="node"><title>pw13</title>
<path fill="#ffffcc" stroke="black" d="M253.633,-388.99C253.633,-388.99 223.633,-388.99 223.633,-388.99 217.633,-388.99 211.633,-382.99 211.633,-376.99 211.633,-376.99 211.633,-364.99 211.633,-364.99 211.633,-358.99 217.633,-352.99 223.633,-352.99 223.633,-352.99 253.633,-352.99 253.633,-352.99 259.633,-352.99 265.633,-358.99 265.633,-364.99 265.633,-364.99 265.633,-376.99 265.633,-376.99 265.633,-382.99 259.633,-388.99 253.633,-388.99"/>
<text text-anchor="middle" x="238.633" y="-367.29" font-family="Times,serif" font-size="14.00">pw13</text>
</g>
<!-- pw13&#45;&gt;pw3 -->
<g id="edge63" class="edge"><title>pw13&#45;&gt;pw3</title>
<path fill="none" stroke="#000000" d="M265.649,-357.238C311.27,-334.015 403.6,-287.015 454.807,-260.947"/>
<polygon fill="#000000" stroke="#000000" points="456.546,-263.99 463.87,-256.334 453.37,-257.752 456.546,-263.99"/>
<text text-anchor="middle" x="356.728" y="-312.893" font-family="Times,serif" font-size="14.00">4</text>
</g>
<!-- pw13&#45;&gt;pw4 -->
<g id="edge22" class="edge"><title>pw13&#45;&gt;pw4</title>
<path fill="none" stroke="#000000" d="M265.876,-364.067C309.307,-353.029 394.313,-331.426 443.211,-318.999"/>
<polygon fill="#000000" stroke="#000000" points="444.239,-322.349 453.069,-316.493 442.515,-315.564 444.239,-322.349"/>
<text text-anchor="middle" x="351.043" y="-345.333" font-family="Times,serif" font-size="14.00">4</text>
</g>
<!-- pw13&#45;&gt;pw5 -->
<g id="edge61" class="edge"><title>pw13&#45;&gt;pw5</title>
<path fill="none" stroke="#000000" d="M217.624,-352.872C193.122,-331.741 152.485,-296.696 125.053,-273.038"/>
<polygon fill="#000000" stroke="#000000" points="127.202,-270.27 117.343,-266.389 122.631,-275.571 127.202,-270.27"/>
<text text-anchor="middle" x="167.838" y="-316.755" font-family="Times,serif" font-size="14.00">2</text>
</g>
<!-- pw13&#45;&gt;pw1 -->
<g id="edge65" class="edge"><title>pw13&#45;&gt;pw1</title>
<path fill="none" stroke="#000000" d="M240.808,-352.509C247.622,-294.608 268.59,-116.437 276.815,-46.55"/>
<polygon fill="#000000" stroke="#000000" points="280.328,-46.6389 278.021,-36.2983 273.376,-45.8207 280.328,-46.6389"/>
<text text-anchor="middle" x="255.311" y="-203.329" font-family="Times,serif" font-size="14.00">5</text>
</g>
<!-- pw13&#45;&gt;pw11 -->
<g id="edge38" class="edge"><title>pw13&#45;&gt;pw11</title>
<path fill="none" stroke="#000000" d="M231.498,-389.276C225.631,-404.314 217.223,-425.861 210.531,-443.011"/>
<polygon fill="#000000" stroke="#000000" points="207.196,-441.93 206.822,-452.519 213.717,-444.475 207.196,-441.93"/>
<text text-anchor="middle" x="217.515" y="-419.944" font-family="Times,serif" font-size="14.00">2</text>
</g>
<!-- pw13&#45;&gt;pw12 -->
<g id="edge37" class="edge"><title>pw13&#45;&gt;pw12</title>
<path fill="none" stroke="#000000" d="M211.484,-374.513C197.511,-376.326 180.26,-378.565 165.047,-380.539"/>
<polygon fill="#000000" stroke="#000000" points="164.372,-377.097 154.906,-381.855 165.273,-384.039 164.372,-377.097"/>
<text text-anchor="middle" x="184.766" y="-381.326" font-family="Times,serif" font-size="14.00">3</text>
</g>
<!-- pw14 -->
<g id="node14" class="node"><title>pw14</title>
<path fill="#ffffcc" stroke="black" d="M320.876,-377.209C320.876,-377.209 290.876,-377.209 290.876,-377.209 284.876,-377.209 278.876,-371.209 278.876,-365.209 278.876,-365.209 278.876,-353.209 278.876,-353.209 278.876,-347.209 284.876,-341.209 290.876,-341.209 290.876,-341.209 320.876,-341.209 320.876,-341.209 326.876,-341.209 332.876,-347.209 332.876,-353.209 332.876,-353.209 332.876,-365.209 332.876,-365.209 332.876,-371.209 326.876,-377.209 320.876,-377.209"/>
<text text-anchor="middle" x="305.876" y="-355.509" font-family="Times,serif" font-size="14.00">pw14</text>
</g>
<!-- pw14&#45;&gt;pw3 -->
<g id="edge28" class="edge"><title>pw14&#45;&gt;pw3</title>
<path fill="none" stroke="#000000" d="M333.202,-341.986C365.574,-321.584 419.6,-287.533 455.283,-265.043"/>
<polygon fill="#000000" stroke="#000000" points="457.342,-267.883 463.936,-259.59 453.609,-261.961 457.342,-267.883"/>
<text text-anchor="middle" x="390.743" y="-307.315" font-family="Times,serif" font-size="14.00">4</text>
</g>
<!-- pw14&#45;&gt;pw7 -->
<g id="edge31" class="edge"><title>pw14&#45;&gt;pw7</title>
<path fill="none" stroke="#000000" d="M286.079,-341.16C260.916,-318.22 217.342,-278.495 188.924,-252.587"/>
<polygon fill="#000000" stroke="#000000" points="191.086,-249.822 181.338,-245.671 186.37,-254.995 191.086,-249.822"/>
<text text-anchor="middle" x="234.001" y="-300.674" font-family="Times,serif" font-size="14.00">2</text>
</g>
<!-- pw14&#45;&gt;pw4 -->
<g id="edge29" class="edge"><title>pw14&#45;&gt;pw4</title>
<path fill="none" stroke="#000000" d="M333.116,-351.457C362.797,-343.01 410.446,-329.45 443.433,-320.062"/>
<polygon fill="#000000" stroke="#000000" points="444.503,-323.397 453.163,-317.293 442.587,-316.664 444.503,-323.397"/>
<text text-anchor="middle" x="384.774" y="-339.56" font-family="Times,serif" font-size="14.00">4</text>
</g>
<!-- pw14&#45;&gt;pw10 -->
<g id="edge18" class="edge"><title>pw14&#45;&gt;pw10</title>
<path fill="none" stroke="#000000" d="M304.554,-340.824C300.974,-291.018 291.068,-153.228 286.775,-93.5131"/>
<polygon fill="#000000" stroke="#000000" points="290.25,-93.0336 286.041,-83.3104 283.268,-93.5356 290.25,-93.0336"/>
<text text-anchor="middle" x="292.165" y="-220.969" font-family="Times,serif" font-size="14.00">4</text>
</g>
<!-- pw14&#45;&gt;pw13 -->
<g id="edge17" class="edge"><title>pw14&#45;&gt;pw13</title>
<path fill="none" stroke="#000000" d="M278.526,-364.001C277.603,-364.163 276.674,-364.325 275.741,-364.489"/>
<polygon fill="#000000" stroke="#000000" points="274.987,-361.067 265.741,-366.241 276.195,-367.962 274.987,-361.067"/>
<text text-anchor="middle" x="273.634" y="-368.045" font-family="Times,serif" font-size="14.00">1</text>
</g>
<!-- pw15 -->
<g id="node15" class="node"><title>pw15</title>
<path fill="#ffffcc" stroke="black" d="M262.758,-271.236C262.758,-271.236 232.758,-271.236 232.758,-271.236 226.758,-271.236 220.758,-265.236 220.758,-259.236 220.758,-259.236 220.758,-247.236 220.758,-247.236 220.758,-241.236 226.758,-235.236 232.758,-235.236 232.758,-235.236 262.758,-235.236 262.758,-235.236 268.758,-235.236 274.758,-241.236 274.758,-247.236 274.758,-247.236 274.758,-259.236 274.758,-259.236 274.758,-265.236 268.758,-271.236 262.758,-271.236"/>
<text text-anchor="middle" x="247.758" y="-249.536" font-family="Times,serif" font-size="14.00">pw15</text>
</g>
<!-- pw15&#45;&gt;pw3 -->
<g id="edge27" class="edge"><title>pw15&#45;&gt;pw3</title>
<path fill="none" stroke="#000000" d="M275.196,-252.024C318.848,-250.095 404.198,-246.325 453.496,-244.147"/>
<polygon fill="#000000" stroke="#000000" points="453.899,-247.633 463.734,-243.695 453.59,-240.639 453.899,-247.633"/>
<text text-anchor="middle" x="360.846" y="-251.885" font-family="Times,serif" font-size="14.00">4</text>
</g>
<!-- pw15&#45;&gt;pw4 -->
<g id="edge30" class="edge"><title>pw15&#45;&gt;pw4</title>
<path fill="none" stroke="#000000" d="M274.878,-259.811C316.496,-269.902 396.208,-289.228 443.133,-300.605"/>
<polygon fill="#000000" stroke="#000000" points="442.362,-304.02 452.905,-302.975 444.011,-297.217 442.362,-304.02"/>
<text text-anchor="middle" x="355.505" y="-284.008" font-family="Times,serif" font-size="14.00">4</text>
</g>
<!-- pw15&#45;&gt;pw8 -->
<g id="edge33" class="edge"><title>pw15&#45;&gt;pw8</title>
<path fill="none" stroke="#000000" d="M227.176,-235.009C201.774,-212.514 158.462,-174.158 130.024,-148.973"/>
<polygon fill="#000000" stroke="#000000" points="132.231,-146.253 122.424,-142.243 127.59,-151.493 132.231,-146.253"/>
<text text-anchor="middle" x="175.1" y="-195.791" font-family="Times,serif" font-size="14.00">2</text>
</g>
<!-- pw15&#45;&gt;pw1 -->
<g id="edge26" class="edge"><title>pw15&#45;&gt;pw1</title>
<path fill="none" stroke="#000000" d="M250.247,-235.168C255.857,-194.46 269.52,-95.3113 276.27,-46.3341"/>
<polygon fill="#000000" stroke="#000000" points="279.778,-46.5137 277.676,-36.1295 272.844,-45.5581 279.778,-46.5137"/>
<text text-anchor="middle" x="259.759" y="-144.551" font-family="Times,serif" font-size="14.00">5</text>
</g>
<!-- pw15&#45;&gt;pw10 -->
<g id="edge2" class="edge"><title>pw15&#45;&gt;pw10</title>
<path fill="none" stroke="#000000" d="M251.304,-235.217C257.764,-202.397 271.491,-132.657 279.199,-93.4966"/>
<polygon fill="#000000" stroke="#000000" points="282.66,-94.0364 281.157,-83.5486 275.791,-92.6844 282.66,-94.0364"/>
<text text-anchor="middle" x="261.752" y="-168.157" font-family="Times,serif" font-size="14.00">3</text>
</g>
<!-- pw15&#45;&gt;pw11 -->
<g id="edge1" class="edge"><title>pw15&#45;&gt;pw11</title>
<path fill="none" stroke="#000000" d="M243.746,-271.402C235.376,-309.296 216.004,-397.01 205.985,-442.375"/>
<polygon fill="#000000" stroke="#000000" points="202.505,-441.902 203.766,-452.422 209.341,-443.412 202.505,-441.902"/>
<text text-anchor="middle" x="221.365" y="-345.688" font-family="Times,serif" font-size="14.00">3</text>
</g>
<!-- pw15&#45;&gt;pw12 -->
<g id="edge4" class="edge"><title>pw15&#45;&gt;pw12</title>
<path fill="none" stroke="#000000" d="M231.309,-271.334C210.582,-294.141 174.818,-333.493 151.198,-359.483"/>
<polygon fill="#000000" stroke="#000000" points="148.423,-357.333 144.287,-367.087 153.603,-362.041 148.423,-357.333"/>
<text text-anchor="middle" x="187.754" y="-319.209" font-family="Times,serif" font-size="14.00">2</text>
</g>
<!-- pw15&#45;&gt;pw13 -->
<g id="edge3" class="edge"><title>pw15&#45;&gt;pw13</title>
<path fill="none" stroke="#000000" d="M246.352,-271.377C244.883,-290.338 242.557,-320.355 240.842,-342.486"/>
<polygon fill="#000000" stroke="#000000" points="237.339,-342.394 240.056,-352.635 244.318,-342.935 237.339,-342.394"/>
<text text-anchor="middle" x="247.097" y="-310.732" font-family="Times,serif" font-size="14.00">2</text>
</g>
<!-- pw16 -->
<g id="node16" class="node"><title>pw16</title>
<path fill="#ffffcc" stroke="black" d="M385.453,-175.863C385.453,-175.863 355.453,-175.863 355.453,-175.863 349.453,-175.863 343.453,-169.863 343.453,-163.863 343.453,-163.863 343.453,-151.863 343.453,-151.863 343.453,-145.863 349.453,-139.863 355.453,-139.863 355.453,-139.863 385.453,-139.863 385.453,-139.863 391.453,-139.863 397.453,-145.863 397.453,-151.863 397.453,-151.863 397.453,-163.863 397.453,-163.863 397.453,-169.863 391.453,-175.863 385.453,-175.863"/>
<text text-anchor="middle" x="370.453" y="-154.163" font-family="Times,serif" font-size="14.00">pw16</text>
</g>
<!-- pw16&#45;&gt;pw2 -->
<g id="edge59" class="edge"><title>pw16&#45;&gt;pw2</title>
<path fill="none" stroke="#000000" d="M343.419,-140.392C305.864,-116.122 237.831,-72.1557 196.12,-45.2001"/>
<polygon fill="#000000" stroke="#000000" points="197.938,-42.2076 187.64,-39.7194 194.139,-48.0868 197.938,-42.2076"/>
<text text-anchor="middle" x="266.27" y="-96.5962" font-family="Times,serif" font-size="14.00">4</text>
</g>
<!-- pw16&#45;&gt;pw3 -->
<g id="edge60" class="edge"><title>pw16&#45;&gt;pw3</title>
<path fill="none" stroke="#000000" d="M396.329,-176.017C414.057,-188.454 437.755,-205.08 457.014,-218.592"/>
<polygon fill="#000000" stroke="#000000" points="455.043,-221.485 465.239,-224.363 459.063,-215.754 455.043,-221.485"/>
<text text-anchor="middle" x="423.172" y="-201.105" font-family="Times,serif" font-size="14.00">5</text>
</g>
<!-- pw16&#45;&gt;pw7 -->
<g id="edge64" class="edge"><title>pw16&#45;&gt;pw7</title>
<path fill="none" stroke="#000000" d="M343.112,-166.956C305.982,-179.305 239.5,-201.415 198.046,-215.202"/>
<polygon fill="#000000" stroke="#000000" points="196.717,-211.955 188.332,-218.432 198.926,-218.598 196.717,-211.955"/>
<text text-anchor="middle" x="267.079" y="-194.879" font-family="Times,serif" font-size="14.00">4</text>
</g>
<!-- pw16&#45;&gt;pw4 -->
<g id="edge40" class="edge"><title>pw16&#45;&gt;pw4</title>
<path fill="none" stroke="#000000" d="M383.475,-175.864C402.68,-202.414 438.722,-252.239 460.978,-283.007"/>
<polygon fill="#000000" stroke="#000000" points="458.168,-285.093 466.865,-291.144 463.839,-280.99 458.168,-285.093"/>
<text text-anchor="middle" x="418.727" y="-233.236" font-family="Times,serif" font-size="14.00">5</text>
</g>
<!-- pw16&#45;&gt;pw8 -->
<g id="edge66" class="edge"><title>pw16&#45;&gt;pw8</title>
<path fill="none" stroke="#000000" d="M343.23,-154.441C294.882,-148.363 193.985,-135.679 139.228,-128.796"/>
<polygon fill="#000000" stroke="#000000" points="139.601,-125.315 129.243,-127.54 138.728,-132.26 139.601,-125.315"/>
<text text-anchor="middle" x="237.729" y="-145.418" font-family="Times,serif" font-size="14.00">3</text>
</g>
<!-- pw16&#45;&gt;pw1 -->
<g id="edge62" class="edge"><title>pw16&#45;&gt;pw1</title>
<path fill="none" stroke="#000000" d="M358.651,-139.578C343.039,-115.391 315.405,-72.5808 297.444,-44.7545"/>
<polygon fill="#000000" stroke="#000000" points="300.343,-42.7928 291.98,-36.2891 294.462,-46.589 300.343,-42.7928"/>
<text text-anchor="middle" x="324.547" y="-95.9664" font-family="Times,serif" font-size="14.00">6</text>
</g>
<!-- pw16&#45;&gt;pw10 -->
<g id="edge54" class="edge"><title>pw16&#45;&gt;pw10</title>
<path fill="none" stroke="#000000" d="M353.52,-139.577C340.725,-125.759 322.992,-106.609 308.737,-91.215"/>
<polygon fill="#000000" stroke="#000000" points="311.007,-88.515 301.645,-83.5557 305.871,-93.2711 311.007,-88.515"/>
<text text-anchor="middle" x="327.629" y="-119.196" font-family="Times,serif" font-size="14.00">2</text>
</g>
<!-- pw16&#45;&gt;pw14 -->
<g id="edge19" class="edge"><title>pw16&#45;&gt;pw14</title>
<path fill="none" stroke="#000000" d="M364.608,-176.086C353.25,-211.5 328.138,-289.798 314.726,-331.616"/>
<polygon fill="#000000" stroke="#000000" points="311.382,-330.581 311.661,-341.172 318.048,-332.719 311.382,-330.581"/>
<text text-anchor="middle" x="336.167" y="-257.651" font-family="Times,serif" font-size="14.00">3</text>
</g>
<!-- pw16&#45;&gt;pw15 -->
<g id="edge56" class="edge"><title>pw16&#45;&gt;pw15</title>
<path fill="none" stroke="#000000" d="M347.086,-176.026C327.812,-191.008 300.293,-212.399 279.106,-228.868"/>
<polygon fill="#000000" stroke="#000000" points="276.785,-226.24 271.037,-235.14 281.081,-231.766 276.785,-226.24"/>
<text text-anchor="middle" x="309.596" y="-206.247" font-family="Times,serif" font-size="14.00">2</text>
</g>
<!-- pw6&#45;&gt;pw3 -->
<g id="edge24" class="edge"><title>pw6&#45;&gt;pw3</title>
<path fill="none" stroke="#000000" d="M54.2973,-259.726C133.445,-256.602 363.147,-247.536 453.723,-243.961"/>
<polygon fill="#000000" stroke="#000000" points="453.955,-247.455 463.809,-243.563 453.679,-240.46 453.955,-247.455"/>
<text text-anchor="middle" x="250.51" y="-240.644" font-family="Times,serif" font-size="14.00">6</text>
</g>
<!-- pw6&#45;&gt;pw4 -->
<g id="edge20" class="edge"><title>pw6&#45;&gt;pw4</title>
<path fill="none" stroke="#000000" d="M54.3298,-263.746C132.028,-272.111 354.292,-296.039 442.996,-305.589"/>
<polygon fill="#000000" stroke="#000000" points="442.816,-309.089 453.133,-306.68 443.565,-302.13 442.816,-309.089"/>
<text text-anchor="middle" x="245.163" y="-288.467" font-family="Times,serif" font-size="14.00">6</text>
</g>
<!-- pw6&#45;&gt;pw5 -->
<g id="edge21" class="edge"><title>pw6&#45;&gt;pw5</title>
<path fill="none" stroke="#000000" d="M54.3686,-255.821C55.8808,-255.546 57.4123,-255.267 58.9509,-254.987"/>
<polygon fill="#000000" stroke="#000000" points="59.8667,-258.378 69.078,-253.143 58.6128,-251.491 59.8667,-258.378"/>
<text text-anchor="middle" x="60.1597" y="-259.204" font-family="Times,serif" font-size="14.00">1</text>
</g>
<!-- pw6&#45;&gt;pw1 -->
<g id="edge69" class="edge"><title>pw6&#45;&gt;pw1</title>
<path fill="none" stroke="#000000" d="M46.0292,-242.554C90.7665,-199.649 202.698,-92.3026 253.884,-43.2131"/>
<polygon fill="#000000" stroke="#000000" points="256.475,-45.5781 261.27,-36.1303 251.63,-40.526 256.475,-45.5781"/>
<text text-anchor="middle" x="146.457" y="-146.684" font-family="Times,serif" font-size="14.00">3</text>
</g>
<!-- Legend -->
<g id="node18" class="node"><title>Legend</title>
<path fill="white" stroke="black" d="M541,-141C541,-141 492,-141 492,-141 486,-141 480,-135 480,-129 480,-129 480,-52 480,-52 480,-46 486,-40 492,-40 492,-40 541,-40 541,-40 547,-40 553,-46 553,-52 553,-52 553,-129 553,-129 553,-135 547,-141 541,-141"/>
<polygon fill="none" stroke="black" points="480.5,-114.5 480.5,-140.5 553.5,-140.5 553.5,-114.5 480.5,-114.5"/>
<text text-anchor="start" x="492.5" y="-123.8" font-family="Arial Black" font-size="14.00"> Nodes</text>
<polygon fill="#ffffcc" stroke="none" points="480.5,-89.5 480.5,-114.5 529.5,-114.5 529.5,-89.5 480.5,-89.5"/>
<polygon fill="none" stroke="black" points="480.5,-89.5 480.5,-114.5 529.5,-114.5 529.5,-89.5 480.5,-89.5"/>
<text text-anchor="start" x="486.5" y="-98.3" font-family="Times,serif" font-size="14.00">cluster</text>
<polygon fill="none" stroke="black" points="529.5,-89.5 529.5,-114.5 553.5,-114.5 553.5,-89.5 529.5,-89.5"/>
<text text-anchor="start" x="534.5" y="-98.3" font-family="Times,serif" font-size="14.00">17</text>
<polygon fill="none" stroke="black" points="480.5,-64.5 480.5,-89.5 553.5,-89.5 553.5,-64.5 480.5,-64.5"/>
<text text-anchor="start" x="491" y="-73.3" font-family="Arial Black" font-size="14.00"> Edges </text>
<polygon fill="none" stroke="black" points="480.5,-39.5 480.5,-64.5 529.5,-64.5 529.5,-39.5 480.5,-39.5"/>
<text text-anchor="start" x="486" y="-48.3" font-family="Times,serif" font-size="14.00" fill="#000000">default</text>
<polygon fill="none" stroke="black" points="529.5,-39.5 529.5,-64.5 553.5,-64.5 553.5,-39.5 529.5,-39.5"/>
<text text-anchor="start" x="534.5" y="-48.3" font-family="Times,serif" font-size="14.00">69</text>
</g>
</g>
</svg>
