<?xml version="1.0" encoding="UTF-8" standalone="no"?>
<!DOCTYPE svg PUBLIC "-//W3C//DTD SVG 1.1//EN"
 "http://www.w3.org/Graphics/SVG/1.1/DTD/svg11.dtd">
<!-- Generated by graphviz version 2.36.0 (20140111.2315)
 -->
<!-- Title: %3 Pages: 1 -->
<svg width="1384pt" height="266pt"
 viewBox="0.00 0.00 1384.00 266.00" xmlns="http://www.w3.org/2000/svg" xmlns:xlink="http://www.w3.org/1999/xlink">
<g id="graph0" class="graph" transform="scale(1 1) rotate(0) translate(4 262)">
<title>%3</title>
<polygon fill="white" stroke="none" points="-4,4 -4,-262 1380,-262 1380,4 -4,4"/>
<!-- 2015.Gall_Neoa_Clade -->
<g id="node1" class="node"><title>2015.Gall_Neoa_Clade</title>
<polygon fill="#ccffcc" stroke="black" points="354,-178 210,-178 210,-142 354,-142 354,-178"/>
<text text-anchor="middle" x="282" y="-156.3" font-family="Times,serif" font-size="14.00">2015.Gall_Neoa_Clade</text>
</g>
<!-- 2015.Galloanserae -->
<g id="node3" class="node"><title>2015.Galloanserae</title>
<polygon fill="#ccffcc" stroke="black" points="634,-202 516,-202 516,-166 634,-166 634,-202"/>
<text text-anchor="middle" x="575" y="-180.3" font-family="Times,serif" font-size="14.00">2015.Galloanserae</text>
</g>
<!-- 2015.Gall_Neoa_Clade&#45;&gt;2015.Galloanserae -->
<g id="edge2" class="edge"><title>2015.Gall_Neoa_Clade&#45;&gt;2015.Galloanserae</title>
<path fill="none" stroke="#000000" d="M364.274,-166.703C412.428,-170.674 472.324,-175.614 515.763,-179.197"/>
<polygon fill="#000000" stroke="#000000" points="364.44,-163.205 354.187,-165.871 363.865,-170.181 364.44,-163.205"/>
</g>
<!-- 2015.Neoaves -->
<g id="node5" class="node"><title>2015.Neoaves</title>
<polygon fill="#ccffcc" stroke="black" points="622,-157 528,-157 528,-121 622,-121 622,-157"/>
<text text-anchor="middle" x="575" y="-135.3" font-family="Times,serif" font-size="14.00">2015.Neoaves</text>
</g>
<!-- 2015.Gall_Neoa_Clade&#45;&gt;2015.Neoaves -->
<g id="edge3" class="edge"><title>2015.Gall_Neoa_Clade&#45;&gt;2015.Neoaves</title>
<path fill="none" stroke="#000000" d="M364.193,-154.141C416.906,-150.337 483.715,-145.515 527.602,-142.348"/>
<polygon fill="#000000" stroke="#000000" points="363.909,-150.652 354.187,-154.863 364.413,-157.634 363.909,-150.652"/>
</g>
<!-- 2014.Neognathae -->
<g id="node8" class="node"><title>2014.Neognathae</title>
<polygon fill="#ffffcc" stroke="black" points="809.583,-232.544 809.583,-247.456 763.55,-258 698.45,-258 652.417,-247.456 652.417,-232.544 698.45,-222 763.55,-222 809.583,-232.544"/>
<text text-anchor="middle" x="731" y="-236.3" font-family="Times,serif" font-size="14.00">2014.Neognathae</text>
</g>
<!-- 2015.Gall_Neoa_Clade&#45;&gt;2014.Neognathae -->
<g id="edge13" class="edge"><title>2015.Gall_Neoa_Clade&#45;&gt;2014.Neognathae</title>
<path fill="none" stroke="#aa00ff" stroke-width="3" stroke-dasharray="1,5" d="M341.159,-178.007C351.384,-180.881 361.965,-183.671 372,-186 463.956,-207.343 571.232,-222.229 644.204,-230.889"/>
<polygon fill="#aa00ff" stroke="#aa00ff" stroke-width="3" points="643.928,-234.38 654.268,-232.069 644.744,-227.428 643.928,-234.38"/>
<text text-anchor="middle" x="435" y="-213.8" font-family="Times,serif" font-size="14.00">==</text>
</g>
<!-- 2015.Palaeognathae -->
<g id="node2" class="node"><title>2015.Palaeognathae</title>
<polygon fill="#ccffcc" stroke="black" points="497.5,-105 372.5,-105 372.5,-69 497.5,-69 497.5,-105"/>
<text text-anchor="middle" x="435" y="-83.3" font-family="Times,serif" font-size="14.00">2015.Palaeognathae</text>
</g>
<!-- 2014.Paleognathae -->
<g id="node7" class="node"><title>2014.Paleognathae</title>
<polygon fill="#ffffcc" stroke="black" points="1231.93,-130.544 1231.93,-145.456 1182.77,-156 1113.23,-156 1064.07,-145.456 1064.07,-130.544 1113.23,-120 1182.77,-120 1231.93,-130.544"/>
<text text-anchor="middle" x="1148" y="-134.3" font-family="Times,serif" font-size="14.00">2014.Paleognathae</text>
</g>
<!-- 2015.Palaeognathae&#45;&gt;2014.Paleognathae -->
<g id="edge10" class="edge"><title>2015.Palaeognathae&#45;&gt;2014.Paleognathae</title>
<path fill="none" stroke="#aa00ff" stroke-width="3" stroke-dasharray="1,5" d="M497.89,-85.8925C605.679,-84.7704 834.646,-85.9635 1026,-111 1045.09,-113.497 1065.6,-117.544 1084.22,-121.754"/>
<polygon fill="#aa00ff" stroke="#aa00ff" stroke-width="3" points="1083.53,-125.185 1094.06,-124.032 1085.1,-118.366 1083.53,-125.185"/>
<text text-anchor="middle" x="731" y="-94.8" font-family="Times,serif" font-size="14.00">&lt;</text>
</g>
<!-- 2014.Struthioniformes -->
<g id="node10" class="node"><title>2014.Struthioniformes</title>
<polygon fill="#ffffcc" stroke="black" points="1025.48,-178.544 1025.48,-193.456 967.791,-204 886.209,-204 828.522,-193.456 828.522,-178.544 886.209,-168 967.791,-168 1025.48,-178.544"/>
<text text-anchor="middle" x="927" y="-182.3" font-family="Times,serif" font-size="14.00">2014.Struthioniformes</text>
</g>
<!-- 2015.Galloanserae&#45;&gt;2014.Struthioniformes -->
<g id="edge12" class="edge"><title>2015.Galloanserae&#45;&gt;2014.Struthioniformes</title>
<path fill="none" stroke="#aa00ff" stroke-width="3" stroke-dasharray="1,5" d="M634.188,-184.333C684.18,-184.618 757.578,-185.038 818.253,-185.384"/>
<polygon fill="#aa00ff" stroke="#aa00ff" stroke-width="3" points="818.243,-188.884 828.262,-185.441 818.283,-181.884 818.243,-188.884"/>
<text text-anchor="middle" x="731" y="-188.8" font-family="Times,serif" font-size="14.00">==</text>
</g>
<!-- 2015.Aves -->
<g id="node4" class="node"><title>2015.Aves</title>
<polygon fill="#ccffcc" stroke="black" points="171.5,-105 96.5,-105 96.5,-69 171.5,-69 171.5,-105"/>
<text text-anchor="middle" x="134" y="-83.3" font-family="Times,serif" font-size="14.00">2015.Aves</text>
</g>
<!-- 2015.Aves&#45;&gt;2015.Gall_Neoa_Clade -->
<g id="edge4" class="edge"><title>2015.Aves&#45;&gt;2015.Gall_Neoa_Clade</title>
<path fill="none" stroke="#000000" d="M180.065,-109.532C200.869,-119.934 225.238,-132.119 244.819,-141.91"/>
<polygon fill="#000000" stroke="#000000" points="181.599,-106.387 171.09,-105.045 178.469,-112.648 181.599,-106.387"/>
</g>
<!-- 2015.Aves&#45;&gt;2015.Palaeognathae -->
<g id="edge1" class="edge"><title>2015.Aves&#45;&gt;2015.Palaeognathae</title>
<path fill="none" stroke="#000000" d="M181.81,-87C233.147,-87 315.744,-87 372.33,-87"/>
<polygon fill="#000000" stroke="#000000" points="181.663,-83.5001 171.663,-87 181.663,-90.5001 181.663,-83.5001"/>
</g>
<!-- 2014.Aves -->
<g id="node6" class="node"><title>2014.Aves</title>
<polygon fill="#ffffcc" stroke="black" points="1375.52,-130.544 1375.52,-145.456 1344.76,-156 1301.24,-156 1270.48,-145.456 1270.48,-130.544 1301.24,-120 1344.76,-120 1375.52,-130.544"/>
<text text-anchor="middle" x="1323" y="-134.3" font-family="Times,serif" font-size="14.00">2014.Aves</text>
</g>
<!-- 2015.Aves&#45;&gt;2014.Aves -->
<g id="edge11" class="edge"><title>2015.Aves&#45;&gt;2014.Aves</title>
<path fill="none" stroke="#aa00ff" stroke-width="3" stroke-dasharray="1,5" d="M166.935,-68.8757C195.794,-54.2168 239.921,-36 281,-36 281,-36 281,-36 1149,-36 1209.11,-36 1266.71,-82.2538 1297.93,-112.467"/>
<polygon fill="#aa00ff" stroke="#aa00ff" stroke-width="3" points="1295.72,-115.204 1305.28,-119.764 1300.65,-110.236 1295.72,-115.204"/>
<text text-anchor="middle" x="731" y="-39.8" font-family="Times,serif" font-size="14.00">&lt;</text>
</g>
<!-- 2014.Tinamiformes -->
<g id="node9" class="node"><title>2014.Tinamiformes</title>
<polygon fill="#ffffcc" stroke="black" points="1014.87,-130.544 1014.87,-145.456 963.398,-156 890.602,-156 839.127,-145.456 839.127,-130.544 890.602,-120 963.398,-120 1014.87,-130.544"/>
<text text-anchor="middle" x="927" y="-134.3" font-family="Times,serif" font-size="14.00">2014.Tinamiformes</text>
</g>
<!-- 2015.Neoaves&#45;&gt;2014.Tinamiformes -->
<g id="edge9" class="edge"><title>2015.Neoaves&#45;&gt;2014.Tinamiformes</title>
<path fill="none" stroke="#aa00ff" stroke-width="3" stroke-dasharray="1,5" d="M622.116,-138.868C674.467,-138.719 761.346,-138.47 828.832,-138.278"/>
<polygon fill="#aa00ff" stroke="#aa00ff" stroke-width="3" points="829.075,-141.777 839.065,-138.248 829.055,-134.777 829.075,-141.777"/>
<text text-anchor="middle" x="731" y="-141.8" font-family="Times,serif" font-size="14.00">==</text>
</g>
<!-- 2014.Paleognathae&#45;&gt;2014.Aves -->
<g id="edge7" class="edge"><title>2014.Paleognathae&#45;&gt;2014.Aves</title>
<path fill="none" stroke="#000000" d="M1231.95,-138C1241.4,-138 1250.91,-138 1260.02,-138"/>
<polygon fill="#000000" stroke="#000000" points="1260.12,-141.5 1270.12,-138 1260.12,-134.5 1260.12,-141.5"/>
</g>
<!-- 2014.Neognathae&#45;&gt;2014.Aves -->
<g id="edge5" class="edge"><title>2014.Neognathae&#45;&gt;2014.Aves</title>
<path fill="none" stroke="#000000" d="M809.609,-232.763C869.02,-226.804 952.906,-217.481 1026,-206 1118.22,-191.515 1141.41,-187.549 1232,-165 1245.88,-161.544 1260.82,-157.287 1274.46,-153.183"/>
<polygon fill="#000000" stroke="#000000" points="1275.58,-156.5 1284.12,-150.235 1273.54,-149.804 1275.58,-156.5"/>
</g>
<!-- 2014.Tinamiformes&#45;&gt;2014.Paleognathae -->
<g id="edge8" class="edge"><title>2014.Tinamiformes&#45;&gt;2014.Paleognathae</title>
<path fill="none" stroke="#000000" d="M1015.18,-138C1027.89,-138 1041.02,-138 1053.83,-138"/>
<polygon fill="#000000" stroke="#000000" points="1054.04,-141.5 1064.04,-138 1054.04,-134.5 1054.04,-141.5"/>
</g>
<!-- 2014.Struthioniformes&#45;&gt;2014.Paleognathae -->
<g id="edge6" class="edge"><title>2014.Struthioniformes&#45;&gt;2014.Paleognathae</title>
<path fill="none" stroke="#000000" d="M991.05,-172.181C1018.4,-166.187 1050.49,-159.153 1078.43,-153.029"/>
<polygon fill="#000000" stroke="#000000" points="1079.5,-156.378 1088.52,-150.818 1078,-149.54 1079.5,-156.378"/>
</g>
<!-- Legend -->
<g id="node11" class="node"><title>Legend</title>
<polygon fill="white" stroke="black" points="77.5,-175 0.5,-175 0.5,1 77.5,1 77.5,-175"/>
<polygon fill="none" stroke="black" points="1,-149 1,-175 78,-175 78,-149 1,-149"/>
<text text-anchor="start" x="15" y="-158.3" font-family="Arial Black" font-size="14.00"> Nodes</text>
<polygon fill="#ccffcc" stroke="none" points="1,-124 1,-149 61,-149 61,-124 1,-124"/>
<polygon fill="none" stroke="black" points="1,-124 1,-149 61,-149 61,-124 1,-124"/>
<text text-anchor="start" x="17" y="-132.8" font-family="Times,serif" font-size="14.00">2015</text>
<polygon fill="none" stroke="black" points="61,-124 61,-149 78,-149 78,-124 61,-124"/>
<text text-anchor="start" x="66" y="-132.8" font-family="Times,serif" font-size="14.00">5</text>
<polygon fill="#ffffcc" stroke="none" points="1,-99 1,-124 61,-124 61,-99 1,-99"/>
<polygon fill="none" stroke="black" points="1,-99 1,-124 61,-124 61,-99 1,-99"/>
<text text-anchor="start" x="17" y="-107.8" font-family="Times,serif" font-size="14.00">2014</text>
<polygon fill="none" stroke="black" points="61,-99 61,-124 78,-124 78,-99 61,-99"/>
<text text-anchor="start" x="66" y="-107.8" font-family="Times,serif" font-size="14.00">5</text>
<polygon fill="none" stroke="black" points="1,-74 1,-99 78,-99 78,-74 1,-74"/>
<text text-anchor="start" x="13.5" y="-82.8" font-family="Arial Black" font-size="14.00"> Edges </text>
<polygon fill="none" stroke="black" points="1,-49 1,-74 61,-74 61,-49 1,-49"/>
<text text-anchor="start" x="6.5" y="-57.8" font-family="Times,serif" font-size="14.00" fill="#000000">isa_2015</text>
<polygon fill="none" stroke="black" points="61,-49 61,-74 78,-74 78,-49 61,-49"/>
<text text-anchor="start" x="66" y="-57.8" font-family="Times,serif" font-size="14.00">4</text>
<polygon fill="none" stroke="black" points="1,-24 1,-49 61,-49 61,-24 1,-24"/>
<text text-anchor="start" x="6.5" y="-32.8" font-family="Times,serif" font-size="14.00" fill="#000000">isa_2014</text>
<polygon fill="none" stroke="black" points="61,-24 61,-49 78,-49 78,-24 61,-24"/>
<text text-anchor="start" x="66" y="-32.8" font-family="Times,serif" font-size="14.00">4</text>
<polygon fill="none" stroke="black" points="1,1 1,-24 61,-24 61,1 1,1"/>
<text text-anchor="start" x="20" y="-7.8" font-family="Times,serif" font-size="14.00" fill="#aa00ff">Art.</text>
<polygon fill="none" stroke="black" points="61,1 61,-24 78,-24 78,1 61,1"/>
<text text-anchor="start" x="66" y="-7.8" font-family="Times,serif" font-size="14.00">5</text>
</g>
</g>
</svg>
