<?xml version="1.0" encoding="UTF-8" standalone="no"?>
<!DOCTYPE svg PUBLIC "-//W3C//DTD SVG 1.1//EN"
 "http://www.w3.org/Graphics/SVG/1.1/DTD/svg11.dtd">
<!-- Generated by graphviz version 2.36.0 (20140111.2315)
 -->
<!-- Title: %3 Pages: 1 -->
<svg width="1244pt" height="182pt"
 viewBox="0.00 0.00 1244.00 182.00" xmlns="http://www.w3.org/2000/svg" xmlns:xlink="http://www.w3.org/1999/xlink">
<g id="graph0" class="graph" transform="scale(1 1) rotate(0) translate(4 178)">
<title>%3</title>
<polygon fill="white" stroke="none" points="-4,4 -4,-178 1240,-178 1240,4 -4,4"/>
<!-- FloraChina.OakGenus -->
<g id="node1" class="node"><title>FloraChina.OakGenus</title>
<polygon fill="#ccffcc" stroke="black" points="460,-132 322,-132 322,-96 460,-96 460,-132"/>
<text text-anchor="middle" x="391" y="-110.3" font-family="Times,serif" font-size="14.00">FloraChina.OakGenus</text>
</g>
<!-- FloraMexico.OakGenus -->
<g id="node5" class="node"><title>FloraMexico.OakGenus</title>
<polygon fill="#ffffcc" stroke="black" points="208.234,-79.5442 208.234,-94.4558 147.175,-105 60.8249,-105 -0.233914,-94.4558 -0.233914,-79.5442 60.8249,-69 147.175,-69 208.234,-79.5442"/>
<text text-anchor="middle" x="104" y="-83.3" font-family="Times,serif" font-size="14.00">FloraMexico.OakGenus</text>
</g>
<!-- FloraChina.OakGenus&#45;&gt;FloraMexico.OakGenus -->
<g id="edge7" class="edge"><title>FloraChina.OakGenus&#45;&gt;FloraMexico.OakGenus</title>
<path fill="none" stroke="#ff0000" d="M321.735,-107.533C288.319,-104.367 247.346,-100.485 210.055,-96.9526"/>
<polygon fill="#ff0000" stroke="#ff0000" points="209.93,-93.4251 199.644,-95.9663 209.269,-100.394 209.93,-93.4251"/>
</g>
<!-- FloraMexico.MexicanOakSpecies2 -->
<g id="node6" class="node"><title>FloraMexico.MexicanOakSpecies2</title>
<polygon fill="#ffffcc" stroke="black" points="538.06,-52.5442 538.06,-67.4558 451.914,-78 330.086,-78 243.94,-67.4558 243.94,-52.5442 330.086,-42 451.914,-42 538.06,-52.5442"/>
<text text-anchor="middle" x="391" y="-56.3" font-family="Times,serif" font-size="14.00">FloraMexico.MexicanOakSpecies2</text>
</g>
<!-- FloraChina.OakGenus&#45;&gt;FloraMexico.MexicanOakSpecies2 -->
<g id="edge1" class="edge"><title>FloraChina.OakGenus&#45;&gt;FloraMexico.MexicanOakSpecies2</title>
<path fill="none" stroke="#0000ff" stroke-dasharray="1,5" d="M391,-95.7902C391,-89.907 391,-84.0238 391,-78.1406"/>
</g>
<!-- FloraChina.ChineseOakSpecies1 -->
<g id="node2" class="node"><title>FloraChina.ChineseOakSpecies1</title>
<polygon fill="#ccffcc" stroke="black" points="818.5,-159 623.5,-159 623.5,-123 818.5,-123 818.5,-159"/>
<text text-anchor="middle" x="721" y="-137.3" font-family="Times,serif" font-size="14.00">FloraChina.ChineseOakSpecies1</text>
</g>
<!-- FloraChina.ChineseOakSpecies1&#45;&gt;FloraChina.OakGenus -->
<g id="edge4" class="edge"><title>FloraChina.ChineseOakSpecies1&#45;&gt;FloraChina.OakGenus</title>
<path fill="none" stroke="#000000" d="M623.363,-133.045C574.612,-129.032 516.247,-124.228 470.336,-120.448"/>
<polygon fill="#000000" stroke="#000000" points="470.396,-116.942 460.142,-119.609 469.821,-123.918 470.396,-116.942"/>
</g>
<!-- FloraMexico.MexicanOakSpecies1 -->
<g id="node4" class="node"><title>FloraMexico.MexicanOakSpecies1</title>
<polygon fill="#ffffcc" stroke="black" points="868.06,-79.5442 868.06,-94.4558 781.914,-105 660.086,-105 573.94,-94.4558 573.94,-79.5442 660.086,-69 781.914,-69 868.06,-79.5442"/>
<text text-anchor="middle" x="721" y="-83.3" font-family="Times,serif" font-size="14.00">FloraMexico.MexicanOakSpecies1</text>
</g>
<!-- FloraChina.ChineseOakSpecies1&#45;&gt;FloraMexico.MexicanOakSpecies1 -->
<g id="edge2" class="edge"><title>FloraChina.ChineseOakSpecies1&#45;&gt;FloraMexico.MexicanOakSpecies1</title>
<path fill="none" stroke="#0000ff" stroke-dasharray="1,5" d="M721,-122.79C721,-116.907 721,-111.024 721,-105.141"/>
</g>
<!-- FloraChina.ChineseOakSpecies1&#45;&gt;FloraMexico.MexicanOakSpecies2 -->
<g id="edge3" class="edge"><title>FloraChina.ChineseOakSpecies1&#45;&gt;FloraMexico.MexicanOakSpecies2</title>
<path fill="none" stroke="#0000ff" stroke-dasharray="1,5" d="M623.47,-129.66C606.571,-125.857 589.463,-120.779 574,-114 555.683,-105.969 556.317,-95.0305 538,-87 524.426,-81.0487 509.583,-76.4086 494.728,-72.7911"/>
</g>
<!-- FloraChina.ChineseOakSpecies2 -->
<g id="node3" class="node"><title>FloraChina.ChineseOakSpecies2</title>
<polygon fill="#ccffcc" stroke="black" points="1099.5,-105 904.5,-105 904.5,-69 1099.5,-69 1099.5,-105"/>
<text text-anchor="middle" x="1002" y="-83.3" font-family="Times,serif" font-size="14.00">FloraChina.ChineseOakSpecies2</text>
</g>
<!-- FloraChina.ChineseOakSpecies2&#45;&gt;FloraMexico.MexicanOakSpecies1 -->
<g id="edge8" class="edge"><title>FloraChina.ChineseOakSpecies2&#45;&gt;FloraMexico.MexicanOakSpecies1</title>
<path fill="none" stroke="#ff0000" d="M904.202,-87C895.831,-87 887.233,-87 878.546,-87"/>
<polygon fill="#ff0000" stroke="#ff0000" points="878.314,-83.5001 868.314,-87 878.314,-90.5001 878.314,-83.5001"/>
</g>
<!-- FloraMexico.MexicanOakSpecies1&#45;&gt;FloraChina.OakGenus -->
<g id="edge6" class="edge"><title>FloraMexico.MexicanOakSpecies1&#45;&gt;FloraChina.OakGenus</title>
<path fill="none" stroke="#ff0000" d="M595.997,-97.2075C553.878,-100.675 508.01,-104.45 470.455,-107.542"/>
<polygon fill="#ff0000" stroke="#ff0000" points="469.772,-104.086 460.092,-108.395 470.346,-111.063 469.772,-104.086"/>
</g>
<!-- FloraMexico.MexicanOakSpecies2&#45;&gt;FloraMexico.OakGenus -->
<g id="edge5" class="edge"><title>FloraMexico.MexicanOakSpecies2&#45;&gt;FloraMexico.OakGenus</title>
<path fill="none" stroke="#000000" d="M273.257,-71.0598C252.252,-73.0498 230.475,-75.1129 209.834,-77.0684"/>
<polygon fill="#000000" stroke="#000000" points="209.426,-73.5913 199.8,-78.0189 210.086,-80.5601 209.426,-73.5913"/>
</g>
<!-- Legend -->
<g id="node7" class="node"><title>Legend</title>
<polygon fill="white" stroke="black" points="1235.5,-175 1136.5,-175 1136.5,1 1235.5,1 1235.5,-175"/>
<polygon fill="none" stroke="black" points="1137,-149 1137,-175 1236,-175 1236,-149 1137,-149"/>
<text text-anchor="start" x="1162" y="-158.3" font-family="Arial Black" font-size="14.00"> Nodes</text>
<polygon fill="#ccffcc" stroke="none" points="1137,-124 1137,-149 1219,-149 1219,-124 1137,-124"/>
<polygon fill="none" stroke="black" points="1137,-124 1137,-149 1219,-149 1219,-124 1137,-124"/>
<text text-anchor="start" x="1147.5" y="-132.8" font-family="Times,serif" font-size="14.00">FloraChina</text>
<polygon fill="none" stroke="black" points="1219,-124 1219,-149 1236,-149 1236,-124 1219,-124"/>
<text text-anchor="start" x="1224" y="-132.8" font-family="Times,serif" font-size="14.00">3</text>
<polygon fill="#ffffcc" stroke="none" points="1137,-99 1137,-124 1219,-124 1219,-99 1137,-99"/>
<polygon fill="none" stroke="black" points="1137,-99 1137,-124 1219,-124 1219,-99 1137,-99"/>
<text text-anchor="start" x="1142.5" y="-107.8" font-family="Times,serif" font-size="14.00">FloraMexico</text>
<polygon fill="none" stroke="black" points="1219,-99 1219,-124 1236,-124 1236,-99 1219,-99"/>
<text text-anchor="start" x="1224" y="-107.8" font-family="Times,serif" font-size="14.00">3</text>
<polygon fill="none" stroke="black" points="1137,-74 1137,-99 1236,-99 1236,-74 1137,-74"/>
<text text-anchor="start" x="1160.5" y="-82.8" font-family="Arial Black" font-size="14.00"> Edges </text>
<polygon fill="none" stroke="black" points="1137,-49 1137,-74 1219,-74 1219,-49 1137,-49"/>
<text text-anchor="start" x="1155" y="-57.8" font-family="Times,serif" font-size="14.00" fill="#0000ff">overlaps</text>
<polygon fill="none" stroke="black" points="1219,-49 1219,-74 1236,-74 1236,-49 1219,-49"/>
<text text-anchor="start" x="1224" y="-57.8" font-family="Times,serif" font-size="14.00">3</text>
<polygon fill="none" stroke="black" points="1137,-24 1137,-49 1219,-49 1219,-24 1137,-24"/>
<text text-anchor="start" x="1164" y="-32.8" font-family="Times,serif" font-size="14.00" fill="#000000">input</text>
<polygon fill="none" stroke="black" points="1219,-24 1219,-49 1236,-49 1236,-24 1219,-24"/>
<text text-anchor="start" x="1224" y="-32.8" font-family="Times,serif" font-size="14.00">2</text>
<polygon fill="none" stroke="black" points="1137,1 1137,-24 1219,-24 1219,1 1137,1"/>
<text text-anchor="start" x="1156.5" y="-7.8" font-family="Times,serif" font-size="14.00" fill="#ff0000">inferred</text>
<polygon fill="none" stroke="black" points="1219,1 1219,-24 1236,-24 1236,1 1219,1"/>
<text text-anchor="start" x="1224" y="-7.8" font-family="Times,serif" font-size="14.00">3</text>
</g>
</g>
</svg>
