<?xml version="1.0" encoding="UTF-8" standalone="no"?>
<!DOCTYPE svg PUBLIC "-//W3C//DTD SVG 1.1//EN"
 "http://www.w3.org/Graphics/SVG/1.1/DTD/svg11.dtd">
<!-- Generated by graphviz version 2.36.0 (20140111.2315)
 -->
<!-- Title: %3 Pages: 1 -->
<svg width="1012pt" height="183pt"
 viewBox="0.00 0.00 1012.00 183.00" xmlns="http://www.w3.org/2000/svg" xmlns:xlink="http://www.w3.org/1999/xlink">
<g id="graph0" class="graph" transform="scale(1 1) rotate(0) translate(4 179)">
<title>%3</title>
<polygon fill="white" stroke="none" points="-4,4 -4,-179 1008,-179 1008,4 -4,4"/>
<!-- FloraChina.ChineseOakSpecies1 -->
<g id="node1" class="node"><title>FloraChina.ChineseOakSpecies1</title>
<polygon fill="#ccffcc" stroke="black" points="818.5,-159 623.5,-159 623.5,-123 818.5,-123 818.5,-159"/>
<text text-anchor="middle" x="721" y="-137.3" font-family="Times,serif" font-size="14.00">FloraChina.ChineseOakSpecies1</text>
</g>
<!-- FloraChina.OakGenus -->
<g id="node3" class="node"><title>FloraChina.OakGenus</title>
<polygon fill="#ccffcc" stroke="black" points="173,-134 35,-134 35,-98 173,-98 173,-134"/>
<text text-anchor="middle" x="104" y="-112.3" font-family="Times,serif" font-size="14.00">FloraChina.OakGenus</text>
</g>
<!-- FloraChina.ChineseOakSpecies1&#45;&gt;FloraChina.OakGenus -->
<g id="edge6" class="edge"><title>FloraChina.ChineseOakSpecies1&#45;&gt;FloraChina.OakGenus</title>
<path fill="none" stroke="#000000" d="M623.23,-137.066C501.696,-132.126 295.543,-123.746 183.375,-119.186"/>
<polygon fill="#000000" stroke="#000000" points="183.284,-115.679 173.15,-118.77 183,-122.674 183.284,-115.679"/>
</g>
<!-- FloraChina.ChineseOakSpecies2 -->
<g id="node2" class="node"><title>FloraChina.ChineseOakSpecies2</title>
<polygon fill="#ccffcc" stroke="black" points="488.5,-109 293.5,-109 293.5,-73 488.5,-73 488.5,-109"/>
<text text-anchor="middle" x="391" y="-87.3" font-family="Times,serif" font-size="14.00">FloraChina.ChineseOakSpecies2</text>
</g>
<!-- FloraChina.ChineseOakSpecies2&#45;&gt;FloraChina.OakGenus -->
<g id="edge4" class="edge"><title>FloraChina.ChineseOakSpecies2&#45;&gt;FloraChina.OakGenus</title>
<path fill="none" stroke="#000000" d="M293.114,-99.4987C257.431,-102.629 217.482,-106.133 183.608,-109.105"/>
<polygon fill="#000000" stroke="#000000" points="182.957,-105.648 173.301,-110.009 183.569,-112.621 182.957,-105.648"/>
</g>
<!-- FloraMexico.MexicanOakSpecies1 -->
<g id="node4" class="node"><title>FloraMexico.MexicanOakSpecies1</title>
<polygon fill="#ffffcc" stroke="black" points="538.06,-29.5442 538.06,-44.4558 451.914,-55 330.086,-55 243.94,-44.4558 243.94,-29.5442 330.086,-19 451.914,-19 538.06,-29.5442"/>
<text text-anchor="middle" x="391" y="-33.3" font-family="Times,serif" font-size="14.00">FloraMexico.MexicanOakSpecies1</text>
</g>
<!-- FloraChina.ChineseOakSpecies2&#45;&gt;FloraMexico.MexicanOakSpecies1 -->
<g id="edge3" class="edge"><title>FloraChina.ChineseOakSpecies2&#45;&gt;FloraMexico.MexicanOakSpecies1</title>
<path fill="none" stroke="#0000ff" stroke-dasharray="1,5" d="M391,-72.7902C391,-66.907 391,-61.0238 391,-55.1406"/>
</g>
<!-- FloraMexico.OakGenus -->
<g id="node5" class="node"><title>FloraMexico.OakGenus</title>
<polygon fill="#ffffcc" stroke="black" points="208.234,-54.5442 208.234,-69.4558 147.175,-80 60.8249,-80 -0.233914,-69.4558 -0.233914,-54.5442 60.8249,-44 147.175,-44 208.234,-54.5442"/>
<text text-anchor="middle" x="104" y="-58.3" font-family="Times,serif" font-size="14.00">FloraMexico.OakGenus</text>
</g>
<!-- FloraChina.ChineseOakSpecies2&#45;&gt;FloraMexico.OakGenus -->
<g id="edge7" class="edge"><title>FloraChina.ChineseOakSpecies2&#45;&gt;FloraMexico.OakGenus</title>
<path fill="none" stroke="#ff0000" d="M293.114,-81.1415C265.52,-78.3336 235.374,-75.2662 207.46,-72.4257"/>
<polygon fill="#ff0000" stroke="#ff0000" points="207.588,-68.9208 197.285,-71.3904 206.88,-75.8849 207.588,-68.9208"/>
</g>
<!-- FloraChina.OakGenus&#45;&gt;FloraMexico.MexicanOakSpecies1 -->
<g id="edge2" class="edge"><title>FloraChina.OakGenus&#45;&gt;FloraMexico.MexicanOakSpecies1</title>
<path fill="none" stroke="#0000ff" stroke-dasharray="1,5" d="M173.226,-101.734C185.074,-98.2425 197.086,-94.0274 208,-89 225.693,-80.8498 226.02,-71.4946 244,-64 258.038,-58.1487 273.36,-53.5604 288.629,-49.9636"/>
</g>
<!-- FloraChina.OakGenus&#45;&gt;FloraMexico.OakGenus -->
<g id="edge1" class="edge"><title>FloraChina.OakGenus&#45;&gt;FloraMexico.OakGenus</title>
<path fill="none" stroke="#0000ff" stroke-dasharray="1,5" d="M104,-97.7902C104,-91.907 104,-86.0238 104,-80.1406"/>
</g>
<!-- FloraMexico.MexicanOakSpecies1&#45;&gt;FloraMexico.OakGenus -->
<g id="edge5" class="edge"><title>FloraMexico.MexicanOakSpecies1&#45;&gt;FloraMexico.OakGenus</title>
<path fill="none" stroke="#000000" d="M269.134,-47.6023C250.317,-49.2529 230.985,-50.9487 212.491,-52.571"/>
<polygon fill="#000000" stroke="#000000" points="211.968,-49.1033 202.312,-53.4639 212.579,-56.0766 211.968,-49.1033"/>
</g>
<!-- FloraMexico.MexicanOakSpecies2 -->
<g id="node6" class="node"><title>FloraMexico.MexicanOakSpecies2</title>
<polygon fill="#ffffcc" stroke="black" points="868.06,-79.5442 868.06,-94.4558 781.914,-105 660.086,-105 573.94,-94.4558 573.94,-79.5442 660.086,-69 781.914,-69 868.06,-79.5442"/>
<text text-anchor="middle" x="721" y="-83.3" font-family="Times,serif" font-size="14.00">FloraMexico.MexicanOakSpecies2</text>
</g>
<!-- FloraMexico.MexicanOakSpecies2&#45;&gt;FloraChina.ChineseOakSpecies2 -->
<g id="edge8" class="edge"><title>FloraMexico.MexicanOakSpecies2&#45;&gt;FloraChina.ChineseOakSpecies2</title>
<path fill="none" stroke="#ff0000" d="M573.746,-88.7836C548.484,-89.0917 522.654,-89.4067 498.691,-89.6989"/>
<polygon fill="#ff0000" stroke="#ff0000" points="498.499,-86.2009 488.543,-89.8227 498.585,-93.2004 498.499,-86.2009"/>
</g>
<!-- Legend -->
<g id="node7" class="node"><title>Legend</title>
<polygon fill="white" stroke="black" points="1003.5,-175 904.5,-175 904.5,1 1003.5,1 1003.5,-175"/>
<polygon fill="none" stroke="black" points="905,-149 905,-175 1004,-175 1004,-149 905,-149"/>
<text text-anchor="start" x="930" y="-158.3" font-family="Arial Black" font-size="14.00"> Nodes</text>
<polygon fill="#ccffcc" stroke="none" points="905,-124 905,-149 987,-149 987,-124 905,-124"/>
<polygon fill="none" stroke="black" points="905,-124 905,-149 987,-149 987,-124 905,-124"/>
<text text-anchor="start" x="915.5" y="-132.8" font-family="Times,serif" font-size="14.00">FloraChina</text>
<polygon fill="none" stroke="black" points="987,-124 987,-149 1004,-149 1004,-124 987,-124"/>
<text text-anchor="start" x="992" y="-132.8" font-family="Times,serif" font-size="14.00">3</text>
<polygon fill="#ffffcc" stroke="none" points="905,-99 905,-124 987,-124 987,-99 905,-99"/>
<polygon fill="none" stroke="black" points="905,-99 905,-124 987,-124 987,-99 905,-99"/>
<text text-anchor="start" x="910.5" y="-107.8" font-family="Times,serif" font-size="14.00">FloraMexico</text>
<polygon fill="none" stroke="black" points="987,-99 987,-124 1004,-124 1004,-99 987,-99"/>
<text text-anchor="start" x="992" y="-107.8" font-family="Times,serif" font-size="14.00">3</text>
<polygon fill="none" stroke="black" points="905,-74 905,-99 1004,-99 1004,-74 905,-74"/>
<text text-anchor="start" x="928.5" y="-82.8" font-family="Arial Black" font-size="14.00"> Edges </text>
<polygon fill="none" stroke="black" points="905,-49 905,-74 987,-74 987,-49 905,-49"/>
<text text-anchor="start" x="923" y="-57.8" font-family="Times,serif" font-size="14.00" fill="#0000ff">overlaps</text>
<polygon fill="none" stroke="black" points="987,-49 987,-74 1004,-74 1004,-49 987,-49"/>
<text text-anchor="start" x="992" y="-57.8" font-family="Times,serif" font-size="14.00">3</text>
<polygon fill="none" stroke="black" points="905,-24 905,-49 987,-49 987,-24 905,-24"/>
<text text-anchor="start" x="932" y="-32.8" font-family="Times,serif" font-size="14.00" fill="#000000">input</text>
<polygon fill="none" stroke="black" points="987,-24 987,-49 1004,-49 1004,-24 987,-24"/>
<text text-anchor="start" x="992" y="-32.8" font-family="Times,serif" font-size="14.00">3</text>
<polygon fill="none" stroke="black" points="905,1 905,-24 987,-24 987,1 905,1"/>
<text text-anchor="start" x="924.5" y="-7.8" font-family="Times,serif" font-size="14.00" fill="#ff0000">inferred</text>
<polygon fill="none" stroke="black" points="987,1 987,-24 1004,-24 1004,1 987,1"/>
<text text-anchor="start" x="992" y="-7.8" font-family="Times,serif" font-size="14.00">2</text>
</g>
</g>
</svg>
