<?xml version="1.0" encoding="UTF-8" standalone="no"?>
<!DOCTYPE svg PUBLIC "-//W3C//DTD SVG 1.1//EN"
 "http://www.w3.org/Graphics/SVG/1.1/DTD/svg11.dtd">
<!-- Generated by graphviz version 2.36.0 (20140111.2315)
 -->
<!-- Title: %3 Pages: 1 -->
<svg width="1088pt" height="182pt"
 viewBox="0.00 0.00 1088.00 182.00" xmlns="http://www.w3.org/2000/svg" xmlns:xlink="http://www.w3.org/1999/xlink">
<g id="graph0" class="graph" transform="scale(1 1) rotate(0) translate(4 178)">
<title>%3</title>
<polygon fill="white" stroke="none" points="-4,4 -4,-178 1084,-178 1084,4 -4,4"/>
<!-- FloraChina.OakGenus -->
<g id="node1" class="node"><title>FloraChina.OakGenus</title>
<polygon fill="#ccffcc" stroke="black" points="138,-132 0,-132 0,-96 138,-96 138,-132"/>
<text text-anchor="middle" x="69" y="-110.3" font-family="Times,serif" font-size="14.00">FloraChina.OakGenus</text>
</g>
<!-- FloraChina.ChineseOakSpecies2 -->
<g id="node2" class="node"><title>FloraChina.ChineseOakSpecies2</title>
<polygon fill="#ccffcc" stroke="black" points="375.5,-159 180.5,-159 180.5,-123 375.5,-123 375.5,-159"/>
<text text-anchor="middle" x="278" y="-137.3" font-family="Times,serif" font-size="14.00">FloraChina.ChineseOakSpecies2</text>
</g>
<!-- FloraChina.ChineseOakSpecies2&#45;&gt;FloraChina.OakGenus -->
<g id="edge5" class="edge"><title>FloraChina.ChineseOakSpecies2&#45;&gt;FloraChina.OakGenus</title>
<path fill="none" stroke="#000000" d="M180.469,-128.409C169.606,-126.992 158.641,-125.562 148.054,-124.181"/>
<polygon fill="#000000" stroke="#000000" points="148.404,-120.697 138.035,-122.874 147.498,-127.638 148.404,-120.697"/>
</g>
<!-- FloraMexico.OakGenus -->
<g id="node5" class="node"><title>FloraMexico.OakGenus</title>
<polygon fill="#ffffcc" stroke="black" points="382.234,-79.5442 382.234,-94.4558 321.175,-105 234.825,-105 173.766,-94.4558 173.766,-79.5442 234.825,-69 321.175,-69 382.234,-79.5442"/>
<text text-anchor="middle" x="278" y="-83.3" font-family="Times,serif" font-size="14.00">FloraMexico.OakGenus</text>
</g>
<!-- FloraChina.ChineseOakSpecies2&#45;&gt;FloraMexico.OakGenus -->
<g id="edge2" class="edge"><title>FloraChina.ChineseOakSpecies2&#45;&gt;FloraMexico.OakGenus</title>
<path fill="none" stroke="#0000ff" stroke-dasharray="1,5" d="M278,-122.79C278,-116.907 278,-111.024 278,-105.141"/>
</g>
<!-- FloraMexico.MexicanOakSpecies2 -->
<g id="node6" class="node"><title>FloraMexico.MexicanOakSpecies2</title>
<polygon fill="#ffffcc" stroke="black" points="712.06,-79.5442 712.06,-94.4558 625.914,-105 504.086,-105 417.94,-94.4558 417.94,-79.5442 504.086,-69 625.914,-69 712.06,-79.5442"/>
<text text-anchor="middle" x="565" y="-83.3" font-family="Times,serif" font-size="14.00">FloraMexico.MexicanOakSpecies2</text>
</g>
<!-- FloraChina.ChineseOakSpecies2&#45;&gt;FloraMexico.MexicanOakSpecies2 -->
<g id="edge1" class="edge"><title>FloraChina.ChineseOakSpecies2&#45;&gt;FloraMexico.MexicanOakSpecies2</title>
<path fill="none" stroke="#0000ff" stroke-dasharray="1,5" d="M371.317,-122.947C386.895,-119.936 402.905,-116.862 418,-114 438.387,-110.135 460.39,-106.031 480.975,-102.22"/>
</g>
<!-- FloraChina.ChineseOakSpecies1 -->
<g id="node3" class="node"><title>FloraChina.ChineseOakSpecies1</title>
<polygon fill="#ccffcc" stroke="black" points="943.5,-105 748.5,-105 748.5,-69 943.5,-69 943.5,-105"/>
<text text-anchor="middle" x="846" y="-83.3" font-family="Times,serif" font-size="14.00">FloraChina.ChineseOakSpecies1</text>
</g>
<!-- FloraChina.ChineseOakSpecies1&#45;&gt;FloraMexico.MexicanOakSpecies2 -->
<g id="edge7" class="edge"><title>FloraChina.ChineseOakSpecies1&#45;&gt;FloraMexico.MexicanOakSpecies2</title>
<path fill="none" stroke="#ff0000" d="M748.202,-87C739.831,-87 731.233,-87 722.546,-87"/>
<polygon fill="#ff0000" stroke="#ff0000" points="722.314,-83.5001 712.314,-87 722.314,-90.5001 722.314,-83.5001"/>
</g>
<!-- FloraMexico.MexicanOakSpecies1 -->
<g id="node4" class="node"><title>FloraMexico.MexicanOakSpecies1</title>
<polygon fill="#ffffcc" stroke="black" points="712.06,-133.544 712.06,-148.456 625.914,-159 504.086,-159 417.94,-148.456 417.94,-133.544 504.086,-123 625.914,-123 712.06,-133.544"/>
<text text-anchor="middle" x="565" y="-137.3" font-family="Times,serif" font-size="14.00">FloraMexico.MexicanOakSpecies1</text>
</g>
<!-- FloraMexico.MexicanOakSpecies1&#45;&gt;FloraChina.ChineseOakSpecies2 -->
<g id="edge8" class="edge"><title>FloraMexico.MexicanOakSpecies1&#45;&gt;FloraChina.ChineseOakSpecies2</title>
<path fill="none" stroke="#ff0000" d="M417.743,-141C407.083,-141 396.45,-141 386.085,-141"/>
<polygon fill="#ff0000" stroke="#ff0000" points="385.817,-137.5 375.817,-141 385.817,-144.5 385.817,-137.5"/>
</g>
<!-- FloraMexico.MexicanOakSpecies1&#45;&gt;FloraMexico.OakGenus -->
<g id="edge4" class="edge"><title>FloraMexico.MexicanOakSpecies1&#45;&gt;FloraMexico.OakGenus</title>
<path fill="none" stroke="#000000" d="M480.975,-125.78C460.39,-121.969 438.387,-117.865 418,-114 398.474,-110.298 377.419,-106.242 357.748,-102.424"/>
<polygon fill="#000000" stroke="#000000" points="358.394,-98.9843 347.91,-100.512 357.059,-105.856 358.394,-98.9843"/>
</g>
<!-- FloraMexico.OakGenus&#45;&gt;FloraChina.OakGenus -->
<g id="edge6" class="edge"><title>FloraMexico.OakGenus&#45;&gt;FloraChina.OakGenus</title>
<path fill="none" stroke="#ff0000" d="M193.402,-97.9041C178.45,-99.8543 162.923,-101.88 148.132,-103.809"/>
<polygon fill="#ff0000" stroke="#ff0000" points="147.489,-100.363 138.026,-105.127 148.395,-107.304 147.489,-100.363"/>
</g>
<!-- FloraMexico.MexicanOakSpecies2&#45;&gt;FloraMexico.OakGenus -->
<g id="edge3" class="edge"><title>FloraMexico.MexicanOakSpecies2&#45;&gt;FloraMexico.OakGenus</title>
<path fill="none" stroke="#000000" d="M417.743,-87C409.29,-87 400.854,-87 392.555,-87"/>
<polygon fill="#000000" stroke="#000000" points="392.508,-83.5001 382.508,-87 392.508,-90.5001 392.508,-83.5001"/>
</g>
<!-- Legend -->
<g id="node7" class="node"><title>Legend</title>
<polygon fill="white" stroke="black" points="1079.5,-175 980.5,-175 980.5,1 1079.5,1 1079.5,-175"/>
<polygon fill="none" stroke="black" points="981,-149 981,-175 1080,-175 1080,-149 981,-149"/>
<text text-anchor="start" x="1006" y="-158.3" font-family="Arial Black" font-size="14.00"> Nodes</text>
<polygon fill="#ccffcc" stroke="none" points="981,-124 981,-149 1063,-149 1063,-124 981,-124"/>
<polygon fill="none" stroke="black" points="981,-124 981,-149 1063,-149 1063,-124 981,-124"/>
<text text-anchor="start" x="991.5" y="-132.8" font-family="Times,serif" font-size="14.00">FloraChina</text>
<polygon fill="none" stroke="black" points="1063,-124 1063,-149 1080,-149 1080,-124 1063,-124"/>
<text text-anchor="start" x="1068" y="-132.8" font-family="Times,serif" font-size="14.00">3</text>
<polygon fill="#ffffcc" stroke="none" points="981,-99 981,-124 1063,-124 1063,-99 981,-99"/>
<polygon fill="none" stroke="black" points="981,-99 981,-124 1063,-124 1063,-99 981,-99"/>
<text text-anchor="start" x="986.5" y="-107.8" font-family="Times,serif" font-size="14.00">FloraMexico</text>
<polygon fill="none" stroke="black" points="1063,-99 1063,-124 1080,-124 1080,-99 1063,-99"/>
<text text-anchor="start" x="1068" y="-107.8" font-family="Times,serif" font-size="14.00">3</text>
<polygon fill="none" stroke="black" points="981,-74 981,-99 1080,-99 1080,-74 981,-74"/>
<text text-anchor="start" x="1004.5" y="-82.8" font-family="Arial Black" font-size="14.00"> Edges </text>
<polygon fill="none" stroke="black" points="981,-49 981,-74 1063,-74 1063,-49 981,-49"/>
<text text-anchor="start" x="999" y="-57.8" font-family="Times,serif" font-size="14.00" fill="#0000ff">overlaps</text>
<polygon fill="none" stroke="black" points="1063,-49 1063,-74 1080,-74 1080,-49 1063,-49"/>
<text text-anchor="start" x="1068" y="-57.8" font-family="Times,serif" font-size="14.00">2</text>
<polygon fill="none" stroke="black" points="981,-24 981,-49 1063,-49 1063,-24 981,-24"/>
<text text-anchor="start" x="1008" y="-32.8" font-family="Times,serif" font-size="14.00" fill="#000000">input</text>
<polygon fill="none" stroke="black" points="1063,-24 1063,-49 1080,-49 1080,-24 1063,-24"/>
<text text-anchor="start" x="1068" y="-32.8" font-family="Times,serif" font-size="14.00">3</text>
<polygon fill="none" stroke="black" points="981,1 981,-24 1063,-24 1063,1 981,1"/>
<text text-anchor="start" x="1000.5" y="-7.8" font-family="Times,serif" font-size="14.00" fill="#ff0000">inferred</text>
<polygon fill="none" stroke="black" points="1063,1 1063,-24 1080,-24 1080,1 1063,1"/>
<text text-anchor="start" x="1068" y="-7.8" font-family="Times,serif" font-size="14.00">3</text>
</g>
</g>
</svg>
