<?xml version="1.0" encoding="UTF-8" standalone="no"?>
<!DOCTYPE svg PUBLIC "-//W3C//DTD SVG 1.1//EN"
 "http://www.w3.org/Graphics/SVG/1.1/DTD/svg11.dtd">
<!-- Generated by graphviz version 2.36.0 (20140111.2315)
 -->
<!-- Title: %3 Pages: 1 -->
<svg width="914pt" height="190pt"
 viewBox="0.00 0.00 914.00 190.00" xmlns="http://www.w3.org/2000/svg" xmlns:xlink="http://www.w3.org/1999/xlink">
<g id="graph0" class="graph" transform="scale(1 1) rotate(0) translate(4 186)">
<title>%3</title>
<polygon fill="white" stroke="none" points="-4,4 -4,-186 910,-186 910,4 -4,4"/>
<!-- FloraChina.ChineseOakSpecies1 -->
<g id="node1" class="node"><title>FloraChina.ChineseOakSpecies1</title>
<polygon fill="#ccffcc" stroke="black" points="769.5,-182 574.5,-182 574.5,-146 769.5,-146 769.5,-182"/>
<text text-anchor="middle" x="672" y="-160.3" font-family="Times,serif" font-size="14.00">FloraChina.ChineseOakSpecies1</text>
</g>
<!-- FloraChina.OakGenus -->
<g id="node3" class="node"><title>FloraChina.OakGenus</title>
<polygon fill="#ccffcc" stroke="black" points="460,-182 322,-182 322,-146 460,-146 460,-182"/>
<text text-anchor="middle" x="391" y="-160.3" font-family="Times,serif" font-size="14.00">FloraChina.OakGenus</text>
</g>
<!-- FloraChina.ChineseOakSpecies1&#45;&gt;FloraChina.OakGenus -->
<g id="edge8" class="edge"><title>FloraChina.ChineseOakSpecies1&#45;&gt;FloraChina.OakGenus</title>
<path fill="none" stroke="#000000" d="M574.202,-164C540.26,-164 502.586,-164 470.345,-164"/>
<polygon fill="#000000" stroke="#000000" points="470.08,-160.5 460.08,-164 470.08,-167.5 470.08,-160.5"/>
</g>
<!-- FloraMexico.OakGenus -->
<g id="node4" class="node"><title>FloraMexico.OakGenus</title>
<polygon fill="#ffffcc" stroke="black" points="208.234,-37.5442 208.234,-52.4558 147.175,-63 60.8249,-63 -0.233914,-52.4558 -0.233914,-37.5442 60.8249,-27 147.175,-27 208.234,-37.5442"/>
<text text-anchor="middle" x="104" y="-41.3" font-family="Times,serif" font-size="14.00">FloraMexico.OakGenus</text>
</g>
<!-- FloraChina.ChineseOakSpecies1&#45;&gt;FloraMexico.OakGenus -->
<g id="edge1" class="edge"><title>FloraChina.ChineseOakSpecies1&#45;&gt;FloraMexico.OakGenus</title>
<path fill="none" stroke="#0000ff" stroke-dasharray="1,5" d="M586.739,-145.946C570.599,-142.757 553.806,-139.622 538,-137 408.023,-115.436 371.673,-131.538 244,-99 209.254,-90.1449 171.42,-75.0656 144.008,-63.0888"/>
</g>
<!-- FloraMexico.MexicanOakSpecies1 -->
<g id="node5" class="node"><title>FloraMexico.MexicanOakSpecies1</title>
<polygon fill="#ffffcc" stroke="black" points="538.06,-64.5442 538.06,-79.4558 451.914,-90 330.086,-90 243.94,-79.4558 243.94,-64.5442 330.086,-54 451.914,-54 538.06,-64.5442"/>
<text text-anchor="middle" x="391" y="-68.3" font-family="Times,serif" font-size="14.00">FloraMexico.MexicanOakSpecies1</text>
</g>
<!-- FloraChina.ChineseOakSpecies1&#45;&gt;FloraMexico.MexicanOakSpecies1 -->
<g id="edge4" class="edge"><title>FloraChina.ChineseOakSpecies1&#45;&gt;FloraMexico.MexicanOakSpecies1</title>
<path fill="none" stroke="#0000ff" stroke-dasharray="1,5" d="M633.302,-145.935C600.885,-130.599 556.516,-110.132 538,-104 518.047,-97.3927 496.104,-91.7629 475.428,-87.1536"/>
</g>
<!-- FloraChina.ChineseOakSpecies2 -->
<g id="node2" class="node"><title>FloraChina.ChineseOakSpecies2</title>
<polygon fill="#ccffcc" stroke="black" points="769.5,-109 574.5,-109 574.5,-73 769.5,-73 769.5,-109"/>
<text text-anchor="middle" x="672" y="-87.3" font-family="Times,serif" font-size="14.00">FloraChina.ChineseOakSpecies2</text>
</g>
<!-- FloraChina.ChineseOakSpecies2&#45;&gt;FloraChina.OakGenus -->
<g id="edge6" class="edge"><title>FloraChina.ChineseOakSpecies2&#45;&gt;FloraChina.OakGenus</title>
<path fill="none" stroke="#000000" d="M602.034,-109.045C561.997,-119.52 511.442,-132.748 469.964,-143.601"/>
<polygon fill="#000000" stroke="#000000" points="468.961,-140.245 460.173,-146.163 470.733,-147.017 468.961,-140.245"/>
</g>
<!-- FloraChina.ChineseOakSpecies2&#45;&gt;FloraMexico.MexicanOakSpecies1 -->
<g id="edge9" class="edge"><title>FloraChina.ChineseOakSpecies2&#45;&gt;FloraMexico.MexicanOakSpecies1</title>
<path fill="none" stroke="#ff0000" d="M574.202,-84.408C561.535,-83.5454 548.348,-82.6474 535.118,-81.7464"/>
<polygon fill="#ff0000" stroke="#ff0000" points="535.214,-78.2449 525,-81.0573 534.739,-85.2288 535.214,-78.2449"/>
</g>
<!-- FloraChina.OakGenus&#45;&gt;FloraMexico.OakGenus -->
<g id="edge2" class="edge"><title>FloraChina.OakGenus&#45;&gt;FloraMexico.OakGenus</title>
<path fill="none" stroke="#0000ff" stroke-dasharray="1,5" d="M321.668,-154.05C296.661,-149.113 268.505,-142.002 244,-132 200.245,-114.142 154.79,-82.8625 128.236,-63.0764"/>
</g>
<!-- FloraChina.OakGenus&#45;&gt;FloraMexico.MexicanOakSpecies1 -->
<g id="edge3" class="edge"><title>FloraChina.OakGenus&#45;&gt;FloraMexico.MexicanOakSpecies1</title>
<path fill="none" stroke="#0000ff" stroke-dasharray="1,5" d="M391,-145.87C391,-127.356 391,-108.842 391,-90.3281"/>
</g>
<!-- FloraMexico.MexicanOakSpecies1&#45;&gt;FloraMexico.OakGenus -->
<g id="edge7" class="edge"><title>FloraMexico.MexicanOakSpecies1&#45;&gt;FloraMexico.OakGenus</title>
<path fill="none" stroke="#000000" d="M273.257,-60.9402C252.252,-58.9502 230.475,-56.8871 209.834,-54.9316"/>
<polygon fill="#000000" stroke="#000000" points="210.086,-51.4399 199.8,-53.9811 209.426,-58.4087 210.086,-51.4399"/>
</g>
<!-- FloraMexico.MexicanOakSpecies2 -->
<g id="node6" class="node"><title>FloraMexico.MexicanOakSpecies2</title>
<polygon fill="#ffffcc" stroke="black" points="538.06,-10.5442 538.06,-25.4558 451.914,-36 330.086,-36 243.94,-25.4558 243.94,-10.5442 330.086,-3.55271e-15 451.914,-0 538.06,-10.5442"/>
<text text-anchor="middle" x="391" y="-14.3" font-family="Times,serif" font-size="14.00">FloraMexico.MexicanOakSpecies2</text>
</g>
<!-- FloraMexico.MexicanOakSpecies2&#45;&gt;FloraMexico.OakGenus -->
<g id="edge5" class="edge"><title>FloraMexico.MexicanOakSpecies2&#45;&gt;FloraMexico.OakGenus</title>
<path fill="none" stroke="#000000" d="M273.257,-29.0598C252.252,-31.0498 230.475,-33.1129 209.834,-35.0684"/>
<polygon fill="#000000" stroke="#000000" points="209.426,-31.5913 199.8,-36.0189 210.086,-38.5601 209.426,-31.5913"/>
</g>
<!-- Legend -->
<g id="node7" class="node"><title>Legend</title>
<polygon fill="white" stroke="black" points="905.5,-179 806.5,-179 806.5,-3 905.5,-3 905.5,-179"/>
<polygon fill="none" stroke="black" points="807,-153 807,-179 906,-179 906,-153 807,-153"/>
<text text-anchor="start" x="832" y="-162.3" font-family="Arial Black" font-size="14.00"> Nodes</text>
<polygon fill="#ccffcc" stroke="none" points="807,-128 807,-153 889,-153 889,-128 807,-128"/>
<polygon fill="none" stroke="black" points="807,-128 807,-153 889,-153 889,-128 807,-128"/>
<text text-anchor="start" x="817.5" y="-136.8" font-family="Times,serif" font-size="14.00">FloraChina</text>
<polygon fill="none" stroke="black" points="889,-128 889,-153 906,-153 906,-128 889,-128"/>
<text text-anchor="start" x="894" y="-136.8" font-family="Times,serif" font-size="14.00">3</text>
<polygon fill="#ffffcc" stroke="none" points="807,-103 807,-128 889,-128 889,-103 807,-103"/>
<polygon fill="none" stroke="black" points="807,-103 807,-128 889,-128 889,-103 807,-103"/>
<text text-anchor="start" x="812.5" y="-111.8" font-family="Times,serif" font-size="14.00">FloraMexico</text>
<polygon fill="none" stroke="black" points="889,-103 889,-128 906,-128 906,-103 889,-103"/>
<text text-anchor="start" x="894" y="-111.8" font-family="Times,serif" font-size="14.00">3</text>
<polygon fill="none" stroke="black" points="807,-78 807,-103 906,-103 906,-78 807,-78"/>
<text text-anchor="start" x="830.5" y="-86.8" font-family="Arial Black" font-size="14.00"> Edges </text>
<polygon fill="none" stroke="black" points="807,-53 807,-78 889,-78 889,-53 807,-53"/>
<text text-anchor="start" x="825" y="-61.8" font-family="Times,serif" font-size="14.00" fill="#0000ff">overlaps</text>
<polygon fill="none" stroke="black" points="889,-53 889,-78 906,-78 906,-53 889,-53"/>
<text text-anchor="start" x="894" y="-61.8" font-family="Times,serif" font-size="14.00">4</text>
<polygon fill="none" stroke="black" points="807,-28 807,-53 889,-53 889,-28 807,-28"/>
<text text-anchor="start" x="834" y="-36.8" font-family="Times,serif" font-size="14.00" fill="#000000">input</text>
<polygon fill="none" stroke="black" points="889,-28 889,-53 906,-53 906,-28 889,-28"/>
<text text-anchor="start" x="894" y="-36.8" font-family="Times,serif" font-size="14.00">4</text>
<polygon fill="none" stroke="black" points="807,-3 807,-28 889,-28 889,-3 807,-3"/>
<text text-anchor="start" x="826.5" y="-11.8" font-family="Times,serif" font-size="14.00" fill="#ff0000">inferred</text>
<polygon fill="none" stroke="black" points="889,-3 889,-28 906,-28 906,-3 889,-3"/>
<text text-anchor="start" x="894" y="-11.8" font-family="Times,serif" font-size="14.00">1</text>
</g>
</g>
</svg>
