<?xml version="1.0" encoding="UTF-8" standalone="no"?>
<!DOCTYPE svg PUBLIC "-//W3C//DTD SVG 1.1//EN"
 "http://www.w3.org/Graphics/SVG/1.1/DTD/svg11.dtd">
<!-- Generated by graphviz version 2.36.0 (20140111.2315)
 -->
<!-- Title: %3 Pages: 1 -->
<svg width="856pt" height="248pt"
 viewBox="0.00 0.00 856.00 248.00" xmlns="http://www.w3.org/2000/svg" xmlns:xlink="http://www.w3.org/1999/xlink">
<g id="graph0" class="graph" transform="scale(1 1) rotate(0) translate(4 244)">
<title>%3</title>
<polygon fill="white" stroke="none" points="-4,4 -4,-244 852,-244 852,4 -4,4"/>
<!-- FloraChina.OakGenus -->
<g id="node1" class="node"><title>FloraChina.OakGenus</title>
<polygon fill="#ccffcc" stroke="black" points="138,-186 0,-186 0,-150 138,-150 138,-186"/>
<text text-anchor="middle" x="69" y="-164.3" font-family="Times,serif" font-size="14.00">FloraChina.OakGenus</text>
</g>
<!-- FloraChina.ChineseOakSpecies1 -->
<g id="node2" class="node"><title>FloraChina.ChineseOakSpecies1</title>
<polygon fill="#ccffcc" stroke="black" points="375.5,-240 180.5,-240 180.5,-204 375.5,-204 375.5,-240"/>
<text text-anchor="middle" x="278" y="-218.3" font-family="Times,serif" font-size="14.00">FloraChina.ChineseOakSpecies1</text>
</g>
<!-- FloraChina.ChineseOakSpecies1&#45;&gt;FloraChina.OakGenus -->
<g id="edge9" class="edge"><title>FloraChina.ChineseOakSpecies1&#45;&gt;FloraChina.OakGenus</title>
<path fill="none" stroke="#000000" d="M207.784,-203.944C188.58,-198.934 167.601,-193.461 147.935,-188.331"/>
<polygon fill="#000000" stroke="#000000" points="148.654,-184.901 138.095,-185.764 146.887,-191.675 148.654,-184.901"/>
</g>
<!-- FloraMexico.OakGenus -->
<g id="node4" class="node"><title>FloraMexico.OakGenus</title>
<polygon fill="#ffffcc" stroke="black" points="382.234,-106.544 382.234,-121.456 321.175,-132 234.825,-132 173.766,-121.456 173.766,-106.544 234.825,-96 321.175,-96 382.234,-106.544"/>
<text text-anchor="middle" x="278" y="-110.3" font-family="Times,serif" font-size="14.00">FloraMexico.OakGenus</text>
</g>
<!-- FloraChina.ChineseOakSpecies1&#45;&gt;FloraMexico.OakGenus -->
<g id="edge4" class="edge"><title>FloraChina.ChineseOakSpecies1&#45;&gt;FloraMexico.OakGenus</title>
<path fill="none" stroke="#0000ff" stroke-dasharray="1,5" d="M375.728,-208.305C385.51,-202.913 394.021,-195.674 400,-186 408.412,-172.39 408.412,-163.61 400,-150 392.512,-137.883 381.052,-129.587 368.098,-123.955"/>
</g>
<!-- FloraMexico.MexicanOakSpecies1 -->
<g id="node5" class="node"><title>FloraMexico.MexicanOakSpecies1</title>
<polygon fill="#ffffcc" stroke="black" points="712.06,-133.544 712.06,-148.456 625.914,-159 504.086,-159 417.94,-148.456 417.94,-133.544 504.086,-123 625.914,-123 712.06,-133.544"/>
<text text-anchor="middle" x="565" y="-137.3" font-family="Times,serif" font-size="14.00">FloraMexico.MexicanOakSpecies1</text>
</g>
<!-- FloraChina.ChineseOakSpecies1&#45;&gt;FloraMexico.MexicanOakSpecies1 -->
<g id="edge2" class="edge"><title>FloraChina.ChineseOakSpecies1&#45;&gt;FloraMexico.MexicanOakSpecies1</title>
<path fill="none" stroke="#0000ff" stroke-dasharray="1,5" d="M349.17,-203.928C360.173,-201.001 371.406,-197.959 382,-195 423.108,-183.517 469.199,-169.833 504.712,-159.114"/>
</g>
<!-- FloraMexico.MexicanOakSpecies2 -->
<g id="node6" class="node"><title>FloraMexico.MexicanOakSpecies2</title>
<polygon fill="#ffffcc" stroke="black" points="712.06,-79.5442 712.06,-94.4558 625.914,-105 504.086,-105 417.94,-94.4558 417.94,-79.5442 504.086,-69 625.914,-69 712.06,-79.5442"/>
<text text-anchor="middle" x="565" y="-83.3" font-family="Times,serif" font-size="14.00">FloraMexico.MexicanOakSpecies2</text>
</g>
<!-- FloraChina.ChineseOakSpecies1&#45;&gt;FloraMexico.MexicanOakSpecies2 -->
<g id="edge3" class="edge"><title>FloraChina.ChineseOakSpecies1&#45;&gt;FloraMexico.MexicanOakSpecies2</title>
<path fill="none" stroke="#0000ff" stroke-dasharray="1,5" d="M369.188,-203.875C373.743,-201.294 378.056,-198.352 382,-195 412.018,-169.486 387.065,-138.394 418,-114 426.501,-107.296 436.143,-102.066 446.322,-98.0049"/>
</g>
<!-- FloraChina.ChineseOakSpecies2 -->
<g id="node3" class="node"><title>FloraChina.ChineseOakSpecies2</title>
<polygon fill="#ccffcc" stroke="black" points="375.5,-186 180.5,-186 180.5,-150 375.5,-150 375.5,-186"/>
<text text-anchor="middle" x="278" y="-164.3" font-family="Times,serif" font-size="14.00">FloraChina.ChineseOakSpecies2</text>
</g>
<!-- FloraChina.ChineseOakSpecies2&#45;&gt;FloraChina.OakGenus -->
<g id="edge8" class="edge"><title>FloraChina.ChineseOakSpecies2&#45;&gt;FloraChina.OakGenus</title>
<path fill="none" stroke="#000000" d="M180.469,-168C169.606,-168 158.641,-168 148.054,-168"/>
<polygon fill="#000000" stroke="#000000" points="148.035,-164.5 138.035,-168 148.035,-171.5 148.035,-164.5"/>
</g>
<!-- FloraChina.ChineseOakSpecies2&#45;&gt;FloraMexico.OakGenus -->
<g id="edge1" class="edge"><title>FloraChina.ChineseOakSpecies2&#45;&gt;FloraMexico.OakGenus</title>
<path fill="none" stroke="#0000ff" stroke-dasharray="1,5" d="M278,-149.79C278,-143.907 278,-138.024 278,-132.141"/>
</g>
<!-- FloraChina.ChineseOakSpecies2&#45;&gt;FloraMexico.MexicanOakSpecies1 -->
<g id="edge5" class="edge"><title>FloraChina.ChineseOakSpecies2&#45;&gt;FloraMexico.MexicanOakSpecies1</title>
<path fill="none" stroke="#0000ff" stroke-dasharray="1,5" d="M375.58,-158.85C398.609,-156.669 423.43,-154.317 447.257,-152.06"/>
</g>
<!-- FloraChina.ChineseOakSpecies2&#45;&gt;FloraMexico.MexicanOakSpecies2 -->
<g id="edge6" class="edge"><title>FloraChina.ChineseOakSpecies2&#45;&gt;FloraMexico.MexicanOakSpecies2</title>
<path fill="none" stroke="#0000ff" stroke-dasharray="1,5" d="M360.207,-149.926C367.717,-147.301 375.092,-144.336 382,-141 400.01,-132.302 399.683,-122.031 418,-114 431.574,-108.049 446.417,-103.409 461.272,-99.7911"/>
</g>
<!-- FloraMexico.OakGenus&#45;&gt;FloraChina.OakGenus -->
<g id="edge11" class="edge"><title>FloraMexico.OakGenus&#45;&gt;FloraChina.OakGenus</title>
<path fill="none" stroke="#ff0000" d="M218.512,-129.258C196.648,-134.961 171.457,-141.533 148.103,-147.625"/>
<polygon fill="#ff0000" stroke="#ff0000" points="147.015,-144.292 138.223,-150.203 148.782,-151.065 147.015,-144.292"/>
</g>
<!-- FloraMexico.MexicanOakSpecies1&#45;&gt;FloraMexico.OakGenus -->
<g id="edge7" class="edge"><title>FloraMexico.MexicanOakSpecies1&#45;&gt;FloraMexico.OakGenus</title>
<path fill="none" stroke="#000000" d="M447.257,-129.94C426.252,-127.95 404.475,-125.887 383.834,-123.932"/>
<polygon fill="#000000" stroke="#000000" points="384.086,-120.44 373.8,-122.981 383.426,-127.409 384.086,-120.44"/>
</g>
<!-- FloraMexico.MexicanOakSpecies2&#45;&gt;FloraMexico.OakGenus -->
<g id="edge10" class="edge"><title>FloraMexico.MexicanOakSpecies2&#45;&gt;FloraMexico.OakGenus</title>
<path fill="none" stroke="#000000" d="M447.257,-98.0598C426.252,-100.05 404.475,-102.113 383.834,-104.068"/>
<polygon fill="#000000" stroke="#000000" points="383.426,-100.591 373.8,-105.019 384.086,-107.56 383.426,-100.591"/>
</g>
<!-- Legend -->
<g id="node7" class="node"><title>Legend</title>
<polygon fill="white" stroke="black" points="847.5,-175 748.5,-175 748.5,1 847.5,1 847.5,-175"/>
<polygon fill="none" stroke="black" points="749,-149 749,-175 848,-175 848,-149 749,-149"/>
<text text-anchor="start" x="774" y="-158.3" font-family="Arial Black" font-size="14.00"> Nodes</text>
<polygon fill="#ccffcc" stroke="none" points="749,-124 749,-149 831,-149 831,-124 749,-124"/>
<polygon fill="none" stroke="black" points="749,-124 749,-149 831,-149 831,-124 749,-124"/>
<text text-anchor="start" x="759.5" y="-132.8" font-family="Times,serif" font-size="14.00">FloraChina</text>
<polygon fill="none" stroke="black" points="831,-124 831,-149 848,-149 848,-124 831,-124"/>
<text text-anchor="start" x="836" y="-132.8" font-family="Times,serif" font-size="14.00">3</text>
<polygon fill="#ffffcc" stroke="none" points="749,-99 749,-124 831,-124 831,-99 749,-99"/>
<polygon fill="none" stroke="black" points="749,-99 749,-124 831,-124 831,-99 749,-99"/>
<text text-anchor="start" x="754.5" y="-107.8" font-family="Times,serif" font-size="14.00">FloraMexico</text>
<polygon fill="none" stroke="black" points="831,-99 831,-124 848,-124 848,-99 831,-99"/>
<text text-anchor="start" x="836" y="-107.8" font-family="Times,serif" font-size="14.00">3</text>
<polygon fill="none" stroke="black" points="749,-74 749,-99 848,-99 848,-74 749,-74"/>
<text text-anchor="start" x="772.5" y="-82.8" font-family="Arial Black" font-size="14.00"> Edges </text>
<polygon fill="none" stroke="black" points="749,-49 749,-74 831,-74 831,-49 749,-49"/>
<text text-anchor="start" x="767" y="-57.8" font-family="Times,serif" font-size="14.00" fill="#0000ff">overlaps</text>
<polygon fill="none" stroke="black" points="831,-49 831,-74 848,-74 848,-49 831,-49"/>
<text text-anchor="start" x="836" y="-57.8" font-family="Times,serif" font-size="14.00">6</text>
<polygon fill="none" stroke="black" points="749,-24 749,-49 831,-49 831,-24 749,-24"/>
<text text-anchor="start" x="776" y="-32.8" font-family="Times,serif" font-size="14.00" fill="#000000">input</text>
<polygon fill="none" stroke="black" points="831,-24 831,-49 848,-49 848,-24 831,-24"/>
<text text-anchor="start" x="836" y="-32.8" font-family="Times,serif" font-size="14.00">4</text>
<polygon fill="none" stroke="black" points="749,1 749,-24 831,-24 831,1 749,1"/>
<text text-anchor="start" x="768.5" y="-7.8" font-family="Times,serif" font-size="14.00" fill="#ff0000">inferred</text>
<polygon fill="none" stroke="black" points="831,1 831,-24 848,-24 848,1 831,1"/>
<text text-anchor="start" x="836" y="-7.8" font-family="Times,serif" font-size="14.00">1</text>
</g>
</g>
</svg>
