<?xml version="1.0" encoding="UTF-8" standalone="no"?>
<!DOCTYPE svg PUBLIC "-//W3C//DTD SVG 1.1//EN"
 "http://www.w3.org/Graphics/SVG/1.1/DTD/svg11.dtd">
<!-- Generated by graphviz version 2.36.0 (20140111.2315)
 -->
<!-- Title: %3 Pages: 1 -->
<svg width="856pt" height="205pt"
 viewBox="0.00 0.00 856.00 205.00" xmlns="http://www.w3.org/2000/svg" xmlns:xlink="http://www.w3.org/1999/xlink">
<g id="graph0" class="graph" transform="scale(1 1) rotate(0) translate(4 201)">
<title>%3</title>
<polygon fill="white" stroke="none" points="-4,4 -4,-201 852,-201 852,4 -4,4"/>
<!-- FloraChina.OakGenus -->
<g id="node1" class="node"><title>FloraChina.OakGenus</title>
<polygon fill="#ccffcc" stroke="black" points="138,-59 0,-59 0,-23 138,-23 138,-59"/>
<text text-anchor="middle" x="69" y="-37.3" font-family="Times,serif" font-size="14.00">FloraChina.OakGenus</text>
</g>
<!-- FloraMexico.OakGenus -->
<g id="node4" class="node"><title>FloraMexico.OakGenus</title>
<polygon fill="#ffffcc" stroke="black" points="382.234,-102.544 382.234,-117.456 321.175,-128 234.825,-128 173.766,-117.456 173.766,-102.544 234.825,-92 321.175,-92 382.234,-102.544"/>
<text text-anchor="middle" x="278" y="-106.3" font-family="Times,serif" font-size="14.00">FloraMexico.OakGenus</text>
</g>
<!-- FloraChina.OakGenus&#45;&gt;FloraMexico.OakGenus -->
<g id="edge1" class="edge"><title>FloraChina.OakGenus&#45;&gt;FloraMexico.OakGenus</title>
<path fill="none" stroke="#0000ff" stroke-dasharray="1,5" d="M119.321,-59.0086C136.566,-65.1824 156.091,-72.0349 174,-78 190.078,-83.3551 207.66,-88.9231 223.674,-93.8842"/>
</g>
<!-- FloraMexico.MexicanOakSpecies2 -->
<g id="node6" class="node"><title>FloraMexico.MexicanOakSpecies2</title>
<polygon fill="#ffffcc" stroke="black" points="712.06,-102.544 712.06,-117.456 625.914,-128 504.086,-128 417.94,-117.456 417.94,-102.544 504.086,-92 625.914,-92 712.06,-102.544"/>
<text text-anchor="middle" x="565" y="-106.3" font-family="Times,serif" font-size="14.00">FloraMexico.MexicanOakSpecies2</text>
</g>
<!-- FloraChina.OakGenus&#45;&gt;FloraMexico.MexicanOakSpecies2 -->
<g id="edge3" class="edge"><title>FloraChina.OakGenus&#45;&gt;FloraMexico.MexicanOakSpecies2</title>
<path fill="none" stroke="#0000ff" stroke-dasharray="1,5" d="M138.204,-49.9125C201.436,-58.2392 298.12,-71.1329 382,-83 410.94,-87.0943 442.443,-91.7111 470.979,-95.9538"/>
</g>
<!-- FloraChina.ChineseOakSpecies1 -->
<g id="node2" class="node"><title>FloraChina.ChineseOakSpecies1</title>
<polygon fill="#ccffcc" stroke="black" points="375.5,-36 180.5,-36 180.5,-0 375.5,-0 375.5,-36"/>
<text text-anchor="middle" x="278" y="-14.3" font-family="Times,serif" font-size="14.00">FloraChina.ChineseOakSpecies1</text>
</g>
<!-- FloraChina.ChineseOakSpecies1&#45;&gt;FloraChina.OakGenus -->
<g id="edge9" class="edge"><title>FloraChina.ChineseOakSpecies1&#45;&gt;FloraChina.OakGenus</title>
<path fill="none" stroke="#000000" d="M180.469,-28.7256C169.606,-29.9326 158.641,-31.151 148.054,-32.3274"/>
<polygon fill="#000000" stroke="#000000" points="147.587,-28.8576 138.035,-33.4406 148.36,-35.8148 147.587,-28.8576"/>
</g>
<!-- FloraChina.ChineseOakSpecies1&#45;&gt;FloraMexico.OakGenus -->
<g id="edge5" class="edge"><title>FloraChina.ChineseOakSpecies1&#45;&gt;FloraMexico.OakGenus</title>
<path fill="none" stroke="#0000ff" stroke-dasharray="1,5" d="M278,-36.3281C278,-54.842 278,-73.3559 278,-91.8698"/>
</g>
<!-- FloraChina.ChineseOakSpecies1&#45;&gt;FloraMexico.MexicanOakSpecies2 -->
<g id="edge4" class="edge"><title>FloraChina.ChineseOakSpecies1&#45;&gt;FloraMexico.MexicanOakSpecies2</title>
<path fill="none" stroke="#0000ff" stroke-dasharray="1,5" d="M337.61,-36.0174C352.132,-40.5342 367.644,-45.404 382,-50 425.093,-63.7961 473.765,-79.8674 509.926,-91.9029"/>
</g>
<!-- FloraChina.ChineseOakSpecies2 -->
<g id="node3" class="node"><title>FloraChina.ChineseOakSpecies2</title>
<polygon fill="#ccffcc" stroke="black" points="375.5,-182 180.5,-182 180.5,-146 375.5,-146 375.5,-182"/>
<text text-anchor="middle" x="278" y="-160.3" font-family="Times,serif" font-size="14.00">FloraChina.ChineseOakSpecies2</text>
</g>
<!-- FloraChina.ChineseOakSpecies2&#45;&gt;FloraChina.OakGenus -->
<g id="edge6" class="edge"><title>FloraChina.ChineseOakSpecies2&#45;&gt;FloraChina.OakGenus</title>
<path fill="none" stroke="#000000" d="M193.539,-145.947C186.764,-143.34 180.162,-140.373 174,-137 141.175,-119.029 110.598,-88.4645 91.2123,-66.6503"/>
<polygon fill="#000000" stroke="#000000" points="93.7996,-64.2919 84.5929,-59.049 88.5206,-68.8889 93.7996,-64.2919"/>
</g>
<!-- FloraChina.ChineseOakSpecies2&#45;&gt;FloraMexico.OakGenus -->
<g id="edge2" class="edge"><title>FloraChina.ChineseOakSpecies2&#45;&gt;FloraMexico.OakGenus</title>
<path fill="none" stroke="#0000ff" stroke-dasharray="1,5" d="M278,-145.79C278,-139.907 278,-134.024 278,-128.141"/>
</g>
<!-- FloraMexico.MexicanOakSpecies1 -->
<g id="node5" class="node"><title>FloraMexico.MexicanOakSpecies1</title>
<polygon fill="#ffffcc" stroke="black" points="712.06,-156.544 712.06,-171.456 625.914,-182 504.086,-182 417.94,-171.456 417.94,-156.544 504.086,-146 625.914,-146 712.06,-156.544"/>
<text text-anchor="middle" x="565" y="-160.3" font-family="Times,serif" font-size="14.00">FloraMexico.MexicanOakSpecies1</text>
</g>
<!-- FloraMexico.MexicanOakSpecies1&#45;&gt;FloraChina.ChineseOakSpecies2 -->
<g id="edge10" class="edge"><title>FloraMexico.MexicanOakSpecies1&#45;&gt;FloraChina.ChineseOakSpecies2</title>
<path fill="none" stroke="#ff0000" d="M417.743,-164C407.083,-164 396.45,-164 386.085,-164"/>
<polygon fill="#ff0000" stroke="#ff0000" points="385.817,-160.5 375.817,-164 385.817,-167.5 385.817,-160.5"/>
</g>
<!-- FloraMexico.MexicanOakSpecies1&#45;&gt;FloraMexico.OakGenus -->
<g id="edge7" class="edge"><title>FloraMexico.MexicanOakSpecies1&#45;&gt;FloraMexico.OakGenus</title>
<path fill="none" stroke="#000000" d="M480.975,-148.78C460.39,-144.969 438.387,-140.865 418,-137 398.474,-133.298 377.419,-129.242 357.748,-125.424"/>
<polygon fill="#000000" stroke="#000000" points="358.394,-121.984 347.91,-123.512 357.059,-128.856 358.394,-121.984"/>
</g>
<!-- FloraMexico.MexicanOakSpecies2&#45;&gt;FloraMexico.OakGenus -->
<g id="edge8" class="edge"><title>FloraMexico.MexicanOakSpecies2&#45;&gt;FloraMexico.OakGenus</title>
<path fill="none" stroke="#000000" d="M417.743,-110C409.29,-110 400.854,-110 392.555,-110"/>
<polygon fill="#000000" stroke="#000000" points="392.508,-106.5 382.508,-110 392.508,-113.5 392.508,-106.5"/>
</g>
<!-- Legend -->
<g id="node7" class="node"><title>Legend</title>
<polygon fill="white" stroke="black" points="847.5,-198 748.5,-198 748.5,-22 847.5,-22 847.5,-198"/>
<polygon fill="none" stroke="black" points="749,-172 749,-198 848,-198 848,-172 749,-172"/>
<text text-anchor="start" x="774" y="-181.3" font-family="Arial Black" font-size="14.00"> Nodes</text>
<polygon fill="#ccffcc" stroke="none" points="749,-147 749,-172 831,-172 831,-147 749,-147"/>
<polygon fill="none" stroke="black" points="749,-147 749,-172 831,-172 831,-147 749,-147"/>
<text text-anchor="start" x="759.5" y="-155.8" font-family="Times,serif" font-size="14.00">FloraChina</text>
<polygon fill="none" stroke="black" points="831,-147 831,-172 848,-172 848,-147 831,-147"/>
<text text-anchor="start" x="836" y="-155.8" font-family="Times,serif" font-size="14.00">3</text>
<polygon fill="#ffffcc" stroke="none" points="749,-122 749,-147 831,-147 831,-122 749,-122"/>
<polygon fill="none" stroke="black" points="749,-122 749,-147 831,-147 831,-122 749,-122"/>
<text text-anchor="start" x="754.5" y="-130.8" font-family="Times,serif" font-size="14.00">FloraMexico</text>
<polygon fill="none" stroke="black" points="831,-122 831,-147 848,-147 848,-122 831,-122"/>
<text text-anchor="start" x="836" y="-130.8" font-family="Times,serif" font-size="14.00">3</text>
<polygon fill="none" stroke="black" points="749,-97 749,-122 848,-122 848,-97 749,-97"/>
<text text-anchor="start" x="772.5" y="-105.8" font-family="Arial Black" font-size="14.00"> Edges </text>
<polygon fill="none" stroke="black" points="749,-72 749,-97 831,-97 831,-72 749,-72"/>
<text text-anchor="start" x="767" y="-80.8" font-family="Times,serif" font-size="14.00" fill="#0000ff">overlaps</text>
<polygon fill="none" stroke="black" points="831,-72 831,-97 848,-97 848,-72 831,-72"/>
<text text-anchor="start" x="836" y="-80.8" font-family="Times,serif" font-size="14.00">5</text>
<polygon fill="none" stroke="black" points="749,-47 749,-72 831,-72 831,-47 749,-47"/>
<text text-anchor="start" x="776" y="-55.8" font-family="Times,serif" font-size="14.00" fill="#000000">input</text>
<polygon fill="none" stroke="black" points="831,-47 831,-72 848,-72 848,-47 831,-47"/>
<text text-anchor="start" x="836" y="-55.8" font-family="Times,serif" font-size="14.00">4</text>
<polygon fill="none" stroke="black" points="749,-22 749,-47 831,-47 831,-22 749,-22"/>
<text text-anchor="start" x="768.5" y="-30.8" font-family="Times,serif" font-size="14.00" fill="#ff0000">inferred</text>
<polygon fill="none" stroke="black" points="831,-22 831,-47 848,-47 848,-22 831,-22"/>
<text text-anchor="start" x="836" y="-30.8" font-family="Times,serif" font-size="14.00">1</text>
</g>
</g>
</svg>
