<?xml version="1.0" encoding="UTF-8" standalone="no"?>
<!DOCTYPE svg PUBLIC "-//W3C//DTD SVG 1.1//EN"
 "http://www.w3.org/Graphics/SVG/1.1/DTD/svg11.dtd">
<!-- Generated by graphviz version 2.36.0 (20140111.2315)
 -->
<!-- Title: %3 Pages: 1 -->
<svg width="682pt" height="251pt"
 viewBox="0.00 0.00 682.00 251.00" xmlns="http://www.w3.org/2000/svg" xmlns:xlink="http://www.w3.org/1999/xlink">
<g id="graph0" class="graph" transform="scale(1 1) rotate(0) translate(4 247)">
<title>%3</title>
<polygon fill="white" stroke="none" points="-4,4 -4,-247 678,-247 678,4 -4,4"/>
<!-- FloraChina.OakGenus -->
<g id="node1" class="node"><title>FloraChina.OakGenus</title>
<polygon fill="#ccffcc" stroke="black" points="173,-121 35,-121 35,-85 173,-85 173,-121"/>
<text text-anchor="middle" x="104" y="-99.3" font-family="Times,serif" font-size="14.00">FloraChina.OakGenus</text>
</g>
<!-- FloraChina.ChineseOakSpecies1 -->
<g id="node2" class="node"><title>FloraChina.ChineseOakSpecies1</title>
<polygon fill="#ccffcc" stroke="black" points="488.5,-135 293.5,-135 293.5,-99 488.5,-99 488.5,-135"/>
<text text-anchor="middle" x="391" y="-113.3" font-family="Times,serif" font-size="14.00">FloraChina.ChineseOakSpecies1</text>
</g>
<!-- FloraChina.ChineseOakSpecies1&#45;&gt;FloraChina.OakGenus -->
<g id="edge4" class="edge"><title>FloraChina.ChineseOakSpecies1&#45;&gt;FloraChina.OakGenus</title>
<path fill="none" stroke="#000000" d="M293.114,-112.241C257.431,-110.488 217.482,-108.525 183.608,-106.861"/>
<polygon fill="#000000" stroke="#000000" points="183.461,-103.35 173.301,-106.355 183.118,-110.342 183.461,-103.35"/>
</g>
<!-- FloraChina.ChineseOakSpecies2 -->
<g id="node3" class="node"><title>FloraChina.ChineseOakSpecies2</title>
<polygon fill="#ccffcc" stroke="black" points="488.5,-81 293.5,-81 293.5,-45 488.5,-45 488.5,-81"/>
<text text-anchor="middle" x="391" y="-59.3" font-family="Times,serif" font-size="14.00">FloraChina.ChineseOakSpecies2</text>
</g>
<!-- FloraChina.ChineseOakSpecies2&#45;&gt;FloraChina.OakGenus -->
<g id="edge3" class="edge"><title>FloraChina.ChineseOakSpecies2&#45;&gt;FloraChina.OakGenus</title>
<path fill="none" stroke="#000000" d="M293.114,-76.598C257.431,-81.6062 217.482,-87.213 183.608,-91.9673"/>
<polygon fill="#000000" stroke="#000000" points="182.718,-88.5578 173.301,-93.4138 183.691,-95.4899 182.718,-88.5578"/>
</g>
<!-- FloraMexico.OakGenus -->
<g id="node4" class="node"><title>FloraMexico.OakGenus</title>
<polygon fill="#ffffcc" stroke="black" points="208.234,-176.544 208.234,-191.456 147.175,-202 60.8249,-202 -0.233914,-191.456 -0.233914,-176.544 60.8249,-166 147.175,-166 208.234,-176.544"/>
<text text-anchor="middle" x="104" y="-180.3" font-family="Times,serif" font-size="14.00">FloraMexico.OakGenus</text>
</g>
<!-- FloraMexico.MexicanOakSpecies1 -->
<g id="node5" class="node"><title>FloraMexico.MexicanOakSpecies1</title>
<polygon fill="#ffffcc" stroke="black" points="538.06,-217.544 538.06,-232.456 451.914,-243 330.086,-243 243.94,-232.456 243.94,-217.544 330.086,-207 451.914,-207 538.06,-217.544"/>
<text text-anchor="middle" x="391" y="-221.3" font-family="Times,serif" font-size="14.00">FloraMexico.MexicanOakSpecies1</text>
</g>
<!-- FloraMexico.MexicanOakSpecies1&#45;&gt;FloraMexico.OakGenus -->
<g id="edge2" class="edge"><title>FloraMexico.MexicanOakSpecies1&#45;&gt;FloraMexico.OakGenus</title>
<path fill="none" stroke="#000000" d="M294.703,-211.291C262.579,-206.669 226.848,-201.529 195.135,-196.967"/>
<polygon fill="#000000" stroke="#000000" points="195.386,-193.467 184.99,-195.507 194.389,-200.396 195.386,-193.467"/>
</g>
<!-- FloraMexico.MexicanOakSpecies2 -->
<g id="node6" class="node"><title>FloraMexico.MexicanOakSpecies2</title>
<polygon fill="#ffffcc" stroke="black" points="538.06,-163.544 538.06,-178.456 451.914,-189 330.086,-189 243.94,-178.456 243.94,-163.544 330.086,-153 451.914,-153 538.06,-163.544"/>
<text text-anchor="middle" x="391" y="-167.3" font-family="Times,serif" font-size="14.00">FloraMexico.MexicanOakSpecies2</text>
</g>
<!-- FloraMexico.MexicanOakSpecies2&#45;&gt;FloraMexico.OakGenus -->
<g id="edge1" class="edge"><title>FloraMexico.MexicanOakSpecies2&#45;&gt;FloraMexico.OakGenus</title>
<path fill="none" stroke="#000000" d="M243.743,-177.671C235.29,-178.057 226.854,-178.442 218.555,-178.82"/>
<polygon fill="#000000" stroke="#000000" points="218.338,-175.326 208.508,-179.279 218.657,-182.319 218.338,-175.326"/>
</g>
<!-- Legend -->
<g id="node7" class="node"><title>Legend</title>
<polygon fill="white" stroke="black" points="673.5,-126 574.5,-126 574.5,-0 673.5,-0 673.5,-126"/>
<polygon fill="none" stroke="black" points="575,-100 575,-126 674,-126 674,-100 575,-100"/>
<text text-anchor="start" x="600" y="-109.3" font-family="Arial Black" font-size="14.00"> Nodes</text>
<polygon fill="#ccffcc" stroke="none" points="575,-75 575,-100 657,-100 657,-75 575,-75"/>
<polygon fill="none" stroke="black" points="575,-75 575,-100 657,-100 657,-75 575,-75"/>
<text text-anchor="start" x="585.5" y="-83.8" font-family="Times,serif" font-size="14.00">FloraChina</text>
<polygon fill="none" stroke="black" points="657,-75 657,-100 674,-100 674,-75 657,-75"/>
<text text-anchor="start" x="662" y="-83.8" font-family="Times,serif" font-size="14.00">3</text>
<polygon fill="#ffffcc" stroke="none" points="575,-50 575,-75 657,-75 657,-50 575,-50"/>
<polygon fill="none" stroke="black" points="575,-50 575,-75 657,-75 657,-50 575,-50"/>
<text text-anchor="start" x="580.5" y="-58.8" font-family="Times,serif" font-size="14.00">FloraMexico</text>
<polygon fill="none" stroke="black" points="657,-50 657,-75 674,-75 674,-50 657,-50"/>
<text text-anchor="start" x="662" y="-58.8" font-family="Times,serif" font-size="14.00">3</text>
<polygon fill="none" stroke="black" points="575,-25 575,-50 674,-50 674,-25 575,-25"/>
<text text-anchor="start" x="598.5" y="-33.8" font-family="Arial Black" font-size="14.00"> Edges </text>
<polygon fill="none" stroke="black" points="575,-0 575,-25 657,-25 657,-0 575,-0"/>
<text text-anchor="start" x="602" y="-8.8" font-family="Times,serif" font-size="14.00" fill="#000000">input</text>
<polygon fill="none" stroke="black" points="657,-0 657,-25 674,-25 674,-0 657,-0"/>
<text text-anchor="start" x="662" y="-8.8" font-family="Times,serif" font-size="14.00">4</text>
</g>
</g>
</svg>
