<?xml version="1.0" encoding="UTF-8" standalone="no"?>
<!DOCTYPE svg PUBLIC "-//W3C//DTD SVG 1.1//EN"
 "http://www.w3.org/Graphics/SVG/1.1/DTD/svg11.dtd">
<!-- Generated by graphviz version 2.36.0 (20140111.2315)
 -->
<!-- Title: %3 Pages: 1 -->
<svg width="660pt" height="134pt"
 viewBox="0.00 0.00 660.00 134.00" xmlns="http://www.w3.org/2000/svg" xmlns:xlink="http://www.w3.org/1999/xlink">
<g id="graph0" class="graph" transform="scale(1 1) rotate(0) translate(4 130)">
<title>%3</title>
<polygon fill="white" stroke="none" points="-4,4 -4,-130 656,-130 656,4 -4,4"/>
<!-- FloraChina.ChineseOakSpecies1 -->
<g id="node1" class="node"><title>FloraChina.ChineseOakSpecies1</title>
<polygon fill="#ccffcc" stroke="black" points="533.5,-81 338.5,-81 338.5,-45 533.5,-45 533.5,-81"/>
<text text-anchor="middle" x="436" y="-59.3" font-family="Times,serif" font-size="14.00">FloraChina.ChineseOakSpecies1</text>
</g>
<!-- FloraMexico.MexicanOakSpecies1 -->
<g id="node2" class="node"><title>FloraMexico.MexicanOakSpecies1</title>
<polygon fill="#ffffcc" stroke="black" points="294.06,-55.5442 294.06,-70.4558 207.914,-81 86.0858,-81 -0.0598748,-70.4558 -0.0598748,-55.5442 86.0858,-45 207.914,-45 294.06,-55.5442"/>
<text text-anchor="middle" x="147" y="-59.3" font-family="Times,serif" font-size="14.00">FloraMexico.MexicanOakSpecies1</text>
</g>
<!-- FloraChina.ChineseOakSpecies1&#45;&gt;FloraMexico.MexicanOakSpecies1 -->
<g id="edge1" class="edge"><title>FloraChina.ChineseOakSpecies1&#45;&gt;FloraMexico.MexicanOakSpecies1</title>
<path fill="none" stroke="#761212" d="M338.235,-63C327.222,-63 315.797,-63 304.26,-63"/>
<polygon fill="#761212" stroke="#761212" points="304.102,-59.5001 294.102,-63 304.102,-66.5001 304.102,-59.5001"/>
<text text-anchor="middle" x="316" y="-66.8" font-family="Times,serif" font-size="14.00">5</text>
</g>
<!-- Legend -->
<g id="node3" class="node"><title>Legend</title>
<polygon fill="white" stroke="black" points="651.5,-126 552.5,-126 552.5,-0 651.5,-0 651.5,-126"/>
<polygon fill="none" stroke="black" points="553,-100 553,-126 652,-126 652,-100 553,-100"/>
<text text-anchor="start" x="578" y="-109.3" font-family="Arial Black" font-size="14.00"> Nodes</text>
<polygon fill="#ccffcc" stroke="none" points="553,-75 553,-100 635,-100 635,-75 553,-75"/>
<polygon fill="none" stroke="black" points="553,-75 553,-100 635,-100 635,-75 553,-75"/>
<text text-anchor="start" x="563.5" y="-83.8" font-family="Times,serif" font-size="14.00">FloraChina</text>
<polygon fill="none" stroke="black" points="635,-75 635,-100 652,-100 652,-75 635,-75"/>
<text text-anchor="start" x="640" y="-83.8" font-family="Times,serif" font-size="14.00">1</text>
<polygon fill="#ffffcc" stroke="none" points="553,-50 553,-75 635,-75 635,-50 553,-50"/>
<polygon fill="none" stroke="black" points="553,-50 553,-75 635,-75 635,-50 553,-50"/>
<text text-anchor="start" x="558.5" y="-58.8" font-family="Times,serif" font-size="14.00">FloraMexico</text>
<polygon fill="none" stroke="black" points="635,-50 635,-75 652,-75 652,-50 635,-50"/>
<text text-anchor="start" x="640" y="-58.8" font-family="Times,serif" font-size="14.00">1</text>
<polygon fill="none" stroke="black" points="553,-25 553,-50 652,-50 652,-25 553,-25"/>
<text text-anchor="start" x="576.5" y="-33.8" font-family="Arial Black" font-size="14.00"> Edges </text>
<polygon fill="none" stroke="black" points="553,-0 553,-25 635,-25 635,-0 553,-0"/>
<text text-anchor="start" x="575" y="-8.8" font-family="Times,serif" font-size="14.00" fill="#000000">default</text>
<polygon fill="none" stroke="black" points="635,-0 635,-25 652,-25 652,-0 635,-0"/>
<text text-anchor="start" x="640" y="-8.8" font-family="Times,serif" font-size="14.00">1</text>
</g>
</g>
</svg>
