<?xml version="1.0" encoding="UTF-8" standalone="no"?>
<!DOCTYPE svg PUBLIC "-//W3C//DTD SVG 1.1//EN"
 "http://www.w3.org/Graphics/SVG/1.1/DTD/svg11.dtd">
<!-- Generated by graphviz version 2.36.0 (20140111.2315)
 -->
<!-- Title: %3 Pages: 1 -->
<svg width="344pt" height="406pt"
 viewBox="0.00 0.00 344.00 406.00" xmlns="http://www.w3.org/2000/svg" xmlns:xlink="http://www.w3.org/1999/xlink">
<g id="graph0" class="graph" transform="scale(1 1) rotate(0) translate(4 402)">
<title>%3</title>
<polygon fill="white" stroke="none" points="-4,4 -4,-402 340,-402 340,4 -4,4"/>
<!-- pw4 -->
<g id="node1" class="node"><title>pw4</title>
<path fill="#ffffcc" stroke="black" d="M95.8833,-36C95.8833,-36 65.8833,-36 65.8833,-36 59.8833,-36 53.8833,-30 53.8833,-24 53.8833,-24 53.8833,-12 53.8833,-12 53.8833,-6 59.8833,-0 65.8833,-0 65.8833,-0 95.8833,-0 95.8833,-0 101.883,-0 107.883,-6 107.883,-12 107.883,-12 107.883,-24 107.883,-24 107.883,-30 101.883,-36 95.8833,-36"/>
<text text-anchor="middle" x="80.8833" y="-14.3" font-family="Times,serif" font-size="14.00">pw4</text>
</g>
<!-- pw2 -->
<g id="node2" class="node"><title>pw2</title>
<path fill="#ffffcc" stroke="black" d="M308.534,-101.538C308.534,-101.538 278.534,-101.538 278.534,-101.538 272.534,-101.538 266.534,-95.5384 266.534,-89.5384 266.534,-89.5384 266.534,-77.5384 266.534,-77.5384 266.534,-71.5384 272.534,-65.5384 278.534,-65.5384 278.534,-65.5384 308.534,-65.5384 308.534,-65.5384 314.534,-65.5384 320.534,-71.5384 320.534,-77.5384 320.534,-77.5384 320.534,-89.5384 320.534,-89.5384 320.534,-95.5384 314.534,-101.538 308.534,-101.538"/>
<text text-anchor="middle" x="293.534" y="-79.8384" font-family="Times,serif" font-size="14.00">pw2</text>
</g>
<!-- pw4&#45;&gt;pw2 -->
<g id="edge7" class="edge"><title>pw4&#45;&gt;pw2</title>
<path fill="none" stroke="#000000" d="M108.248,-26.4338C146.049,-38.0841 214.355,-59.1357 256.636,-72.1666"/>
<polygon fill="#000000" stroke="#000000" points="255.687,-75.5363 266.274,-75.1369 257.748,-68.8468 255.687,-75.5363"/>
<text text-anchor="middle" x="178.942" y="-53.1002" font-family="Times,serif" font-size="14.00">3</text>
</g>
<!-- pw3 -->
<g id="node3" class="node"><title>pw3</title>
<path fill="#ffffcc" stroke="black" d="M42,-168.418C42,-168.418 12,-168.418 12,-168.418 6,-168.418 0,-162.418 0,-156.418 0,-156.418 0,-144.418 0,-144.418 0,-138.418 6,-132.418 12,-132.418 12,-132.418 42,-132.418 42,-132.418 48,-132.418 54,-138.418 54,-144.418 54,-144.418 54,-156.418 54,-156.418 54,-162.418 48,-168.418 42,-168.418"/>
<text text-anchor="middle" x="27" y="-146.718" font-family="Times,serif" font-size="14.00">pw3</text>
</g>
<!-- pw4&#45;&gt;pw3 -->
<g id="edge9" class="edge"><title>pw4&#45;&gt;pw3</title>
<path fill="none" stroke="#000000" d="M73.5041,-36.1344C64.4055,-58.494 48.8487,-96.7245 38.256,-122.756"/>
<polygon fill="#000000" stroke="#000000" points="34.9903,-121.495 34.4631,-132.077 41.4741,-124.134 34.9903,-121.495"/>
<text text-anchor="middle" x="52.38" y="-83.2453" font-family="Times,serif" font-size="14.00">2</text>
</g>
<!-- pw0 -->
<g id="node4" class="node"><title>pw0</title>
<path fill="#ffffcc" stroke="black" d="M156.816,-339.621C156.816,-339.621 126.816,-339.621 126.816,-339.621 120.816,-339.621 114.816,-333.621 114.816,-327.621 114.816,-327.621 114.816,-315.621 114.816,-315.621 114.816,-309.621 120.816,-303.621 126.816,-303.621 126.816,-303.621 156.816,-303.621 156.816,-303.621 162.816,-303.621 168.816,-309.621 168.816,-315.621 168.816,-315.621 168.816,-327.621 168.816,-327.621 168.816,-333.621 162.816,-339.621 156.816,-339.621"/>
<text text-anchor="middle" x="141.816" y="-317.921" font-family="Times,serif" font-size="14.00">pw0</text>
</g>
<!-- pw4&#45;&gt;pw0 -->
<g id="edge8" class="edge"><title>pw4&#45;&gt;pw0</title>
<path fill="none" stroke="#000000" d="M84.5125,-36.0836C94.733,-87.0117 123.814,-231.919 136.161,-293.443"/>
<polygon fill="#000000" stroke="#000000" points="132.729,-294.133 138.129,-303.249 139.593,-292.755 132.729,-294.133"/>
<text text-anchor="middle" x="106.837" y="-168.563" font-family="Times,serif" font-size="14.00">4</text>
</g>
<!-- pw1 -->
<g id="node5" class="node"><title>pw1</title>
<path fill="#ffffcc" stroke="black" d="M260.13,-240.35C260.13,-240.35 230.13,-240.35 230.13,-240.35 224.13,-240.35 218.13,-234.35 218.13,-228.35 218.13,-228.35 218.13,-216.35 218.13,-216.35 218.13,-210.35 224.13,-204.35 230.13,-204.35 230.13,-204.35 260.13,-204.35 260.13,-204.35 266.13,-204.35 272.13,-210.35 272.13,-216.35 272.13,-216.35 272.13,-228.35 272.13,-228.35 272.13,-234.35 266.13,-240.35 260.13,-240.35"/>
<text text-anchor="middle" x="245.13" y="-218.65" font-family="Times,serif" font-size="14.00">pw1</text>
</g>
<!-- pw4&#45;&gt;pw1 -->
<g id="edge4" class="edge"><title>pw4&#45;&gt;pw1</title>
<path fill="none" stroke="#000000" d="M95.4592,-36.1347C124.68,-72.4899 190.508,-154.391 224.28,-196.409"/>
<polygon fill="#000000" stroke="#000000" points="221.594,-198.654 230.587,-204.256 227.05,-194.269 221.594,-198.654"/>
<text text-anchor="middle" x="156.37" y="-105.072" font-family="Times,serif" font-size="14.00">4</text>
</g>
<!-- pw2&#45;&gt;pw1 -->
<g id="edge2" class="edge"><title>pw2&#45;&gt;pw1</title>
<path fill="none" stroke="#000000" d="M287.206,-101.686C278.944,-125.379 264.403,-167.079 254.767,-194.713"/>
<polygon fill="#000000" stroke="#000000" points="251.448,-193.603 251.46,-204.198 258.057,-195.908 251.448,-193.603"/>
<text text-anchor="middle" x="267.487" y="-151.999" font-family="Times,serif" font-size="14.00">2</text>
</g>
<!-- pw3&#45;&gt;pw2 -->
<g id="edge3" class="edge"><title>pw3&#45;&gt;pw2</title>
<path fill="none" stroke="#000000" d="M54.0235,-143.637C102.016,-131.594 202.172,-106.463 256.526,-92.8243"/>
<polygon fill="#000000" stroke="#000000" points="257.591,-96.1657 266.439,-90.3371 255.888,-89.3762 257.591,-96.1657"/>
<text text-anchor="middle" x="151.775" y="-122.031" font-family="Times,serif" font-size="14.00">4</text>
</g>
<!-- pw3&#45;&gt;pw0 -->
<g id="edge6" class="edge"><title>pw3&#45;&gt;pw0</title>
<path fill="none" stroke="#000000" d="M39.2873,-168.739C59.6597,-199.117 100.511,-260.032 124.033,-295.105"/>
<polygon fill="#000000" stroke="#000000" points="121.14,-297.075 129.617,-303.431 126.954,-293.177 121.14,-297.075"/>
<text text-anchor="middle" x="78.1603" y="-235.722" font-family="Times,serif" font-size="14.00">3</text>
</g>
<!-- pw3&#45;&gt;pw1 -->
<g id="edge1" class="edge"><title>pw3&#45;&gt;pw1</title>
<path fill="none" stroke="#000000" d="M54.1853,-159.382C93.0701,-172.205 164.678,-195.819 208.292,-210.202"/>
<polygon fill="#000000" stroke="#000000" points="207.353,-213.577 217.946,-213.385 209.545,-206.929 207.353,-213.577"/>
<text text-anchor="middle" x="127.739" y="-188.592" font-family="Times,serif" font-size="14.00">3</text>
</g>
<!-- pw1&#45;&gt;pw0 -->
<g id="edge5" class="edge"><title>pw1&#45;&gt;pw0</title>
<path fill="none" stroke="#000000" d="M226.181,-240.558C209.87,-256.23 186.168,-279.005 168.037,-296.427"/>
<polygon fill="#000000" stroke="#000000" points="165.431,-294.076 160.645,-303.529 170.281,-299.124 165.431,-294.076"/>
<text text-anchor="middle" x="193.609" y="-272.292" font-family="Times,serif" font-size="14.00">2</text>
</g>
<!-- Legend -->
<g id="node6" class="node"><title>Legend</title>
<path fill="white" stroke="black" d="M324,-398C324,-398 282,-398 282,-398 276,-398 270,-392 270,-386 270,-386 270,-309 270,-309 270,-303 276,-297 282,-297 282,-297 324,-297 324,-297 330,-297 336,-303 336,-309 336,-309 336,-386 336,-386 336,-392 330,-398 324,-398"/>
<polygon fill="none" stroke="black" points="270,-371.5 270,-397.5 336,-397.5 336,-371.5 270,-371.5"/>
<text text-anchor="start" x="278.5" y="-380.8" font-family="Arial Black" font-size="14.00"> Nodes</text>
<polygon fill="#ffffcc" stroke="none" points="270,-346.5 270,-371.5 319,-371.5 319,-346.5 270,-346.5"/>
<polygon fill="none" stroke="black" points="270,-346.5 270,-371.5 319,-371.5 319,-346.5 270,-346.5"/>
<text text-anchor="start" x="276" y="-355.3" font-family="Times,serif" font-size="14.00">cluster</text>
<polygon fill="none" stroke="black" points="319,-346.5 319,-371.5 336,-371.5 336,-346.5 319,-346.5"/>
<text text-anchor="start" x="324" y="-355.3" font-family="Times,serif" font-size="14.00">5</text>
<polygon fill="none" stroke="black" points="270,-321.5 270,-346.5 336,-346.5 336,-321.5 270,-321.5"/>
<text text-anchor="start" x="277" y="-330.3" font-family="Arial Black" font-size="14.00"> Edges </text>
<polygon fill="none" stroke="black" points="270,-296.5 270,-321.5 319,-321.5 319,-296.5 270,-296.5"/>
<text text-anchor="start" x="275.5" y="-305.3" font-family="Times,serif" font-size="14.00" fill="#000000">default</text>
<polygon fill="none" stroke="black" points="319,-296.5 319,-321.5 336,-321.5 336,-296.5 319,-296.5"/>
<text text-anchor="start" x="324" y="-305.3" font-family="Times,serif" font-size="14.00">9</text>
</g>
</g>
</svg>
