<?xml version="1.0" encoding="UTF-8" standalone="no"?>
<!DOCTYPE svg PUBLIC "-//W3C//DTD SVG 1.1//EN"
 "http://www.w3.org/Graphics/SVG/1.1/DTD/svg11.dtd">
<!-- Generated by graphviz version 2.36.0 (20140111.2315)
 -->
<!-- Title: %3 Pages: 1 -->
<svg width="952pt" height="208pt"
 viewBox="0.00 0.00 952.00 208.00" xmlns="http://www.w3.org/2000/svg" xmlns:xlink="http://www.w3.org/1999/xlink">
<g id="graph0" class="graph" transform="scale(1 1) rotate(0) translate(4 204)">
<title>%3</title>
<polygon fill="white" stroke="none" points="-4,4 -4,-204 948,-204 948,4 -4,4"/>
<!-- FloraChina.ChineseOakSpecies1 -->
<g id="node1" class="node"><title>FloraChina.ChineseOakSpecies1</title>
<polygon fill="#ccffcc" stroke="black" points="758.5,-172 563.5,-172 563.5,-136 758.5,-136 758.5,-172"/>
<text text-anchor="middle" x="661" y="-150.3" font-family="Times,serif" font-size="14.00">FloraChina.ChineseOakSpecies1</text>
</g>
<!-- FloraMexico.MexicanOakSpecies1 -->
<g id="node4" class="node"><title>FloraMexico.MexicanOakSpecies1</title>
<polygon fill="#ffffcc" stroke="black" points="478.06,-146.544 478.06,-161.456 391.914,-172 270.086,-172 183.94,-161.456 183.94,-146.544 270.086,-136 391.914,-136 478.06,-146.544"/>
<text text-anchor="middle" x="331" y="-150.3" font-family="Times,serif" font-size="14.00">FloraMexico.MexicanOakSpecies1</text>
</g>
<!-- FloraChina.ChineseOakSpecies1&#45;&gt;FloraMexico.MexicanOakSpecies1 -->
<g id="edge4" class="edge"><title>FloraChina.ChineseOakSpecies1&#45;&gt;FloraMexico.MexicanOakSpecies1</title>
<path fill="none" stroke="#000000" d="M563.363,-154C539.758,-154 513.898,-154 488.29,-154"/>
<polygon fill="#000000" stroke="#000000" points="488.112,-150.5 478.112,-154 488.112,-157.5 488.112,-150.5"/>
</g>
<!-- FloraChina.ChineseOakSpecies2 -->
<g id="node2" class="node"><title>FloraChina.ChineseOakSpecies2</title>
<polygon fill="#ccffcc" stroke="black" points="428.5,-118 233.5,-118 233.5,-82 428.5,-82 428.5,-118"/>
<text text-anchor="middle" x="331" y="-96.3" font-family="Times,serif" font-size="14.00">FloraChina.ChineseOakSpecies2</text>
</g>
<!-- FloraChina.OakGenus\nFloraMexico.OakGenus -->
<g id="node3" class="node"><title>FloraChina.OakGenus\nFloraMexico.OakGenus</title>
<path fill="#eeeeee" stroke="black" d="M136,-146C136,-146 12,-146 12,-146 6,-146 0,-140 0,-134 0,-134 0,-120 0,-120 0,-114 6,-108 12,-108 12,-108 136,-108 136,-108 142,-108 148,-114 148,-120 148,-120 148,-134 148,-134 148,-140 142,-146 136,-146"/>
<text text-anchor="middle" x="74" y="-130.8" font-family="Times,serif" font-size="14.00">FloraChina.OakGenus</text>
<text text-anchor="middle" x="74" y="-115.8" font-family="Times,serif" font-size="14.00">FloraMexico.OakGenus</text>
</g>
<!-- FloraChina.ChineseOakSpecies2&#45;&gt;FloraChina.OakGenus\nFloraMexico.OakGenus -->
<g id="edge3" class="edge"><title>FloraChina.ChineseOakSpecies2&#45;&gt;FloraChina.OakGenus\nFloraMexico.OakGenus</title>
<path fill="none" stroke="#000000" d="M233.232,-110.246C208.575,-112.857 182.289,-115.64 158.366,-118.173"/>
<polygon fill="#000000" stroke="#000000" points="157.846,-114.708 148.27,-119.242 158.583,-121.669 157.846,-114.708"/>
</g>
<!-- FloraChina.ChineseOakSpecies2&#45;&gt;FloraMexico.MexicanOakSpecies1 -->
<g id="edge1" class="edge"><title>FloraChina.ChineseOakSpecies2&#45;&gt;FloraMexico.MexicanOakSpecies1</title>
<path fill="none" stroke="#0000ff" stroke-dasharray="1,5" d="M331,-118.141C331,-124.024 331,-129.907 331,-135.79"/>
</g>
<!-- FloraMexico.MexicanOakSpecies1&#45;&gt;FloraChina.OakGenus\nFloraMexico.OakGenus -->
<g id="edge2" class="edge"><title>FloraMexico.MexicanOakSpecies1&#45;&gt;FloraChina.OakGenus\nFloraMexico.OakGenus</title>
<path fill="none" stroke="#000000" d="M218.895,-142.236C198.551,-140.082 177.641,-137.868 158.283,-135.818"/>
<polygon fill="#000000" stroke="#000000" points="158.626,-132.335 148.313,-134.763 157.889,-139.296 158.626,-132.335"/>
</g>
<!-- FloraMexico.MexicanOakSpecies2 -->
<g id="node5" class="node"><title>FloraMexico.MexicanOakSpecies2</title>
<polygon fill="#ffffcc" stroke="black" points="808.06,-92.5442 808.06,-107.456 721.914,-118 600.086,-118 513.94,-107.456 513.94,-92.5442 600.086,-82 721.914,-82 808.06,-92.5442"/>
<text text-anchor="middle" x="661" y="-96.3" font-family="Times,serif" font-size="14.00">FloraMexico.MexicanOakSpecies2</text>
</g>
<!-- FloraMexico.MexicanOakSpecies2&#45;&gt;FloraChina.ChineseOakSpecies2 -->
<g id="edge5" class="edge"><title>FloraMexico.MexicanOakSpecies2&#45;&gt;FloraChina.ChineseOakSpecies2</title>
<path fill="none" stroke="#ff0000" d="M513.746,-100C488.484,-100 462.654,-100 438.691,-100"/>
<polygon fill="#ff0000" stroke="#ff0000" points="438.543,-96.5001 428.543,-100 438.543,-103.5 438.543,-96.5001"/>
</g>
<!-- Legend -->
<g id="node6" class="node"><title>Legend</title>
<polygon fill="white" stroke="black" points="943.5,-200.5 844.5,-200.5 844.5,0.5 943.5,0.5 943.5,-200.5"/>
<polygon fill="none" stroke="black" points="845,-174 845,-200 944,-200 944,-174 845,-174"/>
<text text-anchor="start" x="870" y="-183.3" font-family="Arial Black" font-size="14.00"> Nodes</text>
<polygon fill="#ccffcc" stroke="none" points="845,-149 845,-174 927,-174 927,-149 845,-149"/>
<polygon fill="none" stroke="black" points="845,-149 845,-174 927,-174 927,-149 845,-149"/>
<text text-anchor="start" x="855.5" y="-157.8" font-family="Times,serif" font-size="14.00">FloraChina</text>
<polygon fill="none" stroke="black" points="927,-149 927,-174 944,-174 944,-149 927,-149"/>
<text text-anchor="start" x="932" y="-157.8" font-family="Times,serif" font-size="14.00">2</text>
<polygon fill="#eeeeee" stroke="none" points="845,-124 845,-149 927,-149 927,-124 845,-124"/>
<polygon fill="none" stroke="black" points="845,-124 845,-149 927,-149 927,-124 845,-124"/>
<text text-anchor="start" x="870.5" y="-132.8" font-family="Times,serif" font-size="14.00">comb</text>
<polygon fill="none" stroke="black" points="927,-124 927,-149 944,-149 944,-124 927,-124"/>
<text text-anchor="start" x="932" y="-132.8" font-family="Times,serif" font-size="14.00">1</text>
<polygon fill="#ffffcc" stroke="none" points="845,-99 845,-124 927,-124 927,-99 845,-99"/>
<polygon fill="none" stroke="black" points="845,-99 845,-124 927,-124 927,-99 845,-99"/>
<text text-anchor="start" x="850.5" y="-107.8" font-family="Times,serif" font-size="14.00">FloraMexico</text>
<polygon fill="none" stroke="black" points="927,-99 927,-124 944,-124 944,-99 927,-99"/>
<text text-anchor="start" x="932" y="-107.8" font-family="Times,serif" font-size="14.00">2</text>
<polygon fill="none" stroke="black" points="845,-74 845,-99 944,-99 944,-74 845,-74"/>
<text text-anchor="start" x="868.5" y="-82.8" font-family="Arial Black" font-size="14.00"> Edges </text>
<polygon fill="none" stroke="black" points="845,-49 845,-74 927,-74 927,-49 845,-49"/>
<text text-anchor="start" x="863" y="-57.8" font-family="Times,serif" font-size="14.00" fill="#0000ff">overlaps</text>
<polygon fill="none" stroke="black" points="927,-49 927,-74 944,-74 944,-49 927,-49"/>
<text text-anchor="start" x="932" y="-57.8" font-family="Times,serif" font-size="14.00">1</text>
<polygon fill="none" stroke="black" points="845,-24 845,-49 927,-49 927,-24 845,-24"/>
<text text-anchor="start" x="872" y="-32.8" font-family="Times,serif" font-size="14.00" fill="#000000">input</text>
<polygon fill="none" stroke="black" points="927,-24 927,-49 944,-49 944,-24 927,-24"/>
<text text-anchor="start" x="932" y="-32.8" font-family="Times,serif" font-size="14.00">3</text>
<polygon fill="none" stroke="black" points="845,1 845,-24 927,-24 927,1 845,1"/>
<text text-anchor="start" x="864.5" y="-7.8" font-family="Times,serif" font-size="14.00" fill="#ff0000">inferred</text>
<polygon fill="none" stroke="black" points="927,1 927,-24 944,-24 944,1 927,1"/>
<text text-anchor="start" x="932" y="-7.8" font-family="Times,serif" font-size="14.00">1</text>
</g>
</g>
</svg>
