<?xml version="1.0" encoding="UTF-8" standalone="no"?>
<!DOCTYPE svg PUBLIC "-//W3C//DTD SVG 1.1//EN"
 "http://www.w3.org/Graphics/SVG/1.1/DTD/svg11.dtd">
<!-- Generated by graphviz version 2.36.0 (20140111.2315)
 -->
<!-- Title: %3 Pages: 1 -->
<svg width="914pt" height="193pt"
 viewBox="0.00 0.00 914.00 193.00" xmlns="http://www.w3.org/2000/svg" xmlns:xlink="http://www.w3.org/1999/xlink">
<g id="graph0" class="graph" transform="scale(1 1) rotate(0) translate(4 189)">
<title>%3</title>
<polygon fill="white" stroke="none" points="-4,4 -4,-189 910,-189 910,4 -4,4"/>
<!-- FloraChina.OakGenus -->
<g id="node1" class="node"><title>FloraChina.OakGenus</title>
<polygon fill="#ccffcc" stroke="black" points="460,-182 322,-182 322,-146 460,-146 460,-182"/>
<text text-anchor="middle" x="391" y="-160.3" font-family="Times,serif" font-size="14.00">FloraChina.OakGenus</text>
</g>
<!-- FloraMexico.MexicanOakSpecies1 -->
<g id="node4" class="node"><title>FloraMexico.MexicanOakSpecies1</title>
<polygon fill="#ffffcc" stroke="black" points="538.06,-102.544 538.06,-117.456 451.914,-128 330.086,-128 243.94,-117.456 243.94,-102.544 330.086,-92 451.914,-92 538.06,-102.544"/>
<text text-anchor="middle" x="391" y="-106.3" font-family="Times,serif" font-size="14.00">FloraMexico.MexicanOakSpecies1</text>
</g>
<!-- FloraChina.OakGenus&#45;&gt;FloraMexico.MexicanOakSpecies1 -->
<g id="edge3" class="edge"><title>FloraChina.OakGenus&#45;&gt;FloraMexico.MexicanOakSpecies1</title>
<path fill="none" stroke="#0000ff" stroke-dasharray="1,5" d="M391,-145.79C391,-139.907 391,-134.024 391,-128.141"/>
</g>
<!-- FloraMexico.OakGenus -->
<g id="node5" class="node"><title>FloraMexico.OakGenus</title>
<polygon fill="#ffffcc" stroke="black" points="208.234,-33.5442 208.234,-48.4558 147.175,-59 60.8249,-59 -0.233914,-48.4558 -0.233914,-33.5442 60.8249,-23 147.175,-23 208.234,-33.5442"/>
<text text-anchor="middle" x="104" y="-37.3" font-family="Times,serif" font-size="14.00">FloraMexico.OakGenus</text>
</g>
<!-- FloraChina.OakGenus&#45;&gt;FloraMexico.OakGenus -->
<g id="edge1" class="edge"><title>FloraChina.OakGenus&#45;&gt;FloraMexico.OakGenus</title>
<path fill="none" stroke="#0000ff" stroke-dasharray="1,5" d="M321.793,-157.45C296.667,-153.481 268.401,-147.134 244,-137 197.685,-117.764 151.225,-81.3928 125.478,-59.3605"/>
</g>
<!-- FloraMexico.MexicanOakSpecies2 -->
<g id="node6" class="node"><title>FloraMexico.MexicanOakSpecies2</title>
<polygon fill="#ffffcc" stroke="black" points="538.06,-10.5442 538.06,-25.4558 451.914,-36 330.086,-36 243.94,-25.4558 243.94,-10.5442 330.086,-3.55271e-15 451.914,-0 538.06,-10.5442"/>
<text text-anchor="middle" x="391" y="-14.3" font-family="Times,serif" font-size="14.00">FloraMexico.MexicanOakSpecies2</text>
</g>
<!-- FloraChina.OakGenus&#45;&gt;FloraMexico.MexicanOakSpecies2 -->
<g id="edge4" class="edge"><title>FloraChina.OakGenus&#45;&gt;FloraMexico.MexicanOakSpecies2</title>
<path fill="none" stroke="#0000ff" stroke-dasharray="1,5" d="M460.408,-169.89C496.304,-168.637 536.578,-159.425 556,-128 583.919,-82.826 518.29,-52.1543 461.709,-34.9091"/>
</g>
<!-- FloraChina.ChineseOakSpecies1 -->
<g id="node2" class="node"><title>FloraChina.ChineseOakSpecies1</title>
<polygon fill="#ccffcc" stroke="black" points="769.5,-128 574.5,-128 574.5,-92 769.5,-92 769.5,-128"/>
<text text-anchor="middle" x="672" y="-106.3" font-family="Times,serif" font-size="14.00">FloraChina.ChineseOakSpecies1</text>
</g>
<!-- FloraChina.ChineseOakSpecies1&#45;&gt;FloraChina.OakGenus -->
<g id="edge11" class="edge"><title>FloraChina.ChineseOakSpecies1&#45;&gt;FloraChina.OakGenus</title>
<path fill="none" stroke="#000000" d="M583.405,-128.008C568.272,-131.055 552.688,-134.151 538,-137 515.946,-141.278 491.987,-145.772 469.975,-149.84"/>
<polygon fill="#000000" stroke="#000000" points="469.213,-146.421 460.013,-151.676 470.482,-153.305 469.213,-146.421"/>
</g>
<!-- FloraChina.ChineseOakSpecies1&#45;&gt;FloraMexico.MexicanOakSpecies1 -->
<g id="edge8" class="edge"><title>FloraChina.ChineseOakSpecies1&#45;&gt;FloraMexico.MexicanOakSpecies1</title>
<path fill="none" stroke="#000000" d="M574.202,-110C565.831,-110 557.233,-110 548.546,-110"/>
<polygon fill="#000000" stroke="#000000" points="548.314,-106.5 538.314,-110 548.314,-113.5 548.314,-106.5"/>
</g>
<!-- FloraChina.ChineseOakSpecies2 -->
<g id="node3" class="node"><title>FloraChina.ChineseOakSpecies2</title>
<polygon fill="#ccffcc" stroke="black" points="769.5,-182 574.5,-182 574.5,-146 769.5,-146 769.5,-182"/>
<text text-anchor="middle" x="672" y="-160.3" font-family="Times,serif" font-size="14.00">FloraChina.ChineseOakSpecies2</text>
</g>
<!-- FloraChina.ChineseOakSpecies2&#45;&gt;FloraChina.OakGenus -->
<g id="edge9" class="edge"><title>FloraChina.ChineseOakSpecies2&#45;&gt;FloraChina.OakGenus</title>
<path fill="none" stroke="#000000" d="M574.202,-164C540.26,-164 502.586,-164 470.345,-164"/>
<polygon fill="#000000" stroke="#000000" points="470.08,-160.5 460.08,-164 470.08,-167.5 470.08,-160.5"/>
</g>
<!-- FloraChina.ChineseOakSpecies2&#45;&gt;FloraMexico.MexicanOakSpecies1 -->
<g id="edge5" class="edge"><title>FloraChina.ChineseOakSpecies2&#45;&gt;FloraMexico.MexicanOakSpecies1</title>
<path fill="none" stroke="#0000ff" stroke-dasharray="1,5" d="M583.405,-145.992C568.272,-142.945 552.688,-139.849 538,-137 517.756,-133.074 495.906,-128.964 475.432,-125.17"/>
</g>
<!-- FloraChina.ChineseOakSpecies2&#45;&gt;FloraMexico.OakGenus -->
<g id="edge2" class="edge"><title>FloraChina.ChineseOakSpecies2&#45;&gt;FloraMexico.OakGenus</title>
<path fill="none" stroke="#0000ff" stroke-dasharray="1,5" d="M589.053,-145.936C583.749,-143.346 578.671,-140.385 574,-137 550.644,-120.073 562.744,-97.8236 538,-83 510.363,-66.4433 327.216,-53.2992 208.132,-46.3737"/>
</g>
<!-- FloraChina.ChineseOakSpecies2&#45;&gt;FloraMexico.MexicanOakSpecies2 -->
<g id="edge6" class="edge"><title>FloraChina.ChineseOakSpecies2&#45;&gt;FloraMexico.MexicanOakSpecies2</title>
<path fill="none" stroke="#0000ff" stroke-dasharray="1,5" d="M586.403,-145.89C581.974,-143.308 577.795,-140.362 574,-137 542.677,-109.251 570.084,-76.8655 538,-50 527.555,-41.2538 515.254,-34.7492 502.297,-29.9344"/>
</g>
<!-- FloraMexico.MexicanOakSpecies1&#45;&gt;FloraMexico.OakGenus -->
<g id="edge7" class="edge"><title>FloraMexico.MexicanOakSpecies1&#45;&gt;FloraMexico.OakGenus</title>
<path fill="none" stroke="#000000" d="M313.699,-93.9461C291.204,-89.0323 266.57,-83.4744 244,-78 220.111,-72.2055 194.041,-65.3965 171,-59.21"/>
<polygon fill="#000000" stroke="#000000" points="171.893,-55.8257 161.326,-56.6015 170.07,-62.5843 171.893,-55.8257"/>
</g>
<!-- FloraMexico.MexicanOakSpecies2&#45;&gt;FloraMexico.OakGenus -->
<g id="edge10" class="edge"><title>FloraMexico.MexicanOakSpecies2&#45;&gt;FloraMexico.OakGenus</title>
<path fill="none" stroke="#000000" d="M264.995,-28.0881C248.398,-29.4275 231.48,-30.7929 215.159,-32.11"/>
<polygon fill="#000000" stroke="#000000" points="214.769,-28.63 205.083,-32.9231 215.332,-35.6073 214.769,-28.63"/>
</g>
<!-- Legend -->
<g id="node7" class="node"><title>Legend</title>
<polygon fill="white" stroke="black" points="905.5,-185.5 806.5,-185.5 806.5,-34.5 905.5,-34.5 905.5,-185.5"/>
<polygon fill="none" stroke="black" points="807,-159 807,-185 906,-185 906,-159 807,-159"/>
<text text-anchor="start" x="832" y="-168.3" font-family="Arial Black" font-size="14.00"> Nodes</text>
<polygon fill="#ccffcc" stroke="none" points="807,-134 807,-159 889,-159 889,-134 807,-134"/>
<polygon fill="none" stroke="black" points="807,-134 807,-159 889,-159 889,-134 807,-134"/>
<text text-anchor="start" x="817.5" y="-142.8" font-family="Times,serif" font-size="14.00">FloraChina</text>
<polygon fill="none" stroke="black" points="889,-134 889,-159 906,-159 906,-134 889,-134"/>
<text text-anchor="start" x="894" y="-142.8" font-family="Times,serif" font-size="14.00">3</text>
<polygon fill="#ffffcc" stroke="none" points="807,-109 807,-134 889,-134 889,-109 807,-109"/>
<polygon fill="none" stroke="black" points="807,-109 807,-134 889,-134 889,-109 807,-109"/>
<text text-anchor="start" x="812.5" y="-117.8" font-family="Times,serif" font-size="14.00">FloraMexico</text>
<polygon fill="none" stroke="black" points="889,-109 889,-134 906,-134 906,-109 889,-109"/>
<text text-anchor="start" x="894" y="-117.8" font-family="Times,serif" font-size="14.00">3</text>
<polygon fill="none" stroke="black" points="807,-84 807,-109 906,-109 906,-84 807,-84"/>
<text text-anchor="start" x="830.5" y="-92.8" font-family="Arial Black" font-size="14.00"> Edges </text>
<polygon fill="none" stroke="black" points="807,-59 807,-84 889,-84 889,-59 807,-59"/>
<text text-anchor="start" x="825" y="-67.8" font-family="Times,serif" font-size="14.00" fill="#0000ff">overlaps</text>
<polygon fill="none" stroke="black" points="889,-59 889,-84 906,-84 906,-59 889,-59"/>
<text text-anchor="start" x="894" y="-67.8" font-family="Times,serif" font-size="14.00">6</text>
<polygon fill="none" stroke="black" points="807,-34 807,-59 889,-59 889,-34 807,-34"/>
<text text-anchor="start" x="834" y="-42.8" font-family="Times,serif" font-size="14.00" fill="#000000">input</text>
<polygon fill="none" stroke="black" points="889,-34 889,-59 906,-59 906,-34 889,-34"/>
<text text-anchor="start" x="894" y="-42.8" font-family="Times,serif" font-size="14.00">5</text>
</g>
</g>
</svg>
