<?xml version="1.0" encoding="UTF-8" standalone="no"?>
<!DOCTYPE svg PUBLIC "-//W3C//DTD SVG 1.1//EN"
 "http://www.w3.org/Graphics/SVG/1.1/DTD/svg11.dtd">
<!-- Generated by graphviz version 2.36.0 (20140111.2315)
 -->
<!-- Title: %3 Pages: 1 -->
<svg width="797pt" height="566pt"
 viewBox="0.00 0.00 797.00 566.00" xmlns="http://www.w3.org/2000/svg" xmlns:xlink="http://www.w3.org/1999/xlink">
<g id="graph0" class="graph" transform="scale(1 1) rotate(0) translate(4 562)">
<title>%3</title>
<polygon fill="white" stroke="none" points="-4,4 -4,-562 793,-562 793,4 -4,4"/>
<!-- 6 -->
<g id="node1" class="node"><title>6</title>
<path fill="#a0ffa0" stroke="#006400" d="M128,-414C128,-414 98,-414 98,-414 92,-414 86,-408 86,-402 86,-402 86,-390 86,-390 86,-384 92,-378 98,-378 98,-378 128,-378 128,-378 134,-378 140,-384 140,-390 140,-390 140,-402 140,-402 140,-408 134,-414 128,-414"/>
<text text-anchor="middle" x="113" y="-392.3" font-family="Helvetica,sans-Serif" font-stretch="condensed" font-size="14.00">1, 4, 5</text>
</g>
<!-- 7 -->
<g id="node2" class="node"><title>7</title>
<polygon fill="none" stroke="#006400" stroke-dasharray="5,2" points="129,-342 75,-342 75,-306 129,-306 129,-342"/>
<text text-anchor="middle" x="102" y="-320.3" font-family="Helvetica,sans-Serif" font-stretch="condensed" font-size="14.00">4, 5</text>
</g>
<!-- 6&#45;&gt;7 -->
<g id="edge24" class="edge"><title>6&#45;&gt;7</title>
<path fill="none" stroke="#006400" stroke-dasharray="5,2" d="M110.281,-377.697C109.069,-369.983 107.612,-360.712 106.261,-352.112"/>
<polygon fill="#006400" stroke="#006400" points="109.698,-351.44 104.688,-342.104 102.783,-352.526 109.698,-351.44"/>
</g>
<!-- 14 -->
<g id="node5" class="node"><title>14</title>
<polygon fill="none" stroke="#006400" stroke-dasharray="5,2" points="273,-342 219,-342 219,-306 273,-306 273,-342"/>
<text text-anchor="middle" x="246" y="-320.3" font-family="Helvetica,sans-Serif" font-stretch="condensed" font-size="14.00">1, 5</text>
</g>
<!-- 6&#45;&gt;14 -->
<g id="edge25" class="edge"><title>6&#45;&gt;14</title>
<path fill="none" stroke="#006400" stroke-dasharray="5,2" d="M140.235,-380.666C160.318,-370.096 187.844,-355.609 209.78,-344.063"/>
<polygon fill="#006400" stroke="#006400" points="211.582,-347.07 218.801,-339.315 208.322,-340.876 211.582,-347.07"/>
</g>
<!-- 22 -->
<g id="node9" class="node"><title>22</title>
<polygon fill="none" stroke="#006400" stroke-dasharray="5,2" points="489,-342 435,-342 435,-306 489,-306 489,-342"/>
<text text-anchor="middle" x="462" y="-320.3" font-family="Helvetica,sans-Serif" font-stretch="condensed" font-size="14.00">1, 4</text>
</g>
<!-- 6&#45;&gt;22 -->
<g id="edge26" class="edge"><title>6&#45;&gt;22</title>
<path fill="none" stroke="#006400" stroke-dasharray="5,2" d="M140.171,-381.094C143.103,-379.919 146.082,-378.856 149,-378 264.99,-343.991 304.77,-375.192 424.89,-341.766"/>
<polygon fill="#006400" stroke="#006400" points="426.187,-345.035 434.829,-338.906 424.251,-338.308 426.187,-345.035"/>
</g>
<!-- 15 -->
<g id="node6" class="node"><title>15</title>
<polygon fill="none" stroke="#006400" stroke-dasharray="5,2" points="273,-270 219,-270 219,-234 273,-234 273,-270"/>
<text text-anchor="middle" x="246" y="-248.3" font-family="Helvetica,sans-Serif" font-stretch="condensed" font-size="14.00">5</text>
</g>
<!-- 7&#45;&gt;15 -->
<g id="edge27" class="edge"><title>7&#45;&gt;15</title>
<path fill="none" stroke="#006400" stroke-dasharray="5,2" d="M129.085,-309.834C151.769,-298.807 184.357,-282.966 209.368,-270.807"/>
<polygon fill="#006400" stroke="#006400" points="211.083,-273.865 218.547,-266.345 208.023,-267.57 211.083,-273.865"/>
</g>
<!-- 23 -->
<g id="node10" class="node"><title>23</title>
<polygon fill="none" stroke="#006400" stroke-dasharray="5,2" points="417,-270 363,-270 363,-234 417,-234 417,-270"/>
<text text-anchor="middle" x="390" y="-248.3" font-family="Helvetica,sans-Serif" font-stretch="condensed" font-size="14.00">4</text>
</g>
<!-- 7&#45;&gt;23 -->
<g id="edge28" class="edge"><title>7&#45;&gt;23</title>
<path fill="none" stroke="#006400" stroke-dasharray="5,2" d="M129.244,-309.327C132.162,-308.107 135.117,-306.969 138,-306 177.378,-292.765 292.386,-270.815 352.466,-259.778"/>
<polygon fill="#006400" stroke="#006400" points="353.459,-263.155 362.666,-257.912 352.199,-256.269 353.459,-263.155"/>
</g>
<!-- 10 -->
<g id="node3" class="node"><title>10</title>
<path fill="#a0ffa0" stroke="#006400" d="M200,-414C200,-414 170,-414 170,-414 164,-414 158,-408 158,-402 158,-402 158,-390 158,-390 158,-384 164,-378 170,-378 170,-378 200,-378 200,-378 206,-378 212,-384 212,-390 212,-390 212,-402 212,-402 212,-408 206,-414 200,-414"/>
<text text-anchor="middle" x="185" y="-392.3" font-family="Helvetica,sans-Serif" font-stretch="condensed" font-size="14.00">1, 3, 5</text>
</g>
<!-- 11 -->
<g id="node4" class="node"><title>11</title>
<polygon fill="none" stroke="#006400" stroke-dasharray="5,2" points="201,-342 147,-342 147,-306 201,-306 201,-342"/>
<text text-anchor="middle" x="174" y="-320.3" font-family="Helvetica,sans-Serif" font-stretch="condensed" font-size="14.00">3, 5</text>
</g>
<!-- 10&#45;&gt;11 -->
<g id="edge36" class="edge"><title>10&#45;&gt;11</title>
<path fill="none" stroke="#006400" stroke-dasharray="5,2" d="M182.281,-377.697C181.069,-369.983 179.612,-360.712 178.261,-352.112"/>
<polygon fill="#006400" stroke="#006400" points="181.698,-351.44 176.688,-342.104 174.783,-352.526 181.698,-351.44"/>
</g>
<!-- 10&#45;&gt;14 -->
<g id="edge37" class="edge"><title>10&#45;&gt;14</title>
<path fill="none" stroke="#006400" stroke-dasharray="5,2" d="M200.079,-377.697C207.392,-369.305 216.31,-359.07 224.335,-349.861"/>
<polygon fill="#006400" stroke="#006400" points="227.164,-351.943 231.095,-342.104 221.886,-347.344 227.164,-351.943"/>
</g>
<!-- 26 -->
<g id="node13" class="node"><title>26</title>
<polygon fill="none" stroke="#006400" stroke-dasharray="5,2" points="561,-342 507,-342 507,-306 561,-306 561,-342"/>
<text text-anchor="middle" x="534" y="-320.3" font-family="Helvetica,sans-Serif" font-stretch="condensed" font-size="14.00">1, 3</text>
</g>
<!-- 10&#45;&gt;26 -->
<g id="edge38" class="edge"><title>10&#45;&gt;26</title>
<path fill="none" stroke="#006400" stroke-dasharray="5,2" d="M212.171,-381.094C215.103,-379.919 218.082,-378.856 221,-378 336.99,-343.991 376.77,-375.192 496.89,-341.766"/>
<polygon fill="#006400" stroke="#006400" points="498.187,-345.035 506.829,-338.906 496.251,-338.308 498.187,-345.035"/>
</g>
<!-- 11&#45;&gt;15 -->
<g id="edge39" class="edge"><title>11&#45;&gt;15</title>
<path fill="none" stroke="#006400" stroke-dasharray="5,2" d="M191.798,-305.697C200.604,-297.135 211.382,-286.656 221.001,-277.304"/>
<polygon fill="#006400" stroke="#006400" points="223.677,-279.585 228.407,-270.104 218.797,-274.566 223.677,-279.585"/>
</g>
<!-- 27 -->
<g id="node14" class="node"><title>27</title>
<polygon fill="none" stroke="#006400" stroke-dasharray="5,2" points="489,-270 435,-270 435,-234 489,-234 489,-270"/>
<text text-anchor="middle" x="462" y="-248.3" font-family="Helvetica,sans-Serif" font-stretch="condensed" font-size="14.00">3</text>
</g>
<!-- 11&#45;&gt;27 -->
<g id="edge40" class="edge"><title>11&#45;&gt;27</title>
<path fill="none" stroke="#006400" stroke-dasharray="5,2" d="M201.204,-309.202C204.129,-308.006 207.097,-306.908 210,-306 299.892,-277.881 331.101,-297.683 425.184,-269.751"/>
<polygon fill="#006400" stroke="#006400" points="426.265,-273.08 434.796,-266.798 424.209,-266.389 426.265,-273.08"/>
</g>
<!-- 14&#45;&gt;15 -->
<g id="edge46" class="edge"><title>14&#45;&gt;15</title>
<path fill="none" stroke="#006400" stroke-dasharray="5,2" d="M246,-305.697C246,-297.983 246,-288.712 246,-280.112"/>
<polygon fill="#006400" stroke="#006400" points="249.5,-280.104 246,-270.104 242.5,-280.104 249.5,-280.104"/>
</g>
<!-- 30 -->
<g id="node17" class="node"><title>30</title>
<polygon fill="none" stroke="#006400" stroke-dasharray="5,2" points="561,-270 507,-270 507,-234 561,-234 561,-270"/>
<text text-anchor="middle" x="534" y="-248.3" font-family="Helvetica,sans-Serif" font-stretch="condensed" font-size="14.00">1</text>
</g>
<!-- 14&#45;&gt;30 -->
<g id="edge47" class="edge"><title>14&#45;&gt;30</title>
<path fill="none" stroke="#006400" stroke-dasharray="5,2" d="M273.204,-309.202C276.129,-308.006 279.097,-306.908 282,-306 371.892,-277.881 403.101,-297.683 497.184,-269.751"/>
<polygon fill="#006400" stroke="#006400" points="498.265,-273.08 506.796,-266.798 496.209,-266.389 498.265,-273.08"/>
</g>
<!-- 31 -->
<g id="node18" class="node"><title>31</title>
<polygon fill="none" stroke="#006400" stroke-dasharray="5,2" points="489,-198 435,-198 435,-162 489,-162 489,-198"/>
</g>
<!-- 15&#45;&gt;31 -->
<g id="edge48" class="edge"><title>15&#45;&gt;31</title>
<path fill="none" stroke="#006400" stroke-dasharray="5,2" d="M273.357,-242.134C311.903,-229.643 382.29,-206.832 425.333,-192.883"/>
<polygon fill="#006400" stroke="#006400" points="426.432,-196.206 434.866,-189.794 424.274,-189.547 426.432,-196.206"/>
</g>
<!-- 18 -->
<g id="node7" class="node"><title>18</title>
<path fill="#a0ffa0" stroke="#006400" d="M532,-414C532,-414 502,-414 502,-414 496,-414 490,-408 490,-402 490,-402 490,-390 490,-390 490,-384 496,-378 502,-378 502,-378 532,-378 532,-378 538,-378 544,-384 544,-390 544,-390 544,-402 544,-402 544,-408 538,-414 532,-414"/>
<text text-anchor="middle" x="517" y="-392.3" font-family="Helvetica,sans-Serif" font-stretch="condensed" font-size="14.00">1, 3, 4</text>
</g>
<!-- 19 -->
<g id="node8" class="node"><title>19</title>
<polygon fill="none" stroke="#006400" stroke-dasharray="5,2" points="417,-342 363,-342 363,-306 417,-306 417,-342"/>
<text text-anchor="middle" x="390" y="-320.3" font-family="Helvetica,sans-Serif" font-stretch="condensed" font-size="14.00">3, 4</text>
</g>
<!-- 18&#45;&gt;19 -->
<g id="edge56" class="edge"><title>18&#45;&gt;19</title>
<path fill="none" stroke="#006400" stroke-dasharray="5,2" d="M489.755,-379.983C471.173,-369.741 446.362,-356.066 426.133,-344.916"/>
<polygon fill="#006400" stroke="#006400" points="427.647,-341.754 417.2,-339.992 424.268,-347.884 427.647,-341.754"/>
</g>
<!-- 18&#45;&gt;22 -->
<g id="edge57" class="edge"><title>18&#45;&gt;22</title>
<path fill="none" stroke="#006400" stroke-dasharray="5,2" d="M503.404,-377.697C496.877,-369.389 488.932,-359.277 481.753,-350.141"/>
<polygon fill="#006400" stroke="#006400" points="484.369,-347.805 475.439,-342.104 478.865,-352.13 484.369,-347.805"/>
</g>
<!-- 18&#45;&gt;26 -->
<g id="edge58" class="edge"><title>18&#45;&gt;26</title>
<path fill="none" stroke="#006400" stroke-dasharray="5,2" d="M521.202,-377.697C523.096,-369.898 525.377,-360.509 527.484,-351.829"/>
<polygon fill="#006400" stroke="#006400" points="530.887,-352.648 529.846,-342.104 524.085,-350.996 530.887,-352.648"/>
</g>
<!-- 19&#45;&gt;23 -->
<g id="edge59" class="edge"><title>19&#45;&gt;23</title>
<path fill="none" stroke="#006400" stroke-dasharray="5,2" d="M390,-305.697C390,-297.983 390,-288.712 390,-280.112"/>
<polygon fill="#006400" stroke="#006400" points="393.5,-280.104 390,-270.104 386.5,-280.104 393.5,-280.104"/>
</g>
<!-- 19&#45;&gt;27 -->
<g id="edge60" class="edge"><title>19&#45;&gt;27</title>
<path fill="none" stroke="#006400" stroke-dasharray="5,2" d="M407.798,-305.697C416.604,-297.135 427.382,-286.656 437.001,-277.304"/>
<polygon fill="#006400" stroke="#006400" points="439.677,-279.585 444.407,-270.104 434.797,-274.566 439.677,-279.585"/>
</g>
<!-- 22&#45;&gt;23 -->
<g id="edge66" class="edge"><title>22&#45;&gt;23</title>
<path fill="none" stroke="#006400" stroke-dasharray="5,2" d="M444.202,-305.697C435.396,-297.135 424.618,-286.656 414.999,-277.304"/>
<polygon fill="#006400" stroke="#006400" points="417.203,-274.566 407.593,-270.104 412.323,-279.585 417.203,-274.566"/>
</g>
<!-- 22&#45;&gt;30 -->
<g id="edge67" class="edge"><title>22&#45;&gt;30</title>
<path fill="none" stroke="#006400" stroke-dasharray="5,2" d="M479.798,-305.697C488.604,-297.135 499.382,-286.656 509.001,-277.304"/>
<polygon fill="#006400" stroke="#006400" points="511.677,-279.585 516.407,-270.104 506.797,-274.566 511.677,-279.585"/>
</g>
<!-- 23&#45;&gt;31 -->
<g id="edge68" class="edge"><title>23&#45;&gt;31</title>
<path fill="none" stroke="#006400" stroke-dasharray="5,2" d="M407.798,-233.697C416.604,-225.135 427.382,-214.656 437.001,-205.304"/>
<polygon fill="#006400" stroke="#006400" points="439.677,-207.585 444.407,-198.104 434.797,-202.566 439.677,-207.585"/>
</g>
<!-- 24 -->
<g id="node11" class="node"><title>24</title>
<path fill="#a0ffa0" stroke="#006400" d="M777,-414C777,-414 747,-414 747,-414 741,-414 735,-408 735,-402 735,-402 735,-390 735,-390 735,-384 741,-378 747,-378 747,-378 777,-378 777,-378 783,-378 789,-384 789,-390 789,-390 789,-402 789,-402 789,-408 783,-414 777,-414"/>
<text text-anchor="middle" x="762" y="-392.3" font-family="Helvetica,sans-Serif" font-stretch="condensed" font-size="14.00">1, 2, 3</text>
</g>
<!-- 25 -->
<g id="node12" class="node"><title>25</title>
<polygon fill="none" stroke="#006400" stroke-dasharray="5,2" points="705,-342 651,-342 651,-306 705,-306 705,-342"/>
<text text-anchor="middle" x="678" y="-320.3" font-family="Helvetica,sans-Serif" font-stretch="condensed" font-size="14.00">2, 3</text>
</g>
<!-- 24&#45;&gt;25 -->
<g id="edge69" class="edge"><title>24&#45;&gt;25</title>
<path fill="none" stroke="#006400" stroke-dasharray="5,2" d="M741.236,-377.697C730.759,-368.965 717.889,-358.24 706.5,-348.75"/>
<polygon fill="#006400" stroke="#006400" points="708.448,-345.817 698.525,-342.104 703.967,-351.195 708.448,-345.817"/>
</g>
<!-- 24&#45;&gt;26 -->
<g id="edge70" class="edge"><title>24&#45;&gt;26</title>
<path fill="none" stroke="#006400" stroke-dasharray="5,2" d="M734.736,-381.385C731.822,-380.153 728.873,-378.997 726,-378 661.665,-355.676 639.16,-364.473 570.762,-341.857"/>
<polygon fill="#006400" stroke="#006400" points="571.859,-338.533 561.264,-338.615 569.597,-345.158 571.859,-338.533"/>
</g>
<!-- 28 -->
<g id="node15" class="node"><title>28</title>
<polygon fill="none" stroke="#006400" stroke-dasharray="5,2" points="777,-342 723,-342 723,-306 777,-306 777,-342"/>
<text text-anchor="middle" x="750" y="-320.3" font-family="Helvetica,sans-Serif" font-stretch="condensed" font-size="14.00">1, 2</text>
</g>
<!-- 24&#45;&gt;28 -->
<g id="edge71" class="edge"><title>24&#45;&gt;28</title>
<path fill="none" stroke="#006400" stroke-dasharray="5,2" d="M759.034,-377.697C757.711,-369.983 756.122,-360.712 754.648,-352.112"/>
<polygon fill="#006400" stroke="#006400" points="758.072,-351.369 752.932,-342.104 751.172,-352.552 758.072,-351.369"/>
</g>
<!-- 25&#45;&gt;27 -->
<g id="edge72" class="edge"><title>25&#45;&gt;27</title>
<path fill="none" stroke="#006400" stroke-dasharray="5,2" d="M650.717,-309.439C647.807,-308.197 644.864,-307.023 642,-306 582.787,-284.849 562.07,-291.473 498.918,-269.948"/>
<polygon fill="#006400" stroke="#006400" points="499.878,-266.575 489.283,-266.561 497.556,-273.179 499.878,-266.575"/>
</g>
<!-- 29 -->
<g id="node16" class="node"><title>29</title>
<polygon fill="none" stroke="#006400" stroke-dasharray="5,2" points="633,-270 579,-270 579,-234 633,-234 633,-270"/>
<text text-anchor="middle" x="606" y="-248.3" font-family="Helvetica,sans-Serif" font-stretch="condensed" font-size="14.00">2</text>
</g>
<!-- 25&#45;&gt;29 -->
<g id="edge73" class="edge"><title>25&#45;&gt;29</title>
<path fill="none" stroke="#006400" stroke-dasharray="5,2" d="M660.202,-305.697C651.396,-297.135 640.618,-286.656 630.999,-277.304"/>
<polygon fill="#006400" stroke="#006400" points="633.203,-274.566 623.593,-270.104 628.323,-279.585 633.203,-274.566"/>
</g>
<!-- 26&#45;&gt;27 -->
<g id="edge74" class="edge"><title>26&#45;&gt;27</title>
<path fill="none" stroke="#006400" stroke-dasharray="5,2" d="M516.202,-305.697C507.396,-297.135 496.618,-286.656 486.999,-277.304"/>
<polygon fill="#006400" stroke="#006400" points="489.203,-274.566 479.593,-270.104 484.323,-279.585 489.203,-274.566"/>
</g>
<!-- 26&#45;&gt;30 -->
<g id="edge75" class="edge"><title>26&#45;&gt;30</title>
<path fill="none" stroke="#006400" stroke-dasharray="5,2" d="M534,-305.697C534,-297.983 534,-288.712 534,-280.112"/>
<polygon fill="#006400" stroke="#006400" points="537.5,-280.104 534,-270.104 530.5,-280.104 537.5,-280.104"/>
</g>
<!-- 27&#45;&gt;31 -->
<g id="edge76" class="edge"><title>27&#45;&gt;31</title>
<path fill="none" stroke="#006400" stroke-dasharray="5,2" d="M462,-233.697C462,-225.983 462,-216.712 462,-208.112"/>
<polygon fill="#006400" stroke="#006400" points="465.5,-208.104 462,-198.104 458.5,-208.104 465.5,-208.104"/>
</g>
<!-- 28&#45;&gt;29 -->
<g id="edge77" class="edge"><title>28&#45;&gt;29</title>
<path fill="none" stroke="#006400" stroke-dasharray="5,2" d="M722.915,-309.834C700.231,-298.807 667.643,-282.966 642.632,-270.807"/>
<polygon fill="#006400" stroke="#006400" points="643.977,-267.57 633.453,-266.345 640.917,-273.865 643.977,-267.57"/>
</g>
<!-- 28&#45;&gt;30 -->
<g id="edge78" class="edge"><title>28&#45;&gt;30</title>
<path fill="none" stroke="#006400" stroke-dasharray="5,2" d="M722.717,-309.439C719.807,-308.197 716.864,-307.023 714,-306 654.787,-284.849 634.07,-291.473 570.918,-269.948"/>
<polygon fill="#006400" stroke="#006400" points="571.878,-266.575 561.283,-266.561 569.556,-273.179 571.878,-266.575"/>
</g>
<!-- 29&#45;&gt;31 -->
<g id="edge79" class="edge"><title>29&#45;&gt;31</title>
<path fill="none" stroke="#006400" stroke-dasharray="5,2" d="M578.915,-237.834C556.231,-226.807 523.643,-210.966 498.632,-198.807"/>
<polygon fill="#006400" stroke="#006400" points="499.977,-195.57 489.453,-194.345 496.917,-201.865 499.977,-195.57"/>
</g>
<!-- 30&#45;&gt;31 -->
<g id="edge80" class="edge"><title>30&#45;&gt;31</title>
<path fill="none" stroke="#006400" stroke-dasharray="5,2" d="M516.202,-233.697C507.396,-225.135 496.618,-214.656 486.999,-205.304"/>
<polygon fill="#006400" stroke="#006400" points="489.203,-202.566 479.593,-198.104 484.323,-207.585 489.203,-202.566"/>
</g>
<!-- 0 -->
<g id="node19" class="node"><title>0</title>
<polygon fill="none" stroke="#ff0000" stroke-dasharray="5,2" points="421.088,-532.544 421.088,-547.456 390.575,-558 347.425,-558 316.912,-547.456 316.912,-532.544 347.425,-522 390.575,-522 421.088,-532.544"/>
<text text-anchor="middle" x="369" y="-536.3" font-family="Helvetica,sans-Serif" font-stretch="condensed" font-size="14.00">1, 2, 3, 4, 5</text>
</g>
<!-- 1 -->
<g id="node20" class="node"><title>1</title>
<polygon fill="none" stroke="#ff0000" stroke-dasharray="5,2" points="307.424,-460.544 307.424,-475.456 281.987,-486 246.013,-486 220.576,-475.456 220.576,-460.544 246.013,-450 281.987,-450 307.424,-460.544"/>
<text text-anchor="middle" x="264" y="-464.3" font-family="Helvetica,sans-Serif" font-stretch="condensed" font-size="14.00">2, 3, 4, 5</text>
</g>
<!-- 0&#45;&gt;1 -->
<g id="edge1" class="edge"><title>0&#45;&gt;1</title>
<path fill="none" stroke="#cc0000" stroke-dasharray="5,2" d="M336.083,-517.056C320.059,-506.373 301.194,-493.796 286.783,-484.189"/>
<polygon fill="#cc0000" stroke="#cc0000" points="334.385,-520.13 344.647,-522.765 338.268,-514.305 334.385,-520.13"/>
</g>
<!-- 16 -->
<g id="node23" class="node"><title>16</title>
<polygon fill="none" stroke="#ff0000" stroke-dasharray="5,2" points="639.424,-460.544 639.424,-475.456 613.987,-486 578.013,-486 552.576,-475.456 552.576,-460.544 578.013,-450 613.987,-450 639.424,-460.544"/>
<text text-anchor="middle" x="596" y="-464.3" font-family="Helvetica,sans-Serif" font-stretch="condensed" font-size="14.00">1, 2, 3, 4</text>
</g>
<!-- 0&#45;&gt;16 -->
<g id="edge5" class="edge"><title>0&#45;&gt;16</title>
<path fill="none" stroke="#cc0000" stroke-dasharray="5,2" d="M416.283,-524.419C459.864,-510.98 523.477,-491.364 562.169,-479.432"/>
<polygon fill="#cc0000" stroke="#cc0000" points="415.009,-521.149 406.484,-527.441 417.072,-527.839 415.009,-521.149"/>
</g>
<!-- 2 -->
<g id="node25" class="node"><title>2</title>
<polygon fill="none" stroke="#ff0000" stroke-dasharray="5,2" points="202.424,-460.544 202.424,-475.456 176.987,-486 141.013,-486 115.576,-475.456 115.576,-460.544 141.013,-450 176.987,-450 202.424,-460.544"/>
<text text-anchor="middle" x="159" y="-464.3" font-family="Helvetica,sans-Serif" font-stretch="condensed" font-size="14.00">1, 3, 4, 5</text>
</g>
<!-- 0&#45;&gt;2 -->
<g id="edge2" class="edge"><title>0&#45;&gt;2</title>
<path fill="none" stroke="#cc0000" stroke-dasharray="5,2" d="M323.203,-523.734C283.556,-510.519 227.18,-491.727 191.868,-479.956"/>
<polygon fill="#cc0000" stroke="#cc0000" points="322.306,-527.125 332.9,-526.967 324.52,-520.484 322.306,-527.125"/>
</g>
<!-- 4 -->
<g id="node29" class="node"><title>4</title>
<polygon fill="none" stroke="#ff0000" stroke-dasharray="5,2" points="412.424,-460.544 412.424,-475.456 386.987,-486 351.013,-486 325.576,-475.456 325.576,-460.544 351.013,-450 386.987,-450 412.424,-460.544"/>
<text text-anchor="middle" x="369" y="-464.3" font-family="Helvetica,sans-Serif" font-stretch="condensed" font-size="14.00">1, 2, 4, 5</text>
</g>
<!-- 0&#45;&gt;4 -->
<g id="edge3" class="edge"><title>0&#45;&gt;4</title>
<path fill="none" stroke="#cc0000" stroke-dasharray="5,2" d="M369,-511.665C369,-503.054 369,-493.791 369,-486.104"/>
<polygon fill="#cc0000" stroke="#cc0000" points="365.5,-511.697 369,-521.697 372.5,-511.697 365.5,-511.697"/>
</g>
<!-- 8 -->
<g id="node31" class="node"><title>8</title>
<polygon fill="none" stroke="#ff0000" stroke-dasharray="5,2" points="517.424,-460.544 517.424,-475.456 491.987,-486 456.013,-486 430.576,-475.456 430.576,-460.544 456.013,-450 491.987,-450 517.424,-460.544"/>
<text text-anchor="middle" x="474" y="-464.3" font-family="Helvetica,sans-Serif" font-stretch="condensed" font-size="14.00">1, 2, 3, 5</text>
</g>
<!-- 0&#45;&gt;8 -->
<g id="edge4" class="edge"><title>0&#45;&gt;8</title>
<path fill="none" stroke="#cc0000" stroke-dasharray="5,2" d="M401.917,-517.056C417.941,-506.373 436.806,-493.796 451.217,-484.189"/>
<polygon fill="#cc0000" stroke="#cc0000" points="399.732,-514.305 393.353,-522.765 403.615,-520.13 399.732,-514.305"/>
</g>
<!-- 17 -->
<g id="node24" class="node"><title>17</title>
<polygon fill="none" stroke="#ff0000" stroke-dasharray="5,2" points="630.207,-388.544 630.207,-403.456 610.169,-414 581.831,-414 561.793,-403.456 561.793,-388.544 581.831,-378 610.169,-378 630.207,-388.544"/>
<text text-anchor="middle" x="596" y="-392.3" font-family="Helvetica,sans-Serif" font-stretch="condensed" font-size="14.00">2, 3, 4</text>
</g>
<!-- 1&#45;&gt;17 -->
<g id="edge9" class="edge"><title>1&#45;&gt;17</title>
<path fill="none" stroke="#cc0000" stroke-dasharray="5,2" d="M305.66,-452.715C309.138,-451.726 312.617,-450.804 316,-450 419.654,-425.363 450.139,-441.762 553,-414 558.735,-412.452 564.748,-410.379 570.398,-408.213"/>
<polygon fill="#cc0000" stroke="#cc0000" points="304.507,-449.407 295.94,-455.641 306.525,-456.11 304.507,-449.407"/>
</g>
<!-- 3 -->
<g id="node28" class="node"><title>3</title>
<polygon fill="#ffb0b0" stroke="#ff0000" points="68.2069,-388.544 68.2069,-403.456 48.169,-414 19.831,-414 -0.206921,-403.456 -0.206921,-388.544 19.831,-378 48.169,-378 68.2069,-388.544"/>
<text text-anchor="middle" x="34" y="-392.3" font-family="Helvetica,sans-Serif" font-stretch="condensed" font-size="14.00">3, 4, 5</text>
</g>
<!-- 1&#45;&gt;3 -->
<g id="edge6" class="edge"><title>1&#45;&gt;3</title>
<path fill="none" stroke="#cc0000" stroke-dasharray="5,2" d="M221.27,-453.1C217.802,-452.031 214.346,-450.985 211,-450 151.845,-432.578 135.547,-433.368 77,-414 71.5126,-412.185 65.7106,-410.046 60.2048,-407.909"/>
<polygon fill="#cc0000" stroke="#cc0000" points="220.408,-456.497 230.997,-456.145 222.499,-449.817 220.408,-456.497"/>
</g>
<!-- 5 -->
<g id="node30" class="node"><title>5</title>
<polygon fill="none" stroke="#ff0000" stroke-dasharray="5,2" points="298.207,-388.544 298.207,-403.456 278.169,-414 249.831,-414 229.793,-403.456 229.793,-388.544 249.831,-378 278.169,-378 298.207,-388.544"/>
<text text-anchor="middle" x="264" y="-392.3" font-family="Helvetica,sans-Serif" font-stretch="condensed" font-size="14.00">2, 4, 5</text>
</g>
<!-- 1&#45;&gt;5 -->
<g id="edge7" class="edge"><title>1&#45;&gt;5</title>
<path fill="none" stroke="#cc0000" stroke-dasharray="5,2" d="M264,-439.665C264,-431.054 264,-421.791 264,-414.104"/>
<polygon fill="#cc0000" stroke="#cc0000" points="260.5,-439.697 264,-449.697 267.5,-439.697 260.5,-439.697"/>
</g>
<!-- 9 -->
<g id="node32" class="node"><title>9</title>
<polygon fill="none" stroke="#ff0000" stroke-dasharray="5,2" points="385.207,-388.544 385.207,-403.456 365.169,-414 336.831,-414 316.793,-403.456 316.793,-388.544 336.831,-378 365.169,-378 385.207,-388.544"/>
<text text-anchor="middle" x="351" y="-392.3" font-family="Helvetica,sans-Serif" font-stretch="condensed" font-size="14.00">2, 3, 5</text>
</g>
<!-- 1&#45;&gt;9 -->
<g id="edge8" class="edge"><title>1&#45;&gt;9</title>
<path fill="none" stroke="#cc0000" stroke-dasharray="5,2" d="M292.07,-444.415C305.282,-433.784 320.676,-421.399 332.416,-411.952"/>
<polygon fill="#cc0000" stroke="#cc0000" points="289.775,-441.769 284.178,-450.765 294.164,-447.223 289.775,-441.769"/>
</g>
<!-- 12 -->
<g id="node21" class="node"><title>12</title>
<polygon fill="none" stroke="#ff0000" stroke-dasharray="5,2" points="472.207,-388.544 472.207,-403.456 452.169,-414 423.831,-414 403.793,-403.456 403.793,-388.544 423.831,-378 452.169,-378 472.207,-388.544"/>
<text text-anchor="middle" x="438" y="-392.3" font-family="Helvetica,sans-Serif" font-stretch="condensed" font-size="14.00">1, 2, 5</text>
</g>
<!-- 12&#45;&gt;14 -->
<g id="edge42" class="edge"><title>12&#45;&gt;14</title>
<path fill="none" stroke="#0000ff" d="M411.099,-384.324C405.472,-382.17 399.559,-379.965 394,-378 344.704,-360.571 330.632,-361.204 282,-342 279.171,-340.883 276.252,-339.648 273.356,-338.368"/>
</g>
<!-- 12&#45;&gt;28 -->
<g id="edge43" class="edge"><title>12&#45;&gt;28</title>
<path fill="none" stroke="#0000ff" d="M463.605,-383.798C469.255,-381.632 475.267,-379.555 481,-378 582.13,-350.567 613.811,-372.689 714,-342 716.908,-341.109 719.88,-340.023 722.807,-338.834"/>
</g>
<!-- 13 -->
<g id="node22" class="node"><title>13</title>
<polygon fill="#ffb0b0" stroke="#ff0000" points="345,-316.544 345,-331.456 329.184,-342 306.816,-342 291,-331.456 291,-316.544 306.816,-306 329.184,-306 345,-316.544"/>
<text text-anchor="middle" x="318" y="-320.3" font-family="Helvetica,sans-Serif" font-stretch="condensed" font-size="14.00">2, 5</text>
</g>
<!-- 12&#45;&gt;13 -->
<g id="edge41" class="edge"><title>12&#45;&gt;13</title>
<path fill="none" stroke="#cc0000" stroke-dasharray="5,2" d="M406.819,-376.811C385.01,-364.089 356.538,-347.481 337.783,-336.54"/>
<polygon fill="#cc0000" stroke="#cc0000" points="405.309,-379.982 415.71,-381.998 408.836,-373.936 405.309,-379.982"/>
</g>
<!-- 13&#45;&gt;15 -->
<g id="edge44" class="edge"><title>13&#45;&gt;15</title>
<path fill="none" stroke="#0000ff" d="M302.731,-308.155C291.255,-296.998 275.516,-281.696 263.527,-270.04"/>
</g>
<!-- 13&#45;&gt;29 -->
<g id="edge45" class="edge"><title>13&#45;&gt;29</title>
<path fill="none" stroke="#0000ff" d="M338.548,-312.107C343.503,-309.816 348.855,-307.61 354,-306 446.886,-276.945 477.114,-299.055 570,-270 572.903,-269.092 575.871,-267.994 578.796,-266.798"/>
</g>
<!-- 16&#45;&gt;18 -->
<g id="edge50" class="edge"><title>16&#45;&gt;18</title>
<path fill="none" stroke="#0000ff" d="M576.876,-450.055C564.547,-439.13 548.57,-424.973 536.221,-414.032"/>
</g>
<!-- 16&#45;&gt;24 -->
<g id="edge52" class="edge"><title>16&#45;&gt;24</title>
<path fill="none" stroke="#0000ff" d="M626.403,-455.144C652.874,-444.693 692.197,-428.859 726,-414 728.911,-412.721 731.938,-411.352 734.945,-409.968"/>
</g>
<!-- 16&#45;&gt;17 -->
<g id="edge49" class="edge"><title>16&#45;&gt;17</title>
<path fill="none" stroke="#cc0000" stroke-dasharray="5,2" d="M596,-439.665C596,-431.054 596,-421.791 596,-414.104"/>
<polygon fill="#cc0000" stroke="#cc0000" points="592.5,-439.697 596,-449.697 599.5,-439.697 592.5,-439.697"/>
</g>
<!-- 20 -->
<g id="node26" class="node"><title>20</title>
<polygon fill="none" stroke="#ff0000" stroke-dasharray="5,2" points="717.207,-388.544 717.207,-403.456 697.169,-414 668.831,-414 648.793,-403.456 648.793,-388.544 668.831,-378 697.169,-378 717.207,-388.544"/>
<text text-anchor="middle" x="683" y="-392.3" font-family="Helvetica,sans-Serif" font-stretch="condensed" font-size="14.00">1, 2, 4</text>
</g>
<!-- 16&#45;&gt;20 -->
<g id="edge51" class="edge"><title>16&#45;&gt;20</title>
<path fill="none" stroke="#cc0000" stroke-dasharray="5,2" d="M624.07,-444.415C637.282,-433.784 652.676,-421.399 664.416,-411.952"/>
<polygon fill="#cc0000" stroke="#cc0000" points="621.775,-441.769 616.178,-450.765 626.164,-447.223 621.775,-441.769"/>
</g>
<!-- 17&#45;&gt;19 -->
<g id="edge53" class="edge"><title>17&#45;&gt;19</title>
<path fill="none" stroke="#0000ff" d="M569.776,-384.15C564.271,-382.008 558.475,-379.853 553,-378 497.428,-359.191 480.934,-362.596 426,-342 423.152,-340.932 420.22,-339.73 417.316,-338.47"/>
</g>
<!-- 17&#45;&gt;25 -->
<g id="edge55" class="edge"><title>17&#45;&gt;25</title>
<path fill="none" stroke="#0000ff" d="M613.793,-379.811C626.793,-368.713 644.435,-353.653 657.937,-342.127"/>
</g>
<!-- 21 -->
<g id="node27" class="node"><title>21</title>
<polygon fill="#ffb0b0" stroke="#ff0000" points="633,-316.544 633,-331.456 617.184,-342 594.816,-342 579,-331.456 579,-316.544 594.816,-306 617.184,-306 633,-316.544"/>
<text text-anchor="middle" x="606" y="-320.3" font-family="Helvetica,sans-Serif" font-stretch="condensed" font-size="14.00">2, 4</text>
</g>
<!-- 17&#45;&gt;21 -->
<g id="edge54" class="edge"><title>17&#45;&gt;21</title>
<path fill="none" stroke="#cc0000" stroke-dasharray="5,2" d="M599.905,-367.665C601.135,-359.054 602.458,-349.791 603.557,-342.104"/>
<polygon fill="#cc0000" stroke="#cc0000" points="596.421,-367.302 598.472,-377.697 603.351,-368.292 596.421,-367.302"/>
</g>
<!-- 2&#45;&gt;6 -->
<g id="edge11" class="edge"><title>2&#45;&gt;6</title>
<path fill="none" stroke="#0000ff" d="M147.629,-449.697C140.499,-438.846 131.345,-424.917 124.24,-414.104"/>
</g>
<!-- 2&#45;&gt;10 -->
<g id="edge12" class="edge"><title>2&#45;&gt;10</title>
<path fill="none" stroke="#0000ff" d="M165.427,-449.697C169.457,-438.846 174.631,-424.917 178.647,-414.104"/>
</g>
<!-- 2&#45;&gt;18 -->
<g id="edge13" class="edge"><title>2&#45;&gt;18</title>
<path fill="none" stroke="#0000ff" d="M190.641,-455.635C197.302,-453.531 204.333,-451.521 211,-450 329.03,-423.078 364.885,-448.254 481,-414 483.917,-413.14 486.895,-412.073 489.826,-410.896"/>
</g>
<!-- 2&#45;&gt;3 -->
<g id="edge10" class="edge"><title>2&#45;&gt;3</title>
<path fill="none" stroke="#cc0000" stroke-dasharray="5,2" d="M124.816,-447.857C103.159,-435.729 75.7493,-420.38 56.7362,-409.732"/>
<polygon fill="#cc0000" stroke="#cc0000" points="123.269,-451.002 133.704,-452.834 126.689,-444.895 123.269,-451.002"/>
</g>
<!-- 20&#45;&gt;22 -->
<g id="edge62" class="edge"><title>20&#45;&gt;22</title>
<path fill="none" stroke="#0000ff" d="M656.657,-384.238C650.884,-382.044 644.772,-379.845 639,-378 577.393,-358.311 558.853,-363.909 498,-342 495.139,-340.97 492.197,-339.792 489.288,-338.547"/>
</g>
<!-- 20&#45;&gt;28 -->
<g id="edge63" class="edge"><title>20&#45;&gt;28</title>
<path fill="none" stroke="#0000ff" d="M698.878,-378.411C709.249,-367.576 722.769,-353.45 733.301,-342.447"/>
</g>
<!-- 20&#45;&gt;21 -->
<g id="edge61" class="edge"><title>20&#45;&gt;21</title>
<path fill="none" stroke="#cc0000" stroke-dasharray="5,2" d="M658.376,-372.614C646.363,-361.694 632.27,-348.882 621.73,-339.3"/>
<polygon fill="#cc0000" stroke="#cc0000" points="656.157,-375.328 665.911,-379.465 660.866,-370.148 656.157,-375.328"/>
</g>
<!-- 21&#45;&gt;23 -->
<g id="edge64" class="edge"><title>21&#45;&gt;23</title>
<path fill="none" stroke="#0000ff" d="M584.972,-312.226C580.129,-309.983 574.947,-307.767 570,-306 507.875,-283.809 488.125,-292.191 426,-270 423.136,-268.977 420.193,-267.803 417.283,-266.561"/>
</g>
<!-- 21&#45;&gt;29 -->
<g id="edge65" class="edge"><title>21&#45;&gt;29</title>
<path fill="none" stroke="#0000ff" d="M606,-305.697C606,-294.846 606,-280.917 606,-270.104"/>
</g>
<!-- 3&#45;&gt;7 -->
<g id="edge14" class="edge"><title>3&#45;&gt;7</title>
<path fill="none" stroke="#0000ff" d="M49.7715,-378.765C60.4432,-367.779 74.5165,-353.292 85.3653,-342.124"/>
</g>
<!-- 3&#45;&gt;11 -->
<g id="edge15" class="edge"><title>3&#45;&gt;11</title>
<path fill="none" stroke="#0000ff" d="M58.0669,-382.967C82.7717,-370.614 121.143,-351.429 146.9,-338.55"/>
</g>
<!-- 3&#45;&gt;19 -->
<g id="edge16" class="edge"><title>3&#45;&gt;19</title>
<path fill="none" stroke="#0000ff" d="M59.5774,-383.694C65.2292,-381.534 71.2485,-379.486 77,-378 197.199,-346.941 234.869,-376.93 354,-342 356.918,-341.144 359.897,-340.081 362.829,-338.906"/>
</g>
<!-- 4&#45;&gt;6 -->
<g id="edge18" class="edge"><title>4&#45;&gt;6</title>
<path fill="none" stroke="#0000ff" d="M336.353,-455.975C329.656,-453.87 322.628,-451.773 316,-450 242.651,-430.381 220.91,-438.37 149,-414 146.12,-413.024 143.166,-411.881 140.249,-410.658"/>
</g>
<!-- 4&#45;&gt;12 -->
<g id="edge19" class="edge"><title>4&#45;&gt;12</title>
<path fill="none" stroke="#cc0000" stroke-dasharray="5,2" d="M393.111,-442.54C402.711,-432.801 413.495,-421.861 422.086,-413.145"/>
<polygon fill="#cc0000" stroke="#cc0000" points="390.584,-440.118 386.056,-449.697 395.569,-445.032 390.584,-440.118"/>
</g>
<!-- 4&#45;&gt;20 -->
<g id="edge20" class="edge"><title>4&#45;&gt;20</title>
<path fill="none" stroke="#cc0000" stroke-dasharray="5,2" d="M410.672,-452.763C414.147,-451.763 417.622,-450.826 421,-450 516.391,-426.675 544.257,-439.831 639,-414 645.005,-412.363 651.322,-410.199 657.237,-407.967"/>
<polygon fill="#cc0000" stroke="#cc0000" points="409.512,-449.458 400.956,-455.707 411.542,-456.157 409.512,-449.458"/>
</g>
<!-- 4&#45;&gt;5 -->
<g id="edge17" class="edge"><title>4&#45;&gt;5</title>
<path fill="none" stroke="#cc0000" stroke-dasharray="5,2" d="M337.624,-446.083C320.469,-434.646 299.702,-420.802 284.604,-410.736"/>
<polygon fill="#cc0000" stroke="#cc0000" points="335.955,-449.176 346.217,-451.811 339.838,-443.352 335.955,-449.176"/>
</g>
<!-- 5&#45;&gt;7 -->
<g id="edge21" class="edge"><title>5&#45;&gt;7</title>
<path fill="none" stroke="#0000ff" d="M237.309,-384.163C211.707,-373.676 172.025,-357.181 138,-342 135.096,-340.704 132.074,-339.326 129.069,-337.935"/>
</g>
<!-- 5&#45;&gt;13 -->
<g id="edge22" class="edge"><title>5&#45;&gt;13</title>
<path fill="none" stroke="#cc0000" stroke-dasharray="5,2" d="M283.66,-369.514C290.832,-360.217 298.752,-349.951 305.177,-341.622"/>
<polygon fill="#cc0000" stroke="#cc0000" points="280.685,-367.641 277.348,-377.697 286.228,-371.917 280.685,-367.641"/>
</g>
<!-- 5&#45;&gt;21 -->
<g id="edge23" class="edge"><title>5&#45;&gt;21</title>
<path fill="none" stroke="#cc0000" stroke-dasharray="5,2" d="M299.401,-380.517C302.284,-379.585 305.175,-378.729 308,-378 421.808,-348.622 457.331,-375.482 570,-342 575.168,-340.464 580.529,-338.286 585.485,-336"/>
<polygon fill="#cc0000" stroke="#cc0000" points="298.007,-377.297 289.731,-383.912 300.326,-383.902 298.007,-377.297"/>
</g>
<!-- 8&#45;&gt;10 -->
<g id="edge30" class="edge"><title>8&#45;&gt;10</title>
<path fill="none" stroke="#0000ff" d="M441.682,-455.885C434.897,-453.763 427.751,-451.682 421,-450 333.363,-428.16 307.022,-441.521 221,-414 218.103,-413.073 215.139,-411.963 212.216,-410.759"/>
</g>
<!-- 8&#45;&gt;24 -->
<g id="edge32" class="edge"><title>8&#45;&gt;24</title>
<path fill="none" stroke="#0000ff" d="M510.808,-457.589C521.194,-455.027 532.52,-452.32 543,-450 623.932,-432.08 647.256,-439.895 726,-414 728.889,-413.05 731.848,-411.924 734.769,-410.711"/>
</g>
<!-- 8&#45;&gt;12 -->
<g id="edge31" class="edge"><title>8&#45;&gt;12</title>
<path fill="none" stroke="#cc0000" stroke-dasharray="5,2" d="M460.524,-440.797C455.934,-431.871 450.924,-422.129 446.797,-414.104"/>
<polygon fill="#cc0000" stroke="#cc0000" points="457.415,-442.404 465.101,-449.697 463.64,-439.203 457.415,-442.404"/>
</g>
<!-- 8&#45;&gt;9 -->
<g id="edge29" class="edge"><title>8&#45;&gt;9</title>
<path fill="none" stroke="#cc0000" stroke-dasharray="5,2" d="M440.363,-447.857C419.052,-435.729 392.081,-420.38 373.372,-409.732"/>
<polygon fill="#cc0000" stroke="#cc0000" points="438.687,-450.93 449.109,-452.834 442.149,-444.846 438.687,-450.93"/>
</g>
<!-- 9&#45;&gt;11 -->
<g id="edge33" class="edge"><title>9&#45;&gt;11</title>
<path fill="none" stroke="#0000ff" d="M324.029,-384.514C318.407,-382.347 312.514,-380.088 307,-378 263.996,-361.713 252.385,-359.834 210,-342 207.069,-340.767 204.03,-339.428 201.015,-338.061"/>
</g>
<!-- 9&#45;&gt;25 -->
<g id="edge35" class="edge"><title>9&#45;&gt;25</title>
<path fill="none" stroke="#0000ff" d="M376.74,-383.949C382.657,-381.721 388.98,-379.58 395,-378 502.302,-349.833 535.789,-374.037 642,-342 644.912,-341.122 647.886,-340.043 650.815,-338.859"/>
</g>
<!-- 9&#45;&gt;13 -->
<g id="edge34" class="edge"><title>9&#45;&gt;13</title>
<path fill="none" stroke="#cc0000" stroke-dasharray="5,2" d="M338.514,-368.515C334.343,-359.666 329.807,-350.045 326.063,-342.104"/>
<polygon fill="#cc0000" stroke="#cc0000" points="335.413,-370.144 342.843,-377.697 341.744,-367.159 335.413,-370.144"/>
</g>
<!-- Legend -->
<g id="node33" class="node"><title>Legend</title>
<polygon fill="none" stroke="black" points="623.25,-126 300.75,-126 300.75,-0 623.25,-0 623.25,-126"/>
<polygon fill="none" stroke="black" points="301,-100 301,-126 319,-126 319,-100 301,-100"/>
<text text-anchor="start" x="306.5" y="-109.3" font-family="Helvetica,sans-Serif" font-stretch="condensed" font-size="14.00">1</text>
<polygon fill="none" stroke="black" points="319,-100 319,-126 624,-126 624,-100 319,-100"/>
<text text-anchor="start" x="374.5" y="-109.3" font-family="Helvetica,sans-Serif" font-stretch="condensed" font-size="14.00">2015.Aves is_included_in 2014.Aves</text>
<polygon fill="none" stroke="black" points="301,-75 301,-100 319,-100 319,-75 301,-75"/>
<text text-anchor="start" x="306.5" y="-83.8" font-family="Helvetica,sans-Serif" font-stretch="condensed" font-size="14.00">2</text>
<polygon fill="none" stroke="black" points="319,-75 319,-100 624,-100 624,-75 319,-75"/>
<text text-anchor="start" x="341.5" y="-83.8" font-family="Helvetica,sans-Serif" font-stretch="condensed" font-size="14.00">2015.Gall_Neoa_Clade equals 2014.Neognathae</text>
<polygon fill="none" stroke="black" points="301,-50 301,-75 319,-75 319,-50 301,-50"/>
<text text-anchor="start" x="306.5" y="-58.8" font-family="Helvetica,sans-Serif" font-stretch="condensed" font-size="14.00">3</text>
<polygon fill="none" stroke="black" points="319,-50 319,-75 624,-75 624,-50 319,-50"/>
<text text-anchor="start" x="324" y="-58.8" font-family="Helvetica,sans-Serif" font-stretch="condensed" font-size="14.00">2015.Palaeognathae is_included_in 2014.Paleognathae</text>
<polygon fill="none" stroke="black" points="301,-25 301,-50 319,-50 319,-25 301,-25"/>
<text text-anchor="start" x="306.5" y="-33.8" font-family="Helvetica,sans-Serif" font-stretch="condensed" font-size="14.00">4</text>
<polygon fill="none" stroke="black" points="319,-25 319,-50 624,-50 624,-25 319,-25"/>
<text text-anchor="start" x="343" y="-33.8" font-family="Helvetica,sans-Serif" font-stretch="condensed" font-size="14.00">2015.Galloanserae equals 2014.Struthioniformes</text>
<polygon fill="none" stroke="black" points="301,-0 301,-25 319,-25 319,-0 301,-0"/>
<text text-anchor="start" x="306.5" y="-8.8" font-family="Helvetica,sans-Serif" font-stretch="condensed" font-size="14.00">5</text>
<polygon fill="none" stroke="black" points="319,-0 319,-25 624,-25 624,-0 319,-0"/>
<text text-anchor="start" x="361.5" y="-8.8" font-family="Helvetica,sans-Serif" font-stretch="condensed" font-size="14.00">2015.Neoaves equals 2014.Tinamiformes</text>
</g>
</g>
</svg>
