<?xml version="1.0" encoding="UTF-8" standalone="no"?>
<!DOCTYPE svg PUBLIC "-//W3C//DTD SVG 1.1//EN"
 "http://www.w3.org/Graphics/SVG/1.1/DTD/svg11.dtd">
<!-- Generated by graphviz version 2.36.0 (20140111.2315)
 -->
<!-- Title: %3 Pages: 1 -->
<svg width="1186pt" height="194pt"
 viewBox="0.00 0.00 1186.00 194.00" xmlns="http://www.w3.org/2000/svg" xmlns:xlink="http://www.w3.org/1999/xlink">
<g id="graph0" class="graph" transform="scale(1 1) rotate(0) translate(4 190)">
<title>%3</title>
<polygon fill="white" stroke="none" points="-4,4 -4,-190 1182,-190 1182,4 -4,4"/>
<!-- FloraChina.OakGenus -->
<g id="node1" class="node"><title>FloraChina.OakGenus</title>
<polygon fill="#ccffcc" stroke="black" points="138,-159 0,-159 0,-123 138,-123 138,-159"/>
<text text-anchor="middle" x="69" y="-137.3" font-family="Times,serif" font-size="14.00">FloraChina.OakGenus</text>
</g>
<!-- FloraChina.ChineseOakSpecies1 -->
<g id="node2" class="node"><title>FloraChina.ChineseOakSpecies1</title>
<polygon fill="#ccffcc" stroke="black" points="375.5,-186 180.5,-186 180.5,-150 375.5,-150 375.5,-186"/>
<text text-anchor="middle" x="278" y="-164.3" font-family="Times,serif" font-size="14.00">FloraChina.ChineseOakSpecies1</text>
</g>
<!-- FloraChina.ChineseOakSpecies1&#45;&gt;FloraChina.OakGenus -->
<g id="edge5" class="edge"><title>FloraChina.ChineseOakSpecies1&#45;&gt;FloraChina.OakGenus</title>
<path fill="none" stroke="#000000" d="M180.469,-155.409C169.606,-153.992 158.641,-152.562 148.054,-151.181"/>
<polygon fill="#000000" stroke="#000000" points="148.404,-147.697 138.035,-149.874 147.498,-154.638 148.404,-147.697"/>
</g>
<!-- FloraMexico.OakGenus -->
<g id="node4" class="node"><title>FloraMexico.OakGenus</title>
<polygon fill="#ffffcc" stroke="black" points="382.234,-106.544 382.234,-121.456 321.175,-132 234.825,-132 173.766,-121.456 173.766,-106.544 234.825,-96 321.175,-96 382.234,-106.544"/>
<text text-anchor="middle" x="278" y="-110.3" font-family="Times,serif" font-size="14.00">FloraMexico.OakGenus</text>
</g>
<!-- FloraChina.ChineseOakSpecies1&#45;&gt;FloraMexico.OakGenus -->
<g id="edge1" class="edge"><title>FloraChina.ChineseOakSpecies1&#45;&gt;FloraMexico.OakGenus</title>
<path fill="none" stroke="#0000ff" stroke-dasharray="1,5" d="M278,-149.79C278,-143.907 278,-138.024 278,-132.141"/>
</g>
<!-- FloraMexico.MexicanOakSpecies1 -->
<g id="node6" class="node"><title>FloraMexico.MexicanOakSpecies1</title>
<polygon fill="#ffffcc" stroke="black" points="712.06,-133.544 712.06,-148.456 625.914,-159 504.086,-159 417.94,-148.456 417.94,-133.544 504.086,-123 625.914,-123 712.06,-133.544"/>
<text text-anchor="middle" x="565" y="-137.3" font-family="Times,serif" font-size="14.00">FloraMexico.MexicanOakSpecies1</text>
</g>
<!-- FloraChina.ChineseOakSpecies1&#45;&gt;FloraMexico.MexicanOakSpecies1 -->
<g id="edge2" class="edge"><title>FloraChina.ChineseOakSpecies1&#45;&gt;FloraMexico.MexicanOakSpecies1</title>
<path fill="none" stroke="#0000ff" stroke-dasharray="1,5" d="M375.58,-158.85C398.609,-156.669 423.43,-154.317 447.257,-152.06"/>
</g>
<!-- FloraChina.ChineseOakSpecies2 -->
<g id="node3" class="node"><title>FloraChina.ChineseOakSpecies2</title>
<polygon fill="#ccffcc" stroke="black" points="662.5,-105 467.5,-105 467.5,-69 662.5,-69 662.5,-105"/>
<text text-anchor="middle" x="565" y="-83.3" font-family="Times,serif" font-size="14.00">FloraChina.ChineseOakSpecies2</text>
</g>
<!-- FloraChina.ChineseOakSpecies2&#45;&gt;FloraMexico.OakGenus -->
<g id="edge7" class="edge"><title>FloraChina.ChineseOakSpecies2&#45;&gt;FloraMexico.OakGenus</title>
<path fill="none" stroke="#ff0000" d="M467.114,-96.1786C440.238,-98.7248 410.943,-101.5 383.645,-104.086"/>
<polygon fill="#ff0000" stroke="#ff0000" points="383.312,-100.602 373.687,-105.03 383.972,-107.571 383.312,-100.602"/>
</g>
<!-- FloraChina.ChineseOakSpecies2&#45;&gt;FloraMexico.MexicanOakSpecies1 -->
<g id="edge3" class="edge"><title>FloraChina.ChineseOakSpecies2&#45;&gt;FloraMexico.MexicanOakSpecies1</title>
<path fill="none" stroke="#0000ff" stroke-dasharray="1,5" d="M565,-105.141C565,-111.024 565,-116.907 565,-122.79"/>
</g>
<!-- FloraMexico.OakGenus&#45;&gt;FloraChina.OakGenus -->
<g id="edge6" class="edge"><title>FloraMexico.OakGenus&#45;&gt;FloraChina.OakGenus</title>
<path fill="none" stroke="#ff0000" d="M193.402,-124.904C178.45,-126.854 162.923,-128.88 148.132,-130.809"/>
<polygon fill="#ff0000" stroke="#ff0000" points="147.489,-127.363 138.026,-132.127 148.395,-134.304 147.489,-127.363"/>
</g>
<!-- FloraMexico.MexicanOakSpecies2 -->
<g id="node5" class="node"><title>FloraMexico.MexicanOakSpecies2</title>
<polygon fill="#ffffcc" stroke="black" points="1042.06,-79.5442 1042.06,-94.4558 955.914,-105 834.086,-105 747.94,-94.4558 747.94,-79.5442 834.086,-69 955.914,-69 1042.06,-79.5442"/>
<text text-anchor="middle" x="895" y="-83.3" font-family="Times,serif" font-size="14.00">FloraMexico.MexicanOakSpecies2</text>
</g>
<!-- FloraMexico.MexicanOakSpecies2&#45;&gt;FloraChina.ChineseOakSpecies2 -->
<g id="edge8" class="edge"><title>FloraMexico.MexicanOakSpecies2&#45;&gt;FloraChina.ChineseOakSpecies2</title>
<path fill="none" stroke="#ff0000" d="M747.746,-87C722.484,-87 696.654,-87 672.691,-87"/>
<polygon fill="#ff0000" stroke="#ff0000" points="672.543,-83.5001 662.543,-87 672.543,-90.5001 672.543,-83.5001"/>
</g>
<!-- FloraMexico.MexicanOakSpecies1&#45;&gt;FloraMexico.OakGenus -->
<g id="edge4" class="edge"><title>FloraMexico.MexicanOakSpecies1&#45;&gt;FloraMexico.OakGenus</title>
<path fill="none" stroke="#000000" d="M447.257,-129.94C426.252,-127.95 404.475,-125.887 383.834,-123.932"/>
<polygon fill="#000000" stroke="#000000" points="384.086,-120.44 373.8,-122.981 383.426,-127.409 384.086,-120.44"/>
</g>
<!-- Legend -->
<g id="node7" class="node"><title>Legend</title>
<polygon fill="white" stroke="black" points="1177.5,-175 1078.5,-175 1078.5,1 1177.5,1 1177.5,-175"/>
<polygon fill="none" stroke="black" points="1079,-149 1079,-175 1178,-175 1178,-149 1079,-149"/>
<text text-anchor="start" x="1104" y="-158.3" font-family="Arial Black" font-size="14.00"> Nodes</text>
<polygon fill="#ccffcc" stroke="none" points="1079,-124 1079,-149 1161,-149 1161,-124 1079,-124"/>
<polygon fill="none" stroke="black" points="1079,-124 1079,-149 1161,-149 1161,-124 1079,-124"/>
<text text-anchor="start" x="1089.5" y="-132.8" font-family="Times,serif" font-size="14.00">FloraChina</text>
<polygon fill="none" stroke="black" points="1161,-124 1161,-149 1178,-149 1178,-124 1161,-124"/>
<text text-anchor="start" x="1166" y="-132.8" font-family="Times,serif" font-size="14.00">3</text>
<polygon fill="#ffffcc" stroke="none" points="1079,-99 1079,-124 1161,-124 1161,-99 1079,-99"/>
<polygon fill="none" stroke="black" points="1079,-99 1079,-124 1161,-124 1161,-99 1079,-99"/>
<text text-anchor="start" x="1084.5" y="-107.8" font-family="Times,serif" font-size="14.00">FloraMexico</text>
<polygon fill="none" stroke="black" points="1161,-99 1161,-124 1178,-124 1178,-99 1161,-99"/>
<text text-anchor="start" x="1166" y="-107.8" font-family="Times,serif" font-size="14.00">3</text>
<polygon fill="none" stroke="black" points="1079,-74 1079,-99 1178,-99 1178,-74 1079,-74"/>
<text text-anchor="start" x="1102.5" y="-82.8" font-family="Arial Black" font-size="14.00"> Edges </text>
<polygon fill="none" stroke="black" points="1079,-49 1079,-74 1161,-74 1161,-49 1079,-49"/>
<text text-anchor="start" x="1097" y="-57.8" font-family="Times,serif" font-size="14.00" fill="#0000ff">overlaps</text>
<polygon fill="none" stroke="black" points="1161,-49 1161,-74 1178,-74 1178,-49 1161,-49"/>
<text text-anchor="start" x="1166" y="-57.8" font-family="Times,serif" font-size="14.00">3</text>
<polygon fill="none" stroke="black" points="1079,-24 1079,-49 1161,-49 1161,-24 1079,-24"/>
<text text-anchor="start" x="1106" y="-32.8" font-family="Times,serif" font-size="14.00" fill="#000000">input</text>
<polygon fill="none" stroke="black" points="1161,-24 1161,-49 1178,-49 1178,-24 1161,-24"/>
<text text-anchor="start" x="1166" y="-32.8" font-family="Times,serif" font-size="14.00">2</text>
<polygon fill="none" stroke="black" points="1079,1 1079,-24 1161,-24 1161,1 1079,1"/>
<text text-anchor="start" x="1098.5" y="-7.8" font-family="Times,serif" font-size="14.00" fill="#ff0000">inferred</text>
<polygon fill="none" stroke="black" points="1161,1 1161,-24 1178,-24 1178,1 1161,1"/>
<text text-anchor="start" x="1166" y="-7.8" font-family="Times,serif" font-size="14.00">3</text>
</g>
</g>
</svg>
