<?xml version="1.0" encoding="UTF-8" standalone="no"?>
<!DOCTYPE svg PUBLIC "-//W3C//DTD SVG 1.1//EN"
 "http://www.w3.org/Graphics/SVG/1.1/DTD/svg11.dtd">
<!-- Generated by graphviz version 2.36.0 (20140111.2315)
 -->
<!-- Title: %3 Pages: 1 -->
<svg width="1244pt" height="182pt"
 viewBox="0.00 0.00 1244.00 182.00" xmlns="http://www.w3.org/2000/svg" xmlns:xlink="http://www.w3.org/1999/xlink">
<g id="graph0" class="graph" transform="scale(1 1) rotate(0) translate(4 178)">
<title>%3</title>
<polygon fill="white" stroke="none" points="-4,4 -4,-178 1240,-178 1240,4 -4,4"/>
<!-- FloraChina.ChineseOakSpecies1 -->
<g id="node1" class="node"><title>FloraChina.ChineseOakSpecies1</title>
<polygon fill="#ccffcc" stroke="black" points="1099.5,-105 904.5,-105 904.5,-69 1099.5,-69 1099.5,-105"/>
<text text-anchor="middle" x="1002" y="-83.3" font-family="Times,serif" font-size="14.00">FloraChina.ChineseOakSpecies1</text>
</g>
<!-- FloraMexico.MexicanOakSpecies2 -->
<g id="node6" class="node"><title>FloraMexico.MexicanOakSpecies2</title>
<polygon fill="#ffffcc" stroke="black" points="868.06,-79.5442 868.06,-94.4558 781.914,-105 660.086,-105 573.94,-94.4558 573.94,-79.5442 660.086,-69 781.914,-69 868.06,-79.5442"/>
<text text-anchor="middle" x="721" y="-83.3" font-family="Times,serif" font-size="14.00">FloraMexico.MexicanOakSpecies2</text>
</g>
<!-- FloraChina.ChineseOakSpecies1&#45;&gt;FloraMexico.MexicanOakSpecies2 -->
<g id="edge8" class="edge"><title>FloraChina.ChineseOakSpecies1&#45;&gt;FloraMexico.MexicanOakSpecies2</title>
<path fill="none" stroke="#ff0000" d="M904.202,-87C895.831,-87 887.233,-87 878.546,-87"/>
<polygon fill="#ff0000" stroke="#ff0000" points="878.314,-83.5001 868.314,-87 878.314,-90.5001 878.314,-83.5001"/>
</g>
<!-- FloraChina.ChineseOakSpecies2 -->
<g id="node2" class="node"><title>FloraChina.ChineseOakSpecies2</title>
<polygon fill="#ccffcc" stroke="black" points="818.5,-51 623.5,-51 623.5,-15 818.5,-15 818.5,-51"/>
<text text-anchor="middle" x="721" y="-29.3" font-family="Times,serif" font-size="14.00">FloraChina.ChineseOakSpecies2</text>
</g>
<!-- FloraChina.OakGenus -->
<g id="node3" class="node"><title>FloraChina.OakGenus</title>
<polygon fill="#ccffcc" stroke="black" points="460,-105 322,-105 322,-69 460,-69 460,-105"/>
<text text-anchor="middle" x="391" y="-83.3" font-family="Times,serif" font-size="14.00">FloraChina.OakGenus</text>
</g>
<!-- FloraChina.ChineseOakSpecies2&#45;&gt;FloraChina.OakGenus -->
<g id="edge4" class="edge"><title>FloraChina.ChineseOakSpecies2&#45;&gt;FloraChina.OakGenus</title>
<path fill="none" stroke="#000000" d="M623.363,-48.9097C574.509,-56.9528 516.002,-66.585 470.047,-74.1508"/>
<polygon fill="#000000" stroke="#000000" points="469.441,-70.7034 460.142,-75.7815 470.578,-77.6104 469.441,-70.7034"/>
</g>
<!-- FloraMexico.MexicanOakSpecies1 -->
<g id="node5" class="node"><title>FloraMexico.MexicanOakSpecies1</title>
<polygon fill="#ffffcc" stroke="black" points="538.06,-25.5442 538.06,-40.4558 451.914,-51 330.086,-51 243.94,-40.4558 243.94,-25.5442 330.086,-15 451.914,-15 538.06,-25.5442"/>
<text text-anchor="middle" x="391" y="-29.3" font-family="Times,serif" font-size="14.00">FloraMexico.MexicanOakSpecies1</text>
</g>
<!-- FloraChina.ChineseOakSpecies2&#45;&gt;FloraMexico.MexicanOakSpecies1 -->
<g id="edge2" class="edge"><title>FloraChina.ChineseOakSpecies2&#45;&gt;FloraMexico.MexicanOakSpecies1</title>
<path fill="none" stroke="#0000ff" stroke-dasharray="1,5" d="M623.363,-33C596.624,-33 566.993,-33 538.112,-33"/>
</g>
<!-- FloraChina.ChineseOakSpecies2&#45;&gt;FloraMexico.MexicanOakSpecies2 -->
<g id="edge3" class="edge"><title>FloraChina.ChineseOakSpecies2&#45;&gt;FloraMexico.MexicanOakSpecies2</title>
<path fill="none" stroke="#0000ff" stroke-dasharray="1,5" d="M721,-51.1406C721,-57.0238 721,-62.907 721,-68.7902"/>
</g>
<!-- FloraMexico.OakGenus -->
<g id="node4" class="node"><title>FloraMexico.OakGenus</title>
<polygon fill="#ffffcc" stroke="black" points="208.234,-25.5442 208.234,-40.4558 147.175,-51 60.8249,-51 -0.233914,-40.4558 -0.233914,-25.5442 60.8249,-15 147.175,-15 208.234,-25.5442"/>
<text text-anchor="middle" x="104" y="-29.3" font-family="Times,serif" font-size="14.00">FloraMexico.OakGenus</text>
</g>
<!-- FloraChina.OakGenus&#45;&gt;FloraMexico.OakGenus -->
<g id="edge7" class="edge"><title>FloraChina.OakGenus&#45;&gt;FloraMexico.OakGenus</title>
<path fill="none" stroke="#ff0000" d="M321.642,-74.4898C297.144,-69.9716 269.326,-64.8014 244,-60 224.474,-56.2983 203.419,-52.242 183.748,-48.4242"/>
<polygon fill="#ff0000" stroke="#ff0000" points="184.394,-44.9843 173.91,-46.5124 183.059,-51.8558 184.394,-44.9843"/>
</g>
<!-- FloraChina.OakGenus&#45;&gt;FloraMexico.MexicanOakSpecies1 -->
<g id="edge1" class="edge"><title>FloraChina.OakGenus&#45;&gt;FloraMexico.MexicanOakSpecies1</title>
<path fill="none" stroke="#0000ff" stroke-dasharray="1,5" d="M391,-68.7902C391,-62.907 391,-57.0238 391,-51.1406"/>
</g>
<!-- FloraMexico.MexicanOakSpecies1&#45;&gt;FloraMexico.OakGenus -->
<g id="edge5" class="edge"><title>FloraMexico.MexicanOakSpecies1&#45;&gt;FloraMexico.OakGenus</title>
<path fill="none" stroke="#000000" d="M243.743,-33C235.29,-33 226.854,-33 218.555,-33"/>
<polygon fill="#000000" stroke="#000000" points="218.508,-29.5001 208.508,-33 218.508,-36.5001 218.508,-29.5001"/>
</g>
<!-- FloraMexico.MexicanOakSpecies2&#45;&gt;FloraChina.OakGenus -->
<g id="edge6" class="edge"><title>FloraMexico.MexicanOakSpecies2&#45;&gt;FloraChina.OakGenus</title>
<path fill="none" stroke="#ff0000" d="M573.746,-87C538.138,-87 501.401,-87 470.356,-87"/>
<polygon fill="#ff0000" stroke="#ff0000" points="470.055,-83.5001 460.055,-87 470.055,-90.5001 470.055,-83.5001"/>
</g>
<!-- Legend -->
<g id="node7" class="node"><title>Legend</title>
<polygon fill="white" stroke="black" points="1235.5,-175 1136.5,-175 1136.5,1 1235.5,1 1235.5,-175"/>
<polygon fill="none" stroke="black" points="1137,-149 1137,-175 1236,-175 1236,-149 1137,-149"/>
<text text-anchor="start" x="1162" y="-158.3" font-family="Arial Black" font-size="14.00"> Nodes</text>
<polygon fill="#ccffcc" stroke="none" points="1137,-124 1137,-149 1219,-149 1219,-124 1137,-124"/>
<polygon fill="none" stroke="black" points="1137,-124 1137,-149 1219,-149 1219,-124 1137,-124"/>
<text text-anchor="start" x="1147.5" y="-132.8" font-family="Times,serif" font-size="14.00">FloraChina</text>
<polygon fill="none" stroke="black" points="1219,-124 1219,-149 1236,-149 1236,-124 1219,-124"/>
<text text-anchor="start" x="1224" y="-132.8" font-family="Times,serif" font-size="14.00">3</text>
<polygon fill="#ffffcc" stroke="none" points="1137,-99 1137,-124 1219,-124 1219,-99 1137,-99"/>
<polygon fill="none" stroke="black" points="1137,-99 1137,-124 1219,-124 1219,-99 1137,-99"/>
<text text-anchor="start" x="1142.5" y="-107.8" font-family="Times,serif" font-size="14.00">FloraMexico</text>
<polygon fill="none" stroke="black" points="1219,-99 1219,-124 1236,-124 1236,-99 1219,-99"/>
<text text-anchor="start" x="1224" y="-107.8" font-family="Times,serif" font-size="14.00">3</text>
<polygon fill="none" stroke="black" points="1137,-74 1137,-99 1236,-99 1236,-74 1137,-74"/>
<text text-anchor="start" x="1160.5" y="-82.8" font-family="Arial Black" font-size="14.00"> Edges </text>
<polygon fill="none" stroke="black" points="1137,-49 1137,-74 1219,-74 1219,-49 1137,-49"/>
<text text-anchor="start" x="1155" y="-57.8" font-family="Times,serif" font-size="14.00" fill="#0000ff">overlaps</text>
<polygon fill="none" stroke="black" points="1219,-49 1219,-74 1236,-74 1236,-49 1219,-49"/>
<text text-anchor="start" x="1224" y="-57.8" font-family="Times,serif" font-size="14.00">3</text>
<polygon fill="none" stroke="black" points="1137,-24 1137,-49 1219,-49 1219,-24 1137,-24"/>
<text text-anchor="start" x="1164" y="-32.8" font-family="Times,serif" font-size="14.00" fill="#000000">input</text>
<polygon fill="none" stroke="black" points="1219,-24 1219,-49 1236,-49 1236,-24 1219,-24"/>
<text text-anchor="start" x="1224" y="-32.8" font-family="Times,serif" font-size="14.00">2</text>
<polygon fill="none" stroke="black" points="1137,1 1137,-24 1219,-24 1219,1 1137,1"/>
<text text-anchor="start" x="1156.5" y="-7.8" font-family="Times,serif" font-size="14.00" fill="#ff0000">inferred</text>
<polygon fill="none" stroke="black" points="1219,1 1219,-24 1236,-24 1236,1 1219,1"/>
<text text-anchor="start" x="1224" y="-7.8" font-family="Times,serif" font-size="14.00">3</text>
</g>
</g>
</svg>
