<?xml version="1.0" encoding="UTF-8" standalone="no"?>
<!DOCTYPE svg PUBLIC "-//W3C//DTD SVG 1.1//EN"
 "http://www.w3.org/Graphics/SVG/1.1/DTD/svg11.dtd">
<!-- Generated by graphviz version 2.36.0 (20140111.2315)
 -->
<!-- Title: %3 Pages: 1 -->
<svg width="914pt" height="213pt"
 viewBox="0.00 0.00 914.00 213.00" xmlns="http://www.w3.org/2000/svg" xmlns:xlink="http://www.w3.org/1999/xlink">
<g id="graph0" class="graph" transform="scale(1 1) rotate(0) translate(4 209)">
<title>%3</title>
<polygon fill="white" stroke="none" points="-4,4 -4,-209 910,-209 910,4 -4,4"/>
<!-- FloraChina.OakGenus -->
<g id="node1" class="node"><title>FloraChina.OakGenus</title>
<polygon fill="#ccffcc" stroke="black" points="460,-205 322,-205 322,-169 460,-169 460,-205"/>
<text text-anchor="middle" x="391" y="-183.3" font-family="Times,serif" font-size="14.00">FloraChina.OakGenus</text>
</g>
<!-- FloraMexico.MexicanOakSpecies1 -->
<g id="node4" class="node"><title>FloraMexico.MexicanOakSpecies1</title>
<polygon fill="#ffffcc" stroke="black" points="538.06,-33.5442 538.06,-48.4558 451.914,-59 330.086,-59 243.94,-48.4558 243.94,-33.5442 330.086,-23 451.914,-23 538.06,-33.5442"/>
<text text-anchor="middle" x="391" y="-37.3" font-family="Times,serif" font-size="14.00">FloraMexico.MexicanOakSpecies1</text>
</g>
<!-- FloraChina.OakGenus&#45;&gt;FloraMexico.MexicanOakSpecies1 -->
<g id="edge3" class="edge"><title>FloraChina.OakGenus&#45;&gt;FloraMexico.MexicanOakSpecies1</title>
<path fill="none" stroke="#0000ff" stroke-dasharray="1,5" d="M460.307,-190.494C496.171,-188.063 536.447,-177.637 556,-146 572.122,-119.913 572.122,-103.087 556,-77 548.601,-65.0284 538.176,-56.2805 526.12,-49.9683"/>
</g>
<!-- FloraMexico.OakGenus -->
<g id="node5" class="node"><title>FloraMexico.OakGenus</title>
<polygon fill="#ffffcc" stroke="black" points="208.234,-60.5442 208.234,-75.4558 147.175,-86 60.8249,-86 -0.233914,-75.4558 -0.233914,-60.5442 60.8249,-50 147.175,-50 208.234,-60.5442"/>
<text text-anchor="middle" x="104" y="-64.3" font-family="Times,serif" font-size="14.00">FloraMexico.OakGenus</text>
</g>
<!-- FloraChina.OakGenus&#45;&gt;FloraMexico.OakGenus -->
<g id="edge1" class="edge"><title>FloraChina.OakGenus&#45;&gt;FloraMexico.OakGenus</title>
<path fill="none" stroke="#0000ff" stroke-dasharray="1,5" d="M321.668,-177.05C296.661,-172.113 268.505,-165.002 244,-155 200.245,-137.142 154.79,-105.863 128.236,-86.0764"/>
</g>
<!-- FloraMexico.MexicanOakSpecies2 -->
<g id="node6" class="node"><title>FloraMexico.MexicanOakSpecies2</title>
<polygon fill="#ffffcc" stroke="black" points="538.06,-87.5442 538.06,-102.456 451.914,-113 330.086,-113 243.94,-102.456 243.94,-87.5442 330.086,-77 451.914,-77 538.06,-87.5442"/>
<text text-anchor="middle" x="391" y="-91.3" font-family="Times,serif" font-size="14.00">FloraMexico.MexicanOakSpecies2</text>
</g>
<!-- FloraChina.OakGenus&#45;&gt;FloraMexico.MexicanOakSpecies2 -->
<g id="edge4" class="edge"><title>FloraChina.OakGenus&#45;&gt;FloraMexico.MexicanOakSpecies2</title>
<path fill="none" stroke="#0000ff" stroke-dasharray="1,5" d="M391,-168.87C391,-150.356 391,-131.842 391,-113.328"/>
</g>
<!-- FloraChina.ChineseOakSpecies1 -->
<g id="node2" class="node"><title>FloraChina.ChineseOakSpecies1</title>
<polygon fill="#ccffcc" stroke="black" points="769.5,-105 574.5,-105 574.5,-69 769.5,-69 769.5,-105"/>
<text text-anchor="middle" x="672" y="-83.3" font-family="Times,serif" font-size="14.00">FloraChina.ChineseOakSpecies1</text>
</g>
<!-- FloraChina.ChineseOakSpecies1&#45;&gt;FloraChina.OakGenus -->
<g id="edge9" class="edge"><title>FloraChina.ChineseOakSpecies1&#45;&gt;FloraChina.OakGenus</title>
<path fill="none" stroke="#000000" d="M620.475,-105.109C573.12,-122.082 502.288,-147.47 452.062,-165.472"/>
<polygon fill="#000000" stroke="#000000" points="450.852,-162.188 442.62,-168.857 453.214,-168.777 450.852,-162.188"/>
</g>
<!-- FloraChina.ChineseOakSpecies1&#45;&gt;FloraMexico.MexicanOakSpecies1 -->
<g id="edge10" class="edge"><title>FloraChina.ChineseOakSpecies1&#45;&gt;FloraMexico.MexicanOakSpecies1</title>
<path fill="none" stroke="#ff0000" d="M574.202,-71.0405C547.009,-66.557 517.42,-61.6785 490.148,-57.1821"/>
<polygon fill="#ff0000" stroke="#ff0000" points="490.651,-53.7178 480.214,-55.5443 489.512,-60.6246 490.651,-53.7178"/>
</g>
<!-- FloraChina.ChineseOakSpecies2 -->
<g id="node3" class="node"><title>FloraChina.ChineseOakSpecies2</title>
<polygon fill="#ccffcc" stroke="black" points="769.5,-205 574.5,-205 574.5,-169 769.5,-169 769.5,-205"/>
<text text-anchor="middle" x="672" y="-183.3" font-family="Times,serif" font-size="14.00">FloraChina.ChineseOakSpecies2</text>
</g>
<!-- FloraChina.ChineseOakSpecies2&#45;&gt;FloraChina.OakGenus -->
<g id="edge7" class="edge"><title>FloraChina.ChineseOakSpecies2&#45;&gt;FloraChina.OakGenus</title>
<path fill="none" stroke="#000000" d="M574.202,-187C540.26,-187 502.586,-187 470.345,-187"/>
<polygon fill="#000000" stroke="#000000" points="470.08,-183.5 460.08,-187 470.08,-190.5 470.08,-183.5"/>
</g>
<!-- FloraChina.ChineseOakSpecies2&#45;&gt;FloraMexico.OakGenus -->
<g id="edge2" class="edge"><title>FloraChina.ChineseOakSpecies2&#45;&gt;FloraMexico.OakGenus</title>
<path fill="none" stroke="#0000ff" stroke-dasharray="1,5" d="M586.739,-168.946C570.599,-165.757 553.806,-162.622 538,-160 408.023,-138.436 371.673,-154.538 244,-122 209.254,-113.145 171.42,-98.0656 144.008,-86.0888"/>
</g>
<!-- FloraChina.ChineseOakSpecies2&#45;&gt;FloraMexico.MexicanOakSpecies2 -->
<g id="edge5" class="edge"><title>FloraChina.ChineseOakSpecies2&#45;&gt;FloraMexico.MexicanOakSpecies2</title>
<path fill="none" stroke="#0000ff" stroke-dasharray="1,5" d="M636.236,-168.905C609.857,-155.774 572.387,-138.387 538,-127 518.047,-120.393 496.104,-114.763 475.428,-110.154"/>
</g>
<!-- FloraMexico.MexicanOakSpecies1&#45;&gt;FloraMexico.OakGenus -->
<g id="edge6" class="edge"><title>FloraMexico.MexicanOakSpecies1&#45;&gt;FloraMexico.OakGenus</title>
<path fill="none" stroke="#000000" d="M273.257,-52.0598C252.252,-54.0498 230.475,-56.1129 209.834,-58.0684"/>
<polygon fill="#000000" stroke="#000000" points="209.426,-54.5913 199.8,-59.0189 210.086,-61.5601 209.426,-54.5913"/>
</g>
<!-- FloraMexico.MexicanOakSpecies2&#45;&gt;FloraMexico.OakGenus -->
<g id="edge8" class="edge"><title>FloraMexico.MexicanOakSpecies2&#45;&gt;FloraMexico.OakGenus</title>
<path fill="none" stroke="#000000" d="M273.257,-83.9402C252.252,-81.9502 230.475,-79.8871 209.834,-77.9316"/>
<polygon fill="#000000" stroke="#000000" points="210.086,-74.4399 199.8,-76.9811 209.426,-81.4087 210.086,-74.4399"/>
</g>
<!-- Legend -->
<g id="node7" class="node"><title>Legend</title>
<polygon fill="white" stroke="black" points="905.5,-175 806.5,-175 806.5,1 905.5,1 905.5,-175"/>
<polygon fill="none" stroke="black" points="807,-149 807,-175 906,-175 906,-149 807,-149"/>
<text text-anchor="start" x="832" y="-158.3" font-family="Arial Black" font-size="14.00"> Nodes</text>
<polygon fill="#ccffcc" stroke="none" points="807,-124 807,-149 889,-149 889,-124 807,-124"/>
<polygon fill="none" stroke="black" points="807,-124 807,-149 889,-149 889,-124 807,-124"/>
<text text-anchor="start" x="817.5" y="-132.8" font-family="Times,serif" font-size="14.00">FloraChina</text>
<polygon fill="none" stroke="black" points="889,-124 889,-149 906,-149 906,-124 889,-124"/>
<text text-anchor="start" x="894" y="-132.8" font-family="Times,serif" font-size="14.00">3</text>
<polygon fill="#ffffcc" stroke="none" points="807,-99 807,-124 889,-124 889,-99 807,-99"/>
<polygon fill="none" stroke="black" points="807,-99 807,-124 889,-124 889,-99 807,-99"/>
<text text-anchor="start" x="812.5" y="-107.8" font-family="Times,serif" font-size="14.00">FloraMexico</text>
<polygon fill="none" stroke="black" points="889,-99 889,-124 906,-124 906,-99 889,-99"/>
<text text-anchor="start" x="894" y="-107.8" font-family="Times,serif" font-size="14.00">3</text>
<polygon fill="none" stroke="black" points="807,-74 807,-99 906,-99 906,-74 807,-74"/>
<text text-anchor="start" x="830.5" y="-82.8" font-family="Arial Black" font-size="14.00"> Edges </text>
<polygon fill="none" stroke="black" points="807,-49 807,-74 889,-74 889,-49 807,-49"/>
<text text-anchor="start" x="825" y="-57.8" font-family="Times,serif" font-size="14.00" fill="#0000ff">overlaps</text>
<polygon fill="none" stroke="black" points="889,-49 889,-74 906,-74 906,-49 889,-49"/>
<text text-anchor="start" x="894" y="-57.8" font-family="Times,serif" font-size="14.00">5</text>
<polygon fill="none" stroke="black" points="807,-24 807,-49 889,-49 889,-24 807,-24"/>
<text text-anchor="start" x="834" y="-32.8" font-family="Times,serif" font-size="14.00" fill="#000000">input</text>
<polygon fill="none" stroke="black" points="889,-24 889,-49 906,-49 906,-24 889,-24"/>
<text text-anchor="start" x="894" y="-32.8" font-family="Times,serif" font-size="14.00">4</text>
<polygon fill="none" stroke="black" points="807,1 807,-24 889,-24 889,1 807,1"/>
<text text-anchor="start" x="826.5" y="-7.8" font-family="Times,serif" font-size="14.00" fill="#ff0000">inferred</text>
<polygon fill="none" stroke="black" points="889,1 889,-24 906,-24 906,1 889,1"/>
<text text-anchor="start" x="894" y="-7.8" font-family="Times,serif" font-size="14.00">1</text>
</g>
</g>
</svg>
