<?xml version="1.0" encoding="UTF-8" standalone="no"?>
<!DOCTYPE svg PUBLIC "-//W3C//DTD SVG 1.1//EN"
 "http://www.w3.org/Graphics/SVG/1.1/DTD/svg11.dtd">
<!-- Generated by graphviz version 2.36.0 (20140111.2315)
 -->
<!-- Title: %3 Pages: 1 -->
<svg width="1012pt" height="213pt"
 viewBox="0.00 0.00 1012.00 213.00" xmlns="http://www.w3.org/2000/svg" xmlns:xlink="http://www.w3.org/1999/xlink">
<g id="graph0" class="graph" transform="scale(1 1) rotate(0) translate(4 209)">
<title>%3</title>
<polygon fill="white" stroke="none" points="-4,4 -4,-209 1008,-209 1008,4 -4,4"/>
<!-- FloraChina.OakGenus -->
<g id="node1" class="node"><title>FloraChina.OakGenus</title>
<polygon fill="#ccffcc" stroke="black" points="173,-170 35,-170 35,-134 173,-134 173,-170"/>
<text text-anchor="middle" x="104" y="-148.3" font-family="Times,serif" font-size="14.00">FloraChina.OakGenus</text>
</g>
<!-- FloraMexico.OakGenus -->
<g id="node4" class="node"><title>FloraMexico.OakGenus</title>
<polygon fill="#ffffcc" stroke="black" points="208.234,-79.5442 208.234,-94.4558 147.175,-105 60.8249,-105 -0.233914,-94.4558 -0.233914,-79.5442 60.8249,-69 147.175,-69 208.234,-79.5442"/>
<text text-anchor="middle" x="104" y="-83.3" font-family="Times,serif" font-size="14.00">FloraMexico.OakGenus</text>
</g>
<!-- FloraChina.OakGenus&#45;&gt;FloraMexico.OakGenus -->
<g id="edge1" class="edge"><title>FloraChina.OakGenus&#45;&gt;FloraMexico.OakGenus</title>
<path fill="none" stroke="#0000ff" stroke-dasharray="1,5" d="M104,-133.651C104,-124.11 104,-114.569 104,-105.027"/>
</g>
<!-- FloraMexico.MexicanOakSpecies1 -->
<g id="node5" class="node"><title>FloraMexico.MexicanOakSpecies1</title>
<polygon fill="#ffffcc" stroke="black" points="538.06,-156.544 538.06,-171.456 451.914,-182 330.086,-182 243.94,-171.456 243.94,-156.544 330.086,-146 451.914,-146 538.06,-156.544"/>
<text text-anchor="middle" x="391" y="-160.3" font-family="Times,serif" font-size="14.00">FloraMexico.MexicanOakSpecies1</text>
</g>
<!-- FloraChina.OakGenus&#45;&gt;FloraMexico.MexicanOakSpecies1 -->
<g id="edge2" class="edge"><title>FloraChina.OakGenus&#45;&gt;FloraMexico.MexicanOakSpecies1</title>
<path fill="none" stroke="#0000ff" stroke-dasharray="1,5" d="M173.324,-154.877C194.691,-155.776 219.142,-156.806 243.743,-157.842"/>
</g>
<!-- FloraChina.ChineseOakSpecies1 -->
<g id="node2" class="node"><title>FloraChina.ChineseOakSpecies1</title>
<polygon fill="#ccffcc" stroke="black" points="488.5,-128 293.5,-128 293.5,-92 488.5,-92 488.5,-128"/>
<text text-anchor="middle" x="391" y="-106.3" font-family="Times,serif" font-size="14.00">FloraChina.ChineseOakSpecies1</text>
</g>
<!-- FloraChina.ChineseOakSpecies1&#45;&gt;FloraChina.OakGenus -->
<g id="edge8" class="edge"><title>FloraChina.ChineseOakSpecies1&#45;&gt;FloraChina.OakGenus</title>
<path fill="none" stroke="#000000" d="M293.114,-124.278C257.431,-129.536 217.482,-135.424 183.608,-140.416"/>
<polygon fill="#000000" stroke="#000000" points="182.684,-137.014 173.301,-141.935 183.705,-143.939 182.684,-137.014"/>
</g>
<!-- FloraChina.ChineseOakSpecies1&#45;&gt;FloraMexico.OakGenus -->
<g id="edge4" class="edge"><title>FloraChina.ChineseOakSpecies1&#45;&gt;FloraMexico.OakGenus</title>
<path fill="none" stroke="#0000ff" stroke-dasharray="1,5" d="M293.114,-102.181C264.713,-99.8891 233.609,-97.379 205.017,-95.0715"/>
</g>
<!-- FloraChina.ChineseOakSpecies1&#45;&gt;FloraMexico.MexicanOakSpecies1 -->
<g id="edge3" class="edge"><title>FloraChina.ChineseOakSpecies1&#45;&gt;FloraMexico.MexicanOakSpecies1</title>
<path fill="none" stroke="#0000ff" stroke-dasharray="1,5" d="M391,-128.141C391,-134.024 391,-139.907 391,-145.79"/>
</g>
<!-- FloraChina.ChineseOakSpecies2 -->
<g id="node3" class="node"><title>FloraChina.ChineseOakSpecies2</title>
<polygon fill="#ccffcc" stroke="black" points="818.5,-205 623.5,-205 623.5,-169 818.5,-169 818.5,-205"/>
<text text-anchor="middle" x="721" y="-183.3" font-family="Times,serif" font-size="14.00">FloraChina.ChineseOakSpecies2</text>
</g>
<!-- FloraChina.ChineseOakSpecies2&#45;&gt;FloraChina.OakGenus -->
<g id="edge6" class="edge"><title>FloraChina.ChineseOakSpecies2&#45;&gt;FloraChina.OakGenus</title>
<path fill="none" stroke="#000000" d="M623.293,-195.971C526.746,-203.015 374.378,-208.944 244,-191 218.031,-187.426 190.08,-180.262 166.101,-173.039"/>
<polygon fill="#000000" stroke="#000000" points="167.019,-169.66 156.432,-170.059 164.957,-176.349 167.019,-169.66"/>
</g>
<!-- FloraChina.ChineseOakSpecies2&#45;&gt;FloraMexico.MexicanOakSpecies1 -->
<g id="edge10" class="edge"><title>FloraChina.ChineseOakSpecies2&#45;&gt;FloraMexico.MexicanOakSpecies1</title>
<path fill="none" stroke="#ff0000" d="M623.363,-180.224C595.35,-178.259 564.163,-176.072 533.989,-173.957"/>
<polygon fill="#ff0000" stroke="#ff0000" points="534.021,-170.45 523.801,-173.242 533.531,-177.433 534.021,-170.45"/>
</g>
<!-- FloraMexico.MexicanOakSpecies1&#45;&gt;FloraMexico.OakGenus -->
<g id="edge5" class="edge"><title>FloraMexico.MexicanOakSpecies1&#45;&gt;FloraMexico.OakGenus</title>
<path fill="none" stroke="#000000" d="M299.529,-149.638C281.034,-146.041 261.792,-141.811 244,-137 235.514,-134.705 196.246,-120.526 161.603,-107.851"/>
<polygon fill="#000000" stroke="#000000" points="162.577,-104.481 151.983,-104.327 160.169,-111.053 162.577,-104.481"/>
</g>
<!-- FloraMexico.MexicanOakSpecies2 -->
<g id="node6" class="node"><title>FloraMexico.MexicanOakSpecies2</title>
<polygon fill="#ffffcc" stroke="black" points="868.06,-79.5442 868.06,-94.4558 781.914,-105 660.086,-105 573.94,-94.4558 573.94,-79.5442 660.086,-69 781.914,-69 868.06,-79.5442"/>
<text text-anchor="middle" x="721" y="-83.3" font-family="Times,serif" font-size="14.00">FloraMexico.MexicanOakSpecies2</text>
</g>
<!-- FloraMexico.MexicanOakSpecies2&#45;&gt;FloraChina.ChineseOakSpecies1 -->
<g id="edge9" class="edge"><title>FloraMexico.MexicanOakSpecies2&#45;&gt;FloraChina.ChineseOakSpecies1</title>
<path fill="none" stroke="#ff0000" d="M588.008,-96.2556C558.439,-98.3289 527.427,-100.504 499.019,-102.496"/>
<polygon fill="#ff0000" stroke="#ff0000" points="498.409,-99.0297 488.679,-103.221 498.899,-106.013 498.409,-99.0297"/>
</g>
<!-- FloraMexico.MexicanOakSpecies2&#45;&gt;FloraMexico.OakGenus -->
<g id="edge7" class="edge"><title>FloraMexico.MexicanOakSpecies2&#45;&gt;FloraMexico.OakGenus</title>
<path fill="none" stroke="#000000" d="M573.485,-83.5003C561.481,-83.2987 549.535,-83.1267 538,-83 407.341,-81.5644 374.653,-81.1205 244,-83 235.672,-83.1198 227.064,-83.28 218.403,-83.4674"/>
<polygon fill="#000000" stroke="#000000" points="218.142,-79.9724 208.225,-83.6993 218.302,-86.9705 218.142,-79.9724"/>
</g>
<!-- Legend -->
<g id="node7" class="node"><title>Legend</title>
<polygon fill="white" stroke="black" points="1003.5,-175 904.5,-175 904.5,1 1003.5,1 1003.5,-175"/>
<polygon fill="none" stroke="black" points="905,-149 905,-175 1004,-175 1004,-149 905,-149"/>
<text text-anchor="start" x="930" y="-158.3" font-family="Arial Black" font-size="14.00"> Nodes</text>
<polygon fill="#ccffcc" stroke="none" points="905,-124 905,-149 987,-149 987,-124 905,-124"/>
<polygon fill="none" stroke="black" points="905,-124 905,-149 987,-149 987,-124 905,-124"/>
<text text-anchor="start" x="915.5" y="-132.8" font-family="Times,serif" font-size="14.00">FloraChina</text>
<polygon fill="none" stroke="black" points="987,-124 987,-149 1004,-149 1004,-124 987,-124"/>
<text text-anchor="start" x="992" y="-132.8" font-family="Times,serif" font-size="14.00">3</text>
<polygon fill="#ffffcc" stroke="none" points="905,-99 905,-124 987,-124 987,-99 905,-99"/>
<polygon fill="none" stroke="black" points="905,-99 905,-124 987,-124 987,-99 905,-99"/>
<text text-anchor="start" x="910.5" y="-107.8" font-family="Times,serif" font-size="14.00">FloraMexico</text>
<polygon fill="none" stroke="black" points="987,-99 987,-124 1004,-124 1004,-99 987,-99"/>
<text text-anchor="start" x="992" y="-107.8" font-family="Times,serif" font-size="14.00">3</text>
<polygon fill="none" stroke="black" points="905,-74 905,-99 1004,-99 1004,-74 905,-74"/>
<text text-anchor="start" x="928.5" y="-82.8" font-family="Arial Black" font-size="14.00"> Edges </text>
<polygon fill="none" stroke="black" points="905,-49 905,-74 987,-74 987,-49 905,-49"/>
<text text-anchor="start" x="923" y="-57.8" font-family="Times,serif" font-size="14.00" fill="#0000ff">overlaps</text>
<polygon fill="none" stroke="black" points="987,-49 987,-74 1004,-74 1004,-49 987,-49"/>
<text text-anchor="start" x="992" y="-57.8" font-family="Times,serif" font-size="14.00">4</text>
<polygon fill="none" stroke="black" points="905,-24 905,-49 987,-49 987,-24 905,-24"/>
<text text-anchor="start" x="932" y="-32.8" font-family="Times,serif" font-size="14.00" fill="#000000">input</text>
<polygon fill="none" stroke="black" points="987,-24 987,-49 1004,-49 1004,-24 987,-24"/>
<text text-anchor="start" x="992" y="-32.8" font-family="Times,serif" font-size="14.00">4</text>
<polygon fill="none" stroke="black" points="905,1 905,-24 987,-24 987,1 905,1"/>
<text text-anchor="start" x="924.5" y="-7.8" font-family="Times,serif" font-size="14.00" fill="#ff0000">inferred</text>
<polygon fill="none" stroke="black" points="987,1 987,-24 1004,-24 1004,1 987,1"/>
<text text-anchor="start" x="992" y="-7.8" font-family="Times,serif" font-size="14.00">2</text>
</g>
</g>
</svg>
