<?xml version="1.0" encoding="UTF-8" standalone="no"?>
<!DOCTYPE svg PUBLIC "-//W3C//DTD SVG 1.1//EN"
 "http://www.w3.org/Graphics/SVG/1.1/DTD/svg11.dtd">
<!-- Generated by graphviz version 2.36.0 (20140111.2315)
 -->
<!-- Title: %3 Pages: 1 -->
<svg width="1244pt" height="183pt"
 viewBox="0.00 0.00 1244.00 183.00" xmlns="http://www.w3.org/2000/svg" xmlns:xlink="http://www.w3.org/1999/xlink">
<g id="graph0" class="graph" transform="scale(1 1) rotate(0) translate(4 179)">
<title>%3</title>
<polygon fill="white" stroke="none" points="-4,4 -4,-179 1240,-179 1240,4 -4,4"/>
<!-- FloraChina.ChineseOakSpecies1 -->
<g id="node1" class="node"><title>FloraChina.ChineseOakSpecies1</title>
<polygon fill="#ccffcc" stroke="black" points="769.5,-51 574.5,-51 574.5,-15 769.5,-15 769.5,-51"/>
<text text-anchor="middle" x="672" y="-29.3" font-family="Times,serif" font-size="14.00">FloraChina.ChineseOakSpecies1</text>
</g>
<!-- FloraChina.OakGenus -->
<g id="node3" class="node"><title>FloraChina.OakGenus</title>
<polygon fill="#ccffcc" stroke="black" points="460,-105 322,-105 322,-69 460,-69 460,-105"/>
<text text-anchor="middle" x="391" y="-83.3" font-family="Times,serif" font-size="14.00">FloraChina.OakGenus</text>
</g>
<!-- FloraChina.ChineseOakSpecies1&#45;&gt;FloraChina.OakGenus -->
<g id="edge5" class="edge"><title>FloraChina.ChineseOakSpecies1&#45;&gt;FloraChina.OakGenus</title>
<path fill="none" stroke="#000000" d="M583.405,-51.0081C568.272,-54.0545 552.688,-57.1513 538,-60 515.946,-64.2775 491.987,-68.7718 469.975,-72.8396"/>
<polygon fill="#000000" stroke="#000000" points="469.213,-69.4211 460.013,-74.6762 470.482,-76.3051 469.213,-69.4211"/>
</g>
<!-- FloraMexico.MexicanOakSpecies2 -->
<g id="node6" class="node"><title>FloraMexico.MexicanOakSpecies2</title>
<polygon fill="#ffffcc" stroke="black" points="538.06,-25.5442 538.06,-40.4558 451.914,-51 330.086,-51 243.94,-40.4558 243.94,-25.5442 330.086,-15 451.914,-15 538.06,-25.5442"/>
<text text-anchor="middle" x="391" y="-29.3" font-family="Times,serif" font-size="14.00">FloraMexico.MexicanOakSpecies2</text>
</g>
<!-- FloraChina.ChineseOakSpecies1&#45;&gt;FloraMexico.MexicanOakSpecies2 -->
<g id="edge7" class="edge"><title>FloraChina.ChineseOakSpecies1&#45;&gt;FloraMexico.MexicanOakSpecies2</title>
<path fill="none" stroke="#ff0000" d="M574.202,-33C565.831,-33 557.233,-33 548.546,-33"/>
<polygon fill="#ff0000" stroke="#ff0000" points="548.314,-29.5001 538.314,-33 548.314,-36.5001 548.314,-29.5001"/>
</g>
<!-- FloraChina.ChineseOakSpecies2 -->
<g id="node2" class="node"><title>FloraChina.ChineseOakSpecies2</title>
<polygon fill="#ccffcc" stroke="black" points="769.5,-105 574.5,-105 574.5,-69 769.5,-69 769.5,-105"/>
<text text-anchor="middle" x="672" y="-83.3" font-family="Times,serif" font-size="14.00">FloraChina.ChineseOakSpecies2</text>
</g>
<!-- FloraChina.ChineseOakSpecies2&#45;&gt;FloraChina.OakGenus -->
<g id="edge4" class="edge"><title>FloraChina.ChineseOakSpecies2&#45;&gt;FloraChina.OakGenus</title>
<path fill="none" stroke="#000000" d="M574.202,-87C540.26,-87 502.586,-87 470.345,-87"/>
<polygon fill="#000000" stroke="#000000" points="470.08,-83.5001 460.08,-87 470.08,-90.5001 470.08,-83.5001"/>
</g>
<!-- FloraChina.ChineseOakSpecies2&#45;&gt;FloraMexico.MexicanOakSpecies2 -->
<g id="edge2" class="edge"><title>FloraChina.ChineseOakSpecies2&#45;&gt;FloraMexico.MexicanOakSpecies2</title>
<path fill="none" stroke="#0000ff" stroke-dasharray="1,5" d="M583.405,-68.9919C568.272,-65.9455 552.688,-62.8487 538,-60 517.756,-56.0735 495.906,-51.9644 475.432,-48.1702"/>
</g>
<!-- FloraMexico.OakGenus -->
<g id="node5" class="node"><title>FloraMexico.OakGenus</title>
<polygon fill="#ffffcc" stroke="black" points="208.234,-52.5442 208.234,-67.4558 147.175,-78 60.8249,-78 -0.233914,-67.4558 -0.233914,-52.5442 60.8249,-42 147.175,-42 208.234,-52.5442"/>
<text text-anchor="middle" x="104" y="-56.3" font-family="Times,serif" font-size="14.00">FloraMexico.OakGenus</text>
</g>
<!-- FloraChina.OakGenus&#45;&gt;FloraMexico.OakGenus -->
<g id="edge6" class="edge"><title>FloraChina.OakGenus&#45;&gt;FloraMexico.OakGenus</title>
<path fill="none" stroke="#ff0000" d="M321.735,-80.5328C288.319,-77.367 247.346,-73.4854 210.055,-69.9526"/>
<polygon fill="#ff0000" stroke="#ff0000" points="209.93,-66.4251 199.644,-68.9663 209.269,-73.3939 209.93,-66.4251"/>
</g>
<!-- FloraChina.OakGenus&#45;&gt;FloraMexico.MexicanOakSpecies2 -->
<g id="edge1" class="edge"><title>FloraChina.OakGenus&#45;&gt;FloraMexico.MexicanOakSpecies2</title>
<path fill="none" stroke="#0000ff" stroke-dasharray="1,5" d="M391,-68.7902C391,-62.907 391,-57.0238 391,-51.1406"/>
</g>
<!-- FloraMexico.MexicanOakSpecies1 -->
<g id="node4" class="node"><title>FloraMexico.MexicanOakSpecies1</title>
<polygon fill="#ffffcc" stroke="black" points="1100.06,-79.5442 1100.06,-94.4558 1013.91,-105 892.086,-105 805.94,-94.4558 805.94,-79.5442 892.086,-69 1013.91,-69 1100.06,-79.5442"/>
<text text-anchor="middle" x="953" y="-83.3" font-family="Times,serif" font-size="14.00">FloraMexico.MexicanOakSpecies1</text>
</g>
<!-- FloraMexico.MexicanOakSpecies1&#45;&gt;FloraChina.ChineseOakSpecies2 -->
<g id="edge8" class="edge"><title>FloraMexico.MexicanOakSpecies1&#45;&gt;FloraChina.ChineseOakSpecies2</title>
<path fill="none" stroke="#ff0000" d="M805.963,-87C797.15,-87 788.372,-87 779.77,-87"/>
<polygon fill="#ff0000" stroke="#ff0000" points="779.761,-83.5001 769.761,-87 779.761,-90.5001 779.761,-83.5001"/>
</g>
<!-- FloraMexico.MexicanOakSpecies2&#45;&gt;FloraMexico.OakGenus -->
<g id="edge3" class="edge"><title>FloraMexico.MexicanOakSpecies2&#45;&gt;FloraMexico.OakGenus</title>
<path fill="none" stroke="#000000" d="M273.257,-44.0598C252.252,-46.0498 230.475,-48.1129 209.834,-50.0684"/>
<polygon fill="#000000" stroke="#000000" points="209.426,-46.5913 199.8,-51.0189 210.086,-53.5601 209.426,-46.5913"/>
</g>
<!-- Legend -->
<g id="node7" class="node"><title>Legend</title>
<polygon fill="white" stroke="black" points="1235.5,-175 1136.5,-175 1136.5,1 1235.5,1 1235.5,-175"/>
<polygon fill="none" stroke="black" points="1137,-149 1137,-175 1236,-175 1236,-149 1137,-149"/>
<text text-anchor="start" x="1162" y="-158.3" font-family="Arial Black" font-size="14.00"> Nodes</text>
<polygon fill="#ccffcc" stroke="none" points="1137,-124 1137,-149 1219,-149 1219,-124 1137,-124"/>
<polygon fill="none" stroke="black" points="1137,-124 1137,-149 1219,-149 1219,-124 1137,-124"/>
<text text-anchor="start" x="1147.5" y="-132.8" font-family="Times,serif" font-size="14.00">FloraChina</text>
<polygon fill="none" stroke="black" points="1219,-124 1219,-149 1236,-149 1236,-124 1219,-124"/>
<text text-anchor="start" x="1224" y="-132.8" font-family="Times,serif" font-size="14.00">3</text>
<polygon fill="#ffffcc" stroke="none" points="1137,-99 1137,-124 1219,-124 1219,-99 1137,-99"/>
<polygon fill="none" stroke="black" points="1137,-99 1137,-124 1219,-124 1219,-99 1137,-99"/>
<text text-anchor="start" x="1142.5" y="-107.8" font-family="Times,serif" font-size="14.00">FloraMexico</text>
<polygon fill="none" stroke="black" points="1219,-99 1219,-124 1236,-124 1236,-99 1219,-99"/>
<text text-anchor="start" x="1224" y="-107.8" font-family="Times,serif" font-size="14.00">3</text>
<polygon fill="none" stroke="black" points="1137,-74 1137,-99 1236,-99 1236,-74 1137,-74"/>
<text text-anchor="start" x="1160.5" y="-82.8" font-family="Arial Black" font-size="14.00"> Edges </text>
<polygon fill="none" stroke="black" points="1137,-49 1137,-74 1219,-74 1219,-49 1137,-49"/>
<text text-anchor="start" x="1155" y="-57.8" font-family="Times,serif" font-size="14.00" fill="#0000ff">overlaps</text>
<polygon fill="none" stroke="black" points="1219,-49 1219,-74 1236,-74 1236,-49 1219,-49"/>
<text text-anchor="start" x="1224" y="-57.8" font-family="Times,serif" font-size="14.00">2</text>
<polygon fill="none" stroke="black" points="1137,-24 1137,-49 1219,-49 1219,-24 1137,-24"/>
<text text-anchor="start" x="1164" y="-32.8" font-family="Times,serif" font-size="14.00" fill="#000000">input</text>
<polygon fill="none" stroke="black" points="1219,-24 1219,-49 1236,-49 1236,-24 1219,-24"/>
<text text-anchor="start" x="1224" y="-32.8" font-family="Times,serif" font-size="14.00">3</text>
<polygon fill="none" stroke="black" points="1137,1 1137,-24 1219,-24 1219,1 1137,1"/>
<text text-anchor="start" x="1156.5" y="-7.8" font-family="Times,serif" font-size="14.00" fill="#ff0000">inferred</text>
<polygon fill="none" stroke="black" points="1219,1 1219,-24 1236,-24 1236,1 1219,1"/>
<text text-anchor="start" x="1224" y="-7.8" font-family="Times,serif" font-size="14.00">3</text>
</g>
</g>
</svg>
