<?xml version="1.0" encoding="UTF-8" standalone="no"?>
<!DOCTYPE svg PUBLIC "-//W3C//DTD SVG 1.1//EN"
 "http://www.w3.org/Graphics/SVG/1.1/DTD/svg11.dtd">
<!-- Generated by graphviz version 2.36.0 (20140111.2315)
 -->
<!-- Title: %3 Pages: 1 -->
<svg width="1012pt" height="220pt"
 viewBox="0.00 0.00 1012.00 220.00" xmlns="http://www.w3.org/2000/svg" xmlns:xlink="http://www.w3.org/1999/xlink">
<g id="graph0" class="graph" transform="scale(1 1) rotate(0) translate(4 216)">
<title>%3</title>
<polygon fill="white" stroke="none" points="-4,4 -4,-216 1008,-216 1008,4 -4,4"/>
<!-- FloraChina.ChineseOakSpecies1 -->
<g id="node1" class="node"><title>FloraChina.ChineseOakSpecies1</title>
<polygon fill="#ccffcc" stroke="black" points="488.5,-212 293.5,-212 293.5,-176 488.5,-176 488.5,-212"/>
<text text-anchor="middle" x="391" y="-190.3" font-family="Times,serif" font-size="14.00">FloraChina.ChineseOakSpecies1</text>
</g>
<!-- FloraChina.OakGenus -->
<g id="node3" class="node"><title>FloraChina.OakGenus</title>
<polygon fill="#ccffcc" stroke="black" points="173,-193 35,-193 35,-157 173,-157 173,-193"/>
<text text-anchor="middle" x="104" y="-171.3" font-family="Times,serif" font-size="14.00">FloraChina.OakGenus</text>
</g>
<!-- FloraChina.ChineseOakSpecies1&#45;&gt;FloraChina.OakGenus -->
<g id="edge6" class="edge"><title>FloraChina.ChineseOakSpecies1&#45;&gt;FloraChina.OakGenus</title>
<path fill="none" stroke="#000000" d="M293.114,-187.541C257.431,-185.162 217.482,-182.499 183.608,-180.241"/>
<polygon fill="#000000" stroke="#000000" points="183.512,-176.726 173.301,-179.553 183.046,-183.711 183.512,-176.726"/>
</g>
<!-- FloraMexico.OakGenus -->
<g id="node4" class="node"><title>FloraMexico.OakGenus</title>
<polygon fill="#ffffcc" stroke="black" points="208.234,-94.5442 208.234,-109.456 147.175,-120 60.8249,-120 -0.233914,-109.456 -0.233914,-94.5442 60.8249,-84 147.175,-84 208.234,-94.5442"/>
<text text-anchor="middle" x="104" y="-98.3" font-family="Times,serif" font-size="14.00">FloraMexico.OakGenus</text>
</g>
<!-- FloraChina.ChineseOakSpecies1&#45;&gt;FloraMexico.OakGenus -->
<g id="edge1" class="edge"><title>FloraChina.ChineseOakSpecies1&#45;&gt;FloraMexico.OakGenus</title>
<path fill="none" stroke="#0000ff" stroke-dasharray="1,5" d="M295.047,-175.962C277.902,-171.922 260.301,-167.251 244,-162 224.736,-155.795 178.348,-135.342 144.441,-120.03"/>
</g>
<!-- FloraChina.ChineseOakSpecies2 -->
<g id="node2" class="node"><title>FloraChina.ChineseOakSpecies2</title>
<polygon fill="#ccffcc" stroke="black" points="818.5,-105 623.5,-105 623.5,-69 818.5,-69 818.5,-105"/>
<text text-anchor="middle" x="721" y="-83.3" font-family="Times,serif" font-size="14.00">FloraChina.ChineseOakSpecies2</text>
</g>
<!-- FloraChina.ChineseOakSpecies2&#45;&gt;FloraChina.OakGenus -->
<g id="edge7" class="edge"><title>FloraChina.ChineseOakSpecies2&#45;&gt;FloraChina.OakGenus</title>
<path fill="none" stroke="#000000" d="M623.23,-100.847C501.696,-118.237 295.543,-147.735 183.375,-163.785"/>
<polygon fill="#000000" stroke="#000000" points="182.553,-160.367 173.15,-165.248 183.545,-167.297 182.553,-160.367"/>
</g>
<!-- FloraMexico.MexicanOakSpecies2 -->
<g id="node6" class="node"><title>FloraMexico.MexicanOakSpecies2</title>
<polygon fill="#ffffcc" stroke="black" points="538.06,-56.5442 538.06,-71.4558 451.914,-82 330.086,-82 243.94,-71.4558 243.94,-56.5442 330.086,-46 451.914,-46 538.06,-56.5442"/>
<text text-anchor="middle" x="391" y="-60.3" font-family="Times,serif" font-size="14.00">FloraMexico.MexicanOakSpecies2</text>
</g>
<!-- FloraChina.ChineseOakSpecies2&#45;&gt;FloraMexico.MexicanOakSpecies2 -->
<g id="edge8" class="edge"><title>FloraChina.ChineseOakSpecies2&#45;&gt;FloraMexico.MexicanOakSpecies2</title>
<path fill="none" stroke="#ff0000" d="M623.363,-80.2236C595.35,-78.2593 564.163,-76.0724 533.989,-73.9565"/>
<polygon fill="#ff0000" stroke="#ff0000" points="534.021,-70.4503 523.801,-73.2421 533.531,-77.4331 534.021,-70.4503"/>
</g>
<!-- FloraChina.OakGenus&#45;&gt;FloraMexico.OakGenus -->
<g id="edge2" class="edge"><title>FloraChina.OakGenus&#45;&gt;FloraMexico.OakGenus</title>
<path fill="none" stroke="#0000ff" stroke-dasharray="1,5" d="M104,-156.607C104,-144.488 104,-132.369 104,-120.25"/>
</g>
<!-- FloraChina.OakGenus&#45;&gt;FloraMexico.MexicanOakSpecies2 -->
<g id="edge3" class="edge"><title>FloraChina.OakGenus&#45;&gt;FloraMexico.MexicanOakSpecies2</title>
<path fill="none" stroke="#0000ff" stroke-dasharray="1,5" d="M153.847,-156.991C171.558,-149.493 191.302,-139.964 208,-129 226.144,-117.087 224.736,-106.001 244,-96 259.315,-88.049 276.525,-82.0695 293.613,-77.5738"/>
</g>
<!-- FloraMexico.MexicanOakSpecies1 -->
<g id="node5" class="node"><title>FloraMexico.MexicanOakSpecies1</title>
<polygon fill="#ffffcc" stroke="black" points="868.06,-163.544 868.06,-178.456 781.914,-189 660.086,-189 573.94,-178.456 573.94,-163.544 660.086,-153 781.914,-153 868.06,-163.544"/>
<text text-anchor="middle" x="721" y="-167.3" font-family="Times,serif" font-size="14.00">FloraMexico.MexicanOakSpecies1</text>
</g>
<!-- FloraMexico.MexicanOakSpecies1&#45;&gt;FloraChina.ChineseOakSpecies1 -->
<g id="edge9" class="edge"><title>FloraMexico.MexicanOakSpecies1&#45;&gt;FloraChina.ChineseOakSpecies1</title>
<path fill="none" stroke="#ff0000" d="M588.008,-180.256C558.439,-182.329 527.427,-184.504 499.019,-186.496"/>
<polygon fill="#ff0000" stroke="#ff0000" points="498.409,-183.03 488.679,-187.221 498.899,-190.013 498.409,-183.03"/>
</g>
<!-- FloraMexico.MexicanOakSpecies1&#45;&gt;FloraMexico.OakGenus -->
<g id="edge5" class="edge"><title>FloraMexico.MexicanOakSpecies1&#45;&gt;FloraMexico.OakGenus</title>
<path fill="none" stroke="#000000" d="M611.819,-158.863C496.677,-145.944 316.022,-125.676 204.365,-113.148"/>
<polygon fill="#000000" stroke="#000000" points="204.442,-109.635 194.114,-111.998 203.661,-116.591 204.442,-109.635"/>
</g>
<!-- FloraMexico.MexicanOakSpecies2&#45;&gt;FloraMexico.OakGenus -->
<g id="edge4" class="edge"><title>FloraMexico.MexicanOakSpecies2&#45;&gt;FloraMexico.OakGenus</title>
<path fill="none" stroke="#000000" d="M290.721,-77.2372C260.556,-81.2592 227.537,-85.6618 197.814,-89.6248"/>
<polygon fill="#000000" stroke="#000000" points="197.319,-86.1597 187.87,-90.9507 198.245,-93.0983 197.319,-86.1597"/>
</g>
<!-- Legend -->
<g id="node7" class="node"><title>Legend</title>
<polygon fill="white" stroke="black" points="1003.5,-175 904.5,-175 904.5,1 1003.5,1 1003.5,-175"/>
<polygon fill="none" stroke="black" points="905,-149 905,-175 1004,-175 1004,-149 905,-149"/>
<text text-anchor="start" x="930" y="-158.3" font-family="Arial Black" font-size="14.00"> Nodes</text>
<polygon fill="#ccffcc" stroke="none" points="905,-124 905,-149 987,-149 987,-124 905,-124"/>
<polygon fill="none" stroke="black" points="905,-124 905,-149 987,-149 987,-124 905,-124"/>
<text text-anchor="start" x="915.5" y="-132.8" font-family="Times,serif" font-size="14.00">FloraChina</text>
<polygon fill="none" stroke="black" points="987,-124 987,-149 1004,-149 1004,-124 987,-124"/>
<text text-anchor="start" x="992" y="-132.8" font-family="Times,serif" font-size="14.00">3</text>
<polygon fill="#ffffcc" stroke="none" points="905,-99 905,-124 987,-124 987,-99 905,-99"/>
<polygon fill="none" stroke="black" points="905,-99 905,-124 987,-124 987,-99 905,-99"/>
<text text-anchor="start" x="910.5" y="-107.8" font-family="Times,serif" font-size="14.00">FloraMexico</text>
<polygon fill="none" stroke="black" points="987,-99 987,-124 1004,-124 1004,-99 987,-99"/>
<text text-anchor="start" x="992" y="-107.8" font-family="Times,serif" font-size="14.00">3</text>
<polygon fill="none" stroke="black" points="905,-74 905,-99 1004,-99 1004,-74 905,-74"/>
<text text-anchor="start" x="928.5" y="-82.8" font-family="Arial Black" font-size="14.00"> Edges </text>
<polygon fill="none" stroke="black" points="905,-49 905,-74 987,-74 987,-49 905,-49"/>
<text text-anchor="start" x="923" y="-57.8" font-family="Times,serif" font-size="14.00" fill="#0000ff">overlaps</text>
<polygon fill="none" stroke="black" points="987,-49 987,-74 1004,-74 1004,-49 987,-49"/>
<text text-anchor="start" x="992" y="-57.8" font-family="Times,serif" font-size="14.00">3</text>
<polygon fill="none" stroke="black" points="905,-24 905,-49 987,-49 987,-24 905,-24"/>
<text text-anchor="start" x="932" y="-32.8" font-family="Times,serif" font-size="14.00" fill="#000000">input</text>
<polygon fill="none" stroke="black" points="987,-24 987,-49 1004,-49 1004,-24 987,-24"/>
<text text-anchor="start" x="992" y="-32.8" font-family="Times,serif" font-size="14.00">4</text>
<polygon fill="none" stroke="black" points="905,1 905,-24 987,-24 987,1 905,1"/>
<text text-anchor="start" x="924.5" y="-7.8" font-family="Times,serif" font-size="14.00" fill="#ff0000">inferred</text>
<polygon fill="none" stroke="black" points="987,1 987,-24 1004,-24 1004,1 987,1"/>
<text text-anchor="start" x="992" y="-7.8" font-family="Times,serif" font-size="14.00">2</text>
</g>
</g>
</svg>
