<?xml version="1.0" encoding="UTF-8" standalone="no"?>
<!DOCTYPE svg PUBLIC "-//W3C//DTD SVG 1.1//EN"
 "http://www.w3.org/Graphics/SVG/1.1/DTD/svg11.dtd">
<!-- Generated by graphviz version 2.36.0 (20140111.2315)
 -->
<!-- Title: %3 Pages: 1 -->
<svg width="914pt" height="182pt"
 viewBox="0.00 0.00 914.00 182.00" xmlns="http://www.w3.org/2000/svg" xmlns:xlink="http://www.w3.org/1999/xlink">
<g id="graph0" class="graph" transform="scale(1 1) rotate(0) translate(4 178)">
<title>%3</title>
<polygon fill="white" stroke="none" points="-4,4 -4,-178 910,-178 910,4 -4,4"/>
<!-- FloraChina.OakGenus -->
<g id="node1" class="node"><title>FloraChina.OakGenus</title>
<polygon fill="#ccffcc" stroke="black" points="460,-159 322,-159 322,-123 460,-123 460,-159"/>
<text text-anchor="middle" x="391" y="-137.3" font-family="Times,serif" font-size="14.00">FloraChina.OakGenus</text>
</g>
<!-- FloraMexico.MexicanOakSpecies1 -->
<g id="node4" class="node"><title>FloraMexico.MexicanOakSpecies1</title>
<polygon fill="#ffffcc" stroke="black" points="538.06,-79.5442 538.06,-94.4558 451.914,-105 330.086,-105 243.94,-94.4558 243.94,-79.5442 330.086,-69 451.914,-69 538.06,-79.5442"/>
<text text-anchor="middle" x="391" y="-83.3" font-family="Times,serif" font-size="14.00">FloraMexico.MexicanOakSpecies1</text>
</g>
<!-- FloraChina.OakGenus&#45;&gt;FloraMexico.MexicanOakSpecies1 -->
<g id="edge1" class="edge"><title>FloraChina.OakGenus&#45;&gt;FloraMexico.MexicanOakSpecies1</title>
<path fill="none" stroke="#0000ff" stroke-dasharray="1,5" d="M391,-122.79C391,-116.907 391,-111.024 391,-105.141"/>
</g>
<!-- FloraMexico.OakGenus -->
<g id="node5" class="node"><title>FloraMexico.OakGenus</title>
<polygon fill="#ffffcc" stroke="black" points="208.234,-79.5442 208.234,-94.4558 147.175,-105 60.8249,-105 -0.233914,-94.4558 -0.233914,-79.5442 60.8249,-69 147.175,-69 208.234,-79.5442"/>
<text text-anchor="middle" x="104" y="-83.3" font-family="Times,serif" font-size="14.00">FloraMexico.OakGenus</text>
</g>
<!-- FloraChina.OakGenus&#45;&gt;FloraMexico.OakGenus -->
<g id="edge9" class="edge"><title>FloraChina.OakGenus&#45;&gt;FloraMexico.OakGenus</title>
<path fill="none" stroke="#ff0000" d="M321.642,-128.49C297.144,-123.972 269.326,-118.801 244,-114 224.474,-110.298 203.419,-106.242 183.748,-102.424"/>
<polygon fill="#ff0000" stroke="#ff0000" points="184.394,-98.9843 173.91,-100.512 183.059,-105.856 184.394,-98.9843"/>
</g>
<!-- FloraMexico.MexicanOakSpecies2 -->
<g id="node6" class="node"><title>FloraMexico.MexicanOakSpecies2</title>
<polygon fill="#ffffcc" stroke="black" points="538.06,-25.5442 538.06,-40.4558 451.914,-51 330.086,-51 243.94,-40.4558 243.94,-25.5442 330.086,-15 451.914,-15 538.06,-25.5442"/>
<text text-anchor="middle" x="391" y="-29.3" font-family="Times,serif" font-size="14.00">FloraMexico.MexicanOakSpecies2</text>
</g>
<!-- FloraChina.OakGenus&#45;&gt;FloraMexico.MexicanOakSpecies2 -->
<g id="edge2" class="edge"><title>FloraChina.OakGenus&#45;&gt;FloraMexico.MexicanOakSpecies2</title>
<path fill="none" stroke="#0000ff" stroke-dasharray="1,5" d="M460.408,-146.89C496.304,-145.637 536.578,-136.425 556,-105 564.412,-91.3896 564.412,-82.6104 556,-69 548.601,-57.0284 538.176,-48.2805 526.12,-41.9683"/>
</g>
<!-- FloraChina.ChineseOakSpecies1 -->
<g id="node2" class="node"><title>FloraChina.ChineseOakSpecies1</title>
<polygon fill="#ccffcc" stroke="black" points="769.5,-105 574.5,-105 574.5,-69 769.5,-69 769.5,-105"/>
<text text-anchor="middle" x="672" y="-83.3" font-family="Times,serif" font-size="14.00">FloraChina.ChineseOakSpecies1</text>
</g>
<!-- FloraChina.ChineseOakSpecies1&#45;&gt;FloraChina.OakGenus -->
<g id="edge8" class="edge"><title>FloraChina.ChineseOakSpecies1&#45;&gt;FloraChina.OakGenus</title>
<path fill="none" stroke="#000000" d="M583.405,-105.008C568.272,-108.055 552.688,-111.151 538,-114 515.946,-118.278 491.987,-122.772 469.975,-126.84"/>
<polygon fill="#000000" stroke="#000000" points="469.213,-123.421 460.013,-128.676 470.482,-130.305 469.213,-123.421"/>
</g>
<!-- FloraChina.ChineseOakSpecies1&#45;&gt;FloraMexico.MexicanOakSpecies1 -->
<g id="edge10" class="edge"><title>FloraChina.ChineseOakSpecies1&#45;&gt;FloraMexico.MexicanOakSpecies1</title>
<path fill="none" stroke="#ff0000" d="M574.202,-87C565.831,-87 557.233,-87 548.546,-87"/>
<polygon fill="#ff0000" stroke="#ff0000" points="548.314,-83.5001 538.314,-87 548.314,-90.5001 548.314,-83.5001"/>
</g>
<!-- FloraChina.ChineseOakSpecies2 -->
<g id="node3" class="node"><title>FloraChina.ChineseOakSpecies2</title>
<polygon fill="#ccffcc" stroke="black" points="769.5,-159 574.5,-159 574.5,-123 769.5,-123 769.5,-159"/>
<text text-anchor="middle" x="672" y="-137.3" font-family="Times,serif" font-size="14.00">FloraChina.ChineseOakSpecies2</text>
</g>
<!-- FloraChina.ChineseOakSpecies2&#45;&gt;FloraChina.OakGenus -->
<g id="edge6" class="edge"><title>FloraChina.ChineseOakSpecies2&#45;&gt;FloraChina.OakGenus</title>
<path fill="none" stroke="#000000" d="M574.202,-141C540.26,-141 502.586,-141 470.345,-141"/>
<polygon fill="#000000" stroke="#000000" points="470.08,-137.5 460.08,-141 470.08,-144.5 470.08,-137.5"/>
</g>
<!-- FloraChina.ChineseOakSpecies2&#45;&gt;FloraMexico.MexicanOakSpecies1 -->
<g id="edge3" class="edge"><title>FloraChina.ChineseOakSpecies2&#45;&gt;FloraMexico.MexicanOakSpecies1</title>
<path fill="none" stroke="#0000ff" stroke-dasharray="1,5" d="M583.405,-122.992C568.272,-119.945 552.688,-116.849 538,-114 517.756,-110.074 495.906,-105.964 475.432,-102.17"/>
</g>
<!-- FloraChina.ChineseOakSpecies2&#45;&gt;FloraMexico.MexicanOakSpecies2 -->
<g id="edge4" class="edge"><title>FloraChina.ChineseOakSpecies2&#45;&gt;FloraMexico.MexicanOakSpecies2</title>
<path fill="none" stroke="#0000ff" stroke-dasharray="1,5" d="M589.053,-122.936C583.749,-120.346 578.671,-117.385 574,-114 550.644,-97.0733 562.082,-75.8756 538,-60 528.1,-53.4738 517.044,-48.4212 505.567,-44.5233"/>
</g>
<!-- FloraMexico.MexicanOakSpecies1&#45;&gt;FloraMexico.OakGenus -->
<g id="edge5" class="edge"><title>FloraMexico.MexicanOakSpecies1&#45;&gt;FloraMexico.OakGenus</title>
<path fill="none" stroke="#000000" d="M243.743,-87C235.29,-87 226.854,-87 218.555,-87"/>
<polygon fill="#000000" stroke="#000000" points="218.508,-83.5001 208.508,-87 218.508,-90.5001 218.508,-83.5001"/>
</g>
<!-- FloraMexico.MexicanOakSpecies2&#45;&gt;FloraMexico.OakGenus -->
<g id="edge7" class="edge"><title>FloraMexico.MexicanOakSpecies2&#45;&gt;FloraMexico.OakGenus</title>
<path fill="none" stroke="#000000" d="M306.975,-48.2202C286.39,-52.0308 264.387,-56.1349 244,-60 224.474,-63.7017 203.419,-67.758 183.748,-71.5758"/>
<polygon fill="#000000" stroke="#000000" points="183.059,-68.1442 173.91,-73.4876 184.394,-75.0157 183.059,-68.1442"/>
</g>
<!-- Legend -->
<g id="node7" class="node"><title>Legend</title>
<polygon fill="white" stroke="black" points="905.5,-175 806.5,-175 806.5,1 905.5,1 905.5,-175"/>
<polygon fill="none" stroke="black" points="807,-149 807,-175 906,-175 906,-149 807,-149"/>
<text text-anchor="start" x="832" y="-158.3" font-family="Arial Black" font-size="14.00"> Nodes</text>
<polygon fill="#ccffcc" stroke="none" points="807,-124 807,-149 889,-149 889,-124 807,-124"/>
<polygon fill="none" stroke="black" points="807,-124 807,-149 889,-149 889,-124 807,-124"/>
<text text-anchor="start" x="817.5" y="-132.8" font-family="Times,serif" font-size="14.00">FloraChina</text>
<polygon fill="none" stroke="black" points="889,-124 889,-149 906,-149 906,-124 889,-124"/>
<text text-anchor="start" x="894" y="-132.8" font-family="Times,serif" font-size="14.00">3</text>
<polygon fill="#ffffcc" stroke="none" points="807,-99 807,-124 889,-124 889,-99 807,-99"/>
<polygon fill="none" stroke="black" points="807,-99 807,-124 889,-124 889,-99 807,-99"/>
<text text-anchor="start" x="812.5" y="-107.8" font-family="Times,serif" font-size="14.00">FloraMexico</text>
<polygon fill="none" stroke="black" points="889,-99 889,-124 906,-124 906,-99 889,-99"/>
<text text-anchor="start" x="894" y="-107.8" font-family="Times,serif" font-size="14.00">3</text>
<polygon fill="none" stroke="black" points="807,-74 807,-99 906,-99 906,-74 807,-74"/>
<text text-anchor="start" x="830.5" y="-82.8" font-family="Arial Black" font-size="14.00"> Edges </text>
<polygon fill="none" stroke="black" points="807,-49 807,-74 889,-74 889,-49 807,-49"/>
<text text-anchor="start" x="825" y="-57.8" font-family="Times,serif" font-size="14.00" fill="#0000ff">overlaps</text>
<polygon fill="none" stroke="black" points="889,-49 889,-74 906,-74 906,-49 889,-49"/>
<text text-anchor="start" x="894" y="-57.8" font-family="Times,serif" font-size="14.00">4</text>
<polygon fill="none" stroke="black" points="807,-24 807,-49 889,-49 889,-24 807,-24"/>
<text text-anchor="start" x="834" y="-32.8" font-family="Times,serif" font-size="14.00" fill="#000000">input</text>
<polygon fill="none" stroke="black" points="889,-24 889,-49 906,-49 906,-24 889,-24"/>
<text text-anchor="start" x="894" y="-32.8" font-family="Times,serif" font-size="14.00">4</text>
<polygon fill="none" stroke="black" points="807,1 807,-24 889,-24 889,1 807,1"/>
<text text-anchor="start" x="826.5" y="-7.8" font-family="Times,serif" font-size="14.00" fill="#ff0000">inferred</text>
<polygon fill="none" stroke="black" points="889,1 889,-24 906,-24 906,1 889,1"/>
<text text-anchor="start" x="894" y="-7.8" font-family="Times,serif" font-size="14.00">2</text>
</g>
</g>
</svg>
