<?xml version="1.0" encoding="UTF-8" standalone="no"?>
<!DOCTYPE svg PUBLIC "-//W3C//DTD SVG 1.1//EN"
 "http://www.w3.org/Graphics/SVG/1.1/DTD/svg11.dtd">
<!-- Generated by graphviz version 2.36.0 (20140111.2315)
 -->
<!-- Title: %3 Pages: 1 -->
<svg width="682pt" height="223pt"
 viewBox="0.00 0.00 682.00 223.00" xmlns="http://www.w3.org/2000/svg" xmlns:xlink="http://www.w3.org/1999/xlink">
<g id="graph0" class="graph" transform="scale(1 1) rotate(0) translate(4 219)">
<title>%3</title>
<polygon fill="white" stroke="none" points="-4,4 -4,-219 678,-219 678,4 -4,4"/>
<!-- FloraChina.OakGenus -->
<g id="node1" class="node"><title>FloraChina.OakGenus</title>
<polygon fill="#ccffcc" stroke="black" points="173,-187 35,-187 35,-151 173,-151 173,-187"/>
<text text-anchor="middle" x="104" y="-165.3" font-family="Times,serif" font-size="14.00">FloraChina.OakGenus</text>
</g>
<!-- FloraMexico.OakGenus -->
<g id="node4" class="node"><title>FloraMexico.OakGenus</title>
<polygon fill="#ffffcc" stroke="black" points="208.234,-107.544 208.234,-122.456 147.175,-133 60.8249,-133 -0.233914,-122.456 -0.233914,-107.544 60.8249,-97 147.175,-97 208.234,-107.544"/>
<text text-anchor="middle" x="104" y="-111.3" font-family="Times,serif" font-size="14.00">FloraMexico.OakGenus</text>
</g>
<!-- FloraChina.OakGenus&#45;&gt;FloraMexico.OakGenus -->
<g id="edge4" class="edge"><title>FloraChina.OakGenus&#45;&gt;FloraMexico.OakGenus</title>
<path fill="none" stroke="#0000ff" stroke-dasharray="1,5" d="M104,-150.79C104,-144.907 104,-139.024 104,-133.141"/>
</g>
<!-- FloraMexico.MexicanOakSpecies2 -->
<g id="node5" class="node"><title>FloraMexico.MexicanOakSpecies2</title>
<polygon fill="#ffffcc" stroke="black" points="538.06,-79.5442 538.06,-94.4558 451.914,-105 330.086,-105 243.94,-94.4558 243.94,-79.5442 330.086,-69 451.914,-69 538.06,-79.5442"/>
<text text-anchor="middle" x="391" y="-83.3" font-family="Times,serif" font-size="14.00">FloraMexico.MexicanOakSpecies2</text>
</g>
<!-- FloraChina.OakGenus&#45;&gt;FloraMexico.MexicanOakSpecies2 -->
<g id="edge2" class="edge"><title>FloraChina.OakGenus&#45;&gt;FloraMexico.MexicanOakSpecies2</title>
<path fill="none" stroke="#0000ff" stroke-dasharray="1,5" d="M173.186,-155.305C185.099,-151.747 197.143,-147.361 208,-142 226.174,-133.025 225.508,-122.301 244,-114 257.287,-108.035 271.82,-103.388 286.403,-99.768"/>
</g>
<!-- FloraChina.ChineseOakSpecies1 -->
<g id="node2" class="node"><title>FloraChina.ChineseOakSpecies1</title>
<polygon fill="#ccffcc" stroke="black" points="488.5,-215 293.5,-215 293.5,-179 488.5,-179 488.5,-215"/>
<text text-anchor="middle" x="391" y="-193.3" font-family="Times,serif" font-size="14.00">FloraChina.ChineseOakSpecies1</text>
</g>
<!-- FloraChina.ChineseOakSpecies1&#45;&gt;FloraChina.OakGenus -->
<g id="edge8" class="edge"><title>FloraChina.ChineseOakSpecies1&#45;&gt;FloraChina.OakGenus</title>
<path fill="none" stroke="#000000" d="M293.114,-187.481C257.431,-183.976 217.482,-180.051 183.608,-176.723"/>
<polygon fill="#000000" stroke="#000000" points="183.596,-173.205 173.301,-175.71 182.911,-180.171 183.596,-173.205"/>
</g>
<!-- FloraChina.ChineseOakSpecies1&#45;&gt;FloraMexico.OakGenus -->
<g id="edge1" class="edge"><title>FloraChina.ChineseOakSpecies1&#45;&gt;FloraMexico.OakGenus</title>
<path fill="none" stroke="#0000ff" stroke-dasharray="1,5" d="M293.37,-185.885C276.482,-182.059 259.403,-176.915 244,-170 225.508,-161.699 226.174,-150.975 208,-142 197.06,-136.598 184.915,-132.186 172.914,-128.614"/>
</g>
<!-- FloraChina.ChineseOakSpecies1&#45;&gt;FloraMexico.MexicanOakSpecies2 -->
<g id="edge3" class="edge"><title>FloraChina.ChineseOakSpecies1&#45;&gt;FloraMexico.MexicanOakSpecies2</title>
<path fill="none" stroke="#0000ff" stroke-dasharray="1,5" d="M488.625,-200.087C515.693,-195.407 541.588,-184.32 556,-161 564.879,-146.633 564.879,-137.367 556,-123 548.601,-111.028 538.176,-102.281 526.12,-95.9683"/>
</g>
<!-- FloraChina.ChineseOakSpecies2\nFloraMexico.MexicanOakSpecies1 -->
<g id="node3" class="node"><title>FloraChina.ChineseOakSpecies2\nFloraMexico.MexicanOakSpecies1</title>
<path fill="#eeeeee" stroke="black" d="M483.5,-161C483.5,-161 298.5,-161 298.5,-161 292.5,-161 286.5,-155 286.5,-149 286.5,-149 286.5,-135 286.5,-135 286.5,-129 292.5,-123 298.5,-123 298.5,-123 483.5,-123 483.5,-123 489.5,-123 495.5,-129 495.5,-135 495.5,-135 495.5,-149 495.5,-149 495.5,-155 489.5,-161 483.5,-161"/>
<text text-anchor="middle" x="391" y="-145.8" font-family="Times,serif" font-size="14.00">FloraChina.ChineseOakSpecies2</text>
<text text-anchor="middle" x="391" y="-130.8" font-family="Times,serif" font-size="14.00">FloraMexico.MexicanOakSpecies1</text>
</g>
<!-- FloraChina.ChineseOakSpecies2\nFloraMexico.MexicanOakSpecies1&#45;&gt;FloraChina.OakGenus -->
<g id="edge5" class="edge"><title>FloraChina.ChineseOakSpecies2\nFloraMexico.MexicanOakSpecies1&#45;&gt;FloraChina.OakGenus</title>
<path fill="none" stroke="#000000" d="M286.302,-151.824C252.266,-155.049 215.032,-158.576 183.21,-161.591"/>
<polygon fill="#000000" stroke="#000000" points="182.705,-158.123 173.079,-162.55 183.365,-165.092 182.705,-158.123"/>
</g>
<!-- FloraChina.ChineseOakSpecies2\nFloraMexico.MexicanOakSpecies1&#45;&gt;FloraMexico.OakGenus -->
<g id="edge7" class="edge"><title>FloraChina.ChineseOakSpecies2\nFloraMexico.MexicanOakSpecies1&#45;&gt;FloraMexico.OakGenus</title>
<path fill="none" stroke="#000000" d="M286.302,-132.176C261.403,-129.817 234.792,-127.296 209.842,-124.932"/>
<polygon fill="#000000" stroke="#000000" points="209.917,-121.424 199.632,-123.965 209.257,-128.393 209.917,-121.424"/>
</g>
<!-- FloraMexico.MexicanOakSpecies2&#45;&gt;FloraMexico.OakGenus -->
<g id="edge6" class="edge"><title>FloraMexico.MexicanOakSpecies2&#45;&gt;FloraMexico.OakGenus</title>
<path fill="none" stroke="#000000" d="M274.901,-98.308C253.029,-100.457 230.262,-102.694 208.767,-104.805"/>
<polygon fill="#000000" stroke="#000000" points="208.269,-101.337 198.659,-105.798 208.953,-108.304 208.269,-101.337"/>
</g>
<!-- Legend -->
<g id="node6" class="node"><title>Legend</title>
<polygon fill="white" stroke="black" points="673.5,-175 574.5,-175 574.5,1 673.5,1 673.5,-175"/>
<polygon fill="none" stroke="black" points="575,-149 575,-175 674,-175 674,-149 575,-149"/>
<text text-anchor="start" x="600" y="-158.3" font-family="Arial Black" font-size="14.00"> Nodes</text>
<polygon fill="#ccffcc" stroke="none" points="575,-124 575,-149 657,-149 657,-124 575,-124"/>
<polygon fill="none" stroke="black" points="575,-124 575,-149 657,-149 657,-124 575,-124"/>
<text text-anchor="start" x="585.5" y="-132.8" font-family="Times,serif" font-size="14.00">FloraChina</text>
<polygon fill="none" stroke="black" points="657,-124 657,-149 674,-149 674,-124 657,-124"/>
<text text-anchor="start" x="662" y="-132.8" font-family="Times,serif" font-size="14.00">2</text>
<polygon fill="#eeeeee" stroke="none" points="575,-99 575,-124 657,-124 657,-99 575,-99"/>
<polygon fill="none" stroke="black" points="575,-99 575,-124 657,-124 657,-99 575,-99"/>
<text text-anchor="start" x="600.5" y="-107.8" font-family="Times,serif" font-size="14.00">comb</text>
<polygon fill="none" stroke="black" points="657,-99 657,-124 674,-124 674,-99 657,-99"/>
<text text-anchor="start" x="662" y="-107.8" font-family="Times,serif" font-size="14.00">1</text>
<polygon fill="#ffffcc" stroke="none" points="575,-74 575,-99 657,-99 657,-74 575,-74"/>
<polygon fill="none" stroke="black" points="575,-74 575,-99 657,-99 657,-74 575,-74"/>
<text text-anchor="start" x="580.5" y="-82.8" font-family="Times,serif" font-size="14.00">FloraMexico</text>
<polygon fill="none" stroke="black" points="657,-74 657,-99 674,-99 674,-74 657,-74"/>
<text text-anchor="start" x="662" y="-82.8" font-family="Times,serif" font-size="14.00">2</text>
<polygon fill="none" stroke="black" points="575,-49 575,-74 674,-74 674,-49 575,-49"/>
<text text-anchor="start" x="598.5" y="-57.8" font-family="Arial Black" font-size="14.00"> Edges </text>
<polygon fill="none" stroke="black" points="575,-24 575,-49 657,-49 657,-24 575,-24"/>
<text text-anchor="start" x="593" y="-32.8" font-family="Times,serif" font-size="14.00" fill="#0000ff">overlaps</text>
<polygon fill="none" stroke="black" points="657,-24 657,-49 674,-49 674,-24 657,-24"/>
<text text-anchor="start" x="662" y="-32.8" font-family="Times,serif" font-size="14.00">4</text>
<polygon fill="none" stroke="black" points="575,1 575,-24 657,-24 657,1 575,1"/>
<text text-anchor="start" x="602" y="-7.8" font-family="Times,serif" font-size="14.00" fill="#000000">input</text>
<polygon fill="none" stroke="black" points="657,1 657,-24 674,-24 674,1 657,1"/>
<text text-anchor="start" x="662" y="-7.8" font-family="Times,serif" font-size="14.00">4</text>
</g>
</g>
</svg>
