<?xml version="1.0" encoding="UTF-8" standalone="no"?>
<!DOCTYPE svg PUBLIC "-//W3C//DTD SVG 1.1//EN"
 "http://www.w3.org/Graphics/SVG/1.1/DTD/svg11.dtd">
<!-- Generated by graphviz version 2.36.0 (20140111.2315)
 -->
<!-- Title: %3 Pages: 1 -->
<svg width="422pt" height="470pt"
 viewBox="0.00 0.00 422.00 470.00" xmlns="http://www.w3.org/2000/svg" xmlns:xlink="http://www.w3.org/1999/xlink">
<g id="graph0" class="graph" transform="scale(1 1) rotate(0) translate(4 466)">
<title>%3</title>
<polygon fill="white" stroke="none" points="-4,4 -4,-466 418,-466 418,4 -4,4"/>
<!-- 0,1,2 -->
<g id="node1" class="node"><title>0,1,2</title>
<polygon fill="#df77cb" stroke="#9f1684" points="123.907,-364.544 123.907,-379.456 105.802,-390 80.1977,-390 62.0926,-379.456 62.0926,-364.544 80.1977,-354 105.802,-354 123.907,-364.544"/>
<text text-anchor="middle" x="93" y="-368.3" font-family="Times,serif" font-size="14.00">0,1,2</text>
</g>
<!-- 0,1,2,3 -->
<g id="node3" class="node"><title>0,1,2,3</title>
<polygon fill="none" stroke="#9f1684" stroke-dasharray="5,2" points="249.885,-436.544 249.885,-451.456 227.107,-462 194.893,-462 172.115,-451.456 172.115,-436.544 194.893,-426 227.107,-426 249.885,-436.544"/>
<text text-anchor="middle" x="211" y="-440.3" font-family="Times,serif" font-size="14.00">0,1,2,3</text>
</g>
<!-- 0,1,2&#45;&gt;0,1,2,3 -->
<g id="edge20" class="edge"><title>0,1,2&#45;&gt;0,1,2,3</title>
<path fill="none" stroke="#9c1382" stroke-dasharray="5,2" d="M113.824,-385.353C131.806,-396.021 158.079,-411.606 178.774,-423.883"/>
<polygon fill="#9c1382" stroke="#9c1382" points="177.164,-426.997 187.55,-429.089 180.735,-420.977 177.164,-426.997"/>
</g>
<!-- 1,2,3 -->
<g id="node2" class="node"><title>1,2,3</title>
<polygon fill="#df77cb" stroke="#9f1684" points="203.907,-364.544 203.907,-379.456 185.802,-390 160.198,-390 142.093,-379.456 142.093,-364.544 160.198,-354 185.802,-354 203.907,-364.544"/>
<text text-anchor="middle" x="173" y="-368.3" font-family="Times,serif" font-size="14.00">1,2,3</text>
</g>
<!-- 1,2,3&#45;&gt;0,1,2,3 -->
<g id="edge32" class="edge"><title>1,2,3&#45;&gt;0,1,2,3</title>
<path fill="none" stroke="#9c1382" stroke-dasharray="5,2" d="M182.393,-390.303C186.765,-398.356 192.057,-408.106 196.895,-417.018"/>
<polygon fill="#9c1382" stroke="#9c1382" points="193.868,-418.777 201.715,-425.896 200.02,-415.437 193.868,-418.777"/>
</g>
<!-- 0,2,3 -->
<g id="node4" class="node"><title>0,2,3</title>
<path fill="#68b5e3" stroke="#134d9c" d="M264,-390C264,-390 234,-390 234,-390 228,-390 222,-384 222,-378 222,-378 222,-366 222,-366 222,-360 228,-354 234,-354 234,-354 264,-354 264,-354 270,-354 276,-360 276,-366 276,-366 276,-378 276,-378 276,-384 270,-390 264,-390"/>
<text text-anchor="middle" x="249" y="-368.3" font-family="Times,serif" font-size="14.00">0,2,3</text>
</g>
<!-- 0,2,3&#45;&gt;0,1,2,3 -->
<g id="edge31" class="edge"><title>0,2,3&#45;&gt;0,1,2,3</title>
<path fill="none" stroke="#0000ff" d="M239.607,-390.303C233.717,-401.154 226.155,-415.083 220.285,-425.896"/>
</g>
<!-- 0,1,3 -->
<g id="node5" class="node"><title>0,1,3</title>
<path fill="#68b5e3" stroke="#134d9c" d="M336,-390C336,-390 306,-390 306,-390 300,-390 294,-384 294,-378 294,-378 294,-366 294,-366 294,-360 300,-354 306,-354 306,-354 336,-354 336,-354 342,-354 348,-360 348,-366 348,-366 348,-378 348,-378 348,-384 342,-390 336,-390"/>
<text text-anchor="middle" x="321" y="-368.3" font-family="Times,serif" font-size="14.00">0,1,3</text>
</g>
<!-- 0,1,3&#45;&gt;0,1,2,3 -->
<g id="edge28" class="edge"><title>0,1,3&#45;&gt;0,1,2,3</title>
<path fill="none" stroke="#0000ff" d="M294.091,-390.124C275.391,-402.024 250.77,-417.692 233.193,-428.877"/>
</g>
<!-- 1,2 -->
<g id="node6" class="node"><title>1,2</title>
<path fill="#68b5e3" stroke="#134d9c" d="M42,-318C42,-318 12,-318 12,-318 6,-318 0,-312 0,-306 0,-306 0,-294 0,-294 0,-288 6,-282 12,-282 12,-282 42,-282 42,-282 48,-282 54,-288 54,-294 54,-294 54,-306 54,-306 54,-312 48,-318 42,-318"/>
<text text-anchor="middle" x="27" y="-296.3" font-family="Times,serif" font-size="14.00">1,2</text>
</g>
<!-- 1,2&#45;&gt;0,1,2 -->
<g id="edge18" class="edge"><title>1,2&#45;&gt;0,1,2</title>
<path fill="none" stroke="#0000ff" d="M43.3146,-318.303C53.8503,-329.478 67.4652,-343.918 77.778,-354.855"/>
</g>
<!-- 1,2&#45;&gt;1,2,3 -->
<g id="edge19" class="edge"><title>1,2&#45;&gt;1,2,3</title>
<path fill="none" stroke="#0000ff" d="M54.1193,-314.002C81.6626,-327.208 123.86,-347.44 149.872,-359.911"/>
</g>
<!-- 3 -->
<g id="node7" class="node"><title>3</title>
<polygon fill="none" stroke="#134d9c" stroke-dasharray="5,2" points="342,-246 288,-246 288,-210 342,-210 342,-246"/>
<text text-anchor="middle" x="315" y="-224.3" font-family="Times,serif" font-size="14.00">3</text>
</g>
<!-- 2,3 -->
<g id="node10" class="node"><title>2,3</title>
<polygon fill="none" stroke="#134d9c" stroke-dasharray="5,2" points="270,-318 216,-318 216,-282 270,-282 270,-318"/>
<text text-anchor="middle" x="243" y="-296.3" font-family="Times,serif" font-size="14.00">2,3</text>
</g>
<!-- 3&#45;&gt;2,3 -->
<g id="edge23" class="edge"><title>3&#45;&gt;2,3</title>
<path fill="none" stroke="#134d9c" stroke-dasharray="5,2" d="M289.777,-253.522C280.14,-262.892 269.368,-273.364 260.593,-281.896"/>
<polygon fill="#134d9c" stroke="#134d9c" points="292.472,-255.784 297.202,-246.303 287.592,-250.765 292.472,-255.784"/>
</g>
<!-- 1,3 -->
<g id="node13" class="node"><title>1,3</title>
<polygon fill="none" stroke="#134d9c" stroke-dasharray="5,2" points="342,-318 288,-318 288,-282 342,-282 342,-318"/>
<text text-anchor="middle" x="315" y="-296.3" font-family="Times,serif" font-size="14.00">1,3</text>
</g>
<!-- 3&#45;&gt;1,3 -->
<g id="edge22" class="edge"><title>3&#45;&gt;1,3</title>
<path fill="none" stroke="#134d9c" stroke-dasharray="5,2" d="M315,-256.335C315,-264.946 315,-274.209 315,-281.896"/>
<polygon fill="#134d9c" stroke="#134d9c" points="318.5,-256.303 315,-246.303 311.5,-256.303 318.5,-256.303"/>
</g>
<!-- 0,3 -->
<g id="node15" class="node"><title>0,3</title>
<polygon fill="none" stroke="#134d9c" stroke-dasharray="5,2" points="414,-318 360,-318 360,-282 414,-282 414,-318"/>
<text text-anchor="middle" x="387" y="-296.3" font-family="Times,serif" font-size="14.00">0,3</text>
</g>
<!-- 3&#45;&gt;0,3 -->
<g id="edge21" class="edge"><title>3&#45;&gt;0,3</title>
<path fill="none" stroke="#134d9c" stroke-dasharray="5,2" d="M340.223,-253.522C349.86,-262.892 360.632,-273.364 369.407,-281.896"/>
<polygon fill="#134d9c" stroke="#134d9c" points="342.408,-250.765 332.798,-246.303 337.528,-255.784 342.408,-250.765"/>
</g>
<!-- 0 -->
<g id="node8" class="node"><title>0</title>
<polygon fill="none" stroke="#134d9c" stroke-dasharray="5,2" points="270,-246 216,-246 216,-210 270,-210 270,-246"/>
<text text-anchor="middle" x="243" y="-224.3" font-family="Times,serif" font-size="14.00">0</text>
</g>
<!-- 0,2 -->
<g id="node11" class="node"><title>0,2</title>
<polygon fill="none" stroke="#134d9c" stroke-dasharray="5,2" points="126,-318 72,-318 72,-282 126,-282 126,-318"/>
<text text-anchor="middle" x="99" y="-296.3" font-family="Times,serif" font-size="14.00">0,2</text>
</g>
<!-- 0&#45;&gt;0,2 -->
<g id="edge6" class="edge"><title>0&#45;&gt;0,2</title>
<path fill="none" stroke="#134d9c" stroke-dasharray="5,2" d="M206.772,-246.611C181.843,-258.729 149.244,-274.576 126.453,-285.655"/>
<polygon fill="#134d9c" stroke="#134d9c" points="208.451,-249.686 215.915,-242.166 205.391,-243.391 208.451,-249.686"/>
</g>
<!-- 0&#45;&gt;0,3 -->
<g id="edge7" class="edge"><title>0&#45;&gt;0,3</title>
<path fill="none" stroke="#134d9c" stroke-dasharray="5,2" d="M279.228,-246.611C304.157,-258.729 336.756,-274.576 359.547,-285.655"/>
<polygon fill="#134d9c" stroke="#134d9c" points="280.609,-243.391 270.085,-242.166 277.549,-249.686 280.609,-243.391"/>
</g>
<!-- 0,1 -->
<g id="node16" class="node"><title>0,1</title>
<polygon fill="none" stroke="#134d9c" stroke-dasharray="5,2" points="198,-318 144,-318 144,-282 198,-282 198,-318"/>
<text text-anchor="middle" x="171" y="-296.3" font-family="Times,serif" font-size="14.00">0,1</text>
</g>
<!-- 0&#45;&gt;0,1 -->
<g id="edge5" class="edge"><title>0&#45;&gt;0,1</title>
<path fill="none" stroke="#134d9c" stroke-dasharray="5,2" d="M217.777,-253.522C208.14,-262.892 197.368,-273.364 188.593,-281.896"/>
<polygon fill="#134d9c" stroke="#134d9c" points="220.472,-255.784 225.202,-246.303 215.592,-250.765 220.472,-255.784"/>
</g>
<!-- None -->
<g id="node9" class="node"><title>None</title>
<polygon fill="none" stroke="#134d9c" stroke-dasharray="5,2" points="234,-174 180,-174 180,-138 234,-138 234,-174"/>
<text text-anchor="middle" x="207" y="-152.3" font-family="Times,serif" font-size="14.00">None</text>
</g>
<!-- None&#45;&gt;3 -->
<g id="edge4" class="edge"><title>None&#45;&gt;3</title>
<path fill="none" stroke="#134d9c" stroke-dasharray="5,2" d="M242.005,-179.688C257.103,-189.474 274.472,-200.732 288.479,-209.81"/>
<polygon fill="#134d9c" stroke="#134d9c" points="243.715,-176.626 233.42,-174.124 239.908,-182.5 243.715,-176.626"/>
</g>
<!-- None&#45;&gt;0 -->
<g id="edge1" class="edge"><title>None&#45;&gt;0</title>
<path fill="none" stroke="#134d9c" stroke-dasharray="5,2" d="M220.476,-183.203C225.066,-192.129 230.076,-201.871 234.203,-209.896"/>
<polygon fill="#134d9c" stroke="#134d9c" points="223.585,-181.596 215.899,-174.303 217.36,-184.797 223.585,-181.596"/>
</g>
<!-- 1 -->
<g id="node12" class="node"><title>1</title>
<polygon fill="none" stroke="#134d9c" stroke-dasharray="5,2" points="198,-246 144,-246 144,-210 198,-210 198,-246"/>
<text text-anchor="middle" x="171" y="-224.3" font-family="Times,serif" font-size="14.00">1</text>
</g>
<!-- None&#45;&gt;1 -->
<g id="edge2" class="edge"><title>None&#45;&gt;1</title>
<path fill="none" stroke="#134d9c" stroke-dasharray="5,2" d="M193.524,-183.203C188.934,-192.129 183.924,-201.871 179.797,-209.896"/>
<polygon fill="#134d9c" stroke="#134d9c" points="196.64,-184.797 198.101,-174.303 190.415,-181.596 196.64,-184.797"/>
</g>
<!-- 2 -->
<g id="node14" class="node"><title>2</title>
<polygon fill="none" stroke="#134d9c" stroke-dasharray="5,2" points="126,-246 72,-246 72,-210 126,-210 126,-246"/>
<text text-anchor="middle" x="99" y="-224.3" font-family="Times,serif" font-size="14.00">2</text>
</g>
<!-- None&#45;&gt;2 -->
<g id="edge3" class="edge"><title>None&#45;&gt;2</title>
<path fill="none" stroke="#134d9c" stroke-dasharray="5,2" d="M171.995,-179.688C156.897,-189.474 139.528,-200.732 125.521,-209.81"/>
<polygon fill="#134d9c" stroke="#134d9c" points="174.092,-182.5 180.58,-174.124 170.285,-176.626 174.092,-182.5"/>
</g>
<!-- 2,3&#45;&gt;1,2,3 -->
<g id="edge30" class="edge"><title>2,3&#45;&gt;1,2,3</title>
<path fill="none" stroke="#0000ff" d="M225.697,-318.303C214.36,-329.64 199.663,-344.337 188.671,-355.329"/>
</g>
<!-- 2,3&#45;&gt;0,2,3 -->
<g id="edge29" class="edge"><title>2,3&#45;&gt;0,2,3</title>
<path fill="none" stroke="#134d9c" stroke-dasharray="5,2" d="M245.343,-328.335C246.081,-336.946 246.875,-346.209 247.534,-353.896"/>
<polygon fill="#134d9c" stroke="#134d9c" points="248.824,-327.968 244.483,-318.303 241.85,-328.566 248.824,-327.968"/>
</g>
<!-- 0,2&#45;&gt;0,1,2 -->
<g id="edge16" class="edge"><title>0,2&#45;&gt;0,1,2</title>
<path fill="none" stroke="#0000ff" d="M97.5169,-318.303C96.5868,-329.154 95.3929,-343.083 94.4661,-353.896"/>
</g>
<!-- 0,2&#45;&gt;0,2,3 -->
<g id="edge17" class="edge"><title>0,2&#45;&gt;0,2,3</title>
<path fill="none" stroke="#134d9c" stroke-dasharray="5,2" d="M135.506,-318.226C170.158,-334.45 200.585,-348.578 221.799,-358.409"/>
<polygon fill="#134d9c" stroke="#134d9c" points="136.659,-314.901 126.119,-313.827 133.689,-321.239 136.659,-314.901"/>
</g>
<!-- 1&#45;&gt;1,2 -->
<g id="edge9" class="edge"><title>1&#45;&gt;1,2</title>
<path fill="none" stroke="#134d9c" stroke-dasharray="5,2" d="M134.772,-246.611C109.843,-258.729 77.2438,-274.576 54.4534,-285.655"/>
<polygon fill="#134d9c" stroke="#134d9c" points="136.451,-249.686 143.915,-242.166 133.391,-243.391 136.451,-249.686"/>
</g>
<!-- 1&#45;&gt;1,3 -->
<g id="edge10" class="edge"><title>1&#45;&gt;1,3</title>
<path fill="none" stroke="#134d9c" stroke-dasharray="5,2" d="M207.228,-246.611C232.157,-258.729 264.756,-274.576 287.547,-285.655"/>
<polygon fill="#134d9c" stroke="#134d9c" points="208.609,-243.391 198.085,-242.166 205.549,-249.686 208.609,-243.391"/>
</g>
<!-- 1&#45;&gt;0,1 -->
<g id="edge8" class="edge"><title>1&#45;&gt;0,1</title>
<path fill="none" stroke="#134d9c" stroke-dasharray="5,2" d="M171,-256.335C171,-264.946 171,-274.209 171,-281.896"/>
<polygon fill="#134d9c" stroke="#134d9c" points="174.5,-256.303 171,-246.303 167.5,-256.303 174.5,-256.303"/>
</g>
<!-- 1,3&#45;&gt;1,2,3 -->
<g id="edge27" class="edge"><title>1,3&#45;&gt;1,2,3</title>
<path fill="none" stroke="#0000ff" d="M287.957,-314.331C261.241,-327.501 220.836,-347.419 195.729,-359.796"/>
</g>
<!-- 1,3&#45;&gt;0,1,3 -->
<g id="edge26" class="edge"><title>1,3&#45;&gt;0,1,3</title>
<path fill="none" stroke="#134d9c" stroke-dasharray="5,2" d="M317.343,-328.335C318.081,-336.946 318.875,-346.209 319.534,-353.896"/>
<polygon fill="#134d9c" stroke="#134d9c" points="320.824,-327.968 316.483,-318.303 313.85,-328.566 320.824,-327.968"/>
</g>
<!-- 2&#45;&gt;1,2 -->
<g id="edge14" class="edge"><title>2&#45;&gt;1,2</title>
<path fill="none" stroke="#134d9c" stroke-dasharray="5,2" d="M73.7769,-253.522C64.1401,-262.892 53.3684,-273.364 44.593,-281.896"/>
<polygon fill="#134d9c" stroke="#134d9c" points="76.4721,-255.784 81.2022,-246.303 71.5925,-250.765 76.4721,-255.784"/>
</g>
<!-- 2&#45;&gt;2,3 -->
<g id="edge15" class="edge"><title>2&#45;&gt;2,3</title>
<path fill="none" stroke="#134d9c" stroke-dasharray="5,2" d="M135.228,-246.611C160.157,-258.729 192.756,-274.576 215.547,-285.655"/>
<polygon fill="#134d9c" stroke="#134d9c" points="136.609,-243.391 126.085,-242.166 133.549,-249.686 136.609,-243.391"/>
</g>
<!-- 2&#45;&gt;0,2 -->
<g id="edge13" class="edge"><title>2&#45;&gt;0,2</title>
<path fill="none" stroke="#134d9c" stroke-dasharray="5,2" d="M99,-256.335C99,-264.946 99,-274.209 99,-281.896"/>
<polygon fill="#134d9c" stroke="#134d9c" points="102.5,-256.303 99,-246.303 95.5001,-256.303 102.5,-256.303"/>
</g>
<!-- 0,3&#45;&gt;0,2,3 -->
<g id="edge25" class="edge"><title>0,3&#45;&gt;0,2,3</title>
<path fill="none" stroke="#134d9c" stroke-dasharray="5,2" d="M350.814,-319.355C327.453,-331.205 297.551,-346.373 276.208,-357.199"/>
<polygon fill="#134d9c" stroke="#134d9c" points="352.401,-322.475 359.736,-314.83 349.234,-316.232 352.401,-322.475"/>
</g>
<!-- 0,3&#45;&gt;0,1,3 -->
<g id="edge24" class="edge"><title>0,3&#45;&gt;0,1,3</title>
<path fill="none" stroke="#134d9c" stroke-dasharray="5,2" d="M363.616,-325.801C354.85,-335.099 345.091,-345.448 337.127,-353.896"/>
<polygon fill="#134d9c" stroke="#134d9c" points="366.372,-327.98 370.685,-318.303 361.279,-323.178 366.372,-327.98"/>
</g>
<!-- 0,1&#45;&gt;0,1,2 -->
<g id="edge11" class="edge"><title>0,1&#45;&gt;0,1,2</title>
<path fill="none" stroke="#0000ff" d="M151.719,-318.303C138.817,-329.882 122.007,-344.968 109.681,-356.03"/>
</g>
<!-- 0,1&#45;&gt;0,1,3 -->
<g id="edge12" class="edge"><title>0,1&#45;&gt;0,1,3</title>
<path fill="none" stroke="#134d9c" stroke-dasharray="5,2" d="M207.248,-318.096C243.046,-334.769 252.972,-339.047 285,-354 287.881,-355.345 290.889,-356.756 293.885,-358.165"/>
<polygon fill="#134d9c" stroke="#134d9c" points="208.657,-314.891 198.115,-313.835 205.697,-321.235 208.657,-314.891"/>
</g>
<!-- Legend -->
<g id="node17" class="node"><title>Legend</title>
<polygon fill="none" stroke="#134d9c" stroke-dasharray="5,2" points="265,-101.5 149,-101.5 149,-0.5 265,-0.5 265,-101.5"/>
<polygon fill="none" stroke="#134d9c" points="149,-75 149,-101 167,-101 167,-75 149,-75"/>
<text text-anchor="start" x="154.5" y="-84.3" font-family="Times,serif" font-size="14.00">0</text>
<polygon fill="none" stroke="#134d9c" points="167,-75 167,-101 265,-101 265,-75 167,-75"/>
<text text-anchor="start" x="178" y="-84.3" font-family="Times,serif" font-size="14.00">1.a equals 2.c</text>
<polygon fill="none" stroke="#134d9c" points="149,-50 149,-75 167,-75 167,-50 149,-50"/>
<text text-anchor="start" x="154.5" y="-58.8" font-family="Times,serif" font-size="14.00">1</text>
<polygon fill="none" stroke="#134d9c" points="167,-50 167,-75 265,-75 265,-50 167,-50"/>
<text text-anchor="start" x="172" y="-58.8" font-family="Times,serif" font-size="14.00">1.b overlaps 2.d</text>
<polygon fill="none" stroke="#134d9c" points="149,-25 149,-50 167,-50 167,-25 149,-25"/>
<text text-anchor="start" x="154.5" y="-33.8" font-family="Times,serif" font-size="14.00">2</text>
<polygon fill="none" stroke="#134d9c" points="167,-25 167,-50 265,-50 265,-25 167,-25"/>
<text text-anchor="start" x="173.5" y="-33.8" font-family="Times,serif" font-size="14.00">1.e overlaps 2.f</text>
<polygon fill="none" stroke="#134d9c" points="149,-0 149,-25 167,-25 167,-0 149,-0"/>
<text text-anchor="start" x="154.5" y="-8.8" font-family="Times,serif" font-size="14.00">3</text>
<polygon fill="none" stroke="#134d9c" points="167,-0 167,-25 265,-25 265,-0 167,-0"/>
<text text-anchor="start" x="173.5" y="-8.8" font-family="Times,serif" font-size="14.00">1.a includes 2.f</text>
</g>
<!-- Legend&#45;&gt;None -->
</g>
</svg>
