<?xml version="1.0" encoding="UTF-8" standalone="no"?>
<!DOCTYPE svg PUBLIC "-//W3C//DTD SVG 1.1//EN"
 "http://www.w3.org/Graphics/SVG/1.1/DTD/svg11.dtd">
<!-- Generated by graphviz version 2.36.0 (20140111.2315)
 -->
<!-- Title: %3 Pages: 1 -->
<svg width="2232pt" height="1142pt"
 viewBox="0.00 0.00 2232.00 1142.00" xmlns="http://www.w3.org/2000/svg" xmlns:xlink="http://www.w3.org/1999/xlink">
<g id="graph0" class="graph" transform="scale(1 1) rotate(0) translate(4 1138)">
<title>%3</title>
<polygon fill="white" stroke="none" points="-4,4 -4,-1138 2228,-1138 2228,4 -4,4"/>
<!-- FloraChina.OakGenus -->
<g id="node1" class="node"><title>FloraChina.OakGenus</title>
<polygon fill="#ccffcc" stroke="black" points="1846,-726 1708,-726 1708,-690 1846,-690 1846,-726"/>
<text text-anchor="middle" x="1777" y="-704.3" font-family="Times,serif" font-size="14.00">FloraChina.OakGenus</text>
</g>
<!-- FloraMexico.MexicanOakSpecies1 -->
<g id="node13" class="node"><title>FloraMexico.MexicanOakSpecies1</title>
<polygon fill="#ffffcc" stroke="black" points="1658.06,-637.544 1658.06,-652.456 1571.91,-663 1450.09,-663 1363.94,-652.456 1363.94,-637.544 1450.09,-627 1571.91,-627 1658.06,-637.544"/>
<text text-anchor="middle" x="1511" y="-641.3" font-family="Times,serif" font-size="14.00">FloraMexico.MexicanOakSpecies1</text>
</g>
<!-- FloraChina.OakGenus&#45;&gt;FloraMexico.MexicanOakSpecies1 -->
<g id="edge28" class="edge"><title>FloraChina.OakGenus&#45;&gt;FloraMexico.MexicanOakSpecies1</title>
<path fill="none" stroke="#da8601" d="M1756.21,-689.812C1739.82,-676.017 1715.21,-658.094 1690,-650 1682.94,-647.733 1675.64,-645.846 1668.21,-644.289"/>
<polygon fill="#da8601" stroke="#da8601" points="1668.84,-640.848 1658.37,-642.428 1667.54,-647.726 1668.84,-640.848"/>
<text text-anchor="middle" x="1683" y="-653.8" font-family="Times,serif" font-size="14.00">1</text>
</g>
<!-- FloraMexico.MexicanOakSpecies2 -->
<g id="node14" class="node"><title>FloraMexico.MexicanOakSpecies2</title>
<polygon fill="#ffffcc" stroke="black" points="794.06,-492.544 794.06,-507.456 707.914,-518 586.086,-518 499.94,-507.456 499.94,-492.544 586.086,-482 707.914,-482 794.06,-492.544"/>
<text text-anchor="middle" x="647" y="-496.3" font-family="Times,serif" font-size="14.00">FloraMexico.MexicanOakSpecies2</text>
</g>
<!-- FloraChina.OakGenus&#45;&gt;FloraMexico.MexicanOakSpecies2 -->
<g id="edge27" class="edge"><title>FloraChina.OakGenus&#45;&gt;FloraMexico.MexicanOakSpecies2</title>
<path fill="none" stroke="#da8601" d="M1770.51,-689.787C1757.82,-651.225 1722.52,-561.634 1658,-522 1352.89,-334.571 892.06,-432.101 717.938,-479.285"/>
<polygon fill="#da8601" stroke="#da8601" points="716.844,-475.956 708.125,-481.974 718.694,-482.707 716.844,-475.956"/>
<text text-anchor="middle" x="1202" y="-418.8" font-family="Times,serif" font-size="14.00">1</text>
</g>
<!-- FloraMexico.OakGenus -->
<g id="node15" class="node"><title>FloraMexico.OakGenus</title>
<polygon fill="#ffffcc" stroke="black" points="1306.23,-914.544 1306.23,-929.456 1245.18,-940 1158.82,-940 1097.77,-929.456 1097.77,-914.544 1158.82,-904 1245.18,-904 1306.23,-914.544"/>
<text text-anchor="middle" x="1202" y="-918.3" font-family="Times,serif" font-size="14.00">FloraMexico.OakGenus</text>
</g>
<!-- FloraChina.OakGenus&#45;&gt;FloraMexico.OakGenus -->
<g id="edge44" class="edge"><title>FloraChina.OakGenus&#45;&gt;FloraMexico.OakGenus</title>
<path fill="none" stroke="#1a9557" d="M1735.71,-726.055C1721.42,-732.14 1705.13,-738.72 1690,-744 1547.86,-793.602 1503.65,-779.763 1364,-836 1320.39,-853.561 1273.26,-879.651 1241.33,-898.486"/>
<polygon fill="#1a9557" stroke="#1a9557" points="1239.14,-895.715 1232.34,-903.836 1242.72,-901.731 1239.14,-895.715"/>
<text text-anchor="middle" x="1511" y="-839.8" font-family="Times,serif" font-size="14.00">21</text>
</g>
<!-- FloraChina.ChineseOakSpecies1 -->
<g id="node2" class="node"><title>FloraChina.ChineseOakSpecies1</title>
<polygon fill="#ccffcc" stroke="black" points="449.5,-883 254.5,-883 254.5,-847 449.5,-847 449.5,-883"/>
<text text-anchor="middle" x="352" y="-861.3" font-family="Times,serif" font-size="14.00">FloraChina.ChineseOakSpecies1</text>
</g>
<!-- FloraChina.ChineseOakSpecies1&#45;&gt;FloraChina.OakGenus -->
<g id="edge5" class="edge"><title>FloraChina.ChineseOakSpecies1&#45;&gt;FloraChina.OakGenus</title>
<path fill="none" stroke="#6a231b" d="M385.217,-883.036C414.315,-898.5 458.769,-920.109 500,-932 965.76,-1066.32 1594.59,-1144.35 1690,-1069 1742.76,-1027.34 1766.65,-813.711 1773.68,-736.168"/>
<polygon fill="#6a231b" stroke="#6a231b" points="1777.17,-736.43 1774.56,-726.161 1770.2,-735.815 1777.17,-736.43"/>
<text text-anchor="middle" x="1069" y="-1060.8" font-family="Times,serif" font-size="14.00">143</text>
</g>
<!-- FloraChina.OakGenus\nFloraMexico.OakGenus -->
<g id="node6" class="node"><title>FloraChina.OakGenus\nFloraMexico.OakGenus</title>
<path fill="#eeeeee" stroke="black" d="M167,-289C167,-289 43,-289 43,-289 37,-289 31,-283 31,-277 31,-277 31,-263 31,-263 31,-257 37,-251 43,-251 43,-251 167,-251 167,-251 173,-251 179,-257 179,-263 179,-263 179,-277 179,-277 179,-283 173,-289 167,-289"/>
<text text-anchor="middle" x="105" y="-273.8" font-family="Times,serif" font-size="14.00">FloraChina.OakGenus</text>
<text text-anchor="middle" x="105" y="-258.8" font-family="Times,serif" font-size="14.00">FloraMexico.OakGenus</text>
</g>
<!-- FloraChina.ChineseOakSpecies1&#45;&gt;FloraChina.OakGenus\nFloraMexico.OakGenus -->
<g id="edge43" class="edge"><title>FloraChina.ChineseOakSpecies1&#45;&gt;FloraChina.OakGenus\nFloraMexico.OakGenus</title>
<path fill="none" stroke="#fa450f" d="M334.016,-846.868C312.678,-823.232 276.176,-779.837 254,-737 173.688,-581.863 126.976,-375.041 111.648,-299.341"/>
<polygon fill="#fa450f" stroke="#fa450f" points="115.003,-298.267 109.614,-289.145 108.138,-299.637 115.003,-298.267"/>
<text text-anchor="middle" x="232" y="-692.8" font-family="Times,serif" font-size="14.00">5</text>
</g>
<!-- FloraChina.OakGenus\nFloraMexico.MexicanOakSpecies1 -->
<g id="node10" class="node"><title>FloraChina.OakGenus\nFloraMexico.MexicanOakSpecies1</title>
<path fill="#eeeeee" stroke="black" d="M197.5,-1015C197.5,-1015 12.5,-1015 12.5,-1015 6.5,-1015 0.5,-1009 0.5,-1003 0.5,-1003 0.5,-989 0.5,-989 0.5,-983 6.5,-977 12.5,-977 12.5,-977 197.5,-977 197.5,-977 203.5,-977 209.5,-983 209.5,-989 209.5,-989 209.5,-1003 209.5,-1003 209.5,-1009 203.5,-1015 197.5,-1015"/>
<text text-anchor="middle" x="105" y="-999.8" font-family="Times,serif" font-size="14.00">FloraChina.OakGenus</text>
<text text-anchor="middle" x="105" y="-984.8" font-family="Times,serif" font-size="14.00">FloraMexico.MexicanOakSpecies1</text>
</g>
<!-- FloraChina.ChineseOakSpecies1&#45;&gt;FloraChina.OakGenus\nFloraMexico.MexicanOakSpecies1 -->
<g id="edge16" class="edge"><title>FloraChina.ChineseOakSpecies1&#45;&gt;FloraChina.OakGenus\nFloraMexico.MexicanOakSpecies1</title>
<path fill="none" stroke="#da8601" d="M317.191,-883.077C273.905,-906.222 198.776,-946.393 150.774,-972.06"/>
<polygon fill="#da8601" stroke="#da8601" points="149.015,-969.031 141.847,-976.833 152.316,-975.204 149.015,-969.031"/>
<text text-anchor="middle" x="232" y="-933.8" font-family="Times,serif" font-size="14.00">1</text>
</g>
<!-- FloraChina.OakGenus\nFloraMexico.MexicanOakSpecies2 -->
<g id="node11" class="node"><title>FloraChina.OakGenus\nFloraMexico.MexicanOakSpecies2</title>
<path fill="#eeeeee" stroke="black" d="M197.5,-883C197.5,-883 12.5,-883 12.5,-883 6.5,-883 0.5,-877 0.5,-871 0.5,-871 0.5,-857 0.5,-857 0.5,-851 6.5,-845 12.5,-845 12.5,-845 197.5,-845 197.5,-845 203.5,-845 209.5,-851 209.5,-857 209.5,-857 209.5,-871 209.5,-871 209.5,-877 203.5,-883 197.5,-883"/>
<text text-anchor="middle" x="105" y="-867.8" font-family="Times,serif" font-size="14.00">FloraChina.OakGenus</text>
<text text-anchor="middle" x="105" y="-852.8" font-family="Times,serif" font-size="14.00">FloraMexico.MexicanOakSpecies2</text>
</g>
<!-- FloraChina.ChineseOakSpecies1&#45;&gt;FloraChina.OakGenus\nFloraMexico.MexicanOakSpecies2 -->
<g id="edge17" class="edge"><title>FloraChina.ChineseOakSpecies1&#45;&gt;FloraChina.OakGenus\nFloraMexico.MexicanOakSpecies2</title>
<path fill="none" stroke="#da8601" d="M254.17,-864.605C242.893,-864.559 231.314,-864.511 219.836,-864.465"/>
<polygon fill="#da8601" stroke="#da8601" points="219.8,-860.965 209.786,-864.424 219.771,-867.965 219.8,-860.965"/>
<text text-anchor="middle" x="232" y="-867.8" font-family="Times,serif" font-size="14.00">1</text>
</g>
<!-- FloraChina.ChineseOakSpecies1&#45;&gt;FloraMexico.MexicanOakSpecies1 -->
<g id="edge45" class="edge"><title>FloraChina.ChineseOakSpecies1&#45;&gt;FloraMexico.MexicanOakSpecies1</title>
<path fill="none" stroke="#169b5a" d="M449.759,-866.499C619.312,-868.343 963.199,-868.39 1080,-841 1233.96,-804.895 1399.86,-712.041 1472.43,-668.366"/>
<polygon fill="#169b5a" stroke="#169b5a" points="1474.48,-671.215 1481.22,-663.04 1470.85,-665.228 1474.48,-671.215"/>
<text text-anchor="middle" x="942" y="-865.8" font-family="Times,serif" font-size="14.00">15</text>
</g>
<!-- FloraChina.ChineseOakSpecies1&#45;&gt;FloraMexico.MexicanOakSpecies2 -->
<g id="edge46" class="edge"><title>FloraChina.ChineseOakSpecies1&#45;&gt;FloraMexico.MexicanOakSpecies2</title>
<path fill="none" stroke="#169b5a" d="M369.725,-846.731C390.788,-822.949 427.001,-779.4 450,-737 461.261,-716.239 455.592,-707.096 468,-687 509.001,-620.597 576.57,-558.016 615.6,-524.776"/>
<polygon fill="#169b5a" stroke="#169b5a" points="618.086,-527.259 623.476,-518.137 613.574,-521.906 618.086,-527.259"/>
<text text-anchor="middle" x="475" y="-690.8" font-family="Times,serif" font-size="14.00">15</text>
</g>
<!-- FloraChina.ChineseOakSpecies1&#45;&gt;FloraMexico.OakGenus -->
<g id="edge6" class="edge"><title>FloraChina.ChineseOakSpecies1&#45;&gt;FloraMexico.OakGenus</title>
<path fill="none" stroke="#169b5a" d="M449.582,-877.202C455.81,-877.852 461.991,-878.458 468,-879 686.835,-898.72 943.276,-911.378 1087.48,-917.544"/>
<polygon fill="#169b5a" stroke="#169b5a" points="1087.53,-921.049 1097.67,-917.977 1087.82,-914.056 1087.53,-921.049"/>
<text text-anchor="middle" x="819" y="-907.8" font-family="Times,serif" font-size="14.00">15</text>
</g>
<!-- FloraChina.ChineseOakSpecies2 -->
<g id="node3" class="node"><title>FloraChina.ChineseOakSpecies2</title>
<polygon fill="#ccffcc" stroke="black" points="1039.5,-554 844.5,-554 844.5,-518 1039.5,-518 1039.5,-554"/>
<text text-anchor="middle" x="942" y="-532.3" font-family="Times,serif" font-size="14.00">FloraChina.ChineseOakSpecies2</text>
</g>
<!-- FloraChina.ChineseOakSpecies2&#45;&gt;FloraChina.OakGenus -->
<g id="edge33" class="edge"><title>FloraChina.ChineseOakSpecies2&#45;&gt;FloraChina.OakGenus</title>
<path fill="none" stroke="#6a231b" d="M1039.47,-517.982C1045.73,-517.198 1051.94,-516.523 1058,-516 1167.82,-506.522 1196.9,-502.311 1306,-518 1466.98,-541.149 1512.28,-545.777 1658,-618 1692.49,-635.092 1726.91,-662.883 1749.59,-683.067"/>
<polygon fill="#6a231b" stroke="#6a231b" points="1747.34,-685.751 1757.11,-689.858 1752.04,-680.557 1747.34,-685.751"/>
<text text-anchor="middle" x="1335" y="-526.8" font-family="Times,serif" font-size="14.00">143</text>
</g>
<!-- FloraChina.ChineseOakSpecies2&#45;&gt;FloraChina.OakGenus\nFloraMexico.OakGenus -->
<g id="edge12" class="edge"><title>FloraChina.ChineseOakSpecies2&#45;&gt;FloraChina.OakGenus\nFloraMexico.OakGenus</title>
<path fill="none" stroke="#fa450f" d="M903.966,-517.864C874.672,-504.076 832.442,-485.424 794,-473 548.212,-393.564 467.489,-437.783 228,-341 197.578,-328.706 165.605,-309.849 142.026,-294.659"/>
<polygon fill="#fa450f" stroke="#fa450f" points="143.707,-291.576 133.42,-289.037 139.878,-297.436 143.707,-291.576"/>
<text text-anchor="middle" x="475" y="-412.8" font-family="Times,serif" font-size="14.00">5</text>
</g>
<!-- FloraChina.ChineseOakSpecies2&#45;&gt;FloraChina.OakGenus\nFloraMexico.MexicanOakSpecies1 -->
<g id="edge25" class="edge"><title>FloraChina.ChineseOakSpecies2&#45;&gt;FloraChina.OakGenus\nFloraMexico.MexicanOakSpecies1</title>
<path fill="none" stroke="#da8601" d="M921.101,-554.323C857.401,-612.071 650.912,-792.342 450,-892 372.595,-930.395 278.268,-957.684 207.98,-974.647"/>
<polygon fill="#da8601" stroke="#da8601" points="207.141,-971.249 198.225,-976.972 208.764,-978.058 207.141,-971.249"/>
<text text-anchor="middle" x="475" y="-883.8" font-family="Times,serif" font-size="14.00">1</text>
</g>
<!-- FloraChina.ChineseOakSpecies2&#45;&gt;FloraChina.OakGenus\nFloraMexico.MexicanOakSpecies2 -->
<g id="edge23" class="edge"><title>FloraChina.ChineseOakSpecies2&#45;&gt;FloraChina.OakGenus\nFloraMexico.MexicanOakSpecies2</title>
<path fill="none" stroke="#da8601" d="M844.188,-547.166C673.608,-568.301 328.071,-618.101 228,-685 171.966,-722.46 134.594,-795.201 117.218,-835.464"/>
<polygon fill="#da8601" stroke="#da8601" points="113.975,-834.148 113.329,-844.723 120.428,-836.859 113.975,-834.148"/>
<text text-anchor="middle" x="475" y="-609.8" font-family="Times,serif" font-size="14.00">1</text>
</g>
<!-- FloraChina.ChineseOakSpecies2&#45;&gt;FloraMexico.MexicanOakSpecies1 -->
<g id="edge38" class="edge"><title>FloraChina.ChineseOakSpecies2&#45;&gt;FloraMexico.MexicanOakSpecies1</title>
<path fill="none" stroke="#169b5a" d="M1014.56,-554.051C1040.74,-560.397 1070.64,-567.348 1098,-573 1203.57,-594.804 1325.26,-615.534 1408.87,-629.102"/>
<polygon fill="#169b5a" stroke="#169b5a" points="1408.44,-632.578 1418.87,-630.721 1409.56,-625.668 1408.44,-632.578"/>
<text text-anchor="middle" x="1202" y="-614.8" font-family="Times,serif" font-size="14.00">15</text>
</g>
<!-- FloraChina.ChineseOakSpecies2&#45;&gt;FloraMexico.MexicanOakSpecies2 -->
<g id="edge39" class="edge"><title>FloraChina.ChineseOakSpecies2&#45;&gt;FloraMexico.MexicanOakSpecies2</title>
<path fill="none" stroke="#169b5a" d="M844.249,-524.112C817.749,-520.857 788.785,-517.298 761.443,-513.938"/>
<polygon fill="#169b5a" stroke="#169b5a" points="761.802,-510.456 751.45,-512.711 760.948,-517.404 761.802,-510.456"/>
<text text-anchor="middle" x="819" y="-524.8" font-family="Times,serif" font-size="14.00">15</text>
</g>
<!-- FloraChina.ChineseOakSpecies2&#45;&gt;FloraMexico.OakGenus -->
<g id="edge4" class="edge"><title>FloraChina.ChineseOakSpecies2&#45;&gt;FloraMexico.OakGenus</title>
<path fill="none" stroke="#169b5a" d="M959.714,-554.343C979.818,-576.804 1014.09,-616.383 1040,-653 1099.95,-737.733 1159.93,-845.505 1186.62,-894.967"/>
<polygon fill="#169b5a" stroke="#169b5a" points="1183.54,-896.631 1191.36,-903.782 1189.71,-893.317 1183.54,-896.631"/>
<text text-anchor="middle" x="1069" y="-712.8" font-family="Times,serif" font-size="14.00">15</text>
</g>
<!-- FloraChina.ChineseOakSpecies2\nFloraMexico.MexicanOakSpecies1 -->
<g id="node4" class="node"><title>FloraChina.ChineseOakSpecies2\nFloraMexico.MexicanOakSpecies1</title>
<path fill="#eeeeee" stroke="black" d="M2087.5,-881C2087.5,-881 1902.5,-881 1902.5,-881 1896.5,-881 1890.5,-875 1890.5,-869 1890.5,-869 1890.5,-855 1890.5,-855 1890.5,-849 1896.5,-843 1902.5,-843 1902.5,-843 2087.5,-843 2087.5,-843 2093.5,-843 2099.5,-849 2099.5,-855 2099.5,-855 2099.5,-869 2099.5,-869 2099.5,-875 2093.5,-881 2087.5,-881"/>
<text text-anchor="middle" x="1995" y="-865.8" font-family="Times,serif" font-size="14.00">FloraChina.ChineseOakSpecies2</text>
<text text-anchor="middle" x="1995" y="-850.8" font-family="Times,serif" font-size="14.00">FloraMexico.MexicanOakSpecies1</text>
</g>
<!-- FloraChina.ChineseOakSpecies2\nFloraMexico.MexicanOakSpecies1&#45;&gt;FloraChina.OakGenus -->
<g id="edge11" class="edge"><title>FloraChina.ChineseOakSpecies2\nFloraMexico.MexicanOakSpecies1&#45;&gt;FloraChina.OakGenus</title>
<path fill="none" stroke="#fa550f" d="M1897.1,-842.897C1894.67,-841.677 1892.3,-840.38 1890,-839 1846.99,-813.184 1812.28,-764.996 1793.44,-734.812"/>
<polygon fill="#fa550f" stroke="#fa550f" points="1796.31,-732.786 1788.11,-726.067 1790.33,-736.428 1796.31,-732.786"/>
<text text-anchor="middle" x="1868" y="-828.8" font-family="Times,serif" font-size="14.00">4</text>
</g>
<!-- FloraChina.ChineseOakSpecies2\nFloraMexico.MexicanOakSpecies1&#45;&gt;FloraChina.OakGenus\nFloraMexico.OakGenus -->
<g id="edge7" class="edge"><title>FloraChina.ChineseOakSpecies2\nFloraMexico.MexicanOakSpecies1&#45;&gt;FloraChina.OakGenus\nFloraMexico.OakGenus</title>
<path fill="none" stroke="#da8601" d="M1893.97,-842.834C1892.59,-841.624 1891.27,-840.347 1890,-839 1872.43,-820.32 1876.32,-750.281 1872,-725 1852.53,-610.97 1893.68,-213 1778,-213 1778,-213 1778,-213 1201,-213 1136.83,-213 1120.84,-219.995 1058,-233 953.257,-254.676 931.666,-280.398 826,-297 660.765,-322.962 617.225,-309.444 450,-313 362.909,-314.852 340.242,-325.275 254,-313 225.108,-308.888 193.971,-300.475 167.746,-292.172"/>
<polygon fill="#da8601" stroke="#da8601" points="168.542,-288.751 157.95,-289.004 166.388,-295.411 168.542,-288.751"/>
<text text-anchor="middle" x="1069" y="-236.8" font-family="Times,serif" font-size="14.00">1</text>
</g>
<!-- FloraChina.ChineseOakSpecies2\nFloraMexico.MexicanOakSpecies1&#45;&gt;FloraMexico.OakGenus -->
<g id="edge10" class="edge"><title>FloraChina.ChineseOakSpecies2\nFloraMexico.MexicanOakSpecies1&#45;&gt;FloraMexico.OakGenus</title>
<path fill="none" stroke="#fa550f" d="M1986.51,-881.169C1971.25,-917.24 1932.77,-994.414 1872,-1026 1806.17,-1060.22 1416.81,-1061.16 1324,-1026 1282.39,-1010.24 1245.37,-973.317 1223.55,-947.99"/>
<polygon fill="#fa550f" stroke="#fa550f" points="1226.13,-945.619 1217.01,-940.217 1220.77,-950.123 1226.13,-945.619"/>
<text text-anchor="middle" x="1683" y="-1053.8" font-family="Times,serif" font-size="14.00">4</text>
</g>
<!-- FloraChina.ChineseOakSpecies2\nFloraMexico.MexicanOakSpecies2 -->
<g id="node5" class="node"><title>FloraChina.ChineseOakSpecies2\nFloraMexico.MexicanOakSpecies2</title>
<path fill="#eeeeee" stroke="black" d="M2087.5,-830C2087.5,-830 1902.5,-830 1902.5,-830 1896.5,-830 1890.5,-824 1890.5,-818 1890.5,-818 1890.5,-804 1890.5,-804 1890.5,-798 1896.5,-792 1902.5,-792 1902.5,-792 2087.5,-792 2087.5,-792 2093.5,-792 2099.5,-798 2099.5,-804 2099.5,-804 2099.5,-818 2099.5,-818 2099.5,-824 2093.5,-830 2087.5,-830"/>
<text text-anchor="middle" x="1995" y="-814.8" font-family="Times,serif" font-size="14.00">FloraChina.ChineseOakSpecies2</text>
<text text-anchor="middle" x="1995" y="-799.8" font-family="Times,serif" font-size="14.00">FloraMexico.MexicanOakSpecies2</text>
</g>
<!-- FloraChina.ChineseOakSpecies2\nFloraMexico.MexicanOakSpecies2&#45;&gt;FloraChina.OakGenus -->
<g id="edge47" class="edge"><title>FloraChina.ChineseOakSpecies2\nFloraMexico.MexicanOakSpecies2&#45;&gt;FloraChina.OakGenus</title>
<path fill="none" stroke="#fa550f" d="M1899.62,-791.936C1896.34,-790.702 1893.13,-789.392 1890,-788 1858.64,-774.036 1827.21,-750.554 1805.66,-732.633"/>
<polygon fill="#fa550f" stroke="#fa550f" points="1807.8,-729.858 1797.91,-726.068 1803.28,-735.201 1807.8,-729.858"/>
<text text-anchor="middle" x="1868" y="-780.8" font-family="Times,serif" font-size="14.00">4</text>
</g>
<!-- FloraChina.ChineseOakSpecies2\nFloraMexico.MexicanOakSpecies2&#45;&gt;FloraChina.OakGenus\nFloraMexico.OakGenus -->
<g id="edge29" class="edge"><title>FloraChina.ChineseOakSpecies2\nFloraMexico.MexicanOakSpecies2&#45;&gt;FloraChina.OakGenus\nFloraMexico.OakGenus</title>
<path fill="none" stroke="#da8601" d="M1893.34,-791.662C1892.18,-790.502 1891.06,-789.282 1890,-788 1848.23,-737.58 1909.68,-252.547 1872,-199 1846.16,-162.282 1822.9,-162 1778,-162 1778,-162 1778,-162 351,-162 269.12,-162 183.924,-213.132 138.742,-245.031"/>
<polygon fill="#da8601" stroke="#da8601" points="136.596,-242.263 130.516,-250.94 140.68,-247.949 136.596,-242.263"/>
<text text-anchor="middle" x="1069" y="-165.8" font-family="Times,serif" font-size="14.00">1</text>
</g>
<!-- FloraChina.ChineseOakSpecies2\nFloraMexico.MexicanOakSpecies2&#45;&gt;FloraMexico.OakGenus -->
<g id="edge14" class="edge"><title>FloraChina.ChineseOakSpecies2\nFloraMexico.MexicanOakSpecies2&#45;&gt;FloraMexico.OakGenus</title>
<path fill="none" stroke="#fa550f" d="M1893.92,-830.115C1892.56,-831.341 1891.25,-832.635 1890,-834 1847.4,-880.65 1918.83,-932.592 1872,-975 1830.66,-1012.44 1361.33,-994.137 1324,-985 1292.79,-977.362 1260.68,-960.126 1237.38,-945.61"/>
<polygon fill="#fa550f" stroke="#fa550f" points="1239.22,-942.631 1228.91,-940.205 1235.46,-948.533 1239.22,-942.631"/>
<text text-anchor="middle" x="1683" y="-1000.8" font-family="Times,serif" font-size="14.00">4</text>
</g>
<!-- FloraChina.ChineseOakSpecies2\nFloraMexico.OakGenus -->
<g id="node7" class="node"><title>FloraChina.ChineseOakSpecies2\nFloraMexico.OakGenus</title>
<path fill="#eeeeee" stroke="black" d="M437.5,-728C437.5,-728 266.5,-728 266.5,-728 260.5,-728 254.5,-722 254.5,-716 254.5,-716 254.5,-702 254.5,-702 254.5,-696 260.5,-690 266.5,-690 266.5,-690 437.5,-690 437.5,-690 443.5,-690 449.5,-696 449.5,-702 449.5,-702 449.5,-716 449.5,-716 449.5,-722 443.5,-728 437.5,-728"/>
<text text-anchor="middle" x="352" y="-712.8" font-family="Times,serif" font-size="14.00">FloraChina.ChineseOakSpecies2</text>
<text text-anchor="middle" x="352" y="-697.8" font-family="Times,serif" font-size="14.00">FloraMexico.OakGenus</text>
</g>
<!-- FloraChina.ChineseOakSpecies2\nFloraMexico.OakGenus&#45;&gt;FloraChina.OakGenus -->
<g id="edge19" class="edge"><title>FloraChina.ChineseOakSpecies2\nFloraMexico.OakGenus&#45;&gt;FloraChina.OakGenus</title>
<path fill="none" stroke="#da8601" d="M431.904,-728.033C528.405,-750.248 697.062,-785.644 844,-799 1075.14,-820.009 1133.73,-780.06 1364,-751 1479.93,-736.37 1614.66,-722.99 1697.63,-715.166"/>
<polygon fill="#da8601" stroke="#da8601" points="1698.11,-718.637 1707.73,-714.217 1697.45,-711.668 1698.11,-718.637"/>
<text text-anchor="middle" x="1069" y="-802.8" font-family="Times,serif" font-size="14.00">1</text>
</g>
<!-- FloraChina.ChineseOakSpecies1\nFloraMexico.MexicanOakSpecies2 -->
<g id="node8" class="node"><title>FloraChina.ChineseOakSpecies1\nFloraMexico.MexicanOakSpecies2</title>
<path fill="#eeeeee" stroke="black" d="M2087.5,-779C2087.5,-779 1902.5,-779 1902.5,-779 1896.5,-779 1890.5,-773 1890.5,-767 1890.5,-767 1890.5,-753 1890.5,-753 1890.5,-747 1896.5,-741 1902.5,-741 1902.5,-741 2087.5,-741 2087.5,-741 2093.5,-741 2099.5,-747 2099.5,-753 2099.5,-753 2099.5,-767 2099.5,-767 2099.5,-773 2093.5,-779 2087.5,-779"/>
<text text-anchor="middle" x="1995" y="-763.8" font-family="Times,serif" font-size="14.00">FloraChina.ChineseOakSpecies1</text>
<text text-anchor="middle" x="1995" y="-748.8" font-family="Times,serif" font-size="14.00">FloraMexico.MexicanOakSpecies2</text>
</g>
<!-- FloraChina.ChineseOakSpecies1\nFloraMexico.MexicanOakSpecies2&#45;&gt;FloraChina.OakGenus -->
<g id="edge9" class="edge"><title>FloraChina.ChineseOakSpecies1\nFloraMexico.MexicanOakSpecies2&#45;&gt;FloraChina.OakGenus</title>
<path fill="none" stroke="#fa550f" d="M1914.8,-740.932C1895.62,-736.317 1875.14,-731.386 1856.02,-726.784"/>
<polygon fill="#fa550f" stroke="#fa550f" points="1856.71,-723.348 1846.17,-724.41 1855.07,-730.154 1856.71,-723.348"/>
<text text-anchor="middle" x="1868" y="-732.8" font-family="Times,serif" font-size="14.00">4</text>
</g>
<!-- FloraChina.ChineseOakSpecies1\nFloraMexico.MexicanOakSpecies2&#45;&gt;FloraChina.OakGenus\nFloraMexico.OakGenus -->
<g id="edge26" class="edge"><title>FloraChina.ChineseOakSpecies1\nFloraMexico.MexicanOakSpecies2&#45;&gt;FloraChina.OakGenus\nFloraMexico.OakGenus</title>
<path fill="none" stroke="#da8601" d="M1993.24,-740.982C1989.06,-646.369 1965.4,-227.778 1872,-148 1714.9,-13.8094 1149.61,-111 943,-111 943,-111 943,-111 351,-111 293.914,-111 276.999,-118.709 228,-148 186.293,-172.932 148.456,-215.254 126.331,-242.916"/>
<polygon fill="#da8601" stroke="#da8601" points="123.409,-240.969 119.982,-250.995 128.913,-245.295 123.409,-240.969"/>
<text text-anchor="middle" x="1069" y="-108.8" font-family="Times,serif" font-size="14.00">1</text>
</g>
<!-- FloraChina.ChineseOakSpecies1\nFloraMexico.MexicanOakSpecies2&#45;&gt;FloraMexico.OakGenus -->
<g id="edge41" class="edge"><title>FloraChina.ChineseOakSpecies1\nFloraMexico.MexicanOakSpecies2&#45;&gt;FloraMexico.OakGenus</title>
<path fill="none" stroke="#fa550f" d="M1894.65,-779.063C1893.04,-780.301 1891.49,-781.612 1890,-783 1869.33,-802.283 1890.43,-822.571 1872,-844 1804.37,-922.618 1760.71,-922.682 1658,-937 1510.91,-957.504 1471.74,-962.103 1324,-947 1307.48,-945.311 1289.88,-942.357 1273.37,-939.057"/>
<polygon fill="#fa550f" stroke="#fa550f" points="1273.75,-935.562 1263.25,-936.966 1272.33,-942.417 1273.75,-935.562"/>
<text text-anchor="middle" x="1683" y="-937.8" font-family="Times,serif" font-size="14.00">4</text>
</g>
<!-- FloraChina.ChineseOakSpecies1\nFloraMexico.MexicanOakSpecies1 -->
<g id="node9" class="node"><title>FloraChina.ChineseOakSpecies1\nFloraMexico.MexicanOakSpecies1</title>
<path fill="#eeeeee" stroke="black" d="M2087.5,-94C2087.5,-94 1902.5,-94 1902.5,-94 1896.5,-94 1890.5,-88 1890.5,-82 1890.5,-82 1890.5,-68 1890.5,-68 1890.5,-62 1896.5,-56 1902.5,-56 1902.5,-56 2087.5,-56 2087.5,-56 2093.5,-56 2099.5,-62 2099.5,-68 2099.5,-68 2099.5,-82 2099.5,-82 2099.5,-88 2093.5,-94 2087.5,-94"/>
<text text-anchor="middle" x="1995" y="-78.8" font-family="Times,serif" font-size="14.00">FloraChina.ChineseOakSpecies1</text>
<text text-anchor="middle" x="1995" y="-63.8" font-family="Times,serif" font-size="14.00">FloraMexico.MexicanOakSpecies1</text>
</g>
<!-- FloraChina.ChineseOakSpecies1\nFloraMexico.MexicanOakSpecies1&#45;&gt;FloraChina.OakGenus -->
<g id="edge42" class="edge"><title>FloraChina.ChineseOakSpecies1\nFloraMexico.MexicanOakSpecies1&#45;&gt;FloraChina.OakGenus</title>
<path fill="none" stroke="#fa550f" d="M1987.42,-94.2901C1956.32,-185.418 1824.12,-572.841 1787.46,-680.276"/>
<polygon fill="#fa550f" stroke="#fa550f" points="1784.13,-679.185 1784.22,-689.779 1790.76,-681.445 1784.13,-679.185"/>
<text text-anchor="middle" x="1868" y="-451.8" font-family="Times,serif" font-size="14.00">4</text>
</g>
<!-- FloraChina.ChineseOakSpecies1\nFloraMexico.MexicanOakSpecies1&#45;&gt;FloraChina.OakGenus\nFloraMexico.OakGenus -->
<g id="edge22" class="edge"><title>FloraChina.ChineseOakSpecies1\nFloraMexico.MexicanOakSpecies1&#45;&gt;FloraChina.OakGenus\nFloraMexico.OakGenus</title>
<path fill="none" stroke="#da8601" d="M1936.49,-55.8915C1893.37,-43.253 1832.64,-29 1778,-29 1778,-29 1778,-29 351,-29 230.972,-29 148.292,-177.825 118.383,-241.572"/>
<polygon fill="#da8601" stroke="#da8601" points="115.191,-240.137 114.196,-250.685 121.552,-243.06 115.191,-240.137"/>
<text text-anchor="middle" x="1069" y="-32.8" font-family="Times,serif" font-size="14.00">1</text>
</g>
<!-- FloraChina.ChineseOakSpecies1\nFloraMexico.MexicanOakSpecies1&#45;&gt;FloraMexico.OakGenus -->
<g id="edge24" class="edge"><title>FloraChina.ChineseOakSpecies1\nFloraMexico.MexicanOakSpecies1&#45;&gt;FloraMexico.OakGenus</title>
<path fill="none" stroke="#fa550f" d="M1993.76,-94.0368C1991.95,-176.424 1976.5,-508.305 1846,-735 1838.9,-747.334 1671.18,-903.62 1658,-909 1598.48,-933.304 1430.81,-931.964 1316.51,-927.761"/>
<polygon fill="#fa550f" stroke="#fa550f" points="1316.44,-924.256 1306.31,-927.373 1316.17,-931.251 1316.44,-924.256"/>
<text text-anchor="middle" x="1683" y="-897.8" font-family="Times,serif" font-size="14.00">4</text>
</g>
<!-- FloraChina.OakGenus\nFloraMexico.MexicanOakSpecies1&#45;&gt;FloraMexico.OakGenus -->
<g id="edge49" class="edge"><title>FloraChina.OakGenus\nFloraMexico.MexicanOakSpecies1&#45;&gt;FloraMexico.OakGenus</title>
<path fill="none" stroke="#da8601" d="M127.147,-1015.22C167.497,-1049.81 259.619,-1119 351,-1119 943,-1119 943,-1119 943,-1119 1007.23,-1119 1027.34,-1109.77 1080,-1073 1127.58,-1039.77 1166.05,-982.625 1186.03,-948.974"/>
<polygon fill="#da8601" stroke="#da8601" points="1189.17,-950.549 1191.17,-940.145 1183.12,-947.027 1189.17,-950.549"/>
<text text-anchor="middle" x="647" y="-1122.8" font-family="Times,serif" font-size="14.00">1</text>
</g>
<!-- FloraChina.OakGenus\nFloraMexico.MexicanOakSpecies2&#45;&gt;FloraMexico.OakGenus -->
<g id="edge21" class="edge"><title>FloraChina.OakGenus\nFloraMexico.MexicanOakSpecies2&#45;&gt;FloraMexico.OakGenus</title>
<path fill="none" stroke="#da8601" d="M151.294,-883.003C176.496,-893.875 208.28,-908.086 236,-922 341.635,-975.023 353.765,-1021.66 468,-1052 533.723,-1069.46 1017.91,-1084.73 1080,-1057 1129.17,-1035.04 1166.67,-982.124 1186.13,-949.445"/>
<polygon fill="#da8601" stroke="#da8601" points="1189.38,-950.816 1191.36,-940.408 1183.32,-947.31 1189.38,-950.816"/>
<text text-anchor="middle" x="647" y="-1074.8" font-family="Times,serif" font-size="14.00">1</text>
</g>
<!-- FloraChina.ChineseOakSpecies1\nFloraMexico.OakGenus -->
<g id="node12" class="node"><title>FloraChina.ChineseOakSpecies1\nFloraMexico.OakGenus</title>
<path fill="#eeeeee" stroke="black" d="M437.5,-308C437.5,-308 266.5,-308 266.5,-308 260.5,-308 254.5,-302 254.5,-296 254.5,-296 254.5,-282 254.5,-282 254.5,-276 260.5,-270 266.5,-270 266.5,-270 437.5,-270 437.5,-270 443.5,-270 449.5,-276 449.5,-282 449.5,-282 449.5,-296 449.5,-296 449.5,-302 443.5,-308 437.5,-308"/>
<text text-anchor="middle" x="352" y="-292.8" font-family="Times,serif" font-size="14.00">FloraChina.ChineseOakSpecies1</text>
<text text-anchor="middle" x="352" y="-277.8" font-family="Times,serif" font-size="14.00">FloraMexico.OakGenus</text>
</g>
<!-- FloraChina.ChineseOakSpecies1\nFloraMexico.OakGenus&#45;&gt;FloraChina.OakGenus -->
<g id="edge50" class="edge"><title>FloraChina.ChineseOakSpecies1\nFloraMexico.OakGenus&#45;&gt;FloraChina.OakGenus</title>
<path fill="none" stroke="#da8601" d="M449.619,-282.409C735.255,-263.817 1561.81,-216.78 1658,-288 1722.65,-335.866 1761.25,-593.46 1772.53,-679.785"/>
<polygon fill="#da8601" stroke="#da8601" points="1769.08,-680.418 1773.82,-689.892 1776.02,-679.528 1769.08,-680.418"/>
<text text-anchor="middle" x="1069" y="-256.8" font-family="Times,serif" font-size="14.00">1</text>
</g>
<!-- FloraMexico.MexicanOakSpecies1&#45;&gt;FloraChina.OakGenus -->
<g id="edge48" class="edge"><title>FloraMexico.MexicanOakSpecies1&#45;&gt;FloraChina.OakGenus</title>
<path fill="none" stroke="#169b5a" d="M1582.34,-661.787C1617.83,-670.255 1660.99,-680.554 1697.55,-689.278"/>
<polygon fill="#169b5a" stroke="#169b5a" points="1697.13,-692.777 1707.67,-691.694 1698.76,-685.968 1697.13,-692.777"/>
<text text-anchor="middle" x="1683" y="-688.8" font-family="Times,serif" font-size="14.00">15</text>
</g>
<!-- FloraMexico.MexicanOakSpecies1&#45;&gt;FloraChina.ChineseOakSpecies1 -->
<g id="edge35" class="edge"><title>FloraMexico.MexicanOakSpecies1&#45;&gt;FloraChina.ChineseOakSpecies1</title>
<path fill="none" stroke="#169b5a" d="M1413.85,-658.592C1379.82,-663.173 1341.24,-668.106 1306,-672 1203.55,-683.32 945.129,-693.093 844,-713 682.651,-744.761 499.162,-809.562 409.021,-843.376"/>
<polygon fill="#169b5a" stroke="#169b5a" points="407.669,-840.145 399.545,-846.945 410.137,-846.695 407.669,-840.145"/>
<text text-anchor="middle" x="942" y="-716.8" font-family="Times,serif" font-size="14.00">15</text>
</g>
<!-- FloraMexico.MexicanOakSpecies1&#45;&gt;FloraChina.ChineseOakSpecies2 -->
<g id="edge34" class="edge"><title>FloraMexico.MexicanOakSpecies1&#45;&gt;FloraChina.ChineseOakSpecies2</title>
<path fill="none" stroke="#169b5a" d="M1474.85,-626.913C1434.93,-607.117 1367.38,-575.829 1306,-558 1208.26,-529.608 1181.45,-529.249 1080,-521 1070.25,-520.207 1060.12,-520.05 1049.99,-520.346"/>
<polygon fill="#169b5a" stroke="#169b5a" points="1049.7,-516.855 1039.86,-520.786 1050,-523.848 1049.7,-516.855"/>
<text text-anchor="middle" x="1202" y="-561.8" font-family="Times,serif" font-size="14.00">15</text>
</g>
<!-- FloraMexico.MexicanOakSpecies1&#45;&gt;FloraChina.OakGenus\nFloraMexico.OakGenus -->
<g id="edge40" class="edge"><title>FloraMexico.MexicanOakSpecies1&#45;&gt;FloraChina.OakGenus\nFloraMexico.OakGenus</title>
<path fill="none" stroke="#fa450f" d="M1484.16,-626.919C1437.69,-593.834 1343.07,-523.684 1324,-488 1307.13,-456.445 1331.34,-353.257 1306,-328 1272.21,-294.328 497.681,-262.394 450,-261 362.926,-258.455 341.071,-258.355 254,-261 233.104,-261.635 210.572,-262.772 189.545,-264.03"/>
<polygon fill="#fa450f" stroke="#fa450f" points="189.123,-260.549 179.357,-264.656 189.552,-267.536 189.123,-260.549"/>
<text text-anchor="middle" x="819" y="-281.8" font-family="Times,serif" font-size="14.00">5</text>
</g>
<!-- FloraMexico.MexicanOakSpecies1&#45;&gt;FloraChina.ChineseOakSpecies2\nFloraMexico.OakGenus -->
<g id="edge2" class="edge"><title>FloraMexico.MexicanOakSpecies1&#45;&gt;FloraChina.ChineseOakSpecies2\nFloraMexico.OakGenus</title>
<path fill="none" stroke="#da8601" d="M1363.79,-650.939C1228.82,-656.627 1022.83,-665.829 844,-676 711.643,-683.527 559.345,-694.054 459.908,-701.178"/>
<polygon fill="#da8601" stroke="#da8601" points="459.576,-697.693 449.853,-701.9 460.078,-704.675 459.576,-697.693"/>
<text text-anchor="middle" x="942" y="-679.8" font-family="Times,serif" font-size="14.00">1</text>
</g>
<!-- FloraMexico.MexicanOakSpecies1&#45;&gt;FloraChina.ChineseOakSpecies1\nFloraMexico.OakGenus -->
<g id="edge30" class="edge"><title>FloraMexico.MexicanOakSpecies1&#45;&gt;FloraChina.ChineseOakSpecies1\nFloraMexico.OakGenus</title>
<path fill="none" stroke="#da8601" d="M1464.78,-626.94C1420.89,-606.847 1356.31,-569.941 1324,-516 1306.07,-486.062 1330.21,-385.137 1306,-360 1273.56,-326.313 1144.22,-335.141 1098,-328 1072.22,-324.017 1065.96,-321.573 1040,-319 835.493,-298.73 595.387,-292.156 460.026,-290.023"/>
<polygon fill="#da8601" stroke="#da8601" points="459.715,-286.518 449.663,-289.866 459.608,-293.517 459.715,-286.518"/>
<text text-anchor="middle" x="942" y="-322.8" font-family="Times,serif" font-size="14.00">1</text>
</g>
<!-- FloraMexico.MexicanOakSpecies1&#45;&gt;FloraMexico.OakGenus -->
<g id="edge31" class="edge"><title>FloraMexico.MexicanOakSpecies1&#45;&gt;FloraMexico.OakGenus</title>
<path fill="none" stroke="#6a231b" d="M1490.07,-663.169C1453.61,-696.378 1373.7,-769.07 1306,-830 1280.72,-852.756 1251.82,-878.546 1231.08,-897.018"/>
<polygon fill="#6a231b" stroke="#6a231b" points="1228.7,-894.453 1223.56,-903.717 1233.36,-899.681 1228.7,-894.453"/>
<text text-anchor="middle" x="1335" y="-813.8" font-family="Times,serif" font-size="14.00">143</text>
</g>
<!-- FloraMexico.MexicanOakSpecies2&#45;&gt;FloraChina.OakGenus -->
<g id="edge1" class="edge"><title>FloraMexico.MexicanOakSpecies2&#45;&gt;FloraChina.OakGenus</title>
<path fill="none" stroke="#169b5a" d="M681.529,-481.861C822.427,-408.357 1373.86,-148.284 1690,-399 1734.52,-434.307 1762.71,-609.697 1772.32,-679.384"/>
<polygon fill="#169b5a" stroke="#169b5a" points="1768.89,-680.181 1773.7,-689.623 1775.83,-679.245 1768.89,-680.181"/>
<text text-anchor="middle" x="1202" y="-325.8" font-family="Times,serif" font-size="14.00">15</text>
</g>
<!-- FloraMexico.MexicanOakSpecies2&#45;&gt;FloraChina.ChineseOakSpecies1 -->
<g id="edge8" class="edge"><title>FloraMexico.MexicanOakSpecies2&#45;&gt;FloraChina.ChineseOakSpecies1</title>
<path fill="none" stroke="#169b5a" d="M630.867,-518.269C599.998,-555.595 527.64,-643.382 468,-718 434.489,-759.928 396.196,-809.143 373.34,-838.66"/>
<polygon fill="#169b5a" stroke="#169b5a" points="370.394,-836.749 367.042,-846.8 375.93,-841.033 370.394,-836.749"/>
<text text-anchor="middle" x="475" y="-721.8" font-family="Times,serif" font-size="14.00">15</text>
</g>
<!-- FloraMexico.MexicanOakSpecies2&#45;&gt;FloraChina.ChineseOakSpecies2 -->
<g id="edge3" class="edge"><title>FloraMexico.MexicanOakSpecies2&#45;&gt;FloraChina.ChineseOakSpecies2</title>
<path fill="none" stroke="#169b5a" d="M794.458,-497.435C805.16,-498.284 815.764,-499.448 826,-501 844.889,-503.865 864.975,-509.157 882.986,-514.773"/>
<polygon fill="#169b5a" stroke="#169b5a" points="882.167,-518.186 892.758,-517.914 884.308,-511.522 882.167,-518.186"/>
<text text-anchor="middle" x="819" y="-504.8" font-family="Times,serif" font-size="14.00">15</text>
</g>
<!-- FloraMexico.MexicanOakSpecies2&#45;&gt;FloraChina.OakGenus\nFloraMexico.OakGenus -->
<g id="edge37" class="edge"><title>FloraMexico.MexicanOakSpecies2&#45;&gt;FloraChina.OakGenus\nFloraMexico.OakGenus</title>
<path fill="none" stroke="#fa450f" d="M499.694,-505.604C414.845,-502.48 309.086,-487.156 228,-438 173.299,-404.839 135.811,-336.923 117.957,-298.372"/>
<polygon fill="#fa450f" stroke="#fa450f" points="121.142,-296.921 113.843,-289.242 114.761,-299.797 121.142,-296.921"/>
<text text-anchor="middle" x="352" y="-504.8" font-family="Times,serif" font-size="14.00">5</text>
</g>
<!-- FloraMexico.MexicanOakSpecies2&#45;&gt;FloraChina.ChineseOakSpecies2\nFloraMexico.OakGenus -->
<g id="edge18" class="edge"><title>FloraMexico.MexicanOakSpecies2&#45;&gt;FloraChina.ChineseOakSpecies2\nFloraMexico.OakGenus</title>
<path fill="none" stroke="#da8601" d="M508.384,-508.533C494.078,-512.967 480.297,-518.963 468,-527 411.639,-563.838 377.653,-638.955 362.461,-680.235"/>
<polygon fill="#da8601" stroke="#da8601" points="359.143,-679.121 359.085,-689.716 365.737,-681.47 359.143,-679.121"/>
<text text-anchor="middle" x="475" y="-530.8" font-family="Times,serif" font-size="14.00">1</text>
</g>
<!-- FloraMexico.MexicanOakSpecies2&#45;&gt;FloraChina.ChineseOakSpecies1\nFloraMexico.OakGenus -->
<g id="edge20" class="edge"><title>FloraMexico.MexicanOakSpecies2&#45;&gt;FloraChina.ChineseOakSpecies1\nFloraMexico.OakGenus</title>
<path fill="none" stroke="#da8601" d="M620.765,-481.828C568.373,-444.098 447.712,-357.206 387.908,-314.138"/>
<polygon fill="#da8601" stroke="#da8601" points="389.701,-311.117 379.541,-308.113 385.61,-316.797 389.701,-311.117"/>
<text text-anchor="middle" x="475" y="-384.8" font-family="Times,serif" font-size="14.00">1</text>
</g>
<!-- FloraMexico.MexicanOakSpecies2&#45;&gt;FloraMexico.OakGenus -->
<g id="edge36" class="edge"><title>FloraMexico.MexicanOakSpecies2&#45;&gt;FloraMexico.OakGenus</title>
<path fill="none" stroke="#6a231b" d="M658.174,-518.23C683.561,-562.019 754.171,-673.796 844,-732 935.607,-791.356 986.098,-744.345 1080,-800 1122.09,-824.949 1159.92,-868.014 1181.67,-895.736"/>
<polygon fill="#6a231b" stroke="#6a231b" points="1179.01,-898.024 1187.89,-903.81 1184.56,-893.752 1179.01,-898.024"/>
<text text-anchor="middle" x="942" y="-783.8" font-family="Times,serif" font-size="14.00">143</text>
</g>
<!-- FloraMexico.OakGenus&#45;&gt;FloraChina.OakGenus -->
<g id="edge32" class="edge"><title>FloraMexico.OakGenus&#45;&gt;FloraChina.OakGenus</title>
<path fill="none" stroke="#1a9557" d="M1274.23,-908.976C1302.18,-904.033 1334.55,-898.512 1364,-894 1494.29,-874.037 1531.51,-892.074 1658,-855 1673.07,-850.582 1678.81,-851.026 1690,-840 1703.02,-827.163 1698.64,-818.713 1708,-803 1722.4,-778.819 1741.16,-752.943 1755.33,-734.313"/>
<polygon fill="#1a9557" stroke="#1a9557" points="1758.18,-736.358 1761.49,-726.295 1752.62,-732.096 1758.18,-736.358"/>
<text text-anchor="middle" x="1511" y="-897.8" font-family="Times,serif" font-size="14.00">21</text>
</g>
<!-- FloraMexico.OakGenus&#45;&gt;FloraChina.ChineseOakSpecies1 -->
<g id="edge15" class="edge"><title>FloraMexico.OakGenus&#45;&gt;FloraChina.ChineseOakSpecies1</title>
<path fill="none" stroke="#da8601" d="M1097.72,-929.286C1091.73,-929.567 1085.79,-929.809 1080,-930 1070.23,-930.323 1067.78,-930.137 1058,-930 809.795,-926.521 744.93,-946.335 500,-906 472.182,-901.419 442.093,-893.563 416.427,-885.946"/>
<polygon fill="#da8601" stroke="#da8601" points="417.405,-882.585 406.82,-883.045 415.382,-889.286 417.405,-882.585"/>
<text text-anchor="middle" x="819" y="-934.8" font-family="Times,serif" font-size="14.00">1</text>
</g>
<!-- FloraMexico.OakGenus&#45;&gt;FloraChina.ChineseOakSpecies2 -->
<g id="edge13" class="edge"><title>FloraMexico.OakGenus&#45;&gt;FloraChina.ChineseOakSpecies2</title>
<path fill="none" stroke="#da8601" d="M1195.4,-903.914C1181.11,-859.546 1140.1,-742.968 1080,-661 1050.5,-620.77 1006.53,-583.45 976.407,-560.254"/>
<polygon fill="#da8601" stroke="#da8601" points="978.381,-557.358 968.302,-554.095 974.146,-562.932 978.381,-557.358"/>
<text text-anchor="middle" x="1069" y="-664.8" font-family="Times,serif" font-size="14.00">1</text>
</g>
<!-- Legend -->
<g id="node16" class="node"><title>Legend</title>
<polygon fill="white" stroke="black" points="2224,-150.5 2118,-150.5 2118,0.5 2224,0.5 2224,-150.5"/>
<polygon fill="none" stroke="black" points="2118,-124 2118,-150 2224,-150 2224,-124 2118,-124"/>
<text text-anchor="start" x="2146.5" y="-133.3" font-family="Arial Black" font-size="14.00"> Nodes</text>
<polygon fill="#ccffcc" stroke="none" points="2118,-99 2118,-124 2200,-124 2200,-99 2118,-99"/>
<polygon fill="none" stroke="black" points="2118,-99 2118,-124 2200,-124 2200,-99 2118,-99"/>
<text text-anchor="start" x="2128.5" y="-107.8" font-family="Times,serif" font-size="14.00">FloraChina</text>
<polygon fill="none" stroke="black" points="2200,-99 2200,-124 2224,-124 2224,-99 2200,-99"/>
<text text-anchor="start" x="2208.5" y="-107.8" font-family="Times,serif" font-size="14.00">3</text>
<polygon fill="#eeeeee" stroke="none" points="2118,-74 2118,-99 2200,-99 2200,-74 2118,-74"/>
<polygon fill="none" stroke="black" points="2118,-74 2118,-99 2200,-99 2200,-74 2118,-74"/>
<text text-anchor="start" x="2143.5" y="-82.8" font-family="Times,serif" font-size="14.00">comb</text>
<polygon fill="none" stroke="black" points="2200,-74 2200,-99 2224,-99 2224,-74 2200,-74"/>
<text text-anchor="start" x="2208.5" y="-82.8" font-family="Times,serif" font-size="14.00">9</text>
<polygon fill="#ffffcc" stroke="none" points="2118,-49 2118,-74 2200,-74 2200,-49 2118,-49"/>
<polygon fill="none" stroke="black" points="2118,-49 2118,-74 2200,-74 2200,-49 2118,-49"/>
<text text-anchor="start" x="2123.5" y="-57.8" font-family="Times,serif" font-size="14.00">FloraMexico</text>
<polygon fill="none" stroke="black" points="2200,-49 2200,-74 2224,-74 2224,-49 2200,-49"/>
<text text-anchor="start" x="2208.5" y="-57.8" font-family="Times,serif" font-size="14.00">3</text>
<polygon fill="none" stroke="black" points="2118,-24 2118,-49 2224,-49 2224,-24 2118,-24"/>
<text text-anchor="start" x="2145" y="-32.8" font-family="Arial Black" font-size="14.00"> Edges </text>
<polygon fill="none" stroke="black" points="2118,1 2118,-24 2200,-24 2200,1 2118,1"/>
<text text-anchor="start" x="2140" y="-7.8" font-family="Times,serif" font-size="14.00" fill="#000000">default</text>
<polygon fill="none" stroke="black" points="2200,1 2200,-24 2224,-24 2224,1 2200,1"/>
<text text-anchor="start" x="2205" y="-7.8" font-family="Times,serif" font-size="14.00">50</text>
</g>
</g>
</svg>
