<?xml version="1.0" encoding="UTF-8" standalone="no"?>
<!DOCTYPE svg PUBLIC "-//W3C//DTD SVG 1.1//EN"
 "http://www.w3.org/Graphics/SVG/1.1/DTD/svg11.dtd">
<!-- Generated by graphviz version 2.36.0 (20140111.2315)
 -->
<!-- Title: %3 Pages: 1 -->
<svg width="1090pt" height="377pt"
 viewBox="0.00 0.00 1090.00 377.00" xmlns="http://www.w3.org/2000/svg" xmlns:xlink="http://www.w3.org/1999/xlink">
<g id="graph0" class="graph" transform="scale(1 1) rotate(0) translate(4 373)">
<title>%3</title>
<polygon fill="white" stroke="none" points="-4,4 -4,-373 1086,-373 1086,4 -4,4"/>
<!-- FloraChina.ChineseOakSpecies1 -->
<g id="node1" class="node"><title>FloraChina.ChineseOakSpecies1</title>
<polygon fill="#ccffcc" stroke="black" points="1031.5,-306 836.5,-306 836.5,-270 1031.5,-270 1031.5,-306"/>
<text text-anchor="middle" x="934" y="-284.3" font-family="Times,serif" font-size="14.00">FloraChina.ChineseOakSpecies1</text>
</g>
<!-- FloraChina.OakGenus\nFloraMexico.MexicanOakSpecies1 -->
<g id="node3" class="node"><title>FloraChina.OakGenus\nFloraMexico.MexicanOakSpecies1</title>
<path fill="#eeeeee" stroke="black" d="M729.5,-171C729.5,-171 544.5,-171 544.5,-171 538.5,-171 532.5,-165 532.5,-159 532.5,-159 532.5,-145 532.5,-145 532.5,-139 538.5,-133 544.5,-133 544.5,-133 729.5,-133 729.5,-133 735.5,-133 741.5,-139 741.5,-145 741.5,-145 741.5,-159 741.5,-159 741.5,-165 735.5,-171 729.5,-171"/>
<text text-anchor="middle" x="637" y="-155.8" font-family="Times,serif" font-size="14.00">FloraChina.OakGenus</text>
<text text-anchor="middle" x="637" y="-140.8" font-family="Times,serif" font-size="14.00">FloraMexico.MexicanOakSpecies1</text>
</g>
<!-- FloraChina.ChineseOakSpecies1&#45;&gt;FloraChina.OakGenus\nFloraMexico.MexicanOakSpecies1 -->
<g id="edge2" class="edge"><title>FloraChina.ChineseOakSpecies1&#45;&gt;FloraChina.OakGenus\nFloraMexico.MexicanOakSpecies1</title>
<path fill="none" stroke="#12a05c" d="M906.263,-269.995C870.291,-246.461 803.688,-205.271 742,-180 737.025,-177.962 731.857,-176.029 726.6,-174.202"/>
<polygon fill="#12a05c" stroke="#12a05c" points="727.659,-170.866 717.065,-171.03 725.449,-177.508 727.659,-170.866"/>
<text text-anchor="middle" x="764" y="-192.8" font-family="Times,serif" font-size="14.00">1</text>
</g>
<!-- FloraChina.OakGenus\nFloraMexico.OakGenus -->
<g id="node4" class="node"><title>FloraChina.OakGenus\nFloraMexico.OakGenus</title>
<path fill="#eeeeee" stroke="black" d="M136,-70C136,-70 12,-70 12,-70 6,-70 0,-64 0,-58 0,-58 0,-44 0,-44 0,-38 6,-32 12,-32 12,-32 136,-32 136,-32 142,-32 148,-38 148,-44 148,-44 148,-58 148,-58 148,-64 142,-70 136,-70"/>
<text text-anchor="middle" x="74" y="-54.8" font-family="Times,serif" font-size="14.00">FloraChina.OakGenus</text>
<text text-anchor="middle" x="74" y="-39.8" font-family="Times,serif" font-size="14.00">FloraMexico.OakGenus</text>
</g>
<!-- FloraChina.ChineseOakSpecies1&#45;&gt;FloraChina.OakGenus\nFloraMexico.OakGenus -->
<g id="edge3" class="edge"><title>FloraChina.ChineseOakSpecies1&#45;&gt;FloraChina.OakGenus\nFloraMexico.OakGenus</title>
<path fill="none" stroke="#12a05c" d="M870.822,-306.081C833.774,-315.907 785.615,-327.041 742,-332 495.89,-359.981 390.679,-389.919 192,-242 135.522,-199.951 100.405,-121.831 84.6872,-79.7033"/>
<polygon fill="#12a05c" stroke="#12a05c" points="87.8897,-78.2675 81.1936,-70.057 81.3081,-80.6512 87.8897,-78.2675"/>
<text text-anchor="middle" x="510" y="-357.8" font-family="Times,serif" font-size="14.00">1</text>
</g>
<!-- FloraChina.OakGenus\n\nFloraMexico.MexicanOakSpecies1\n\nFloraMexico.OakGenus\n\n -->
<g id="node6" class="node"><title>FloraChina.OakGenus\n\nFloraMexico.MexicanOakSpecies1\n\nFloraMexico.OakGenus\n\n</title>
<ellipse fill="#00bfff" stroke="black" cx="340" cy="-162" rx="147.571" ry="71.3357"/>
<text text-anchor="middle" x="340" y="-197.3" font-family="Times,serif" font-size="14.00">FloraChina.OakGenus</text>
<text text-anchor="middle" x="340" y="-166.3" font-family="Times,serif" font-size="14.00">FloraMexico.MexicanOakSpecies1</text>
<text text-anchor="middle" x="340" y="-135.3" font-family="Times,serif" font-size="14.00">FloraMexico.OakGenus</text>
</g>
<!-- FloraChina.ChineseOakSpecies1&#45;&gt;FloraChina.OakGenus\n\nFloraMexico.MexicanOakSpecies1\n\nFloraMexico.OakGenus\n\n -->
<g id="edge1" class="edge"><title>FloraChina.ChineseOakSpecies1&#45;&gt;FloraChina.OakGenus\n\nFloraMexico.MexicanOakSpecies1\n\nFloraMexico.OakGenus\n\n</title>
<path fill="none" stroke="#6a241b" d="M836.169,-282C754.18,-275.367 634.046,-261.98 532,-236 508.299,-229.966 483.547,-221.833 460.02,-213.165"/>
<polygon fill="#6a241b" stroke="#6a241b" points="460.964,-209.781 450.372,-209.556 458.511,-216.337 460.964,-209.781"/>
<text text-anchor="middle" x="637" y="-275.8" font-family="Times,serif" font-size="14.00">15</text>
</g>
<!-- FloraChina.ChineseOakSpecies1&#45;&gt;FloraChina.OakGenus\n\nFloraMexico.MexicanOakSpecies1\n\nFloraMexico.OakGenus\n\n -->
<g id="edge4" class="edge"><title>FloraChina.ChineseOakSpecies1&#45;&gt;FloraChina.OakGenus\n\nFloraMexico.MexicanOakSpecies1\n\nFloraMexico.OakGenus\n\n</title>
<path fill="none" stroke="#701b17" d="M836.281,-304.68C753.573,-315.216 632.357,-321.716 532,-291 491.612,-278.639 452.058,-254.54 419.517,-230.484"/>
<polygon fill="#701b17" stroke="#701b17" points="421.493,-227.592 411.398,-224.377 417.285,-233.185 421.493,-227.592"/>
<text text-anchor="middle" x="637" y="-316.8" font-family="Times,serif" font-size="14.00">16</text>
</g>
<!-- FloraChina.ChineseOakSpecies2\nFloraMexico.MexicanOakSpecies2 -->
<g id="node2" class="node"><title>FloraChina.ChineseOakSpecies2\nFloraMexico.MexicanOakSpecies2</title>
<path fill="#eeeeee" stroke="black" d="M729.5,-227C729.5,-227 544.5,-227 544.5,-227 538.5,-227 532.5,-221 532.5,-215 532.5,-215 532.5,-201 532.5,-201 532.5,-195 538.5,-189 544.5,-189 544.5,-189 729.5,-189 729.5,-189 735.5,-189 741.5,-195 741.5,-201 741.5,-201 741.5,-215 741.5,-215 741.5,-221 735.5,-227 729.5,-227"/>
<text text-anchor="middle" x="637" y="-211.8" font-family="Times,serif" font-size="14.00">FloraChina.ChineseOakSpecies2</text>
<text text-anchor="middle" x="637" y="-196.8" font-family="Times,serif" font-size="14.00">FloraMexico.MexicanOakSpecies2</text>
</g>
<!-- FloraChina.ChineseOakSpecies2\nFloraMexico.MexicanOakSpecies2&#45;&gt;FloraChina.OakGenus\n\nFloraMexico.MexicanOakSpecies1\n\nFloraMexico.OakGenus\n\n -->
<g id="edge8" class="edge"><title>FloraChina.ChineseOakSpecies2\nFloraMexico.MexicanOakSpecies2&#45;&gt;FloraChina.OakGenus\n\nFloraMexico.MexicanOakSpecies1\n\nFloraMexico.OakGenus\n\n</title>
<path fill="none" stroke="#12a05c" d="M532.266,-200.393C523.366,-199.385 514.515,-198.258 506,-197 498.93,-195.955 491.708,-194.791 484.428,-193.541"/>
<polygon fill="#12a05c" stroke="#12a05c" points="484.929,-190.075 474.473,-191.785 483.713,-196.969 484.929,-190.075"/>
<text text-anchor="middle" x="510" y="-200.8" font-family="Times,serif" font-size="14.00">1</text>
</g>
<!-- FloraChina.ChineseOakSpecies2\nFloraMexico.MexicanOakSpecies2&#45;&gt;FloraChina.OakGenus\n\nFloraMexico.MexicanOakSpecies1\n\nFloraMexico.OakGenus\n\n -->
<g id="edge9" class="edge"><title>FloraChina.ChineseOakSpecies2\nFloraMexico.MexicanOakSpecies2&#45;&gt;FloraChina.OakGenus\n\nFloraMexico.MexicanOakSpecies1\n\nFloraMexico.OakGenus\n\n</title>
<path fill="none" stroke="#12a05c" d="M566.374,-188.985C549.345,-184.86 531.1,-180.877 514,-178 508.188,-177.022 502.256,-176.101 496.255,-175.232"/>
<polygon fill="#12a05c" stroke="#12a05c" points="496.487,-171.731 486.1,-173.82 495.523,-178.664 496.487,-171.731"/>
<text text-anchor="middle" x="510" y="-181.8" font-family="Times,serif" font-size="14.00">1</text>
</g>
<!-- FloraChina.OakGenus\nFloraMexico.MexicanOakSpecies1&#45;&gt;FloraChina.OakGenus\n\nFloraMexico.MexicanOakSpecies1\n\nFloraMexico.OakGenus\n\n -->
<g id="edge10" class="edge"><title>FloraChina.OakGenus\nFloraMexico.MexicanOakSpecies1&#45;&gt;FloraChina.OakGenus\n\nFloraMexico.MexicanOakSpecies1\n\nFloraMexico.OakGenus\n\n</title>
<path fill="none" stroke="#12a05c" d="M532.194,-144.729C526.04,-144.442 519.94,-144.195 514,-144 507.308,-143.781 500.478,-143.735 493.584,-143.833"/>
<polygon fill="#12a05c" stroke="#12a05c" points="493.357,-140.337 483.445,-144.078 493.526,-147.335 493.357,-140.337"/>
<text text-anchor="middle" x="510" y="-147.8" font-family="Times,serif" font-size="14.00">1</text>
</g>
<!-- FloraChina.ChineseOakSpecies2\n\nFloraMexico.MexicanOakSpecies2\n\n -->
<g id="node5" class="node"><title>FloraChina.ChineseOakSpecies2\n\nFloraMexico.MexicanOakSpecies2\n\n</title>
<ellipse fill="#00bfff" stroke="black" cx="934" cy="-49" rx="147.571" ry="49.4949"/>
<text text-anchor="middle" x="934" y="-68.8" font-family="Times,serif" font-size="14.00">FloraChina.ChineseOakSpecies2</text>
<text text-anchor="middle" x="934" y="-37.8" font-family="Times,serif" font-size="14.00">FloraMexico.MexicanOakSpecies2</text>
</g>
<!-- FloraChina.ChineseOakSpecies2\n\nFloraMexico.MexicanOakSpecies2\n\n&#45;&gt;FloraChina.OakGenus\nFloraMexico.MexicanOakSpecies1 -->
<g id="edge6" class="edge"><title>FloraChina.ChineseOakSpecies2\n\nFloraMexico.MexicanOakSpecies2\n\n&#45;&gt;FloraChina.OakGenus\nFloraMexico.MexicanOakSpecies1</title>
<path fill="none" stroke="#12a05c" d="M840.18,-87.2726C816.777,-96.4497 791.594,-105.923 768,-114 751.728,-119.57 734.142,-125.06 717.321,-130.06"/>
<polygon fill="#12a05c" stroke="#12a05c" points="716.126,-126.763 707.521,-132.944 718.102,-133.478 716.126,-126.763"/>
<text text-anchor="middle" x="764" y="-119.8" font-family="Times,serif" font-size="14.00">1</text>
</g>
<!-- FloraChina.ChineseOakSpecies2\n\nFloraMexico.MexicanOakSpecies2\n\n&#45;&gt;FloraChina.OakGenus\nFloraMexico.OakGenus -->
<g id="edge7" class="edge"><title>FloraChina.ChineseOakSpecies2\n\nFloraMexico.MexicanOakSpecies2\n\n&#45;&gt;FloraChina.OakGenus\nFloraMexico.OakGenus</title>
<path fill="none" stroke="#12a05c" d="M796.69,-30.6983C786.991,-29.6891 777.353,-28.7735 768,-28 756.475,-27.0468 753.562,-27.2223 742,-27 648.684,-25.2061 625.301,-24.5518 532,-27 401.287,-30.4299 249.76,-39.3692 158.206,-45.3163"/>
<polygon fill="#12a05c" stroke="#12a05c" points="157.917,-41.8276 148.167,-45.972 158.374,-48.8127 157.917,-41.8276"/>
<text text-anchor="middle" x="510" y="-30.8" font-family="Times,serif" font-size="14.00">1</text>
</g>
<!-- FloraChina.ChineseOakSpecies2\n\nFloraMexico.MexicanOakSpecies2\n\n&#45;&gt;FloraChina.OakGenus\nFloraMexico.OakGenus -->
<g id="edge12" class="edge"><title>FloraChina.ChineseOakSpecies2\n\nFloraMexico.MexicanOakSpecies2\n\n&#45;&gt;FloraChina.OakGenus\nFloraMexico.OakGenus</title>
<path fill="none" stroke="#12a05c" d="M801.189,-27.2735C789.978,-25.7162 778.801,-24.2644 768,-23 756.489,-21.6525 753.564,-21.7744 742,-21 498.098,-4.66743 434.095,9.8339 192,-24 180.982,-25.5398 169.473,-27.611 158.157,-29.9251"/>
<polygon fill="#12a05c" stroke="#12a05c" points="157.339,-26.5207 148.279,-32.014 158.787,-33.3692 157.339,-26.5207"/>
<text text-anchor="middle" x="510" y="-9.8" font-family="Times,serif" font-size="14.00">1</text>
</g>
<!-- FloraChina.ChineseOakSpecies2\n\nFloraMexico.MexicanOakSpecies2\n\n&#45;&gt;FloraChina.OakGenus\n\nFloraMexico.MexicanOakSpecies1\n\nFloraMexico.OakGenus\n\n -->
<g id="edge5" class="edge"><title>FloraChina.ChineseOakSpecies2\n\nFloraMexico.MexicanOakSpecies2\n\n&#45;&gt;FloraChina.OakGenus\n\nFloraMexico.MexicanOakSpecies1\n\nFloraMexico.OakGenus\n\n</title>
<path fill="none" stroke="#632d20" d="M794.453,-65.4874C716.86,-75.7808 618.582,-90.5819 532,-109 513.799,-112.872 494.765,-117.473 476.062,-122.322"/>
<polygon fill="#632d20" stroke="#632d20" points="475.103,-118.955 466.318,-124.878 476.879,-125.726 475.103,-118.955"/>
<text text-anchor="middle" x="637" y="-112.8" font-family="Times,serif" font-size="14.00">14</text>
</g>
<!-- FloraChina.ChineseOakSpecies2\n\nFloraMexico.MexicanOakSpecies2\n\n&#45;&gt;FloraChina.OakGenus\n\nFloraMexico.MexicanOakSpecies1\n\nFloraMexico.OakGenus\n\n -->
<g id="edge13" class="edge"><title>FloraChina.ChineseOakSpecies2\n\nFloraMexico.MexicanOakSpecies2\n\n&#45;&gt;FloraChina.OakGenus\n\nFloraMexico.MexicanOakSpecies1\n\nFloraMexico.OakGenus\n\n</title>
<path fill="none" stroke="#6a241b" d="M793.324,-33.879C715.162,-29.5787 616.697,-31.147 532,-54 497.689,-63.2579 463.02,-80.1107 432.811,-97.7936"/>
<polygon fill="#6a241b" stroke="#6a241b" points="430.796,-94.92 424,-103.048 434.381,-100.932 430.796,-94.92"/>
<text text-anchor="middle" x="637" y="-57.8" font-family="Times,serif" font-size="14.00">15</text>
</g>
<!-- FloraChina.OakGenus\n\nFloraMexico.MexicanOakSpecies1\n\nFloraMexico.OakGenus\n\n&#45;&gt;FloraChina.OakGenus\nFloraMexico.OakGenus -->
<g id="edge11" class="edge"><title>FloraChina.OakGenus\n\nFloraMexico.MexicanOakSpecies1\n\nFloraMexico.OakGenus\n\n&#45;&gt;FloraChina.OakGenus\nFloraMexico.OakGenus</title>
<path fill="none" stroke="#12a05c" d="M228.188,-115.408C194.212,-101.123 158.313,-86.0294 129.814,-74.0469"/>
<polygon fill="#12a05c" stroke="#12a05c" points="131.021,-70.7578 120.447,-70.1082 128.308,-77.2106 131.021,-70.7578"/>
<text text-anchor="middle" x="170" y="-93.8" font-family="Times,serif" font-size="14.00">1</text>
</g>
</g>
</svg>
