<?xml version="1.0" encoding="UTF-8" standalone="no"?>
<!DOCTYPE svg PUBLIC "-//W3C//DTD SVG 1.1//EN"
 "http://www.w3.org/Graphics/SVG/1.1/DTD/svg11.dtd">
<!-- Generated by graphviz version 2.36.0 (20140111.2315)
 -->
<!-- Title: %3 Pages: 1 -->
<svg width="1484pt" height="564pt"
 viewBox="0.00 0.00 1484.00 564.00" xmlns="http://www.w3.org/2000/svg" xmlns:xlink="http://www.w3.org/1999/xlink">
<g id="graph0" class="graph" transform="scale(1 1) rotate(0) translate(4 560)">
<title>%3</title>
<polygon fill="white" stroke="none" points="-4,4 -4,-560 1480,-560 1480,4 -4,4"/>
<!-- FloraChina.OakGenus -->
<g id="node1" class="node"><title>FloraChina.OakGenus</title>
<polygon fill="#ccffcc" stroke="black" points="1056,-407 918,-407 918,-371 1056,-371 1056,-407"/>
<text text-anchor="middle" x="987" y="-385.3" font-family="Times,serif" font-size="14.00">FloraChina.OakGenus</text>
</g>
<!-- FloraMexico.OakGenus -->
<g id="node7" class="node"><title>FloraMexico.OakGenus</title>
<polygon fill="#ffffcc" stroke="black" points="208.234,-389.544 208.234,-404.456 147.175,-415 60.8249,-415 -0.233914,-404.456 -0.233914,-389.544 60.8249,-379 147.175,-379 208.234,-389.544"/>
<text text-anchor="middle" x="104" y="-393.3" font-family="Times,serif" font-size="14.00">FloraMexico.OakGenus</text>
</g>
<!-- FloraChina.OakGenus&#45;&gt;FloraMexico.OakGenus -->
<g id="edge14" class="edge"><title>FloraChina.OakGenus&#45;&gt;FloraMexico.OakGenus</title>
<path fill="none" stroke="#2b7d4a" d="M917.758,-399.545C900.278,-401.807 881.48,-403.859 864,-405 635.191,-419.94 366.776,-410.875 218.301,-403.535"/>
<polygon fill="#2b7d4a" stroke="#2b7d4a" points="218.421,-400.037 208.258,-403.032 218.071,-407.028 218.421,-400.037"/>
<text text-anchor="middle" x="405" y="-415.8" font-family="Times,serif" font-size="14.00">5</text>
</g>
<!-- FloraMexico.MexicanOakSpecies1 -->
<g id="node8" class="node"><title>FloraMexico.MexicanOakSpecies1</title>
<polygon fill="#ffffcc" stroke="black" points="552.06,-330.544 552.06,-345.456 465.914,-356 344.086,-356 257.94,-345.456 257.94,-330.544 344.086,-320 465.914,-320 552.06,-330.544"/>
<text text-anchor="middle" x="405" y="-334.3" font-family="Times,serif" font-size="14.00">FloraMexico.MexicanOakSpecies1</text>
</g>
<!-- FloraChina.OakGenus&#45;&gt;FloraMexico.MexicanOakSpecies1 -->
<g id="edge6" class="edge"><title>FloraChina.OakGenus&#45;&gt;FloraMexico.MexicanOakSpecies1</title>
<path fill="none" stroke="#12a05c" d="M937.136,-370.954C915.108,-363.662 888.572,-356.029 864,-352 764.505,-335.687 651.268,-332.095 562.283,-332.627"/>
<polygon fill="#12a05c" stroke="#12a05c" points="562.077,-329.128 552.105,-332.706 562.132,-336.128 562.077,-329.128"/>
<text text-anchor="middle" x="717" y="-355.8" font-family="Times,serif" font-size="14.00">1</text>
</g>
<!-- FloraChina.ChineseOakSpecies1 -->
<g id="node2" class="node"><title>FloraChina.ChineseOakSpecies1</title>
<polygon fill="#ccffcc" stroke="black" points="1344.5,-305 1149.5,-305 1149.5,-269 1344.5,-269 1344.5,-305"/>
<text text-anchor="middle" x="1247" y="-283.3" font-family="Times,serif" font-size="14.00">FloraChina.ChineseOakSpecies1</text>
</g>
<!-- FloraChina.ChineseOakSpecies1&#45;&gt;FloraChina.OakGenus -->
<g id="edge10" class="edge"><title>FloraChina.ChineseOakSpecies1&#45;&gt;FloraChina.OakGenus</title>
<path fill="none" stroke="#6a241b" d="M1200.47,-305.001C1156.62,-322.337 1090.22,-348.587 1043.34,-367.121"/>
<polygon fill="#6a241b" stroke="#6a241b" points="1041.96,-363.905 1033.94,-370.836 1044.53,-370.414 1041.96,-363.905"/>
<text text-anchor="middle" x="1117" y="-341.8" font-family="Times,serif" font-size="14.00">15</text>
</g>
<!-- FloraChina.OakGenus\nFloraMexico.MexicanOakSpecies1 -->
<g id="node5" class="node"><title>FloraChina.OakGenus\nFloraMexico.MexicanOakSpecies1</title>
<path fill="#eeeeee" stroke="black" d="M1079.5,-273C1079.5,-273 894.5,-273 894.5,-273 888.5,-273 882.5,-267 882.5,-261 882.5,-261 882.5,-247 882.5,-247 882.5,-241 888.5,-235 894.5,-235 894.5,-235 1079.5,-235 1079.5,-235 1085.5,-235 1091.5,-241 1091.5,-247 1091.5,-247 1091.5,-261 1091.5,-261 1091.5,-267 1085.5,-273 1079.5,-273"/>
<text text-anchor="middle" x="987" y="-257.8" font-family="Times,serif" font-size="14.00">FloraChina.OakGenus</text>
<text text-anchor="middle" x="987" y="-242.8" font-family="Times,serif" font-size="14.00">FloraMexico.MexicanOakSpecies1</text>
</g>
<!-- FloraChina.ChineseOakSpecies1&#45;&gt;FloraChina.OakGenus\nFloraMexico.MexicanOakSpecies1 -->
<g id="edge11" class="edge"><title>FloraChina.ChineseOakSpecies1&#45;&gt;FloraChina.OakGenus\nFloraMexico.MexicanOakSpecies1</title>
<path fill="none" stroke="#12a05c" d="M1149.2,-274.618C1133.83,-272.653 1117.81,-270.604 1102.1,-268.594"/>
<polygon fill="#12a05c" stroke="#12a05c" points="1102.19,-265.077 1091.82,-267.28 1101.3,-272.02 1102.19,-265.077"/>
<text text-anchor="middle" x="1117" y="-273.8" font-family="Times,serif" font-size="14.00">1</text>
</g>
<!-- FloraChina.OakGenus\nFloraMexico.OakGenus -->
<g id="node6" class="node"><title>FloraChina.OakGenus\nFloraMexico.OakGenus</title>
<path fill="#eeeeee" stroke="black" d="M166,-114C166,-114 42,-114 42,-114 36,-114 30,-108 30,-102 30,-102 30,-88 30,-88 30,-82 36,-76 42,-76 42,-76 166,-76 166,-76 172,-76 178,-82 178,-88 178,-88 178,-102 178,-102 178,-108 172,-114 166,-114"/>
<text text-anchor="middle" x="104" y="-98.8" font-family="Times,serif" font-size="14.00">FloraChina.OakGenus</text>
<text text-anchor="middle" x="104" y="-83.8" font-family="Times,serif" font-size="14.00">FloraMexico.OakGenus</text>
</g>
<!-- FloraChina.ChineseOakSpecies1&#45;&gt;FloraChina.OakGenus\nFloraMexico.OakGenus -->
<g id="edge4" class="edge"><title>FloraChina.ChineseOakSpecies1&#45;&gt;FloraChina.OakGenus\nFloraMexico.OakGenus</title>
<path fill="none" stroke="#12a05c" d="M1234.89,-268.608C1216.17,-239.533 1175.3,-183.815 1124,-160 1113.41,-155.085 429.825,-114.22 188.355,-99.9192"/>
<polygon fill="#12a05c" stroke="#12a05c" points="188.417,-96.4168 178.227,-99.3196 188.003,-103.405 188.417,-96.4168"/>
<text text-anchor="middle" x="717" y="-143.8" font-family="Times,serif" font-size="14.00">1</text>
</g>
<!-- FloraChina.ChineseOakSpecies1&#45;&gt;FloraMexico.MexicanOakSpecies1 -->
<g id="edge8" class="edge"><title>FloraChina.ChineseOakSpecies1&#45;&gt;FloraMexico.MexicanOakSpecies1</title>
<path fill="none" stroke="#701b17" d="M1149.45,-292.846C1018.27,-300.791 776.407,-315.448 570,-328 564.882,-328.311 559.673,-328.628 554.413,-328.948"/>
<polygon fill="#701b17" stroke="#701b17" points="554.012,-325.466 544.243,-329.567 554.437,-332.453 554.012,-325.466"/>
<text text-anchor="middle" x="987" y="-311.8" font-family="Times,serif" font-size="14.00">16</text>
</g>
<!-- FloraChina.ChineseOakSpecies2 -->
<g id="node3" class="node"><title>FloraChina.ChineseOakSpecies2</title>
<polygon fill="#ccffcc" stroke="black" points="1344.5,-93 1149.5,-93 1149.5,-57 1344.5,-57 1344.5,-93"/>
<text text-anchor="middle" x="1247" y="-71.3" font-family="Times,serif" font-size="14.00">FloraChina.ChineseOakSpecies2</text>
</g>
<!-- FloraChina.ChineseOakSpecies2&#45;&gt;FloraChina.OakGenus -->
<g id="edge9" class="edge"><title>FloraChina.ChineseOakSpecies2&#45;&gt;FloraChina.OakGenus</title>
<path fill="none" stroke="#632d20" d="M1227.77,-93.3481C1198.69,-123.617 1141.85,-187.054 1110,-251 1096.45,-278.216 1109.56,-292.179 1092,-317 1077.58,-337.379 1055.46,-353.857 1035.32,-365.879"/>
<polygon fill="#632d20" stroke="#632d20" points="1033.47,-362.906 1026.54,-370.922 1036.96,-368.976 1033.47,-362.906"/>
<text text-anchor="middle" x="1117" y="-254.8" font-family="Times,serif" font-size="14.00">14</text>
</g>
<!-- FloraChina.ChineseOakSpecies2&#45;&gt;FloraChina.OakGenus\nFloraMexico.MexicanOakSpecies1 -->
<g id="edge15" class="edge"><title>FloraChina.ChineseOakSpecies2&#45;&gt;FloraChina.OakGenus\nFloraMexico.MexicanOakSpecies1</title>
<path fill="none" stroke="#12a05c" d="M1219.84,-93.1485C1173.36,-125.395 1076.34,-192.707 1023.75,-229.199"/>
<polygon fill="#12a05c" stroke="#12a05c" points="1021.61,-226.419 1015.39,-234.995 1025.6,-232.171 1021.61,-226.419"/>
<text text-anchor="middle" x="1117" y="-167.8" font-family="Times,serif" font-size="14.00">1</text>
</g>
<!-- FloraChina.ChineseOakSpecies2&#45;&gt;FloraChina.OakGenus\nFloraMexico.OakGenus -->
<g id="edge3" class="edge"><title>FloraChina.ChineseOakSpecies2&#45;&gt;FloraChina.OakGenus\nFloraMexico.OakGenus</title>
<path fill="none" stroke="#12a05c" d="M1204.14,-56.9902C1173.7,-45.1312 1131.14,-31.0705 1092,-27 722.855,11.3947 624.46,-10.2663 258,-69 235.289,-72.64 210.711,-76.7435 188.037,-80.5967"/>
<polygon fill="#12a05c" stroke="#12a05c" points="187.378,-77.1584 178.108,-82.2885 188.554,-84.0589 187.378,-77.1584"/>
<text text-anchor="middle" x="717" y="-25.8" font-family="Times,serif" font-size="14.00">1</text>
</g>
<!-- FloraMexico.MexicanOakSpecies2 -->
<g id="node9" class="node"><title>FloraMexico.MexicanOakSpecies2</title>
<polygon fill="#ffffcc" stroke="black" points="864.06,-56.5442 864.06,-71.4558 777.914,-82 656.086,-82 569.94,-71.4558 569.94,-56.5442 656.086,-46 777.914,-46 864.06,-56.5442"/>
<text text-anchor="middle" x="717" y="-60.3" font-family="Times,serif" font-size="14.00">FloraMexico.MexicanOakSpecies2</text>
</g>
<!-- FloraChina.ChineseOakSpecies2&#45;&gt;FloraMexico.MexicanOakSpecies2 -->
<g id="edge20" class="edge"><title>FloraChina.ChineseOakSpecies2&#45;&gt;FloraMexico.MexicanOakSpecies2</title>
<path fill="none" stroke="#12a05c" d="M1149.46,-72.9888C1072.67,-71.389 963.684,-69.1184 874.461,-67.2596"/>
<polygon fill="#12a05c" stroke="#12a05c" points="874.307,-63.7557 864.237,-67.0466 874.162,-70.7542 874.307,-63.7557"/>
<text text-anchor="middle" x="1117" y="-76.8" font-family="Times,serif" font-size="14.00">1</text>
</g>
<!-- FloraChina.ChineseOakSpecies2\nFloraMexico.MexicanOakSpecies2 -->
<g id="node4" class="node"><title>FloraChina.ChineseOakSpecies2\nFloraMexico.MexicanOakSpecies2</title>
<path fill="#eeeeee" stroke="black" d="M1339.5,-506C1339.5,-506 1154.5,-506 1154.5,-506 1148.5,-506 1142.5,-500 1142.5,-494 1142.5,-494 1142.5,-480 1142.5,-480 1142.5,-474 1148.5,-468 1154.5,-468 1154.5,-468 1339.5,-468 1339.5,-468 1345.5,-468 1351.5,-474 1351.5,-480 1351.5,-480 1351.5,-494 1351.5,-494 1351.5,-500 1345.5,-506 1339.5,-506"/>
<text text-anchor="middle" x="1247" y="-490.8" font-family="Times,serif" font-size="14.00">FloraChina.ChineseOakSpecies2</text>
<text text-anchor="middle" x="1247" y="-475.8" font-family="Times,serif" font-size="14.00">FloraMexico.MexicanOakSpecies2</text>
</g>
<!-- FloraChina.ChineseOakSpecies2\nFloraMexico.MexicanOakSpecies2&#45;&gt;FloraChina.OakGenus -->
<g id="edge13" class="edge"><title>FloraChina.ChineseOakSpecies2\nFloraMexico.MexicanOakSpecies2&#45;&gt;FloraChina.OakGenus</title>
<path fill="none" stroke="#12a05c" d="M1195.95,-467.988C1152.72,-451.567 1090.27,-427.845 1045.1,-410.688"/>
<polygon fill="#12a05c" stroke="#12a05c" points="1046.32,-407.41 1035.73,-407.131 1043.84,-413.954 1046.32,-407.41"/>
<text text-anchor="middle" x="1117" y="-441.8" font-family="Times,serif" font-size="14.00">1</text>
</g>
<!-- FloraChina.ChineseOakSpecies2\nFloraMexico.MexicanOakSpecies2&#45;&gt;FloraMexico.OakGenus -->
<g id="edge18" class="edge"><title>FloraChina.ChineseOakSpecies2\nFloraMexico.MexicanOakSpecies2&#45;&gt;FloraMexico.OakGenus</title>
<path fill="none" stroke="#12a05c" d="M1142.19,-505.533C959.408,-534.188 569.969,-577.377 258,-490 210.596,-476.723 163.291,-444.283 134.103,-421.469"/>
<polygon fill="#12a05c" stroke="#12a05c" points="136.009,-418.514 126.006,-415.023 131.649,-423.99 136.009,-418.514"/>
<text text-anchor="middle" x="717" y="-544.8" font-family="Times,serif" font-size="14.00">1</text>
</g>
<!-- FloraChina.OakGenus\nFloraMexico.MexicanOakSpecies1&#45;&gt;FloraMexico.OakGenus -->
<g id="edge17" class="edge"><title>FloraChina.OakGenus\nFloraMexico.MexicanOakSpecies1&#45;&gt;FloraMexico.OakGenus</title>
<path fill="none" stroke="#12a05c" d="M882.478,-243.43C738.4,-232.376 471.117,-225.246 258,-296 209.405,-312.133 161.465,-347.876 132.547,-372.21"/>
<polygon fill="#12a05c" stroke="#12a05c" points="130.232,-369.584 124.91,-378.746 134.784,-374.903 130.232,-369.584"/>
<text text-anchor="middle" x="405" y="-299.8" font-family="Times,serif" font-size="14.00">1</text>
</g>
<!-- FloraMexico.OakGenus&#45;&gt;FloraChina.OakGenus -->
<g id="edge7" class="edge"><title>FloraMexico.OakGenus&#45;&gt;FloraChina.OakGenus</title>
<path fill="none" stroke="#12a05c" d="M140.809,-415.068C164.385,-426.058 196.276,-439.241 226,-446 239.895,-449.16 243.757,-447.555 258,-448 527.204,-456.404 601.26,-505.235 864,-446 893.596,-439.328 924.537,-424.772 947.854,-412.041"/>
<polygon fill="#12a05c" stroke="#12a05c" points="949.692,-415.023 956.715,-407.09 946.278,-408.912 949.692,-415.023"/>
<text text-anchor="middle" x="405" y="-474.8" font-family="Times,serif" font-size="14.00">1</text>
</g>
<!-- FloraMexico.MexicanOakSpecies1&#45;&gt;FloraChina.OakGenus -->
<g id="edge16" class="edge"><title>FloraMexico.MexicanOakSpecies1&#45;&gt;FloraChina.OakGenus</title>
<path fill="none" stroke="#1f8e53" d="M484.129,-353.823C511.216,-358.774 541.848,-363.779 570,-367 687.089,-380.398 823.67,-385.653 907.485,-387.703"/>
<polygon fill="#1f8e53" stroke="#1f8e53" points="907.613,-391.207 917.692,-387.944 907.778,-384.209 907.613,-391.207"/>
<text text-anchor="middle" x="717" y="-389.8" font-family="Times,serif" font-size="14.00">3</text>
</g>
<!-- FloraMexico.MexicanOakSpecies1&#45;&gt;FloraChina.OakGenus\nFloraMexico.OakGenus -->
<g id="edge1" class="edge"><title>FloraMexico.MexicanOakSpecies1&#45;&gt;FloraChina.OakGenus\nFloraMexico.OakGenus</title>
<path fill="none" stroke="#12a05c" d="M348.542,-319.962C319.868,-309.048 285.266,-293.293 258,-273 199.894,-229.754 148.717,-160.748 122.859,-122.604"/>
<polygon fill="#12a05c" stroke="#12a05c" points="125.608,-120.418 117.138,-114.054 119.791,-124.311 125.608,-120.418"/>
<text text-anchor="middle" x="233" y="-260.8" font-family="Times,serif" font-size="14.00">1</text>
</g>
<!-- FloraMexico.MexicanOakSpecies1&#45;&gt;FloraMexico.OakGenus -->
<g id="edge2" class="edge"><title>FloraMexico.MexicanOakSpecies1&#45;&gt;FloraMexico.OakGenus</title>
<path fill="none" stroke="#6a241b" d="M324.658,-353.656C281.001,-362.271 227.02,-372.922 183.497,-381.511"/>
<polygon fill="#6a241b" stroke="#6a241b" points="182.66,-378.108 173.526,-383.478 184.015,-384.976 182.66,-378.108"/>
<text text-anchor="middle" x="233" y="-375.8" font-family="Times,serif" font-size="14.00">15</text>
</g>
<!-- FloraMexico.MexicanOakSpecies2&#45;&gt;FloraChina.ChineseOakSpecies2 -->
<g id="edge5" class="edge"><title>FloraMexico.MexicanOakSpecies2&#45;&gt;FloraChina.ChineseOakSpecies2</title>
<path fill="none" stroke="#2b7d4a" d="M800.074,-48.657C882.383,-35.6334 1012.56,-21.4735 1124,-38 1145.54,-41.1949 1168.55,-47.4002 1188.71,-53.8295"/>
<polygon fill="#2b7d4a" stroke="#2b7d4a" points="1187.77,-57.2038 1198.36,-56.9916 1189.95,-50.5518 1187.77,-57.2038"/>
<text text-anchor="middle" x="1117" y="-41.8" font-family="Times,serif" font-size="14.00">5</text>
</g>
<!-- FloraMexico.MexicanOakSpecies2&#45;&gt;FloraChina.OakGenus\nFloraMexico.OakGenus -->
<g id="edge19" class="edge"><title>FloraMexico.MexicanOakSpecies2&#45;&gt;FloraChina.OakGenus\nFloraMexico.OakGenus</title>
<path fill="none" stroke="#12a05c" d="M569.65,-71.4253C450.308,-77.4803 286.01,-85.8162 188.14,-90.7818"/>
<polygon fill="#12a05c" stroke="#12a05c" points="187.814,-87.2937 178.004,-91.296 188.169,-94.2847 187.814,-87.2937"/>
<text text-anchor="middle" x="405" y="-90.8" font-family="Times,serif" font-size="14.00">1</text>
</g>
<!-- FloraMexico.MexicanOakSpecies2&#45;&gt;FloraMexico.OakGenus -->
<g id="edge12" class="edge"><title>FloraMexico.MexicanOakSpecies2&#45;&gt;FloraMexico.OakGenus</title>
<path fill="none" stroke="#6a241b" d="M628.708,-78.7819C609.077,-83.2986 588.568,-88.9804 570,-96 561.44,-99.2362 560.303,-102.151 552,-106 425.282,-164.738 378.442,-146.28 258,-217 193.525,-254.858 143.29,-330.076 119.71,-370.247"/>
<polygon fill="#6a241b" stroke="#6a241b" points="116.648,-368.55 114.69,-378.962 122.714,-372.043 116.648,-368.55"/>
<text text-anchor="middle" x="405" y="-220.8" font-family="Times,serif" font-size="14.00">15</text>
</g>
<!-- Legend -->
<g id="node10" class="node"><title>Legend</title>
<polygon fill="white" stroke="black" points="1476,-150.5 1370,-150.5 1370,0.5 1476,0.5 1476,-150.5"/>
<polygon fill="none" stroke="black" points="1370,-124 1370,-150 1476,-150 1476,-124 1370,-124"/>
<text text-anchor="start" x="1398.5" y="-133.3" font-family="Arial Black" font-size="14.00"> Nodes</text>
<polygon fill="#ccffcc" stroke="none" points="1370,-99 1370,-124 1452,-124 1452,-99 1370,-99"/>
<polygon fill="none" stroke="black" points="1370,-99 1370,-124 1452,-124 1452,-99 1370,-99"/>
<text text-anchor="start" x="1380.5" y="-107.8" font-family="Times,serif" font-size="14.00">FloraChina</text>
<polygon fill="none" stroke="black" points="1452,-99 1452,-124 1476,-124 1476,-99 1452,-99"/>
<text text-anchor="start" x="1460.5" y="-107.8" font-family="Times,serif" font-size="14.00">3</text>
<polygon fill="#eeeeee" stroke="none" points="1370,-74 1370,-99 1452,-99 1452,-74 1370,-74"/>
<polygon fill="none" stroke="black" points="1370,-74 1370,-99 1452,-99 1452,-74 1370,-74"/>
<text text-anchor="start" x="1395.5" y="-82.8" font-family="Times,serif" font-size="14.00">comb</text>
<polygon fill="none" stroke="black" points="1452,-74 1452,-99 1476,-99 1476,-74 1452,-74"/>
<text text-anchor="start" x="1460.5" y="-82.8" font-family="Times,serif" font-size="14.00">3</text>
<polygon fill="#ffffcc" stroke="none" points="1370,-49 1370,-74 1452,-74 1452,-49 1370,-49"/>
<polygon fill="none" stroke="black" points="1370,-49 1370,-74 1452,-74 1452,-49 1370,-49"/>
<text text-anchor="start" x="1375.5" y="-57.8" font-family="Times,serif" font-size="14.00">FloraMexico</text>
<polygon fill="none" stroke="black" points="1452,-49 1452,-74 1476,-74 1476,-49 1452,-49"/>
<text text-anchor="start" x="1460.5" y="-57.8" font-family="Times,serif" font-size="14.00">3</text>
<polygon fill="none" stroke="black" points="1370,-24 1370,-49 1476,-49 1476,-24 1370,-24"/>
<text text-anchor="start" x="1397" y="-32.8" font-family="Arial Black" font-size="14.00"> Edges </text>
<polygon fill="none" stroke="black" points="1370,1 1370,-24 1452,-24 1452,1 1370,1"/>
<text text-anchor="start" x="1392" y="-7.8" font-family="Times,serif" font-size="14.00" fill="#000000">default</text>
<polygon fill="none" stroke="black" points="1452,1 1452,-24 1476,-24 1476,1 1452,1"/>
<text text-anchor="start" x="1457" y="-7.8" font-family="Times,serif" font-size="14.00">20</text>
</g>
</g>
</svg>
