<?xml version="1.0" encoding="UTF-8" standalone="no"?>
<!DOCTYPE svg PUBLIC "-//W3C//DTD SVG 1.1//EN"
 "http://www.w3.org/Graphics/SVG/1.1/DTD/svg11.dtd">
<!-- Generated by graphviz version 2.36.0 (20140111.2315)
 -->
<!-- Title: %3 Pages: 1 -->
<svg width="926pt" height="200pt"
 viewBox="0.00 0.00 926.00 200.00" xmlns="http://www.w3.org/2000/svg" xmlns:xlink="http://www.w3.org/1999/xlink">
<g id="graph0" class="graph" transform="scale(1 1) rotate(0) translate(4 196)">
<title>%3</title>
<polygon fill="white" stroke="none" points="-4,4 -4,-196 922,-196 922,4 -4,4"/>
<!-- FloraChina.OakGenus -->
<g id="node1" class="node"><title>FloraChina.OakGenus</title>
<polygon fill="#ccffcc" stroke="black" points="468,-145 330,-145 330,-109 468,-109 468,-145"/>
<text text-anchor="middle" x="399" y="-123.3" font-family="Times,serif" font-size="14.00">FloraChina.OakGenus</text>
</g>
<!-- FloraMexico.OakGenus -->
<g id="node4" class="node"><title>FloraMexico.OakGenus</title>
<polygon fill="#ffffcc" stroke="black" points="208.234,-119.544 208.234,-134.456 147.175,-145 60.8249,-145 -0.233914,-134.456 -0.233914,-119.544 60.8249,-109 147.175,-109 208.234,-119.544"/>
<text text-anchor="middle" x="104" y="-123.3" font-family="Times,serif" font-size="14.00">FloraMexico.OakGenus</text>
</g>
<!-- FloraChina.OakGenus&#45;&gt;FloraMexico.OakGenus -->
<g id="edge5" class="edge"><title>FloraChina.OakGenus&#45;&gt;FloraMexico.OakGenus</title>
<path fill="none" stroke="#761212" d="M329.674,-127C296.674,-127 256.19,-127 218.72,-127"/>
<polygon fill="#761212" stroke="#761212" points="218.241,-123.5 208.241,-127 218.241,-130.5 218.241,-123.5"/>
<text text-anchor="middle" x="230" y="-130.8" font-family="Times,serif" font-size="14.00">1</text>
</g>
<!-- FloraChina.ChineseOakSpecies1 -->
<g id="node2" class="node"><title>FloraChina.ChineseOakSpecies1</title>
<polygon fill="#ccffcc" stroke="black" points="792.5,-93 597.5,-93 597.5,-57 792.5,-57 792.5,-93"/>
<text text-anchor="middle" x="695" y="-71.3" font-family="Times,serif" font-size="14.00">FloraChina.ChineseOakSpecies1</text>
</g>
<!-- FloraChina.ChineseOakSpecies1&#45;&gt;FloraChina.OakGenus -->
<g id="edge6" class="edge"><title>FloraChina.ChineseOakSpecies1&#45;&gt;FloraChina.OakGenus</title>
<path fill="none" stroke="#761212" d="M597.326,-92.0988C558.775,-98.9173 514.973,-106.665 478.446,-113.125"/>
<polygon fill="#761212" stroke="#761212" points="477.585,-109.723 468.348,-114.911 478.804,-116.616 477.585,-109.723"/>
<text text-anchor="middle" x="568" y="-100.8" font-family="Times,serif" font-size="14.00">1</text>
</g>
<!-- FloraMexico.MexicanOakSpecies1 -->
<g id="node5" class="node"><title>FloraMexico.MexicanOakSpecies1</title>
<polygon fill="#ffffcc" stroke="black" points="546.06,-49.5442 546.06,-64.4558 459.914,-75 338.086,-75 251.94,-64.4558 251.94,-49.5442 338.086,-39 459.914,-39 546.06,-49.5442"/>
<text text-anchor="middle" x="399" y="-53.3" font-family="Times,serif" font-size="14.00">FloraMexico.MexicanOakSpecies1</text>
</g>
<!-- FloraChina.ChineseOakSpecies1&#45;&gt;FloraMexico.MexicanOakSpecies1 -->
<g id="edge4" class="edge"><title>FloraChina.ChineseOakSpecies1&#45;&gt;FloraMexico.MexicanOakSpecies1</title>
<path fill="none" stroke="#761212" d="M597.472,-65.8547C588.862,-65.1728 580.276,-64.5412 572,-64 566.912,-63.6673 561.737,-63.3478 556.511,-63.0413"/>
<polygon fill="#761212" stroke="#761212" points="556.589,-59.5401 546.407,-62.4677 556.192,-66.5289 556.589,-59.5401"/>
<text text-anchor="middle" x="568" y="-67.8" font-family="Times,serif" font-size="14.00">1</text>
</g>
<!-- FloraChina.ChineseOakSpecies2\nFloraMexico.MexicanOakSpecies2 -->
<g id="node3" class="node"><title>FloraChina.ChineseOakSpecies2\nFloraMexico.MexicanOakSpecies2</title>
<path fill="#eeeeee" stroke="black" d="M787.5,-192C787.5,-192 602.5,-192 602.5,-192 596.5,-192 590.5,-186 590.5,-180 590.5,-180 590.5,-166 590.5,-166 590.5,-160 596.5,-154 602.5,-154 602.5,-154 787.5,-154 787.5,-154 793.5,-154 799.5,-160 799.5,-166 799.5,-166 799.5,-180 799.5,-180 799.5,-186 793.5,-192 787.5,-192"/>
<text text-anchor="middle" x="695" y="-176.8" font-family="Times,serif" font-size="14.00">FloraChina.ChineseOakSpecies2</text>
<text text-anchor="middle" x="695" y="-161.8" font-family="Times,serif" font-size="14.00">FloraMexico.MexicanOakSpecies2</text>
</g>
<!-- FloraChina.ChineseOakSpecies2\nFloraMexico.MexicanOakSpecies2&#45;&gt;FloraChina.OakGenus -->
<g id="edge1" class="edge"><title>FloraChina.ChineseOakSpecies2\nFloraMexico.MexicanOakSpecies2&#45;&gt;FloraChina.OakGenus</title>
<path fill="none" stroke="#761212" d="M590.347,-156.782C553.482,-151.014 512.623,-144.621 478.242,-139.242"/>
<polygon fill="#761212" stroke="#761212" points="478.68,-135.768 468.259,-137.68 477.598,-142.684 478.68,-135.768"/>
<text text-anchor="middle" x="568" y="-155.8" font-family="Times,serif" font-size="14.00">1</text>
</g>
<!-- FloraChina.ChineseOakSpecies2\nFloraMexico.MexicanOakSpecies2&#45;&gt;FloraMexico.OakGenus -->
<g id="edge3" class="edge"><title>FloraChina.ChineseOakSpecies2\nFloraMexico.MexicanOakSpecies2&#45;&gt;FloraMexico.OakGenus</title>
<path fill="none" stroke="#761212" d="M590.391,-171.77C581.464,-171.554 572.572,-171.299 564,-171 425.212,-166.153 389.906,-170.355 252,-154 228.769,-151.245 203.668,-147.082 180.896,-142.844"/>
<polygon fill="#761212" stroke="#761212" points="181.43,-139.383 170.953,-140.962 180.128,-146.26 181.43,-139.383"/>
<text text-anchor="middle" x="399" y="-173.8" font-family="Times,serif" font-size="14.00">1</text>
</g>
<!-- FloraMexico.MexicanOakSpecies1&#45;&gt;FloraMexico.OakGenus -->
<g id="edge2" class="edge"><title>FloraMexico.MexicanOakSpecies1&#45;&gt;FloraMexico.OakGenus</title>
<path fill="none" stroke="#761212" d="M327.819,-73.7667C282.079,-84.6946 222.567,-98.9124 176.554,-109.905"/>
<polygon fill="#761212" stroke="#761212" points="175.567,-106.542 166.654,-112.27 177.194,-113.351 175.567,-106.542"/>
<text text-anchor="middle" x="230" y="-99.8" font-family="Times,serif" font-size="14.00">1</text>
</g>
<!-- Legend -->
<g id="node6" class="node"><title>Legend</title>
<polygon fill="white" stroke="black" points="917.5,-150.5 818.5,-150.5 818.5,0.5 917.5,0.5 917.5,-150.5"/>
<polygon fill="none" stroke="black" points="819,-124 819,-150 918,-150 918,-124 819,-124"/>
<text text-anchor="start" x="844" y="-133.3" font-family="Arial Black" font-size="14.00"> Nodes</text>
<polygon fill="#ccffcc" stroke="none" points="819,-99 819,-124 901,-124 901,-99 819,-99"/>
<polygon fill="none" stroke="black" points="819,-99 819,-124 901,-124 901,-99 819,-99"/>
<text text-anchor="start" x="829.5" y="-107.8" font-family="Times,serif" font-size="14.00">FloraChina</text>
<polygon fill="none" stroke="black" points="901,-99 901,-124 918,-124 918,-99 901,-99"/>
<text text-anchor="start" x="906" y="-107.8" font-family="Times,serif" font-size="14.00">2</text>
<polygon fill="#eeeeee" stroke="none" points="819,-74 819,-99 901,-99 901,-74 819,-74"/>
<polygon fill="none" stroke="black" points="819,-74 819,-99 901,-99 901,-74 819,-74"/>
<text text-anchor="start" x="844.5" y="-82.8" font-family="Times,serif" font-size="14.00">comb</text>
<polygon fill="none" stroke="black" points="901,-74 901,-99 918,-99 918,-74 901,-74"/>
<text text-anchor="start" x="906" y="-82.8" font-family="Times,serif" font-size="14.00">1</text>
<polygon fill="#ffffcc" stroke="none" points="819,-49 819,-74 901,-74 901,-49 819,-49"/>
<polygon fill="none" stroke="black" points="819,-49 819,-74 901,-74 901,-49 819,-49"/>
<text text-anchor="start" x="824.5" y="-57.8" font-family="Times,serif" font-size="14.00">FloraMexico</text>
<polygon fill="none" stroke="black" points="901,-49 901,-74 918,-74 918,-49 901,-49"/>
<text text-anchor="start" x="906" y="-57.8" font-family="Times,serif" font-size="14.00">2</text>
<polygon fill="none" stroke="black" points="819,-24 819,-49 918,-49 918,-24 819,-24"/>
<text text-anchor="start" x="842.5" y="-32.8" font-family="Arial Black" font-size="14.00"> Edges </text>
<polygon fill="none" stroke="black" points="819,1 819,-24 901,-24 901,1 819,1"/>
<text text-anchor="start" x="841" y="-7.8" font-family="Times,serif" font-size="14.00" fill="#000000">default</text>
<polygon fill="none" stroke="black" points="901,1 901,-24 918,-24 918,1 901,1"/>
<text text-anchor="start" x="906" y="-7.8" font-family="Times,serif" font-size="14.00">6</text>
</g>
</g>
</svg>
