<?xml version="1.0" encoding="UTF-8" standalone="no"?>
<!DOCTYPE svg PUBLIC "-//W3C//DTD SVG 1.1//EN"
 "http://www.w3.org/Graphics/SVG/1.1/DTD/svg11.dtd">
<!-- Generated by graphviz version 2.36.0 (20140111.2315)
 -->
<!-- Title: %3 Pages: 1 -->
<svg width="1208pt" height="392pt"
 viewBox="0.00 0.00 1208.00 392.00" xmlns="http://www.w3.org/2000/svg" xmlns:xlink="http://www.w3.org/1999/xlink">
<g id="graph0" class="graph" transform="scale(1 1) rotate(0) translate(4 388)">
<title>%3</title>
<polygon fill="white" stroke="none" points="-4,4 -4,-388 1204,-388 1204,4 -4,4"/>
<!-- FloraChina.OakGenus -->
<g id="node1" class="node"><title>FloraChina.OakGenus</title>
<polygon fill="#ccffcc" stroke="black" points="395,-368 257,-368 257,-332 395,-332 395,-368"/>
<text text-anchor="middle" x="326" y="-346.3" font-family="Times,serif" font-size="14.00">FloraChina.OakGenus</text>
</g>
<!-- FloraMexico.OakGenus -->
<g id="node5" class="node"><title>FloraMexico.OakGenus</title>
<polygon fill="#ffffcc" stroke="black" points="208.234,-319.544 208.234,-334.456 147.175,-345 60.8249,-345 -0.233914,-334.456 -0.233914,-319.544 60.8249,-309 147.175,-309 208.234,-319.544"/>
<text text-anchor="middle" x="104" y="-323.3" font-family="Times,serif" font-size="14.00">FloraMexico.OakGenus</text>
</g>
<!-- FloraChina.OakGenus&#45;&gt;FloraMexico.OakGenus -->
<g id="edge5" class="edge"><title>FloraChina.OakGenus&#45;&gt;FloraMexico.OakGenus</title>
<path fill="none" stroke="#218b51" d="M267.756,-368.031C254.095,-370.381 239.547,-371.284 226,-369 202.232,-364.992 176.897,-356.848 155.584,-348.789"/>
<polygon fill="#218b51" stroke="#218b51" points="156.684,-345.462 146.095,-345.108 154.152,-351.988 156.684,-345.462"/>
<text text-anchor="middle" x="230" y="-372.8" font-family="Times,serif" font-size="14.00">1</text>
</g>
<!-- FloraChina.ChineseOakSpecies1 -->
<g id="node2" class="node"><title>FloraChina.ChineseOakSpecies1</title>
<polygon fill="#ccffcc" stroke="black" points="1026.5,-322 831.5,-322 831.5,-286 1026.5,-286 1026.5,-322"/>
<text text-anchor="middle" x="929" y="-300.3" font-family="Times,serif" font-size="14.00">FloraChina.ChineseOakSpecies1</text>
</g>
<!-- FloraChina.ChineseOakSpecies1&#45;&gt;FloraChina.OakGenus -->
<g id="edge10" class="edge"><title>FloraChina.ChineseOakSpecies1&#45;&gt;FloraChina.OakGenus</title>
<path fill="none" stroke="#613022" d="M831.025,-319.191C801.239,-323.476 768.32,-327.83 738,-331 599.773,-345.453 564.902,-347.331 426,-352 419.305,-352.225 412.354,-352.335 405.38,-352.36"/>
<polygon fill="#613022" stroke="#613022" points="405.181,-348.86 395.174,-352.34 405.167,-355.86 405.181,-348.86"/>
<text text-anchor="middle" x="591" y="-354.8" font-family="Times,serif" font-size="14.00">4</text>
</g>
<!-- FloraChina.OakGenus\nFloraMexico.OakGenus -->
<g id="node4" class="node"><title>FloraChina.OakGenus\nFloraMexico.OakGenus</title>
<path fill="#eeeeee" stroke="black" d="M388,-161C388,-161 264,-161 264,-161 258,-161 252,-155 252,-149 252,-149 252,-135 252,-135 252,-129 258,-123 264,-123 264,-123 388,-123 388,-123 394,-123 400,-129 400,-135 400,-135 400,-149 400,-149 400,-155 394,-161 388,-161"/>
<text text-anchor="middle" x="326" y="-145.8" font-family="Times,serif" font-size="14.00">FloraChina.OakGenus</text>
<text text-anchor="middle" x="326" y="-130.8" font-family="Times,serif" font-size="14.00">FloraMexico.OakGenus</text>
</g>
<!-- FloraChina.ChineseOakSpecies1&#45;&gt;FloraChina.OakGenus\nFloraMexico.OakGenus -->
<g id="edge4" class="edge"><title>FloraChina.ChineseOakSpecies1&#45;&gt;FloraChina.OakGenus\nFloraMexico.OakGenus</title>
<path fill="none" stroke="#218b51" d="M861.097,-285.966C749.795,-255.965 527.038,-195.92 407.388,-163.669"/>
<polygon fill="#218b51" stroke="#218b51" points="408.113,-160.239 397.547,-161.016 406.291,-166.998 408.113,-160.239"/>
<text text-anchor="middle" x="591" y="-255.8" font-family="Times,serif" font-size="14.00">1</text>
</g>
<!-- FloraMexico.MexicanOakSpecies1 -->
<g id="node6" class="node"><title>FloraMexico.MexicanOakSpecies1</title>
<polygon fill="#ffffcc" stroke="black" points="738.06,-296.544 738.06,-311.456 651.914,-322 530.086,-322 443.94,-311.456 443.94,-296.544 530.086,-286 651.914,-286 738.06,-296.544"/>
<text text-anchor="middle" x="591" y="-300.3" font-family="Times,serif" font-size="14.00">FloraMexico.MexicanOakSpecies1</text>
</g>
<!-- FloraChina.ChineseOakSpecies1&#45;&gt;FloraMexico.MexicanOakSpecies1 -->
<g id="edge8" class="edge"><title>FloraChina.ChineseOakSpecies1&#45;&gt;FloraMexico.MexicanOakSpecies1</title>
<path fill="none" stroke="#761212" d="M831.266,-304C805.252,-304 776.441,-304 748.084,-304"/>
<polygon fill="#761212" stroke="#761212" points="748.078,-300.5 738.078,-304 748.078,-307.5 748.078,-300.5"/>
<text text-anchor="middle" x="760" y="-307.8" font-family="Times,serif" font-size="14.00">5</text>
</g>
<!-- FloraChina.ChineseOakSpecies2 -->
<g id="node3" class="node"><title>FloraChina.ChineseOakSpecies2</title>
<polygon fill="#ccffcc" stroke="black" points="688.5,-139 493.5,-139 493.5,-103 688.5,-103 688.5,-139"/>
<text text-anchor="middle" x="591" y="-117.3" font-family="Times,serif" font-size="14.00">FloraChina.ChineseOakSpecies2</text>
</g>
<!-- FloraChina.ChineseOakSpecies2&#45;&gt;FloraChina.OakGenus -->
<g id="edge9" class="edge"><title>FloraChina.ChineseOakSpecies2&#45;&gt;FloraChina.OakGenus</title>
<path fill="none" stroke="#613022" d="M493.341,-121.123C475.518,-124.964 458.108,-131.706 444,-143 419.065,-162.962 426.337,-179.166 418,-210 404.726,-259.093 432.263,-283.689 400,-323 399.4,-323.731 398.778,-324.443 398.136,-325.135"/>
<polygon fill="#613022" stroke="#613022" points="395.731,-322.589 390.562,-331.837 400.371,-327.831 395.731,-322.589"/>
<text text-anchor="middle" x="422" y="-213.8" font-family="Times,serif" font-size="14.00">4</text>
</g>
<!-- FloraChina.ChineseOakSpecies2&#45;&gt;FloraChina.OakGenus\nFloraMexico.OakGenus -->
<g id="edge3" class="edge"><title>FloraChina.ChineseOakSpecies2&#45;&gt;FloraChina.OakGenus\nFloraMexico.OakGenus</title>
<path fill="none" stroke="#218b51" d="M493.189,-128.73C466.036,-130.898 436.757,-133.236 410.453,-135.336"/>
<polygon fill="#218b51" stroke="#218b51" points="409.837,-131.874 400.147,-136.159 410.394,-138.852 409.837,-131.874"/>
<text text-anchor="middle" x="422" y="-137.8" font-family="Times,serif" font-size="14.00">1</text>
</g>
<!-- FloraMexico.OakGenus&#45;&gt;FloraChina.OakGenus -->
<g id="edge7" class="edge"><title>FloraMexico.OakGenus&#45;&gt;FloraChina.OakGenus</title>
<path fill="none" stroke="#218b51" d="M196.234,-336.538C213.046,-338.296 230.461,-340.116 246.844,-341.829"/>
<polygon fill="#218b51" stroke="#218b51" points="246.588,-345.321 256.897,-342.88 247.315,-338.359 246.588,-345.321"/>
<text text-anchor="middle" x="230" y="-342.8" font-family="Times,serif" font-size="14.00">1</text>
</g>
<!-- FloraMexico.MexicanOakSpecies1&#45;&gt;FloraChina.OakGenus -->
<g id="edge12" class="edge"><title>FloraMexico.MexicanOakSpecies1&#45;&gt;FloraChina.OakGenus</title>
<path fill="none" stroke="#613022" d="M504.611,-318.935C472.671,-324.521 436.574,-330.835 405.305,-336.304"/>
<polygon fill="#613022" stroke="#613022" points="404.581,-332.878 395.333,-338.048 405.787,-339.773 404.581,-332.878"/>
<text text-anchor="middle" x="422" y="-336.8" font-family="Times,serif" font-size="14.00">4</text>
</g>
<!-- FloraMexico.MexicanOakSpecies1&#45;&gt;FloraChina.OakGenus\nFloraMexico.OakGenus -->
<g id="edge1" class="edge"><title>FloraMexico.MexicanOakSpecies1&#45;&gt;FloraChina.OakGenus\nFloraMexico.OakGenus</title>
<path fill="none" stroke="#218b51" d="M535.588,-285.9C500.444,-272.885 454.615,-253.36 418,-229 392.523,-212.05 367.696,-187.62 350.428,-168.96"/>
<polygon fill="#218b51" stroke="#218b51" points="352.828,-166.397 343.51,-161.355 347.65,-171.108 352.828,-166.397"/>
<text text-anchor="middle" x="422" y="-234.8" font-family="Times,serif" font-size="14.00">1</text>
</g>
<!-- FloraMexico.MexicanOakSpecies1&#45;&gt;FloraMexico.OakGenus -->
<g id="edge2" class="edge"><title>FloraMexico.MexicanOakSpecies1&#45;&gt;FloraMexico.OakGenus</title>
<path fill="none" stroke="#613022" d="M443.858,-302.011C384.286,-302.169 314.784,-303.586 252,-308 232.982,-309.337 212.661,-311.491 193.382,-313.878"/>
<polygon fill="#613022" stroke="#613022" points="192.888,-310.413 183.409,-315.144 193.77,-317.357 192.888,-310.413"/>
<text text-anchor="middle" x="326" y="-311.8" font-family="Times,serif" font-size="14.00">4</text>
</g>
<!-- FloraMexico.MexicanOakSpecies2 -->
<g id="node7" class="node"><title>FloraMexico.MexicanOakSpecies2</title>
<polygon fill="#ffffcc" stroke="black" points="1076.06,-67.5442 1076.06,-82.4558 989.914,-93 868.086,-93 781.94,-82.4558 781.94,-67.5442 868.086,-57 989.914,-57 1076.06,-67.5442"/>
<text text-anchor="middle" x="929" y="-71.3" font-family="Times,serif" font-size="14.00">FloraMexico.MexicanOakSpecies2</text>
</g>
<!-- FloraMexico.MexicanOakSpecies2&#45;&gt;FloraChina.ChineseOakSpecies2 -->
<g id="edge6" class="edge"><title>FloraMexico.MexicanOakSpecies2&#45;&gt;FloraChina.ChineseOakSpecies2</title>
<path fill="none" stroke="#366d41" d="M829.912,-88.4288C788.757,-94.0631 740.789,-100.63 698.75,-106.385"/>
<polygon fill="#366d41" stroke="#366d41" points="698.193,-102.929 688.76,-107.753 699.142,-109.864 698.193,-102.929"/>
<text text-anchor="middle" x="760" y="-101.8" font-family="Times,serif" font-size="14.00">2</text>
</g>
<!-- FloraMexico.MexicanOakSpecies2&#45;&gt;FloraChina.OakGenus\nFloraMexico.OakGenus -->
<g id="edge13" class="edge"><title>FloraMexico.MexicanOakSpecies2&#45;&gt;FloraChina.OakGenus\nFloraMexico.OakGenus</title>
<path fill="none" stroke="#218b51" d="M827.469,-61.9432C728.293,-52.2787 573.215,-45.8541 444,-79 414.408,-86.5908 384.125,-103.186 361.783,-117.438"/>
<polygon fill="#218b51" stroke="#218b51" points="359.783,-114.564 353.326,-122.964 363.612,-120.424 359.783,-114.564"/>
<text text-anchor="middle" x="591" y="-82.8" font-family="Times,serif" font-size="14.00">1</text>
</g>
<!-- FloraMexico.MexicanOakSpecies2&#45;&gt;FloraMexico.OakGenus -->
<g id="edge11" class="edge"><title>FloraMexico.MexicanOakSpecies2&#45;&gt;FloraMexico.OakGenus</title>
<path fill="none" stroke="#613022" d="M863.423,-57.4503C733.246,-26.2196 436.08,23.5965 252,-114 184.776,-164.248 137.39,-254.571 116.682,-299.734"/>
<polygon fill="#613022" stroke="#613022" points="113.464,-298.356 112.557,-308.912 119.849,-301.226 113.464,-298.356"/>
<text text-anchor="middle" x="422" y="-43.8" font-family="Times,serif" font-size="14.00">4</text>
</g>
<!-- Legend -->
<g id="node8" class="node"><title>Legend</title>
<polygon fill="white" stroke="black" points="1200,-150.5 1094,-150.5 1094,0.5 1200,0.5 1200,-150.5"/>
<polygon fill="none" stroke="black" points="1094,-124 1094,-150 1200,-150 1200,-124 1094,-124"/>
<text text-anchor="start" x="1122.5" y="-133.3" font-family="Arial Black" font-size="14.00"> Nodes</text>
<polygon fill="#ccffcc" stroke="none" points="1094,-99 1094,-124 1176,-124 1176,-99 1094,-99"/>
<polygon fill="none" stroke="black" points="1094,-99 1094,-124 1176,-124 1176,-99 1094,-99"/>
<text text-anchor="start" x="1104.5" y="-107.8" font-family="Times,serif" font-size="14.00">FloraChina</text>
<polygon fill="none" stroke="black" points="1176,-99 1176,-124 1200,-124 1200,-99 1176,-99"/>
<text text-anchor="start" x="1184.5" y="-107.8" font-family="Times,serif" font-size="14.00">3</text>
<polygon fill="#eeeeee" stroke="none" points="1094,-74 1094,-99 1176,-99 1176,-74 1094,-74"/>
<polygon fill="none" stroke="black" points="1094,-74 1094,-99 1176,-99 1176,-74 1094,-74"/>
<text text-anchor="start" x="1119.5" y="-82.8" font-family="Times,serif" font-size="14.00">comb</text>
<polygon fill="none" stroke="black" points="1176,-74 1176,-99 1200,-99 1200,-74 1176,-74"/>
<text text-anchor="start" x="1184.5" y="-82.8" font-family="Times,serif" font-size="14.00">1</text>
<polygon fill="#ffffcc" stroke="none" points="1094,-49 1094,-74 1176,-74 1176,-49 1094,-49"/>
<polygon fill="none" stroke="black" points="1094,-49 1094,-74 1176,-74 1176,-49 1094,-49"/>
<text text-anchor="start" x="1099.5" y="-57.8" font-family="Times,serif" font-size="14.00">FloraMexico</text>
<polygon fill="none" stroke="black" points="1176,-49 1176,-74 1200,-74 1200,-49 1176,-49"/>
<text text-anchor="start" x="1184.5" y="-57.8" font-family="Times,serif" font-size="14.00">3</text>
<polygon fill="none" stroke="black" points="1094,-24 1094,-49 1200,-49 1200,-24 1094,-24"/>
<text text-anchor="start" x="1121" y="-32.8" font-family="Arial Black" font-size="14.00"> Edges </text>
<polygon fill="none" stroke="black" points="1094,1 1094,-24 1176,-24 1176,1 1094,1"/>
<text text-anchor="start" x="1116" y="-7.8" font-family="Times,serif" font-size="14.00" fill="#000000">default</text>
<polygon fill="none" stroke="black" points="1176,1 1176,-24 1200,-24 1200,1 1176,1"/>
<text text-anchor="start" x="1181" y="-7.8" font-family="Times,serif" font-size="14.00">13</text>
</g>
</g>
</svg>
