<?xml version="1.0" encoding="UTF-8" standalone="no"?>
<!DOCTYPE svg PUBLIC "-//W3C//DTD SVG 1.1//EN"
 "http://www.w3.org/Graphics/SVG/1.1/DTD/svg11.dtd">
<!-- Generated by graphviz version 2.36.0 (20140111.2315)
 -->
<!-- Title: %3 Pages: 1 -->
<svg width="914pt" height="158pt"
 viewBox="0.00 0.00 914.00 158.00" xmlns="http://www.w3.org/2000/svg" xmlns:xlink="http://www.w3.org/1999/xlink">
<g id="graph0" class="graph" transform="scale(1 1) rotate(0) translate(4 154)">
<title>%3</title>
<polygon fill="white" stroke="none" points="-4,4 -4,-154 910,-154 910,4 -4,4"/>
<!-- FloraChina.ChineseOakSpecies1 -->
<g id="node1" class="node"><title>FloraChina.ChineseOakSpecies1</title>
<polygon fill="#ccffcc" stroke="black" points="769.5,-93 574.5,-93 574.5,-57 769.5,-57 769.5,-93"/>
<text text-anchor="middle" x="672" y="-71.3" font-family="Times,serif" font-size="14.00">FloraChina.ChineseOakSpecies1</text>
</g>
<!-- FloraMexico.MexicanOakSpecies1 -->
<g id="node4" class="node"><title>FloraMexico.MexicanOakSpecies1</title>
<polygon fill="#ffffcc" stroke="black" points="538.06,-67.5442 538.06,-82.4558 451.914,-93 330.086,-93 243.94,-82.4558 243.94,-67.5442 330.086,-57 451.914,-57 538.06,-67.5442"/>
<text text-anchor="middle" x="391" y="-71.3" font-family="Times,serif" font-size="14.00">FloraMexico.MexicanOakSpecies1</text>
</g>
<!-- FloraChina.ChineseOakSpecies1&#45;&gt;FloraMexico.MexicanOakSpecies1 -->
<g id="edge7" class="edge"><title>FloraChina.ChineseOakSpecies1&#45;&gt;FloraMexico.MexicanOakSpecies1</title>
<path fill="none" stroke="#000000" d="M574.202,-75C565.831,-75 557.233,-75 548.546,-75"/>
<polygon fill="#000000" stroke="#000000" points="548.314,-71.5001 538.314,-75 548.314,-78.5001 548.314,-71.5001"/>
</g>
<!-- FloraChina.ChineseOakSpecies2 -->
<g id="node2" class="node"><title>FloraChina.ChineseOakSpecies2</title>
<polygon fill="#ccffcc" stroke="black" points="488.5,-147 293.5,-147 293.5,-111 488.5,-111 488.5,-147"/>
<text text-anchor="middle" x="391" y="-125.3" font-family="Times,serif" font-size="14.00">FloraChina.ChineseOakSpecies2</text>
</g>
<!-- FloraChina.OakGenus -->
<g id="node3" class="node"><title>FloraChina.OakGenus</title>
<polygon fill="#ccffcc" stroke="black" points="173,-133 35,-133 35,-97 173,-97 173,-133"/>
<text text-anchor="middle" x="104" y="-111.3" font-family="Times,serif" font-size="14.00">FloraChina.OakGenus</text>
</g>
<!-- FloraChina.ChineseOakSpecies2&#45;&gt;FloraChina.OakGenus -->
<g id="edge8" class="edge"><title>FloraChina.ChineseOakSpecies2&#45;&gt;FloraChina.OakGenus</title>
<path fill="none" stroke="#000000" d="M293.114,-124.241C257.431,-122.488 217.482,-120.525 183.608,-118.861"/>
<polygon fill="#000000" stroke="#000000" points="183.461,-115.35 173.301,-118.355 183.118,-122.342 183.461,-115.35"/>
</g>
<!-- FloraChina.ChineseOakSpecies2&#45;&gt;FloraMexico.MexicanOakSpecies1 -->
<g id="edge3" class="edge"><title>FloraChina.ChineseOakSpecies2&#45;&gt;FloraMexico.MexicanOakSpecies1</title>
<path fill="none" stroke="#0000ff" stroke-dasharray="1,5" d="M391,-110.79C391,-104.907 391,-99.0238 391,-93.1406"/>
</g>
<!-- FloraMexico.OakGenus -->
<g id="node5" class="node"><title>FloraMexico.OakGenus</title>
<polygon fill="#ffffcc" stroke="black" points="208.234,-26.5442 208.234,-41.4558 147.175,-52 60.8249,-52 -0.233914,-41.4558 -0.233914,-26.5442 60.8249,-16 147.175,-16 208.234,-26.5442"/>
<text text-anchor="middle" x="104" y="-30.3" font-family="Times,serif" font-size="14.00">FloraMexico.OakGenus</text>
</g>
<!-- FloraChina.ChineseOakSpecies2&#45;&gt;FloraMexico.OakGenus -->
<g id="edge2" class="edge"><title>FloraChina.ChineseOakSpecies2&#45;&gt;FloraMexico.OakGenus</title>
<path fill="none" stroke="#0000ff" stroke-dasharray="1,5" d="M293.248,-114.948C276.623,-111.446 259.665,-107.173 244,-102 223.337,-95.1771 173.163,-69.7587 139.102,-52.012"/>
</g>
<!-- FloraChina.OakGenus&#45;&gt;FloraMexico.OakGenus -->
<g id="edge1" class="edge"><title>FloraChina.OakGenus&#45;&gt;FloraMexico.OakGenus</title>
<path fill="none" stroke="#0000ff" stroke-dasharray="1,5" d="M104,-96.7992C104,-81.8779 104,-66.9565 104,-52.0352"/>
</g>
<!-- FloraMexico.MexicanOakSpecies1&#45;&gt;FloraChina.OakGenus -->
<g id="edge6" class="edge"><title>FloraMexico.MexicanOakSpecies1&#45;&gt;FloraChina.OakGenus</title>
<path fill="none" stroke="#000000" d="M293.512,-88.5422C257.503,-93.5961 217.102,-99.2664 182.965,-104.058"/>
<polygon fill="#000000" stroke="#000000" points="182.466,-100.593 173.05,-105.449 183.439,-107.525 182.466,-100.593"/>
</g>
<!-- FloraMexico.MexicanOakSpecies1&#45;&gt;FloraMexico.OakGenus -->
<g id="edge5" class="edge"><title>FloraMexico.MexicanOakSpecies1&#45;&gt;FloraMexico.OakGenus</title>
<path fill="none" stroke="#000000" d="M294.703,-61.2906C262.579,-56.6693 226.848,-51.529 195.135,-46.9668"/>
<polygon fill="#000000" stroke="#000000" points="195.386,-43.467 184.99,-45.5073 194.389,-50.3956 195.386,-43.467"/>
</g>
<!-- FloraMexico.MexicanOakSpecies2 -->
<g id="node6" class="node"><title>FloraMexico.MexicanOakSpecies2</title>
<polygon fill="#ffffcc" stroke="black" points="538.06,-13.5442 538.06,-28.4558 451.914,-39 330.086,-39 243.94,-28.4558 243.94,-13.5442 330.086,-3 451.914,-3 538.06,-13.5442"/>
<text text-anchor="middle" x="391" y="-17.3" font-family="Times,serif" font-size="14.00">FloraMexico.MexicanOakSpecies2</text>
</g>
<!-- FloraMexico.MexicanOakSpecies2&#45;&gt;FloraMexico.OakGenus -->
<g id="edge4" class="edge"><title>FloraMexico.MexicanOakSpecies2&#45;&gt;FloraMexico.OakGenus</title>
<path fill="none" stroke="#000000" d="M243.743,-27.6714C235.29,-28.057 226.854,-28.4417 218.555,-28.8203"/>
<polygon fill="#000000" stroke="#000000" points="218.338,-25.3265 208.508,-29.2786 218.657,-32.3192 218.338,-25.3265"/>
</g>
<!-- Legend -->
<g id="node7" class="node"><title>Legend</title>
<polygon fill="white" stroke="black" points="905.5,-150.5 806.5,-150.5 806.5,0.5 905.5,0.5 905.5,-150.5"/>
<polygon fill="none" stroke="black" points="807,-124 807,-150 906,-150 906,-124 807,-124"/>
<text text-anchor="start" x="832" y="-133.3" font-family="Arial Black" font-size="14.00"> Nodes</text>
<polygon fill="#ccffcc" stroke="none" points="807,-99 807,-124 889,-124 889,-99 807,-99"/>
<polygon fill="none" stroke="black" points="807,-99 807,-124 889,-124 889,-99 807,-99"/>
<text text-anchor="start" x="817.5" y="-107.8" font-family="Times,serif" font-size="14.00">FloraChina</text>
<polygon fill="none" stroke="black" points="889,-99 889,-124 906,-124 906,-99 889,-99"/>
<text text-anchor="start" x="894" y="-107.8" font-family="Times,serif" font-size="14.00">3</text>
<polygon fill="#ffffcc" stroke="none" points="807,-74 807,-99 889,-99 889,-74 807,-74"/>
<polygon fill="none" stroke="black" points="807,-74 807,-99 889,-99 889,-74 807,-74"/>
<text text-anchor="start" x="812.5" y="-82.8" font-family="Times,serif" font-size="14.00">FloraMexico</text>
<polygon fill="none" stroke="black" points="889,-74 889,-99 906,-99 906,-74 889,-74"/>
<text text-anchor="start" x="894" y="-82.8" font-family="Times,serif" font-size="14.00">3</text>
<polygon fill="none" stroke="black" points="807,-49 807,-74 906,-74 906,-49 807,-49"/>
<text text-anchor="start" x="830.5" y="-57.8" font-family="Arial Black" font-size="14.00"> Edges </text>
<polygon fill="none" stroke="black" points="807,-24 807,-49 889,-49 889,-24 807,-24"/>
<text text-anchor="start" x="825" y="-32.8" font-family="Times,serif" font-size="14.00" fill="#0000ff">overlaps</text>
<polygon fill="none" stroke="black" points="889,-24 889,-49 906,-49 906,-24 889,-24"/>
<text text-anchor="start" x="894" y="-32.8" font-family="Times,serif" font-size="14.00">3</text>
<polygon fill="none" stroke="black" points="807,1 807,-24 889,-24 889,1 807,1"/>
<text text-anchor="start" x="834" y="-7.8" font-family="Times,serif" font-size="14.00" fill="#000000">input</text>
<polygon fill="none" stroke="black" points="889,1 889,-24 906,-24 906,1 889,1"/>
<text text-anchor="start" x="894" y="-7.8" font-family="Times,serif" font-size="14.00">5</text>
</g>
</g>
</svg>
