<?xml version="1.0" encoding="UTF-8" standalone="no"?>
<!DOCTYPE svg PUBLIC "-//W3C//DTD SVG 1.1//EN"
 "http://www.w3.org/Graphics/SVG/1.1/DTD/svg11.dtd">
<!-- Generated by graphviz version 2.36.0 (20140111.2315)
 -->
<!-- Title: %3 Pages: 1 -->
<svg width="914pt" height="158pt"
 viewBox="0.00 0.00 914.00 158.00" xmlns="http://www.w3.org/2000/svg" xmlns:xlink="http://www.w3.org/1999/xlink">
<g id="graph0" class="graph" transform="scale(1 1) rotate(0) translate(4 154)">
<title>%3</title>
<polygon fill="white" stroke="none" points="-4,4 -4,-154 910,-154 910,4 -4,4"/>
<!-- FloraChina.OakGenus -->
<g id="node1" class="node"><title>FloraChina.OakGenus</title>
<polygon fill="#ccffcc" stroke="black" points="173,-120 35,-120 35,-84 173,-84 173,-120"/>
<text text-anchor="middle" x="104" y="-98.3" font-family="Times,serif" font-size="14.00">FloraChina.OakGenus</text>
</g>
<!-- FloraMexico.OakGenus -->
<g id="node5" class="node"><title>FloraMexico.OakGenus</title>
<polygon fill="#ffffcc" stroke="black" points="208.234,-40.5442 208.234,-55.4558 147.175,-66 60.8249,-66 -0.233914,-55.4558 -0.233914,-40.5442 60.8249,-30 147.175,-30 208.234,-40.5442"/>
<text text-anchor="middle" x="104" y="-44.3" font-family="Times,serif" font-size="14.00">FloraMexico.OakGenus</text>
</g>
<!-- FloraChina.OakGenus&#45;&gt;FloraMexico.OakGenus -->
<g id="edge1" class="edge"><title>FloraChina.OakGenus&#45;&gt;FloraMexico.OakGenus</title>
<path fill="none" stroke="#0000ff" stroke-dasharray="1,5" d="M104,-83.7902C104,-77.907 104,-72.0238 104,-66.1406"/>
</g>
<!-- FloraMexico.MexicanOakSpecies2 -->
<g id="node6" class="node"><title>FloraMexico.MexicanOakSpecies2</title>
<polygon fill="#ffffcc" stroke="black" points="538.06,-13.5442 538.06,-28.4558 451.914,-39 330.086,-39 243.94,-28.4558 243.94,-13.5442 330.086,-3 451.914,-3 538.06,-13.5442"/>
<text text-anchor="middle" x="391" y="-17.3" font-family="Times,serif" font-size="14.00">FloraMexico.MexicanOakSpecies2</text>
</g>
<!-- FloraChina.OakGenus&#45;&gt;FloraMexico.MexicanOakSpecies2 -->
<g id="edge3" class="edge"><title>FloraChina.OakGenus&#45;&gt;FloraMexico.MexicanOakSpecies2</title>
<path fill="none" stroke="#0000ff" stroke-dasharray="1,5" d="M173.109,-88.1462C185.03,-84.6049 197.097,-80.266 208,-75 226.01,-66.3019 225.683,-56.0305 244,-48 257.574,-42.0487 272.417,-37.4086 287.272,-33.7911"/>
</g>
<!-- FloraChina.ChineseOakSpecies1 -->
<g id="node2" class="node"><title>FloraChina.ChineseOakSpecies1</title>
<polygon fill="#ccffcc" stroke="black" points="769.5,-93 574.5,-93 574.5,-57 769.5,-57 769.5,-93"/>
<text text-anchor="middle" x="672" y="-71.3" font-family="Times,serif" font-size="14.00">FloraChina.ChineseOakSpecies1</text>
</g>
<!-- FloraMexico.MexicanOakSpecies1 -->
<g id="node4" class="node"><title>FloraMexico.MexicanOakSpecies1</title>
<polygon fill="#ffffcc" stroke="black" points="538.06,-67.5442 538.06,-82.4558 451.914,-93 330.086,-93 243.94,-82.4558 243.94,-67.5442 330.086,-57 451.914,-57 538.06,-67.5442"/>
<text text-anchor="middle" x="391" y="-71.3" font-family="Times,serif" font-size="14.00">FloraMexico.MexicanOakSpecies1</text>
</g>
<!-- FloraChina.ChineseOakSpecies1&#45;&gt;FloraMexico.MexicanOakSpecies1 -->
<g id="edge7" class="edge"><title>FloraChina.ChineseOakSpecies1&#45;&gt;FloraMexico.MexicanOakSpecies1</title>
<path fill="none" stroke="#000000" d="M574.202,-75C565.831,-75 557.233,-75 548.546,-75"/>
<polygon fill="#000000" stroke="#000000" points="548.314,-71.5001 538.314,-75 548.314,-78.5001 548.314,-71.5001"/>
</g>
<!-- FloraChina.ChineseOakSpecies2 -->
<g id="node3" class="node"><title>FloraChina.ChineseOakSpecies2</title>
<polygon fill="#ccffcc" stroke="black" points="488.5,-147 293.5,-147 293.5,-111 488.5,-111 488.5,-147"/>
<text text-anchor="middle" x="391" y="-125.3" font-family="Times,serif" font-size="14.00">FloraChina.ChineseOakSpecies2</text>
</g>
<!-- FloraChina.ChineseOakSpecies2&#45;&gt;FloraChina.OakGenus -->
<g id="edge8" class="edge"><title>FloraChina.ChineseOakSpecies2&#45;&gt;FloraChina.OakGenus</title>
<path fill="none" stroke="#000000" d="M293.114,-119.821C257.431,-116.441 217.482,-112.656 183.608,-109.447"/>
<polygon fill="#000000" stroke="#000000" points="183.587,-105.929 173.301,-108.471 182.927,-112.898 183.587,-105.929"/>
</g>
<!-- FloraChina.ChineseOakSpecies2&#45;&gt;FloraMexico.MexicanOakSpecies1 -->
<g id="edge4" class="edge"><title>FloraChina.ChineseOakSpecies2&#45;&gt;FloraMexico.MexicanOakSpecies1</title>
<path fill="none" stroke="#0000ff" stroke-dasharray="1,5" d="M391,-110.79C391,-104.907 391,-99.0238 391,-93.1406"/>
</g>
<!-- FloraChina.ChineseOakSpecies2&#45;&gt;FloraMexico.OakGenus -->
<g id="edge2" class="edge"><title>FloraChina.ChineseOakSpecies2&#45;&gt;FloraMexico.OakGenus</title>
<path fill="none" stroke="#0000ff" stroke-dasharray="1,5" d="M293.47,-117.66C276.571,-113.857 259.463,-108.779 244,-102 225.683,-93.9695 226.01,-83.6981 208,-75 196.93,-69.6536 184.661,-65.2629 172.563,-61.6921"/>
</g>
<!-- FloraChina.ChineseOakSpecies2&#45;&gt;FloraMexico.MexicanOakSpecies2 -->
<g id="edge5" class="edge"><title>FloraChina.ChineseOakSpecies2&#45;&gt;FloraMexico.MexicanOakSpecies2</title>
<path fill="none" stroke="#0000ff" stroke-dasharray="1,5" d="M488.625,-132.087C515.693,-127.407 541.588,-116.32 556,-93 564.412,-79.3896 564.412,-70.6104 556,-57 548.601,-45.0284 538.176,-36.2805 526.12,-29.9683"/>
</g>
<!-- FloraMexico.MexicanOakSpecies1&#45;&gt;FloraChina.OakGenus -->
<g id="edge10" class="edge"><title>FloraMexico.MexicanOakSpecies1&#45;&gt;FloraChina.OakGenus</title>
<path fill="none" stroke="#000000" d="M273.257,-86.0598C243,-88.9263 211.14,-91.9446 183.382,-94.5744"/>
<polygon fill="#000000" stroke="#000000" points="182.976,-91.097 173.351,-95.5246 183.637,-98.0658 182.976,-91.097"/>
</g>
<!-- FloraMexico.MexicanOakSpecies1&#45;&gt;FloraMexico.OakGenus -->
<g id="edge6" class="edge"><title>FloraMexico.MexicanOakSpecies1&#45;&gt;FloraMexico.OakGenus</title>
<path fill="none" stroke="#000000" d="M273.257,-63.9402C252.252,-61.9502 230.475,-59.8871 209.834,-57.9316"/>
<polygon fill="#000000" stroke="#000000" points="210.086,-54.4399 199.8,-56.9811 209.426,-61.4087 210.086,-54.4399"/>
</g>
<!-- FloraMexico.MexicanOakSpecies2&#45;&gt;FloraMexico.OakGenus -->
<g id="edge9" class="edge"><title>FloraMexico.MexicanOakSpecies2&#45;&gt;FloraMexico.OakGenus</title>
<path fill="none" stroke="#000000" d="M273.257,-32.0598C252.252,-34.0498 230.475,-36.1129 209.834,-38.0684"/>
<polygon fill="#000000" stroke="#000000" points="209.426,-34.5913 199.8,-39.0189 210.086,-41.5601 209.426,-34.5913"/>
</g>
<!-- Legend -->
<g id="node7" class="node"><title>Legend</title>
<polygon fill="white" stroke="black" points="905.5,-150.5 806.5,-150.5 806.5,0.5 905.5,0.5 905.5,-150.5"/>
<polygon fill="none" stroke="black" points="807,-124 807,-150 906,-150 906,-124 807,-124"/>
<text text-anchor="start" x="832" y="-133.3" font-family="Arial Black" font-size="14.00"> Nodes</text>
<polygon fill="#ccffcc" stroke="none" points="807,-99 807,-124 889,-124 889,-99 807,-99"/>
<polygon fill="none" stroke="black" points="807,-99 807,-124 889,-124 889,-99 807,-99"/>
<text text-anchor="start" x="817.5" y="-107.8" font-family="Times,serif" font-size="14.00">FloraChina</text>
<polygon fill="none" stroke="black" points="889,-99 889,-124 906,-124 906,-99 889,-99"/>
<text text-anchor="start" x="894" y="-107.8" font-family="Times,serif" font-size="14.00">3</text>
<polygon fill="#ffffcc" stroke="none" points="807,-74 807,-99 889,-99 889,-74 807,-74"/>
<polygon fill="none" stroke="black" points="807,-74 807,-99 889,-99 889,-74 807,-74"/>
<text text-anchor="start" x="812.5" y="-82.8" font-family="Times,serif" font-size="14.00">FloraMexico</text>
<polygon fill="none" stroke="black" points="889,-74 889,-99 906,-99 906,-74 889,-74"/>
<text text-anchor="start" x="894" y="-82.8" font-family="Times,serif" font-size="14.00">3</text>
<polygon fill="none" stroke="black" points="807,-49 807,-74 906,-74 906,-49 807,-49"/>
<text text-anchor="start" x="830.5" y="-57.8" font-family="Arial Black" font-size="14.00"> Edges </text>
<polygon fill="none" stroke="black" points="807,-24 807,-49 889,-49 889,-24 807,-24"/>
<text text-anchor="start" x="825" y="-32.8" font-family="Times,serif" font-size="14.00" fill="#0000ff">overlaps</text>
<polygon fill="none" stroke="black" points="889,-24 889,-49 906,-49 906,-24 889,-24"/>
<text text-anchor="start" x="894" y="-32.8" font-family="Times,serif" font-size="14.00">5</text>
<polygon fill="none" stroke="black" points="807,1 807,-24 889,-24 889,1 807,1"/>
<text text-anchor="start" x="834" y="-7.8" font-family="Times,serif" font-size="14.00" fill="#000000">input</text>
<polygon fill="none" stroke="black" points="889,1 889,-24 906,-24 906,1 889,1"/>
<text text-anchor="start" x="894" y="-7.8" font-family="Times,serif" font-size="14.00">5</text>
</g>
</g>
</svg>
