<?xml version="1.0" encoding="UTF-8" standalone="no"?>
<!DOCTYPE svg PUBLIC "-//W3C//DTD SVG 1.1//EN"
 "http://www.w3.org/Graphics/SVG/1.1/DTD/svg11.dtd">
<!-- Generated by graphviz version 2.36.0 (20140111.2315)
 -->
<!-- Title: %3 Pages: 1 -->
<svg width="1106pt" height="202pt"
 viewBox="0.00 0.00 1106.00 202.00" xmlns="http://www.w3.org/2000/svg" xmlns:xlink="http://www.w3.org/1999/xlink">
<g id="graph0" class="graph" transform="scale(1 1) rotate(0) translate(4 198)">
<title>%3</title>
<polygon fill="white" stroke="none" points="-4,4 -4,-198 1102,-198 1102,4 -4,4"/>
<!-- FloraChina.ChineseOakSpecies1 -->
<g id="node1" class="node"><title>FloraChina.ChineseOakSpecies1</title>
<polygon fill="#ccffcc" stroke="black" points="511.5,-176 316.5,-176 316.5,-140 511.5,-140 511.5,-176"/>
<text text-anchor="middle" x="414" y="-154.3" font-family="Times,serif" font-size="14.00">FloraChina.ChineseOakSpecies1</text>
</g>
<!-- FloraMexico.OakGenus -->
<g id="node4" class="node"><title>FloraMexico.OakGenus</title>
<polygon fill="#ffffcc" stroke="black" points="1098.23,-73.5442 1098.23,-88.4558 1037.18,-99 950.825,-99 889.766,-88.4558 889.766,-73.5442 950.825,-63 1037.18,-63 1098.23,-73.5442"/>
<text text-anchor="middle" x="994" y="-77.3" font-family="Times,serif" font-size="14.00">FloraMexico.OakGenus</text>
</g>
<!-- FloraChina.ChineseOakSpecies1&#45;&gt;FloraMexico.OakGenus -->
<g id="edge5" class="edge"><title>FloraChina.ChineseOakSpecies1&#45;&gt;FloraMexico.OakGenus</title>
<path fill="none" stroke="#aa00ff" stroke-width="3" stroke-dasharray="1,5" d="M511.661,-161.472C601.008,-162.622 736.938,-159.123 852,-134 883.743,-127.069 917.886,-114.382 944.622,-103.159"/>
<polygon fill="#aa00ff" stroke="#aa00ff" stroke-width="3" points="946.297,-106.249 954.119,-99.1033 943.548,-99.8117 946.297,-106.249"/>
<text text-anchor="middle" x="705" y="-164.8" font-family="Times,serif" font-size="14.00">&gt;</text>
</g>
<!-- FloraMexico.MexicanOakSpecies1 -->
<g id="node5" class="node"><title>FloraMexico.MexicanOakSpecies1</title>
<polygon fill="#ffffcc" stroke="black" points="852.06,-99.5442 852.06,-114.456 765.914,-125 644.086,-125 557.94,-114.456 557.94,-99.5442 644.086,-89 765.914,-89 852.06,-99.5442"/>
<text text-anchor="middle" x="705" y="-103.3" font-family="Times,serif" font-size="14.00">FloraMexico.MexicanOakSpecies1</text>
</g>
<!-- FloraChina.ChineseOakSpecies1&#45;&gt;FloraMexico.MexicanOakSpecies1 -->
<g id="edge7" class="edge"><title>FloraChina.ChineseOakSpecies1&#45;&gt;FloraMexico.MexicanOakSpecies1</title>
<path fill="none" stroke="#aa00ff" stroke-width="3" stroke-dasharray="1,5" d="M511.635,-140.947C543.025,-135.407 577.812,-129.268 609.076,-123.751"/>
<polygon fill="#aa00ff" stroke="#aa00ff" stroke-width="3" points="609.855,-127.168 619.094,-121.983 608.638,-120.275 609.855,-127.168"/>
<text text-anchor="middle" x="535" y="-140.8" font-family="Times,serif" font-size="14.00">&lt;</text>
</g>
<!-- FloraChina.ChineseOakSpecies2 -->
<g id="node2" class="node"><title>FloraChina.ChineseOakSpecies2</title>
<polygon fill="#ccffcc" stroke="black" points="511.5,-125 316.5,-125 316.5,-89 511.5,-89 511.5,-125"/>
<text text-anchor="middle" x="414" y="-103.3" font-family="Times,serif" font-size="14.00">FloraChina.ChineseOakSpecies2</text>
</g>
<!-- FloraChina.ChineseOakSpecies2&#45;&gt;FloraMexico.MexicanOakSpecies1 -->
<g id="edge8" class="edge"><title>FloraChina.ChineseOakSpecies2&#45;&gt;FloraMexico.MexicanOakSpecies1</title>
<path fill="none" stroke="#aa00ff" stroke-width="3" stroke-dasharray="1,5" d="M511.635,-107C523.236,-107 535.302,-107 547.483,-107"/>
<polygon fill="#aa00ff" stroke="#aa00ff" stroke-width="3" points="547.734,-110.5 557.734,-107 547.733,-103.5 547.734,-110.5"/>
<text text-anchor="middle" x="535" y="-110.8" font-family="Times,serif" font-size="14.00">!</text>
</g>
<!-- FloraChina.OakGenus -->
<g id="node3" class="node"><title>FloraChina.OakGenus</title>
<polygon fill="#ccffcc" stroke="black" points="278,-125 140,-125 140,-89 278,-89 278,-125"/>
<text text-anchor="middle" x="209" y="-103.3" font-family="Times,serif" font-size="14.00">FloraChina.OakGenus</text>
</g>
<!-- FloraChina.OakGenus&#45;&gt;FloraChina.ChineseOakSpecies1 -->
<g id="edge2" class="edge"><title>FloraChina.OakGenus&#45;&gt;FloraChina.ChineseOakSpecies1</title>
<path fill="none" stroke="#000000" d="M287.929,-126.915C297.384,-129.312 306.909,-131.718 316,-134 323.74,-135.943 331.83,-137.963 339.895,-139.969"/>
<polygon fill="#000000" stroke="#000000" points="288.677,-123.494 278.123,-124.426 286.955,-130.279 288.677,-123.494"/>
</g>
<!-- FloraChina.OakGenus&#45;&gt;FloraChina.ChineseOakSpecies2 -->
<g id="edge1" class="edge"><title>FloraChina.OakGenus&#45;&gt;FloraChina.ChineseOakSpecies2</title>
<path fill="none" stroke="#000000" d="M288.322,-107C297.436,-107 306.813,-107 316.138,-107"/>
<polygon fill="#000000" stroke="#000000" points="288.161,-103.5 278.161,-107 288.161,-110.5 288.161,-103.5"/>
</g>
<!-- FloraChina.OakGenus&#45;&gt;FloraMexico.OakGenus -->
<g id="edge6" class="edge"><title>FloraChina.OakGenus&#45;&gt;FloraMexico.OakGenus</title>
<path fill="none" stroke="#aa00ff" stroke-width="3" stroke-dasharray="1,5" d="M270.04,-88.9417C284.921,-85.235 300.926,-81.8897 316,-80 552.372,-50.3691 613.779,-79.1553 852,-80 860.989,-80.0319 870.299,-80.0752 879.655,-80.126"/>
<polygon fill="#aa00ff" stroke="#aa00ff" stroke-width="3" points="879.792,-83.6267 889.812,-80.1839 879.832,-76.6268 879.792,-83.6267"/>
<text text-anchor="middle" x="535" y="-70.8" font-family="Times,serif" font-size="14.00">&gt;</text>
</g>
<!-- FloraMexico.MexicanOakSpecies1&#45;&gt;FloraMexico.OakGenus -->
<g id="edge4" class="edge"><title>FloraMexico.MexicanOakSpecies1&#45;&gt;FloraMexico.OakGenus</title>
<path fill="none" stroke="#000000" d="M825.221,-96.1995C845.642,-94.3495 866.739,-92.4383 886.792,-90.6217"/>
<polygon fill="#000000" stroke="#000000" points="887.214,-94.0978 896.858,-89.7097 886.583,-87.1263 887.214,-94.0978"/>
</g>
<!-- FloraMexico.MexicanOakSpecies2 -->
<g id="node6" class="node"><title>FloraMexico.MexicanOakSpecies2</title>
<polygon fill="#ffffcc" stroke="black" points="852.06,-10.5442 852.06,-25.4558 765.914,-36 644.086,-36 557.94,-25.4558 557.94,-10.5442 644.086,-3.55271e-15 765.914,-0 852.06,-10.5442"/>
<text text-anchor="middle" x="705" y="-14.3" font-family="Times,serif" font-size="14.00">FloraMexico.MexicanOakSpecies2</text>
</g>
<!-- FloraMexico.MexicanOakSpecies2&#45;&gt;FloraMexico.OakGenus -->
<g id="edge3" class="edge"><title>FloraMexico.MexicanOakSpecies2&#45;&gt;FloraMexico.OakGenus</title>
<path fill="none" stroke="#000000" d="M811.433,-30.5185C831.65,-33.6861 852.568,-37.4975 872,-42 893.25,-46.9237 916.125,-53.8581 936.205,-60.517"/>
<polygon fill="#000000" stroke="#000000" points="935.224,-63.8798 945.818,-63.7538 937.458,-57.2457 935.224,-63.8798"/>
</g>
<!-- Legend -->
<g id="node7" class="node"><title>Legend</title>
<polygon fill="white" stroke="black" points="121.5,-195 0.5,-195 0.5,-19 121.5,-19 121.5,-195"/>
<polygon fill="none" stroke="black" points="1,-169 1,-195 122,-195 122,-169 1,-169"/>
<text text-anchor="start" x="37" y="-178.3" font-family="Arial Black" font-size="14.00"> Nodes</text>
<polygon fill="#ccffcc" stroke="none" points="1,-144 1,-169 105,-169 105,-144 1,-144"/>
<polygon fill="none" stroke="black" points="1,-144 1,-169 105,-169 105,-144 1,-144"/>
<text text-anchor="start" x="22.5" y="-152.8" font-family="Times,serif" font-size="14.00">FloraChina</text>
<polygon fill="none" stroke="black" points="105,-144 105,-169 122,-169 122,-144 105,-144"/>
<text text-anchor="start" x="110" y="-152.8" font-family="Times,serif" font-size="14.00">3</text>
<polygon fill="#ffffcc" stroke="none" points="1,-119 1,-144 105,-144 105,-119 1,-119"/>
<polygon fill="none" stroke="black" points="1,-119 1,-144 105,-144 105,-119 1,-119"/>
<text text-anchor="start" x="17.5" y="-127.8" font-family="Times,serif" font-size="14.00">FloraMexico</text>
<polygon fill="none" stroke="black" points="105,-119 105,-144 122,-144 122,-119 105,-119"/>
<text text-anchor="start" x="110" y="-127.8" font-family="Times,serif" font-size="14.00">3</text>
<polygon fill="none" stroke="black" points="1,-94 1,-119 122,-119 122,-94 1,-94"/>
<text text-anchor="start" x="35.5" y="-102.8" font-family="Arial Black" font-size="14.00"> Edges </text>
<polygon fill="none" stroke="black" points="1,-69 1,-94 105,-94 105,-69 1,-69"/>
<text text-anchor="start" x="11.5" y="-77.8" font-family="Times,serif" font-size="14.00" fill="#000000">isa_FloraChina</text>
<polygon fill="none" stroke="black" points="105,-69 105,-94 122,-94 122,-69 105,-69"/>
<text text-anchor="start" x="110" y="-77.8" font-family="Times,serif" font-size="14.00">2</text>
<polygon fill="none" stroke="black" points="1,-44 1,-69 105,-69 105,-44 1,-44"/>
<text text-anchor="start" x="6.5" y="-52.8" font-family="Times,serif" font-size="14.00" fill="#000000">isa_FloraMexico</text>
<polygon fill="none" stroke="black" points="105,-44 105,-69 122,-69 122,-44 105,-44"/>
<text text-anchor="start" x="110" y="-52.8" font-family="Times,serif" font-size="14.00">2</text>
<polygon fill="none" stroke="black" points="1,-19 1,-44 105,-44 105,-19 1,-19"/>
<text text-anchor="start" x="42" y="-27.8" font-family="Times,serif" font-size="14.00" fill="#aa00ff">Art.</text>
<polygon fill="none" stroke="black" points="105,-19 105,-44 122,-44 122,-19 105,-19"/>
<text text-anchor="start" x="110" y="-27.8" font-family="Times,serif" font-size="14.00">4</text>
</g>
</g>
</svg>
