<?xml version="1.0" encoding="UTF-8" standalone="no"?>
<!DOCTYPE svg PUBLIC "-//W3C//DTD SVG 1.1//EN"
 "http://www.w3.org/Graphics/SVG/1.1/DTD/svg11.dtd">
<!-- Generated by graphviz version 2.36.0 (20140111.2315)
 -->
<!-- Title: %3 Pages: 1 -->
<svg width="750pt" height="800pt"
 viewBox="0.00 0.00 750.00 800.49" xmlns="http://www.w3.org/2000/svg" xmlns:xlink="http://www.w3.org/1999/xlink">
<g id="graph0" class="graph" transform="scale(1 1) rotate(0) translate(4 796.492)">
<title>%3</title>
<polygon fill="white" stroke="none" points="-4,4 -4,-796.492 746,-796.492 746,4 -4,4"/>
<!-- FloraChina.ChineseOakSpecies1\nFloraMexico.MexicanOakSpecies1 -->
<g id="node1" class="node"><title>FloraChina.ChineseOakSpecies1\nFloraMexico.MexicanOakSpecies1</title>
<path fill="#eeeeee" stroke="black" d="M729.5,-758.492C729.5,-758.492 544.5,-758.492 544.5,-758.492 538.5,-758.492 532.5,-752.492 532.5,-746.492 532.5,-746.492 532.5,-732.492 532.5,-732.492 532.5,-726.492 538.5,-720.492 544.5,-720.492 544.5,-720.492 729.5,-720.492 729.5,-720.492 735.5,-720.492 741.5,-726.492 741.5,-732.492 741.5,-732.492 741.5,-746.492 741.5,-746.492 741.5,-752.492 735.5,-758.492 729.5,-758.492"/>
<text text-anchor="middle" x="637" y="-743.292" font-family="Times,serif" font-size="14.00">FloraChina.ChineseOakSpecies1</text>
<text text-anchor="middle" x="637" y="-728.292" font-family="Times,serif" font-size="14.00">FloraMexico.MexicanOakSpecies1</text>
</g>
<!-- FloraChina.OakGenus\nFloraMexico.OakGenus -->
<g id="node5" class="node"><title>FloraChina.OakGenus\nFloraMexico.OakGenus</title>
<path fill="#eeeeee" stroke="black" d="M136,-428.492C136,-428.492 12,-428.492 12,-428.492 6,-428.492 0,-422.492 0,-416.492 0,-416.492 0,-402.492 0,-402.492 0,-396.492 6,-390.492 12,-390.492 12,-390.492 136,-390.492 136,-390.492 142,-390.492 148,-396.492 148,-402.492 148,-402.492 148,-416.492 148,-416.492 148,-422.492 142,-428.492 136,-428.492"/>
<text text-anchor="middle" x="74" y="-413.292" font-family="Times,serif" font-size="14.00">FloraChina.OakGenus</text>
<text text-anchor="middle" x="74" y="-398.292" font-family="Times,serif" font-size="14.00">FloraMexico.OakGenus</text>
</g>
<!-- FloraChina.ChineseOakSpecies1\nFloraMexico.MexicanOakSpecies1&#45;&gt;FloraChina.OakGenus\nFloraMexico.OakGenus -->
<g id="edge3" class="edge"><title>FloraChina.ChineseOakSpecies1\nFloraMexico.MexicanOakSpecies1&#45;&gt;FloraChina.OakGenus\nFloraMexico.OakGenus</title>
<path fill="none" stroke="#da8601" d="M564.16,-758.512C470.929,-778.861 306.647,-799.537 192,-729.492 90.6321,-667.559 76.303,-505.875 74.8355,-439.052"/>
<polygon fill="#da8601" stroke="#da8601" points="78.3319,-438.759 74.6971,-428.807 71.3326,-438.854 78.3319,-438.759"/>
<text text-anchor="middle" x="340" y="-781.292" font-family="Times,serif" font-size="14.00">1</text>
</g>
<!-- FloraChina.ChineseOakSpecies1\n\nFloraChina.ChineseOakSpecies1\nFloraMexico.OakGenus\n\nFloraChina.ChineseOakSpecies2\n\nFloraChina.ChineseOakSpecies2\nFloraMexico.OakGenus\n\nFloraChina.OakGenus\n\nFloraChina.OakGenus\nFloraMexico.MexicanOakSpecies1\n\nFloraChina.OakGenus\nFloraMexico.MexicanOakSpecies2\n\nFloraMexico.MexicanOakSpecies1\n\nFloraMexico.MexicanOakSpecies2\n\nFloraMexico.OakGenus\n\n -->
<g id="node6" class="node"><title>FloraChina.ChineseOakSpecies1\n\nFloraChina.ChineseOakSpecies1\nFloraMexico.OakGenus\n\nFloraChina.ChineseOakSpecies2\n\nFloraChina.ChineseOakSpecies2\nFloraMexico.OakGenus\n\nFloraChina.OakGenus\n\nFloraChina.OakGenus\nFloraMexico.MexicanOakSpecies1\n\nFloraChina.OakGenus\nFloraMexico.MexicanOakSpecies2\n\nFloraMexico.MexicanOakSpecies1\n\nFloraMexico.MexicanOakSpecies2\n\nFloraMexico.OakGenus\n\n</title>
<ellipse fill="#00bfff" stroke="black" cx="340" cy="-409.492" rx="147.571" ry="267.073"/>
<text text-anchor="middle" x="340" y="-583.292" font-family="Times,serif" font-size="14.00">FloraChina.ChineseOakSpecies1</text>
<text text-anchor="middle" x="340" y="-552.292" font-family="Times,serif" font-size="14.00">FloraChina.ChineseOakSpecies1</text>
<text text-anchor="middle" x="340" y="-537.292" font-family="Times,serif" font-size="14.00">FloraMexico.OakGenus</text>
<text text-anchor="middle" x="340" y="-506.292" font-family="Times,serif" font-size="14.00">FloraChina.ChineseOakSpecies2</text>
<text text-anchor="middle" x="340" y="-475.292" font-family="Times,serif" font-size="14.00">FloraChina.ChineseOakSpecies2</text>
<text text-anchor="middle" x="340" y="-460.292" font-family="Times,serif" font-size="14.00">FloraMexico.OakGenus</text>
<text text-anchor="middle" x="340" y="-429.292" font-family="Times,serif" font-size="14.00">FloraChina.OakGenus</text>
<text text-anchor="middle" x="340" y="-398.292" font-family="Times,serif" font-size="14.00">FloraChina.OakGenus</text>
<text text-anchor="middle" x="340" y="-383.292" font-family="Times,serif" font-size="14.00">FloraMexico.MexicanOakSpecies1</text>
<text text-anchor="middle" x="340" y="-352.292" font-family="Times,serif" font-size="14.00">FloraChina.OakGenus</text>
<text text-anchor="middle" x="340" y="-337.292" font-family="Times,serif" font-size="14.00">FloraMexico.MexicanOakSpecies2</text>
<text text-anchor="middle" x="340" y="-306.292" font-family="Times,serif" font-size="14.00">FloraMexico.MexicanOakSpecies1</text>
<text text-anchor="middle" x="340" y="-275.292" font-family="Times,serif" font-size="14.00">FloraMexico.MexicanOakSpecies2</text>
<text text-anchor="middle" x="340" y="-244.292" font-family="Times,serif" font-size="14.00">FloraMexico.OakGenus</text>
</g>
<!-- FloraChina.ChineseOakSpecies1\nFloraMexico.MexicanOakSpecies1&#45;&gt;FloraChina.ChineseOakSpecies1\n\nFloraChina.ChineseOakSpecies1\nFloraMexico.OakGenus\n\nFloraChina.ChineseOakSpecies2\n\nFloraChina.ChineseOakSpecies2\nFloraMexico.OakGenus\n\nFloraChina.OakGenus\n\nFloraChina.OakGenus\nFloraMexico.MexicanOakSpecies1\n\nFloraChina.OakGenus\nFloraMexico.MexicanOakSpecies2\n\nFloraMexico.MexicanOakSpecies1\n\nFloraMexico.MexicanOakSpecies2\n\nFloraMexico.OakGenus\n\n -->
<g id="edge2" class="edge"><title>FloraChina.ChineseOakSpecies1\nFloraMexico.MexicanOakSpecies1&#45;&gt;FloraChina.ChineseOakSpecies1\n\nFloraChina.ChineseOakSpecies1\nFloraMexico.OakGenus\n\nFloraChina.ChineseOakSpecies2\n\nFloraChina.ChineseOakSpecies2\nFloraMexico.OakGenus\n\nFloraChina.OakGenus\n\nFloraChina.OakGenus\nFloraMexico.MexicanOakSpecies1\n\nFloraChina.OakGenus\nFloraMexico.MexicanOakSpecies2\n\nFloraMexico.MexicanOakSpecies1\n\nFloraMexico.MexicanOakSpecies2\n\nFloraMexico.OakGenus\n\n</title>
<path fill="none" stroke="#fa550f" d="M615.012,-720.391C588.693,-696.126 542.585,-652.575 506,-612.492 493.485,-598.78 480.761,-584.272 468.212,-569.571"/>
<polygon fill="#fa550f" stroke="#fa550f" points="470.81,-567.223 461.668,-561.869 465.476,-571.756 470.81,-567.223"/>
<text text-anchor="middle" x="510" y="-623.292" font-family="Times,serif" font-size="14.00">4</text>
</g>
<!-- FloraChina.ChineseOakSpecies1\nFloraMexico.MexicanOakSpecies1&#45;&gt;FloraChina.ChineseOakSpecies1\n\nFloraChina.ChineseOakSpecies1\nFloraMexico.OakGenus\n\nFloraChina.ChineseOakSpecies2\n\nFloraChina.ChineseOakSpecies2\nFloraMexico.OakGenus\n\nFloraChina.OakGenus\n\nFloraChina.OakGenus\nFloraMexico.MexicanOakSpecies1\n\nFloraChina.OakGenus\nFloraMexico.MexicanOakSpecies2\n\nFloraMexico.MexicanOakSpecies1\n\nFloraMexico.MexicanOakSpecies2\n\nFloraMexico.OakGenus\n\n -->
<g id="edge4" class="edge"><title>FloraChina.ChineseOakSpecies1\nFloraMexico.MexicanOakSpecies1&#45;&gt;FloraChina.ChineseOakSpecies1\n\nFloraChina.ChineseOakSpecies1\nFloraMexico.OakGenus\n\nFloraChina.ChineseOakSpecies2\n\nFloraChina.ChineseOakSpecies2\nFloraMexico.OakGenus\n\nFloraChina.OakGenus\n\nFloraChina.OakGenus\nFloraMexico.MexicanOakSpecies1\n\nFloraChina.OakGenus\nFloraMexico.MexicanOakSpecies2\n\nFloraMexico.MexicanOakSpecies1\n\nFloraMexico.MexicanOakSpecies2\n\nFloraMexico.OakGenus\n\n</title>
<path fill="none" stroke="#fa550f" d="M620.556,-720.292C597.734,-692.088 553.443,-637.982 514,-593.492 501.553,-579.452 488.434,-564.965 475.214,-550.573"/>
<polygon fill="#fa550f" stroke="#fa550f" points="477.644,-548.044 468.295,-543.058 472.494,-552.785 477.644,-548.044"/>
<text text-anchor="middle" x="510" y="-597.292" font-family="Times,serif" font-size="14.00">4</text>
</g>
<!-- FloraChina.ChineseOakSpecies1\nFloraMexico.MexicanOakSpecies2 -->
<g id="node2" class="node"><title>FloraChina.ChineseOakSpecies1\nFloraMexico.MexicanOakSpecies2</title>
<path fill="#eeeeee" stroke="black" d="M729.5,-485.492C729.5,-485.492 544.5,-485.492 544.5,-485.492 538.5,-485.492 532.5,-479.492 532.5,-473.492 532.5,-473.492 532.5,-459.492 532.5,-459.492 532.5,-453.492 538.5,-447.492 544.5,-447.492 544.5,-447.492 729.5,-447.492 729.5,-447.492 735.5,-447.492 741.5,-453.492 741.5,-459.492 741.5,-459.492 741.5,-473.492 741.5,-473.492 741.5,-479.492 735.5,-485.492 729.5,-485.492"/>
<text text-anchor="middle" x="637" y="-470.292" font-family="Times,serif" font-size="14.00">FloraChina.ChineseOakSpecies1</text>
<text text-anchor="middle" x="637" y="-455.292" font-family="Times,serif" font-size="14.00">FloraMexico.MexicanOakSpecies2</text>
</g>
<!-- FloraChina.ChineseOakSpecies1\nFloraMexico.MexicanOakSpecies2&#45;&gt;FloraChina.OakGenus\nFloraMexico.OakGenus -->
<g id="edge6" class="edge"><title>FloraChina.ChineseOakSpecies1\nFloraMexico.MexicanOakSpecies2&#45;&gt;FloraChina.OakGenus\nFloraMexico.OakGenus</title>
<path fill="none" stroke="#da8601" d="M629.95,-485.809C614.684,-530.794 569.865,-642.01 488,-685.492 429.908,-716.347 246.843,-721.81 192,-685.492 107.033,-629.224 83.5951,-497.557 77.2709,-438.755"/>
<polygon fill="#da8601" stroke="#da8601" points="80.7399,-438.268 76.2782,-428.658 73.7735,-438.953 80.7399,-438.268"/>
<text text-anchor="middle" x="340" y="-714.292" font-family="Times,serif" font-size="14.00">1</text>
</g>
<!-- FloraChina.ChineseOakSpecies1\nFloraMexico.MexicanOakSpecies2&#45;&gt;FloraChina.ChineseOakSpecies1\n\nFloraChina.ChineseOakSpecies1\nFloraMexico.OakGenus\n\nFloraChina.ChineseOakSpecies2\n\nFloraChina.ChineseOakSpecies2\nFloraMexico.OakGenus\n\nFloraChina.OakGenus\n\nFloraChina.OakGenus\nFloraMexico.MexicanOakSpecies1\n\nFloraChina.OakGenus\nFloraMexico.MexicanOakSpecies2\n\nFloraMexico.MexicanOakSpecies1\n\nFloraMexico.MexicanOakSpecies2\n\nFloraMexico.OakGenus\n\n -->
<g id="edge5" class="edge"><title>FloraChina.ChineseOakSpecies1\nFloraMexico.MexicanOakSpecies2&#45;&gt;FloraChina.ChineseOakSpecies1\n\nFloraChina.ChineseOakSpecies1\nFloraMexico.OakGenus\n\nFloraChina.ChineseOakSpecies2\n\nFloraChina.ChineseOakSpecies2\nFloraMexico.OakGenus\n\nFloraChina.OakGenus\n\nFloraChina.OakGenus\nFloraMexico.MexicanOakSpecies1\n\nFloraChina.OakGenus\nFloraMexico.MexicanOakSpecies2\n\nFloraMexico.MexicanOakSpecies1\n\nFloraMexico.MexicanOakSpecies2\n\nFloraMexico.OakGenus\n\n</title>
<path fill="none" stroke="#fa550f" d="M580.667,-447.416C559.962,-440.889 536.104,-434.082 514,-429.492 508.634,-428.377 503.161,-427.32 497.623,-426.318"/>
<polygon fill="#fa550f" stroke="#fa550f" points="498.045,-422.839 487.593,-424.574 496.845,-429.736 498.045,-422.839"/>
<text text-anchor="middle" x="510" y="-433.292" font-family="Times,serif" font-size="14.00">4</text>
</g>
<!-- FloraChina.ChineseOakSpecies1\nFloraMexico.MexicanOakSpecies2&#45;&gt;FloraChina.ChineseOakSpecies1\n\nFloraChina.ChineseOakSpecies1\nFloraMexico.OakGenus\n\nFloraChina.ChineseOakSpecies2\n\nFloraChina.ChineseOakSpecies2\nFloraMexico.OakGenus\n\nFloraChina.OakGenus\n\nFloraChina.OakGenus\nFloraMexico.MexicanOakSpecies1\n\nFloraChina.OakGenus\nFloraMexico.MexicanOakSpecies2\n\nFloraMexico.MexicanOakSpecies1\n\nFloraMexico.MexicanOakSpecies2\n\nFloraMexico.OakGenus\n\n -->
<g id="edge7" class="edge"><title>FloraChina.ChineseOakSpecies1\nFloraMexico.MexicanOakSpecies2&#45;&gt;FloraChina.ChineseOakSpecies1\n\nFloraChina.ChineseOakSpecies1\nFloraMexico.OakGenus\n\nFloraChina.ChineseOakSpecies2\n\nFloraChina.ChineseOakSpecies2\nFloraMexico.OakGenus\n\nFloraChina.OakGenus\n\nFloraChina.OakGenus\nFloraMexico.MexicanOakSpecies1\n\nFloraChina.OakGenus\nFloraMexico.MexicanOakSpecies2\n\nFloraMexico.MexicanOakSpecies1\n\nFloraMexico.MexicanOakSpecies2\n\nFloraMexico.OakGenus\n\n</title>
<path fill="none" stroke="#fa550f" d="M532.331,-449.345C523.417,-447.75 514.545,-446.12 506,-444.492 503.101,-443.939 500.175,-443.376 497.227,-442.803"/>
<polygon fill="#fa550f" stroke="#fa550f" points="497.622,-439.314 487.136,-440.825 496.276,-446.184 497.622,-439.314"/>
<text text-anchor="middle" x="510" y="-449.292" font-family="Times,serif" font-size="14.00">4</text>
</g>
<!-- FloraChina.ChineseOakSpecies2\nFloraMexico.MexicanOakSpecies1 -->
<g id="node3" class="node"><title>FloraChina.ChineseOakSpecies2\nFloraMexico.MexicanOakSpecies1</title>
<path fill="#eeeeee" stroke="black" d="M729.5,-371.492C729.5,-371.492 544.5,-371.492 544.5,-371.492 538.5,-371.492 532.5,-365.492 532.5,-359.492 532.5,-359.492 532.5,-345.492 532.5,-345.492 532.5,-339.492 538.5,-333.492 544.5,-333.492 544.5,-333.492 729.5,-333.492 729.5,-333.492 735.5,-333.492 741.5,-339.492 741.5,-345.492 741.5,-345.492 741.5,-359.492 741.5,-359.492 741.5,-365.492 735.5,-371.492 729.5,-371.492"/>
<text text-anchor="middle" x="637" y="-356.292" font-family="Times,serif" font-size="14.00">FloraChina.ChineseOakSpecies2</text>
<text text-anchor="middle" x="637" y="-341.292" font-family="Times,serif" font-size="14.00">FloraMexico.MexicanOakSpecies1</text>
</g>
<!-- FloraChina.ChineseOakSpecies2\nFloraMexico.MexicanOakSpecies1&#45;&gt;FloraChina.OakGenus\nFloraMexico.OakGenus -->
<g id="edge10" class="edge"><title>FloraChina.ChineseOakSpecies2\nFloraMexico.MexicanOakSpecies1&#45;&gt;FloraChina.OakGenus\nFloraMexico.OakGenus</title>
<path fill="none" stroke="#da8601" d="M630.793,-333.305C616.876,-286.302 573.895,-165.798 488,-118.492 372.765,-55.0261 301.002,-44.8344 192,-118.492 103.047,-178.6 81.7121,-318.729 76.6038,-379.967"/>
<polygon fill="#da8601" stroke="#da8601" points="73.1008,-379.878 75.848,-390.11 80.0815,-380.398 73.1008,-379.878"/>
<text text-anchor="middle" x="340" y="-122.292" font-family="Times,serif" font-size="14.00">1</text>
</g>
<!-- FloraChina.ChineseOakSpecies2\nFloraMexico.MexicanOakSpecies1&#45;&gt;FloraChina.ChineseOakSpecies1\n\nFloraChina.ChineseOakSpecies1\nFloraMexico.OakGenus\n\nFloraChina.ChineseOakSpecies2\n\nFloraChina.ChineseOakSpecies2\nFloraMexico.OakGenus\n\nFloraChina.OakGenus\n\nFloraChina.OakGenus\nFloraMexico.MexicanOakSpecies1\n\nFloraChina.OakGenus\nFloraMexico.MexicanOakSpecies2\n\nFloraMexico.MexicanOakSpecies1\n\nFloraMexico.MexicanOakSpecies2\n\nFloraMexico.OakGenus\n\n -->
<g id="edge9" class="edge"><title>FloraChina.ChineseOakSpecies2\nFloraMexico.MexicanOakSpecies1&#45;&gt;FloraChina.ChineseOakSpecies1\n\nFloraChina.ChineseOakSpecies1\nFloraMexico.OakGenus\n\nFloraChina.ChineseOakSpecies2\n\nFloraChina.ChineseOakSpecies2\nFloraMexico.OakGenus\n\nFloraChina.OakGenus\n\nFloraChina.OakGenus\nFloraMexico.MexicanOakSpecies1\n\nFloraChina.OakGenus\nFloraMexico.MexicanOakSpecies2\n\nFloraMexico.MexicanOakSpecies1\n\nFloraMexico.MexicanOakSpecies2\n\nFloraMexico.OakGenus\n\n</title>
<path fill="none" stroke="#fa550f" d="M537.359,-371.551C524.353,-374.064 510.775,-376.688 497.098,-379.33"/>
<polygon fill="#fa550f" stroke="#fa550f" points="496.282,-375.923 487.128,-381.257 497.611,-382.796 496.282,-375.923"/>
<text text-anchor="middle" x="510" y="-381.292" font-family="Times,serif" font-size="14.00">4</text>
</g>
<!-- FloraChina.ChineseOakSpecies2\nFloraMexico.MexicanOakSpecies1&#45;&gt;FloraChina.ChineseOakSpecies1\n\nFloraChina.ChineseOakSpecies1\nFloraMexico.OakGenus\n\nFloraChina.ChineseOakSpecies2\n\nFloraChina.ChineseOakSpecies2\nFloraMexico.OakGenus\n\nFloraChina.OakGenus\n\nFloraChina.OakGenus\nFloraMexico.MexicanOakSpecies1\n\nFloraChina.OakGenus\nFloraMexico.MexicanOakSpecies2\n\nFloraMexico.MexicanOakSpecies1\n\nFloraMexico.MexicanOakSpecies2\n\nFloraMexico.OakGenus\n\n -->
<g id="edge11" class="edge"><title>FloraChina.ChineseOakSpecies2\nFloraMexico.MexicanOakSpecies1&#45;&gt;FloraChina.ChineseOakSpecies1\n\nFloraChina.ChineseOakSpecies1\nFloraMexico.OakGenus\n\nFloraChina.ChineseOakSpecies2\n\nFloraChina.ChineseOakSpecies2\nFloraMexico.OakGenus\n\nFloraChina.OakGenus\n\nFloraChina.OakGenus\nFloraMexico.MexicanOakSpecies1\n\nFloraChina.OakGenus\nFloraMexico.MexicanOakSpecies2\n\nFloraMexico.MexicanOakSpecies1\n\nFloraMexico.MexicanOakSpecies2\n\nFloraMexico.OakGenus\n\n</title>
<path fill="none" stroke="#fa550f" d="M532.492,-354.884C523.5,-355.812 514.569,-356.995 506,-358.492 502.573,-359.09 499.118,-359.739 495.645,-360.433"/>
<polygon fill="#fa550f" stroke="#fa550f" points="494.879,-357.017 485.814,-362.502 496.321,-363.867 494.879,-357.017"/>
<text text-anchor="middle" x="510" y="-362.292" font-family="Times,serif" font-size="14.00">4</text>
</g>
<!-- FloraChina.ChineseOakSpecies2\nFloraMexico.MexicanOakSpecies2 -->
<g id="node4" class="node"><title>FloraChina.ChineseOakSpecies2\nFloraMexico.MexicanOakSpecies2</title>
<path fill="#eeeeee" stroke="black" d="M729.5,-85.4915C729.5,-85.4915 544.5,-85.4915 544.5,-85.4915 538.5,-85.4915 532.5,-79.4915 532.5,-73.4915 532.5,-73.4915 532.5,-59.4915 532.5,-59.4915 532.5,-53.4915 538.5,-47.4915 544.5,-47.4915 544.5,-47.4915 729.5,-47.4915 729.5,-47.4915 735.5,-47.4915 741.5,-53.4915 741.5,-59.4915 741.5,-59.4915 741.5,-73.4915 741.5,-73.4915 741.5,-79.4915 735.5,-85.4915 729.5,-85.4915"/>
<text text-anchor="middle" x="637" y="-70.2915" font-family="Times,serif" font-size="14.00">FloraChina.ChineseOakSpecies2</text>
<text text-anchor="middle" x="637" y="-55.2915" font-family="Times,serif" font-size="14.00">FloraMexico.MexicanOakSpecies2</text>
</g>
<!-- FloraChina.ChineseOakSpecies2\nFloraMexico.MexicanOakSpecies2&#45;&gt;FloraChina.OakGenus\nFloraMexico.OakGenus -->
<g id="edge13" class="edge"><title>FloraChina.ChineseOakSpecies2\nFloraMexico.MexicanOakSpecies2&#45;&gt;FloraChina.OakGenus\nFloraMexico.OakGenus</title>
<path fill="none" stroke="#da8601" d="M589.764,-47.4335C502.628,-14.8802 312.088,39.9003 192,-47.4915 83.2957,-126.599 73.4881,-308.769 74.0323,-380.094"/>
<polygon fill="#da8601" stroke="#da8601" points="70.5338,-380.228 74.1859,-390.173 77.533,-380.121 70.5338,-380.228"/>
<text text-anchor="middle" x="340" y="-51.2915" font-family="Times,serif" font-size="14.00">1</text>
</g>
<!-- FloraChina.ChineseOakSpecies2\nFloraMexico.MexicanOakSpecies2&#45;&gt;FloraChina.ChineseOakSpecies1\n\nFloraChina.ChineseOakSpecies1\nFloraMexico.OakGenus\n\nFloraChina.ChineseOakSpecies2\n\nFloraChina.ChineseOakSpecies2\nFloraMexico.OakGenus\n\nFloraChina.OakGenus\n\nFloraChina.OakGenus\nFloraMexico.MexicanOakSpecies1\n\nFloraChina.OakGenus\nFloraMexico.MexicanOakSpecies2\n\nFloraMexico.MexicanOakSpecies1\n\nFloraMexico.MexicanOakSpecies2\n\nFloraMexico.OakGenus\n\n -->
<g id="edge12" class="edge"><title>FloraChina.ChineseOakSpecies2\nFloraMexico.MexicanOakSpecies2&#45;&gt;FloraChina.ChineseOakSpecies1\n\nFloraChina.ChineseOakSpecies1\nFloraMexico.OakGenus\n\nFloraChina.ChineseOakSpecies2\n\nFloraChina.ChineseOakSpecies2\nFloraMexico.OakGenus\n\nFloraChina.OakGenus\n\nFloraChina.OakGenus\nFloraMexico.MexicanOakSpecies1\n\nFloraChina.OakGenus\nFloraMexico.MexicanOakSpecies2\n\nFloraMexico.MexicanOakSpecies1\n\nFloraMexico.MexicanOakSpecies2\n\nFloraMexico.OakGenus\n\n</title>
<path fill="none" stroke="#fa550f" d="M619.294,-85.9154C590.54,-119.348 529.202,-190.666 471.411,-257.861"/>
<polygon fill="#fa550f" stroke="#fa550f" points="468.615,-255.745 464.748,-265.609 473.922,-260.309 468.615,-255.745"/>
<text text-anchor="middle" x="510" y="-220.292" font-family="Times,serif" font-size="14.00">4</text>
</g>
<!-- FloraChina.ChineseOakSpecies2\nFloraMexico.MexicanOakSpecies2&#45;&gt;FloraChina.ChineseOakSpecies1\n\nFloraChina.ChineseOakSpecies1\nFloraMexico.OakGenus\n\nFloraChina.ChineseOakSpecies2\n\nFloraChina.ChineseOakSpecies2\nFloraMexico.OakGenus\n\nFloraChina.OakGenus\n\nFloraChina.OakGenus\nFloraMexico.MexicanOakSpecies1\n\nFloraChina.OakGenus\nFloraMexico.MexicanOakSpecies2\n\nFloraMexico.MexicanOakSpecies1\n\nFloraMexico.MexicanOakSpecies2\n\nFloraMexico.OakGenus\n\n -->
<g id="edge14" class="edge"><title>FloraChina.ChineseOakSpecies2\nFloraMexico.MexicanOakSpecies2&#45;&gt;FloraChina.ChineseOakSpecies1\n\nFloraChina.ChineseOakSpecies1\nFloraMexico.OakGenus\n\nFloraChina.ChineseOakSpecies2\n\nFloraChina.ChineseOakSpecies2\nFloraMexico.OakGenus\n\nFloraChina.OakGenus\n\nFloraChina.OakGenus\nFloraMexico.MexicanOakSpecies1\n\nFloraChina.OakGenus\nFloraMexico.MexicanOakSpecies2\n\nFloraMexico.MexicanOakSpecies1\n\nFloraMexico.MexicanOakSpecies2\n\nFloraMexico.OakGenus\n\n</title>
<path fill="none" stroke="#fa550f" d="M615.411,-85.7487C589.109,-110.679 542.611,-155.872 506,-197.492 492.764,-212.539 479.322,-228.507 466.117,-244.664"/>
<polygon fill="#fa550f" stroke="#fa550f" points="463.251,-242.641 459.656,-252.607 468.681,-247.058 463.251,-242.641"/>
<text text-anchor="middle" x="510" y="-201.292" font-family="Times,serif" font-size="14.00">4</text>
</g>
<!-- FloraChina.ChineseOakSpecies1\n\nFloraChina.ChineseOakSpecies1\nFloraMexico.OakGenus\n\nFloraChina.ChineseOakSpecies2\n\nFloraChina.ChineseOakSpecies2\nFloraMexico.OakGenus\n\nFloraChina.OakGenus\n\nFloraChina.OakGenus\nFloraMexico.MexicanOakSpecies1\n\nFloraChina.OakGenus\nFloraMexico.MexicanOakSpecies2\n\nFloraMexico.MexicanOakSpecies1\n\nFloraMexico.MexicanOakSpecies2\n\nFloraMexico.OakGenus\n\n&#45;&gt;FloraChina.OakGenus\nFloraMexico.OakGenus -->
<g id="edge1" class="edge"><title>FloraChina.ChineseOakSpecies1\n\nFloraChina.ChineseOakSpecies1\nFloraMexico.OakGenus\n\nFloraChina.ChineseOakSpecies2\n\nFloraChina.ChineseOakSpecies2\nFloraMexico.OakGenus\n\nFloraChina.OakGenus\n\nFloraChina.OakGenus\nFloraMexico.MexicanOakSpecies1\n\nFloraChina.OakGenus\nFloraMexico.MexicanOakSpecies2\n\nFloraMexico.MexicanOakSpecies1\n\nFloraMexico.MexicanOakSpecies2\n\nFloraMexico.OakGenus\n\n&#45;&gt;FloraChina.OakGenus\nFloraMexico.OakGenus</title>
<path fill="none" stroke="#fa450f" d="M193.235,-447.08C184.025,-446.947 174.888,-446.142 166,-444.492 152.206,-441.93 137.806,-437.359 124.637,-432.347"/>
<polygon fill="#fa450f" stroke="#fa450f" points="125.878,-429.074 115.292,-428.643 123.298,-435.582 125.878,-429.074"/>
<text text-anchor="middle" x="170" y="-448.292" font-family="Times,serif" font-size="14.00">5</text>
</g>
<!-- FloraChina.ChineseOakSpecies1\n\nFloraChina.ChineseOakSpecies1\nFloraMexico.OakGenus\n\nFloraChina.ChineseOakSpecies2\n\nFloraChina.ChineseOakSpecies2\nFloraMexico.OakGenus\n\nFloraChina.OakGenus\n\nFloraChina.OakGenus\nFloraMexico.MexicanOakSpecies1\n\nFloraChina.OakGenus\nFloraMexico.MexicanOakSpecies2\n\nFloraMexico.MexicanOakSpecies1\n\nFloraMexico.MexicanOakSpecies2\n\nFloraMexico.OakGenus\n\n&#45;&gt;FloraChina.OakGenus\nFloraMexico.OakGenus -->
<g id="edge8" class="edge"><title>FloraChina.ChineseOakSpecies1\n\nFloraChina.ChineseOakSpecies1\nFloraMexico.OakGenus\n\nFloraChina.ChineseOakSpecies2\n\nFloraChina.ChineseOakSpecies2\nFloraMexico.OakGenus\n\nFloraChina.OakGenus\n\nFloraChina.OakGenus\nFloraMexico.MexicanOakSpecies1\n\nFloraChina.OakGenus\nFloraMexico.MexicanOakSpecies2\n\nFloraMexico.MexicanOakSpecies1\n\nFloraMexico.MexicanOakSpecies2\n\nFloraMexico.OakGenus\n\n&#45;&gt;FloraChina.OakGenus\nFloraMexico.OakGenus</title>
<path fill="none" stroke="#fa450f" d="M191.947,-409.492C180.463,-409.492 169.132,-409.492 158.31,-409.492"/>
<polygon fill="#fa450f" stroke="#fa450f" points="158.101,-405.992 148.101,-409.492 158.101,-412.992 158.101,-405.992"/>
<text text-anchor="middle" x="170" y="-413.292" font-family="Times,serif" font-size="14.00">5</text>
</g>
<!-- FloraChina.ChineseOakSpecies1\n\nFloraChina.ChineseOakSpecies1\nFloraMexico.OakGenus\n\nFloraChina.ChineseOakSpecies2\n\nFloraChina.ChineseOakSpecies2\nFloraMexico.OakGenus\n\nFloraChina.OakGenus\n\nFloraChina.OakGenus\nFloraMexico.MexicanOakSpecies1\n\nFloraChina.OakGenus\nFloraMexico.MexicanOakSpecies2\n\nFloraMexico.MexicanOakSpecies1\n\nFloraMexico.MexicanOakSpecies2\n\nFloraMexico.OakGenus\n\n&#45;&gt;FloraChina.OakGenus\nFloraMexico.OakGenus -->
<g id="edge15" class="edge"><title>FloraChina.ChineseOakSpecies1\n\nFloraChina.ChineseOakSpecies1\nFloraMexico.OakGenus\n\nFloraChina.ChineseOakSpecies2\n\nFloraChina.ChineseOakSpecies2\nFloraMexico.OakGenus\n\nFloraChina.OakGenus\n\nFloraChina.OakGenus\nFloraMexico.MexicanOakSpecies1\n\nFloraChina.OakGenus\nFloraMexico.MexicanOakSpecies2\n\nFloraMexico.MexicanOakSpecies1\n\nFloraMexico.MexicanOakSpecies2\n\nFloraMexico.OakGenus\n\n&#45;&gt;FloraChina.OakGenus\nFloraMexico.OakGenus</title>
<path fill="none" stroke="#fa450f" d="M192.249,-389.05C183.369,-389.155 174.566,-389.607 166,-390.492 163.472,-390.753 160.91,-391.054 158.328,-391.388"/>
<polygon fill="#fa450f" stroke="#fa450f" points="157.7,-387.943 148.303,-392.836 158.7,-394.871 157.7,-387.943"/>
<text text-anchor="middle" x="170" y="-394.292" font-family="Times,serif" font-size="14.00">5</text>
</g>
<!-- FloraChina.ChineseOakSpecies1\n\nFloraChina.ChineseOakSpecies1\nFloraMexico.OakGenus\n\nFloraChina.ChineseOakSpecies2\n\nFloraChina.ChineseOakSpecies2\nFloraMexico.OakGenus\n\nFloraChina.OakGenus\n\nFloraChina.OakGenus\nFloraMexico.MexicanOakSpecies1\n\nFloraChina.OakGenus\nFloraMexico.MexicanOakSpecies2\n\nFloraMexico.MexicanOakSpecies1\n\nFloraMexico.MexicanOakSpecies2\n\nFloraMexico.OakGenus\n\n&#45;&gt;FloraChina.OakGenus\nFloraMexico.OakGenus -->
<g id="edge16" class="edge"><title>FloraChina.ChineseOakSpecies1\n\nFloraChina.ChineseOakSpecies1\nFloraMexico.OakGenus\n\nFloraChina.ChineseOakSpecies2\n\nFloraChina.ChineseOakSpecies2\nFloraMexico.OakGenus\n\nFloraChina.OakGenus\n\nFloraChina.OakGenus\nFloraMexico.MexicanOakSpecies1\n\nFloraChina.OakGenus\nFloraMexico.MexicanOakSpecies2\n\nFloraMexico.MexicanOakSpecies1\n\nFloraMexico.MexicanOakSpecies2\n\nFloraMexico.OakGenus\n\n&#45;&gt;FloraChina.OakGenus\nFloraMexico.OakGenus</title>
<path fill="none" stroke="#fa450f" d="M193.725,-367.631C184.351,-367.748 175.048,-368.634 166,-370.492 150.254,-373.723 133.869,-379.798 119.413,-386.208"/>
<polygon fill="#fa450f" stroke="#fa450f" points="117.837,-383.08 110.218,-390.442 120.765,-389.438 117.837,-383.08"/>
<text text-anchor="middle" x="170" y="-374.292" font-family="Times,serif" font-size="14.00">5</text>
</g>
</g>
</svg>
