<?xml version="1.0" encoding="UTF-8" standalone="no"?>
<!DOCTYPE svg PUBLIC "-//W3C//DTD SVG 1.1//EN"
 "http://www.w3.org/Graphics/SVG/1.1/DTD/svg11.dtd">
<!-- Generated by graphviz version 2.36.0 (20140111.2315)
 -->
<!-- Title: %3 Pages: 1 -->
<svg width="472pt" height="276pt"
 viewBox="0.00 0.00 472.00 276.00" xmlns="http://www.w3.org/2000/svg" xmlns:xlink="http://www.w3.org/1999/xlink">
<g id="graph0" class="graph" transform="scale(1 1) rotate(0) translate(4 272)">
<title>%3</title>
<polygon fill="white" stroke="none" points="-4,4 -4,-272 468,-272 468,4 -4,4"/>
<!-- 1 -->
<g id="node1" class="node"><title>1</title>
<path fill="#a0ffa0" stroke="#006400" d="M211,-196C211,-196 181,-196 181,-196 175,-196 169,-190 169,-184 169,-184 169,-172 169,-172 169,-166 175,-160 181,-160 181,-160 211,-160 211,-160 217,-160 223,-166 223,-172 223,-172 223,-184 223,-184 223,-190 217,-196 211,-196"/>
<text text-anchor="middle" x="196" y="-174.3" font-family="Helvetica,sans-Serif" font-stretch="condensed" font-size="14.00">2</text>
</g>
<!-- 3 -->
<g id="node3" class="node"><title>3</title>
<polygon fill="none" stroke="#006400" stroke-dasharray="5,2" points="259,-124 205,-124 205,-88 259,-88 259,-124"/>
</g>
<!-- 1&#45;&gt;3 -->
<g id="edge3" class="edge"><title>1&#45;&gt;3</title>
<path fill="none" stroke="#006400" stroke-dasharray="5,2" d="M204.899,-159.697C208.997,-151.728 213.949,-142.1 218.493,-133.264"/>
<polygon fill="#006400" stroke="#006400" points="221.742,-134.598 223.203,-124.104 215.517,-131.396 221.742,-134.598"/>
</g>
<!-- 2 -->
<g id="node2" class="node"><title>2</title>
<path fill="#a0ffa0" stroke="#006400" d="M283,-196C283,-196 253,-196 253,-196 247,-196 241,-190 241,-184 241,-184 241,-172 241,-172 241,-166 247,-160 253,-160 253,-160 283,-160 283,-160 289,-160 295,-166 295,-172 295,-172 295,-184 295,-184 295,-190 289,-196 283,-196"/>
<text text-anchor="middle" x="268" y="-174.3" font-family="Helvetica,sans-Serif" font-stretch="condensed" font-size="14.00">1</text>
</g>
<!-- 2&#45;&gt;3 -->
<g id="edge4" class="edge"><title>2&#45;&gt;3</title>
<path fill="none" stroke="#006400" stroke-dasharray="5,2" d="M259.101,-159.697C255.003,-151.728 250.051,-142.1 245.507,-133.264"/>
<polygon fill="#006400" stroke="#006400" points="248.483,-131.396 240.797,-124.104 242.258,-134.598 248.483,-131.396"/>
</g>
<!-- 0 -->
<g id="node4" class="node"><title>0</title>
<polygon fill="#ffb0b0" stroke="#ff0000" points="259,-242.544 259,-257.456 243.184,-268 220.816,-268 205,-257.456 205,-242.544 220.816,-232 243.184,-232 259,-242.544"/>
<text text-anchor="middle" x="232" y="-246.3" font-family="Helvetica,sans-Serif" font-stretch="condensed" font-size="14.00">1, 2</text>
</g>
<!-- 0&#45;&gt;1 -->
<g id="edge1" class="edge"><title>0&#45;&gt;1</title>
<path fill="none" stroke="#0000ff" d="M223.101,-231.697C217.521,-220.846 210.357,-206.917 204.797,-196.104"/>
</g>
<!-- 0&#45;&gt;2 -->
<g id="edge2" class="edge"><title>0&#45;&gt;2</title>
<path fill="none" stroke="#0000ff" d="M240.899,-231.697C246.479,-220.846 253.643,-206.917 259.203,-196.104"/>
</g>
<!-- Legend -->
<g id="node5" class="node"><title>Legend</title>
<polygon fill="none" stroke="black" points="464.25,-51.5 -0.25,-51.5 -0.25,-0.5 464.25,-0.5 464.25,-51.5"/>
<polygon fill="none" stroke="black" points="0,-25 0,-51 18,-51 18,-25 0,-25"/>
<text text-anchor="start" x="5.5" y="-34.3" font-family="Helvetica,sans-Serif" font-stretch="condensed" font-size="14.00">1</text>
<polygon fill="none" stroke="black" points="18,-25 18,-51 465,-51 465,-25 18,-25"/>
<text text-anchor="start" x="23" y="-34.3" font-family="Helvetica,sans-Serif" font-stretch="condensed" font-size="14.00">FloraChina.ChineseOakSpecies1 is_included_in FloraMexico.MexicanOakSpecies1</text>
<polygon fill="none" stroke="black" points="0,-0 0,-25 18,-25 18,-0 0,-0"/>
<text text-anchor="start" x="5.5" y="-8.8" font-family="Helvetica,sans-Serif" font-stretch="condensed" font-size="14.00">2</text>
<polygon fill="none" stroke="black" points="18,-0 18,-25 465,-25 465,-0 18,-0"/>
<text text-anchor="start" x="43" y="-8.8" font-family="Helvetica,sans-Serif" font-stretch="condensed" font-size="14.00">FloraChina.ChineseOakSpecies2 equals FloraMexico.MexicanOakSpecies1</text>
</g>
</g>
</svg>
