<?xml version="1.0" encoding="UTF-8" standalone="no"?>
<!DOCTYPE svg PUBLIC "-//W3C//DTD SVG 1.1//EN"
 "http://www.w3.org/Graphics/SVG/1.1/DTD/svg11.dtd">
<!-- Generated by graphviz version 2.36.0 (20140111.2315)
 -->
<!-- Title: %3 Pages: 1 -->
<svg width="410pt" height="333pt"
 viewBox="0.00 0.00 410.00 333.00" xmlns="http://www.w3.org/2000/svg" xmlns:xlink="http://www.w3.org/1999/xlink">
<g id="graph0" class="graph" transform="scale(1 1) rotate(0) translate(4 329)">
<title>%3</title>
<polygon fill="white" stroke="none" points="-4,4 -4,-329 406,-329 406,4 -4,4"/>
<!-- pw4 -->
<g id="node1" class="node"><title>pw4</title>
<path fill="#ffffcc" stroke="black" d="M42,-138.284C42,-138.284 12,-138.284 12,-138.284 6,-138.284 -2.84217e-14,-132.284 -2.84217e-14,-126.284 -2.84217e-14,-126.284 -2.84217e-14,-114.284 -2.84217e-14,-114.284 -2.84217e-14,-108.284 6,-102.284 12,-102.284 12,-102.284 42,-102.284 42,-102.284 48,-102.284 54,-108.284 54,-114.284 54,-114.284 54,-126.284 54,-126.284 54,-132.284 48,-138.284 42,-138.284"/>
<text text-anchor="middle" x="27" y="-116.584" font-family="Times,serif" font-size="14.00">pw4</text>
</g>
<!-- pw2 -->
<g id="node2" class="node"><title>pw2</title>
<path fill="#ffffcc" stroke="black" d="M133.897,-247.944C133.897,-247.944 103.897,-247.944 103.897,-247.944 97.8968,-247.944 91.8968,-241.944 91.8968,-235.944 91.8968,-235.944 91.8968,-223.944 91.8968,-223.944 91.8968,-217.944 97.8968,-211.944 103.897,-211.944 103.897,-211.944 133.897,-211.944 133.897,-211.944 139.897,-211.944 145.897,-217.944 145.897,-223.944 145.897,-223.944 145.897,-235.944 145.897,-235.944 145.897,-241.944 139.897,-247.944 133.897,-247.944"/>
<text text-anchor="middle" x="118.897" y="-226.244" font-family="Times,serif" font-size="14.00">pw2</text>
</g>
<!-- pw4&#45;&gt;pw2 -->
<g id="edge5" class="edge"><title>pw4&#45;&gt;pw2</title>
<path fill="none" stroke="#000000" d="M42.1749,-138.392C57.14,-156.25 80.1654,-183.726 97.0888,-203.921"/>
<polygon fill="#000000" stroke="#000000" points="94.5937,-206.392 103.699,-211.809 99.9589,-201.896 94.5937,-206.392"/>
<text text-anchor="middle" x="66.1319" y="-174.956" font-family="Times,serif" font-size="14.00">2</text>
</g>
<!-- pw3 -->
<g id="node3" class="node"><title>pw3</title>
<path fill="#ffffcc" stroke="black" d="M221.694,-36C221.694,-36 191.694,-36 191.694,-36 185.694,-36 179.694,-30 179.694,-24 179.694,-24 179.694,-12 179.694,-12 179.694,-6 185.694,2.84217e-14 191.694,2.84217e-14 191.694,2.84217e-14 221.694,2.84217e-14 221.694,2.84217e-14 227.694,2.84217e-14 233.694,-6 233.694,-12 233.694,-12 233.694,-24 233.694,-24 233.694,-30 227.694,-36 221.694,-36"/>
<text text-anchor="middle" x="206.694" y="-14.3" font-family="Times,serif" font-size="14.00">pw3</text>
</g>
<!-- pw4&#45;&gt;pw3 -->
<g id="edge9" class="edge"><title>pw4&#45;&gt;pw3</title>
<path fill="none" stroke="#000000" d="M54.2916,-104.749C85.3855,-87.0504 136.323,-58.0559 170.659,-38.5114"/>
<polygon fill="#000000" stroke="#000000" points="172.481,-41.5017 179.44,-33.5131 169.018,-35.4182 172.481,-41.5017"/>
<text text-anchor="middle" x="108.975" y="-75.4304" font-family="Times,serif" font-size="14.00">3</text>
</g>
<!-- pw1 -->
<g id="node5" class="node"><title>pw1</title>
<path fill="#ffffcc" stroke="black" d="M349.135,-101.151C349.135,-101.151 319.135,-101.151 319.135,-101.151 313.135,-101.151 307.135,-95.1513 307.135,-89.1513 307.135,-89.1513 307.135,-77.1513 307.135,-77.1513 307.135,-71.1513 313.135,-65.1513 319.135,-65.1513 319.135,-65.1513 349.135,-65.1513 349.135,-65.1513 355.135,-65.1513 361.135,-71.1513 361.135,-77.1513 361.135,-77.1513 361.135,-89.1513 361.135,-89.1513 361.135,-95.1513 355.135,-101.151 349.135,-101.151"/>
<text text-anchor="middle" x="334.135" y="-79.4513" font-family="Times,serif" font-size="14.00">pw1</text>
</g>
<!-- pw4&#45;&gt;pw1 -->
<g id="edge4" class="edge"><title>pw4&#45;&gt;pw1</title>
<path fill="none" stroke="#000000" d="M54.2562,-116.989C109.353,-110.328 234.05,-95.2517 296.713,-87.6757"/>
<polygon fill="#000000" stroke="#000000" points="297.432,-91.1142 306.94,-86.4392 296.592,-84.1649 297.432,-91.1142"/>
<text text-anchor="middle" x="171.984" y="-106.132" font-family="Times,serif" font-size="14.00">4</text>
</g>
<!-- pw0 -->
<g id="node4" class="node"><title>pw0</title>
<path fill="#ffffcc" stroke="black" d="M267.798,-308.339C267.798,-308.339 237.798,-308.339 237.798,-308.339 231.798,-308.339 225.798,-302.339 225.798,-296.339 225.798,-296.339 225.798,-284.339 225.798,-284.339 225.798,-278.339 231.798,-272.339 237.798,-272.339 237.798,-272.339 267.798,-272.339 267.798,-272.339 273.798,-272.339 279.798,-278.339 279.798,-284.339 279.798,-284.339 279.798,-296.339 279.798,-296.339 279.798,-302.339 273.798,-308.339 267.798,-308.339"/>
<text text-anchor="middle" x="252.798" y="-286.639" font-family="Times,serif" font-size="14.00">pw0</text>
</g>
<!-- pw2&#45;&gt;pw0 -->
<g id="edge1" class="edge"><title>pw2&#45;&gt;pw0</title>
<path fill="none" stroke="#000000" d="M145.994,-242.166C166.321,-251.334 194.355,-263.978 216.601,-274.012"/>
<polygon fill="#000000" stroke="#000000" points="215.187,-277.214 225.741,-278.135 218.065,-270.833 215.187,-277.214"/>
<text text-anchor="middle" x="177.797" y="-261.889" font-family="Times,serif" font-size="14.00">2</text>
</g>
<!-- pw2&#45;&gt;pw1 -->
<g id="edge2" class="edge"><title>pw2&#45;&gt;pw1</title>
<path fill="none" stroke="#000000" d="M145.722,-211.649C184.519,-185.189 256.332,-136.213 299.217,-106.965"/>
<polygon fill="#000000" stroke="#000000" points="301.359,-109.741 307.648,-101.215 297.415,-103.958 301.359,-109.741"/>
<text text-anchor="middle" x="218.969" y="-163.107" font-family="Times,serif" font-size="14.00">4</text>
</g>
<!-- pw3&#45;&gt;pw2 -->
<g id="edge3" class="edge"><title>pw3&#45;&gt;pw2</title>
<path fill="none" stroke="#000000" d="M199.208,-36.0702C183.82,-73.2187 148.549,-158.364 130.3,-202.415"/>
<polygon fill="#000000" stroke="#000000" points="126.957,-201.341 126.363,-211.919 133.424,-204.02 126.957,-201.341"/>
<text text-anchor="middle" x="161.254" y="-123.043" font-family="Times,serif" font-size="14.00">3</text>
</g>
<!-- pw3&#45;&gt;pw0 -->
<g id="edge7" class="edge"><title>pw3&#45;&gt;pw0</title>
<path fill="none" stroke="#000000" d="M209.79,-36.2918C217.681,-82.9005 238.583,-206.373 248.036,-262.212"/>
<polygon fill="#000000" stroke="#000000" points="244.595,-262.851 249.715,-272.126 251.496,-261.683 244.595,-262.851"/>
<text text-anchor="middle" x="225.413" y="-138.052" font-family="Times,serif" font-size="14.00">4</text>
</g>
<!-- pw3&#45;&gt;pw1 -->
<g id="edge8" class="edge"><title>pw3&#45;&gt;pw1</title>
<path fill="none" stroke="#000000" d="M233.721,-31.8169C252.349,-41.3401 277.324,-54.1079 297.705,-64.5276"/>
<polygon fill="#000000" stroke="#000000" points="296.21,-67.6941 306.708,-69.1297 299.397,-61.4613 296.21,-67.6941"/>
<text text-anchor="middle" x="262.213" y="-51.9722" font-family="Times,serif" font-size="14.00">2</text>
</g>
<!-- pw1&#45;&gt;pw0 -->
<g id="edge6" class="edge"><title>pw1&#45;&gt;pw0</title>
<path fill="none" stroke="#000000" d="M327.059,-101.175C312.788,-137.528 280.479,-219.828 263.57,-262.898"/>
<polygon fill="#000000" stroke="#000000" points="260.312,-261.621 259.915,-272.209 266.828,-264.179 260.312,-261.621"/>
<text text-anchor="middle" x="291.815" y="-185.837" font-family="Times,serif" font-size="14.00">3</text>
</g>
<!-- Legend -->
<g id="node6" class="node"><title>Legend</title>
<path fill="white" stroke="black" d="M390,-325C390,-325 348,-325 348,-325 342,-325 336,-319 336,-313 336,-313 336,-236 336,-236 336,-230 342,-224 348,-224 348,-224 390,-224 390,-224 396,-224 402,-230 402,-236 402,-236 402,-313 402,-313 402,-319 396,-325 390,-325"/>
<polygon fill="none" stroke="black" points="336,-298.5 336,-324.5 402,-324.5 402,-298.5 336,-298.5"/>
<text text-anchor="start" x="344.5" y="-307.8" font-family="Arial Black" font-size="14.00"> Nodes</text>
<polygon fill="#ffffcc" stroke="none" points="336,-273.5 336,-298.5 385,-298.5 385,-273.5 336,-273.5"/>
<polygon fill="none" stroke="black" points="336,-273.5 336,-298.5 385,-298.5 385,-273.5 336,-273.5"/>
<text text-anchor="start" x="342" y="-282.3" font-family="Times,serif" font-size="14.00">cluster</text>
<polygon fill="none" stroke="black" points="385,-273.5 385,-298.5 402,-298.5 402,-273.5 385,-273.5"/>
<text text-anchor="start" x="390" y="-282.3" font-family="Times,serif" font-size="14.00">5</text>
<polygon fill="none" stroke="black" points="336,-248.5 336,-273.5 402,-273.5 402,-248.5 336,-248.5"/>
<text text-anchor="start" x="343" y="-257.3" font-family="Arial Black" font-size="14.00"> Edges </text>
<polygon fill="none" stroke="black" points="336,-223.5 336,-248.5 385,-248.5 385,-223.5 336,-223.5"/>
<text text-anchor="start" x="341.5" y="-232.3" font-family="Times,serif" font-size="14.00" fill="#000000">default</text>
<polygon fill="none" stroke="black" points="385,-223.5 385,-248.5 402,-248.5 402,-223.5 385,-223.5"/>
<text text-anchor="start" x="390" y="-232.3" font-family="Times,serif" font-size="14.00">9</text>
</g>
</g>
</svg>
