<?xml version="1.0" encoding="UTF-8" standalone="no"?>
<!DOCTYPE svg PUBLIC "-//W3C//DTD SVG 1.1//EN"
 "http://www.w3.org/Graphics/SVG/1.1/DTD/svg11.dtd">
<!-- Generated by graphviz version 2.36.0 (20140111.2315)
 -->
<!-- Title: %3 Pages: 1 -->
<svg width="894pt" height="272pt"
 viewBox="0.00 0.00 894.00 272.36" xmlns="http://www.w3.org/2000/svg" xmlns:xlink="http://www.w3.org/1999/xlink">
<g id="graph0" class="graph" transform="scale(1 1) rotate(0) translate(4 268.361)">
<title>%3</title>
<polygon fill="white" stroke="none" points="-4,4 -4,-268.361 890,-268.361 890,4 -4,4"/>
<!-- FloraChina.ChineseOakSpecies1 -->
<g id="node1" class="node"><title>FloraChina.ChineseOakSpecies1</title>
<polygon fill="#ccffcc" stroke="black" points="836.5,-73.3606 641.5,-73.3606 641.5,-37.3606 836.5,-37.3606 836.5,-73.3606"/>
<text text-anchor="middle" x="739" y="-51.6606" font-family="Times,serif" font-size="14.00">FloraChina.ChineseOakSpecies1</text>
</g>
<!-- FloraChina.OakGenus\nFloraMexico.OakGenus -->
<g id="node3" class="node"><title>FloraChina.OakGenus\nFloraMexico.OakGenus</title>
<path fill="#eeeeee" stroke="black" d="M167,-205.361C167,-205.361 43,-205.361 43,-205.361 37,-205.361 31,-199.361 31,-193.361 31,-193.361 31,-179.361 31,-179.361 31,-173.361 37,-167.361 43,-167.361 43,-167.361 167,-167.361 167,-167.361 173,-167.361 179,-173.361 179,-179.361 179,-179.361 179,-193.361 179,-193.361 179,-199.361 173,-205.361 167,-205.361"/>
<text text-anchor="middle" x="105" y="-190.161" font-family="Times,serif" font-size="14.00">FloraChina.OakGenus</text>
<text text-anchor="middle" x="105" y="-175.161" font-family="Times,serif" font-size="14.00">FloraMexico.OakGenus</text>
</g>
<!-- FloraChina.ChineseOakSpecies1&#45;&gt;FloraChina.OakGenus\nFloraMexico.OakGenus -->
<g id="edge2" class="edge"><title>FloraChina.ChineseOakSpecies1&#45;&gt;FloraChina.OakGenus\nFloraMexico.OakGenus</title>
<path fill="none" stroke="#218b51" d="M641.349,-69.1447C611.428,-73.3987 578.353,-78.0875 548,-82.3606 417.357,-100.753 381.134,-88.1065 254,-123.361 218.822,-133.115 180.98,-149.335 152.367,-162.874"/>
<polygon fill="#218b51" stroke="#218b51" points="150.537,-159.869 143.034,-167.349 153.564,-166.181 150.537,-159.869"/>
<text text-anchor="middle" x="401" y="-127.161" font-family="Times,serif" font-size="14.00">1</text>
</g>
<!-- FloraMexico.MexicanOakSpecies1 -->
<g id="node4" class="node"><title>FloraMexico.MexicanOakSpecies1</title>
<polygon fill="#ffffcc" stroke="black" points="548.06,-47.9048 548.06,-62.8165 461.914,-73.3606 340.086,-73.3606 253.94,-62.8165 253.94,-47.9048 340.086,-37.3606 461.914,-37.3606 548.06,-47.9048"/>
<text text-anchor="middle" x="401" y="-51.6606" font-family="Times,serif" font-size="14.00">FloraMexico.MexicanOakSpecies1</text>
</g>
<!-- FloraChina.ChineseOakSpecies1&#45;&gt;FloraMexico.MexicanOakSpecies1 -->
<g id="edge3" class="edge"><title>FloraChina.ChineseOakSpecies1&#45;&gt;FloraMexico.MexicanOakSpecies1</title>
<path fill="none" stroke="#761212" d="M641.266,-55.3606C615.252,-55.3606 586.441,-55.3606 558.084,-55.3606"/>
<polygon fill="#761212" stroke="#761212" points="558.078,-51.8607 548.078,-55.3606 558.078,-58.8607 558.078,-51.8607"/>
<text text-anchor="middle" x="570" y="-59.1606" font-family="Times,serif" font-size="14.00">5</text>
</g>
<!-- FloraChina.OakGenus\n\nFloraMexico.OakGenus\n\n -->
<g id="node6" class="node"><title>FloraChina.OakGenus\n\nFloraMexico.OakGenus\n\n</title>
<ellipse fill="#00bfff" stroke="black" cx="105" cy="-61.3606" rx="104.804" ry="49.4949"/>
<text text-anchor="middle" x="105" y="-81.1606" font-family="Times,serif" font-size="14.00">FloraChina.OakGenus</text>
<text text-anchor="middle" x="105" y="-50.1606" font-family="Times,serif" font-size="14.00">FloraMexico.OakGenus</text>
</g>
<!-- FloraChina.ChineseOakSpecies1&#45;&gt;FloraChina.OakGenus\n\nFloraMexico.OakGenus\n\n -->
<g id="edge1" class="edge"><title>FloraChina.ChineseOakSpecies1&#45;&gt;FloraChina.OakGenus\n\nFloraMexico.OakGenus\n\n</title>
<path fill="none" stroke="#613022" d="M673.074,-37.3337C636.632,-28.1471 590.146,-17.9633 548,-13.3606 418.106,0.824916 383.063,7.04541 254,-13.3606 234.915,-16.3781 214.94,-21.4569 196.063,-27.2095"/>
<polygon fill="#613022" stroke="#613022" points="194.796,-23.9388 186.302,-30.2718 196.892,-30.6178 194.796,-23.9388"/>
<text text-anchor="middle" x="401" y="-17.1606" font-family="Times,serif" font-size="14.00">4</text>
</g>
<!-- FloraChina.ChineseOakSpecies2 -->
<g id="node2" class="node"><title>FloraChina.ChineseOakSpecies2</title>
<polygon fill="#ccffcc" stroke="black" points="498.5,-229.361 303.5,-229.361 303.5,-193.361 498.5,-193.361 498.5,-229.361"/>
<text text-anchor="middle" x="401" y="-207.661" font-family="Times,serif" font-size="14.00">FloraChina.ChineseOakSpecies2</text>
</g>
<!-- FloraChina.ChineseOakSpecies2&#45;&gt;FloraChina.OakGenus\nFloraMexico.OakGenus -->
<g id="edge5" class="edge"><title>FloraChina.ChineseOakSpecies2&#45;&gt;FloraChina.OakGenus\nFloraMexico.OakGenus</title>
<path fill="none" stroke="#218b51" d="M303.408,-213.199C278.772,-212.855 252.368,-211.781 228,-209.361 215.476,-208.117 202.319,-206.244 189.468,-204.094"/>
<polygon fill="#218b51" stroke="#218b51" points="189.697,-200.581 179.245,-202.316 188.498,-207.478 189.697,-200.581"/>
<text text-anchor="middle" x="232" y="-213.161" font-family="Times,serif" font-size="14.00">1</text>
</g>
<!-- FloraChina.ChineseOakSpecies2&#45;&gt;FloraChina.OakGenus\n\nFloraMexico.OakGenus\n\n -->
<g id="edge4" class="edge"><title>FloraChina.ChineseOakSpecies2&#45;&gt;FloraChina.OakGenus\n\nFloraMexico.OakGenus\n\n</title>
<path fill="none" stroke="#613022" d="M303.08,-198.98C277.554,-193.053 250.798,-184.297 228,-171.361 220.002,-166.823 189.097,-138.937 160.396,-112.381"/>
<polygon fill="#613022" stroke="#613022" points="162.485,-109.544 152.772,-105.311 157.725,-114.677 162.485,-109.544"/>
<text text-anchor="middle" x="232" y="-177.161" font-family="Times,serif" font-size="14.00">4</text>
</g>
<!-- FloraMexico.MexicanOakSpecies1&#45;&gt;FloraChina.OakGenus\nFloraMexico.OakGenus -->
<g id="edge7" class="edge"><title>FloraMexico.MexicanOakSpecies1&#45;&gt;FloraChina.OakGenus\nFloraMexico.OakGenus</title>
<path fill="none" stroke="#218b51" d="M314.849,-70.3032C294.631,-74.8677 273.328,-80.5299 254,-87.3606 241.819,-91.6655 238.378,-92.6655 228,-100.361 218.656,-107.289 218.954,-111.935 210,-119.361 191.075,-135.055 168.281,-150.11 148.862,-161.959"/>
<polygon fill="#218b51" stroke="#218b51" points="146.967,-159.015 140.203,-167.169 150.576,-165.013 146.967,-159.015"/>
<text text-anchor="middle" x="232" y="-104.161" font-family="Times,serif" font-size="14.00">1</text>
</g>
<!-- FloraMexico.MexicanOakSpecies1&#45;&gt;FloraChina.OakGenus\n\nFloraMexico.OakGenus\n\n -->
<g id="edge6" class="edge"><title>FloraMexico.MexicanOakSpecies1&#45;&gt;FloraChina.OakGenus\n\nFloraMexico.OakGenus\n\n</title>
<path fill="none" stroke="#613022" d="M253.861,-58.343C242.497,-58.575 231.125,-58.807 220.018,-59.0337"/>
<polygon fill="#613022" stroke="#613022" points="219.827,-55.5368 209.901,-59.2402 219.97,-62.5353 219.827,-55.5368"/>
<text text-anchor="middle" x="232" y="-63.1606" font-family="Times,serif" font-size="14.00">4</text>
</g>
<!-- FloraMexico.MexicanOakSpecies1&#45;&gt;FloraChina.OakGenus\n\nFloraMexico.OakGenus\n\n -->
<g id="edge8" class="edge"><title>FloraMexico.MexicanOakSpecies1&#45;&gt;FloraChina.OakGenus\n\nFloraMexico.OakGenus\n\n</title>
<path fill="none" stroke="#613022" d="M306.722,-41.3593C281.199,-39.1278 253.535,-38.179 228,-40.3606 222.911,-40.7954 217.715,-41.3305 212.477,-41.9434"/>
<polygon fill="#613022" stroke="#613022" points="211.853,-38.4942 202.366,-43.2123 212.724,-45.4397 211.853,-38.4942"/>
<text text-anchor="middle" x="232" y="-44.1606" font-family="Times,serif" font-size="14.00">4</text>
</g>
<!-- FloraMexico.MexicanOakSpecies2 -->
<g id="node5" class="node"><title>FloraMexico.MexicanOakSpecies2</title>
<polygon fill="#ffffcc" stroke="black" points="886.06,-203.905 886.06,-218.816 799.914,-229.361 678.086,-229.361 591.94,-218.816 591.94,-203.905 678.086,-193.361 799.914,-193.361 886.06,-203.905"/>
<text text-anchor="middle" x="739" y="-207.661" font-family="Times,serif" font-size="14.00">FloraMexico.MexicanOakSpecies2</text>
</g>
<!-- FloraMexico.MexicanOakSpecies2&#45;&gt;FloraChina.ChineseOakSpecies2 -->
<g id="edge9" class="edge"><title>FloraMexico.MexicanOakSpecies2&#45;&gt;FloraChina.ChineseOakSpecies2</title>
<path fill="none" stroke="#366d41" d="M591.603,-211.361C563.813,-211.361 535.222,-211.361 508.938,-211.361"/>
<polygon fill="#366d41" stroke="#366d41" points="508.601,-207.861 498.601,-211.361 508.601,-214.861 508.601,-207.861"/>
<text text-anchor="middle" x="570" y="-215.161" font-family="Times,serif" font-size="14.00">2</text>
</g>
<!-- FloraMexico.MexicanOakSpecies2&#45;&gt;FloraChina.OakGenus\nFloraMexico.OakGenus -->
<g id="edge10" class="edge"><title>FloraMexico.MexicanOakSpecies2&#45;&gt;FloraChina.OakGenus\nFloraMexico.OakGenus</title>
<path fill="none" stroke="#218b51" d="M656.875,-226.882C560.224,-242.848 394.203,-262.274 254,-238.361 220.979,-232.728 185.524,-220.505 157.596,-209.323"/>
<polygon fill="#218b51" stroke="#218b51" points="158.629,-205.964 148.048,-205.424 155.983,-212.445 158.629,-205.964"/>
<text text-anchor="middle" x="401" y="-253.161" font-family="Times,serif" font-size="14.00">1</text>
</g>
<!-- FloraMexico.MexicanOakSpecies2&#45;&gt;FloraChina.OakGenus\n\nFloraMexico.OakGenus\n\n -->
<g id="edge11" class="edge"><title>FloraMexico.MexicanOakSpecies2&#45;&gt;FloraChina.OakGenus\n\nFloraMexico.OakGenus\n\n</title>
<path fill="none" stroke="#613022" d="M669.762,-194.326C633.738,-185.829 588.68,-175.98 548,-169.361 418.315,-148.258 379.814,-176.233 254,-138.361 227.932,-130.513 201.055,-118.049 177.477,-105.415"/>
<polygon fill="#613022" stroke="#613022" points="179.065,-102.294 168.611,-100.574 175.71,-108.438 179.065,-102.294"/>
<text text-anchor="middle" x="401" y="-173.161" font-family="Times,serif" font-size="14.00">4</text>
</g>
</g>
</svg>
