<?xml version="1.0" encoding="UTF-8" standalone="no"?>
<!DOCTYPE svg PUBLIC "-//W3C//DTD SVG 1.1//EN"
 "http://www.w3.org/Graphics/SVG/1.1/DTD/svg11.dtd">
<!-- Generated by graphviz version 2.36.0 (20140111.2315)
 -->
<!-- Title: %3 Pages: 1 -->
<svg width="472pt" height="290pt"
 viewBox="0.00 0.00 472.00 290.00" xmlns="http://www.w3.org/2000/svg" xmlns:xlink="http://www.w3.org/1999/xlink">
<g id="graph0" class="graph" transform="scale(1 1) rotate(0) translate(4 286)">
<title>%3</title>
<polygon fill="white" stroke="none" points="-4,4 -4,-286 468,-286 468,4 -4,4"/>
<!-- AllOtherGreen -->
<g id="node1" class="node"><title>AllOtherGreen</title>
<path fill="none" stroke="#006400" stroke-dasharray="5,2" d="M265.25,-106C265.25,-106 198.75,-106 198.75,-106 192.75,-106 186.75,-100 186.75,-94 186.75,-94 186.75,-82 186.75,-82 186.75,-76 192.75,-70 198.75,-70 198.75,-70 265.25,-70 265.25,-70 271.25,-70 277.25,-76 277.25,-82 277.25,-82 277.25,-94 277.25,-94 277.25,-100 271.25,-106 265.25,-106"/>
<text text-anchor="middle" x="232" y="-84.3" font-family="Helvetica,sans-Serif" font-stretch="condensed" font-size="14.00">AllOtherGreen</text>
</g>
<!-- 2 -->
<g id="node2" class="node"><title>2</title>
<path fill="#a0ffa0" stroke="#006400" d="M247,-194C247,-194 217,-194 217,-194 211,-194 205,-188 205,-182 205,-182 205,-170 205,-170 205,-164 211,-158 217,-158 217,-158 247,-158 247,-158 253,-158 259,-164 259,-170 259,-170 259,-182 259,-182 259,-188 253,-194 247,-194"/>
<text text-anchor="middle" x="232" y="-172.3" font-family="Helvetica,sans-Serif" font-stretch="condensed" font-size="14.00">2</text>
</g>
<!-- 2&#45;&gt;AllOtherGreen -->
<g id="edge1" class="edge"><title>2&#45;&gt;AllOtherGreen</title>
<path fill="none" stroke="#006400" stroke-dasharray="5,2" d="M232,-157.597C232,-145.746 232,-129.817 232,-116.292"/>
<polygon fill="#006400" stroke="#006400" points="235.5,-116.084 232,-106.084 228.5,-116.084 235.5,-116.084"/>
<text text-anchor="middle" x="235.5" y="-128.3" font-family="Times,serif" font-size="14.00">1</text>
</g>
<!-- 1 -->
<g id="node3" class="node"><title>1</title>
<path fill="#a0ffa0" stroke="#006400" d="M319,-194C319,-194 289,-194 289,-194 283,-194 277,-188 277,-182 277,-182 277,-170 277,-170 277,-164 283,-158 289,-158 289,-158 319,-158 319,-158 325,-158 331,-164 331,-170 331,-170 331,-182 331,-182 331,-188 325,-194 319,-194"/>
<text text-anchor="middle" x="304" y="-172.3" font-family="Helvetica,sans-Serif" font-stretch="condensed" font-size="14.00">1</text>
</g>
<!-- 1&#45;&gt;AllOtherGreen -->
<g id="edge2" class="edge"><title>1&#45;&gt;AllOtherGreen</title>
<path fill="none" stroke="#006400" stroke-dasharray="5,2" d="M289.43,-157.597C278.919,-145.042 264.576,-127.91 252.853,-113.908"/>
<polygon fill="#006400" stroke="#006400" points="255.406,-111.505 246.303,-106.084 250.039,-115.998 255.406,-111.505"/>
<text text-anchor="middle" x="277.5" y="-128.3" font-family="Times,serif" font-size="14.00">1</text>
</g>
<!-- 1, 2 -->
<g id="node4" class="node"><title>1, 2</title>
<polygon fill="#ffb0b0" stroke="#ff0000" points="259,-256.544 259,-271.456 243.184,-282 220.816,-282 205,-271.456 205,-256.544 220.816,-246 243.184,-246 259,-256.544"/>
<text text-anchor="middle" x="232" y="-260.3" font-family="Helvetica,sans-Serif" font-stretch="condensed" font-size="14.00">1, 2</text>
</g>
<!-- 1, 2&#45;&gt;AllOtherGreen -->
<g id="edge3" class="edge"><title>1, 2&#45;&gt;AllOtherGreen</title>
<path fill="none" stroke="blue" d="M218.566,-247.244C208.22,-234.008 194.746,-214.084 189,-194 184.599,-178.617 184.599,-173.383 189,-158 194.552,-138.594 207.318,-119.338 217.507,-106.12"/>
<text text-anchor="middle" x="192.5" y="-172.3" font-family="Times,serif" font-size="14.00">2</text>
</g>
<!-- 1, 2&#45;&gt;2 -->
<g id="edge4" class="edge"><title>1, 2&#45;&gt;2</title>
<path fill="none" stroke="blue" d="M232,-245.597C232,-230.578 232,-209.009 232,-194.084"/>
<text text-anchor="middle" x="235.5" y="-216.3" font-family="Times,serif" font-size="14.00">1</text>
</g>
<!-- 1, 2&#45;&gt;1 -->
<g id="edge5" class="edge"><title>1, 2&#45;&gt;1</title>
<path fill="none" stroke="blue" d="M245.206,-247.226C257.791,-232.194 276.69,-209.62 289.643,-194.148"/>
<text text-anchor="middle" x="277.5" y="-216.3" font-family="Times,serif" font-size="14.00">1</text>
</g>
<!-- Legend -->
<g id="node5" class="node"><title>Legend</title>
<polygon fill="none" stroke="black" points="464.25,-51.5 -0.25,-51.5 -0.25,-0.5 464.25,-0.5 464.25,-51.5"/>
<polygon fill="none" stroke="black" points="0,-25 0,-51 18,-51 18,-25 0,-25"/>
<text text-anchor="start" x="5.5" y="-34.3" font-family="Helvetica,sans-Serif" font-stretch="condensed" font-size="14.00">1</text>
<polygon fill="none" stroke="black" points="18,-25 18,-51 465,-51 465,-25 18,-25"/>
<text text-anchor="start" x="23" y="-34.3" font-family="Helvetica,sans-Serif" font-stretch="condensed" font-size="14.00">FloraChina.ChineseOakSpecies1 is_included_in FloraMexico.MexicanOakSpecies1</text>
<polygon fill="none" stroke="black" points="0,-0 0,-25 18,-25 18,-0 0,-0"/>
<text text-anchor="start" x="5.5" y="-8.8" font-family="Helvetica,sans-Serif" font-stretch="condensed" font-size="14.00">2</text>
<polygon fill="none" stroke="black" points="18,-0 18,-25 465,-25 465,-0 18,-0"/>
<text text-anchor="start" x="43" y="-8.8" font-family="Helvetica,sans-Serif" font-stretch="condensed" font-size="14.00">FloraChina.ChineseOakSpecies2 equals FloraMexico.MexicanOakSpecies1</text>
</g>
</g>
</svg>
