<?xml version="1.0" encoding="UTF-8" standalone="no"?>
<!DOCTYPE svg PUBLIC "-//W3C//DTD SVG 1.1//EN"
 "http://www.w3.org/Graphics/SVG/1.1/DTD/svg11.dtd">
<!-- Generated by graphviz version 2.36.0 (20140111.2315)
 -->
<!-- Title: %3 Pages: 1 -->
<svg width="704pt" height="263pt"
 viewBox="0.00 0.00 704.00 263.00" xmlns="http://www.w3.org/2000/svg" xmlns:xlink="http://www.w3.org/1999/xlink">
<g id="graph0" class="graph" transform="scale(1 1) rotate(0) translate(4 259)">
<title>%3</title>
<polygon fill="white" stroke="none" points="-4,4 -4,-259 700,-259 700,4 -4,4"/>
<!-- FloraChina.OakGenus -->
<g id="node1" class="node"><title>FloraChina.OakGenus</title>
<polygon fill="#ccffcc" stroke="black" points="661,-133 523,-133 523,-97 661,-97 661,-133"/>
<text text-anchor="middle" x="592" y="-111.3" font-family="Times,serif" font-size="14.00">FloraChina.OakGenus</text>
</g>
<!-- FloraChina.ChineseOakSpecies1 -->
<g id="node2" class="node"><title>FloraChina.ChineseOakSpecies1</title>
<polygon fill="#ccffcc" stroke="black" points="402.5,-147 207.5,-147 207.5,-111 402.5,-111 402.5,-147"/>
<text text-anchor="middle" x="305" y="-125.3" font-family="Times,serif" font-size="14.00">FloraChina.ChineseOakSpecies1</text>
</g>
<!-- FloraChina.ChineseOakSpecies1&#45;&gt;FloraChina.OakGenus -->
<g id="edge2" class="edge"><title>FloraChina.ChineseOakSpecies1&#45;&gt;FloraChina.OakGenus</title>
<path fill="none" stroke="#000000" d="M402.886,-124.241C438.569,-122.488 478.518,-120.525 512.392,-118.861"/>
<polygon fill="#000000" stroke="#000000" points="512.882,-122.342 522.699,-118.355 512.539,-115.35 512.882,-122.342"/>
</g>
<!-- FloraChina.ChineseOakSpecies2 -->
<g id="node3" class="node"><title>FloraChina.ChineseOakSpecies2</title>
<polygon fill="#ccffcc" stroke="black" points="402.5,-93 207.5,-93 207.5,-57 402.5,-57 402.5,-93"/>
<text text-anchor="middle" x="305" y="-71.3" font-family="Times,serif" font-size="14.00">FloraChina.ChineseOakSpecies2</text>
</g>
<!-- FloraChina.ChineseOakSpecies2&#45;&gt;FloraChina.OakGenus -->
<g id="edge1" class="edge"><title>FloraChina.ChineseOakSpecies2&#45;&gt;FloraChina.OakGenus</title>
<path fill="none" stroke="#000000" d="M402.886,-88.598C438.569,-93.6062 478.518,-99.213 512.392,-103.967"/>
<polygon fill="#000000" stroke="#000000" points="512.309,-107.49 522.699,-105.414 513.282,-100.558 512.309,-107.49"/>
</g>
<!-- FloraMexico.OakGenus -->
<g id="node4" class="node"><title>FloraMexico.OakGenus</title>
<polygon fill="#ffffcc" stroke="black" points="696.234,-188.544 696.234,-203.456 635.175,-214 548.825,-214 487.766,-203.456 487.766,-188.544 548.825,-178 635.175,-178 696.234,-188.544"/>
<text text-anchor="middle" x="592" y="-192.3" font-family="Times,serif" font-size="14.00">FloraMexico.OakGenus</text>
</g>
<!-- FloraMexico.MexicanOakSpecies1 -->
<g id="node5" class="node"><title>FloraMexico.MexicanOakSpecies1</title>
<polygon fill="#ffffcc" stroke="black" points="452.06,-229.544 452.06,-244.456 365.914,-255 244.086,-255 157.94,-244.456 157.94,-229.544 244.086,-219 365.914,-219 452.06,-229.544"/>
<text text-anchor="middle" x="305" y="-233.3" font-family="Times,serif" font-size="14.00">FloraMexico.MexicanOakSpecies1</text>
</g>
<!-- FloraMexico.MexicanOakSpecies1&#45;&gt;FloraMexico.OakGenus -->
<g id="edge4" class="edge"><title>FloraMexico.MexicanOakSpecies1&#45;&gt;FloraMexico.OakGenus</title>
<path fill="none" stroke="#000000" d="M401.297,-223.291C433.421,-218.669 469.152,-213.529 500.865,-208.967"/>
<polygon fill="#000000" stroke="#000000" points="501.611,-212.396 511.01,-207.507 500.614,-205.467 501.611,-212.396"/>
</g>
<!-- FloraMexico.MexicanOakSpecies2 -->
<g id="node6" class="node"><title>FloraMexico.MexicanOakSpecies2</title>
<polygon fill="#ffffcc" stroke="black" points="452.06,-175.544 452.06,-190.456 365.914,-201 244.086,-201 157.94,-190.456 157.94,-175.544 244.086,-165 365.914,-165 452.06,-175.544"/>
<text text-anchor="middle" x="305" y="-179.3" font-family="Times,serif" font-size="14.00">FloraMexico.MexicanOakSpecies2</text>
</g>
<!-- FloraMexico.MexicanOakSpecies2&#45;&gt;FloraMexico.OakGenus -->
<g id="edge3" class="edge"><title>FloraMexico.MexicanOakSpecies2&#45;&gt;FloraMexico.OakGenus</title>
<path fill="none" stroke="#000000" d="M452.257,-189.671C460.71,-190.057 469.146,-190.442 477.445,-190.82"/>
<polygon fill="#000000" stroke="#000000" points="477.343,-194.319 487.492,-191.279 477.662,-187.326 477.343,-194.319"/>
</g>
<!-- Legend -->
<g id="node7" class="node"><title>Legend</title>
<polygon fill="white" stroke="black" points="121.5,-150.5 0.5,-150.5 0.5,0.5 121.5,0.5 121.5,-150.5"/>
<polygon fill="none" stroke="black" points="1,-124 1,-150 122,-150 122,-124 1,-124"/>
<text text-anchor="start" x="37" y="-133.3" font-family="Arial Black" font-size="14.00"> Nodes</text>
<polygon fill="#ccffcc" stroke="none" points="1,-99 1,-124 105,-124 105,-99 1,-99"/>
<polygon fill="none" stroke="black" points="1,-99 1,-124 105,-124 105,-99 1,-99"/>
<text text-anchor="start" x="22.5" y="-107.8" font-family="Times,serif" font-size="14.00">FloraChina</text>
<polygon fill="none" stroke="black" points="105,-99 105,-124 122,-124 122,-99 105,-99"/>
<text text-anchor="start" x="110" y="-107.8" font-family="Times,serif" font-size="14.00">3</text>
<polygon fill="#ffffcc" stroke="none" points="1,-74 1,-99 105,-99 105,-74 1,-74"/>
<polygon fill="none" stroke="black" points="1,-74 1,-99 105,-99 105,-74 1,-74"/>
<text text-anchor="start" x="17.5" y="-82.8" font-family="Times,serif" font-size="14.00">FloraMexico</text>
<polygon fill="none" stroke="black" points="105,-74 105,-99 122,-99 122,-74 105,-74"/>
<text text-anchor="start" x="110" y="-82.8" font-family="Times,serif" font-size="14.00">3</text>
<polygon fill="none" stroke="black" points="1,-49 1,-74 122,-74 122,-49 1,-49"/>
<text text-anchor="start" x="35.5" y="-57.8" font-family="Arial Black" font-size="14.00"> Edges </text>
<polygon fill="none" stroke="black" points="1,-24 1,-49 105,-49 105,-24 1,-24"/>
<text text-anchor="start" x="11.5" y="-32.8" font-family="Times,serif" font-size="14.00" fill="#000000">isa_FloraChina</text>
<polygon fill="none" stroke="black" points="105,-24 105,-49 122,-49 122,-24 105,-24"/>
<text text-anchor="start" x="110" y="-32.8" font-family="Times,serif" font-size="14.00">2</text>
<polygon fill="none" stroke="black" points="1,1 1,-24 105,-24 105,1 1,1"/>
<text text-anchor="start" x="6.5" y="-7.8" font-family="Times,serif" font-size="14.00" fill="#000000">isa_FloraMexico</text>
<polygon fill="none" stroke="black" points="105,1 105,-24 122,-24 122,1 105,1"/>
<text text-anchor="start" x="110" y="-7.8" font-family="Times,serif" font-size="14.00">2</text>
</g>
</g>
</svg>
