<?xml version="1.0" encoding="UTF-8" standalone="no"?>
<!DOCTYPE svg PUBLIC "-//W3C//DTD SVG 1.1//EN"
 "http://www.w3.org/Graphics/SVG/1.1/DTD/svg11.dtd">
<!-- Generated by graphviz version 2.36.0 (20140111.2315)
 -->
<!-- Title: Workflow Pages: 1 -->
<svg width="743pt" height="604pt"
 viewBox="0.00 0.00 743.00 604.00" xmlns="http://www.w3.org/2000/svg" xmlns:xlink="http://www.w3.org/1999/xlink">
<g id="graph0" class="graph" transform="scale(1 1) rotate(0) translate(4 600)">
<title>Workflow</title>
<polygon fill="white" stroke="none" points="-4,4 -4,-600 739,-600 739,4 -4,4"/>
<text text-anchor="middle" x="367.5" y="-577.6" font-family="Helvetica,sans-Serif" font-size="18.00">euler_workflow</text>
<g id="clust1" class="cluster"><title>cluster_workflow_box_outer</title>
<polygon fill="none" stroke="black" stroke-width="2" points="22,-34 22,-534 649,-534 649,-34 22,-34"/>
</g>
<g id="clust2" class="cluster"><title>cluster_workflow_box_inner</title>
<polygon fill="none" stroke="black" stroke-width="0" points="30,-42 30,-526 641,-526 641,-42 30,-42"/>
</g>
<!-- validate -->
<g id="node1" class="node"><title>validate</title>
<polygon fill="#ccffcc" stroke="black" points="546.25,-446 483.75,-446 483.75,-410 546.25,-410 546.25,-446"/>
<text text-anchor="middle" x="515" y="-424.3" font-family="Helvetica,sans-Serif" font-size="14.00">validate</text>
</g>
<!-- wellformed_tap -->
<g id="node7" class="node"><title>wellformed_tap</title>
<path fill="#ffffcc" stroke="black" d="M494.25,-374C494.25,-374 409.75,-374 409.75,-374 403.75,-374 397.75,-368 397.75,-362 397.75,-362 397.75,-350 397.75,-350 397.75,-344 403.75,-338 409.75,-338 409.75,-338 494.25,-338 494.25,-338 500.25,-338 506.25,-344 506.25,-350 506.25,-350 506.25,-362 506.25,-362 506.25,-368 500.25,-374 494.25,-374"/>
<text text-anchor="middle" x="452" y="-352.3" font-family="Helvetica,sans-Serif" font-size="14.00">wellformed_tap</text>
</g>
<!-- validate&#45;&gt;wellformed_tap -->
<g id="edge1" class="edge"><title>validate&#45;&gt;wellformed_tap</title>
<path fill="none" stroke="black" d="M499.427,-409.697C491.798,-401.22 482.477,-390.864 474.124,-381.583"/>
<polygon fill="black" stroke="black" points="476.685,-379.196 467.394,-374.104 471.482,-383.879 476.685,-379.196"/>
</g>
<!-- malformed_tap -->
<g id="node8" class="node"><title>malformed_tap</title>
<path fill="#ffffcc" stroke="black" d="M621,-374C621,-374 537,-374 537,-374 531,-374 525,-368 525,-362 525,-362 525,-350 525,-350 525,-344 531,-338 537,-338 537,-338 621,-338 621,-338 627,-338 633,-344 633,-350 633,-350 633,-362 633,-362 633,-368 627,-374 621,-374"/>
<text text-anchor="middle" x="579" y="-352.3" font-family="Helvetica,sans-Serif" font-size="14.00">malformed_tap</text>
</g>
<!-- validate&#45;&gt;malformed_tap -->
<g id="edge2" class="edge"><title>validate&#45;&gt;malformed_tap</title>
<path fill="none" stroke="black" d="M530.82,-409.697C538.57,-401.22 548.039,-390.864 556.524,-381.583"/>
<polygon fill="black" stroke="black" points="559.197,-383.846 563.362,-374.104 554.031,-379.123 559.197,-383.846"/>
</g>
<!-- try_align -->
<g id="node2" class="node"><title>try_align</title>
<polygon fill="#ccffcc" stroke="black" points="378,-302 310,-302 310,-266 378,-266 378,-302"/>
<text text-anchor="middle" x="344" y="-280.3" font-family="Helvetica,sans-Serif" font-size="14.00">try_align</text>
</g>
<!-- possible_world(s) -->
<g id="node10" class="node"><title>possible_world(s)</title>
<path fill="#ffffcc" stroke="black" d="M525,-230C525,-230 427,-230 427,-230 421,-230 415,-224 415,-218 415,-218 415,-206 415,-206 415,-200 421,-194 427,-194 427,-194 525,-194 525,-194 531,-194 537,-200 537,-206 537,-206 537,-218 537,-218 537,-224 531,-230 525,-230"/>
<text text-anchor="middle" x="476" y="-208.3" font-family="Helvetica,sans-Serif" font-size="14.00">possible_world(s)</text>
</g>
<!-- try_align&#45;&gt;possible_world(s) -->
<g id="edge4" class="edge"><title>try_align&#45;&gt;possible_world(s)</title>
<path fill="none" stroke="black" d="M376.291,-265.876C393.869,-256.554 415.809,-244.919 434.629,-234.939"/>
<polygon fill="black" stroke="black" points="436.39,-237.967 443.585,-230.19 433.111,-231.783 436.39,-237.967"/>
</g>
<!-- inconsistent_tap -->
<g id="node11" class="node"><title>inconsistent_tap</title>
<path fill="#ffffcc" stroke="black" d="M385,-230C385,-230 295,-230 295,-230 289,-230 283,-224 283,-218 283,-218 283,-206 283,-206 283,-200 289,-194 295,-194 295,-194 385,-194 385,-194 391,-194 397,-200 397,-206 397,-206 397,-218 397,-218 397,-224 391,-230 385,-230"/>
<text text-anchor="middle" x="340" y="-208.3" font-family="Helvetica,sans-Serif" font-size="14.00">inconsistent_tap</text>
</g>
<!-- try_align&#45;&gt;inconsistent_tap -->
<g id="edge5" class="edge"><title>try_align&#45;&gt;inconsistent_tap</title>
<path fill="none" stroke="black" d="M343.011,-265.697C342.57,-257.983 342.041,-248.712 341.549,-240.112"/>
<polygon fill="black" stroke="black" points="345.042,-239.888 340.977,-230.104 338.054,-240.288 345.042,-239.888"/>
</g>
<!-- visualize_possible_world(s) -->
<g id="node3" class="node"><title>visualize_possible_world(s)</title>
<polygon fill="#ccffcc" stroke="black" points="628.25,-158 447.75,-158 447.75,-122 628.25,-122 628.25,-158"/>
<text text-anchor="middle" x="538" y="-136.3" font-family="Helvetica,sans-Serif" font-size="14.00">visualize_possible_world(s)</text>
</g>
<!-- possible_world(s)_graph(s) -->
<g id="node12" class="node"><title>possible_world(s)_graph(s)</title>
<path fill="#ffffcc" stroke="black" d="M620.25,-86C620.25,-86 465.75,-86 465.75,-86 459.75,-86 453.75,-80 453.75,-74 453.75,-74 453.75,-62 453.75,-62 453.75,-56 459.75,-50 465.75,-50 465.75,-50 620.25,-50 620.25,-50 626.25,-50 632.25,-56 632.25,-62 632.25,-62 632.25,-74 632.25,-74 632.25,-80 626.25,-86 620.25,-86"/>
<text text-anchor="middle" x="543" y="-64.3" font-family="Helvetica,sans-Serif" font-size="14.00">possible_world(s)_graph(s)</text>
</g>
<!-- visualize_possible_world(s)&#45;&gt;possible_world(s)_graph(s) -->
<g id="edge9" class="edge"><title>visualize_possible_world(s)&#45;&gt;possible_world(s)_graph(s)</title>
<path fill="none" stroke="black" d="M539.236,-121.697C539.787,-113.983 540.449,-104.712 541.063,-96.1124"/>
<polygon fill="black" stroke="black" points="544.557,-96.3283 541.778,-86.1043 537.575,-95.8295 544.557,-96.3283"/>
</g>
<!-- repair_articulations -->
<g id="node4" class="node"><title>repair_articulations</title>
<polygon fill="#ccffcc" stroke="black" points="222.25,-158 91.75,-158 91.75,-122 222.25,-122 222.25,-158"/>
<text text-anchor="middle" x="157" y="-136.3" font-family="Helvetica,sans-Serif" font-size="14.00">repair_articulations</text>
</g>
<!-- suggested_articulation_modifications -->
<g id="node14" class="node"><title>suggested_articulation_modifications</title>
<path fill="#ffffcc" stroke="black" d="M264.25,-86C264.25,-86 49.75,-86 49.75,-86 43.75,-86 37.75,-80 37.75,-74 37.75,-74 37.75,-62 37.75,-62 37.75,-56 43.75,-50 49.75,-50 49.75,-50 264.25,-50 264.25,-50 270.25,-50 276.25,-56 276.25,-62 276.25,-62 276.25,-74 276.25,-74 276.25,-80 270.25,-86 264.25,-86"/>
<text text-anchor="middle" x="157" y="-64.3" font-family="Helvetica,sans-Serif" font-size="14.00">suggested_articulation_modifications</text>
</g>
<!-- repair_articulations&#45;&gt;suggested_articulation_modifications -->
<g id="edge11" class="edge"><title>repair_articulations&#45;&gt;suggested_articulation_modifications</title>
<path fill="none" stroke="black" d="M157,-121.697C157,-113.983 157,-104.712 157,-96.1124"/>
<polygon fill="black" stroke="black" points="160.5,-96.1043 157,-86.1043 153.5,-96.1044 160.5,-96.1043"/>
</g>
<!-- visualize_inconsistency -->
<g id="node5" class="node"><title>visualize_inconsistency</title>
<polygon fill="#ccffcc" stroke="black" points="425.25,-158 268.75,-158 268.75,-122 425.25,-122 425.25,-158"/>
<text text-anchor="middle" x="347" y="-136.3" font-family="Helvetica,sans-Serif" font-size="14.00">visualize_inconsistency</text>
</g>
<!-- inconsistency_graph -->
<g id="node13" class="node"><title>inconsistency_graph</title>
<path fill="#ffffcc" stroke="black" d="M423,-86C423,-86 307,-86 307,-86 301,-86 295,-80 295,-74 295,-74 295,-62 295,-62 295,-56 301,-50 307,-50 307,-50 423,-50 423,-50 429,-50 435,-56 435,-62 435,-62 435,-74 435,-74 435,-80 429,-86 423,-86"/>
<text text-anchor="middle" x="365" y="-64.3" font-family="Helvetica,sans-Serif" font-size="14.00">inconsistency_graph</text>
</g>
<!-- visualize_inconsistency&#45;&gt;inconsistency_graph -->
<g id="edge14" class="edge"><title>visualize_inconsistency&#45;&gt;inconsistency_graph</title>
<path fill="none" stroke="black" d="M351.449,-121.697C353.455,-113.898 355.869,-104.509 358.101,-95.8292"/>
<polygon fill="black" stroke="black" points="361.501,-96.6609 360.602,-86.1043 354.722,-94.9176 361.501,-96.6609"/>
</g>
<!-- visualize_tap -->
<g id="node6" class="node"><title>visualize_tap</title>
<polygon fill="#ccffcc" stroke="black" points="565.25,-302 470.75,-302 470.75,-266 565.25,-266 565.25,-302"/>
<text text-anchor="middle" x="518" y="-280.3" font-family="Helvetica,sans-Serif" font-size="14.00">visualize_tap</text>
</g>
<!-- tap_graph -->
<g id="node9" class="node"><title>tap_graph</title>
<path fill="#ffffcc" stroke="black" d="M620.25,-230C620.25,-230 567.75,-230 567.75,-230 561.75,-230 555.75,-224 555.75,-218 555.75,-218 555.75,-206 555.75,-206 555.75,-200 561.75,-194 567.75,-194 567.75,-194 620.25,-194 620.25,-194 626.25,-194 632.25,-200 632.25,-206 632.25,-206 632.25,-218 632.25,-218 632.25,-224 626.25,-230 620.25,-230"/>
<text text-anchor="middle" x="594" y="-208.3" font-family="Helvetica,sans-Serif" font-size="14.00">tap_graph</text>
</g>
<!-- visualize_tap&#45;&gt;tap_graph -->
<g id="edge16" class="edge"><title>visualize_tap&#45;&gt;tap_graph</title>
<path fill="none" stroke="black" d="M536.787,-265.697C546.174,-257.05 557.684,-246.449 567.913,-237.027"/>
<polygon fill="black" stroke="black" points="570.445,-239.454 575.43,-230.104 565.703,-234.305 570.445,-239.454"/>
</g>
<!-- wellformed_tap&#45;&gt;try_align -->
<g id="edge6" class="edge"><title>wellformed_tap&#45;&gt;try_align</title>
<path fill="none" stroke="black" d="M425.58,-337.876C411.59,-328.808 394.224,-317.552 379.114,-307.759"/>
<polygon fill="black" stroke="black" points="380.817,-304.692 370.521,-302.19 377.009,-310.566 380.817,-304.692"/>
</g>
<!-- wellformed_tap&#45;&gt;visualize_tap -->
<g id="edge17" class="edge"><title>wellformed_tap&#45;&gt;visualize_tap</title>
<path fill="none" stroke="black" d="M468.315,-337.697C476.307,-329.22 486.072,-318.864 494.822,-309.583"/>
<polygon fill="black" stroke="black" points="497.559,-311.781 501.873,-302.104 492.466,-306.979 497.559,-311.781"/>
</g>
<!-- wellformed_tap_output_port -->
<g id="node23" class="node"><title>wellformed_tap_output_port</title>
<ellipse fill="#ffffff" stroke="black" cx="664" cy="-284" rx="6.5" ry="7"/>
</g>
<!-- wellformed_tap&#45;&gt;wellformed_tap_output_port -->
<g id="edge22" class="edge"><title>wellformed_tap&#45;&gt;wellformed_tap_output_port</title>
<path fill="none" stroke="black" d="M506.377,-340.389C562.347,-325.302 641.849,-303.717 645,-302 647.517,-300.629 649.976,-298.863 652.245,-296.991"/>
<polygon fill="black" stroke="black" points="654.929,-299.27 659.78,-289.85 650.114,-294.189 654.929,-299.27"/>
</g>
<!-- malformed_tap_output_port -->
<g id="node24" class="node"><title>malformed_tap_output_port</title>
<ellipse fill="#ffffff" stroke="black" cx="696" cy="-284" rx="6.5" ry="7"/>
</g>
<!-- malformed_tap&#45;&gt;malformed_tap_output_port -->
<g id="edge23" class="edge"><title>malformed_tap&#45;&gt;malformed_tap_output_port</title>
<path fill="none" stroke="black" d="M617.626,-337.883C636.879,-328.534 660.037,-316.012 679,-302 680.964,-300.549 682.918,-298.873 684.764,-297.152"/>
<polygon fill="black" stroke="black" points="687.392,-299.47 691.861,-289.863 682.377,-294.586 687.392,-299.47"/>
</g>
<!-- tap_graph_output_port -->
<g id="node25" class="node"><title>tap_graph_output_port</title>
<ellipse fill="#ffffff" stroke="black" cx="728" cy="-140" rx="6.5" ry="7"/>
</g>
<!-- tap_graph&#45;&gt;tap_graph_output_port -->
<g id="edge24" class="edge"><title>tap_graph&#45;&gt;tap_graph_output_port</title>
<path fill="none" stroke="black" d="M632.453,-197.636C656.215,-188.421 686.704,-174.814 711,-158 713.008,-156.61 714.986,-154.968 716.843,-153.261"/>
<polygon fill="black" stroke="black" points="719.48,-155.569 723.923,-145.951 714.452,-150.699 719.48,-155.569"/>
</g>
<!-- possible_world(s)&#45;&gt;visualize_possible_world(s) -->
<g id="edge10" class="edge"><title>possible_world(s)&#45;&gt;visualize_possible_world(s)</title>
<path fill="none" stroke="black" d="M491.326,-193.697C498.759,-185.305 507.823,-175.07 515.98,-165.861"/>
<polygon fill="black" stroke="black" points="518.84,-167.911 522.85,-158.104 513.6,-163.27 518.84,-167.911"/>
</g>
<!-- possible_world(s)_output_port -->
<g id="node26" class="node"><title>possible_world(s)_output_port</title>
<ellipse fill="#ffffff" stroke="black" cx="696" cy="-140" rx="6.5" ry="7"/>
</g>
<!-- possible_world(s)&#45;&gt;possible_world(s)_output_port -->
<g id="edge25" class="edge"><title>possible_world(s)&#45;&gt;possible_world(s)_output_port</title>
<path fill="none" stroke="black" d="M537.026,-195.893C594.476,-181.544 672.66,-161.634 679,-158 681.177,-156.752 683.27,-155.153 685.197,-153.436"/>
<polygon fill="black" stroke="black" points="688.01,-155.555 692.338,-145.884 682.924,-150.745 688.01,-155.555"/>
</g>
<!-- inconsistent_tap&#45;&gt;repair_articulations -->
<g id="edge13" class="edge"><title>inconsistent_tap&#45;&gt;repair_articulations</title>
<path fill="none" stroke="black" d="M295.233,-193.876C269.882,-184.179 237.989,-171.98 211.227,-161.743"/>
<polygon fill="black" stroke="black" points="212.212,-158.372 201.621,-158.068 209.711,-164.91 212.212,-158.372"/>
</g>
<!-- inconsistent_tap&#45;&gt;visualize_inconsistency -->
<g id="edge15" class="edge"><title>inconsistent_tap&#45;&gt;visualize_inconsistency</title>
<path fill="none" stroke="black" d="M341.73,-193.697C342.502,-185.983 343.429,-176.712 344.289,-168.112"/>
<polygon fill="black" stroke="black" points="347.777,-168.403 345.29,-158.104 340.812,-167.706 347.777,-168.403"/>
</g>
<!-- inconsistent_tap_output_port -->
<g id="node27" class="node"><title>inconsistent_tap_output_port</title>
<ellipse fill="#ffffff" stroke="black" cx="664" cy="-140" rx="6.5" ry="7"/>
</g>
<!-- inconsistent_tap&#45;&gt;inconsistent_tap_output_port -->
<g id="edge26" class="edge"><title>inconsistent_tap&#45;&gt;inconsistent_tap_output_port</title>
<path fill="none" stroke="black" d="M397.154,-195.896C400.139,-195.227 403.101,-194.59 406,-194 511.262,-172.575 547.797,-203.726 645,-158 647.663,-156.747 650.225,-154.998 652.558,-153.095"/>
<polygon fill="black" stroke="black" points="655.418,-155.197 660.155,-145.719 650.542,-150.174 655.418,-155.197"/>
</g>
<!-- possible_world(s)_graph(s)_output_port -->
<g id="node28" class="node"><title>possible_world(s)_graph(s)_output_port</title>
<ellipse fill="#ffffff" stroke="black" cx="543" cy="-7" rx="6.5" ry="7"/>
</g>
<!-- possible_world(s)_graph(s)&#45;&gt;possible_world(s)_graph(s)_output_port -->
<g id="edge27" class="edge"><title>possible_world(s)_graph(s)&#45;&gt;possible_world(s)_graph(s)_output_port</title>
<path fill="none" stroke="black" d="M543,-49.9348C543,-41.8859 543,-32.3254 543,-24.3671"/>
<polygon fill="black" stroke="black" points="546.5,-24.2164 543,-14.2164 539.5,-24.2165 546.5,-24.2164"/>
</g>
<!-- inconsistency_graph_output_port -->
<g id="node29" class="node"><title>inconsistency_graph_output_port</title>
<ellipse fill="#ffffff" stroke="black" cx="365" cy="-7" rx="6.5" ry="7"/>
</g>
<!-- inconsistency_graph&#45;&gt;inconsistency_graph_output_port -->
<g id="edge28" class="edge"><title>inconsistency_graph&#45;&gt;inconsistency_graph_output_port</title>
<path fill="none" stroke="black" d="M365,-49.9348C365,-41.8859 365,-32.3254 365,-24.3671"/>
<polygon fill="black" stroke="black" points="368.5,-24.2164 365,-14.2164 361.5,-24.2165 368.5,-24.2164"/>
</g>
<!-- suggested_articulation_modifications_output_port -->
<g id="node30" class="node"><title>suggested_articulation_modifications_output_port</title>
<ellipse fill="#ffffff" stroke="black" cx="157" cy="-7" rx="6.5" ry="7"/>
</g>
<!-- suggested_articulation_modifications&#45;&gt;suggested_articulation_modifications_output_port -->
<g id="edge29" class="edge"><title>suggested_articulation_modifications&#45;&gt;suggested_articulation_modifications_output_port</title>
<path fill="none" stroke="black" d="M157,-49.9348C157,-41.8859 157,-32.3254 157,-24.3671"/>
<polygon fill="black" stroke="black" points="160.5,-24.2164 157,-14.2164 153.5,-24.2165 160.5,-24.2164"/>
</g>
<!-- tap -->
<g id="node15" class="node"><title>tap</title>
<path fill="#ffffcc" stroke="black" d="M530,-518C530,-518 500,-518 500,-518 494,-518 488,-512 488,-506 488,-506 488,-494 488,-494 488,-488 494,-482 500,-482 500,-482 530,-482 530,-482 536,-482 542,-488 542,-494 542,-494 542,-506 542,-506 542,-512 536,-518 530,-518"/>
<text text-anchor="middle" x="515" y="-496.3" font-family="Helvetica,sans-Serif" font-size="14.00">tap</text>
</g>
<!-- tap&#45;&gt;validate -->
<g id="edge3" class="edge"><title>tap&#45;&gt;validate</title>
<path fill="none" stroke="black" d="M515,-481.697C515,-473.983 515,-464.712 515,-456.112"/>
<polygon fill="black" stroke="black" points="518.5,-456.104 515,-446.104 511.5,-456.104 518.5,-456.104"/>
</g>
<!-- encoding_method -->
<g id="node16" class="node"><title>encoding_method</title>
<path fill="#fcfcfc" stroke="black" d="M278.25,-374C278.25,-374 177.75,-374 177.75,-374 171.75,-374 165.75,-368 165.75,-362 165.75,-362 165.75,-350 165.75,-350 165.75,-344 171.75,-338 177.75,-338 177.75,-338 278.25,-338 278.25,-338 284.25,-338 290.25,-344 290.25,-350 290.25,-350 290.25,-362 290.25,-362 290.25,-368 284.25,-374 278.25,-374"/>
<text text-anchor="middle" x="228" y="-352.3" font-family="Helvetica,sans-Serif" font-size="14.00">encoding_method</text>
</g>
<!-- encoding_method&#45;&gt;try_align -->
<g id="edge7" class="edge"><title>encoding_method&#45;&gt;try_align</title>
<path fill="none" stroke="black" d="M256.377,-337.876C271.544,-328.724 290.405,-317.342 306.739,-307.485"/>
<polygon fill="black" stroke="black" points="308.761,-310.353 315.514,-302.19 305.144,-304.36 308.761,-310.353"/>
</g>
<!-- reasoner -->
<g id="node17" class="node"><title>reasoner</title>
<path fill="#fcfcfc" stroke="black" d="M367,-374C367,-374 321,-374 321,-374 315,-374 309,-368 309,-362 309,-362 309,-350 309,-350 309,-344 315,-338 321,-338 321,-338 367,-338 367,-338 373,-338 379,-344 379,-350 379,-350 379,-362 379,-362 379,-368 373,-374 367,-374"/>
<text text-anchor="middle" x="344" y="-352.3" font-family="Helvetica,sans-Serif" font-size="14.00">reasoner</text>
</g>
<!-- reasoner&#45;&gt;try_align -->
<g id="edge8" class="edge"><title>reasoner&#45;&gt;try_align</title>
<path fill="none" stroke="black" d="M344,-337.697C344,-329.983 344,-320.712 344,-312.112"/>
<polygon fill="black" stroke="black" points="347.5,-312.104 344,-302.104 340.5,-312.104 347.5,-312.104"/>
</g>
<!-- repair_method -->
<g id="node18" class="node"><title>repair_method</title>
<path fill="#fcfcfc" stroke="black" d="M164,-230C164,-230 84,-230 84,-230 78,-230 72,-224 72,-218 72,-218 72,-206 72,-206 72,-200 78,-194 84,-194 84,-194 164,-194 164,-194 170,-194 176,-200 176,-206 176,-206 176,-218 176,-218 176,-224 170,-230 164,-230"/>
<text text-anchor="middle" x="124" y="-208.3" font-family="Helvetica,sans-Serif" font-size="14.00">repair_method</text>
</g>
<!-- repair_method&#45;&gt;repair_articulations -->
<g id="edge12" class="edge"><title>repair_method&#45;&gt;repair_articulations</title>
<path fill="none" stroke="black" d="M132.157,-193.697C135.914,-185.728 140.453,-176.1 144.618,-167.264"/>
<polygon fill="black" stroke="black" points="147.838,-168.642 148.937,-158.104 141.506,-165.657 147.838,-168.642"/>
</g>
<!-- tap_input_port -->
<g id="node19" class="node"><title>tap_input_port</title>
<ellipse fill="#ffffff" stroke="black" cx="515" cy="-561" rx="6.5" ry="7"/>
</g>
<!-- tap_input_port&#45;&gt;tap -->
<g id="edge18" class="edge"><title>tap_input_port&#45;&gt;tap</title>
<path fill="none" stroke="black" d="M515,-553.686C515,-547.486 515,-537.595 515,-528.048"/>
<polygon fill="black" stroke="black" points="518.5,-528.016 515,-518.016 511.5,-528.016 518.5,-528.016"/>
</g>
<!-- encoding_method_input_port -->
<g id="node20" class="node"><title>encoding_method_input_port</title>
<ellipse fill="#ffffff" stroke="black" cx="664" cy="-428" rx="6.5" ry="7"/>
</g>
<!-- encoding_method_input_port&#45;&gt;encoding_method -->
<g id="edge19" class="edge"><title>encoding_method_input_port&#45;&gt;encoding_method</title>
<path fill="none" stroke="black" d="M660.186,-422.212C656.696,-418.207 651.152,-412.725 645,-410 507.069,-348.91 454.275,-397.576 300.611,-373.9"/>
<polygon fill="black" stroke="black" points="300.773,-370.381 290.341,-372.234 299.652,-377.291 300.773,-370.381"/>
</g>
<!-- reasoner_input_port -->
<g id="node21" class="node"><title>reasoner_input_port</title>
<ellipse fill="#ffffff" stroke="black" cx="696" cy="-428" rx="6.5" ry="7"/>
</g>
<!-- reasoner_input_port&#45;&gt;reasoner -->
<g id="edge20" class="edge"><title>reasoner_input_port&#45;&gt;reasoner</title>
<path fill="none" stroke="black" d="M692.44,-421.923C689.365,-417.969 684.551,-412.711 679,-410 564.755,-354.214 516.76,-403.205 389.04,-373.85"/>
<polygon fill="black" stroke="black" points="389.841,-370.443 379.299,-371.496 388.197,-377.247 389.841,-370.443"/>
</g>
<!-- repair_method_input_port -->
<g id="node22" class="node"><title>repair_method_input_port</title>
<ellipse fill="#ffffff" stroke="black" cx="7" cy="-284" rx="6.5" ry="7"/>
</g>
<!-- repair_method_input_port&#45;&gt;repair_method -->
<g id="edge21" class="edge"><title>repair_method_input_port&#45;&gt;repair_method</title>
<path fill="none" stroke="black" d="M11.4303,-278.488C15.1282,-274.861 20.6413,-269.768 26,-266 42.2875,-254.548 61.3217,-243.736 78.2602,-234.901"/>
<polygon fill="black" stroke="black" points="80.1209,-237.881 87.4241,-230.205 76.9284,-231.651 80.1209,-237.881"/>
</g>
</g>
</svg>
