<?xml version="1.0" encoding="UTF-8" standalone="no"?>
<!DOCTYPE svg PUBLIC "-//W3C//DTD SVG 1.1//EN"
 "http://www.w3.org/Graphics/SVG/1.1/DTD/svg11.dtd">
<!-- Generated by graphviz version 2.36.0 (20140111.2315)
 -->
<!-- Title: Workflow Pages: 1 -->
<svg width="1000pt" height="1036pt"
 viewBox="0.00 0.00 1000.00 1036.00" xmlns="http://www.w3.org/2000/svg" xmlns:xlink="http://www.w3.org/1999/xlink">
<g id="graph0" class="graph" transform="scale(1 1) rotate(0) translate(4 1032)">
<title>Workflow</title>
<polygon fill="white" stroke="none" points="-4,4 -4,-1032 1000,-1032 1000,4 -4,4"/>
<text text-anchor="middle" x="349" y="-1009.6" font-family="Helvetica,sans-Serif" font-size="18.00">euler_workflow</text>
<g id="clust1" class="cluster"><title>cluster_workflow_box_outer</title>
<polygon fill="none" stroke="black" stroke-width="2" points="22,-34 22,-966 612,-966 612,-34 22,-34"/>
</g>
<g id="clust2" class="cluster"><title>cluster_workflow_box_inner</title>
<polygon fill="none" stroke="black" stroke-width="0" points="30,-42 30,-958 604,-958 604,-42 30,-42"/>
</g>
<!-- validate -->
<g id="node1" class="node"><title>validate</title>
<polygon fill="#ccffcc" stroke="black" points="509.25,-878 446.75,-878 446.75,-842 509.25,-842 509.25,-878"/>
<a target="_blank" href="https://github.com/EulerProject/EulerX/blob/00d5a0d1f58caae0473b595fbb1f5e29b20c515e/src-el/checker.py#L12">
<text text-anchor="middle" x="478" y="-856.3" font-family="Helvetica,sans-Serif" font-size="14.00">validate</text>
</a>
</g>
<!-- wellformed_tap -->
<g id="node13" class="node"><title>wellformed_tap</title>
<path fill="#ffffcc" stroke="black" d="M457.25,-806C457.25,-806 372.75,-806 372.75,-806 366.75,-806 360.75,-800 360.75,-794 360.75,-794 360.75,-782 360.75,-782 360.75,-776 366.75,-770 372.75,-770 372.75,-770 457.25,-770 457.25,-770 463.25,-770 469.25,-776 469.25,-782 469.25,-782 469.25,-794 469.25,-794 469.25,-800 463.25,-806 457.25,-806"/>
<a target="_blank" href="https://github.com/EulerProject/EulerX/blob/00d5a0d1f58caae0473b595fbb1f5e29b20c515e/src-el/checker.py#L61">
<text text-anchor="middle" x="415" y="-784.3" font-family="Helvetica,sans-Serif" font-size="14.00">wellformed_tap</text>
</a>
</g>
<!-- validate&#45;&gt;wellformed_tap -->
<g id="edge1" class="edge"><title>validate&#45;&gt;wellformed_tap</title>
<path fill="none" stroke="black" d="M462.427,-841.697C454.798,-833.22 445.477,-822.864 437.124,-813.583"/>
<polygon fill="black" stroke="black" points="439.685,-811.196 430.394,-806.104 434.482,-815.879 439.685,-811.196"/>
</g>
<!-- malformed_tap -->
<g id="node14" class="node"><title>malformed_tap</title>
<path fill="#ffffcc" stroke="black" d="M584,-806C584,-806 500,-806 500,-806 494,-806 488,-800 488,-794 488,-794 488,-782 488,-782 488,-776 494,-770 500,-770 500,-770 584,-770 584,-770 590,-770 596,-776 596,-782 596,-782 596,-794 596,-794 596,-800 590,-806 584,-806"/>
<a target="_blank" href="https://github.com/EulerProject/EulerX/blob/00d5a0d1f58caae0473b595fbb1f5e29b20c515e/src-el/checker.py#L63">
<text text-anchor="middle" x="542" y="-784.3" font-family="Helvetica,sans-Serif" font-size="14.00">malformed_tap</text>
</a>
</g>
<!-- validate&#45;&gt;malformed_tap -->
<g id="edge2" class="edge"><title>validate&#45;&gt;malformed_tap</title>
<path fill="none" stroke="black" d="M493.82,-841.697C501.57,-833.22 511.039,-822.864 519.524,-813.583"/>
<polygon fill="black" stroke="black" points="522.197,-815.846 526.362,-806.104 517.031,-811.123 522.197,-815.846"/>
</g>
<!-- try_align -->
<g id="node2" class="node"><title>try_align</title>
<polygon fill="#ccffcc" stroke="black" points="378,-734 310,-734 310,-698 378,-698 378,-734"/>
<a target="_blank" href="https://github.com/EulerProject/EulerX/blob/00d5a0d1f58caae0473b595fbb1f5e29b20c515e/src-el/alignment2.py#L340">
<text text-anchor="middle" x="344" y="-712.3" font-family="Helvetica,sans-Serif" font-size="14.00">try_align</text>
</a>
</g>
<!-- rcc_tap -->
<g id="node23" class="node"><title>rcc_tap</title>
<path fill="#ffffcc" stroke="black" d="M488.25,-662C488.25,-662 451.75,-662 451.75,-662 445.75,-662 439.75,-656 439.75,-650 439.75,-650 439.75,-638 439.75,-638 439.75,-632 445.75,-626 451.75,-626 451.75,-626 488.25,-626 488.25,-626 494.25,-626 500.25,-632 500.25,-638 500.25,-638 500.25,-650 500.25,-650 500.25,-656 494.25,-662 488.25,-662"/>
<a target="_blank" href="https://github.com/EulerProject/EulerX/blob/00d5a0d1f58caae0473b595fbb1f5e29b20c515e/src-el/alignment2.py#L3625">
<text text-anchor="middle" x="470" y="-640.3" font-family="Helvetica,sans-Serif" font-size="14.00">rcc_tap</text>
</a>
</g>
<!-- try_align&#45;&gt;rcc_tap -->
<g id="edge4" class="edge"><title>try_align&#45;&gt;rcc_tap</title>
<path fill="none" stroke="black" d="M374.823,-697.876C391.574,-688.57 412.474,-676.959 430.418,-666.99"/>
<polygon fill="black" stroke="black" points="432.453,-669.863 439.495,-661.947 429.054,-663.744 432.453,-669.863"/>
</g>
<!-- asp_tap -->
<g id="node25" class="node"><title>asp_tap</title>
<path fill="#ffffcc" stroke="black" d="M266.25,-662C266.25,-662 225.75,-662 225.75,-662 219.75,-662 213.75,-656 213.75,-650 213.75,-650 213.75,-638 213.75,-638 213.75,-632 219.75,-626 225.75,-626 225.75,-626 266.25,-626 266.25,-626 272.25,-626 278.25,-632 278.25,-638 278.25,-638 278.25,-650 278.25,-650 278.25,-656 272.25,-662 266.25,-662"/>
<a target="_blank" href="https://github.com/EulerProject/EulerX/blob/00d5a0d1f58caae0473b595fbb1f5e29b20c515e/src-el/alignment2.py#L1995">
<text text-anchor="middle" x="246" y="-640.3" font-family="Helvetica,sans-Serif" font-size="14.00">asp_tap</text>
</a>
</g>
<!-- try_align&#45;&gt;asp_tap -->
<g id="edge5" class="edge"><title>try_align&#45;&gt;asp_tap</title>
<path fill="none" stroke="black" d="M320.027,-697.876C307.45,-688.893 291.868,-677.763 278.248,-668.034"/>
<polygon fill="black" stroke="black" points="280.237,-665.154 270.066,-662.19 276.169,-670.85 280.237,-665.154"/>
</g>
<!-- parse_rcc_tap -->
<g id="node3" class="node"><title>parse_rcc_tap</title>
<polygon fill="#ccffcc" stroke="black" points="520.5,-590 419.5,-590 419.5,-554 520.5,-554 520.5,-590"/>
<a target="_blank" href="https://github.com/EulerProject/EulerX/blob/00d5a0d1f58caae0473b595fbb1f5e29b20c515e/src-el/alignment2.py#L3659">
<text text-anchor="middle" x="470" y="-568.3" font-family="Helvetica,sans-Serif" font-size="14.00">parse_rcc_tap</text>
</a>
</g>
<!-- rcc_tap_parsed -->
<g id="node24" class="node"><title>rcc_tap_parsed</title>
<path fill="#ffffcc" stroke="black" d="M513,-518C513,-518 427,-518 427,-518 421,-518 415,-512 415,-506 415,-506 415,-494 415,-494 415,-488 421,-482 427,-482 427,-482 513,-482 513,-482 519,-482 525,-488 525,-494 525,-494 525,-506 525,-506 525,-512 519,-518 513,-518"/>
<a target="_blank" href="https://github.com/EulerProject/EulerX/blob/00d5a0d1f58caae0473b595fbb1f5e29b20c515e/src-el/alignment2.py#L3659">
<text text-anchor="middle" x="470" y="-496.3" font-family="Helvetica,sans-Serif" font-size="14.00">rcc_tap_parsed</text>
</a>
</g>
<!-- parse_rcc_tap&#45;&gt;rcc_tap_parsed -->
<g id="edge8" class="edge"><title>parse_rcc_tap&#45;&gt;rcc_tap_parsed</title>
<path fill="none" stroke="black" d="M470,-553.697C470,-545.983 470,-536.712 470,-528.112"/>
<polygon fill="black" stroke="black" points="473.5,-528.104 470,-518.104 466.5,-528.104 473.5,-528.104"/>
</g>
<!-- try_align_rcc -->
<g id="node4" class="node"><title>try_align_rcc</title>
<polygon fill="#ccffcc" stroke="black" points="516.25,-446 423.75,-446 423.75,-410 516.25,-410 516.25,-446"/>
<a target="_blank" href="https://github.com/EulerProject/EulerX/blob/00d5a0d1f58caae0473b595fbb1f5e29b20c515e/src-el/alignment2.py#L342">
<text text-anchor="middle" x="470" y="-424.3" font-family="Helvetica,sans-Serif" font-size="14.00">try_align_rcc</text>
</a>
</g>
<!-- inconsistent_tap -->
<g id="node17" class="node"><title>inconsistent_tap</title>
<path fill="#ffffcc" stroke="black" d="M518,-374C518,-374 428,-374 428,-374 422,-374 416,-368 416,-362 416,-362 416,-350 416,-350 416,-344 422,-338 428,-338 428,-338 518,-338 518,-338 524,-338 530,-344 530,-350 530,-350 530,-362 530,-362 530,-368 524,-374 518,-374"/>
<a target="_blank" href="https://github.com/EulerProject/EulerX/blob/00d5a0d1f58caae0473b595fbb1f5e29b20c515e/src-el/alignment2.py#L663">
<text text-anchor="middle" x="473" y="-352.3" font-family="Helvetica,sans-Serif" font-size="14.00">inconsistent_tap</text>
</a>
</g>
<!-- try_align_rcc&#45;&gt;inconsistent_tap -->
<g id="edge10" class="edge"><title>try_align_rcc&#45;&gt;inconsistent_tap</title>
<path fill="none" stroke="black" d="M470.742,-409.697C471.072,-401.983 471.469,-392.712 471.838,-384.112"/>
<polygon fill="black" stroke="black" points="475.335,-384.245 472.267,-374.104 468.342,-383.945 475.335,-384.245"/>
</g>
<!-- most_informative_relations -->
<g id="node20" class="node"><title>most_informative_relations</title>
<path fill="#ffffcc" stroke="black" d="M263.25,-374C263.25,-374 108.75,-374 108.75,-374 102.75,-374 96.75,-368 96.75,-362 96.75,-362 96.75,-350 96.75,-350 96.75,-344 102.75,-338 108.75,-338 108.75,-338 263.25,-338 263.25,-338 269.25,-338 275.25,-344 275.25,-350 275.25,-350 275.25,-362 275.25,-362 275.25,-368 269.25,-374 263.25,-374"/>
<text text-anchor="middle" x="186" y="-352.3" font-family="Helvetica,sans-Serif" font-size="14.00">most_informative_relations</text>
</g>
<!-- try_align_rcc&#45;&gt;most_informative_relations -->
<g id="edge11" class="edge"><title>try_align_rcc&#45;&gt;most_informative_relations</title>
<path fill="none" stroke="black" d="M423.738,-415.597C380.858,-405.029 316.177,-389.086 265.102,-376.497"/>
<polygon fill="black" stroke="black" points="265.626,-373.021 255.078,-374.026 263.95,-379.818 265.626,-373.021"/>
</g>
<!-- create_possible_world(s) -->
<g id="node5" class="node"><title>create_possible_world(s)</title>
<polygon fill="#ccffcc" stroke="black" points="262.25,-302 95.75,-302 95.75,-266 262.25,-266 262.25,-302"/>
<text text-anchor="middle" x="179" y="-280.3" font-family="Helvetica,sans-Serif" font-size="14.00">create_possible_world(s)</text>
</g>
<!-- possible_world(s) -->
<g id="node16" class="node"><title>possible_world(s)</title>
<path fill="#ffffcc" stroke="black" d="M168,-230C168,-230 70,-230 70,-230 64,-230 58,-224 58,-218 58,-218 58,-206 58,-206 58,-200 64,-194 70,-194 70,-194 168,-194 168,-194 174,-194 180,-200 180,-206 180,-206 180,-218 180,-218 180,-224 174,-230 168,-230"/>
<a target="_blank" href="https://github.com/EulerProject/EulerX/blob/00d5a0d1f58caae0473b595fbb1f5e29b20c515e/src-el/alignment2.py#L643">
<text text-anchor="middle" x="119" y="-208.3" font-family="Helvetica,sans-Serif" font-size="14.00">possible_world(s)</text>
</a>
</g>
<!-- create_possible_world(s)&#45;&gt;possible_world(s) -->
<g id="edge13" class="edge"><title>create_possible_world(s)&#45;&gt;possible_world(s)</title>
<path fill="none" stroke="black" d="M164.169,-265.697C156.975,-257.305 148.203,-247.07 140.31,-237.861"/>
<polygon fill="black" stroke="black" points="142.826,-235.419 133.661,-230.104 137.511,-239.975 142.826,-235.419"/>
</g>
<!-- encode_asp_tap -->
<g id="node6" class="node"><title>encode_asp_tap</title>
<polygon fill="#ccffcc" stroke="black" points="348.5,-590 233.5,-590 233.5,-554 348.5,-554 348.5,-590"/>
<a target="_blank" href="https://github.com/EulerProject/EulerX/blob/00d5a0d1f58caae0473b595fbb1f5e29b20c515e/src-el/alignment2.py#L1995">
<text text-anchor="middle" x="291" y="-568.3" font-family="Helvetica,sans-Serif" font-size="14.00">encode_asp_tap</text>
</a>
</g>
<!-- asp_tap_encoded -->
<g id="node26" class="node"><title>asp_tap_encoded</title>
<path fill="#ffffcc" stroke="black" d="M340.5,-518C340.5,-518 241.5,-518 241.5,-518 235.5,-518 229.5,-512 229.5,-506 229.5,-506 229.5,-494 229.5,-494 229.5,-488 235.5,-482 241.5,-482 241.5,-482 340.5,-482 340.5,-482 346.5,-482 352.5,-488 352.5,-494 352.5,-494 352.5,-506 352.5,-506 352.5,-512 346.5,-518 340.5,-518"/>
<text text-anchor="middle" x="291" y="-496.3" font-family="Helvetica,sans-Serif" font-size="14.00">asp_tap_encoded</text>
</g>
<!-- encode_asp_tap&#45;&gt;asp_tap_encoded -->
<g id="edge15" class="edge"><title>encode_asp_tap&#45;&gt;asp_tap_encoded</title>
<path fill="none" stroke="black" d="M291,-553.697C291,-545.983 291,-536.712 291,-528.112"/>
<polygon fill="black" stroke="black" points="294.5,-528.104 291,-518.104 287.5,-528.104 294.5,-528.104"/>
</g>
<!-- try_align_asp -->
<g id="node7" class="node"><title>try_align_asp</title>
<polygon fill="#ccffcc" stroke="black" points="339.25,-446 242.75,-446 242.75,-410 339.25,-410 339.25,-446"/>
<a target="_blank" href="https://github.com/EulerProject/EulerX/blob/00d5a0d1f58caae0473b595fbb1f5e29b20c515e/src-el/alignment2.py#L642">
<text text-anchor="middle" x="291" y="-424.3" font-family="Helvetica,sans-Serif" font-size="14.00">try_align_asp</text>
</a>
</g>
<!-- try_align_asp&#45;&gt;possible_world(s) -->
<g id="edge19" class="edge"><title>try_align_asp&#45;&gt;possible_world(s)</title>
<path fill="none" stroke="black" d="M242.464,-421.158C188.388,-413.542 106.029,-398.255 87,-374 57.3705,-336.234 72.8058,-312.153 86,-266 88.7131,-256.51 93.6715,-247.065 98.9347,-238.834"/>
<polygon fill="black" stroke="black" points="101.922,-240.666 104.673,-230.434 96.1423,-236.717 101.922,-240.666"/>
</g>
<!-- try_align_asp&#45;&gt;inconsistent_tap -->
<g id="edge18" class="edge"><title>try_align_asp&#45;&gt;inconsistent_tap</title>
<path fill="none" stroke="black" d="M335.522,-409.876C360.734,-400.179 392.453,-387.98 419.069,-377.743"/>
<polygon fill="black" stroke="black" points="420.545,-380.925 428.622,-374.068 418.032,-374.391 420.545,-380.925"/>
</g>
<!-- create_most_informative_relations(s) -->
<g id="node8" class="node"><title>create_most_informative_relations(s)</title>
<polygon fill="#ccffcc" stroke="black" points="277.5,-158 38.5,-158 38.5,-122 277.5,-122 277.5,-158"/>
<a target="_blank" href="https://github.com/EulerProject/EulerX/blob/00d5a0d1f58caae0473b595fbb1f5e29b20c515e/src-el/alignment2.py#L2780">
<text text-anchor="middle" x="158" y="-136.3" font-family="Helvetica,sans-Serif" font-size="14.00">create_most_informative_relations(s)</text>
</a>
</g>
<!-- create_most_informative_relations(s)&#45;&gt;most_informative_relations -->
<g id="edge21" class="edge"><title>create_most_informative_relations(s)&#45;&gt;most_informative_relations</title>
<path fill="none" stroke="black" d="M94.0423,-158.05C76.4185,-166.004 59.3243,-177.5 49,-194 40.5131,-207.564 45.238,-214.449 49,-230 57.4594,-264.969 60.7212,-276.399 86,-302 98.6946,-314.856 115.172,-325.315 131.076,-333.44"/>
<polygon fill="black" stroke="black" points="129.818,-336.72 140.341,-337.954 132.884,-330.427 129.818,-336.72"/>
</g>
<!-- visualize_possible_world(s) -->
<g id="node9" class="node"><title>visualize_possible_world(s)</title>
<polygon fill="#ccffcc" stroke="black" points="477.25,-158 296.75,-158 296.75,-122 477.25,-122 477.25,-158"/>
<a target="_blank" href="https://github.com/EulerProject/EulerX/blob/00d5a0d1f58caae0473b595fbb1f5e29b20c515e/src-el/show.py#L467">
<text text-anchor="middle" x="387" y="-136.3" font-family="Helvetica,sans-Serif" font-size="14.00">visualize_possible_world(s)</text>
</a>
</g>
<!-- possible_world(s)_graph(s) -->
<g id="node18" class="node"><title>possible_world(s)_graph(s)</title>
<path fill="#ffffcc" stroke="black" d="M464.25,-86C464.25,-86 309.75,-86 309.75,-86 303.75,-86 297.75,-80 297.75,-74 297.75,-74 297.75,-62 297.75,-62 297.75,-56 303.75,-50 309.75,-50 309.75,-50 464.25,-50 464.25,-50 470.25,-50 476.25,-56 476.25,-62 476.25,-62 476.25,-74 476.25,-74 476.25,-80 470.25,-86 464.25,-86"/>
<a target="_blank" href="https://github.com/EulerProject/EulerX/blob/00d5a0d1f58caae0473b595fbb1f5e29b20c515e/src-el/show.py#L820">
<text text-anchor="middle" x="387" y="-64.3" font-family="Helvetica,sans-Serif" font-size="14.00">possible_world(s)_graph(s)</text>
</a>
</g>
<!-- visualize_possible_world(s)&#45;&gt;possible_world(s)_graph(s) -->
<g id="edge23" class="edge"><title>visualize_possible_world(s)&#45;&gt;possible_world(s)_graph(s)</title>
<path fill="none" stroke="black" d="M387,-121.697C387,-113.983 387,-104.712 387,-96.1124"/>
<polygon fill="black" stroke="black" points="390.5,-96.1043 387,-86.1043 383.5,-96.1044 390.5,-96.1043"/>
</g>
<!-- repair_articulations -->
<g id="node10" class="node"><title>repair_articulations</title>
<polygon fill="#ccffcc" stroke="black" points="411.25,-302 280.75,-302 280.75,-266 411.25,-266 411.25,-302"/>
<a target="_blank" href="https://github.com/EulerProject/EulerX/blob/00d5a0d1f58caae0473b595fbb1f5e29b20c515e/src-el/alignment2.py#L1752">
<text text-anchor="middle" x="346" y="-280.3" font-family="Helvetica,sans-Serif" font-size="14.00">repair_articulations</text>
</a>
</g>
<!-- suggested_articulation_modifications -->
<g id="node21" class="node"><title>suggested_articulation_modifications</title>
<path fill="#ffffcc" stroke="black" d="M425.25,-230C425.25,-230 210.75,-230 210.75,-230 204.75,-230 198.75,-224 198.75,-218 198.75,-218 198.75,-206 198.75,-206 198.75,-200 204.75,-194 210.75,-194 210.75,-194 425.25,-194 425.25,-194 431.25,-194 437.25,-200 437.25,-206 437.25,-206 437.25,-218 437.25,-218 437.25,-224 431.25,-230 425.25,-230"/>
<a target="_blank" href="https://github.com/EulerProject/EulerX/blob/00d5a0d1f58caae0473b595fbb1f5e29b20c515e/src-el/alignment2.py#L1226">
<text text-anchor="middle" x="318" y="-208.3" font-family="Helvetica,sans-Serif" font-size="14.00">suggested_articulation_modifications</text>
</a>
</g>
<!-- repair_articulations&#45;&gt;suggested_articulation_modifications -->
<g id="edge25" class="edge"><title>repair_articulations&#45;&gt;suggested_articulation_modifications</title>
<path fill="none" stroke="black" d="M339.079,-265.697C335.925,-257.813 332.122,-248.304 328.619,-239.546"/>
<polygon fill="black" stroke="black" points="331.805,-238.089 324.842,-230.104 325.306,-240.689 331.805,-238.089"/>
</g>
<!-- visualize_inconsistency -->
<g id="node11" class="node"><title>visualize_inconsistency</title>
<polygon fill="#ccffcc" stroke="black" points="592.25,-302 435.75,-302 435.75,-266 592.25,-266 592.25,-302"/>
<a target="_blank" href="https://github.com/EulerProject/EulerX/blob/00d5a0d1f58caae0473b595fbb1f5e29b20c515e/src-el/show.py#L1348">
<text text-anchor="middle" x="514" y="-280.3" font-family="Helvetica,sans-Serif" font-size="14.00">visualize_inconsistency</text>
</a>
</g>
<!-- inconsistency_graph -->
<g id="node19" class="node"><title>inconsistency_graph</title>
<path fill="#ffffcc" stroke="black" d="M584,-230C584,-230 468,-230 468,-230 462,-230 456,-224 456,-218 456,-218 456,-206 456,-206 456,-200 462,-194 468,-194 468,-194 584,-194 584,-194 590,-194 596,-200 596,-206 596,-206 596,-218 596,-218 596,-224 590,-230 584,-230"/>
<a target="_blank" href="https://github.com/EulerProject/EulerX/blob/00d5a0d1f58caae0473b595fbb1f5e29b20c515e/src-el/show.py#L1398">
<text text-anchor="middle" x="526" y="-208.3" font-family="Helvetica,sans-Serif" font-size="14.00">inconsistency_graph</text>
</a>
</g>
<!-- visualize_inconsistency&#45;&gt;inconsistency_graph -->
<g id="edge28" class="edge"><title>visualize_inconsistency&#45;&gt;inconsistency_graph</title>
<path fill="none" stroke="black" d="M516.966,-265.697C518.289,-257.983 519.878,-248.712 521.352,-240.112"/>
<polygon fill="black" stroke="black" points="524.828,-240.552 523.068,-230.104 517.928,-239.369 524.828,-240.552"/>
</g>
<!-- visualize_tap -->
<g id="node12" class="node"><title>visualize_tap</title>
<polygon fill="#ccffcc" stroke="black" points="528.25,-734 433.75,-734 433.75,-698 528.25,-698 528.25,-734"/>
<a target="_blank" href="https://github.com/EulerProject/EulerX/blob/00d5a0d1f58caae0473b595fbb1f5e29b20c515e/src-el/show.py#L221">
<text text-anchor="middle" x="481" y="-712.3" font-family="Helvetica,sans-Serif" font-size="14.00">visualize_tap</text>
</a>
</g>
<!-- tap_graph -->
<g id="node15" class="node"><title>tap_graph</title>
<path fill="#ffffcc" stroke="black" d="M583.25,-662C583.25,-662 530.75,-662 530.75,-662 524.75,-662 518.75,-656 518.75,-650 518.75,-650 518.75,-638 518.75,-638 518.75,-632 524.75,-626 530.75,-626 530.75,-626 583.25,-626 583.25,-626 589.25,-626 595.25,-632 595.25,-638 595.25,-638 595.25,-650 595.25,-650 595.25,-656 589.25,-662 583.25,-662"/>
<a target="_blank" href="https://github.com/EulerProject/EulerX/blob/00d5a0d1f58caae0473b595fbb1f5e29b20c515e/src-el/show.py#L439">
<text text-anchor="middle" x="557" y="-640.3" font-family="Helvetica,sans-Serif" font-size="14.00">tap_graph</text>
</a>
</g>
<!-- visualize_tap&#45;&gt;tap_graph -->
<g id="edge30" class="edge"><title>visualize_tap&#45;&gt;tap_graph</title>
<path fill="none" stroke="black" d="M499.787,-697.697C509.174,-689.05 520.684,-678.449 530.913,-669.027"/>
<polygon fill="black" stroke="black" points="533.445,-671.454 538.43,-662.104 528.703,-666.305 533.445,-671.454"/>
</g>
<!-- wellformed_tap&#45;&gt;try_align -->
<g id="edge6" class="edge"><title>wellformed_tap&#45;&gt;try_align</title>
<path fill="none" stroke="black" d="M397.449,-769.697C388.766,-761.135 378.137,-750.656 368.652,-741.304"/>
<polygon fill="black" stroke="black" points="370.927,-738.633 361.349,-734.104 366.012,-743.617 370.927,-738.633"/>
</g>
<!-- wellformed_tap&#45;&gt;visualize_tap -->
<g id="edge31" class="edge"><title>wellformed_tap&#45;&gt;visualize_tap</title>
<path fill="none" stroke="black" d="M431.315,-769.697C439.307,-761.22 449.072,-750.864 457.822,-741.583"/>
<polygon fill="black" stroke="black" points="460.559,-743.781 464.873,-734.104 455.466,-738.979 460.559,-743.781"/>
</g>
<!-- wellformed_tap_output_port -->
<g id="node34" class="node"><title>wellformed_tap_output_port</title>
<ellipse fill="#ffffff" stroke="black" cx="627" cy="-716" rx="6.5" ry="7"/>
</g>
<!-- wellformed_tap&#45;&gt;wellformed_tap_output_port -->
<g id="edge36" class="edge"><title>wellformed_tap&#45;&gt;wellformed_tap_output_port</title>
<path fill="none" stroke="black" d="M469.377,-772.389C525.347,-757.302 604.849,-735.717 608,-734 610.517,-732.629 612.976,-730.863 615.245,-728.991"/>
<polygon fill="black" stroke="black" points="617.929,-731.27 622.78,-721.85 613.114,-726.189 617.929,-731.27"/>
</g>
<!-- malformed_tap_output_port -->
<g id="node35" class="node"><title>malformed_tap_output_port</title>
<ellipse fill="#ffffff" stroke="black" cx="659" cy="-716" rx="6.5" ry="7"/>
</g>
<!-- malformed_tap&#45;&gt;malformed_tap_output_port -->
<g id="edge37" class="edge"><title>malformed_tap&#45;&gt;malformed_tap_output_port</title>
<path fill="none" stroke="black" d="M580.626,-769.883C599.879,-760.534 623.037,-748.012 642,-734 643.964,-732.549 645.918,-730.873 647.764,-729.152"/>
<polygon fill="black" stroke="black" points="650.392,-731.47 654.861,-721.863 645.377,-726.586 650.392,-731.47"/>
</g>
<!-- tap_graph_output_port -->
<g id="node36" class="node"><title>tap_graph_output_port</title>
<ellipse fill="#ffffff" stroke="black" cx="627" cy="-572" rx="6.5" ry="7"/>
</g>
<!-- tap_graph&#45;&gt;tap_graph_output_port -->
<g id="edge38" class="edge"><title>tap_graph&#45;&gt;tap_graph_output_port</title>
<path fill="none" stroke="black" d="M574.303,-625.697C587.079,-612.921 604.124,-595.876 615.323,-584.677"/>
<polygon fill="black" stroke="black" points="617.984,-586.966 622.58,-577.42 613.034,-582.016 617.984,-586.966"/>
</g>
<!-- possible_world(s)&#45;&gt;create_most_informative_relations(s) -->
<g id="edge22" class="edge"><title>possible_world(s)&#45;&gt;create_most_informative_relations(s)</title>
<path fill="none" stroke="black" d="M128.64,-193.697C133.127,-185.644 138.559,-175.894 143.524,-166.982"/>
<polygon fill="black" stroke="black" points="146.661,-168.544 148.47,-158.104 140.546,-165.137 146.661,-168.544"/>
</g>
<!-- possible_world(s)&#45;&gt;visualize_possible_world(s) -->
<g id="edge24" class="edge"><title>possible_world(s)&#45;&gt;visualize_possible_world(s)</title>
<path fill="none" stroke="black" d="M180.149,-195.028C219.337,-184.793 270.468,-171.438 312.089,-160.566"/>
<polygon fill="black" stroke="black" points="313.113,-163.916 321.904,-158.003 311.344,-157.143 313.113,-163.916"/>
</g>
<!-- possible_world(s)_output_port -->
<g id="node37" class="node"><title>possible_world(s)_output_port</title>
<ellipse fill="#ffffff" stroke="black" cx="627" cy="-140" rx="6.5" ry="7"/>
</g>
<!-- possible_world(s)&#45;&gt;possible_world(s)_output_port -->
<g id="edge39" class="edge"><title>possible_world(s)&#45;&gt;possible_world(s)_output_port</title>
<path fill="none" stroke="black" d="M180.352,-195.54C183.268,-194.982 186.161,-194.464 189,-194 281.231,-178.929 522.21,-195.063 608,-158 610.702,-156.833 613.282,-155.125 615.622,-153.236"/>
<polygon fill="black" stroke="black" points="618.502,-155.314 623.198,-145.816 613.605,-150.312 618.502,-155.314"/>
</g>
<!-- inconsistent_tap&#45;&gt;repair_articulations -->
<g id="edge27" class="edge"><title>inconsistent_tap&#45;&gt;repair_articulations</title>
<path fill="none" stroke="black" d="M441.932,-337.876C425.173,-328.639 404.294,-317.131 386.298,-307.212"/>
<polygon fill="black" stroke="black" points="387.634,-303.952 377.187,-302.19 384.255,-310.082 387.634,-303.952"/>
</g>
<!-- inconsistent_tap&#45;&gt;visualize_inconsistency -->
<g id="edge29" class="edge"><title>inconsistent_tap&#45;&gt;visualize_inconsistency</title>
<path fill="none" stroke="black" d="M483.135,-337.697C487.852,-329.644 493.562,-319.894 498.782,-310.982"/>
<polygon fill="black" stroke="black" points="501.948,-312.502 503.982,-302.104 495.908,-308.964 501.948,-312.502"/>
</g>
<!-- inconsistent_tap_output_port -->
<g id="node38" class="node"><title>inconsistent_tap_output_port</title>
<ellipse fill="#ffffff" stroke="black" cx="659" cy="-284" rx="6.5" ry="7"/>
</g>
<!-- inconsistent_tap&#45;&gt;inconsistent_tap_output_port -->
<g id="edge40" class="edge"><title>inconsistent_tap&#45;&gt;inconsistent_tap_output_port</title>
<path fill="none" stroke="black" d="M530.279,-344.266C564.432,-336.157 607.678,-322.791 642,-302 644.146,-300.7 646.222,-299.073 648.143,-297.344"/>
<polygon fill="black" stroke="black" points="650.945,-299.475 655.297,-289.815 645.871,-294.653 650.945,-299.475"/>
</g>
<!-- possible_world(s)_graph(s)_output_port -->
<g id="node39" class="node"><title>possible_world(s)_graph(s)_output_port</title>
<ellipse fill="#ffffff" stroke="black" cx="387" cy="-7" rx="6.5" ry="7"/>
</g>
<!-- possible_world(s)_graph(s)&#45;&gt;possible_world(s)_graph(s)_output_port -->
<g id="edge41" class="edge"><title>possible_world(s)_graph(s)&#45;&gt;possible_world(s)_graph(s)_output_port</title>
<path fill="none" stroke="black" d="M387,-49.9348C387,-41.8859 387,-32.3254 387,-24.3671"/>
<polygon fill="black" stroke="black" points="390.5,-24.2164 387,-14.2164 383.5,-24.2165 390.5,-24.2164"/>
</g>
<!-- inconsistency_graph_output_port -->
<g id="node40" class="node"><title>inconsistency_graph_output_port</title>
<ellipse fill="#ffffff" stroke="black" cx="691" cy="-140" rx="6.5" ry="7"/>
</g>
<!-- inconsistency_graph&#45;&gt;inconsistency_graph_output_port -->
<g id="edge42" class="edge"><title>inconsistency_graph&#45;&gt;inconsistency_graph_output_port</title>
<path fill="none" stroke="black" d="M592.976,-193.918C619.427,-185.449 649.33,-173.627 674,-158 676.12,-156.657 678.182,-155.007 680.096,-153.269"/>
<polygon fill="black" stroke="black" points="682.891,-155.41 687.262,-145.759 677.827,-150.577 682.891,-155.41"/>
</g>
<!-- most_informative_relations&#45;&gt;create_possible_world(s) -->
<g id="edge14" class="edge"><title>most_informative_relations&#45;&gt;create_possible_world(s)</title>
<path fill="none" stroke="black" d="M184.27,-337.697C183.498,-329.983 182.571,-320.712 181.711,-312.112"/>
<polygon fill="black" stroke="black" points="185.188,-311.706 180.71,-302.104 178.223,-312.403 185.188,-311.706"/>
</g>
<!-- most_informative_relations_output_port -->
<g id="node41" class="node"><title>most_informative_relations_output_port</title>
<ellipse fill="#ffffff" stroke="black" cx="627" cy="-284" rx="6.5" ry="7"/>
</g>
<!-- most_informative_relations&#45;&gt;most_informative_relations_output_port -->
<g id="edge43" class="edge"><title>most_informative_relations&#45;&gt;most_informative_relations_output_port</title>
<path fill="none" stroke="black" d="M275.275,-339.42C278.556,-338.927 281.806,-338.452 285,-338 428.021,-317.768 476.136,-360.958 608,-302 610.687,-300.799 613.26,-299.074 615.597,-297.18"/>
<polygon fill="black" stroke="black" points="618.47,-299.267 623.182,-289.778 613.58,-294.257 618.47,-299.267"/>
</g>
<!-- suggested_articulation_modifications_output_port -->
<g id="node42" class="node"><title>suggested_articulation_modifications_output_port</title>
<ellipse fill="#ffffff" stroke="black" cx="659" cy="-140" rx="6.5" ry="7"/>
</g>
<!-- suggested_articulation_modifications&#45;&gt;suggested_articulation_modifications_output_port -->
<g id="edge44" class="edge"><title>suggested_articulation_modifications&#45;&gt;suggested_articulation_modifications_output_port</title>
<path fill="none" stroke="black" d="M437.547,-195.065C522.112,-183.178 623.614,-167.427 642,-158 644.233,-156.855 646.355,-155.31 648.295,-153.616"/>
<polygon fill="black" stroke="black" points="651.129,-155.71 655.411,-146.019 646.02,-150.925 651.129,-155.71"/>
</g>
<!-- tap -->
<g id="node22" class="node"><title>tap</title>
<path fill="#ffffcc" stroke="black" d="M493,-950C493,-950 463,-950 463,-950 457,-950 451,-944 451,-938 451,-938 451,-926 451,-926 451,-920 457,-914 463,-914 463,-914 493,-914 493,-914 499,-914 505,-920 505,-926 505,-926 505,-938 505,-938 505,-944 499,-950 493,-950"/>
<a target="_blank" href="https://github.com/EulerProject/EulerX/blob/00d5a0d1f58caae0473b595fbb1f5e29b20c515e/src-el/euler2#L30">
<text text-anchor="middle" x="478" y="-928.3" font-family="Helvetica,sans-Serif" font-size="14.00">tap</text>
</a>
</g>
<!-- tap&#45;&gt;validate -->
<g id="edge3" class="edge"><title>tap&#45;&gt;validate</title>
<path fill="none" stroke="black" d="M478,-913.697C478,-905.983 478,-896.712 478,-888.112"/>
<polygon fill="black" stroke="black" points="481.5,-888.104 478,-878.104 474.5,-888.104 481.5,-888.104"/>
</g>
<!-- rcc_tap&#45;&gt;parse_rcc_tap -->
<g id="edge9" class="edge"><title>rcc_tap&#45;&gt;parse_rcc_tap</title>
<path fill="none" stroke="black" d="M470,-625.697C470,-617.983 470,-608.712 470,-600.112"/>
<polygon fill="black" stroke="black" points="473.5,-600.104 470,-590.104 466.5,-600.104 473.5,-600.104"/>
</g>
<!-- rcc_tap_parsed&#45;&gt;try_align_rcc -->
<g id="edge12" class="edge"><title>rcc_tap_parsed&#45;&gt;try_align_rcc</title>
<path fill="none" stroke="black" d="M470,-481.697C470,-473.983 470,-464.712 470,-456.112"/>
<polygon fill="black" stroke="black" points="473.5,-456.104 470,-446.104 466.5,-456.104 473.5,-456.104"/>
</g>
<!-- asp_tap&#45;&gt;encode_asp_tap -->
<g id="edge16" class="edge"><title>asp_tap&#45;&gt;encode_asp_tap</title>
<path fill="none" stroke="black" d="M257.124,-625.697C262.355,-617.559 268.7,-607.689 274.478,-598.701"/>
<polygon fill="black" stroke="black" points="277.541,-600.409 280.004,-590.104 271.653,-596.623 277.541,-600.409"/>
</g>
<!-- asp_tap_encoded&#45;&gt;try_align_asp -->
<g id="edge20" class="edge"><title>asp_tap_encoded&#45;&gt;try_align_asp</title>
<path fill="none" stroke="black" d="M291,-481.697C291,-473.983 291,-464.712 291,-456.112"/>
<polygon fill="black" stroke="black" points="294.5,-456.104 291,-446.104 287.5,-456.104 294.5,-456.104"/>
</g>
<!-- reasoner -->
<g id="node27" class="node"><title>reasoner</title>
<path fill="#fcfcfc" stroke="black" d="M330,-806C330,-806 284,-806 284,-806 278,-806 272,-800 272,-794 272,-794 272,-782 272,-782 272,-776 278,-770 284,-770 284,-770 330,-770 330,-770 336,-770 342,-776 342,-782 342,-782 342,-794 342,-794 342,-800 336,-806 330,-806"/>
<a target="_blank" href="https://github.com/EulerProject/EulerX/blob/00d5a0d1f58caae0473b595fbb1f5e29b20c515e/src-el/euler2#L41">
<text text-anchor="middle" x="307" y="-784.3" font-family="Helvetica,sans-Serif" font-size="14.00">reasoner</text>
</a>
</g>
<!-- reasoner&#45;&gt;try_align -->
<g id="edge7" class="edge"><title>reasoner&#45;&gt;try_align</title>
<path fill="none" stroke="black" d="M316.146,-769.697C320.403,-761.644 325.556,-751.894 330.266,-742.982"/>
<polygon fill="black" stroke="black" points="333.38,-744.581 334.959,-734.104 327.192,-741.31 333.38,-744.581"/>
</g>
<!-- encoding_method -->
<g id="node28" class="node"><title>encoding_method</title>
<path fill="#fcfcfc" stroke="black" d="M409.25,-662C409.25,-662 308.75,-662 308.75,-662 302.75,-662 296.75,-656 296.75,-650 296.75,-650 296.75,-638 296.75,-638 296.75,-632 302.75,-626 308.75,-626 308.75,-626 409.25,-626 409.25,-626 415.25,-626 421.25,-632 421.25,-638 421.25,-638 421.25,-650 421.25,-650 421.25,-656 415.25,-662 409.25,-662"/>
<a target="_blank" href="https://github.com/EulerProject/EulerX/blob/00d5a0d1f58caae0473b595fbb1f5e29b20c515e/src-el/euler2#L40">
<text text-anchor="middle" x="359" y="-640.3" font-family="Helvetica,sans-Serif" font-size="14.00">encoding_method</text>
</a>
</g>
<!-- encoding_method&#45;&gt;encode_asp_tap -->
<g id="edge17" class="edge"><title>encoding_method&#45;&gt;encode_asp_tap</title>
<path fill="none" stroke="black" d="M342.191,-625.697C333.874,-617.135 323.695,-606.656 314.61,-597.304"/>
<polygon fill="black" stroke="black" points="317.094,-594.838 307.616,-590.104 312.073,-599.716 317.094,-594.838"/>
</g>
<!-- repair_method -->
<g id="node29" class="node"><title>repair_method</title>
<path fill="#fcfcfc" stroke="black" d="M386,-374C386,-374 306,-374 306,-374 300,-374 294,-368 294,-362 294,-362 294,-350 294,-350 294,-344 300,-338 306,-338 306,-338 386,-338 386,-338 392,-338 398,-344 398,-350 398,-350 398,-362 398,-362 398,-368 392,-374 386,-374"/>
<a target="_blank" href="https://github.com/EulerProject/EulerX/blob/00d5a0d1f58caae0473b595fbb1f5e29b20c515e/src-el/euler2#L47">
<text text-anchor="middle" x="346" y="-352.3" font-family="Helvetica,sans-Serif" font-size="14.00">repair_method</text>
</a>
</g>
<!-- repair_method&#45;&gt;repair_articulations -->
<g id="edge26" class="edge"><title>repair_method&#45;&gt;repair_articulations</title>
<path fill="none" stroke="black" d="M346,-337.697C346,-329.983 346,-320.712 346,-312.112"/>
<polygon fill="black" stroke="black" points="349.5,-312.104 346,-302.104 342.5,-312.104 349.5,-312.104"/>
</g>
<!-- tap_input_port -->
<g id="node30" class="node"><title>tap_input_port</title>
<ellipse fill="#ffffff" stroke="black" cx="478" cy="-993" rx="6.5" ry="7"/>
</g>
<!-- tap_input_port&#45;&gt;tap -->
<g id="edge32" class="edge"><title>tap_input_port&#45;&gt;tap</title>
<path fill="none" stroke="black" d="M478,-985.686C478,-979.486 478,-969.595 478,-960.048"/>
<polygon fill="black" stroke="black" points="481.5,-960.016 478,-950.016 474.5,-960.016 481.5,-960.016"/>
</g>
<!-- encoding_method_input_port -->
<g id="node31" class="node"><title>encoding_method_input_port</title>
<ellipse fill="#ffffff" stroke="black" cx="691" cy="-716" rx="6.5" ry="7"/>
</g>
<!-- encoding_method_input_port&#45;&gt;encoding_method -->
<g id="edge33" class="edge"><title>encoding_method_input_port&#45;&gt;encoding_method</title>
<path fill="none" stroke="black" d="M687.423,-709.958C684.338,-706.024 679.519,-700.775 674,-698 578.936,-650.195 539.933,-680.86 431.3,-662.079"/>
<polygon fill="black" stroke="black" points="431.738,-658.601 421.27,-660.239 430.475,-665.486 431.738,-658.601"/>
</g>
<!-- reasoner_input_port -->
<g id="node32" class="node"><title>reasoner_input_port</title>
<ellipse fill="#ffffff" stroke="black" cx="627" cy="-860" rx="6.5" ry="7"/>
</g>
<!-- reasoner_input_port&#45;&gt;reasoner -->
<g id="edge34" class="edge"><title>reasoner_input_port&#45;&gt;reasoner</title>
<path fill="none" stroke="black" d="M623.162,-854.265C619.657,-850.294 614.103,-844.832 608,-842 506.344,-794.819 464.998,-832.694 352.347,-805.952"/>
<polygon fill="black" stroke="black" points="352.862,-802.473 342.312,-803.445 351.166,-809.264 352.862,-802.473"/>
</g>
<!-- repair_method_input_port -->
<g id="node33" class="node"><title>repair_method_input_port</title>
<ellipse fill="#ffffff" stroke="black" cx="7" cy="-428" rx="6.5" ry="7"/>
</g>
<!-- repair_method_input_port&#45;&gt;repair_method -->
<g id="edge35" class="edge"><title>repair_method_input_port&#45;&gt;repair_method</title>
<path fill="none" stroke="black" d="M10.8375,-422.264C14.3428,-418.293 19.8966,-412.831 26,-410 128.159,-362.619 168.39,-395.447 283.772,-373.812"/>
<polygon fill="black" stroke="black" points="284.552,-377.225 293.685,-371.855 283.196,-370.358 284.552,-377.225"/>
</g>
</g>

<text x="720" y="175" font-family="Helvetica,sans-Serif" font-size="14.00">euler2 check {tap}</text>
<text x="720" y="310" font-family="Helvetica,sans-Serif" font-size="14.00">euler2 align {tap} -r {reasoner} -e {encoding}</text>
<text x="720" y="330" font-family="Helvetica,sans-Serif" font-size="14.00">euler2 show iv {tap}</text>
<text x="720" y="745" font-family="Helvetica,sans-Serif" font-size="14.00">euler2 show inconLat</text>
<text x="720" y="765" font-family="Helvetica,sans-Serif" font-size="14.00">euler2 align --repair={repairmethod} -r {reasoner}</text>
<text x="720" y="895" font-family="Helvetica,sans-Serif" font-size="14.00">euler2 show pw</text>

</svg>
