<?xml version="1.0" encoding="UTF-8" standalone="no"?>
<!DOCTYPE svg PUBLIC "-//W3C//DTD SVG 1.1//EN"
 "http://www.w3.org/Graphics/SVG/1.1/DTD/svg11.dtd">
<!-- Generated by graphviz version 2.36.0 (20140111.2315)
 -->
<!-- Title: Workflow Pages: 1 -->
<svg width="857pt" height="1084pt"
 viewBox="0.00 0.00 857.00 1084.00" xmlns="http://www.w3.org/2000/svg" xmlns:xlink="http://www.w3.org/1999/xlink">
<g id="graph0" class="graph" transform="scale(1 1) rotate(0) translate(4 1080)">
<title>Workflow</title>
<polygon fill="white" stroke="none" points="-4,4 -4,-1080 853,-1080 853,4 -4,4"/>
<text text-anchor="middle" x="424.5" y="-1057.6" font-family="Helvetica,sans-Serif" font-size="18.00">euler_workflow</text>
<g id="clust1" class="cluster"><title>cluster_workflow_box_outer</title>
<polygon fill="none" stroke="black" stroke-width="2" points="22,-34 22,-1014 763,-1014 763,-34 22,-34"/>
</g>
<g id="clust2" class="cluster"><title>cluster_workflow_box_inner</title>
<polygon fill="none" stroke="black" stroke-width="0" points="30,-42 30,-1006 755,-1006 755,-42 30,-42"/>
</g>
<!-- validate -->
<g id="node1" class="node"><title>validate</title>
<a target="_blank" href="https://github.com/EulerProject/EulerX/blob/00d5a0d1f58caae0473b595fbb1f5e29b20c515e/src-el/checker.py#L12">
<polygon fill="#ccffcc" stroke="black" points="562.5,-879 562.5,-925 687.5,-925 687.5,-879 562.5,-879"/>
<text text-anchor="middle" x="625" y="-909.8" font-family="Helvetica,sans-Serif" font-size="14.00">validate</text>
<polyline fill="none" stroke="black" points="562.5,-902 687.5,-902 "/>
<text text-anchor="middle" x="625" y="-886.8" font-family="Helvetica,sans-Serif" font-size="14.00">euler2 check {tap}</text>
</a>
</g>
<!-- wellformed_tap -->
<g id="node13" class="node"><title>wellformed_tap</title>
<a target="_blank" href="https://github.com/EulerProject/EulerX/blob/00d5a0d1f58caae0473b595fbb1f5e29b20c515e/src-el/checker.py#L61">
<path fill="#ffffcc" stroke="black" d="M608.25,-842C608.25,-842 523.75,-842 523.75,-842 517.75,-842 511.75,-836 511.75,-830 511.75,-830 511.75,-818 511.75,-818 511.75,-812 517.75,-806 523.75,-806 523.75,-806 608.25,-806 608.25,-806 614.25,-806 620.25,-812 620.25,-818 620.25,-818 620.25,-830 620.25,-830 620.25,-836 614.25,-842 608.25,-842"/>
<text text-anchor="middle" x="566" y="-820.3" font-family="Helvetica,sans-Serif" font-size="14.00">wellformed_tap</text>
</a>
</g>
<!-- validate&#45;&gt;wellformed_tap -->
<g id="edge1" class="edge"><title>validate&#45;&gt;wellformed_tap</title>
<path fill="none" stroke="black" d="M607.617,-878.609C600.747,-869.758 592.815,-859.541 585.73,-850.415"/>
<polygon fill="black" stroke="black" points="588.414,-848.165 579.517,-842.412 582.885,-852.458 588.414,-848.165"/>
</g>
<!-- malformed_tap -->
<g id="node14" class="node"><title>malformed_tap</title>
<a target="_blank" href="https://github.com/EulerProject/EulerX/blob/00d5a0d1f58caae0473b595fbb1f5e29b20c515e/src-el/checker.py#L63">
<path fill="#ffffcc" stroke="black" d="M735,-842C735,-842 651,-842 651,-842 645,-842 639,-836 639,-830 639,-830 639,-818 639,-818 639,-812 645,-806 651,-806 651,-806 735,-806 735,-806 741,-806 747,-812 747,-818 747,-818 747,-830 747,-830 747,-836 741,-842 735,-842"/>
<text text-anchor="middle" x="693" y="-820.3" font-family="Helvetica,sans-Serif" font-size="14.00">malformed_tap</text>
</a>
</g>
<!-- validate&#45;&gt;malformed_tap -->
<g id="edge2" class="edge"><title>validate&#45;&gt;malformed_tap</title>
<path fill="none" stroke="black" d="M645.034,-878.609C653.034,-869.668 662.281,-859.333 670.51,-850.136"/>
<polygon fill="black" stroke="black" points="673.361,-852.198 677.421,-842.412 668.144,-847.531 673.361,-852.198"/>
</g>
<!-- try_align -->
<g id="node2" class="node"><title>try_align</title>
<a target="_blank" href="https://github.com/EulerProject/EulerX/blob/00d5a0d1f58caae0473b595fbb1f5e29b20c515e/src-el/alignment2.py#L340">
<polygon fill="#ccffcc" stroke="black" points="261.5,-723 261.5,-769 594.5,-769 594.5,-723 261.5,-723"/>
<text text-anchor="middle" x="428" y="-753.8" font-family="Helvetica,sans-Serif" font-size="14.00">try_align</text>
<polyline fill="none" stroke="black" points="261.5,-746 594.5,-746 "/>
<text text-anchor="middle" x="428" y="-730.8" font-family="Helvetica,sans-Serif" font-size="14.00">euler2 align {tap} &#45;r {reasoner} &#45;e {encoding_method}</text>
</a>
</g>
<!-- rcc_tap -->
<g id="node23" class="node"><title>rcc_tap</title>
<a target="_blank" href="https://github.com/EulerProject/EulerX/blob/00d5a0d1f58caae0473b595fbb1f5e29b20c515e/src-el/alignment2.py#L3625">
<path fill="#ffffcc" stroke="black" d="M606.25,-686C606.25,-686 569.75,-686 569.75,-686 563.75,-686 557.75,-680 557.75,-674 557.75,-674 557.75,-662 557.75,-662 557.75,-656 563.75,-650 569.75,-650 569.75,-650 606.25,-650 606.25,-650 612.25,-650 618.25,-656 618.25,-662 618.25,-662 618.25,-674 618.25,-674 618.25,-680 612.25,-686 606.25,-686"/>
<text text-anchor="middle" x="588" y="-664.3" font-family="Helvetica,sans-Serif" font-size="14.00">rcc_tap</text>
</a>
</g>
<!-- try_align&#45;&gt;rcc_tap -->
<g id="edge4" class="edge"><title>try_align&#45;&gt;rcc_tap</title>
<path fill="none" stroke="black" d="M474.709,-722.813C498.114,-711.696 526.147,-698.38 548.472,-687.776"/>
<polygon fill="black" stroke="black" points="550.129,-690.864 557.66,-683.412 547.125,-684.541 550.129,-690.864"/>
</g>
<!-- asp_tap -->
<g id="node25" class="node"><title>asp_tap</title>
<a target="_blank" href="https://github.com/EulerProject/EulerX/blob/00d5a0d1f58caae0473b595fbb1f5e29b20c515e/src-el/alignment2.py#L1995">
<path fill="#ffffcc" stroke="black" d="M384.25,-686C384.25,-686 343.75,-686 343.75,-686 337.75,-686 331.75,-680 331.75,-674 331.75,-674 331.75,-662 331.75,-662 331.75,-656 337.75,-650 343.75,-650 343.75,-650 384.25,-650 384.25,-650 390.25,-650 396.25,-656 396.25,-662 396.25,-662 396.25,-674 396.25,-674 396.25,-680 390.25,-686 384.25,-686"/>
<text text-anchor="middle" x="364" y="-664.3" font-family="Helvetica,sans-Serif" font-size="14.00">asp_tap</text>
</a>
</g>
<!-- try_align&#45;&gt;asp_tap -->
<g id="edge5" class="edge"><title>try_align&#45;&gt;asp_tap</title>
<path fill="none" stroke="black" d="M409.144,-722.609C401.615,-713.668 392.912,-703.333 385.168,-694.136"/>
<polygon fill="black" stroke="black" points="387.781,-691.807 378.663,-686.412 382.427,-696.316 387.781,-691.807"/>
</g>
<!-- parse_rcc_tap -->
<g id="node3" class="node"><title>parse_rcc_tap</title>
<a target="_blank" href="https://github.com/EulerProject/EulerX/blob/00d5a0d1f58caae0473b595fbb1f5e29b20c515e/src-el/alignment2.py#L3659">
<polygon fill="#ccffcc" stroke="black" points="626.5,-614 525.5,-614 525.5,-578 626.5,-578 626.5,-614"/>
<text text-anchor="middle" x="576" y="-592.3" font-family="Helvetica,sans-Serif" font-size="14.00">parse_rcc_tap</text>
</a>
</g>
<!-- rcc_tap_parsed -->
<g id="node24" class="node"><title>rcc_tap_parsed</title>
<a target="_blank" href="https://github.com/EulerProject/EulerX/blob/00d5a0d1f58caae0473b595fbb1f5e29b20c515e/src-el/alignment2.py#L3659">
<path fill="#ffffcc" stroke="black" d="M597,-542C597,-542 511,-542 511,-542 505,-542 499,-536 499,-530 499,-530 499,-518 499,-518 499,-512 505,-506 511,-506 511,-506 597,-506 597,-506 603,-506 609,-512 609,-518 609,-518 609,-530 609,-530 609,-536 603,-542 597,-542"/>
<text text-anchor="middle" x="554" y="-520.3" font-family="Helvetica,sans-Serif" font-size="14.00">rcc_tap_parsed</text>
</a>
</g>
<!-- parse_rcc_tap&#45;&gt;rcc_tap_parsed -->
<g id="edge8" class="edge"><title>parse_rcc_tap&#45;&gt;rcc_tap_parsed</title>
<path fill="none" stroke="black" d="M570.562,-577.697C568.111,-569.898 565.16,-560.509 562.432,-551.829"/>
<polygon fill="black" stroke="black" points="565.713,-550.595 559.376,-542.104 559.035,-552.694 565.713,-550.595"/>
</g>
<!-- try_align_rcc -->
<g id="node4" class="node"><title>try_align_rcc</title>
<a target="_blank" href="https://github.com/EulerProject/EulerX/blob/00d5a0d1f58caae0473b595fbb1f5e29b20c515e/src-el/alignment2.py#L342">
<polygon fill="#ccffcc" stroke="black" points="583.25,-470 490.75,-470 490.75,-434 583.25,-434 583.25,-470"/>
<text text-anchor="middle" x="537" y="-448.3" font-family="Helvetica,sans-Serif" font-size="14.00">try_align_rcc</text>
</a>
</g>
<!-- inconsistent_tap -->
<g id="node17" class="node"><title>inconsistent_tap</title>
<a target="_blank" href="https://github.com/EulerProject/EulerX/blob/00d5a0d1f58caae0473b595fbb1f5e29b20c515e/src-el/alignment2.py#L663">
<path fill="#ffffcc" stroke="black" d="M582,-398C582,-398 492,-398 492,-398 486,-398 480,-392 480,-386 480,-386 480,-374 480,-374 480,-368 486,-362 492,-362 492,-362 582,-362 582,-362 588,-362 594,-368 594,-374 594,-374 594,-386 594,-386 594,-392 588,-398 582,-398"/>
<text text-anchor="middle" x="537" y="-376.3" font-family="Helvetica,sans-Serif" font-size="14.00">inconsistent_tap</text>
</a>
</g>
<!-- try_align_rcc&#45;&gt;inconsistent_tap -->
<g id="edge10" class="edge"><title>try_align_rcc&#45;&gt;inconsistent_tap</title>
<path fill="none" stroke="black" d="M537,-433.697C537,-425.983 537,-416.712 537,-408.112"/>
<polygon fill="black" stroke="black" points="540.5,-408.104 537,-398.104 533.5,-408.104 540.5,-408.104"/>
</g>
<!-- most_informative_relations -->
<g id="node20" class="node"><title>most_informative_relations</title>
<path fill="#ffffcc" stroke="black" d="M287.25,-398C287.25,-398 132.75,-398 132.75,-398 126.75,-398 120.75,-392 120.75,-386 120.75,-386 120.75,-374 120.75,-374 120.75,-368 126.75,-362 132.75,-362 132.75,-362 287.25,-362 287.25,-362 293.25,-362 299.25,-368 299.25,-374 299.25,-374 299.25,-386 299.25,-386 299.25,-392 293.25,-398 287.25,-398"/>
<text text-anchor="middle" x="210" y="-376.3" font-family="Helvetica,sans-Serif" font-size="14.00">most_informative_relations</text>
</g>
<!-- try_align_rcc&#45;&gt;most_informative_relations -->
<g id="edge11" class="edge"><title>try_align_rcc&#45;&gt;most_informative_relations</title>
<path fill="none" stroke="black" d="M490.565,-439.842C482.07,-437.856 473.275,-435.837 465,-434 412.146,-422.27 352.951,-409.919 304.908,-400.093"/>
<polygon fill="black" stroke="black" points="305.33,-396.607 294.832,-398.036 303.93,-403.465 305.33,-396.607"/>
</g>
<!-- create_possible_worlds -->
<g id="node5" class="node"><title>create_possible_worlds</title>
<polygon fill="#ccffcc" stroke="black" points="235.5,-320 78.5,-320 78.5,-284 235.5,-284 235.5,-320"/>
<text text-anchor="middle" x="157" y="-298.3" font-family="Helvetica,sans-Serif" font-size="14.00">create_possible_worlds</text>
</g>
<!-- possible_worlds -->
<g id="node16" class="node"><title>possible_worlds</title>
<a target="_blank" href="https://github.com/EulerProject/EulerX/blob/00d5a0d1f58caae0473b595fbb1f5e29b20c515e/src-el/alignment2.py#L643">
<path fill="#ffffcc" stroke="black" d="M201.25,-242C201.25,-242 112.75,-242 112.75,-242 106.75,-242 100.75,-236 100.75,-230 100.75,-230 100.75,-218 100.75,-218 100.75,-212 106.75,-206 112.75,-206 112.75,-206 201.25,-206 201.25,-206 207.25,-206 213.25,-212 213.25,-218 213.25,-218 213.25,-230 213.25,-230 213.25,-236 207.25,-242 201.25,-242"/>
<text text-anchor="middle" x="157" y="-220.3" font-family="Helvetica,sans-Serif" font-size="14.00">possible_worlds</text>
</a>
</g>
<!-- create_possible_worlds&#45;&gt;possible_worlds -->
<g id="edge13" class="edge"><title>create_possible_worlds&#45;&gt;possible_worlds</title>
<path fill="none" stroke="black" d="M157,-283.754C157,-274.523 157,-262.935 157,-252.495"/>
<polygon fill="black" stroke="black" points="160.5,-252.177 157,-242.177 153.5,-252.177 160.5,-252.177"/>
</g>
<!-- encode_asp_tap -->
<g id="node6" class="node"><title>encode_asp_tap</title>
<a target="_blank" href="https://github.com/EulerProject/EulerX/blob/00d5a0d1f58caae0473b595fbb1f5e29b20c515e/src-el/alignment2.py#L1995">
<polygon fill="#ccffcc" stroke="black" points="465.5,-614 350.5,-614 350.5,-578 465.5,-578 465.5,-614"/>
<text text-anchor="middle" x="408" y="-592.3" font-family="Helvetica,sans-Serif" font-size="14.00">encode_asp_tap</text>
</a>
</g>
<!-- asp_tap_encoded -->
<g id="node26" class="node"><title>asp_tap_encoded</title>
<path fill="#ffffcc" stroke="black" d="M457.5,-542C457.5,-542 358.5,-542 358.5,-542 352.5,-542 346.5,-536 346.5,-530 346.5,-530 346.5,-518 346.5,-518 346.5,-512 352.5,-506 358.5,-506 358.5,-506 457.5,-506 457.5,-506 463.5,-506 469.5,-512 469.5,-518 469.5,-518 469.5,-530 469.5,-530 469.5,-536 463.5,-542 457.5,-542"/>
<text text-anchor="middle" x="408" y="-520.3" font-family="Helvetica,sans-Serif" font-size="14.00">asp_tap_encoded</text>
</g>
<!-- encode_asp_tap&#45;&gt;asp_tap_encoded -->
<g id="edge15" class="edge"><title>encode_asp_tap&#45;&gt;asp_tap_encoded</title>
<path fill="none" stroke="black" d="M408,-577.697C408,-569.983 408,-560.712 408,-552.112"/>
<polygon fill="black" stroke="black" points="411.5,-552.104 408,-542.104 404.5,-552.104 411.5,-552.104"/>
</g>
<!-- try_align_asp -->
<g id="node7" class="node"><title>try_align_asp</title>
<a target="_blank" href="https://github.com/EulerProject/EulerX/blob/00d5a0d1f58caae0473b595fbb1f5e29b20c515e/src-el/alignment2.py#L642">
<polygon fill="#ccffcc" stroke="black" points="456.25,-470 359.75,-470 359.75,-434 456.25,-434 456.25,-470"/>
<text text-anchor="middle" x="408" y="-448.3" font-family="Helvetica,sans-Serif" font-size="14.00">try_align_asp</text>
</a>
</g>
<!-- try_align_asp&#45;&gt;possible_worlds -->
<g id="edge19" class="edge"><title>try_align_asp&#45;&gt;possible_worlds</title>
<path fill="none" stroke="black" d="M359.51,-447.276C285.913,-440.817 150.398,-425.516 111,-398 64.6742,-365.646 41.2008,-327.194 69,-278 76.3429,-265.006 88.2892,-254.843 101.044,-247.05"/>
<polygon fill="black" stroke="black" points="102.964,-249.986 109.958,-242.027 99.5273,-243.887 102.964,-249.986"/>
</g>
<!-- try_align_asp&#45;&gt;inconsistent_tap -->
<g id="edge18" class="edge"><title>try_align_asp&#45;&gt;inconsistent_tap</title>
<path fill="none" stroke="black" d="M439.557,-433.876C456.658,-424.596 477.982,-413.025 496.319,-403.075"/>
<polygon fill="black" stroke="black" points="498.202,-406.035 505.322,-398.19 494.863,-399.883 498.202,-406.035"/>
</g>
<!-- create_most_informative_relations -->
<g id="node8" class="node"><title>create_most_informative_relations</title>
<a target="_blank" href="https://github.com/EulerProject/EulerX/blob/00d5a0d1f58caae0473b595fbb1f5e29b20c515e/src-el/alignment2.py#L2780">
<polygon fill="#ccffcc" stroke="black" points="261.5,-164 38.5,-164 38.5,-128 261.5,-128 261.5,-164"/>
<text text-anchor="middle" x="150" y="-142.3" font-family="Helvetica,sans-Serif" font-size="14.00">create_most_informative_relations</text>
</a>
</g>
<!-- create_most_informative_relations&#45;&gt;most_informative_relations -->
<g id="edge21" class="edge"><title>create_most_informative_relations&#45;&gt;most_informative_relations</title>
<path fill="none" stroke="black" d="M128.239,-164.077C115.761,-174.895 100.698,-189.857 91,-206 63.0772,-252.48 38.1326,-281.421 69,-326 79.363,-340.966 94.5153,-351.712 111.086,-359.426"/>
<polygon fill="black" stroke="black" points="109.845,-362.702 120.417,-363.407 112.593,-356.264 109.845,-362.702"/>
</g>
<!-- visualize_possible_worlds -->
<g id="node9" class="node"><title>visualize_possible_worlds</title>
<a target="_blank" href="https://github.com/EulerProject/EulerX/blob/00d5a0d1f58caae0473b595fbb1f5e29b20c515e/src-el/show.py#L467">
<polygon fill="#ccffcc" stroke="black" points="280,-123 280,-169 452,-169 452,-123 280,-123"/>
<text text-anchor="middle" x="366" y="-153.8" font-family="Helvetica,sans-Serif" font-size="14.00">visualize_possible_worlds</text>
<polyline fill="none" stroke="black" points="280,-146 452,-146 "/>
<text text-anchor="middle" x="366" y="-130.8" font-family="Helvetica,sans-Serif" font-size="14.00">euler2 show pw</text>
</a>
</g>
<!-- possible_worlds_graphs -->
<g id="node18" class="node"><title>possible_worlds_graphs</title>
<a target="_blank" href="https://github.com/EulerProject/EulerX/blob/00d5a0d1f58caae0473b595fbb1f5e29b20c515e/src-el/show.py#L820">
<path fill="#ffffcc" stroke="black" d="M434.25,-86C434.25,-86 297.75,-86 297.75,-86 291.75,-86 285.75,-80 285.75,-74 285.75,-74 285.75,-62 285.75,-62 285.75,-56 291.75,-50 297.75,-50 297.75,-50 434.25,-50 434.25,-50 440.25,-50 446.25,-56 446.25,-62 446.25,-62 446.25,-74 446.25,-74 446.25,-80 440.25,-86 434.25,-86"/>
<text text-anchor="middle" x="366" y="-64.3" font-family="Helvetica,sans-Serif" font-size="14.00">possible_worlds_graphs</text>
</a>
</g>
<!-- visualize_possible_worlds&#45;&gt;possible_worlds_graphs -->
<g id="edge23" class="edge"><title>visualize_possible_worlds&#45;&gt;possible_worlds_graphs</title>
<path fill="none" stroke="black" d="M366,-122.609C366,-114.481 366,-105.2 366,-96.6708"/>
<polygon fill="black" stroke="black" points="369.5,-96.4121 366,-86.4121 362.5,-96.4121 369.5,-96.4121"/>
</g>
<!-- repair_articulations -->
<g id="node10" class="node"><title>repair_articulations</title>
<a target="_blank" href="https://github.com/EulerProject/EulerX/blob/00d5a0d1f58caae0473b595fbb1f5e29b20c515e/src-el/alignment2.py#L1752">
<polygon fill="#ccffcc" stroke="black" points="254.5,-279 254.5,-325 571.5,-325 571.5,-279 254.5,-279"/>
<text text-anchor="middle" x="413" y="-309.8" font-family="Helvetica,sans-Serif" font-size="14.00">repair_articulations</text>
<polyline fill="none" stroke="black" points="254.5,-302 571.5,-302 "/>
<text text-anchor="middle" x="413" y="-286.8" font-family="Helvetica,sans-Serif" font-size="14.00">euler2 align &#45;&#45;repair={repair_method} &#45;r {reasoner}</text>
</a>
</g>
<!-- suggested_articulation_modifications -->
<g id="node21" class="node"><title>suggested_articulation_modifications</title>
<a target="_blank" href="https://github.com/EulerProject/EulerX/blob/00d5a0d1f58caae0473b595fbb1f5e29b20c515e/src-el/alignment2.py#L1226">
<path fill="#ffffcc" stroke="black" d="M545.25,-242C545.25,-242 330.75,-242 330.75,-242 324.75,-242 318.75,-236 318.75,-230 318.75,-230 318.75,-218 318.75,-218 318.75,-212 324.75,-206 330.75,-206 330.75,-206 545.25,-206 545.25,-206 551.25,-206 557.25,-212 557.25,-218 557.25,-218 557.25,-230 557.25,-230 557.25,-236 551.25,-242 545.25,-242"/>
<text text-anchor="middle" x="438" y="-220.3" font-family="Helvetica,sans-Serif" font-size="14.00">suggested_articulation_modifications</text>
</a>
</g>
<!-- repair_articulations&#45;&gt;suggested_articulation_modifications -->
<g id="edge25" class="edge"><title>repair_articulations&#45;&gt;suggested_articulation_modifications</title>
<path fill="none" stroke="black" d="M420.366,-278.609C423.099,-270.3 426.228,-260.787 429.084,-252.103"/>
<polygon fill="black" stroke="black" points="432.472,-253.005 432.272,-242.412 425.823,-250.818 432.472,-253.005"/>
</g>
<!-- visualize_inconsistency -->
<g id="node11" class="node"><title>visualize_inconsistency</title>
<a target="_blank" href="https://github.com/EulerProject/EulerX/blob/00d5a0d1f58caae0473b595fbb1f5e29b20c515e/src-el/show.py#L1348">
<polygon fill="#ccffcc" stroke="black" points="589.5,-279 589.5,-325 746.5,-325 746.5,-279 589.5,-279"/>
<text text-anchor="middle" x="668" y="-309.8" font-family="Helvetica,sans-Serif" font-size="14.00">visualize_inconsistency</text>
<polyline fill="none" stroke="black" points="589.5,-302 746.5,-302 "/>
<text text-anchor="middle" x="668" y="-286.8" font-family="Helvetica,sans-Serif" font-size="14.00">euler2 show inconLat</text>
</a>
</g>
<!-- inconsistency_graph -->
<g id="node19" class="node"><title>inconsistency_graph</title>
<a target="_blank" href="https://github.com/EulerProject/EulerX/blob/00d5a0d1f58caae0473b595fbb1f5e29b20c515e/src-el/show.py#L1398">
<path fill="#ffffcc" stroke="black" d="M730,-242C730,-242 614,-242 614,-242 608,-242 602,-236 602,-230 602,-230 602,-218 602,-218 602,-212 608,-206 614,-206 614,-206 730,-206 730,-206 736,-206 742,-212 742,-218 742,-218 742,-230 742,-230 742,-236 736,-242 730,-242"/>
<text text-anchor="middle" x="672" y="-220.3" font-family="Helvetica,sans-Serif" font-size="14.00">inconsistency_graph</text>
</a>
</g>
<!-- visualize_inconsistency&#45;&gt;inconsistency_graph -->
<g id="edge28" class="edge"><title>visualize_inconsistency&#45;&gt;inconsistency_graph</title>
<path fill="none" stroke="black" d="M669.178,-278.609C669.606,-270.481 670.095,-261.2 670.544,-252.671"/>
<polygon fill="black" stroke="black" points="674.053,-252.582 671.084,-242.412 667.063,-252.214 674.053,-252.582"/>
</g>
<!-- visualize_tap -->
<g id="node12" class="node"><title>visualize_tap</title>
<a target="_blank" href="https://github.com/EulerProject/EulerX/blob/00d5a0d1f58caae0473b595fbb1f5e29b20c515e/src-el/show.py#L221">
<polygon fill="#ccffcc" stroke="black" points="613,-723 613,-769 747,-769 747,-723 613,-723"/>
<text text-anchor="middle" x="680" y="-753.8" font-family="Helvetica,sans-Serif" font-size="14.00">visualize_tap</text>
<polyline fill="none" stroke="black" points="613,-746 747,-746 "/>
<text text-anchor="middle" x="680" y="-730.8" font-family="Helvetica,sans-Serif" font-size="14.00">euler2 show iv {tap}</text>
</a>
</g>
<!-- tap_graph -->
<g id="node15" class="node"><title>tap_graph</title>
<a target="_blank" href="https://github.com/EulerProject/EulerX/blob/00d5a0d1f58caae0473b595fbb1f5e29b20c515e/src-el/show.py#L439">
<path fill="#ffffcc" stroke="black" d="M720.25,-686C720.25,-686 667.75,-686 667.75,-686 661.75,-686 655.75,-680 655.75,-674 655.75,-674 655.75,-662 655.75,-662 655.75,-656 661.75,-650 667.75,-650 667.75,-650 720.25,-650 720.25,-650 726.25,-650 732.25,-656 732.25,-662 732.25,-662 732.25,-674 732.25,-674 732.25,-680 726.25,-686 720.25,-686"/>
<text text-anchor="middle" x="694" y="-664.3" font-family="Helvetica,sans-Serif" font-size="14.00">tap_graph</text>
</a>
</g>
<!-- visualize_tap&#45;&gt;tap_graph -->
<g id="edge30" class="edge"><title>visualize_tap&#45;&gt;tap_graph</title>
<path fill="none" stroke="black" d="M684.125,-722.609C685.639,-714.391 687.37,-704.994 688.955,-696.387"/>
<polygon fill="black" stroke="black" points="692.423,-696.881 690.793,-686.412 685.539,-695.613 692.423,-696.881"/>
</g>
<!-- wellformed_tap&#45;&gt;try_align -->
<g id="edge6" class="edge"><title>wellformed_tap&#45;&gt;try_align</title>
<path fill="none" stroke="black" d="M535.03,-805.944C517.948,-796.537 496.344,-784.639 477.026,-774"/>
<polygon fill="black" stroke="black" points="478.494,-770.813 468.046,-769.055 475.117,-776.944 478.494,-770.813"/>
</g>
<!-- wellformed_tap&#45;&gt;visualize_tap -->
<g id="edge31" class="edge"><title>wellformed_tap&#45;&gt;visualize_tap</title>
<path fill="none" stroke="black" d="M591.584,-805.944C605.32,-796.786 622.597,-785.269 638.226,-774.85"/>
<polygon fill="black" stroke="black" points="640.327,-777.655 646.706,-769.196 636.444,-771.831 640.327,-777.655"/>
</g>
<!-- wellformed_tap_output_port -->
<g id="node34" class="node"><title>wellformed_tap_output_port</title>
<ellipse fill="#ffffff" stroke="black" cx="778" cy="-746" rx="6.5" ry="7"/>
</g>
<!-- wellformed_tap&#45;&gt;wellformed_tap_output_port -->
<g id="edge36" class="edge"><title>wellformed_tap&#45;&gt;wellformed_tap_output_port</title>
<path fill="none" stroke="black" d="M620.429,-808.476C676.444,-793.466 755.987,-771.949 759,-770 762.805,-767.539 766.229,-764.073 769.087,-760.577"/>
<polygon fill="black" stroke="black" points="771.975,-762.555 774.924,-752.378 766.273,-758.495 771.975,-762.555"/>
</g>
<!-- malformed_tap_output_port -->
<g id="node35" class="node"><title>malformed_tap_output_port</title>
<ellipse fill="#ffffff" stroke="black" cx="810" cy="-746" rx="6.5" ry="7"/>
</g>
<!-- malformed_tap&#45;&gt;malformed_tap_output_port -->
<g id="edge37" class="edge"><title>malformed_tap&#45;&gt;malformed_tap_output_port</title>
<path fill="none" stroke="black" d="M735.007,-805.894C753.957,-796.936 775.876,-784.743 793,-770 796.027,-767.394 798.83,-764.155 801.251,-760.938"/>
<polygon fill="black" stroke="black" points="804.265,-762.727 806.932,-752.473 798.453,-758.826 804.265,-762.727"/>
</g>
<!-- tap_graph_output_port -->
<g id="node36" class="node"><title>tap_graph_output_port</title>
<ellipse fill="#ffffff" stroke="black" cx="778" cy="-596" rx="6.5" ry="7"/>
</g>
<!-- tap_graph&#45;&gt;tap_graph_output_port -->
<g id="edge38" class="edge"><title>tap_graph&#45;&gt;tap_graph_output_port</title>
<path fill="none" stroke="black" d="M715.575,-649.818C728.325,-639.563 744.719,-626.2 759,-614 761.179,-612.138 763.471,-610.131 765.68,-608.171"/>
<polygon fill="black" stroke="black" points="768.276,-610.543 773.368,-601.252 763.593,-605.34 768.276,-610.543"/>
</g>
<!-- possible_worlds&#45;&gt;create_most_informative_relations -->
<g id="edge22" class="edge"><title>possible_worlds&#45;&gt;create_most_informative_relations</title>
<path fill="none" stroke="black" d="M155.412,-205.754C154.552,-196.426 153.472,-184.691 152.502,-174.165"/>
<polygon fill="black" stroke="black" points="155.985,-173.814 151.582,-164.177 149.014,-174.456 155.985,-173.814"/>
</g>
<!-- possible_worlds&#45;&gt;visualize_possible_worlds -->
<g id="edge24" class="edge"><title>possible_worlds&#45;&gt;visualize_possible_worlds</title>
<path fill="none" stroke="black" d="M203.904,-205.944C230.945,-196.111 265.469,-183.557 295.7,-172.564"/>
<polygon fill="black" stroke="black" points="297.148,-175.761 305.35,-169.055 294.756,-169.183 297.148,-175.761"/>
</g>
<!-- possible_worlds_output_port -->
<g id="node37" class="node"><title>possible_worlds_output_port</title>
<ellipse fill="#ffffff" stroke="black" cx="778" cy="-146" rx="6.5" ry="7"/>
</g>
<!-- possible_worlds&#45;&gt;possible_worlds_output_port -->
<g id="edge39" class="edge"><title>possible_worlds&#45;&gt;possible_worlds_output_port</title>
<path fill="none" stroke="black" d="M213.26,-216.28C241.901,-212.967 277.281,-209.042 309,-206 408.861,-196.424 670.021,-216.333 759,-170 763.02,-167.907 766.511,-164.558 769.366,-161.055"/>
<polygon fill="black" stroke="black" points="772.347,-162.896 775.089,-152.663 766.563,-158.953 772.347,-162.896"/>
</g>
<!-- inconsistent_tap&#45;&gt;repair_articulations -->
<g id="edge27" class="edge"><title>inconsistent_tap&#45;&gt;repair_articulations</title>
<path fill="none" stroke="black" d="M509.172,-361.944C494.092,-352.702 475.09,-341.055 457.967,-330.561"/>
<polygon fill="black" stroke="black" points="459.57,-327.438 449.215,-325.196 455.912,-333.406 459.57,-327.438"/>
</g>
<!-- inconsistent_tap&#45;&gt;visualize_inconsistency -->
<g id="edge29" class="edge"><title>inconsistent_tap&#45;&gt;visualize_inconsistency</title>
<path fill="none" stroke="black" d="M566.399,-361.944C582.476,-352.617 602.773,-340.841 620.992,-330.272"/>
<polygon fill="black" stroke="black" points="622.847,-333.242 629.741,-325.196 619.335,-327.187 622.847,-333.242"/>
</g>
<!-- inconsistent_tap_output_port -->
<g id="node38" class="node"><title>inconsistent_tap_output_port</title>
<ellipse fill="#ffffff" stroke="black" cx="810" cy="-302" rx="6.5" ry="7"/>
</g>
<!-- inconsistent_tap&#45;&gt;inconsistent_tap_output_port -->
<g id="edge40" class="edge"><title>inconsistent_tap&#45;&gt;inconsistent_tap_output_port</title>
<path fill="none" stroke="black" d="M594.007,-378.651C648.974,-375.816 732.5,-364.712 793,-326 796.555,-323.725 799.624,-320.425 802.137,-317.032"/>
<polygon fill="black" stroke="black" points="805.15,-318.814 807.444,-308.471 799.2,-315.126 805.15,-318.814"/>
</g>
<!-- possible_worlds_graphs_output_port -->
<g id="node39" class="node"><title>possible_worlds_graphs_output_port</title>
<ellipse fill="#ffffff" stroke="black" cx="366" cy="-7" rx="6.5" ry="7"/>
</g>
<!-- possible_worlds_graphs&#45;&gt;possible_worlds_graphs_output_port -->
<g id="edge41" class="edge"><title>possible_worlds_graphs&#45;&gt;possible_worlds_graphs_output_port</title>
<path fill="none" stroke="black" d="M366,-49.9348C366,-41.8859 366,-32.3254 366,-24.3671"/>
<polygon fill="black" stroke="black" points="369.5,-24.2164 366,-14.2164 362.5,-24.2165 369.5,-24.2164"/>
</g>
<!-- inconsistency_graph_output_port -->
<g id="node40" class="node"><title>inconsistency_graph_output_port</title>
<ellipse fill="#ffffff" stroke="black" cx="842" cy="-146" rx="6.5" ry="7"/>
</g>
<!-- inconsistency_graph&#45;&gt;inconsistency_graph_output_port -->
<g id="edge42" class="edge"><title>inconsistency_graph&#45;&gt;inconsistency_graph_output_port</title>
<path fill="none" stroke="black" d="M742.141,-208.256C769.772,-200.11 800.651,-187.898 825,-170 828.218,-167.634 831.092,-164.485 833.521,-161.277"/>
<polygon fill="black" stroke="black" points="836.589,-162.979 839.102,-152.687 830.719,-159.166 836.589,-162.979"/>
</g>
<!-- most_informative_relations&#45;&gt;create_possible_worlds -->
<g id="edge14" class="edge"><title>most_informative_relations&#45;&gt;create_possible_worlds</title>
<path fill="none" stroke="black" d="M197.973,-361.754C191.129,-351.94 182.427,-339.462 174.805,-328.531"/>
<polygon fill="black" stroke="black" points="177.57,-326.378 168.979,-320.177 171.828,-330.382 177.57,-326.378"/>
</g>
<!-- most_informative_relations_output_port -->
<g id="node41" class="node"><title>most_informative_relations_output_port</title>
<ellipse fill="#ffffff" stroke="black" cx="778" cy="-302" rx="6.5" ry="7"/>
</g>
<!-- most_informative_relations&#45;&gt;most_informative_relations_output_port -->
<g id="edge43" class="edge"><title>most_informative_relations&#45;&gt;most_informative_relations_output_port</title>
<path fill="none" stroke="black" d="M299.375,-365.766C309.691,-364.408 320.068,-363.119 330,-362 425.067,-351.286 674.233,-370.35 759,-326 763.016,-323.899 766.506,-320.547 769.361,-317.045"/>
<polygon fill="black" stroke="black" points="772.34,-318.889 775.086,-308.657 766.558,-314.943 772.34,-318.889"/>
</g>
<!-- suggested_articulation_modifications_output_port -->
<g id="node42" class="node"><title>suggested_articulation_modifications_output_port</title>
<ellipse fill="#ffffff" stroke="black" cx="810" cy="-146" rx="6.5" ry="7"/>
</g>
<!-- suggested_articulation_modifications&#45;&gt;suggested_articulation_modifications_output_port -->
<g id="edge44" class="edge"><title>suggested_articulation_modifications&#45;&gt;suggested_articulation_modifications_output_port</title>
<path fill="none" stroke="black" d="M557.526,-209.738C652.554,-198.435 772.805,-182.14 793,-170 796.617,-167.826 799.707,-164.559 802.22,-161.166"/>
<polygon fill="black" stroke="black" points="805.258,-162.907 807.494,-152.551 799.288,-159.252 805.258,-162.907"/>
</g>
<!-- tap -->
<g id="node22" class="node"><title>tap</title>
<a target="_blank" href="https://github.com/EulerProject/EulerX/blob/00d5a0d1f58caae0473b595fbb1f5e29b20c515e/src-el/euler2#L30">
<path fill="#ffffcc" stroke="black" d="M640,-998C640,-998 610,-998 610,-998 604,-998 598,-992 598,-986 598,-986 598,-974 598,-974 598,-968 604,-962 610,-962 610,-962 640,-962 640,-962 646,-962 652,-968 652,-974 652,-974 652,-986 652,-986 652,-992 646,-998 640,-998"/>
<text text-anchor="middle" x="625" y="-976.3" font-family="Helvetica,sans-Serif" font-size="14.00">tap</text>
</a>
</g>
<!-- tap&#45;&gt;validate -->
<g id="edge3" class="edge"><title>tap&#45;&gt;validate</title>
<path fill="none" stroke="black" d="M625,-961.754C625,-953.863 625,-944.249 625,-935.102"/>
<polygon fill="black" stroke="black" points="628.5,-935.091 625,-925.091 621.5,-935.091 628.5,-935.091"/>
</g>
<!-- rcc_tap&#45;&gt;parse_rcc_tap -->
<g id="edge9" class="edge"><title>rcc_tap&#45;&gt;parse_rcc_tap</title>
<path fill="none" stroke="black" d="M585.034,-649.697C583.711,-641.983 582.122,-632.712 580.648,-624.112"/>
<polygon fill="black" stroke="black" points="584.072,-623.369 578.932,-614.104 577.172,-624.552 584.072,-623.369"/>
</g>
<!-- rcc_tap_parsed&#45;&gt;try_align_rcc -->
<g id="edge12" class="edge"><title>rcc_tap_parsed&#45;&gt;try_align_rcc</title>
<path fill="none" stroke="black" d="M549.798,-505.697C547.904,-497.898 545.623,-488.509 543.516,-479.829"/>
<polygon fill="black" stroke="black" points="546.915,-478.996 541.154,-470.104 540.113,-480.648 546.915,-478.996"/>
</g>
<!-- asp_tap&#45;&gt;encode_asp_tap -->
<g id="edge16" class="edge"><title>asp_tap&#45;&gt;encode_asp_tap</title>
<path fill="none" stroke="black" d="M374.876,-649.697C379.992,-641.559 386.195,-631.689 391.845,-622.701"/>
<polygon fill="black" stroke="black" points="394.89,-624.433 397.249,-614.104 388.964,-620.708 394.89,-624.433"/>
</g>
<!-- asp_tap_encoded&#45;&gt;try_align_asp -->
<g id="edge20" class="edge"><title>asp_tap_encoded&#45;&gt;try_align_asp</title>
<path fill="none" stroke="black" d="M408,-505.697C408,-497.983 408,-488.712 408,-480.112"/>
<polygon fill="black" stroke="black" points="411.5,-480.104 408,-470.104 404.5,-480.104 411.5,-480.104"/>
</g>
<!-- reasoner -->
<g id="node27" class="node"><title>reasoner</title>
<a target="_blank" href="https://github.com/EulerProject/EulerX/blob/00d5a0d1f58caae0473b595fbb1f5e29b20c515e/src-el/euler2#L41">
<path fill="#fcfcfc" stroke="black" d="M466,-842C466,-842 420,-842 420,-842 414,-842 408,-836 408,-830 408,-830 408,-818 408,-818 408,-812 414,-806 420,-806 420,-806 466,-806 466,-806 472,-806 478,-812 478,-818 478,-818 478,-830 478,-830 478,-836 472,-842 466,-842"/>
<text text-anchor="middle" x="443" y="-820.3" font-family="Helvetica,sans-Serif" font-size="14.00">reasoner</text>
</a>
</g>
<!-- reasoner&#45;&gt;try_align -->
<g id="edge7" class="edge"><title>reasoner&#45;&gt;try_align</title>
<path fill="none" stroke="black" d="M439.596,-805.754C438.039,-797.863 436.141,-788.249 434.336,-779.102"/>
<polygon fill="black" stroke="black" points="437.73,-778.224 432.36,-769.091 430.863,-779.579 437.73,-778.224"/>
</g>
<!-- encoding_method -->
<g id="node28" class="node"><title>encoding_method</title>
<a target="_blank" href="https://github.com/EulerProject/EulerX/blob/00d5a0d1f58caae0473b595fbb1f5e29b20c515e/src-el/euler2#L40">
<path fill="#fcfcfc" stroke="black" d="M527.25,-686C527.25,-686 426.75,-686 426.75,-686 420.75,-686 414.75,-680 414.75,-674 414.75,-674 414.75,-662 414.75,-662 414.75,-656 420.75,-650 426.75,-650 426.75,-650 527.25,-650 527.25,-650 533.25,-650 539.25,-656 539.25,-662 539.25,-662 539.25,-674 539.25,-674 539.25,-680 533.25,-686 527.25,-686"/>
<text text-anchor="middle" x="477" y="-664.3" font-family="Helvetica,sans-Serif" font-size="14.00">encoding_method</text>
</a>
</g>
<!-- encoding_method&#45;&gt;encode_asp_tap -->
<g id="edge17" class="edge"><title>encoding_method&#45;&gt;encode_asp_tap</title>
<path fill="none" stroke="black" d="M459.944,-649.697C451.505,-641.135 441.175,-630.656 431.957,-621.304"/>
<polygon fill="black" stroke="black" points="434.373,-618.769 424.86,-614.104 429.387,-623.683 434.373,-618.769"/>
</g>
<!-- repair_method -->
<g id="node29" class="node"><title>repair_method</title>
<a target="_blank" href="https://github.com/EulerProject/EulerX/blob/00d5a0d1f58caae0473b595fbb1f5e29b20c515e/src-el/euler2#L47">
<path fill="#fcfcfc" stroke="black" d="M431,-398C431,-398 351,-398 351,-398 345,-398 339,-392 339,-386 339,-386 339,-374 339,-374 339,-368 345,-362 351,-362 351,-362 431,-362 431,-362 437,-362 443,-368 443,-374 443,-374 443,-386 443,-386 443,-392 437,-398 431,-398"/>
<text text-anchor="middle" x="391" y="-376.3" font-family="Helvetica,sans-Serif" font-size="14.00">repair_method</text>
</a>
</g>
<!-- repair_method&#45;&gt;repair_articulations -->
<g id="edge26" class="edge"><title>repair_method&#45;&gt;repair_articulations</title>
<path fill="none" stroke="black" d="M395.992,-361.754C398.301,-353.778 401.119,-344.042 403.793,-334.808"/>
<polygon fill="black" stroke="black" points="407.187,-335.67 406.605,-325.091 400.463,-333.723 407.187,-335.67"/>
</g>
<!-- tap_input_port -->
<g id="node30" class="node"><title>tap_input_port</title>
<ellipse fill="#ffffff" stroke="black" cx="625" cy="-1041" rx="6.5" ry="7"/>
</g>
<!-- tap_input_port&#45;&gt;tap -->
<g id="edge32" class="edge"><title>tap_input_port&#45;&gt;tap</title>
<path fill="none" stroke="black" d="M625,-1033.69C625,-1027.49 625,-1017.59 625,-1008.05"/>
<polygon fill="black" stroke="black" points="628.5,-1008.02 625,-998.016 621.5,-1008.02 628.5,-1008.02"/>
</g>
<!-- encoding_method_input_port -->
<g id="node31" class="node"><title>encoding_method_input_port</title>
<ellipse fill="#ffffff" stroke="black" cx="842" cy="-746" rx="6.5" ry="7"/>
</g>
<!-- encoding_method_input_port&#45;&gt;encoding_method -->
<g id="edge33" class="edge"><title>encoding_method_input_port&#45;&gt;encoding_method</title>
<path fill="none" stroke="black" d="M839.51,-739.423C836.776,-734.007 831.847,-726.03 825,-722 721.202,-660.904 673.246,-705.736 549.575,-685.893"/>
<polygon fill="black" stroke="black" points="549.807,-682.381 539.359,-684.135 548.62,-689.28 549.807,-682.381"/>
</g>
<!-- reasoner_input_port -->
<g id="node32" class="node"><title>reasoner_input_port</title>
<ellipse fill="#ffffff" stroke="black" cx="778" cy="-902" rx="6.5" ry="7"/>
</g>
<!-- reasoner_input_port&#45;&gt;reasoner -->
<g id="edge34" class="edge"><title>reasoner_input_port&#45;&gt;reasoner</title>
<path fill="none" stroke="black" d="M775.04,-895.429C771.847,-890.017 766.233,-882.044 759,-878 658.326,-821.719 614.807,-866.027 502,-842 497.357,-841.011 492.544,-839.852 487.761,-838.611"/>
<polygon fill="black" stroke="black" points="488.616,-835.217 478.049,-835.98 486.785,-841.973 488.616,-835.217"/>
</g>
<!-- repair_method_input_port -->
<g id="node33" class="node"><title>repair_method_input_port</title>
<ellipse fill="#ffffff" stroke="black" cx="7" cy="-452" rx="6.5" ry="7"/>
</g>
<!-- repair_method_input_port&#45;&gt;repair_method -->
<g id="edge35" class="edge"><title>repair_method_input_port&#45;&gt;repair_method</title>
<path fill="none" stroke="black" d="M10.8294,-446.247C14.3294,-442.264 19.8802,-436.795 26,-434 140.93,-381.508 183.355,-418.691 308,-398 314.727,-396.883 321.739,-395.614 328.713,-394.283"/>
<polygon fill="black" stroke="black" points="329.722,-397.652 338.866,-392.3 328.38,-390.782 329.722,-397.652"/>
</g>
</g>
</svg>
