<?xml version="1.0" encoding="UTF-8" standalone="no"?>
<!DOCTYPE svg PUBLIC "-//W3C//DTD SVG 1.1//EN"
 "http://www.w3.org/Graphics/SVG/1.1/DTD/svg11.dtd">
<!-- Generated by graphviz version 2.36.0 (20140111.2315)
 -->
<!-- Title: %3 Pages: 1 -->
<svg width="856pt" height="221pt"
 viewBox="0.00 0.00 856.00 221.00" xmlns="http://www.w3.org/2000/svg" xmlns:xlink="http://www.w3.org/1999/xlink">
<g id="graph0" class="graph" transform="scale(1 1) rotate(0) translate(4 217)">
<title>%3</title>
<polygon fill="white" stroke="none" points="-4,4 -4,-217 852,-217 852,4 -4,4"/>
<!-- FloraChina.ChineseOakSpecies1 -->
<g id="node1" class="node"><title>FloraChina.ChineseOakSpecies1</title>
<polygon fill="#ccffcc" stroke="black" points="662.5,-213 467.5,-213 467.5,-177 662.5,-177 662.5,-213"/>
<text text-anchor="middle" x="565" y="-191.3" font-family="Times,serif" font-size="14.00">FloraChina.ChineseOakSpecies1</text>
</g>
<!-- FloraChina.OakGenus -->
<g id="node3" class="node"><title>FloraChina.OakGenus</title>
<polygon fill="#ccffcc" stroke="black" points="138,-190 0,-190 0,-154 138,-154 138,-190"/>
<text text-anchor="middle" x="69" y="-168.3" font-family="Times,serif" font-size="14.00">FloraChina.OakGenus</text>
</g>
<!-- FloraChina.ChineseOakSpecies1&#45;&gt;FloraChina.OakGenus -->
<g id="edge5" class="edge"><title>FloraChina.ChineseOakSpecies1&#45;&gt;FloraChina.OakGenus</title>
<path fill="none" stroke="#000000" d="M467.285,-190.497C374.07,-186.157 234.786,-179.672 148.315,-175.646"/>
<polygon fill="#000000" stroke="#000000" points="148.45,-172.149 138.298,-175.18 148.124,-179.141 148.45,-172.149"/>
</g>
<!-- FloraChina.ChineseOakSpecies2 -->
<g id="node2" class="node"><title>FloraChina.ChineseOakSpecies2</title>
<polygon fill="#ccffcc" stroke="black" points="375.5,-165 180.5,-165 180.5,-129 375.5,-129 375.5,-165"/>
<text text-anchor="middle" x="278" y="-143.3" font-family="Times,serif" font-size="14.00">FloraChina.ChineseOakSpecies2</text>
</g>
<!-- FloraChina.ChineseOakSpecies2&#45;&gt;FloraChina.OakGenus -->
<g id="edge6" class="edge"><title>FloraChina.ChineseOakSpecies2&#45;&gt;FloraChina.OakGenus</title>
<path fill="none" stroke="#000000" d="M180.469,-158.658C169.606,-159.97 158.641,-161.295 148.054,-162.573"/>
<polygon fill="#000000" stroke="#000000" points="147.543,-159.109 138.035,-163.783 148.382,-166.059 147.543,-159.109"/>
</g>
<!-- FloraMexico.OakGenus -->
<g id="node5" class="node"><title>FloraMexico.OakGenus</title>
<polygon fill="#ffffcc" stroke="black" points="382.234,-81.5442 382.234,-96.4558 321.175,-107 234.825,-107 173.766,-96.4558 173.766,-81.5442 234.825,-71 321.175,-71 382.234,-81.5442"/>
<text text-anchor="middle" x="278" y="-85.3" font-family="Times,serif" font-size="14.00">FloraMexico.OakGenus</text>
</g>
<!-- FloraChina.ChineseOakSpecies2&#45;&gt;FloraMexico.OakGenus -->
<g id="edge2" class="edge"><title>FloraChina.ChineseOakSpecies2&#45;&gt;FloraMexico.OakGenus</title>
<path fill="none" stroke="#0000ff" stroke-dasharray="1,5" d="M278,-128.932C278,-121.663 278,-114.394 278,-107.125"/>
</g>
<!-- FloraChina.OakGenus&#45;&gt;FloraMexico.OakGenus -->
<g id="edge1" class="edge"><title>FloraChina.OakGenus&#45;&gt;FloraMexico.OakGenus</title>
<path fill="none" stroke="#0000ff" stroke-dasharray="1,5" d="M102.593,-153.895C122.765,-143.147 149.422,-129.76 174,-120 188.492,-114.245 204.489,-108.947 219.466,-104.419"/>
</g>
<!-- FloraMexico.MexicanOakSpecies1 -->
<g id="node4" class="node"><title>FloraMexico.MexicanOakSpecies1</title>
<polygon fill="#ffffcc" stroke="black" points="712.06,-79.5442 712.06,-94.4558 625.914,-105 504.086,-105 417.94,-94.4558 417.94,-79.5442 504.086,-69 625.914,-69 712.06,-79.5442"/>
<text text-anchor="middle" x="565" y="-83.3" font-family="Times,serif" font-size="14.00">FloraMexico.MexicanOakSpecies1</text>
</g>
<!-- FloraMexico.MexicanOakSpecies1&#45;&gt;FloraMexico.OakGenus -->
<g id="edge4" class="edge"><title>FloraMexico.MexicanOakSpecies1&#45;&gt;FloraMexico.OakGenus</title>
<path fill="none" stroke="#000000" d="M417.743,-88.0264C409.29,-88.0857 400.854,-88.1449 392.555,-88.2031"/>
<polygon fill="#000000" stroke="#000000" points="392.483,-84.7034 382.508,-88.2736 392.532,-91.7033 392.483,-84.7034"/>
</g>
<!-- FloraMexico.MexicanOakSpecies2 -->
<g id="node6" class="node"><title>FloraMexico.MexicanOakSpecies2</title>
<polygon fill="#ffffcc" stroke="black" points="712.06,-133.544 712.06,-148.456 625.914,-159 504.086,-159 417.94,-148.456 417.94,-133.544 504.086,-123 625.914,-123 712.06,-133.544"/>
<text text-anchor="middle" x="565" y="-137.3" font-family="Times,serif" font-size="14.00">FloraMexico.MexicanOakSpecies2</text>
</g>
<!-- FloraMexico.MexicanOakSpecies2&#45;&gt;FloraChina.ChineseOakSpecies2 -->
<g id="edge7" class="edge"><title>FloraMexico.MexicanOakSpecies2&#45;&gt;FloraChina.ChineseOakSpecies2</title>
<path fill="none" stroke="#ff0000" d="M417.743,-144.079C407.083,-144.304 396.45,-144.527 386.085,-144.746"/>
<polygon fill="#ff0000" stroke="#ff0000" points="385.741,-141.252 375.817,-144.962 385.889,-148.25 385.741,-141.252"/>
</g>
<!-- FloraMexico.MexicanOakSpecies2&#45;&gt;FloraMexico.OakGenus -->
<g id="edge3" class="edge"><title>FloraMexico.MexicanOakSpecies2&#45;&gt;FloraMexico.OakGenus</title>
<path fill="none" stroke="#000000" d="M480.8,-125.82C442.793,-118.885 397.935,-110.701 360.177,-103.811"/>
<polygon fill="#000000" stroke="#000000" points="360.7,-100.349 350.234,-101.997 359.443,-107.235 360.7,-100.349"/>
</g>
<!-- Legend -->
<g id="node7" class="node"><title>Legend</title>
<polygon fill="white" stroke="black" points="847.5,-175 748.5,-175 748.5,1 847.5,1 847.5,-175"/>
<polygon fill="none" stroke="black" points="749,-149 749,-175 848,-175 848,-149 749,-149"/>
<text text-anchor="start" x="774" y="-158.3" font-family="Arial Black" font-size="14.00"> Nodes</text>
<polygon fill="#ccffcc" stroke="none" points="749,-124 749,-149 831,-149 831,-124 749,-124"/>
<polygon fill="none" stroke="black" points="749,-124 749,-149 831,-149 831,-124 749,-124"/>
<text text-anchor="start" x="759.5" y="-132.8" font-family="Times,serif" font-size="14.00">FloraChina</text>
<polygon fill="none" stroke="black" points="831,-124 831,-149 848,-149 848,-124 831,-124"/>
<text text-anchor="start" x="836" y="-132.8" font-family="Times,serif" font-size="14.00">3</text>
<polygon fill="#ffffcc" stroke="none" points="749,-99 749,-124 831,-124 831,-99 749,-99"/>
<polygon fill="none" stroke="black" points="749,-99 749,-124 831,-124 831,-99 749,-99"/>
<text text-anchor="start" x="754.5" y="-107.8" font-family="Times,serif" font-size="14.00">FloraMexico</text>
<polygon fill="none" stroke="black" points="831,-99 831,-124 848,-124 848,-99 831,-99"/>
<text text-anchor="start" x="836" y="-107.8" font-family="Times,serif" font-size="14.00">3</text>
<polygon fill="none" stroke="black" points="749,-74 749,-99 848,-99 848,-74 749,-74"/>
<text text-anchor="start" x="772.5" y="-82.8" font-family="Arial Black" font-size="14.00"> Edges </text>
<polygon fill="none" stroke="black" points="749,-49 749,-74 831,-74 831,-49 749,-49"/>
<text text-anchor="start" x="767" y="-57.8" font-family="Times,serif" font-size="14.00" fill="#0000ff">overlaps</text>
<polygon fill="none" stroke="black" points="831,-49 831,-74 848,-74 848,-49 831,-49"/>
<text text-anchor="start" x="836" y="-57.8" font-family="Times,serif" font-size="14.00">2</text>
<polygon fill="none" stroke="black" points="749,-24 749,-49 831,-49 831,-24 749,-24"/>
<text text-anchor="start" x="776" y="-32.8" font-family="Times,serif" font-size="14.00" fill="#000000">input</text>
<polygon fill="none" stroke="black" points="831,-24 831,-49 848,-49 848,-24 831,-24"/>
<text text-anchor="start" x="836" y="-32.8" font-family="Times,serif" font-size="14.00">4</text>
<polygon fill="none" stroke="black" points="749,1 749,-24 831,-24 831,1 749,1"/>
<text text-anchor="start" x="768.5" y="-7.8" font-family="Times,serif" font-size="14.00" fill="#ff0000">inferred</text>
<polygon fill="none" stroke="black" points="831,1 831,-24 848,-24 848,1 831,1"/>
<text text-anchor="start" x="836" y="-7.8" font-family="Times,serif" font-size="14.00">1</text>
</g>
</g>
</svg>
