<?xml version="1.0" encoding="UTF-8" standalone="no"?>
<!DOCTYPE svg PUBLIC "-//W3C//DTD SVG 1.1//EN"
 "http://www.w3.org/Graphics/SVG/1.1/DTD/svg11.dtd">
<!-- Generated by graphviz version 2.36.0 (20140111.2315)
 -->
<!-- Title: %3 Pages: 1 -->
<svg width="844pt" height="183pt"
 viewBox="0.00 0.00 844.00 183.00" xmlns="http://www.w3.org/2000/svg" xmlns:xlink="http://www.w3.org/1999/xlink">
<g id="graph0" class="graph" transform="scale(1 1) rotate(0) translate(4 179)">
<title>%3</title>
<polygon fill="white" stroke="none" points="-4,4 -4,-179 840,-179 840,4 -4,4"/>
<!-- FloraChina.OakGenus -->
<g id="node1" class="node"><title>FloraChina.OakGenus</title>
<polygon fill="#ccffcc" stroke="black" points="138,-147 0,-147 0,-111 138,-111 138,-147"/>
<text text-anchor="middle" x="69" y="-125.3" font-family="Times,serif" font-size="14.00">FloraChina.OakGenus</text>
</g>
<!-- FloraChina.ChineseOakSpecies2 -->
<g id="node2" class="node"><title>FloraChina.ChineseOakSpecies2</title>
<polygon fill="#ccffcc" stroke="black" points="369.5,-175 174.5,-175 174.5,-139 369.5,-139 369.5,-175"/>
<text text-anchor="middle" x="272" y="-153.3" font-family="Times,serif" font-size="14.00">FloraChina.ChineseOakSpecies2</text>
</g>
<!-- FloraChina.ChineseOakSpecies2&#45;&gt;FloraChina.OakGenus -->
<g id="edge3" class="edge"><title>FloraChina.ChineseOakSpecies2&#45;&gt;FloraChina.OakGenus</title>
<path fill="none" stroke="#000000" d="M174.327,-143.533C165.508,-142.305 156.65,-141.071 148.024,-139.869"/>
<polygon fill="#000000" stroke="#000000" points="148.409,-136.389 138.022,-138.476 147.443,-143.322 148.409,-136.389"/>
</g>
<!-- FloraChina.ChineseOakSpecies1\nFloraMexico.OakGenus -->
<g id="node3" class="node"><title>FloraChina.ChineseOakSpecies1\nFloraMexico.OakGenus</title>
<path fill="#eeeeee" stroke="black" d="M357.5,-121C357.5,-121 186.5,-121 186.5,-121 180.5,-121 174.5,-115 174.5,-109 174.5,-109 174.5,-95 174.5,-95 174.5,-89 180.5,-83 186.5,-83 186.5,-83 357.5,-83 357.5,-83 363.5,-83 369.5,-89 369.5,-95 369.5,-95 369.5,-109 369.5,-109 369.5,-115 363.5,-121 357.5,-121"/>
<text text-anchor="middle" x="272" y="-105.8" font-family="Times,serif" font-size="14.00">FloraChina.ChineseOakSpecies1</text>
<text text-anchor="middle" x="272" y="-90.8" font-family="Times,serif" font-size="14.00">FloraMexico.OakGenus</text>
</g>
<!-- FloraChina.ChineseOakSpecies1\nFloraMexico.OakGenus&#45;&gt;FloraChina.OakGenus -->
<g id="edge2" class="edge"><title>FloraChina.ChineseOakSpecies1\nFloraMexico.OakGenus&#45;&gt;FloraChina.OakGenus</title>
<path fill="none" stroke="#000000" d="M174.327,-114.986C165.508,-116.171 156.65,-117.36 148.024,-118.519"/>
<polygon fill="#000000" stroke="#000000" points="147.467,-115.062 138.022,-119.863 148.399,-122 147.467,-115.062"/>
</g>
<!-- FloraMexico.MexicanOakSpecies1 -->
<g id="node4" class="node"><title>FloraMexico.MexicanOakSpecies1</title>
<polygon fill="#ffffcc" stroke="black" points="700.06,-121.544 700.06,-136.456 613.914,-147 492.086,-147 405.94,-136.456 405.94,-121.544 492.086,-111 613.914,-111 700.06,-121.544"/>
<text text-anchor="middle" x="553" y="-125.3" font-family="Times,serif" font-size="14.00">FloraMexico.MexicanOakSpecies1</text>
</g>
<!-- FloraMexico.MexicanOakSpecies1&#45;&gt;FloraChina.ChineseOakSpecies1\nFloraMexico.OakGenus -->
<g id="edge1" class="edge"><title>FloraMexico.MexicanOakSpecies1&#45;&gt;FloraChina.ChineseOakSpecies1\nFloraMexico.OakGenus</title>
<path fill="none" stroke="#000000" d="M436.103,-117.784C417.533,-115.987 398.389,-114.134 380.038,-112.359"/>
<polygon fill="#000000" stroke="#000000" points="380.224,-108.86 369.934,-111.381 379.55,-115.828 380.224,-108.86"/>
</g>
<!-- FloraMexico.MexicanOakSpecies2 -->
<g id="node5" class="node"><title>FloraMexico.MexicanOakSpecies2</title>
<polygon fill="#ffffcc" stroke="black" points="700.06,-67.5442 700.06,-82.4558 613.914,-93 492.086,-93 405.94,-82.4558 405.94,-67.5442 492.086,-57 613.914,-57 700.06,-67.5442"/>
<text text-anchor="middle" x="553" y="-71.3" font-family="Times,serif" font-size="14.00">FloraMexico.MexicanOakSpecies2</text>
</g>
<!-- FloraMexico.MexicanOakSpecies2&#45;&gt;FloraChina.ChineseOakSpecies1\nFloraMexico.OakGenus -->
<g id="edge4" class="edge"><title>FloraMexico.MexicanOakSpecies2&#45;&gt;FloraChina.ChineseOakSpecies1\nFloraMexico.OakGenus</title>
<path fill="none" stroke="#000000" d="M436.103,-86.2159C417.533,-88.0129 398.389,-89.8656 380.038,-91.6415"/>
<polygon fill="#000000" stroke="#000000" points="379.55,-88.1723 369.934,-92.6193 380.224,-95.1397 379.55,-88.1723"/>
</g>
<!-- Legend -->
<g id="node6" class="node"><title>Legend</title>
<polygon fill="white" stroke="black" points="835.5,-150.5 736.5,-150.5 736.5,0.5 835.5,0.5 835.5,-150.5"/>
<polygon fill="none" stroke="black" points="737,-124 737,-150 836,-150 836,-124 737,-124"/>
<text text-anchor="start" x="762" y="-133.3" font-family="Arial Black" font-size="14.00"> Nodes</text>
<polygon fill="#ccffcc" stroke="none" points="737,-99 737,-124 819,-124 819,-99 737,-99"/>
<polygon fill="none" stroke="black" points="737,-99 737,-124 819,-124 819,-99 737,-99"/>
<text text-anchor="start" x="747.5" y="-107.8" font-family="Times,serif" font-size="14.00">FloraChina</text>
<polygon fill="none" stroke="black" points="819,-99 819,-124 836,-124 836,-99 819,-99"/>
<text text-anchor="start" x="824" y="-107.8" font-family="Times,serif" font-size="14.00">2</text>
<polygon fill="#eeeeee" stroke="none" points="737,-74 737,-99 819,-99 819,-74 737,-74"/>
<polygon fill="none" stroke="black" points="737,-74 737,-99 819,-99 819,-74 737,-74"/>
<text text-anchor="start" x="762.5" y="-82.8" font-family="Times,serif" font-size="14.00">comb</text>
<polygon fill="none" stroke="black" points="819,-74 819,-99 836,-99 836,-74 819,-74"/>
<text text-anchor="start" x="824" y="-82.8" font-family="Times,serif" font-size="14.00">1</text>
<polygon fill="#ffffcc" stroke="none" points="737,-49 737,-74 819,-74 819,-49 737,-49"/>
<polygon fill="none" stroke="black" points="737,-49 737,-74 819,-74 819,-49 737,-49"/>
<text text-anchor="start" x="742.5" y="-57.8" font-family="Times,serif" font-size="14.00">FloraMexico</text>
<polygon fill="none" stroke="black" points="819,-49 819,-74 836,-74 836,-49 819,-49"/>
<text text-anchor="start" x="824" y="-57.8" font-family="Times,serif" font-size="14.00">2</text>
<polygon fill="none" stroke="black" points="737,-24 737,-49 836,-49 836,-24 737,-24"/>
<text text-anchor="start" x="760.5" y="-32.8" font-family="Arial Black" font-size="14.00"> Edges </text>
<polygon fill="none" stroke="black" points="737,1 737,-24 819,-24 819,1 737,1"/>
<text text-anchor="start" x="764" y="-7.8" font-family="Times,serif" font-size="14.00" fill="#000000">input</text>
<polygon fill="none" stroke="black" points="819,1 819,-24 836,-24 836,1 819,1"/>
<text text-anchor="start" x="824" y="-7.8" font-family="Times,serif" font-size="14.00">4</text>
</g>
</g>
</svg>
