<?xml version="1.0" encoding="UTF-8" standalone="no"?>
<!DOCTYPE svg PUBLIC "-//W3C//DTD SVG 1.1//EN"
 "http://www.w3.org/Graphics/SVG/1.1/DTD/svg11.dtd">
<!-- Generated by graphviz version 2.36.0 (20140111.2315)
 -->
<!-- Title: %3 Pages: 1 -->
<svg width="1088pt" height="182pt"
 viewBox="0.00 0.00 1088.00 182.00" xmlns="http://www.w3.org/2000/svg" xmlns:xlink="http://www.w3.org/1999/xlink">
<g id="graph0" class="graph" transform="scale(1 1) rotate(0) translate(4 178)">
<title>%3</title>
<polygon fill="white" stroke="none" points="-4,4 -4,-178 1084,-178 1084,4 -4,4"/>
<!-- FloraChina.OakGenus -->
<g id="node1" class="node"><title>FloraChina.OakGenus</title>
<polygon fill="#ccffcc" stroke="black" points="138,-147 0,-147 0,-111 138,-111 138,-147"/>
<text text-anchor="middle" x="69" y="-125.3" font-family="Times,serif" font-size="14.00">FloraChina.OakGenus</text>
</g>
<!-- FloraChina.ChineseOakSpecies1 -->
<g id="node2" class="node"><title>FloraChina.ChineseOakSpecies1</title>
<polygon fill="#ccffcc" stroke="black" points="369.5,-174 174.5,-174 174.5,-138 369.5,-138 369.5,-174"/>
<text text-anchor="middle" x="272" y="-152.3" font-family="Times,serif" font-size="14.00">FloraChina.ChineseOakSpecies1</text>
</g>
<!-- FloraChina.ChineseOakSpecies1&#45;&gt;FloraChina.OakGenus -->
<g id="edge4" class="edge"><title>FloraChina.ChineseOakSpecies1&#45;&gt;FloraChina.OakGenus</title>
<path fill="none" stroke="#000000" d="M174.327,-143.014C165.508,-141.829 156.65,-140.64 148.024,-139.481"/>
<polygon fill="#000000" stroke="#000000" points="148.399,-136 138.022,-138.137 147.467,-142.938 148.399,-136"/>
</g>
<!-- FloraChina.ChineseOakSpecies2 -->
<g id="node3" class="node"><title>FloraChina.ChineseOakSpecies2</title>
<polygon fill="#ccffcc" stroke="black" points="369.5,-120 174.5,-120 174.5,-84 369.5,-84 369.5,-120"/>
<text text-anchor="middle" x="272" y="-98.3" font-family="Times,serif" font-size="14.00">FloraChina.ChineseOakSpecies2</text>
</g>
<!-- FloraChina.ChineseOakSpecies2&#45;&gt;FloraChina.OakGenus -->
<g id="edge3" class="edge"><title>FloraChina.ChineseOakSpecies2&#45;&gt;FloraChina.OakGenus</title>
<path fill="none" stroke="#000000" d="M174.327,-114.986C165.508,-116.171 156.65,-117.36 148.024,-118.519"/>
<polygon fill="#000000" stroke="#000000" points="147.467,-115.062 138.022,-119.863 148.399,-122 147.467,-115.062"/>
</g>
<!-- FloraMexico.OakGenus -->
<g id="node4" class="node"><title>FloraMexico.OakGenus</title>
<polygon fill="#ffffcc" stroke="black" points="614.234,-94.5442 614.234,-109.456 553.175,-120 466.825,-120 405.766,-109.456 405.766,-94.5442 466.825,-84 553.175,-84 614.234,-94.5442"/>
<text text-anchor="middle" x="510" y="-98.3" font-family="Times,serif" font-size="14.00">FloraMexico.OakGenus</text>
</g>
<!-- FloraMexico.OakGenus&#45;&gt;FloraChina.ChineseOakSpecies2 -->
<g id="edge5" class="edge"><title>FloraMexico.OakGenus&#45;&gt;FloraChina.ChineseOakSpecies2</title>
<path fill="none" stroke="#ff0000" d="M405.83,-102C397.183,-102 388.428,-102 379.754,-102"/>
<polygon fill="#ff0000" stroke="#ff0000" points="379.621,-98.5001 369.621,-102 379.621,-105.5 379.621,-98.5001"/>
</g>
<!-- FloraMexico.MexicanOakSpecies1 -->
<g id="node5" class="node"><title>FloraMexico.MexicanOakSpecies1</title>
<polygon fill="#ffffcc" stroke="black" points="944.06,-121.544 944.06,-136.456 857.914,-147 736.086,-147 649.94,-136.456 649.94,-121.544 736.086,-111 857.914,-111 944.06,-121.544"/>
<text text-anchor="middle" x="797" y="-125.3" font-family="Times,serif" font-size="14.00">FloraMexico.MexicanOakSpecies1</text>
</g>
<!-- FloraMexico.MexicanOakSpecies1&#45;&gt;FloraMexico.OakGenus -->
<g id="edge2" class="edge"><title>FloraMexico.MexicanOakSpecies1&#45;&gt;FloraMexico.OakGenus</title>
<path fill="none" stroke="#000000" d="M679.257,-117.94C658.252,-115.95 636.475,-113.887 615.834,-111.932"/>
<polygon fill="#000000" stroke="#000000" points="616.086,-108.44 605.8,-110.981 615.426,-115.409 616.086,-108.44"/>
</g>
<!-- FloraMexico.MexicanOakSpecies2 -->
<g id="node6" class="node"><title>FloraMexico.MexicanOakSpecies2</title>
<polygon fill="#ffffcc" stroke="black" points="944.06,-67.5442 944.06,-82.4558 857.914,-93 736.086,-93 649.94,-82.4558 649.94,-67.5442 736.086,-57 857.914,-57 944.06,-67.5442"/>
<text text-anchor="middle" x="797" y="-71.3" font-family="Times,serif" font-size="14.00">FloraMexico.MexicanOakSpecies2</text>
</g>
<!-- FloraMexico.MexicanOakSpecies2&#45;&gt;FloraMexico.OakGenus -->
<g id="edge1" class="edge"><title>FloraMexico.MexicanOakSpecies2&#45;&gt;FloraMexico.OakGenus</title>
<path fill="none" stroke="#000000" d="M679.257,-86.0598C658.252,-88.0498 636.475,-90.1129 615.834,-92.0684"/>
<polygon fill="#000000" stroke="#000000" points="615.426,-88.5913 605.8,-93.0189 616.086,-95.5601 615.426,-88.5913"/>
</g>
<!-- Legend -->
<g id="node7" class="node"><title>Legend</title>
<polygon fill="white" stroke="black" points="1079.5,-150.5 980.5,-150.5 980.5,0.5 1079.5,0.5 1079.5,-150.5"/>
<polygon fill="none" stroke="black" points="981,-124 981,-150 1080,-150 1080,-124 981,-124"/>
<text text-anchor="start" x="1006" y="-133.3" font-family="Arial Black" font-size="14.00"> Nodes</text>
<polygon fill="#ccffcc" stroke="none" points="981,-99 981,-124 1063,-124 1063,-99 981,-99"/>
<polygon fill="none" stroke="black" points="981,-99 981,-124 1063,-124 1063,-99 981,-99"/>
<text text-anchor="start" x="991.5" y="-107.8" font-family="Times,serif" font-size="14.00">FloraChina</text>
<polygon fill="none" stroke="black" points="1063,-99 1063,-124 1080,-124 1080,-99 1063,-99"/>
<text text-anchor="start" x="1068" y="-107.8" font-family="Times,serif" font-size="14.00">3</text>
<polygon fill="#ffffcc" stroke="none" points="981,-74 981,-99 1063,-99 1063,-74 981,-74"/>
<polygon fill="none" stroke="black" points="981,-74 981,-99 1063,-99 1063,-74 981,-74"/>
<text text-anchor="start" x="986.5" y="-82.8" font-family="Times,serif" font-size="14.00">FloraMexico</text>
<polygon fill="none" stroke="black" points="1063,-74 1063,-99 1080,-99 1080,-74 1063,-74"/>
<text text-anchor="start" x="1068" y="-82.8" font-family="Times,serif" font-size="14.00">3</text>
<polygon fill="none" stroke="black" points="981,-49 981,-74 1080,-74 1080,-49 981,-49"/>
<text text-anchor="start" x="1004.5" y="-57.8" font-family="Arial Black" font-size="14.00"> Edges </text>
<polygon fill="none" stroke="black" points="981,-24 981,-49 1063,-49 1063,-24 981,-24"/>
<text text-anchor="start" x="1008" y="-32.8" font-family="Times,serif" font-size="14.00" fill="#000000">input</text>
<polygon fill="none" stroke="black" points="1063,-24 1063,-49 1080,-49 1080,-24 1063,-24"/>
<text text-anchor="start" x="1068" y="-32.8" font-family="Times,serif" font-size="14.00">4</text>
<polygon fill="none" stroke="black" points="981,1 981,-24 1063,-24 1063,1 981,1"/>
<text text-anchor="start" x="1000.5" y="-7.8" font-family="Times,serif" font-size="14.00" fill="#ff0000">inferred</text>
<polygon fill="none" stroke="black" points="1063,1 1063,-24 1080,-24 1080,1 1063,1"/>
<text text-anchor="start" x="1068" y="-7.8" font-family="Times,serif" font-size="14.00">1</text>
</g>
</g>
</svg>
