<?xml version="1.0" encoding="UTF-8" standalone="no"?>
<!DOCTYPE svg PUBLIC "-//W3C//DTD SVG 1.1//EN"
 "http://www.w3.org/Graphics/SVG/1.1/DTD/svg11.dtd">
<!-- Generated by graphviz version 2.36.0 (20140111.2315)
 -->
<!-- Title: %3 Pages: 1 -->
<svg width="1012pt" height="221pt"
 viewBox="0.00 0.00 1012.00 221.00" xmlns="http://www.w3.org/2000/svg" xmlns:xlink="http://www.w3.org/1999/xlink">
<g id="graph0" class="graph" transform="scale(1 1) rotate(0) translate(4 217)">
<title>%3</title>
<polygon fill="white" stroke="none" points="-4,4 -4,-217 1008,-217 1008,4 -4,4"/>
<!-- FloraChina.OakGenus -->
<g id="node1" class="node"><title>FloraChina.OakGenus</title>
<polygon fill="#ccffcc" stroke="black" points="460,-159 322,-159 322,-123 460,-123 460,-159"/>
<text text-anchor="middle" x="391" y="-137.3" font-family="Times,serif" font-size="14.00">FloraChina.OakGenus</text>
</g>
<!-- FloraMexico.OakGenus -->
<g id="node4" class="node"><title>FloraMexico.OakGenus</title>
<polygon fill="#ffffcc" stroke="black" points="208.234,-106.544 208.234,-121.456 147.175,-132 60.8249,-132 -0.233914,-121.456 -0.233914,-106.544 60.8249,-96 147.175,-96 208.234,-106.544"/>
<text text-anchor="middle" x="104" y="-110.3" font-family="Times,serif" font-size="14.00">FloraMexico.OakGenus</text>
</g>
<!-- FloraChina.OakGenus&#45;&gt;FloraMexico.OakGenus -->
<g id="edge10" class="edge"><title>FloraChina.OakGenus&#45;&gt;FloraMexico.OakGenus</title>
<path fill="none" stroke="#ff0000" d="M321.735,-134.533C288.319,-131.367 247.346,-127.485 210.055,-123.953"/>
<polygon fill="#ff0000" stroke="#ff0000" points="209.93,-120.425 199.644,-122.966 209.269,-127.394 209.93,-120.425"/>
</g>
<!-- FloraMexico.MexicanOakSpecies1 -->
<g id="node5" class="node"><title>FloraMexico.MexicanOakSpecies1</title>
<polygon fill="#ffffcc" stroke="black" points="538.06,-79.5442 538.06,-94.4558 451.914,-105 330.086,-105 243.94,-94.4558 243.94,-79.5442 330.086,-69 451.914,-69 538.06,-79.5442"/>
<text text-anchor="middle" x="391" y="-83.3" font-family="Times,serif" font-size="14.00">FloraMexico.MexicanOakSpecies1</text>
</g>
<!-- FloraChina.OakGenus&#45;&gt;FloraMexico.MexicanOakSpecies1 -->
<g id="edge1" class="edge"><title>FloraChina.OakGenus&#45;&gt;FloraMexico.MexicanOakSpecies1</title>
<path fill="none" stroke="#0000ff" stroke-dasharray="1,5" d="M391,-122.79C391,-116.907 391,-111.024 391,-105.141"/>
</g>
<!-- FloraChina.ChineseOakSpecies1 -->
<g id="node2" class="node"><title>FloraChina.ChineseOakSpecies1</title>
<polygon fill="#ccffcc" stroke="black" points="818.5,-213 623.5,-213 623.5,-177 818.5,-177 818.5,-213"/>
<text text-anchor="middle" x="721" y="-191.3" font-family="Times,serif" font-size="14.00">FloraChina.ChineseOakSpecies1</text>
</g>
<!-- FloraChina.ChineseOakSpecies1&#45;&gt;FloraChina.OakGenus -->
<g id="edge6" class="edge"><title>FloraChina.ChineseOakSpecies1&#45;&gt;FloraChina.OakGenus</title>
<path fill="none" stroke="#000000" d="M623.363,-179.09C574.509,-171.047 516.002,-161.415 470.047,-153.849"/>
<polygon fill="#000000" stroke="#000000" points="470.578,-150.39 460.142,-152.219 469.441,-157.297 470.578,-150.39"/>
</g>
<!-- FloraChina.ChineseOakSpecies1&#45;&gt;FloraMexico.MexicanOakSpecies1 -->
<g id="edge2" class="edge"><title>FloraChina.ChineseOakSpecies1&#45;&gt;FloraMexico.MexicanOakSpecies1</title>
<path fill="none" stroke="#0000ff" stroke-dasharray="1,5" d="M623.491,-188.405C606.048,-184.169 588.742,-177.718 574,-168 549.918,-152.124 562.082,-129.876 538,-114 528.1,-107.474 517.044,-102.421 505.567,-98.5233"/>
</g>
<!-- FloraMexico.MexicanOakSpecies2 -->
<g id="node6" class="node"><title>FloraMexico.MexicanOakSpecies2</title>
<polygon fill="#ffffcc" stroke="black" points="868.06,-133.544 868.06,-148.456 781.914,-159 660.086,-159 573.94,-148.456 573.94,-133.544 660.086,-123 781.914,-123 868.06,-133.544"/>
<text text-anchor="middle" x="721" y="-137.3" font-family="Times,serif" font-size="14.00">FloraMexico.MexicanOakSpecies2</text>
</g>
<!-- FloraChina.ChineseOakSpecies1&#45;&gt;FloraMexico.MexicanOakSpecies2 -->
<g id="edge3" class="edge"><title>FloraChina.ChineseOakSpecies1&#45;&gt;FloraMexico.MexicanOakSpecies2</title>
<path fill="none" stroke="#0000ff" stroke-dasharray="1,5" d="M721,-176.79C721,-170.907 721,-165.024 721,-159.141"/>
</g>
<!-- FloraChina.ChineseOakSpecies2 -->
<g id="node3" class="node"><title>FloraChina.ChineseOakSpecies2</title>
<polygon fill="#ccffcc" stroke="black" points="818.5,-105 623.5,-105 623.5,-69 818.5,-69 818.5,-105"/>
<text text-anchor="middle" x="721" y="-83.3" font-family="Times,serif" font-size="14.00">FloraChina.ChineseOakSpecies2</text>
</g>
<!-- FloraChina.ChineseOakSpecies2&#45;&gt;FloraChina.OakGenus -->
<g id="edge7" class="edge"><title>FloraChina.ChineseOakSpecies2&#45;&gt;FloraChina.OakGenus</title>
<path fill="none" stroke="#000000" d="M623.363,-102.91C574.509,-110.953 516.002,-120.585 470.047,-128.151"/>
<polygon fill="#000000" stroke="#000000" points="469.441,-124.703 460.142,-129.781 470.578,-131.61 469.441,-124.703"/>
</g>
<!-- FloraChina.ChineseOakSpecies2&#45;&gt;FloraMexico.MexicanOakSpecies1 -->
<g id="edge4" class="edge"><title>FloraChina.ChineseOakSpecies2&#45;&gt;FloraMexico.MexicanOakSpecies1</title>
<path fill="none" stroke="#0000ff" stroke-dasharray="1,5" d="M623.363,-87C596.624,-87 566.993,-87 538.112,-87"/>
</g>
<!-- FloraChina.ChineseOakSpecies2&#45;&gt;FloraMexico.MexicanOakSpecies2 -->
<g id="edge5" class="edge"><title>FloraChina.ChineseOakSpecies2&#45;&gt;FloraMexico.MexicanOakSpecies2</title>
<path fill="none" stroke="#0000ff" stroke-dasharray="1,5" d="M721,-105.141C721,-111.024 721,-116.907 721,-122.79"/>
</g>
<!-- FloraMexico.MexicanOakSpecies1&#45;&gt;FloraMexico.OakGenus -->
<g id="edge8" class="edge"><title>FloraMexico.MexicanOakSpecies1&#45;&gt;FloraMexico.OakGenus</title>
<path fill="none" stroke="#000000" d="M273.257,-98.0598C252.252,-100.05 230.475,-102.113 209.834,-104.068"/>
<polygon fill="#000000" stroke="#000000" points="209.426,-100.591 199.8,-105.019 210.086,-107.56 209.426,-100.591"/>
</g>
<!-- FloraMexico.MexicanOakSpecies2&#45;&gt;FloraChina.OakGenus -->
<g id="edge9" class="edge"><title>FloraMexico.MexicanOakSpecies2&#45;&gt;FloraChina.OakGenus</title>
<path fill="none" stroke="#ff0000" d="M573.746,-141C538.138,-141 501.401,-141 470.356,-141"/>
<polygon fill="#ff0000" stroke="#ff0000" points="470.055,-137.5 460.055,-141 470.055,-144.5 470.055,-137.5"/>
</g>
<!-- Legend -->
<g id="node7" class="node"><title>Legend</title>
<polygon fill="white" stroke="black" points="1003.5,-175 904.5,-175 904.5,1 1003.5,1 1003.5,-175"/>
<polygon fill="none" stroke="black" points="905,-149 905,-175 1004,-175 1004,-149 905,-149"/>
<text text-anchor="start" x="930" y="-158.3" font-family="Arial Black" font-size="14.00"> Nodes</text>
<polygon fill="#ccffcc" stroke="none" points="905,-124 905,-149 987,-149 987,-124 905,-124"/>
<polygon fill="none" stroke="black" points="905,-124 905,-149 987,-149 987,-124 905,-124"/>
<text text-anchor="start" x="915.5" y="-132.8" font-family="Times,serif" font-size="14.00">FloraChina</text>
<polygon fill="none" stroke="black" points="987,-124 987,-149 1004,-149 1004,-124 987,-124"/>
<text text-anchor="start" x="992" y="-132.8" font-family="Times,serif" font-size="14.00">3</text>
<polygon fill="#ffffcc" stroke="none" points="905,-99 905,-124 987,-124 987,-99 905,-99"/>
<polygon fill="none" stroke="black" points="905,-99 905,-124 987,-124 987,-99 905,-99"/>
<text text-anchor="start" x="910.5" y="-107.8" font-family="Times,serif" font-size="14.00">FloraMexico</text>
<polygon fill="none" stroke="black" points="987,-99 987,-124 1004,-124 1004,-99 987,-99"/>
<text text-anchor="start" x="992" y="-107.8" font-family="Times,serif" font-size="14.00">3</text>
<polygon fill="none" stroke="black" points="905,-74 905,-99 1004,-99 1004,-74 905,-74"/>
<text text-anchor="start" x="928.5" y="-82.8" font-family="Arial Black" font-size="14.00"> Edges </text>
<polygon fill="none" stroke="black" points="905,-49 905,-74 987,-74 987,-49 905,-49"/>
<text text-anchor="start" x="923" y="-57.8" font-family="Times,serif" font-size="14.00" fill="#0000ff">overlaps</text>
<polygon fill="none" stroke="black" points="987,-49 987,-74 1004,-74 1004,-49 987,-49"/>
<text text-anchor="start" x="992" y="-57.8" font-family="Times,serif" font-size="14.00">5</text>
<polygon fill="none" stroke="black" points="905,-24 905,-49 987,-49 987,-24 905,-24"/>
<text text-anchor="start" x="932" y="-32.8" font-family="Times,serif" font-size="14.00" fill="#000000">input</text>
<polygon fill="none" stroke="black" points="987,-24 987,-49 1004,-49 1004,-24 987,-24"/>
<text text-anchor="start" x="992" y="-32.8" font-family="Times,serif" font-size="14.00">3</text>
<polygon fill="none" stroke="black" points="905,1 905,-24 987,-24 987,1 905,1"/>
<text text-anchor="start" x="924.5" y="-7.8" font-family="Times,serif" font-size="14.00" fill="#ff0000">inferred</text>
<polygon fill="none" stroke="black" points="987,1 987,-24 1004,-24 1004,1 987,1"/>
<text text-anchor="start" x="992" y="-7.8" font-family="Times,serif" font-size="14.00">2</text>
</g>
</g>
</svg>
