<?xml version="1.0" encoding="UTF-8" standalone="no"?>
<!DOCTYPE svg PUBLIC "-//W3C//DTD SVG 1.1//EN"
 "http://www.w3.org/Graphics/SVG/1.1/DTD/svg11.dtd">
<!-- Generated by graphviz version 2.36.0 (20140111.2315)
 -->
<!-- Title: %3 Pages: 1 -->
<svg width="1208pt" height="402pt"
 viewBox="0.00 0.00 1208.00 402.00" xmlns="http://www.w3.org/2000/svg" xmlns:xlink="http://www.w3.org/1999/xlink">
<g id="graph0" class="graph" transform="scale(1 1) rotate(0) translate(4 398)">
<title>%3</title>
<polygon fill="white" stroke="none" points="-4,4 -4,-398 1204,-398 1204,4 -4,4"/>
<!-- FloraChina.OakGenus -->
<g id="node1" class="node"><title>FloraChina.OakGenus</title>
<polygon fill="#ccffcc" stroke="black" points="395,-292 257,-292 257,-256 395,-256 395,-292"/>
<text text-anchor="middle" x="326" y="-270.3" font-family="Times,serif" font-size="14.00">FloraChina.OakGenus</text>
</g>
<!-- FloraMexico.OakGenus -->
<g id="node5" class="node"><title>FloraMexico.OakGenus</title>
<polygon fill="#ffffcc" stroke="black" points="208.234,-265.544 208.234,-280.456 147.175,-291 60.8249,-291 -0.233914,-280.456 -0.233914,-265.544 60.8249,-255 147.175,-255 208.234,-265.544"/>
<text text-anchor="middle" x="104" y="-269.3" font-family="Times,serif" font-size="14.00">FloraMexico.OakGenus</text>
</g>
<!-- FloraChina.OakGenus&#45;&gt;FloraMexico.OakGenus -->
<g id="edge5" class="edge"><title>FloraChina.OakGenus&#45;&gt;FloraMexico.OakGenus</title>
<path fill="none" stroke="#218b51" d="M256.525,-263.993C248.939,-263.175 241.315,-262.48 234,-262 222.724,-261.26 210.902,-261.234 199.183,-261.672"/>
<polygon fill="#218b51" stroke="#218b51" points="198.747,-258.189 188.928,-262.169 199.086,-265.181 198.747,-258.189"/>
<text text-anchor="middle" x="230" y="-265.8" font-family="Times,serif" font-size="14.00">1</text>
</g>
<!-- FloraChina.ChineseOakSpecies1 -->
<g id="node2" class="node"><title>FloraChina.ChineseOakSpecies1</title>
<polygon fill="#ccffcc" stroke="black" points="688.5,-144 493.5,-144 493.5,-108 688.5,-108 688.5,-144"/>
<text text-anchor="middle" x="591" y="-122.3" font-family="Times,serif" font-size="14.00">FloraChina.ChineseOakSpecies1</text>
</g>
<!-- FloraChina.ChineseOakSpecies1&#45;&gt;FloraChina.OakGenus -->
<g id="edge9" class="edge"><title>FloraChina.ChineseOakSpecies1&#45;&gt;FloraChina.OakGenus</title>
<path fill="none" stroke="#613022" d="M493.364,-129.25C476.027,-132.905 458.792,-138.779 444,-148 432.073,-155.435 434.978,-163.187 426,-174 403.582,-200.999 375.151,-229.185 354.514,-248.724"/>
<polygon fill="#613022" stroke="#613022" points="351.907,-246.371 347.015,-255.769 356.7,-251.473 351.907,-246.371"/>
<text text-anchor="middle" x="422" y="-185.8" font-family="Times,serif" font-size="14.00">4</text>
</g>
<!-- FloraChina.OakGenus\nFloraMexico.OakGenus -->
<g id="node4" class="node"><title>FloraChina.OakGenus\nFloraMexico.OakGenus</title>
<path fill="#eeeeee" stroke="black" d="M388,-165C388,-165 264,-165 264,-165 258,-165 252,-159 252,-153 252,-153 252,-139 252,-139 252,-133 258,-127 264,-127 264,-127 388,-127 388,-127 394,-127 400,-133 400,-139 400,-139 400,-153 400,-153 400,-159 394,-165 388,-165"/>
<text text-anchor="middle" x="326" y="-149.8" font-family="Times,serif" font-size="14.00">FloraChina.OakGenus</text>
<text text-anchor="middle" x="326" y="-134.8" font-family="Times,serif" font-size="14.00">FloraMexico.OakGenus</text>
</g>
<!-- FloraChina.ChineseOakSpecies1&#45;&gt;FloraChina.OakGenus\nFloraMexico.OakGenus -->
<g id="edge4" class="edge"><title>FloraChina.ChineseOakSpecies1&#45;&gt;FloraChina.OakGenus\nFloraMexico.OakGenus</title>
<path fill="none" stroke="#218b51" d="M493.492,-129.893C468.855,-131.204 442.428,-132.887 418,-135 415.592,-135.208 413.15,-135.431 410.685,-135.664"/>
<polygon fill="#218b51" stroke="#218b51" points="410.065,-132.209 400.462,-136.685 410.76,-139.174 410.065,-132.209"/>
<text text-anchor="middle" x="422" y="-138.8" font-family="Times,serif" font-size="14.00">1</text>
</g>
<!-- FloraChina.ChineseOakSpecies2 -->
<g id="node3" class="node"><title>FloraChina.ChineseOakSpecies2</title>
<polygon fill="#ccffcc" stroke="black" points="688.5,-190 493.5,-190 493.5,-154 688.5,-154 688.5,-190"/>
<text text-anchor="middle" x="591" y="-168.3" font-family="Times,serif" font-size="14.00">FloraChina.ChineseOakSpecies2</text>
</g>
<!-- FloraChina.ChineseOakSpecies2&#45;&gt;FloraChina.OakGenus -->
<g id="edge8" class="edge"><title>FloraChina.ChineseOakSpecies2&#45;&gt;FloraChina.OakGenus</title>
<path fill="none" stroke="#613022" d="M550.308,-190.142C517.345,-204.916 469.057,-225.89 426,-242 416.256,-245.646 405.886,-249.27 395.665,-252.699"/>
<polygon fill="#613022" stroke="#613022" points="394.328,-249.455 385.935,-255.921 396.528,-256.1 394.328,-249.455"/>
<text text-anchor="middle" x="422" y="-247.8" font-family="Times,serif" font-size="14.00">4</text>
</g>
<!-- FloraChina.ChineseOakSpecies2&#45;&gt;FloraChina.OakGenus\nFloraMexico.OakGenus -->
<g id="edge3" class="edge"><title>FloraChina.ChineseOakSpecies2&#45;&gt;FloraChina.OakGenus\nFloraMexico.OakGenus</title>
<path fill="none" stroke="#218b51" d="M493.189,-162.429C465.916,-159.733 436.498,-156.825 410.104,-154.216"/>
<polygon fill="#218b51" stroke="#218b51" points="410.443,-150.732 400.147,-153.231 409.754,-157.698 410.443,-150.732"/>
<text text-anchor="middle" x="422" y="-158.8" font-family="Times,serif" font-size="14.00">1</text>
</g>
<!-- FloraMexico.OakGenus&#45;&gt;FloraChina.OakGenus -->
<g id="edge7" class="edge"><title>FloraMexico.OakGenus&#45;&gt;FloraChina.OakGenus</title>
<path fill="none" stroke="#218b51" d="M208.146,-277.07C216.891,-277.151 225.599,-277.138 234,-277 238.178,-276.931 242.464,-276.845 246.791,-276.745"/>
<polygon fill="#218b51" stroke="#218b51" points="247.02,-280.24 256.929,-276.489 246.844,-273.242 247.02,-280.24"/>
<text text-anchor="middle" x="230" y="-280.8" font-family="Times,serif" font-size="14.00">1</text>
</g>
<!-- FloraMexico.MexicanOakSpecies1 -->
<g id="node6" class="node"><title>FloraMexico.MexicanOakSpecies1</title>
<polygon fill="#ffffcc" stroke="black" points="738.06,-368.544 738.06,-383.456 651.914,-394 530.086,-394 443.94,-383.456 443.94,-368.544 530.086,-358 651.914,-358 738.06,-368.544"/>
<text text-anchor="middle" x="591" y="-372.3" font-family="Times,serif" font-size="14.00">FloraMexico.MexicanOakSpecies1</text>
</g>
<!-- FloraMexico.MexicanOakSpecies1&#45;&gt;FloraChina.OakGenus -->
<g id="edge11" class="edge"><title>FloraMexico.MexicanOakSpecies1&#45;&gt;FloraChina.OakGenus</title>
<path fill="none" stroke="#613022" d="M481.658,-363.887C460.002,-359.255 437.831,-352.852 418,-344 393.535,-333.08 369.674,-314.329 352.527,-298.982"/>
<polygon fill="#613022" stroke="#613022" points="354.879,-296.389 345.143,-292.21 350.147,-301.548 354.879,-296.389"/>
<text text-anchor="middle" x="422" y="-348.8" font-family="Times,serif" font-size="14.00">4</text>
</g>
<!-- FloraMexico.MexicanOakSpecies1&#45;&gt;FloraChina.OakGenus\nFloraMexico.OakGenus -->
<g id="edge1" class="edge"><title>FloraMexico.MexicanOakSpecies1&#45;&gt;FloraChina.OakGenus\nFloraMexico.OakGenus</title>
<path fill="none" stroke="#218b51" d="M555.671,-357.923C519.176,-337.729 460.921,-302.627 418,-263 388.74,-235.986 361.602,-198.877 344.713,-173.75"/>
<polygon fill="#218b51" stroke="#218b51" points="347.62,-171.801 339.179,-165.398 341.785,-175.668 347.62,-171.801"/>
<text text-anchor="middle" x="422" y="-269.8" font-family="Times,serif" font-size="14.00">1</text>
</g>
<!-- FloraMexico.MexicanOakSpecies1&#45;&gt;FloraMexico.OakGenus -->
<g id="edge2" class="edge"><title>FloraMexico.MexicanOakSpecies1&#45;&gt;FloraMexico.OakGenus</title>
<path fill="none" stroke="#613022" d="M446.127,-368.257C436.581,-367.037 427.136,-365.627 418,-364 326.643,-347.725 223.901,-314.963 161.842,-293.513"/>
<polygon fill="#613022" stroke="#613022" points="162.834,-290.152 152.239,-290.172 160.533,-296.764 162.834,-290.152"/>
<text text-anchor="middle" x="326" y="-363.8" font-family="Times,serif" font-size="14.00">4</text>
</g>
<!-- FloraMexico.MexicanOakSpecies2 -->
<g id="node7" class="node"><title>FloraMexico.MexicanOakSpecies2</title>
<polygon fill="#ffffcc" stroke="black" points="1076.06,-67.5442 1076.06,-82.4558 989.914,-93 868.086,-93 781.94,-82.4558 781.94,-67.5442 868.086,-57 989.914,-57 1076.06,-67.5442"/>
<text text-anchor="middle" x="929" y="-71.3" font-family="Times,serif" font-size="14.00">FloraMexico.MexicanOakSpecies2</text>
</g>
<!-- FloraMexico.MexicanOakSpecies2&#45;&gt;FloraChina.ChineseOakSpecies2 -->
<g id="edge6" class="edge"><title>FloraMexico.MexicanOakSpecies2&#45;&gt;FloraChina.ChineseOakSpecies2</title>
<path fill="none" stroke="#366d41" d="M889.575,-93.1593C851.802,-110.288 792.108,-135.446 738,-150 725.474,-153.369 712.196,-156.266 698.952,-158.745"/>
<polygon fill="#366d41" stroke="#366d41" points="698.068,-155.348 688.844,-160.561 699.305,-162.238 698.068,-155.348"/>
<text text-anchor="middle" x="760" y="-146.8" font-family="Times,serif" font-size="14.00">2</text>
</g>
<!-- FloraMexico.MexicanOakSpecies2&#45;&gt;FloraChina.OakGenus\nFloraMexico.OakGenus -->
<g id="edge12" class="edge"><title>FloraMexico.MexicanOakSpecies2&#45;&gt;FloraChina.OakGenus\nFloraMexico.OakGenus</title>
<path fill="none" stroke="#218b51" d="M819.847,-62.8363C720.461,-54.9662 569.917,-51.4531 444,-84 414.92,-91.5165 385.047,-107.511 362.765,-121.371"/>
<polygon fill="#218b51" stroke="#218b51" points="360.868,-118.429 354.313,-126.753 364.628,-124.334 360.868,-118.429"/>
<text text-anchor="middle" x="591" y="-87.8" font-family="Times,serif" font-size="14.00">1</text>
</g>
<!-- FloraMexico.MexicanOakSpecies2&#45;&gt;FloraMexico.OakGenus -->
<g id="edge10" class="edge"><title>FloraMexico.MexicanOakSpecies2&#45;&gt;FloraMexico.OakGenus</title>
<path fill="none" stroke="#613022" d="M839.491,-60.4376C741.962,-46.8742 580.777,-31.8042 444,-54 355.212,-68.4083 327.882,-69.7019 252,-118 197.199,-152.88 148.572,-212.591 123.325,-246.825"/>
<polygon fill="#613022" stroke="#613022" points="120.468,-244.803 117.421,-254.95 126.131,-248.918 120.468,-244.803"/>
<text text-anchor="middle" x="422" y="-61.8" font-family="Times,serif" font-size="14.00">4</text>
</g>
<!-- Legend -->
<g id="node8" class="node"><title>Legend</title>
<polygon fill="white" stroke="black" points="1200,-150.5 1094,-150.5 1094,0.5 1200,0.5 1200,-150.5"/>
<polygon fill="none" stroke="black" points="1094,-124 1094,-150 1200,-150 1200,-124 1094,-124"/>
<text text-anchor="start" x="1122.5" y="-133.3" font-family="Arial Black" font-size="14.00"> Nodes</text>
<polygon fill="#ccffcc" stroke="none" points="1094,-99 1094,-124 1176,-124 1176,-99 1094,-99"/>
<polygon fill="none" stroke="black" points="1094,-99 1094,-124 1176,-124 1176,-99 1094,-99"/>
<text text-anchor="start" x="1104.5" y="-107.8" font-family="Times,serif" font-size="14.00">FloraChina</text>
<polygon fill="none" stroke="black" points="1176,-99 1176,-124 1200,-124 1200,-99 1176,-99"/>
<text text-anchor="start" x="1184.5" y="-107.8" font-family="Times,serif" font-size="14.00">3</text>
<polygon fill="#eeeeee" stroke="none" points="1094,-74 1094,-99 1176,-99 1176,-74 1094,-74"/>
<polygon fill="none" stroke="black" points="1094,-74 1094,-99 1176,-99 1176,-74 1094,-74"/>
<text text-anchor="start" x="1119.5" y="-82.8" font-family="Times,serif" font-size="14.00">comb</text>
<polygon fill="none" stroke="black" points="1176,-74 1176,-99 1200,-99 1200,-74 1176,-74"/>
<text text-anchor="start" x="1184.5" y="-82.8" font-family="Times,serif" font-size="14.00">1</text>
<polygon fill="#ffffcc" stroke="none" points="1094,-49 1094,-74 1176,-74 1176,-49 1094,-49"/>
<polygon fill="none" stroke="black" points="1094,-49 1094,-74 1176,-74 1176,-49 1094,-49"/>
<text text-anchor="start" x="1099.5" y="-57.8" font-family="Times,serif" font-size="14.00">FloraMexico</text>
<polygon fill="none" stroke="black" points="1176,-49 1176,-74 1200,-74 1200,-49 1176,-49"/>
<text text-anchor="start" x="1184.5" y="-57.8" font-family="Times,serif" font-size="14.00">3</text>
<polygon fill="none" stroke="black" points="1094,-24 1094,-49 1200,-49 1200,-24 1094,-24"/>
<text text-anchor="start" x="1121" y="-32.8" font-family="Arial Black" font-size="14.00"> Edges </text>
<polygon fill="none" stroke="black" points="1094,1 1094,-24 1176,-24 1176,1 1094,1"/>
<text text-anchor="start" x="1116" y="-7.8" font-family="Times,serif" font-size="14.00" fill="#000000">default</text>
<polygon fill="none" stroke="black" points="1176,1 1176,-24 1200,-24 1200,1 1176,1"/>
<text text-anchor="start" x="1181" y="-7.8" font-family="Times,serif" font-size="14.00">12</text>
</g>
</g>
</svg>
